# Blender 4.3.2
# www.blender.org
mtllib backboard.mtl
o Part.2
v 15.960000 12.819998 -23.960001
v 15.960000 22.379997 -23.960001
v 14.400000 12.819998 -22.400002
v 14.400000 21.299997 -22.400002
v 14.400000 14.899999 -8.400001
v 14.400000 21.299999 -8.400002
v 12.612000 21.299997 -17.478003
v 13.131000 21.299997 -17.131002
v 13.478000 21.299997 -16.612001
v 13.600000 21.299997 -16.000002
v 13.600000 12.819999 -16.000002
v 13.478000 12.819999 -16.612001
v 13.131000 12.819999 -17.131002
v 12.612000 12.819999 -17.478003
v 12.612000 12.819999 -9.478001
v 13.131000 12.819999 -9.131001
v 13.478000 12.819999 -8.612001
v 13.600000 12.819999 -8.000001
v 13.478000 21.299999 -8.612002
v 13.131000 21.299999 -9.131001
v 12.612000 21.299999 -9.478002
v 13.520000 14.899999 -8.400001
v 13.520000 21.299999 -8.400002
v 15.960000 22.379999 -12.000002
v 14.400000 12.819999 -12.000001
v 15.960000 12.819999 -12.000001
v 14.400000 21.299999 -12.000002
v 15.960000 22.379997 -20.000002
v 14.400000 12.819998 -20.000002
v 15.960000 12.819998 -20.000002
v 14.400000 21.299997 -20.000002
v 15.960000 12.819999 -16.000002
v 12.612000 21.299999 -6.522001
v 13.131000 21.299999 -6.869001
v 14.400000 12.819999 -16.000002
v 15.960000 12.819999 -8.000001
v 14.400000 21.299999 -8.000002
v 15.960000 22.379999 -8.000002
v 14.400000 14.899999 -8.000001
v 13.600000 14.899999 -8.000001
v 13.478000 21.299999 -7.388001
v 12.612000 21.299997 -14.522002
v 13.131000 21.299997 -14.869002
v 13.478000 21.299997 -15.388001
v 13.600000 21.299999 -8.000002
v 13.478000 12.819999 -15.388000
v 13.131000 12.819999 -14.869001
v 12.612000 12.819999 -14.522001
v 13.478000 12.819999 -7.388001
v 13.131000 12.819999 -6.869001
v 12.612000 12.819999 -6.522001
v 14.400000 21.299999 -7.600001
v 14.400000 21.299997 -16.000002
v 15.960000 22.379997 -16.000002
v 14.400000 14.899999 -7.600001
v 13.520000 14.899999 -7.600001
v 13.520000 21.299999 -7.600001
v 15.960000 22.379999 -4.000002
v 14.400000 12.820000 -4.000001
v 15.960000 12.820000 -4.000001
v 14.400000 21.299999 -4.000001
v 14.400000 12.819999 -8.000001
v 12.612000 21.299999 -1.478002
v 13.131000 21.299999 -1.131002
v 13.478000 21.299999 -0.612002
v 13.478000 12.820000 -0.612001
v 13.131000 12.820000 -1.131001
v 12.612000 12.820000 -1.478001
v 15.960000 12.820002 23.959997
v 15.960000 22.380001 23.959997
v 14.400000 12.820002 22.399998
v 14.400000 21.300001 22.399998
v 14.400000 14.900001 8.399999
v 14.400000 21.299999 8.399998
v 12.612000 21.300001 17.477999
v 13.131000 21.300001 17.130999
v 13.478000 21.300001 16.611998
v 13.600000 21.300001 15.999998
v 13.600000 12.820001 15.999999
v 13.478000 12.820001 16.611998
v 13.131000 12.820001 17.130999
v 12.612000 12.820001 17.477999
v 12.612000 12.820001 9.477999
v 13.131000 12.820001 9.130999
v 13.478000 12.820001 8.612000
v 13.600000 12.820001 7.999999
v 13.478000 21.299999 8.611999
v 13.131000 21.299999 9.130998
v 12.612000 21.299999 9.477998
v 13.520000 14.900001 8.399999
v 13.520000 21.299999 8.399998
v 15.960000 22.379999 11.999998
v 14.400000 12.820001 11.999999
v 15.960000 12.820001 11.999999
v 14.400000 21.299999 11.999998
v 15.960000 22.380001 19.999998
v 14.400000 12.820002 19.999998
v 15.960000 12.820002 19.999998
v 14.400000 21.300001 19.999998
v 15.960000 12.820001 15.999999
v 12.612000 21.299999 6.521998
v 13.131000 21.299999 6.868999
v 14.400000 12.820001 15.999999
v 15.960000 12.820001 7.999999
v 14.400000 21.299999 7.999999
v 15.960000 22.379999 7.999998
v 14.400000 14.900001 7.999999
v 13.600000 14.900001 7.999999
v 13.478000 21.299999 7.387999
v 12.612000 21.300001 14.521998
v 13.131000 21.300001 14.868999
v 13.478000 21.300001 15.387998
v 13.600000 21.299999 7.999999
v 13.478000 12.820001 15.387999
v 13.131000 12.820001 14.868999
v 12.612000 12.820001 14.521999
v 13.478000 12.820001 7.387999
v 13.131000 12.820001 6.868999
v 12.612000 12.820001 6.521999
v 13.600000 12.820000 -0.000001
v 13.600000 21.299999 -0.000002
v 14.400000 21.299999 7.599998
v 14.400000 21.300001 15.999998
v 15.960000 22.380001 15.999998
v 14.400000 14.900001 7.599999
v 13.520000 14.900001 7.599999
v 13.520000 21.299999 7.599998
v 15.960000 22.379999 3.999998
v 14.400000 12.820000 3.999999
v 15.960000 12.820000 3.999999
v 14.400000 21.299999 3.999998
v 15.960000 12.820000 -0.000001
v 14.400000 12.820000 -0.000001
v 14.400000 12.820001 7.999999
v 12.612000 21.299999 1.477998
v 13.131000 21.299999 1.130998
v 13.478000 21.299999 0.611998
v 13.478000 12.820000 0.611999
v 13.131000 12.820000 1.130999
v 12.612000 12.820000 1.477999
v 14.400000 21.299999 -0.000002
v 15.960000 22.379999 -0.000002
v 8.040000 12.819998 -23.960001
v 8.040000 22.379997 -23.960001
v 9.600000 12.819998 -22.400002
v 9.600000 21.299997 -22.400002
v 9.600000 14.899999 -8.400001
v 9.600000 21.299999 -8.400002
v 12.000000 12.819999 -16.000002
v 12.000000 21.299997 -17.600002
v 11.388000 21.299997 -17.478003
v 10.869000 21.299997 -17.131002
v 10.522000 21.299997 -16.612001
v 10.400000 21.299997 -16.000002
v 10.400000 12.819999 -16.000002
v 10.522000 12.819999 -16.612001
v 10.869000 12.819999 -17.131002
v 11.388000 12.819999 -17.478003
v 12.000000 12.819999 -17.600002
v 12.000000 12.819999 -9.600001
v 11.388000 12.819999 -9.478001
v 10.869000 12.819999 -9.131001
v 10.522000 12.819999 -8.612001
v 10.400000 12.819999 -8.000001
v 10.522000 21.299999 -8.612002
v 10.869000 21.299999 -9.131001
v 11.388000 21.299999 -9.478002
v 12.000000 21.299999 -9.600002
v 12.000000 12.819999 -8.000001
v 12.000000 12.819998 -23.960001
v 12.000000 22.379997 -23.960001
v 12.000000 12.819998 -22.400002
v 12.000000 21.299997 -22.400002
v 10.480000 14.899999 -8.400001
v 10.480000 21.299999 -8.400002
v 8.040000 22.379999 -12.000002
v 9.600000 12.819999 -12.000001
v 12.000000 22.379999 -12.000002
v 12.000000 21.299999 -6.400002
v 8.040000 12.819999 -12.000001
v 9.600000 21.299999 -12.000002
v 8.040000 22.379997 -20.000002
v 9.600000 12.819998 -20.000002
v 12.000000 22.379997 -20.000002
v 12.000000 21.299997 -20.000002
v 8.040000 12.819998 -20.000002
v 9.600000 21.299997 -20.000002
v 12.000000 22.379997 -16.000002
v 12.000000 21.299997 -16.000002
v 8.040000 12.819999 -16.000002
v 11.388000 21.299999 -6.522001
v 10.869000 21.299999 -6.869001
v 9.600000 12.819999 -16.000002
v 8.040000 12.819999 -8.000001
v 9.600000 21.299999 -8.000002
v 8.040000 22.379999 -8.000002
v 9.600000 14.899999 -8.000001
v 10.400000 14.899999 -8.000001
v 10.522000 21.299999 -7.388001
v 12.000000 21.299997 -14.400002
v 11.388000 21.299997 -14.522002
v 10.869000 21.299997 -14.869002
v 10.522000 21.299997 -15.388001
v 10.400000 21.299999 -8.000002
v 10.522000 12.819999 -15.388000
v 10.869000 12.819999 -14.869001
v 11.388000 12.819999 -14.522001
v 12.000000 12.819999 -14.400001
v 10.522000 12.819999 -7.388001
v 10.869000 12.819999 -6.869001
v 11.388000 12.819999 -6.522001
v 12.000000 21.299999 -12.000002
v 12.000000 12.819999 -6.400001
v 9.600000 21.299999 -7.600001
v 9.600000 21.299997 -16.000002
v 8.040000 22.379997 -16.000002
v 9.600000 14.899999 -7.600001
v 10.480000 14.899999 -7.600001
v 10.480000 21.299999 -7.600001
v 8.040000 22.379999 -4.000002
v 9.600000 12.820000 -4.000001
v 12.000000 22.379999 -4.000002
v 8.040000 12.820000 -4.000001
v 9.600000 21.299999 -4.000001
v 12.000000 22.379999 -8.000002
v 12.000000 21.299999 -8.000002
v 9.600000 12.819999 -8.000001
v 12.000000 21.299999 -1.600002
v 11.388000 21.299999 -1.478002
v 10.869000 21.299999 -1.131002
v 10.522000 21.299999 -0.612002
v 10.522000 12.820000 -0.612001
v 10.869000 12.820000 -1.131001
v 11.388000 12.820000 -1.478001
v 12.000000 12.820000 -1.600001
v 12.000000 21.299999 -4.000001
v 8.040000 12.820002 23.959997
v 8.040000 22.380001 23.959997
v 9.600000 12.820002 22.399998
v 9.600000 21.300001 22.399998
v 9.600000 14.900001 8.399999
v 9.600000 21.299999 8.399998
v 12.000000 12.820001 15.999999
v 12.000000 21.300001 17.599998
v 11.388000 21.300001 17.477999
v 10.869000 21.300001 17.130999
v 10.522000 21.300001 16.611998
v 10.400000 21.300001 15.999998
v 10.400000 12.820001 15.999999
v 10.522000 12.820001 16.611998
v 10.869000 12.820001 17.130999
v 11.388000 12.820001 17.477999
v 12.000000 12.820001 17.599998
v 12.000000 12.820001 9.599999
v 11.388000 12.820001 9.477999
v 10.869000 12.820001 9.130999
v 10.522000 12.820001 8.612000
v 10.400000 12.820001 7.999999
v 10.522000 21.299999 8.611999
v 10.869000 21.299999 9.130998
v 11.388000 21.299999 9.477998
v 12.000000 21.299999 9.599998
v 12.000000 12.820001 7.999999
v 12.000000 12.820002 23.959997
v 12.000000 22.380001 23.959997
v 12.000000 12.820002 22.399998
v 12.000000 21.300001 22.399998
v 10.480000 14.900001 8.399999
v 10.480000 21.299999 8.399998
v 8.040000 22.379999 11.999998
v 9.600000 12.820001 11.999999
v 12.000000 22.379999 11.999998
v 12.000000 21.299999 6.399999
v 8.040000 12.820001 11.999999
v 9.600000 21.299999 11.999998
v 8.040000 22.380001 19.999998
v 9.600000 12.820002 19.999998
v 12.000000 22.380001 19.999998
v 12.000000 21.300001 19.999998
v 8.040000 12.820002 19.999998
v 9.600000 21.300001 19.999998
v 12.000000 22.380001 15.999998
v 12.000000 21.300001 15.999998
v 8.040000 12.820001 15.999999
v 11.388000 21.299999 6.521998
v 10.869000 21.299999 6.868999
v 9.600000 12.820001 15.999999
v 8.040000 12.820001 7.999999
v 9.600000 21.299999 7.999999
v 8.040000 22.379999 7.999998
v 9.600000 14.900001 7.999999
v 10.400000 14.900001 7.999999
v 10.522000 21.299999 7.387999
v 12.000000 21.300001 14.399998
v 11.388000 21.300001 14.521998
v 10.869000 21.300001 14.868999
v 10.522000 21.300001 15.387998
v 10.400000 21.299999 7.999999
v 10.522000 12.820001 15.387999
v 10.869000 12.820001 14.868999
v 11.388000 12.820001 14.521999
v 12.000000 12.820001 14.399999
v 10.522000 12.820001 7.387999
v 10.869000 12.820001 6.868999
v 11.388000 12.820001 6.521999
v 12.000000 21.299999 11.999998
v 12.000000 12.820001 6.399999
v 10.400000 12.820000 -0.000001
v 10.400000 21.299999 -0.000002
v 12.000000 12.820000 -0.000001
v 9.600000 21.299999 7.599998
v 9.600000 21.300001 15.999998
v 8.040000 22.380001 15.999998
v 9.600000 14.900001 7.599999
v 10.480000 14.900001 7.599999
v 10.480000 21.299999 7.599998
v 8.040000 22.379999 3.999998
v 9.600000 12.820000 3.999999
v 12.000000 22.379999 3.999998
v 8.040000 12.820000 3.999999
v 9.600000 21.299999 3.999998
v 12.000000 22.379999 -0.000002
v 12.000000 21.299999 -0.000002
v 8.040000 12.820000 -0.000001
v 9.600000 12.820000 -0.000001
v 12.000000 22.379999 7.999998
v 12.000000 21.299999 7.999999
v 9.600000 12.820001 7.999999
v 12.000000 21.299999 1.599998
v 11.388000 21.299999 1.477998
v 10.869000 21.299999 1.130998
v 10.522000 21.299999 0.611998
v 10.522000 12.820000 0.611999
v 10.869000 12.820000 1.130999
v 11.388000 12.820000 1.477999
v 12.000000 12.820000 1.599999
v 12.000000 21.299999 3.999998
v 9.600000 21.299999 -0.000002
v 8.040000 22.379999 -0.000002
v 12.000000 12.819998 -23.960001
v 15.960000 12.819998 -23.960001
v 15.960000 12.819998 -23.960001
v 15.960000 22.379997 -23.960001
v 15.960000 22.379997 -23.960001
v 15.960000 22.379997 -20.000002
v 14.400000 12.819998 -20.000002
v 14.400000 12.819998 -22.400002
v 14.400000 12.819998 -22.400002
v 14.400000 21.299997 -22.400002
v 14.400000 21.299997 -22.400002
v 12.000000 21.299997 -22.400002
v 13.520000 14.899999 -8.400001
v 14.400000 14.899999 -8.400001
v 13.600000 12.819999 -16.000002
v 13.478000 12.819999 -16.612001
v 13.131000 12.819999 -17.131002
v 12.612000 12.819999 -17.478003
v 12.000000 12.819999 -17.600002
v 12.000000 12.819999 -9.600001
v 12.612000 12.819999 -9.478001
v 13.131000 12.819999 -9.131001
v 13.478000 12.819999 -8.612001
v 13.600000 12.819999 -8.000001
v 12.000000 22.379997 -23.960001
v 12.000000 12.819998 -22.400002
v 15.960000 22.379999 -8.000002
v 15.960000 22.379999 -12.000002
v 14.400000 12.819999 -16.000002
v 15.960000 12.819998 -20.000002
v 14.400000 21.299997 -20.000002
v 15.960000 12.819999 -16.000002
v 14.400000 12.819999 -8.000001
v 14.400000 12.820000 -4.000001
v 15.960000 12.819999 -12.000001
v 15.960000 12.819999 -8.000001
v 14.400000 21.299999 -12.000002
v 14.400000 21.299999 -8.000002
v 13.478000 12.819999 -15.388000
v 13.131000 12.819999 -14.869001
v 12.612000 12.819999 -14.522001
v 12.000000 12.819999 -14.400001
v 13.131000 12.819999 -6.869001
v 13.478000 12.819999 -7.388001
v 12.612000 12.819999 -6.522001
v 12.000000 12.819999 -6.400001
v 13.520000 14.899999 -7.600001
v 14.400000 14.899999 -7.600001
v 15.960000 22.379997 -16.000002
v 14.400000 21.299997 -16.000002
v 14.400000 12.819999 -12.000001
v 13.478000 12.820000 -0.612001
v 13.131000 12.820000 -1.131001
v 12.612000 12.820000 -1.478001
v 12.000000 12.820000 -1.600001
v 13.600000 12.820000 -0.000001
v 15.960000 22.379999 -0.000002
v 15.960000 22.379999 -4.000002
v 14.400000 12.820000 -0.000001
v 15.960000 12.820000 -4.000001
v 15.960000 12.820000 -0.000001
v 14.400000 21.299999 -4.000001
v 14.400000 21.299999 -0.000002
v 12.000000 12.820002 23.959997
v 15.960000 12.820002 23.959997
v 15.960000 12.820002 23.959997
v 15.960000 22.380001 23.959997
v 15.960000 22.380001 23.959997
v 15.960000 22.380001 19.999998
v 14.400000 12.820002 19.999998
v 14.400000 12.820002 22.399998
v 14.400000 12.820002 22.399998
v 14.400000 21.300001 22.399998
v 14.400000 21.300001 22.399998
v 12.000000 21.300001 22.399998
v 13.520000 14.900001 8.399999
v 14.400000 14.900001 8.399999
v 13.600000 12.820001 15.999999
v 13.478000 12.820001 16.611998
v 13.131000 12.820001 17.130999
v 12.612000 12.820001 17.477999
v 12.000000 12.820001 17.599998
v 12.000000 12.820001 9.599999
v 12.612000 12.820001 9.477999
v 13.131000 12.820001 9.130999
v 13.478000 12.820001 8.612000
v 13.600000 12.820001 7.999999
v 12.000000 22.380001 23.959997
v 12.000000 12.820002 22.399998
v 15.960000 22.379999 7.999998
v 15.960000 22.379999 11.999998
v 14.400000 12.820001 15.999999
v 15.960000 12.820002 19.999998
v 14.400000 21.300001 19.999998
v 15.960000 12.820001 15.999999
v 14.400000 12.820001 7.999999
v 14.400000 12.820000 3.999999
v 15.960000 12.820001 11.999999
v 15.960000 12.820001 7.999999
v 14.400000 21.299999 11.999998
v 14.400000 21.299999 7.999999
v 13.478000 12.820001 15.387999
v 13.131000 12.820001 14.868999
v 12.612000 12.820001 14.521999
v 12.000000 12.820001 14.399999
v 13.131000 12.820001 6.868999
v 13.478000 12.820001 7.387999
v 12.612000 12.820001 6.521999
v 12.000000 12.820001 6.399999
v 13.520000 14.900001 7.599999
v 14.400000 14.900001 7.599999
v 15.960000 22.380001 15.999998
v 14.400000 21.300001 15.999998
v 14.400000 12.820001 11.999999
v 13.478000 12.820000 0.611999
v 13.131000 12.820000 1.130999
v 12.612000 12.820000 1.477999
v 12.000000 12.820000 1.599999
v 15.960000 22.379999 3.999998
v 15.960000 12.820000 3.999999
v 14.400000 21.299999 3.999998
v 8.040000 12.819998 -23.960001
v 8.040000 12.819998 -23.960001
v 8.040000 22.379997 -23.960001
v 8.040000 22.379997 -23.960001
v 8.040000 22.379997 -20.000002
v 9.600000 12.819998 -20.000002
v 9.600000 12.819998 -22.400002
v 9.600000 12.819998 -22.400002
v 9.600000 21.299997 -22.400002
v 9.600000 21.299997 -22.400002
v 10.480000 14.899999 -8.400001
v 9.600000 14.899999 -8.400001
v 10.400000 12.819999 -16.000002
v 10.522000 12.819999 -16.612001
v 10.869000 12.819999 -17.131002
v 11.388000 12.819999 -17.478003
v 11.388000 12.819999 -9.478001
v 10.869000 12.819999 -9.131001
v 10.522000 12.819999 -8.612001
v 10.400000 12.819999 -8.000001
v 8.040000 22.379999 -8.000002
v 8.040000 22.379999 -12.000002
v 9.600000 12.819999 -16.000002
v 8.040000 12.819998 -20.000002
v 9.600000 21.299997 -20.000002
v 8.040000 12.819999 -16.000002
v 9.600000 12.819999 -8.000001
v 9.600000 12.820000 -4.000001
v 8.040000 12.819999 -12.000001
v 8.040000 12.819999 -8.000001
v 9.600000 21.299999 -12.000002
v 9.600000 21.299999 -8.000002
v 10.522000 12.819999 -15.388000
v 10.869000 12.819999 -14.869001
v 11.388000 12.819999 -14.522001
v 10.869000 12.819999 -6.869001
v 10.522000 12.819999 -7.388001
v 11.388000 12.819999 -6.522001
v 10.480000 14.899999 -7.600001
v 9.600000 14.899999 -7.600001
v 8.040000 22.379997 -16.000002
v 9.600000 21.299997 -16.000002
v 9.600000 12.819999 -12.000001
v 10.522000 12.820000 -0.612001
v 10.869000 12.820000 -1.131001
v 11.388000 12.820000 -1.478001
v 10.400000 12.820000 -0.000001
v 8.040000 22.379999 -0.000002
v 8.040000 22.379999 -4.000002
v 9.600000 12.820000 -0.000001
v 8.040000 12.820000 -4.000001
v 8.040000 12.820000 -0.000001
v 9.600000 21.299999 -4.000001
v 9.600000 21.299999 -0.000002
v 8.040000 12.820002 23.959997
v 8.040000 12.820002 23.959997
v 8.040000 22.380001 23.959997
v 8.040000 22.380001 23.959997
v 8.040000 22.380001 19.999998
v 9.600000 12.820002 19.999998
v 9.600000 12.820002 22.399998
v 9.600000 12.820002 22.399998
v 9.600000 21.300001 22.399998
v 9.600000 21.300001 22.399998
v 10.480000 14.900001 8.399999
v 9.600000 14.900001 8.399999
v 10.400000 12.820001 15.999999
v 10.522000 12.820001 16.611998
v 10.869000 12.820001 17.130999
v 11.388000 12.820001 17.477999
v 11.388000 12.820001 9.477999
v 10.869000 12.820001 9.130999
v 10.522000 12.820001 8.612000
v 10.400000 12.820001 7.999999
v 8.040000 22.379999 7.999998
v 8.040000 22.379999 11.999998
v 9.600000 12.820001 15.999999
v 8.040000 12.820002 19.999998
v 9.600000 21.300001 19.999998
v 8.040000 12.820001 15.999999
v 9.600000 12.820001 7.999999
v 9.600000 12.820000 3.999999
v 8.040000 12.820001 11.999999
v 8.040000 12.820001 7.999999
v 9.600000 21.299999 11.999998
v 9.600000 21.299999 7.999999
v 10.522000 12.820001 15.387999
v 10.869000 12.820001 14.868999
v 11.388000 12.820001 14.521999
v 10.869000 12.820001 6.868999
v 10.522000 12.820001 7.387999
v 11.388000 12.820001 6.521999
v 10.480000 14.900001 7.599999
v 9.600000 14.900001 7.599999
v 8.040000 22.380001 15.999998
v 9.600000 21.300001 15.999998
v 9.600000 12.820001 11.999999
v 10.522000 12.820000 0.611999
v 10.869000 12.820000 1.130999
v 11.388000 12.820000 1.477999
v 8.040000 22.379999 3.999998
v 8.040000 12.820000 3.999999
v 9.600000 21.299999 3.999998
v 9.783000 23.950003 19.081999
v 10.018000 24.200003 19.178999
v 9.852000 24.127003 19.109999
v 10.483000 24.200003 18.482998
v 10.303000 23.950003 18.302998
v 10.356000 24.127003 18.355999
v 11.082000 23.950003 17.782999
v 11.179000 24.200003 18.017998
v 11.110000 24.127003 17.851997
v 12.000000 24.200003 17.854998
v 12.000000 23.950003 17.599998
v 12.000000 24.127003 17.674997
v 12.918000 23.950003 17.782999
v 12.821000 24.200003 18.017998
v 12.890000 24.127003 17.851997
v 13.697000 23.950003 18.302998
v 13.517000 24.200003 18.482998
v 13.644000 24.127003 18.355999
v 14.217000 23.950003 19.081999
v 13.982000 24.200003 19.178999
v 14.148000 24.127003 19.109999
v 14.400000 23.950003 19.999998
v 14.145000 24.200003 19.999998
v 14.325000 24.127003 19.999998
v 13.982000 24.200003 20.820997
v 14.217000 23.950003 20.917997
v 14.148000 24.127003 20.889997
v 13.697000 23.950003 21.696999
v 13.517000 24.200003 21.516998
v 13.644000 24.127003 21.643997
v 12.918000 23.950003 22.216997
v 12.821000 24.200003 21.981998
v 12.890000 24.127003 22.147999
v 12.000000 23.950003 22.399998
v 12.000000 24.200003 22.144999
v 12.000000 24.127003 22.324999
v 11.082000 23.950003 22.216997
v 11.179000 24.200003 21.981998
v 11.110000 24.127003 22.147999
v 10.483000 24.200003 21.516998
v 10.303000 23.950003 21.696999
v 10.356000 24.127003 21.643997
v 9.783000 23.950003 20.917997
v 10.018000 24.200003 20.820997
v 9.852000 24.127003 20.889997
v 9.600000 23.950003 19.999998
v 9.855000 24.200003 19.999998
v 9.675000 24.127003 19.999998
v 13.014000 24.200003 18.936998
v 12.000000 24.200003 18.835999
v 10.986000 24.200003 18.936998
v 13.097000 24.200003 19.999998
v 12.000000 24.200003 19.999998
v 10.903000 24.200003 19.999998
v 13.014000 24.200003 21.062998
v 12.000000 24.200003 21.163998
v 10.986000 24.200003 21.062998
v 9.600000 22.530003 19.999998
v 9.447000 22.380001 19.999998
v 9.555000 22.424002 19.999998
v 9.641000 22.380001 20.976997
v 9.783000 22.530003 20.917997
v 9.741000 22.424002 20.935999
v 10.195000 22.380001 21.804998
v 10.303000 22.530003 21.696999
v 10.271000 22.424002 21.728998
v 11.023000 22.380001 22.358997
v 11.082000 22.530003 22.216997
v 11.064000 22.424002 22.258999
v 12.000000 22.380001 22.552998
v 12.000000 22.530003 22.399998
v 12.000000 22.424002 22.444998
v 12.977000 22.380001 22.358997
v 12.918000 22.530003 22.216997
v 12.936000 22.424002 22.258999
v 13.805000 22.380001 21.804998
v 13.697000 22.530003 21.696999
v 13.729000 22.424002 21.728998
v 14.359000 22.380001 20.976997
v 14.217000 22.530003 20.917997
v 14.259000 22.424002 20.935999
v 14.553000 22.380001 19.999998
v 14.400000 22.530003 19.999998
v 14.445000 22.424002 19.999998
v 14.359000 22.380001 19.022999
v 14.217000 22.530003 19.081999
v 14.259000 22.424002 19.063997
v 13.805000 22.380001 18.194998
v 13.697000 22.530003 18.302998
v 13.729000 22.424002 18.270998
v 12.977000 22.380001 17.640999
v 12.918000 22.530003 17.782999
v 12.936000 22.424002 17.740997
v 12.000000 22.380001 17.446999
v 12.000000 22.530003 17.599998
v 12.000000 22.424002 17.554998
v 11.023000 22.380001 17.640999
v 11.082000 22.530003 17.782999
v 11.064000 22.424002 17.740997
v 10.195000 22.380001 18.194998
v 10.303000 22.530003 18.302998
v 10.271000 22.424002 18.270998
v 9.641000 22.380001 19.022999
v 9.783000 22.530003 19.081999
v 9.741000 22.424002 19.063997
v 9.783000 23.950001 11.081998
v 10.018000 24.200001 11.178998
v 9.852000 24.127001 11.109998
v 10.483000 24.200001 10.482998
v 10.303000 23.950001 10.302999
v 10.356000 24.127001 10.355998
v 11.082000 23.950001 9.782998
v 11.179000 24.200001 10.017998
v 11.110000 24.127001 9.851998
v 12.000000 24.200001 9.854998
v 12.000000 23.950001 9.599998
v 12.000000 24.127001 9.674998
v 12.918000 23.950001 9.782998
v 12.821000 24.200001 10.017998
v 12.890000 24.127001 9.851998
v 13.697000 23.950001 10.302999
v 13.517000 24.200001 10.482998
v 13.644000 24.127001 10.355998
v 14.217000 23.950001 11.081998
v 13.982000 24.200001 11.178998
v 14.148000 24.127001 11.109998
v 14.400000 23.950001 11.999998
v 14.145000 24.200001 11.999998
v 14.325000 24.127001 11.999998
v 13.982000 24.200003 12.820998
v 14.217000 23.950003 12.917998
v 14.148000 24.127003 12.889998
v 13.697000 23.950003 13.696998
v 13.517000 24.200003 13.516998
v 13.644000 24.127003 13.643998
v 12.918000 23.950003 14.216998
v 12.821000 24.200003 13.981998
v 12.890000 24.127003 14.147998
v 12.000000 23.950003 14.399998
v 12.000000 24.200003 14.144999
v 12.000000 24.127003 14.324998
v 11.082000 23.950003 14.216998
v 11.179000 24.200003 13.981998
v 11.110000 24.127003 14.147998
v 10.483000 24.200003 13.516998
v 10.303000 23.950003 13.696998
v 10.356000 24.127003 13.643998
v 9.783000 23.950003 12.917998
v 10.018000 24.200003 12.820998
v 9.852000 24.127003 12.889998
v 9.600000 23.950001 11.999998
v 9.855000 24.200001 11.999998
v 9.675000 24.127001 11.999998
v 13.014000 24.200001 10.936998
v 12.000000 24.200001 10.835999
v 10.986000 24.200001 10.936998
v 13.097000 24.200001 11.999998
v 12.000000 24.200001 11.999998
v 10.903000 24.200001 11.999998
v 13.014000 24.200003 13.062998
v 12.000000 24.200003 13.163998
v 10.986000 24.200003 13.062998
v 9.600000 22.530001 11.999998
v 9.447000 22.379999 11.999998
v 9.555000 22.424000 11.999998
v 9.641000 22.380001 12.976998
v 9.783000 22.530003 12.917998
v 9.741000 22.424002 12.935998
v 10.195000 22.380001 13.804998
v 10.303000 22.530003 13.696998
v 10.271000 22.424002 13.728998
v 11.023000 22.380001 14.358998
v 11.082000 22.530003 14.216998
v 11.064000 22.424002 14.258998
v 12.000000 22.380001 14.552999
v 12.000000 22.530003 14.399998
v 12.000000 22.424002 14.444998
v 12.977000 22.380001 14.358998
v 12.918000 22.530003 14.216998
v 12.936000 22.424002 14.258998
v 13.805000 22.380001 13.804998
v 13.697000 22.530003 13.696998
v 13.729000 22.424002 13.728998
v 14.359000 22.380001 12.976998
v 14.217000 22.530003 12.917998
v 14.259000 22.424002 12.935998
v 14.553000 22.379999 11.999998
v 14.400000 22.530001 11.999998
v 14.445000 22.424000 11.999998
v 14.359000 22.379999 11.022998
v 14.217000 22.530001 11.081998
v 14.259000 22.424000 11.063998
v 13.805000 22.379999 10.194998
v 13.697000 22.530001 10.302999
v 13.729000 22.424000 10.270998
v 12.977000 22.379999 9.640998
v 12.918000 22.530001 9.782998
v 12.936000 22.424000 9.740998
v 12.000000 22.379999 9.446998
v 12.000000 22.530001 9.599998
v 12.000000 22.424000 9.554998
v 11.023000 22.379999 9.640998
v 11.082000 22.530001 9.782998
v 11.064000 22.424000 9.740998
v 10.195000 22.379999 10.194998
v 10.303000 22.530001 10.302999
v 10.271000 22.424000 10.270998
v 9.641000 22.379999 11.022998
v 9.783000 22.530001 11.081998
v 9.741000 22.424000 11.063998
v 9.783000 23.950001 3.081998
v 10.018000 24.200001 3.178998
v 9.852000 24.127001 3.109998
v 10.483000 24.200001 2.482998
v 10.303000 23.950001 2.302998
v 10.356000 24.127001 2.355998
v 11.082000 23.950001 1.782998
v 11.179000 24.200001 2.017998
v 11.110000 24.127001 1.851998
v 12.000000 24.200001 1.854998
v 12.000000 23.950001 1.599998
v 12.000000 24.127001 1.674998
v 12.918000 23.950001 1.782998
v 12.821000 24.200001 2.017998
v 12.890000 24.127001 1.851998
v 13.697000 23.950001 2.302998
v 13.517000 24.200001 2.482998
v 13.644000 24.127001 2.355998
v 14.217000 23.950001 3.081998
v 13.982000 24.200001 3.178998
v 14.148000 24.127001 3.109998
v 14.400000 23.950001 3.999998
v 14.145000 24.200001 3.999998
v 14.325000 24.127001 3.999998
v 13.982000 24.200001 4.820998
v 14.217000 23.950001 4.917998
v 14.148000 24.127001 4.889998
v 13.697000 23.950001 5.696998
v 13.517000 24.200001 5.516998
v 13.644000 24.127001 5.643998
v 12.918000 23.950001 6.216998
v 12.821000 24.200001 5.981998
v 12.890000 24.127001 6.147998
v 12.000000 23.950001 6.399998
v 12.000000 24.200001 6.144998
v 12.000000 24.127001 6.324998
v 11.082000 23.950001 6.216998
v 11.179000 24.200001 5.981998
v 11.110000 24.127001 6.147998
v 10.483000 24.200001 5.516998
v 10.303000 23.950001 5.696998
v 10.356000 24.127001 5.643998
v 9.783000 23.950001 4.917998
v 10.018000 24.200001 4.820998
v 9.852000 24.127001 4.889998
v 9.600000 23.950001 3.999998
v 9.855000 24.200001 3.999998
v 9.675000 24.127001 3.999998
v 13.014000 24.200001 2.936998
v 12.000000 24.200001 2.835998
v 10.986000 24.200001 2.936998
v 13.097000 24.200001 3.999998
v 12.000000 24.200001 3.999998
v 10.903000 24.200001 3.999998
v 13.014000 24.200001 5.062998
v 12.000000 24.200001 5.163998
v 10.986000 24.200001 5.062998
v 9.600000 22.530001 3.999998
v 9.447000 22.379999 3.999998
v 9.555000 22.424000 3.999998
v 9.641000 22.379999 4.976998
v 9.783000 22.530001 4.917998
v 9.741000 22.424000 4.935998
v 10.195000 22.379999 5.804998
v 10.303000 22.530001 5.696998
v 10.271000 22.424000 5.728998
v 11.023000 22.379999 6.358998
v 11.082000 22.530001 6.216998
v 11.064000 22.424000 6.258998
v 12.000000 22.379999 6.552998
v 12.000000 22.530001 6.399998
v 12.000000 22.424000 6.444998
v 12.977000 22.379999 6.358998
v 12.918000 22.530001 6.216998
v 12.936000 22.424000 6.258998
v 13.805000 22.379999 5.804998
v 13.697000 22.530001 5.696998
v 13.729000 22.424000 5.728998
v 14.359000 22.379999 4.976998
v 14.217000 22.530001 4.917998
v 14.259000 22.424000 4.935998
v 14.553000 22.379999 3.999998
v 14.400000 22.530001 3.999998
v 14.445000 22.424000 3.999998
v 14.359000 22.379999 3.022998
v 14.217000 22.530001 3.081998
v 14.259000 22.424000 3.063998
v 13.805000 22.379999 2.194998
v 13.697000 22.530001 2.302998
v 13.729000 22.424000 2.270998
v 12.977000 22.379999 1.640998
v 12.918000 22.530001 1.782998
v 12.936000 22.424000 1.740998
v 12.000000 22.379999 1.446998
v 12.000000 22.530001 1.599998
v 12.000000 22.424000 1.554998
v 11.023000 22.379999 1.640998
v 11.082000 22.530001 1.782998
v 11.064000 22.424000 1.740998
v 10.195000 22.379999 2.194998
v 10.303000 22.530001 2.302998
v 10.271000 22.424000 2.270998
v 9.641000 22.379999 3.022998
v 9.783000 22.530001 3.081998
v 9.741000 22.424000 3.063998
v 9.783000 23.950001 -4.918002
v 10.018000 24.200001 -4.821002
v 9.852000 24.127001 -4.890002
v 10.483000 24.200001 -5.517002
v 10.303000 23.950001 -5.697002
v 10.356000 24.127001 -5.644002
v 11.082000 23.950001 -6.217002
v 11.179000 24.200001 -5.982002
v 11.110000 24.127001 -6.148002
v 12.000000 24.200001 -6.145002
v 12.000000 23.950001 -6.400002
v 12.000000 24.127001 -6.325002
v 12.918000 23.950001 -6.217002
v 12.821000 24.200001 -5.982002
v 12.890000 24.127001 -6.148002
v 13.697000 23.950001 -5.697002
v 13.517000 24.200001 -5.517002
v 13.644000 24.127001 -5.644002
v 14.217000 23.950001 -4.918002
v 13.982000 24.200001 -4.821002
v 14.148000 24.127001 -4.890002
v 14.400000 23.950001 -4.000002
v 14.145000 24.200001 -4.000002
v 14.325000 24.127001 -4.000002
v 13.982000 24.200001 -3.179002
v 14.217000 23.950001 -3.082002
v 14.148000 24.127001 -3.110002
v 13.697000 23.950001 -2.303002
v 13.517000 24.200001 -2.483002
v 13.644000 24.127001 -2.356002
v 12.918000 23.950001 -1.783002
v 12.821000 24.200001 -2.018002
v 12.890000 24.127001 -1.852002
v 12.000000 23.950001 -1.600002
v 12.000000 24.200001 -1.855002
v 12.000000 24.127001 -1.675002
v 11.082000 23.950001 -1.783002
v 11.179000 24.200001 -2.018002
v 11.110000 24.127001 -1.852002
v 10.483000 24.200001 -2.483002
v 10.303000 23.950001 -2.303002
v 10.356000 24.127001 -2.356002
v 9.783000 23.950001 -3.082002
v 10.018000 24.200001 -3.179002
v 9.852000 24.127001 -3.110002
v 9.600000 23.950001 -4.000002
v 9.855000 24.200001 -4.000002
v 9.675000 24.127001 -4.000002
v 13.014000 24.200001 -5.063002
v 12.000000 24.200001 -5.164002
v 10.986000 24.200001 -5.063002
v 13.097000 24.200001 -4.000002
v 12.000000 24.200001 -4.000002
v 10.903000 24.200001 -4.000002
v 13.014000 24.200001 -2.937002
v 12.000000 24.200001 -2.836002
v 10.986000 24.200001 -2.937002
v 9.600000 22.530001 -4.000002
v 9.447000 22.379999 -4.000002
v 9.555000 22.424000 -4.000002
v 9.641000 22.379999 -3.023002
v 9.783000 22.530001 -3.082002
v 9.741000 22.424000 -3.064002
v 10.195000 22.379999 -2.195002
v 10.303000 22.530001 -2.303002
v 10.271000 22.424000 -2.271002
v 11.023000 22.379999 -1.641002
v 11.082000 22.530001 -1.783002
v 11.064000 22.424000 -1.741002
v 12.000000 22.379999 -1.447002
v 12.000000 22.530001 -1.600002
v 12.000000 22.424000 -1.555002
v 12.977000 22.379999 -1.641002
v 12.918000 22.530001 -1.783002
v 12.936000 22.424000 -1.741002
v 13.805000 22.379999 -2.195002
v 13.697000 22.530001 -2.303002
v 13.729000 22.424000 -2.271002
v 14.359000 22.379999 -3.023002
v 14.217000 22.530001 -3.082002
v 14.259000 22.424000 -3.064002
v 14.553000 22.379999 -4.000002
v 14.400000 22.530001 -4.000002
v 14.445000 22.424000 -4.000002
v 14.359000 22.379999 -4.977002
v 14.217000 22.530001 -4.918002
v 14.259000 22.424000 -4.936002
v 13.805000 22.379999 -5.805002
v 13.697000 22.530001 -5.697002
v 13.729000 22.424000 -5.729002
v 12.977000 22.379999 -6.359002
v 12.918000 22.530001 -6.217002
v 12.936000 22.424000 -6.259002
v 12.000000 22.379999 -6.553002
v 12.000000 22.530001 -6.400002
v 12.000000 22.424000 -6.445002
v 11.023000 22.379999 -6.359002
v 11.082000 22.530001 -6.217002
v 11.064000 22.424000 -6.259002
v 10.195000 22.379999 -5.805002
v 10.303000 22.530001 -5.697002
v 10.271000 22.424000 -5.729002
v 9.641000 22.379999 -4.977002
v 9.783000 22.530001 -4.918002
v 9.741000 22.424000 -4.936002
v 9.783000 23.949999 -12.918002
v 10.018000 24.199999 -12.821002
v 9.852000 24.126999 -12.890002
v 10.483000 24.199999 -13.517002
v 10.303000 23.949999 -13.697001
v 10.356000 24.126999 -13.644002
v 11.082000 23.949999 -14.217002
v 11.179000 24.199999 -13.982002
v 11.110000 24.126999 -14.148002
v 12.000000 24.199999 -14.145002
v 12.000000 23.949999 -14.400002
v 12.000000 24.126999 -14.325002
v 12.918000 23.949999 -14.217002
v 12.821000 24.199999 -13.982002
v 12.890000 24.126999 -14.148002
v 13.697000 23.949999 -13.697001
v 13.517000 24.199999 -13.517002
v 13.644000 24.126999 -13.644002
v 14.217000 23.949999 -12.918002
v 13.982000 24.199999 -12.821002
v 14.148000 24.126999 -12.890002
v 14.400000 23.950001 -12.000002
v 14.145000 24.200001 -12.000002
v 14.325000 24.127001 -12.000002
v 13.982000 24.200001 -11.179002
v 14.217000 23.950001 -11.082002
v 14.148000 24.127001 -11.110002
v 13.697000 23.950001 -10.303002
v 13.517000 24.200001 -10.483002
v 13.644000 24.127001 -10.356002
v 12.918000 23.950001 -9.783002
v 12.821000 24.200001 -10.018002
v 12.890000 24.127001 -9.852002
v 12.000000 23.950001 -9.600002
v 12.000000 24.200001 -9.855001
v 12.000000 24.127001 -9.675002
v 11.082000 23.950001 -9.783002
v 11.179000 24.200001 -10.018002
v 11.110000 24.127001 -9.852002
v 10.483000 24.200001 -10.483002
v 10.303000 23.950001 -10.303002
v 10.356000 24.127001 -10.356002
v 9.783000 23.950001 -11.082002
v 10.018000 24.200001 -11.179002
v 9.852000 24.127001 -11.110002
v 9.600000 23.950001 -12.000002
v 9.855000 24.200001 -12.000002
v 9.675000 24.127001 -12.000002
v 13.014000 24.199999 -13.063002
v 12.000000 24.199999 -13.164001
v 10.986000 24.199999 -13.063002
v 13.097000 24.200001 -12.000002
v 12.000000 24.200001 -12.000002
v 10.903000 24.200001 -12.000002
v 13.014000 24.200001 -10.937002
v 12.000000 24.200001 -10.836002
v 10.986000 24.200001 -10.937002
v 9.600000 22.530001 -12.000002
v 9.447000 22.379999 -12.000002
v 9.555000 22.424000 -12.000002
v 9.641000 22.379999 -11.023002
v 9.783000 22.530001 -11.082002
v 9.741000 22.424000 -11.064002
v 10.195000 22.379999 -10.195002
v 10.303000 22.530001 -10.303002
v 10.271000 22.424000 -10.271002
v 11.023000 22.379999 -9.641002
v 11.082000 22.530001 -9.783002
v 11.064000 22.424000 -9.741002
v 12.000000 22.379999 -9.447001
v 12.000000 22.530001 -9.600002
v 12.000000 22.424000 -9.555002
v 12.977000 22.379999 -9.641002
v 12.918000 22.530001 -9.783002
v 12.936000 22.424000 -9.741002
v 13.805000 22.379999 -10.195002
v 13.697000 22.530001 -10.303002
v 13.729000 22.424000 -10.271002
v 14.359000 22.379999 -11.023002
v 14.217000 22.530001 -11.082002
v 14.259000 22.424000 -11.064002
v 14.553000 22.379999 -12.000002
v 14.400000 22.530001 -12.000002
v 14.445000 22.424000 -12.000002
v 14.359000 22.379997 -12.977002
v 14.217000 22.529999 -12.918002
v 14.259000 22.423998 -12.936002
v 13.805000 22.379997 -13.805002
v 13.697000 22.529999 -13.697001
v 13.729000 22.423998 -13.729002
v 12.977000 22.379997 -14.359002
v 12.918000 22.529999 -14.217002
v 12.936000 22.423998 -14.259002
v 12.000000 22.379997 -14.553002
v 12.000000 22.529999 -14.400002
v 12.000000 22.423998 -14.445002
v 11.023000 22.379997 -14.359002
v 11.082000 22.529999 -14.217002
v 11.064000 22.423998 -14.259002
v 10.195000 22.379997 -13.805002
v 10.303000 22.529999 -13.697001
v 10.271000 22.423998 -13.729002
v 9.641000 22.379997 -12.977002
v 9.783000 22.529999 -12.918002
v 9.741000 22.423998 -12.936002
v 9.783000 23.949999 -20.918001
v 10.018000 24.199999 -20.821001
v 9.852000 24.126999 -20.890001
v 10.483000 24.199999 -21.517002
v 10.303000 23.949999 -21.697002
v 10.356000 24.126999 -21.644001
v 11.082000 23.949999 -22.217001
v 11.179000 24.199999 -21.982002
v 11.110000 24.126999 -22.148003
v 12.000000 24.199999 -22.145002
v 12.000000 23.949999 -22.400002
v 12.000000 24.126999 -22.325003
v 12.918000 23.949999 -22.217001
v 12.821000 24.199999 -21.982002
v 12.890000 24.126999 -22.148003
v 13.697000 23.949999 -21.697002
v 13.517000 24.199999 -21.517002
v 13.644000 24.126999 -21.644001
v 14.217000 23.949999 -20.918001
v 13.982000 24.199999 -20.821001
v 14.148000 24.126999 -20.890001
v 14.400000 23.949999 -20.000002
v 14.145000 24.199999 -20.000002
v 14.325000 24.126999 -20.000002
v 13.982000 24.199999 -19.179003
v 14.217000 23.949999 -19.082003
v 14.148000 24.126999 -19.110003
v 13.697000 23.949999 -18.303001
v 13.517000 24.199999 -18.483002
v 13.644000 24.126999 -18.356003
v 12.918000 23.949999 -17.783003
v 12.821000 24.199999 -18.018002
v 12.890000 24.126999 -17.852001
v 12.000000 23.949999 -17.600002
v 12.000000 24.199999 -17.855001
v 12.000000 24.126999 -17.675001
v 11.082000 23.949999 -17.783003
v 11.179000 24.199999 -18.018002
v 11.110000 24.126999 -17.852001
v 10.483000 24.199999 -18.483002
v 10.303000 23.949999 -18.303001
v 10.356000 24.126999 -18.356003
v 9.783000 23.949999 -19.082003
v 10.018000 24.199999 -19.179003
v 9.852000 24.126999 -19.110003
v 9.600000 23.949999 -20.000002
v 9.855000 24.199999 -20.000002
v 9.675000 24.126999 -20.000002
v 13.014000 24.199999 -21.063002
v 12.000000 24.199999 -21.164001
v 10.986000 24.199999 -21.063002
v 13.097000 24.199999 -20.000002
v 12.000000 24.199999 -20.000002
v 10.903000 24.199999 -20.000002
v 13.014000 24.199999 -18.937002
v 12.000000 24.199999 -18.836002
v 10.986000 24.199999 -18.937002
v 9.600000 22.529999 -20.000002
v 9.447000 22.379997 -20.000002
v 9.555000 22.423998 -20.000002
v 9.641000 22.379997 -19.023003
v 9.783000 22.529999 -19.082003
v 9.741000 22.423998 -19.064001
v 10.195000 22.379997 -18.195002
v 10.303000 22.529999 -18.303001
v 10.271000 22.423998 -18.271002
v 11.023000 22.379997 -17.641003
v 11.082000 22.529999 -17.783003
v 11.064000 22.423998 -17.741001
v 12.000000 22.379997 -17.447002
v 12.000000 22.529999 -17.600002
v 12.000000 22.423998 -17.555002
v 12.977000 22.379997 -17.641003
v 12.918000 22.529999 -17.783003
v 12.936000 22.423998 -17.741001
v 13.805000 22.379997 -18.195002
v 13.697000 22.529999 -18.303001
v 13.729000 22.423998 -18.271002
v 14.359000 22.379997 -19.023003
v 14.217000 22.529999 -19.082003
v 14.259000 22.423998 -19.064001
v 14.553000 22.379997 -20.000002
v 14.400000 22.529999 -20.000002
v 14.445000 22.423998 -20.000002
v 14.359000 22.379997 -20.977001
v 14.217000 22.529999 -20.918001
v 14.259000 22.423998 -20.936003
v 13.805000 22.379997 -21.805002
v 13.697000 22.529999 -21.697002
v 13.729000 22.423998 -21.729002
v 12.977000 22.379997 -22.359001
v 12.918000 22.529999 -22.217001
v 12.936000 22.423998 -22.259003
v 12.000000 22.379997 -22.553001
v 12.000000 22.529999 -22.400002
v 12.000000 22.423998 -22.445002
v 11.023000 22.379997 -22.359001
v 11.082000 22.529999 -22.217001
v 11.064000 22.423998 -22.259003
v 10.195000 22.379997 -21.805002
v 10.303000 22.529999 -21.697002
v 10.271000 22.423998 -21.729002
v 9.641000 22.379997 -20.977001
v 9.783000 22.529999 -20.918001
v 9.741000 22.423998 -20.936003
vn -0.0000 -0.0000 -1.0000
vn -0.0000 1.0000 -0.0000
vn 1.0000 -0.0000 -0.0000
vn 0.1955 -0.0000 -0.9807
vn 0.5558 -0.0000 -0.8313
vn 0.8313 -0.0000 -0.5558
vn 0.9807 -0.0000 -0.1955
vn 0.1955 -0.0000 0.9807
vn 0.5558 -0.0000 0.8313
vn 0.8313 -0.0000 0.5558
vn 0.9807 -0.0000 0.1955
vn -0.0000 -0.0000 1.0000
vn -0.1955 -0.0000 -0.9807
vn -0.5558 -0.0000 -0.8313
vn -0.8313 -0.0000 -0.5558
vn -0.9807 -0.0000 -0.1955
vn -0.1955 -0.0000 0.9807
vn -0.5558 -0.0000 0.8313
vn -0.8313 -0.0000 0.5558
vn -0.9807 -0.0000 0.1955
vn -0.5552 -0.0000 0.8317
vn -0.5127 0.3835 -0.7681
vn -0.5138 0.3809 -0.7687
vn -0.2127 0.9238 -0.3183
vn -0.2125 0.9240 -0.3180
vn 0.1805 0.3837 -0.9056
vn 0.1803 0.3819 -0.9065
vn 0.0745 0.9241 -0.3748
vn 0.0745 0.9239 -0.3753
vn 0.7690 0.3810 0.5133
vn 0.7678 0.3836 0.5132
vn 0.3180 0.9240 0.2125
vn 0.3183 0.9238 0.2127
vn 0.5133 0.3810 -0.7690
vn 0.5132 0.3836 -0.7678
vn 0.2125 0.9240 -0.3180
vn 0.2127 0.9238 -0.3183
vn 0.7681 0.3835 -0.5127
vn 0.7687 0.3809 -0.5138
vn 0.3183 0.9238 -0.2127
vn 0.3180 0.9240 -0.2125
vn 0.5127 0.3835 0.7681
vn 0.5138 0.3809 0.7687
vn 0.2127 0.9238 0.3183
vn 0.2125 0.9240 0.3180
vn 0.1807 0.3819 0.9064
vn 0.1801 0.3838 0.9057
vn 0.0746 0.9239 0.3753
vn 0.0744 0.9241 0.3748
vn -0.7681 0.3835 0.5127
vn -0.7687 0.3809 0.5138
vn -0.3183 0.9238 0.2127
vn -0.3180 0.9240 0.2125
vn 0.9064 0.3819 -0.1807
vn 0.9057 0.3838 -0.1801
vn 0.3753 0.9239 -0.0746
vn 0.3748 0.9241 -0.0744
vn 0.9056 0.3837 0.1805
vn 0.9065 0.3819 0.1803
vn 0.3748 0.9241 0.0745
vn 0.3753 0.9239 0.0745
vn -0.1805 0.3837 0.9056
vn -0.1803 0.3819 0.9065
vn -0.0745 0.9241 0.3748
vn -0.0745 0.9239 0.3753
vn -0.5133 0.3810 0.7690
vn -0.5132 0.3836 0.7678
vn -0.2125 0.9240 0.3180
vn -0.2127 0.9238 0.3183
vn -0.9064 0.3819 0.1807
vn -0.9057 0.3838 0.1801
vn -0.3753 0.9239 0.0746
vn -0.3748 0.9241 0.0744
vn -0.1807 0.3819 -0.9064
vn -0.1801 0.3838 -0.9057
vn -0.0746 0.9239 -0.3753
vn -0.0744 0.9241 -0.3748
vn -0.9056 0.3837 -0.1805
vn -0.9065 0.3819 -0.1803
vn -0.3748 0.9241 -0.0745
vn -0.3753 0.9239 -0.0745
vn -0.7690 0.3810 -0.5133
vn -0.7678 0.3836 -0.5132
vn -0.3180 0.9240 -0.2125
vn -0.3183 0.9238 -0.2127
vn -0.9036 0.3886 0.1801
vn -0.9055 0.3844 0.1799
vn -0.3758 0.9237 0.0747
vn -0.3763 0.9235 0.0747
vn -0.7672 0.3862 0.5121
vn -0.7655 0.3902 0.5116
vn -0.3202 0.9228 0.2140
vn -0.3189 0.9235 0.2134
vn -0.5112 0.3902 0.7658
vn -0.5125 0.3862 0.7669
vn -0.2132 0.9235 0.3190
vn -0.2142 0.9229 0.3201
vn -0.1805 0.3844 0.9054
vn -0.1796 0.3886 0.9037
vn -0.0748 0.9235 0.3762
vn -0.0746 0.9237 0.3758
vn 0.1801 0.3886 0.9036
vn 0.1799 0.3844 0.9055
vn 0.0747 0.9237 0.3758
vn 0.0747 0.9235 0.3762
vn 0.5121 0.3862 0.7672
vn 0.5116 0.3902 0.7655
vn 0.2140 0.9228 0.3202
vn 0.2133 0.9235 0.3189
vn 0.7658 0.3902 0.5112
vn 0.7669 0.3862 0.5126
vn 0.3189 0.9235 0.2132
vn 0.3201 0.9228 0.2142
vn 0.9054 0.3843 0.1805
vn 0.9037 0.3886 0.1796
vn 0.3762 0.9235 0.0748
vn 0.3758 0.9237 0.0746
vn 0.9036 0.3886 -0.1801
vn 0.9055 0.3844 -0.1799
vn 0.3758 0.9237 -0.0747
vn 0.3763 0.9235 -0.0747
vn 0.7672 0.3862 -0.5121
vn 0.7655 0.3902 -0.5116
vn 0.3202 0.9228 -0.2140
vn 0.3189 0.9235 -0.2134
vn 0.5112 0.3902 -0.7658
vn 0.5125 0.3862 -0.7669
vn 0.2132 0.9235 -0.3190
vn 0.2142 0.9229 -0.3201
vn 0.1805 0.3844 -0.9054
vn 0.1796 0.3886 -0.9037
vn 0.0748 0.9235 -0.3762
vn 0.0746 0.9237 -0.3758
vn -0.1801 0.3886 -0.9036
vn -0.1799 0.3844 -0.9055
vn -0.0747 0.9237 -0.3758
vn -0.0747 0.9235 -0.3762
vn -0.5121 0.3862 -0.7672
vn -0.5116 0.3902 -0.7655
vn -0.2140 0.9228 -0.3202
vn -0.2133 0.9235 -0.3189
vn -0.7658 0.3902 -0.5112
vn -0.7669 0.3862 -0.5126
vn -0.3189 0.9235 -0.2132
vn -0.3201 0.9228 -0.2142
vn -0.9054 0.3843 -0.1805
vn -0.9037 0.3886 -0.1796
vn -0.3762 0.9235 -0.0748
vn -0.3758 0.9237 -0.0746
vn 0.8317 -0.0000 -0.5552
vn -0.8317 -0.0000 0.5552
vn -0.8317 -0.0000 -0.5552
vn 0.8317 -0.0000 0.5552
vn -0.5552 -0.0000 -0.8317
vn 0.5552 -0.0000 0.8317
vn 0.5552 -0.0000 -0.8317
vn -0.3762 0.9235 0.0747
vn -0.2132 0.9235 0.3189
vn 0.3762 0.9235 -0.0747
vn 0.2132 0.9235 -0.3189
vn -0.7669 0.3862 -0.5125
vn 0.3180 0.9240 0.2126
vn 0.3201 0.9229 0.2142
s 0
usemtl MB_192.001
f 340//1 364//1 341//1
f 364//1 343//1 341//1
f 365//2 347//2 170//2
f 170//2 347//2 342//2
f 369//2 342//2 346//2
f 346//2 342//2 347//2
f 29//3 348//3 370//3
f 370//3 348//3 349//3
f 352//1 23//1 353//1
f 23//1 6//1 353//1
f 358//2 149//2 357//2
f 357//2 149//2 356//2
f 356//2 149//2 355//2
f 355//2 149//2 354//2
f 14//4 159//4 7//4
f 159//4 150//4 7//4
f 13//5 14//5 8//5
f 14//5 7//5 8//5
f 12//6 13//6 9//6
f 13//6 8//6 9//6
f 11//7 12//7 10//7
f 12//7 9//7 10//7
f 363//7 362//7 45//7
f 362//7 19//7 45//7
f 362//6 361//6 19//6
f 361//6 20//6 19//6
f 361//5 360//5 20//5
f 360//5 21//5 20//5
f 360//4 359//4 21//4
f 359//4 168//4 21//4
f 17//2 169//2 18//2
f 16//2 169//2 17//2
f 15//2 169//2 16//2
f 160//2 169//2 15//2
f 3//1 172//1 350//1
f 350//1 172//1 351//1
f 345//2 344//2 184//2
f 344//2 171//2 184//2
f 39//2 5//2 40//2
f 40//2 5//2 22//2
f 366//2 367//2 225//2
f 367//2 178//2 225//2
f 372//3 390//3 377//3
f 377//3 390//3 376//3
f 375//2 26//2 62//2
f 62//2 26//2 25//2
f 1//3 2//3 30//3
f 2//3 28//3 30//3
f 173//2 185//2 4//2
f 4//2 185//2 31//2
f 388//2 345//2 188//2
f 345//2 184//2 188//2
f 368//3 29//3 389//3
f 389//3 29//3 370//3
f 371//2 369//2 35//2
f 35//2 369//2 346//2
f 30//3 28//3 32//3
f 28//3 54//3 32//3
f 185//2 189//2 31//2
f 31//2 189//2 53//2
f 212//2 226//2 27//2
f 27//2 226//2 37//2
f 374//3 24//3 36//3
f 24//3 38//3 36//3
f 208//2 48//2 149//2
f 48//2 47//2 149//2
f 47//2 46//2 149//2
f 46//2 354//2 149//2
f 380//8 42//8 381//8
f 42//8 200//8 381//8
f 379//9 43//9 380//9
f 43//9 42//9 380//9
f 378//10 44//10 379//10
f 44//10 43//10 379//10
f 11//11 10//11 378//11
f 10//11 44//11 378//11
f 388//2 188//2 367//2
f 188//2 178//2 367//2
f 368//3 389//3 390//3
f 390//3 389//3 376//3
f 371//2 35//2 26//2
f 26//2 35//2 25//2
f 374//3 32//3 24//3
f 32//3 54//3 24//3
f 212//2 27//2 189//2
f 189//2 27//2 53//2
f 386//1 57//1 387//1
f 387//1 57//1 52//1
f 363//11 45//11 383//11
f 45//11 41//11 383//11
f 383//10 41//10 382//10
f 41//10 34//10 382//10
f 382//9 34//9 384//9
f 34//9 33//9 384//9
f 384//8 33//8 385//8
f 33//8 179//8 385//8
f 49//2 18//2 169//2
f 50//2 49//2 169//2
f 51//2 50//2 169//2
f 213//2 51//2 169//2
f 39//2 40//2 55//2
f 55//2 40//2 56//2
f 366//2 225//2 58//2
f 225//2 222//2 58//2
f 372//3 377//3 59//3
f 59//3 377//3 401//3
f 375//2 62//2 399//2
f 399//2 62//2 373//2
f 236//2 61//2 226//2
f 226//2 61//2 37//2
f 60//3 36//3 397//3
f 36//3 38//3 397//3
f 235//2 310//2 68//2
f 68//2 310//2 67//2
f 67//2 310//2 66//2
f 66//2 310//2 120//2
f 393//4 394//4 63//4
f 394//4 228//4 63//4
f 392//5 393//5 64//5
f 393//5 63//5 64//5
f 391//6 392//6 65//6
f 392//6 64//6 65//6
f 395//7 391//7 121//7
f 391//7 65//7 121//7
f 396//2 58//2 322//2
f 58//2 222//2 322//2
f 133//3 59//3 402//3
f 402//3 59//3 401//3
f 400//2 399//2 398//2
f 398//2 399//2 373//2
f 60//3 397//3 132//3
f 397//3 142//3 132//3
f 236//2 323//2 61//2
f 61//2 323//2 141//2
f 403//12 404//12 427//12
f 404//12 406//12 427//12
f 428//2 264//2 410//2
f 410//2 264//2 405//2
f 432//2 409//2 405//2
f 405//2 409//2 410//2
f 97//3 433//3 411//3
f 411//3 433//3 412//3
f 415//12 416//12 91//12
f 416//12 74//12 91//12
f 421//2 420//2 243//2
f 420//2 419//2 243//2
f 419//2 418//2 243//2
f 418//2 417//2 243//2
f 82//8 75//8 253//8
f 75//8 244//8 253//8
f 81//9 76//9 82//9
f 76//9 75//9 82//9
f 80//10 77//10 81//10
f 77//10 76//10 81//10
f 79//11 78//11 80//11
f 78//11 77//11 80//11
f 426//11 113//11 425//11
f 113//11 87//11 425//11
f 425//10 87//10 424//10
f 87//10 88//10 424//10
f 424//9 88//9 423//9
f 88//9 89//9 423//9
f 423//8 89//8 422//8
f 89//8 262//8 422//8
f 85//2 86//2 263//2
f 84//2 85//2 263//2
f 83//2 84//2 263//2
f 254//2 83//2 263//2
f 71//12 413//12 266//12
f 266//12 413//12 414//12
f 408//2 278//2 407//2
f 278//2 265//2 407//2
f 107//2 108//2 73//2
f 73//2 108//2 90//2
f 429//2 326//2 430//2
f 326//2 272//2 430//2
f 435//3 440//3 453//3
f 453//3 440//3 439//3
f 438//2 134//2 94//2
f 94//2 134//2 93//2
f 69//3 98//3 70//3
f 98//3 96//3 70//3
f 267//2 72//2 279//2
f 279//2 72//2 99//2
f 451//2 282//2 408//2
f 282//2 278//2 408//2
f 431//3 452//3 97//3
f 97//3 452//3 433//3
f 434//2 103//2 432//2
f 432//2 103//2 409//2
f 98//3 100//3 96//3
f 100//3 124//3 96//3
f 279//2 99//2 283//2
f 283//2 99//2 123//2
f 306//2 95//2 327//2
f 327//2 95//2 105//2
f 437//3 104//3 92//3
f 104//3 106//3 92//3
f 302//2 243//2 116//2
f 116//2 243//2 115//2
f 115//2 243//2 114//2
f 114//2 243//2 417//2
f 443//4 444//4 110//4
f 444//4 294//4 110//4
f 442//5 443//5 111//5
f 443//5 110//5 111//5
f 441//6 442//6 112//6
f 442//6 111//6 112//6
f 79//7 441//7 78//7
f 441//7 112//7 78//7
f 451//2 430//2 282//2
f 430//2 272//2 282//2
f 431//3 453//3 452//3
f 452//3 453//3 439//3
f 434//2 94//2 103//2
f 103//2 94//2 93//2
f 437//3 92//3 100//3
f 92//3 124//3 100//3
f 306//2 283//2 95//2
f 95//2 283//2 123//2
f 449//12 450//12 127//12
f 127//12 450//12 122//12
f 426//7 446//7 113//7
f 446//7 109//7 113//7
f 446//6 445//6 109//6
f 445//6 102//6 109//6
f 445//5 447//5 102//5
f 447//5 101//5 102//5
f 447//4 448//4 101//4
f 448//4 273//4 101//4
f 117//2 263//2 86//2
f 118//2 263//2 117//2
f 119//2 263//2 118//2
f 307//2 263//2 119//2
f 107//2 125//2 108//2
f 108//2 125//2 126//2
f 429//2 128//2 326//2
f 128//2 319//2 326//2
f 435//3 129//3 440//3
f 440//3 129//3 460//3
f 438//2 459//2 134//2
f 134//2 459//2 436//2
f 337//2 327//2 131//2
f 131//2 327//2 105//2
f 130//3 458//3 104//3
f 458//3 106//3 104//3
f 336//2 140//2 310//2
f 140//2 139//2 310//2
f 139//2 138//2 310//2
f 138//2 120//2 310//2
f 456//8 135//8 457//8
f 135//8 329//8 457//8
f 455//9 136//9 456//9
f 136//9 135//9 456//9
f 454//10 137//10 455//10
f 137//10 136//10 455//10
f 395//11 121//11 454//11
f 121//11 137//11 454//11
f 396//2 322//2 128//2
f 322//2 319//2 128//2
f 133//3 402//3 129//3
f 129//3 402//3 460//3
f 400//2 398//2 459//2
f 459//2 398//2 436//2
f 130//3 132//3 458//3
f 132//3 142//3 458//3
f 337//2 131//2 323//2
f 323//2 131//2 141//2
f 340//1 461//1 364//1
f 461//1 463//1 364//1
f 365//2 170//2 467//2
f 467//2 170//2 462//2
f 484//2 466//2 462//2
f 462//2 466//2 467//2
f 183//3 468//3 485//3
f 468//3 469//3 485//3
f 471//1 472//1 175//1
f 472//1 148//1 175//1
f 358//2 476//2 149//2
f 476//2 475//2 149//2
f 475//2 474//2 149//2
f 474//2 473//2 149//2
f 158//13 151//13 159//13
f 151//13 150//13 159//13
f 157//14 152//14 158//14
f 152//14 151//14 158//14
f 156//15 153//15 157//15
f 153//15 152//15 157//15
f 155//16 154//16 156//16
f 154//16 153//16 156//16
f 480//16 204//16 479//16
f 204//16 165//16 479//16
f 479//15 165//15 478//15
f 165//15 166//15 478//15
f 478//14 166//14 477//14
f 166//14 167//14 477//14
f 477//13 167//13 359//13
f 167//13 168//13 359//13
f 163//2 164//2 169//2
f 162//2 163//2 169//2
f 161//2 162//2 169//2
f 160//2 161//2 169//2
f 145//1 470//1 172//1
f 172//1 470//1 351//1
f 465//2 184//2 464//2
f 184//2 171//2 464//2
f 197//2 198//2 147//2
f 147//2 198//2 174//2
f 481//2 225//2 482//2
f 225//2 178//2 482//2
f 487//3 503//3 492//3
f 503//3 491//3 492//3
f 490//2 227//2 180//2
f 180//2 227//2 177//2
f 143//3 144//3 186//3
f 186//3 144//3 182//3
f 173//2 146//2 185//2
f 185//2 146//2 187//2
f 501//2 188//2 465//2
f 188//2 184//2 465//2
f 483//3 183//3 502//3
f 183//3 485//3 502//3
f 486//2 193//2 484//2
f 484//2 193//2 466//2
f 186//3 182//3 190//3
f 190//3 182//3 216//3
f 185//2 187//2 189//2
f 189//2 187//2 215//2
f 212//2 181//2 226//2
f 226//2 181//2 195//2
f 489//3 176//3 194//3
f 194//3 176//3 196//3
f 208//2 149//2 207//2
f 207//2 149//2 206//2
f 206//2 149//2 205//2
f 205//2 149//2 473//2
f 495//17 381//17 201//17
f 381//17 200//17 201//17
f 494//18 495//18 202//18
f 495//18 201//18 202//18
f 493//19 494//19 203//19
f 494//19 202//19 203//19
f 155//20 493//20 154//20
f 493//20 203//20 154//20
f 501//2 482//2 188//2
f 482//2 178//2 188//2
f 483//3 502//3 503//3
f 502//3 491//3 503//3
f 486//2 180//2 193//2
f 193//2 180//2 177//2
f 489//3 190//3 176//3
f 176//3 190//3 216//3
f 212//2 189//2 181//2
f 181//2 189//2 215//2
f 499//1 500//1 219//1
f 219//1 500//1 214//1
f 480//20 497//20 204//20
f 497//20 199//20 204//20
f 497//19 496//19 199//19
f 496//19 192//19 199//19
f 496//18 498//18 192//18
f 498//18 191//18 192//18
f 498//17 385//17 191//17
f 385//17 179//17 191//17
f 209//2 169//2 164//2
f 210//2 169//2 209//2
f 211//2 169//2 210//2
f 213//2 169//2 211//2
f 197//2 217//2 198//2
f 198//2 217//2 218//2
f 481//2 220//2 225//2
f 220//2 222//2 225//2
f 487//3 492//3 221//3
f 492//3 513//3 221//3
f 490//2 511//2 227//2
f 227//2 511//2 488//2
f 236//2 226//2 224//2
f 224//2 226//2 195//2
f 223//3 194//3 509//3
f 509//3 194//3 196//3
f 235//2 234//2 310//2
f 234//2 233//2 310//2
f 233//2 232//2 310//2
f 232//2 308//2 310//2
f 506//13 229//13 394//13
f 229//13 228//13 394//13
f 505//14 230//14 506//14
f 230//14 229//14 506//14
f 504//15 231//15 505//15
f 231//15 230//15 505//15
f 507//16 309//16 504//16
f 309//16 231//16 504//16
f 508//2 322//2 220//2
f 322//2 222//2 220//2
f 325//3 221//3 514//3
f 221//3 513//3 514//3
f 512//2 510//2 511//2
f 511//2 510//2 488//2
f 223//3 509//3 324//3
f 324//3 509//3 339//3
f 236//2 224//2 323//2
f 323//2 224//2 338//2
f 403//12 427//12 515//12
f 427//12 517//12 515//12
f 428//2 521//2 264//2
f 264//2 521//2 516//2
f 538//2 516//2 520//2
f 520//2 516//2 521//2
f 277//3 539//3 522//3
f 539//3 523//3 522//3
f 525//12 269//12 526//12
f 269//12 242//12 526//12
f 421//2 243//2 530//2
f 530//2 243//2 529//2
f 529//2 243//2 528//2
f 528//2 243//2 527//2
f 252//17 253//17 245//17
f 253//17 244//17 245//17
f 251//18 252//18 246//18
f 252//18 245//18 246//18
f 250//19 251//19 247//19
f 251//19 246//19 247//19
f 249//20 250//20 248//20
f 250//20 247//20 248//20
f 534//20 533//20 298//20
f 533//20 259//20 298//20
f 533//19 532//19 259//19
f 532//19 260//19 259//19
f 532//18 531//18 260//18
f 531//18 261//18 260//18
f 531//17 422//17 261//17
f 422//17 262//17 261//17
f 257//2 263//2 258//2
f 256//2 263//2 257//2
f 255//2 263//2 256//2
f 254//2 263//2 255//2
f 239//12 266//12 524//12
f 524//12 266//12 414//12
f 519//2 518//2 278//2
f 518//2 265//2 278//2
f 291//2 241//2 292//2
f 292//2 241//2 268//2
f 535//2 536//2 326//2
f 536//2 272//2 326//2
f 541//3 546//3 557//3
f 546//3 545//3 557//3
f 544//2 274//2 328//2
f 328//2 274//2 271//2
f 237//3 280//3 238//3
f 238//3 280//3 276//3
f 267//2 279//2 240//2
f 240//2 279//2 281//2
f 555//2 519//2 282//2
f 519//2 278//2 282//2
f 537//3 556//3 277//3
f 556//3 539//3 277//3
f 540//2 538//2 287//2
f 287//2 538//2 520//2
f 280//3 284//3 276//3
f 276//3 284//3 313//3
f 279//2 283//2 281//2
f 281//2 283//2 312//2
f 306//2 327//2 275//2
f 275//2 327//2 289//2
f 543//3 288//3 270//3
f 270//3 288//3 290//3
f 302//2 301//2 243//2
f 301//2 300//2 243//2
f 300//2 299//2 243//2
f 299//2 527//2 243//2
f 549//13 295//13 444//13
f 295//13 294//13 444//13
f 548//14 296//14 549//14
f 296//14 295//14 549//14
f 547//15 297//15 548//15
f 297//15 296//15 548//15
f 249//16 248//16 547//16
f 248//16 297//16 547//16
f 555//2 282//2 536//2
f 282//2 272//2 536//2
f 537//3 557//3 556//3
f 557//3 545//3 556//3
f 540//2 287//2 274//2
f 274//2 287//2 271//2
f 543//3 270//3 284//3
f 284//3 270//3 313//3
f 306//2 275//2 283//2
f 283//2 275//2 312//2
f 553//12 316//12 554//12
f 554//12 316//12 311//12
f 534//16 298//16 551//16
f 298//16 293//16 551//16
f 551//15 293//15 550//15
f 293//15 286//15 550//15
f 550//14 286//14 552//14
f 286//14 285//14 552//14
f 552//13 285//13 448//13
f 285//13 273//13 448//13
f 303//2 258//2 263//2
f 304//2 303//2 263//2
f 305//2 304//2 263//2
f 307//2 305//2 263//2
f 291//2 292//2 314//2
f 314//2 292//2 315//2
f 535//2 326//2 317//2
f 326//2 319//2 317//2
f 541//3 318//3 546//3
f 318//3 563//3 546//3
f 544//2 328//2 562//2
f 562//2 328//2 542//2
f 337//2 321//2 327//2
f 327//2 321//2 289//2
f 320//3 561//3 288//3
f 288//3 561//3 290//3
f 336//2 310//2 335//2
f 335//2 310//2 334//2
f 334//2 310//2 333//2
f 333//2 310//2 308//2
f 560//17 457//17 330//17
f 457//17 329//17 330//17
f 559//18 560//18 331//18
f 560//18 330//18 331//18
f 558//19 559//19 332//19
f 559//19 331//19 332//19
f 507//20 558//20 309//20
f 558//20 332//20 309//20
f 508//2 317//2 322//2
f 317//2 319//2 322//2
f 325//3 514//3 318//3
f 514//3 563//3 318//3
f 512//2 562//2 510//2
f 510//2 562//2 542//2
f 320//3 324//3 561//3
f 561//3 324//3 339//3
f 337//2 323//2 321//2
f 321//2 323//2 338//2
f 571//2 614//2 573//2
f 614//2 613//2 573//2
f 600//21 604//21 631//21
f 604//21 628//21 631//21
f 619//2 598//2 618//2
f 598//2 595//2 618//2
f 615//2 618//2 586//2
f 618//2 588//2 586//2
f 603//2 601//2 607//2
f 601//2 620//2 607//2
f 610//2 617//2 565//2
f 617//2 614//2 565//2
f 618//2 595//2 588//2
f 595//2 592//2 588//2
f 577//2 612//2 580//2
f 612//2 583//2 580//2
f 607//2 620//2 610//2
f 620//2 617//2 610//2
f 620//2 601//2 619//2
f 601//2 598//2 619//2
f 565//2 614//2 567//2
f 614//2 571//2 567//2
f 573//2 613//2 577//2
f 613//2 612//2 577//2
f 612//2 615//2 583//2
f 615//2 586//2 583//2
f 568//22 569//22 570//22
f 569//23 572//23 570//23
f 569//24 567//24 572//24
f 567//25 571//25 572//25
f 574//26 575//26 576//26
f 575//27 578//27 576//27
f 575//28 573//28 578//28
f 573//29 577//29 578//29
f 589//30 590//30 591//30
f 590//31 593//31 591//31
f 590//32 588//32 593//32
f 588//33 592//33 593//33
f 576//34 578//34 579//34
f 578//35 581//35 579//35
f 578//36 577//36 581//36
f 577//37 580//37 581//37
f 579//38 581//38 582//38
f 581//39 584//39 582//39
f 581//40 580//40 584//40
f 580//41 583//41 584//41
f 591//42 593//42 594//42
f 593//43 596//43 594//43
f 593//44 592//44 596//44
f 592//45 595//45 596//45
f 594//46 596//46 597//46
f 596//47 599//47 597//47
f 596//48 595//48 599//48
f 595//49 598//49 599//49
f 604//50 605//50 606//50
f 605//51 608//51 606//51
f 605//52 603//52 608//52
f 603//53 607//53 608//53
f 582//54 584//54 585//54
f 584//55 587//55 585//55
f 584//56 583//56 587//56
f 583//57 586//57 587//57
f 585//58 587//58 589//58
f 587//59 590//59 589//59
f 587//60 586//60 590//60
f 586//61 588//61 590//61
f 597//62 599//62 600//62
f 599//63 602//63 600//63
f 599//64 598//64 602//64
f 598//65 601//65 602//65
f 600//66 602//66 604//66
f 602//67 605//67 604//67
f 602//68 601//68 605//68
f 601//69 603//69 605//69
f 606//70 608//70 609//70
f 608//71 611//71 609//71
f 608//72 607//72 611//72
f 607//73 610//73 611//73
f 570//74 572//74 574//74
f 572//75 575//75 574//75
f 572//76 571//76 575//76
f 571//77 573//77 575//77
f 609//78 611//78 564//78
f 611//79 566//79 564//79
f 611//80 610//80 566//80
f 610//81 565//81 566//81
f 564//82 566//82 568//82
f 566//83 569//83 568//83
f 566//84 565//84 569//84
f 565//85 567//85 569//85
f 613//2 616//2 612//2
f 616//2 615//2 612//2
f 616//2 619//2 615//2
f 619//2 618//2 615//2
f 614//2 617//2 613//2
f 617//2 616//2 613//2
f 617//2 620//2 616//2
f 620//2 619//2 616//2
f 625//86 621//86 626//86
f 621//87 623//87 626//87
f 626//88 623//88 624//88
f 623//89 622//89 624//89
f 628//90 625//90 629//90
f 625//91 626//91 629//91
f 629//92 626//92 627//92
f 626//93 624//93 627//93
f 631//94 628//94 632//94
f 628//95 629//95 632//95
f 632//96 629//96 630//96
f 629//97 627//97 630//97
f 634//98 631//98 635//98
f 631//99 632//99 635//99
f 635//100 632//100 633//100
f 632//101 630//101 633//101
f 637//102 634//102 638//102
f 634//103 635//103 638//103
f 638//104 635//104 636//104
f 635//105 633//105 636//105
f 640//106 637//106 641//106
f 637//107 638//107 641//107
f 641//108 638//108 639//108
f 638//109 636//109 639//109
f 643//110 640//110 644//110
f 640//111 641//111 644//111
f 644//112 641//112 642//112
f 641//113 639//113 642//113
f 646//114 643//114 647//114
f 643//115 644//115 647//115
f 647//116 644//116 645//116
f 644//117 642//117 645//117
f 649//118 646//118 650//118
f 646//119 647//119 650//119
f 650//120 647//120 648//120
f 647//121 645//121 648//121
f 652//122 649//122 653//122
f 649//123 650//123 653//123
f 653//124 650//124 651//124
f 650//125 648//125 651//125
f 655//126 652//126 656//126
f 652//127 653//127 656//127
f 656//128 653//128 654//128
f 653//129 651//129 654//129
f 658//130 655//130 659//130
f 655//131 656//131 659//131
f 659//132 656//132 657//132
f 656//133 654//133 657//133
f 661//134 658//134 662//134
f 658//135 659//135 662//135
f 662//136 659//136 660//136
f 659//137 657//137 660//137
f 664//138 661//138 665//138
f 661//139 662//139 665//139
f 665//140 662//140 663//140
f 662//141 660//141 663//141
f 667//142 664//142 668//142
f 664//143 665//143 668//143
f 668//144 665//144 666//144
f 665//145 663//145 666//145
f 621//146 667//146 623//146
f 667//147 668//147 623//147
f 623//148 668//148 622//148
f 668//149 666//149 622//149
f 579//150 582//150 652//150
f 582//150 649//150 652//150
f 604//151 606//151 628//151
f 606//151 625//151 628//151
f 582//7 585//7 649//7
f 585//7 646//7 649//7
f 621//16 609//16 667//16
f 609//16 564//16 667//16
f 606//20 609//20 625//20
f 609//20 621//20 625//20
f 585//11 589//11 646//11
f 589//11 643//11 646//11
f 667//152 564//152 664//152
f 564//152 568//152 664//152
f 589//153 591//153 643//153
f 591//153 640//153 643//153
f 568//154 570//154 664//154
f 570//154 661//154 664//154
f 591//155 594//155 640//155
f 594//155 637//155 640//155
f 570//13 574//13 661//13
f 574//13 658//13 661//13
f 594//8 597//8 637//8
f 597//8 634//8 637//8
f 574//4 576//4 658//4
f 576//4 655//4 658//4
f 597//17 600//17 634//17
f 600//17 631//17 634//17
f 576//156 579//156 655//156
f 579//156 652//156 655//156
f 676//2 719//2 678//2
f 719//2 718//2 678//2
f 705//21 709//21 736//21
f 709//21 733//21 736//21
f 724//2 703//2 723//2
f 703//2 700//2 723//2
f 720//2 723//2 691//2
f 723//2 693//2 691//2
f 708//2 706//2 712//2
f 706//2 725//2 712//2
f 715//2 722//2 670//2
f 722//2 719//2 670//2
f 723//2 700//2 693//2
f 700//2 697//2 693//2
f 682//2 717//2 685//2
f 717//2 688//2 685//2
f 712//2 725//2 715//2
f 725//2 722//2 715//2
f 725//2 706//2 724//2
f 706//2 703//2 724//2
f 670//2 719//2 672//2
f 719//2 676//2 672//2
f 678//2 718//2 682//2
f 718//2 717//2 682//2
f 717//2 720//2 688//2
f 720//2 691//2 688//2
f 673//22 674//22 675//22
f 674//23 677//23 675//23
f 674//24 672//24 677//24
f 672//25 676//25 677//25
f 679//26 680//26 681//26
f 680//27 683//27 681//27
f 680//28 678//28 683//28
f 678//29 682//29 683//29
f 694//30 695//30 696//30
f 695//31 698//31 696//31
f 695//32 693//32 698//32
f 693//33 697//33 698//33
f 681//34 683//34 684//34
f 683//35 686//35 684//35
f 683//36 682//36 686//36
f 682//37 685//37 686//37
f 684//38 686//38 687//38
f 686//39 689//39 687//39
f 686//40 685//40 689//40
f 685//41 688//41 689//41
f 696//42 698//42 699//42
f 698//43 701//43 699//43
f 698//44 697//44 701//44
f 697//45 700//45 701//45
f 699//46 701//46 702//46
f 701//47 704//47 702//47
f 701//48 700//48 704//48
f 700//49 703//49 704//49
f 709//50 710//50 711//50
f 710//51 713//51 711//51
f 710//52 708//52 713//52
f 708//53 712//53 713//53
f 687//54 689//54 690//54
f 689//55 692//55 690//55
f 689//56 688//56 692//56
f 688//57 691//57 692//57
f 690//58 692//58 694//58
f 692//59 695//59 694//59
f 692//60 691//60 695//60
f 691//61 693//61 695//61
f 702//62 704//62 705//62
f 704//63 707//63 705//63
f 704//64 703//64 707//64
f 703//65 706//65 707//65
f 705//66 707//66 709//66
f 707//67 710//67 709//67
f 707//68 706//68 710//68
f 706//69 708//69 710//69
f 711//70 713//70 714//70
f 713//71 716//71 714//71
f 713//72 712//72 716//72
f 712//73 715//73 716//73
f 675//74 677//74 679//74
f 677//75 680//75 679//75
f 677//76 676//76 680//76
f 676//77 678//77 680//77
f 714//78 716//78 669//78
f 716//79 671//79 669//79
f 716//80 715//80 671//80
f 715//81 670//81 671//81
f 669//82 671//82 673//82
f 671//83 674//83 673//83
f 671//84 670//84 674//84
f 670//85 672//85 674//85
f 718//2 721//2 717//2
f 721//2 720//2 717//2
f 721//2 724//2 720//2
f 724//2 723//2 720//2
f 719//2 722//2 718//2
f 722//2 721//2 718//2
f 722//2 725//2 721//2
f 725//2 724//2 721//2
f 730//86 726//86 731//86
f 726//87 728//87 731//87
f 731//88 728//88 729//88
f 728//157 727//157 729//157
f 733//90 730//90 734//90
f 730//91 731//91 734//91
f 734//92 731//92 732//92
f 731//93 729//93 732//93
f 736//94 733//94 737//94
f 733//95 734//95 737//95
f 737//158 734//158 735//158
f 734//97 732//97 735//97
f 739//98 736//98 740//98
f 736//99 737//99 740//99
f 740//100 737//100 738//100
f 737//101 735//101 738//101
f 742//102 739//102 743//102
f 739//103 740//103 743//103
f 743//104 740//104 741//104
f 740//105 738//105 741//105
f 745//106 742//106 746//106
f 742//107 743//107 746//107
f 746//108 743//108 744//108
f 743//109 741//109 744//109
f 748//110 745//110 749//110
f 745//111 746//111 749//111
f 749//112 746//112 747//112
f 746//113 744//113 747//113
f 751//114 748//114 752//114
f 748//115 749//115 752//115
f 752//116 749//116 750//116
f 749//117 747//117 750//117
f 754//118 751//118 755//118
f 751//119 752//119 755//119
f 755//120 752//120 753//120
f 752//159 750//159 753//159
f 757//122 754//122 758//122
f 754//123 755//123 758//123
f 758//124 755//124 756//124
f 755//125 753//125 756//125
f 760//126 757//126 761//126
f 757//127 758//127 761//127
f 761//160 758//160 759//160
f 758//129 756//129 759//129
f 763//130 760//130 764//130
f 760//131 761//131 764//131
f 764//132 761//132 762//132
f 761//133 759//133 762//133
f 766//134 763//134 767//134
f 763//135 764//135 767//135
f 767//136 764//136 765//136
f 764//137 762//137 765//137
f 769//138 766//138 770//138
f 766//139 767//139 770//139
f 770//140 767//140 768//140
f 767//141 765//141 768//141
f 772//142 769//142 773//142
f 769//161 770//161 773//161
f 773//144 770//144 771//144
f 770//145 768//145 771//145
f 726//146 772//146 728//146
f 772//147 773//147 728//147
f 728//148 773//148 727//148
f 773//149 771//149 727//149
f 684//150 687//150 757//150
f 687//150 754//150 757//150
f 709//151 711//151 733//151
f 711//151 730//151 733//151
f 687//7 690//7 754//7
f 690//7 751//7 754//7
f 726//16 714//16 772//16
f 714//16 669//16 772//16
f 711//20 714//20 730//20
f 714//20 726//20 730//20
f 690//11 694//11 751//11
f 694//11 748//11 751//11
f 772//152 669//152 769//152
f 669//152 673//152 769//152
f 694//153 696//153 748//153
f 696//153 745//153 748//153
f 673//154 675//154 769//154
f 675//154 766//154 769//154
f 696//155 699//155 745//155
f 699//155 742//155 745//155
f 675//13 679//13 766//13
f 679//13 763//13 766//13
f 699//8 702//8 742//8
f 702//8 739//8 742//8
f 679//4 681//4 763//4
f 681//4 760//4 763//4
f 702//17 705//17 739//17
f 705//17 736//17 739//17
f 681//156 684//156 760//156
f 684//156 757//156 760//156
f 781//2 824//2 783//2
f 824//2 823//2 783//2
f 810//21 814//21 841//21
f 814//21 838//21 841//21
f 829//2 808//2 828//2
f 808//2 805//2 828//2
f 825//2 828//2 796//2
f 828//2 798//2 796//2
f 813//2 811//2 817//2
f 811//2 830//2 817//2
f 820//2 827//2 775//2
f 827//2 824//2 775//2
f 828//2 805//2 798//2
f 805//2 802//2 798//2
f 787//2 822//2 790//2
f 822//2 793//2 790//2
f 817//2 830//2 820//2
f 830//2 827//2 820//2
f 830//2 811//2 829//2
f 811//2 808//2 829//2
f 775//2 824//2 777//2
f 824//2 781//2 777//2
f 783//2 823//2 787//2
f 823//2 822//2 787//2
f 822//2 825//2 793//2
f 825//2 796//2 793//2
f 778//22 779//22 780//22
f 779//23 782//23 780//23
f 779//24 777//24 782//24
f 777//25 781//25 782//25
f 784//26 785//26 786//26
f 785//27 788//27 786//27
f 785//28 783//28 788//28
f 783//29 787//29 788//29
f 799//30 800//30 801//30
f 800//31 803//31 801//31
f 800//32 798//32 803//32
f 798//33 802//33 803//33
f 786//34 788//34 789//34
f 788//35 791//35 789//35
f 788//36 787//36 791//36
f 787//37 790//37 791//37
f 789//38 791//38 792//38
f 791//39 794//39 792//39
f 791//40 790//40 794//40
f 790//41 793//41 794//41
f 801//42 803//42 804//42
f 803//43 806//43 804//43
f 803//44 802//44 806//44
f 802//45 805//45 806//45
f 804//46 806//46 807//46
f 806//47 809//47 807//47
f 806//48 805//48 809//48
f 805//49 808//49 809//49
f 814//50 815//50 816//50
f 815//51 818//51 816//51
f 815//52 813//52 818//52
f 813//53 817//53 818//53
f 792//54 794//54 795//54
f 794//55 797//55 795//55
f 794//56 793//56 797//56
f 793//57 796//57 797//57
f 795//58 797//58 799//58
f 797//59 800//59 799//59
f 797//60 796//60 800//60
f 796//61 798//61 800//61
f 807//62 809//62 810//62
f 809//63 812//63 810//63
f 809//64 808//64 812//64
f 808//65 811//65 812//65
f 810//66 812//66 814//66
f 812//67 815//67 814//67
f 812//68 811//68 815//68
f 811//69 813//69 815//69
f 816//70 818//70 819//70
f 818//71 821//71 819//71
f 818//72 817//72 821//72
f 817//73 820//73 821//73
f 780//74 782//74 784//74
f 782//75 785//75 784//75
f 782//76 781//76 785//76
f 781//77 783//77 785//77
f 819//78 821//78 774//78
f 821//79 776//79 774//79
f 821//80 820//80 776//80
f 820//81 775//81 776//81
f 774//82 776//82 778//82
f 776//83 779//83 778//83
f 776//84 775//84 779//84
f 775//85 777//85 779//85
f 823//2 826//2 822//2
f 826//2 825//2 822//2
f 826//2 829//2 825//2
f 829//2 828//2 825//2
f 824//2 827//2 823//2
f 827//2 826//2 823//2
f 827//2 830//2 826//2
f 830//2 829//2 826//2
f 835//86 831//86 836//86
f 831//87 833//87 836//87
f 836//88 833//88 834//88
f 833//157 832//157 834//157
f 838//90 835//90 839//90
f 835//91 836//91 839//91
f 839//92 836//92 837//92
f 836//93 834//93 837//93
f 841//94 838//94 842//94
f 838//95 839//95 842//95
f 842//158 839//158 840//158
f 839//97 837//97 840//97
f 844//98 841//98 845//98
f 841//99 842//99 845//99
f 845//100 842//100 843//100
f 842//101 840//101 843//101
f 847//102 844//102 848//102
f 844//103 845//103 848//103
f 848//104 845//104 846//104
f 845//105 843//105 846//105
f 850//106 847//106 851//106
f 847//107 848//107 851//107
f 851//108 848//108 849//108
f 848//109 846//109 849//109
f 853//110 850//110 854//110
f 850//111 851//111 854//111
f 854//112 851//112 852//112
f 851//113 849//113 852//113
f 856//114 853//114 857//114
f 853//115 854//115 857//115
f 857//116 854//116 855//116
f 854//117 852//117 855//117
f 859//118 856//118 860//118
f 856//119 857//119 860//119
f 860//120 857//120 858//120
f 857//159 855//159 858//159
f 862//122 859//122 863//122
f 859//123 860//123 863//123
f 863//124 860//124 861//124
f 860//125 858//125 861//125
f 865//126 862//126 866//126
f 862//127 863//127 866//127
f 866//160 863//160 864//160
f 863//129 861//129 864//129
f 868//130 865//130 869//130
f 865//131 866//131 869//131
f 869//132 866//132 867//132
f 866//133 864//133 867//133
f 871//134 868//134 872//134
f 868//135 869//135 872//135
f 872//136 869//136 870//136
f 869//137 867//137 870//137
f 874//138 871//138 875//138
f 871//139 872//139 875//139
f 875//140 872//140 873//140
f 872//141 870//141 873//141
f 877//142 874//142 878//142
f 874//143 875//143 878//143
f 878//144 875//144 876//144
f 875//145 873//145 876//145
f 831//146 877//146 833//146
f 877//147 878//147 833//147
f 833//148 878//148 832//148
f 878//149 876//149 832//149
f 789//150 792//150 862//150
f 792//150 859//150 862//150
f 814//151 816//151 838//151
f 816//151 835//151 838//151
f 792//7 795//7 859//7
f 795//7 856//7 859//7
f 831//16 819//16 877//16
f 819//16 774//16 877//16
f 816//20 819//20 835//20
f 819//20 831//20 835//20
f 795//11 799//11 856//11
f 799//11 853//11 856//11
f 877//152 774//152 874//152
f 774//152 778//152 874//152
f 799//153 801//153 853//153
f 801//153 850//153 853//153
f 778//154 780//154 874//154
f 780//154 871//154 874//154
f 801//155 804//155 850//155
f 804//155 847//155 850//155
f 780//13 784//13 871//13
f 784//13 868//13 871//13
f 804//8 807//8 847//8
f 807//8 844//8 847//8
f 784//4 786//4 868//4
f 786//4 865//4 868//4
f 807//17 810//17 844//17
f 810//17 841//17 844//17
f 786//156 789//156 865//156
f 789//156 862//156 865//156
f 886//2 929//2 888//2
f 929//2 928//2 888//2
f 915//21 919//21 946//21
f 919//21 943//21 946//21
f 934//2 913//2 933//2
f 913//2 910//2 933//2
f 930//2 933//2 901//2
f 933//2 903//2 901//2
f 918//2 916//2 922//2
f 916//2 935//2 922//2
f 925//2 932//2 880//2
f 932//2 929//2 880//2
f 933//2 910//2 903//2
f 910//2 907//2 903//2
f 892//2 927//2 895//2
f 927//2 898//2 895//2
f 922//2 935//2 925//2
f 935//2 932//2 925//2
f 935//2 916//2 934//2
f 916//2 913//2 934//2
f 880//2 929//2 882//2
f 929//2 886//2 882//2
f 888//2 928//2 892//2
f 928//2 927//2 892//2
f 927//2 930//2 898//2
f 930//2 901//2 898//2
f 883//22 884//22 885//22
f 884//23 887//23 885//23
f 884//24 882//24 887//24
f 882//25 886//25 887//25
f 889//26 890//26 891//26
f 890//27 893//27 891//27
f 890//28 888//28 893//28
f 888//29 892//29 893//29
f 904//30 905//30 906//30
f 905//31 908//31 906//31
f 905//162 903//162 908//162
f 903//33 907//33 908//33
f 891//34 893//34 894//34
f 893//35 896//35 894//35
f 893//36 892//36 896//36
f 892//37 895//37 896//37
f 894//38 896//38 897//38
f 896//39 899//39 897//39
f 896//40 895//40 899//40
f 895//41 898//41 899//41
f 906//42 908//42 909//42
f 908//43 911//43 909//43
f 908//44 907//44 911//44
f 907//45 910//45 911//45
f 909//46 911//46 912//46
f 911//47 914//47 912//47
f 911//48 910//48 914//48
f 910//49 913//49 914//49
f 919//50 920//50 921//50
f 920//51 923//51 921//51
f 920//52 918//52 923//52
f 918//53 922//53 923//53
f 897//54 899//54 900//54
f 899//55 902//55 900//55
f 899//56 898//56 902//56
f 898//57 901//57 902//57
f 900//58 902//58 904//58
f 902//59 905//59 904//59
f 902//60 901//60 905//60
f 901//61 903//61 905//61
f 912//62 914//62 915//62
f 914//63 917//63 915//63
f 914//64 913//64 917//64
f 913//65 916//65 917//65
f 915//66 917//66 919//66
f 917//67 920//67 919//67
f 917//68 916//68 920//68
f 916//69 918//69 920//69
f 921//70 923//70 924//70
f 923//71 926//71 924//71
f 923//72 922//72 926//72
f 922//73 925//73 926//73
f 885//74 887//74 889//74
f 887//75 890//75 889//75
f 887//76 886//76 890//76
f 886//77 888//77 890//77
f 924//78 926//78 879//78
f 926//79 881//79 879//79
f 926//80 925//80 881//80
f 925//81 880//81 881//81
f 879//82 881//82 883//82
f 881//83 884//83 883//83
f 881//84 880//84 884//84
f 880//85 882//85 884//85
f 928//2 931//2 927//2
f 931//2 930//2 927//2
f 931//2 934//2 930//2
f 934//2 933//2 930//2
f 929//2 932//2 928//2
f 932//2 931//2 928//2
f 932//2 935//2 931//2
f 935//2 934//2 931//2
f 940//86 936//86 941//86
f 936//87 938//87 941//87
f 941//88 938//88 939//88
f 938//157 937//157 939//157
f 943//90 940//90 944//90
f 940//91 941//91 944//91
f 944//92 941//92 942//92
f 941//93 939//93 942//93
f 946//94 943//94 947//94
f 943//95 944//95 947//95
f 947//158 944//158 945//158
f 944//97 942//97 945//97
f 949//98 946//98 950//98
f 946//99 947//99 950//99
f 950//100 947//100 948//100
f 947//101 945//101 948//101
f 952//102 949//102 953//102
f 949//103 950//103 953//103
f 953//104 950//104 951//104
f 950//105 948//105 951//105
f 955//106 952//106 956//106
f 952//107 953//107 956//107
f 956//108 953//108 954//108
f 953//109 951//109 954//109
f 958//110 955//110 959//110
f 955//111 956//111 959//111
f 959//112 956//112 957//112
f 956//163 954//163 957//163
f 961//114 958//114 962//114
f 958//115 959//115 962//115
f 962//116 959//116 960//116
f 959//117 957//117 960//117
f 964//118 961//118 965//118
f 961//119 962//119 965//119
f 965//120 962//120 963//120
f 962//159 960//159 963//159
f 967//122 964//122 968//122
f 964//123 965//123 968//123
f 968//124 965//124 966//124
f 965//125 963//125 966//125
f 970//126 967//126 971//126
f 967//127 968//127 971//127
f 971//160 968//160 969//160
f 968//129 966//129 969//129
f 973//130 970//130 974//130
f 970//131 971//131 974//131
f 974//132 971//132 972//132
f 971//133 969//133 972//133
f 976//134 973//134 977//134
f 973//135 974//135 977//135
f 977//136 974//136 975//136
f 974//137 972//137 975//137
f 979//138 976//138 980//138
f 976//139 977//139 980//139
f 980//140 977//140 978//140
f 977//141 975//141 978//141
f 982//142 979//142 983//142
f 979//143 980//143 983//143
f 983//144 980//144 981//144
f 980//145 978//145 981//145
f 936//146 982//146 938//146
f 982//147 983//147 938//147
f 938//148 983//148 937//148
f 983//149 981//149 937//149
f 894//150 897//150 967//150
f 897//150 964//150 967//150
f 919//151 921//151 943//151
f 921//151 940//151 943//151
f 897//7 900//7 964//7
f 900//7 961//7 964//7
f 936//16 924//16 982//16
f 924//16 879//16 982//16
f 921//20 924//20 940//20
f 924//20 936//20 940//20
f 900//11 904//11 961//11
f 904//11 958//11 961//11
f 982//152 879//152 979//152
f 879//152 883//152 979//152
f 904//153 906//153 958//153
f 906//153 955//153 958//153
f 883//154 885//154 979//154
f 885//154 976//154 979//154
f 906//155 909//155 955//155
f 909//155 952//155 955//155
f 885//13 889//13 976//13
f 889//13 973//13 976//13
f 909//8 912//8 952//8
f 912//8 949//8 952//8
f 889//4 891//4 973//4
f 891//4 970//4 973//4
f 912//17 915//17 949//17
f 915//17 946//17 949//17
f 891//156 894//156 970//156
f 894//156 967//156 970//156
f 991//2 1034//2 993//2
f 1034//2 1033//2 993//2
f 1020//21 1024//21 1051//21
f 1024//21 1048//21 1051//21
f 1039//2 1018//2 1038//2
f 1018//2 1015//2 1038//2
f 1035//2 1038//2 1006//2
f 1038//2 1008//2 1006//2
f 1023//2 1021//2 1027//2
f 1021//2 1040//2 1027//2
f 1030//2 1037//2 985//2
f 1037//2 1034//2 985//2
f 1038//2 1015//2 1008//2
f 1015//2 1012//2 1008//2
f 997//2 1032//2 1000//2
f 1032//2 1003//2 1000//2
f 1027//2 1040//2 1030//2
f 1040//2 1037//2 1030//2
f 1040//2 1021//2 1039//2
f 1021//2 1018//2 1039//2
f 985//2 1034//2 987//2
f 1034//2 991//2 987//2
f 993//2 1033//2 997//2
f 1033//2 1032//2 997//2
f 1032//2 1035//2 1003//2
f 1035//2 1006//2 1003//2
f 988//22 989//22 990//22
f 989//23 992//23 990//23
f 989//24 987//24 992//24
f 987//25 991//25 992//25
f 994//26 995//26 996//26
f 995//27 998//27 996//27
f 995//28 993//28 998//28
f 993//29 997//29 998//29
f 1009//30 1010//30 1011//30
f 1010//31 1013//31 1011//31
f 1010//32 1008//32 1013//32
f 1008//33 1012//33 1013//33
f 996//34 998//34 999//34
f 998//35 1001//35 999//35
f 998//36 997//36 1001//36
f 997//37 1000//37 1001//37
f 999//38 1001//38 1002//38
f 1001//39 1004//39 1002//39
f 1001//40 1000//40 1004//40
f 1000//41 1003//41 1004//41
f 1011//42 1013//42 1014//42
f 1013//43 1016//43 1014//43
f 1013//44 1012//44 1016//44
f 1012//45 1015//45 1016//45
f 1014//46 1016//46 1017//46
f 1016//47 1019//47 1017//47
f 1016//48 1015//48 1019//48
f 1015//49 1018//49 1019//49
f 1024//50 1025//50 1026//50
f 1025//51 1028//51 1026//51
f 1025//52 1023//52 1028//52
f 1023//53 1027//53 1028//53
f 1002//54 1004//54 1005//54
f 1004//55 1007//55 1005//55
f 1004//56 1003//56 1007//56
f 1003//57 1006//57 1007//57
f 1005//58 1007//58 1009//58
f 1007//59 1010//59 1009//59
f 1007//60 1006//60 1010//60
f 1006//61 1008//61 1010//61
f 1017//62 1019//62 1020//62
f 1019//63 1022//63 1020//63
f 1019//64 1018//64 1022//64
f 1018//65 1021//65 1022//65
f 1020//66 1022//66 1024//66
f 1022//67 1025//67 1024//67
f 1022//68 1021//68 1025//68
f 1021//69 1023//69 1025//69
f 1026//70 1028//70 1029//70
f 1028//71 1031//71 1029//71
f 1028//72 1027//72 1031//72
f 1027//73 1030//73 1031//73
f 990//74 992//74 994//74
f 992//75 995//75 994//75
f 992//76 991//76 995//76
f 991//77 993//77 995//77
f 1029//78 1031//78 984//78
f 1031//79 986//79 984//79
f 1031//80 1030//80 986//80
f 1030//81 985//81 986//81
f 984//82 986//82 988//82
f 986//83 989//83 988//83
f 986//84 985//84 989//84
f 985//85 987//85 989//85
f 1033//2 1036//2 1032//2
f 1036//2 1035//2 1032//2
f 1036//2 1039//2 1035//2
f 1039//2 1038//2 1035//2
f 1034//2 1037//2 1033//2
f 1037//2 1036//2 1033//2
f 1037//2 1040//2 1036//2
f 1040//2 1039//2 1036//2
f 1045//86 1041//86 1046//86
f 1041//87 1043//87 1046//87
f 1046//88 1043//88 1044//88
f 1043//157 1042//157 1044//157
f 1048//90 1045//90 1049//90
f 1045//91 1046//91 1049//91
f 1049//92 1046//92 1047//92
f 1046//93 1044//93 1047//93
f 1051//94 1048//94 1052//94
f 1048//95 1049//95 1052//95
f 1052//158 1049//158 1050//158
f 1049//97 1047//97 1050//97
f 1054//98 1051//98 1055//98
f 1051//99 1052//99 1055//99
f 1055//100 1052//100 1053//100
f 1052//101 1050//101 1053//101
f 1057//102 1054//102 1058//102
f 1054//103 1055//103 1058//103
f 1058//104 1055//104 1056//104
f 1055//105 1053//105 1056//105
f 1060//106 1057//106 1061//106
f 1057//107 1058//107 1061//107
f 1061//108 1058//108 1059//108
f 1058//109 1056//109 1059//109
f 1063//110 1060//110 1064//110
f 1060//111 1061//111 1064//111
f 1064//112 1061//112 1062//112
f 1061//113 1059//113 1062//113
f 1066//114 1063//114 1067//114
f 1063//115 1064//115 1067//115
f 1067//116 1064//116 1065//116
f 1064//117 1062//117 1065//117
f 1069//118 1066//118 1070//118
f 1066//119 1067//119 1070//119
f 1070//120 1067//120 1068//120
f 1067//159 1065//159 1068//159
f 1072//122 1069//122 1073//122
f 1069//123 1070//123 1073//123
f 1073//124 1070//124 1071//124
f 1070//125 1068//125 1071//125
f 1075//126 1072//126 1076//126
f 1072//127 1073//127 1076//127
f 1076//160 1073//160 1074//160
f 1073//129 1071//129 1074//129
f 1078//130 1075//130 1079//130
f 1075//131 1076//131 1079//131
f 1079//132 1076//132 1077//132
f 1076//133 1074//133 1077//133
f 1081//134 1078//134 1082//134
f 1078//135 1079//135 1082//135
f 1082//136 1079//136 1080//136
f 1079//137 1077//137 1080//137
f 1084//138 1081//138 1085//138
f 1081//139 1082//139 1085//139
f 1085//140 1082//140 1083//140
f 1082//141 1080//141 1083//141
f 1087//142 1084//142 1088//142
f 1084//161 1085//161 1088//161
f 1088//144 1085//144 1086//144
f 1085//145 1083//145 1086//145
f 1041//146 1087//146 1043//146
f 1087//147 1088//147 1043//147
f 1043//148 1088//148 1042//148
f 1088//149 1086//149 1042//149
f 999//150 1002//150 1072//150
f 1002//150 1069//150 1072//150
f 1024//151 1026//151 1048//151
f 1026//151 1045//151 1048//151
f 1002//7 1005//7 1069//7
f 1005//7 1066//7 1069//7
f 1041//16 1029//16 1087//16
f 1029//16 984//16 1087//16
f 1026//20 1029//20 1045//20
f 1029//20 1041//20 1045//20
f 1005//11 1009//11 1066//11
f 1009//11 1063//11 1066//11
f 1087//152 984//152 1084//152
f 984//152 988//152 1084//152
f 1009//153 1011//153 1063//153
f 1011//153 1060//153 1063//153
f 988//154 990//154 1084//154
f 990//154 1081//154 1084//154
f 1011//155 1014//155 1060//155
f 1014//155 1057//155 1060//155
f 990//13 994//13 1081//13
f 994//13 1078//13 1081//13
f 1014//8 1017//8 1057//8
f 1017//8 1054//8 1057//8
f 994//4 996//4 1078//4
f 996//4 1075//4 1078//4
f 1017//17 1020//17 1054//17
f 1020//17 1051//17 1054//17
f 996//156 999//156 1075//156
f 999//156 1072//156 1075//156
f 1096//2 1139//2 1098//2
f 1139//2 1138//2 1098//2
f 1125//21 1129//21 1156//21
f 1129//21 1153//21 1156//21
f 1144//2 1123//2 1143//2
f 1123//2 1120//2 1143//2
f 1140//2 1143//2 1111//2
f 1143//2 1113//2 1111//2
f 1128//2 1126//2 1132//2
f 1126//2 1145//2 1132//2
f 1135//2 1142//2 1090//2
f 1142//2 1139//2 1090//2
f 1143//2 1120//2 1113//2
f 1120//2 1117//2 1113//2
f 1102//2 1137//2 1105//2
f 1137//2 1108//2 1105//2
f 1132//2 1145//2 1135//2
f 1145//2 1142//2 1135//2
f 1145//2 1126//2 1144//2
f 1126//2 1123//2 1144//2
f 1090//2 1139//2 1092//2
f 1139//2 1096//2 1092//2
f 1098//2 1138//2 1102//2
f 1138//2 1137//2 1102//2
f 1137//2 1140//2 1108//2
f 1140//2 1111//2 1108//2
f 1093//22 1094//22 1095//22
f 1094//23 1097//23 1095//23
f 1094//24 1092//24 1097//24
f 1092//25 1096//25 1097//25
f 1099//26 1100//26 1101//26
f 1100//27 1103//27 1101//27
f 1100//28 1098//28 1103//28
f 1098//29 1102//29 1103//29
f 1114//30 1115//30 1116//30
f 1115//31 1118//31 1116//31
f 1115//32 1113//32 1118//32
f 1113//33 1117//33 1118//33
f 1101//34 1103//34 1104//34
f 1103//35 1106//35 1104//35
f 1103//36 1102//36 1106//36
f 1102//37 1105//37 1106//37
f 1104//38 1106//38 1107//38
f 1106//39 1109//39 1107//39
f 1106//40 1105//40 1109//40
f 1105//41 1108//41 1109//41
f 1116//42 1118//42 1119//42
f 1118//43 1121//43 1119//43
f 1118//44 1117//44 1121//44
f 1117//45 1120//45 1121//45
f 1119//46 1121//46 1122//46
f 1121//47 1124//47 1122//47
f 1121//48 1120//48 1124//48
f 1120//49 1123//49 1124//49
f 1129//50 1130//50 1131//50
f 1130//51 1133//51 1131//51
f 1130//52 1128//52 1133//52
f 1128//53 1132//53 1133//53
f 1107//54 1109//54 1110//54
f 1109//55 1112//55 1110//55
f 1109//56 1108//56 1112//56
f 1108//57 1111//57 1112//57
f 1110//58 1112//58 1114//58
f 1112//59 1115//59 1114//59
f 1112//60 1111//60 1115//60
f 1111//61 1113//61 1115//61
f 1122//62 1124//62 1125//62
f 1124//63 1127//63 1125//63
f 1124//64 1123//64 1127//64
f 1123//65 1126//65 1127//65
f 1125//66 1127//66 1129//66
f 1127//67 1130//67 1129//67
f 1127//68 1126//68 1130//68
f 1126//69 1128//69 1130//69
f 1131//70 1133//70 1134//70
f 1133//71 1136//71 1134//71
f 1133//72 1132//72 1136//72
f 1132//73 1135//73 1136//73
f 1095//74 1097//74 1099//74
f 1097//75 1100//75 1099//75
f 1097//76 1096//76 1100//76
f 1096//77 1098//77 1100//77
f 1134//78 1136//78 1089//78
f 1136//79 1091//79 1089//79
f 1136//80 1135//80 1091//80
f 1135//81 1090//81 1091//81
f 1089//82 1091//82 1093//82
f 1091//83 1094//83 1093//83
f 1091//84 1090//84 1094//84
f 1090//85 1092//85 1094//85
f 1138//2 1141//2 1137//2
f 1141//2 1140//2 1137//2
f 1141//2 1144//2 1140//2
f 1144//2 1143//2 1140//2
f 1139//2 1142//2 1138//2
f 1142//2 1141//2 1138//2
f 1142//2 1145//2 1141//2
f 1145//2 1144//2 1141//2
f 1150//86 1146//86 1151//86
f 1146//87 1148//87 1151//87
f 1151//88 1148//88 1149//88
f 1148//89 1147//89 1149//89
f 1153//90 1150//90 1154//90
f 1150//91 1151//91 1154//91
f 1154//92 1151//92 1152//92
f 1151//93 1149//93 1152//93
f 1156//94 1153//94 1157//94
f 1153//95 1154//95 1157//95
f 1157//96 1154//96 1155//96
f 1154//97 1152//97 1155//97
f 1159//98 1156//98 1160//98
f 1156//99 1157//99 1160//99
f 1160//100 1157//100 1158//100
f 1157//101 1155//101 1158//101
f 1162//102 1159//102 1163//102
f 1159//103 1160//103 1163//103
f 1163//104 1160//104 1161//104
f 1160//105 1158//105 1161//105
f 1165//106 1162//106 1166//106
f 1162//107 1163//107 1166//107
f 1166//108 1163//108 1164//108
f 1163//109 1161//109 1164//109
f 1168//110 1165//110 1169//110
f 1165//111 1166//111 1169//111
f 1169//112 1166//112 1167//112
f 1166//113 1164//113 1167//113
f 1171//114 1168//114 1172//114
f 1168//115 1169//115 1172//115
f 1172//116 1169//116 1170//116
f 1169//117 1167//117 1170//117
f 1174//118 1171//118 1175//118
f 1171//119 1172//119 1175//119
f 1175//120 1172//120 1173//120
f 1172//121 1170//121 1173//121
f 1177//122 1174//122 1178//122
f 1174//123 1175//123 1178//123
f 1178//124 1175//124 1176//124
f 1175//125 1173//125 1176//125
f 1180//126 1177//126 1181//126
f 1177//127 1178//127 1181//127
f 1181//128 1178//128 1179//128
f 1178//129 1176//129 1179//129
f 1183//130 1180//130 1184//130
f 1180//131 1181//131 1184//131
f 1184//132 1181//132 1182//132
f 1181//133 1179//133 1182//133
f 1186//134 1183//134 1187//134
f 1183//135 1184//135 1187//135
f 1187//136 1184//136 1185//136
f 1184//137 1182//137 1185//137
f 1189//138 1186//138 1190//138
f 1186//139 1187//139 1190//139
f 1190//140 1187//140 1188//140
f 1187//141 1185//141 1188//141
f 1192//142 1189//142 1193//142
f 1189//143 1190//143 1193//143
f 1193//144 1190//144 1191//144
f 1190//145 1188//145 1191//145
f 1146//146 1192//146 1148//146
f 1192//147 1193//147 1148//147
f 1148//148 1193//148 1147//148
f 1193//149 1191//149 1147//149
f 1104//150 1107//150 1177//150
f 1107//150 1174//150 1177//150
f 1129//151 1131//151 1153//151
f 1131//151 1150//151 1153//151
f 1107//7 1110//7 1174//7
f 1110//7 1171//7 1174//7
f 1146//16 1134//16 1192//16
f 1134//16 1089//16 1192//16
f 1131//20 1134//20 1150//20
f 1134//20 1146//20 1150//20
f 1110//11 1114//11 1171//11
f 1114//11 1168//11 1171//11
f 1192//152 1089//152 1189//152
f 1089//152 1093//152 1189//152
f 1114//153 1116//153 1168//153
f 1116//153 1165//153 1168//153
f 1093//154 1095//154 1189//154
f 1095//154 1186//154 1189//154
f 1116//155 1119//155 1165//155
f 1119//155 1162//155 1165//155
f 1095//13 1099//13 1186//13
f 1099//13 1183//13 1186//13
f 1119//8 1122//8 1162//8
f 1122//8 1159//8 1162//8
f 1099//4 1101//4 1183//4
f 1101//4 1180//4 1183//4
f 1122//17 1125//17 1159//17
f 1125//17 1156//17 1159//17
f 1101//156 1104//156 1180//156
f 1104//156 1177//156 1180//156
