# Blender 4.3.2
# www.blender.org
mtllib leftLeg.mtl
o Part.006
v 7.960000 0.019999 -15.960000
v 7.960000 0.019999 -8.040000
v -7.960000 0.019999 -8.040000
v -7.960000 0.019999 -15.960000
v -7.960000 9.579999 -15.960001
v -7.960000 9.579999 -8.040001
v 7.960000 9.579999 -8.040001
v 7.960000 9.579999 -15.960001
v -6.400000 0.019999 -14.400000
v -6.400000 0.019999 -9.600000
v 6.400000 0.019999 -9.600000
v 6.400000 0.019999 -14.400000
v 6.400000 8.499999 -14.400001
v 6.400000 8.499999 -9.600001
v -6.400000 8.499999 -9.600001
v -6.400000 8.499999 -14.400001
v 7.960000 0.019999 -8.040000
v 7.960000 0.019999 -8.040000
v -7.960000 0.019999 -8.040000
v -7.960000 0.019999 -8.040000
v 7.960000 0.019999 -15.960000
v 7.960000 0.019999 -15.960000
v -7.960000 0.019999 -15.960000
v -7.960000 0.019999 -15.960000
v -7.960000 9.579999 -15.960001
v -7.960000 9.579999 -15.960001
v -7.960000 9.579999 -8.040001
v -7.960000 9.579999 -8.040001
v 7.960000 9.579999 -15.960001
v 7.960000 9.579999 -15.960001
v 7.960000 9.579999 -8.040001
v 7.960000 9.579999 -8.040001
v -6.400000 0.019999 -14.400000
v -6.400000 0.019999 -14.400000
v -6.400000 0.019999 -9.600000
v -6.400000 0.019999 -9.600000
v 6.400000 0.019999 -14.400000
v 6.400000 0.019999 -14.400000
v 6.400000 0.019999 -9.600000
v 6.400000 0.019999 -9.600000
v 6.400000 8.499999 -9.600001
v 6.400000 8.499999 -9.600001
v -6.400000 8.499999 -9.600001
v -6.400000 8.499999 -9.600001
v 6.400000 8.499999 -14.400001
v 6.400000 8.499999 -14.400001
v -6.400000 8.499999 -14.400001
v -6.400000 8.499999 -14.400001
v -3.082000 11.149999 -14.217001
v -3.179000 11.399999 -13.982001
v -3.110000 11.326999 -14.148001
v -2.483000 11.399999 -13.517001
v -2.303000 11.149999 -13.697001
v -2.356000 11.326999 -13.644001
v -1.783000 11.149999 -12.918001
v -2.018000 11.399999 -12.821001
v -1.852000 11.326999 -12.890001
v -1.855000 11.399999 -12.000001
v -1.600000 11.149999 -12.000001
v -1.675000 11.326999 -12.000001
v -1.783000 11.149999 -11.082001
v -2.018000 11.399999 -11.179001
v -1.852000 11.326999 -11.110001
v -2.303000 11.149999 -10.303001
v -2.483000 11.399999 -10.483001
v -2.356000 11.326999 -10.356001
v -3.082000 11.149999 -9.783001
v -3.179000 11.399999 -10.018001
v -3.110000 11.326999 -9.852001
v -4.000000 11.149999 -9.600001
v -4.000000 11.399999 -9.855000
v -4.000000 11.326999 -9.675001
v -4.821000 11.399999 -10.018001
v -4.918000 11.149999 -9.783001
v -4.890000 11.326999 -9.852001
v -5.697000 11.149999 -10.303001
v -5.517000 11.399999 -10.483001
v -5.644000 11.326999 -10.356001
v -6.217000 11.149999 -11.082001
v -5.982000 11.399999 -11.179001
v -6.148000 11.326999 -11.110001
v -6.400000 11.149999 -12.000001
v -6.145000 11.399999 -12.000001
v -6.325000 11.326999 -12.000001
v -6.217000 11.149999 -12.918001
v -5.982000 11.399999 -12.821001
v -6.148000 11.326999 -12.890001
v -5.517000 11.399999 -13.517001
v -5.697000 11.149999 -13.697001
v -5.644000 11.326999 -13.644001
v -4.918000 11.149999 -14.217001
v -4.821000 11.399999 -13.982001
v -4.890000 11.326999 -14.148001
v -4.000000 11.149999 -14.400001
v -4.000000 11.399999 -14.145001
v -4.000000 11.326999 -14.325001
v -2.937000 11.399999 -10.986001
v -2.836000 11.399999 -12.000001
v -2.937000 11.399999 -13.014001
v -4.000000 11.399999 -10.903001
v -4.000000 11.399999 -12.000001
v -4.000000 11.399999 -13.097001
v -5.063000 11.399999 -10.986001
v -5.164000 11.399999 -12.000001
v -5.063000 11.399999 -13.014001
v -4.000000 9.729999 -14.400001
v -4.000000 9.579999 -14.553001
v -4.000000 9.623999 -14.445001
v -4.977000 9.579999 -14.359001
v -4.918000 9.729999 -14.217001
v -4.936000 9.623999 -14.259001
v -5.805000 9.579999 -13.805001
v -5.697000 9.729999 -13.697001
v -5.729000 9.623999 -13.729001
v -6.359000 9.579999 -12.977001
v -6.217000 9.729999 -12.918001
v -6.259000 9.623999 -12.936001
v -6.553000 9.579999 -12.000001
v -6.400000 9.729999 -12.000001
v -6.445000 9.623999 -12.000001
v -6.359000 9.579999 -11.023001
v -6.217000 9.729999 -11.082001
v -6.259000 9.623999 -11.064001
v -5.805000 9.579999 -10.195001
v -5.697000 9.729999 -10.303001
v -5.729000 9.623999 -10.271001
v -4.977000 9.579999 -9.641001
v -4.918000 9.729999 -9.783001
v -4.936000 9.623999 -9.741001
v -4.000000 9.579999 -9.447001
v -4.000000 9.729999 -9.600001
v -4.000000 9.623999 -9.555001
v -3.023000 9.579999 -9.641001
v -3.082000 9.729999 -9.783001
v -3.064000 9.623999 -9.741001
v -2.195000 9.579999 -10.195001
v -2.303000 9.729999 -10.303001
v -2.271000 9.623999 -10.271001
v -1.641000 9.579999 -11.023001
v -1.783000 9.729999 -11.082001
v -1.741000 9.623999 -11.064001
v -1.447000 9.579999 -12.000001
v -1.600000 9.729999 -12.000001
v -1.555000 9.623999 -12.000001
v -1.641000 9.579999 -12.977001
v -1.783000 9.729999 -12.918001
v -1.741000 9.623999 -12.936001
v -2.195000 9.579999 -13.805001
v -2.303000 9.729999 -13.697001
v -2.271000 9.623999 -13.729001
v -3.023000 9.579999 -14.359001
v -3.082000 9.729999 -14.217001
v -3.064000 9.623999 -14.259001
v 4.918000 11.149999 -14.217001
v 4.821000 11.399999 -13.982001
v 4.890000 11.326999 -14.148001
v 5.517000 11.399999 -13.517001
v 5.697000 11.149999 -13.697001
v 5.644000 11.326999 -13.644001
v 6.217000 11.149999 -12.918001
v 5.982000 11.399999 -12.821001
v 6.148000 11.326999 -12.890001
v 6.145000 11.399999 -12.000001
v 6.400000 11.149999 -12.000001
v 6.325000 11.326999 -12.000001
v 6.217000 11.149999 -11.082001
v 5.982000 11.399999 -11.179001
v 6.148000 11.326999 -11.110001
v 5.697000 11.149999 -10.303001
v 5.517000 11.399999 -10.483001
v 5.644000 11.326999 -10.356001
v 4.918000 11.149999 -9.783001
v 4.821000 11.399999 -10.018001
v 4.890000 11.326999 -9.852001
v 4.000000 11.149999 -9.600001
v 4.000000 11.399999 -9.855000
v 4.000000 11.326999 -9.675001
v 3.179000 11.399999 -10.018001
v 3.082000 11.149999 -9.783001
v 3.110000 11.326999 -9.852001
v 2.303000 11.149999 -10.303001
v 2.483000 11.399999 -10.483001
v 2.356000 11.326999 -10.356001
v 1.783000 11.149999 -11.082001
v 2.018000 11.399999 -11.179001
v 1.852000 11.326999 -11.110001
v 1.600000 11.149999 -12.000001
v 1.855000 11.399999 -12.000001
v 1.675000 11.326999 -12.000001
v 1.783000 11.149999 -12.918001
v 2.018000 11.399999 -12.821001
v 1.852000 11.326999 -12.890001
v 2.483000 11.399999 -13.517001
v 2.303000 11.149999 -13.697001
v 2.356000 11.326999 -13.644001
v 3.082000 11.149999 -14.217001
v 3.179000 11.399999 -13.982001
v 3.110000 11.326999 -14.148001
v 4.000000 11.149999 -14.400001
v 4.000000 11.399999 -14.145001
v 4.000000 11.326999 -14.325001
v 5.063000 11.399999 -10.986001
v 5.164000 11.399999 -12.000001
v 5.063000 11.399999 -13.014001
v 4.000000 11.399999 -10.903001
v 4.000000 11.399999 -12.000001
v 4.000000 11.399999 -13.097001
v 2.937000 11.399999 -10.986001
v 2.836000 11.399999 -12.000001
v 2.937000 11.399999 -13.014001
v 4.000000 9.729999 -14.400001
v 4.000000 9.579999 -14.553001
v 4.000000 9.623999 -14.445001
v 3.023000 9.579999 -14.359001
v 3.082000 9.729999 -14.217001
v 3.064000 9.623999 -14.259001
v 2.195000 9.579999 -13.805001
v 2.303000 9.729999 -13.697001
v 2.271000 9.623999 -13.729001
v 1.641000 9.579999 -12.977001
v 1.783000 9.729999 -12.918001
v 1.741000 9.623999 -12.936001
v 1.447000 9.579999 -12.000001
v 1.600000 9.729999 -12.000001
v 1.555000 9.623999 -12.000001
v 1.641000 9.579999 -11.023001
v 1.783000 9.729999 -11.082001
v 1.741000 9.623999 -11.064001
v 2.195000 9.579999 -10.195001
v 2.303000 9.729999 -10.303001
v 2.271000 9.623999 -10.271001
v 3.023000 9.579999 -9.641001
v 3.082000 9.729999 -9.783001
v 3.064000 9.623999 -9.741001
v 4.000000 9.579999 -9.447001
v 4.000000 9.729999 -9.600001
v 4.000000 9.623999 -9.555001
v 4.977000 9.579999 -9.641001
v 4.918000 9.729999 -9.783001
v 4.936000 9.623999 -9.741001
v 5.805000 9.579999 -10.195001
v 5.697000 9.729999 -10.303001
v 5.729000 9.623999 -10.271001
v 6.359000 9.579999 -11.023001
v 6.217000 9.729999 -11.082001
v 6.259000 9.623999 -11.064001
v 6.553000 9.579999 -12.000001
v 6.400000 9.729999 -12.000001
v 6.445000 9.623999 -12.000001
v 6.359000 9.579999 -12.977001
v 6.217000 9.729999 -12.918001
v 6.259000 9.623999 -12.936001
v 5.805000 9.579999 -13.805001
v 5.697000 9.729999 -13.697001
v 5.729000 9.623999 -13.729001
v 4.977000 9.579999 -14.359001
v 4.918000 9.729999 -14.217001
v 4.936000 9.623999 -14.259001
vn -1.0000 -0.0000 -0.0000
vn -0.0000 -0.0000 -1.0000
vn 1.0000 -0.0000 -0.0000
vn -0.0000 1.0000 -0.0000
vn -0.8317 -0.0000 -0.5552
vn 0.7681 0.3835 -0.5127
vn 0.7687 0.3809 -0.5138
vn 0.3183 0.9238 -0.2127
vn 0.3180 0.9240 -0.2125
vn 0.9056 0.3837 0.1805
vn 0.9065 0.3819 0.1803
vn 0.3748 0.9241 0.0745
vn 0.3753 0.9239 0.0745
vn -0.5133 0.3810 0.7690
vn -0.5132 0.3836 0.7678
vn -0.2125 0.9240 0.3180
vn -0.2127 0.9238 0.3183
vn 0.7690 0.3810 0.5133
vn 0.7678 0.3836 0.5132
vn 0.3180 0.9240 0.2125
vn 0.3183 0.9238 0.2127
vn 0.5127 0.3835 0.7681
vn 0.5138 0.3809 0.7687
vn 0.2127 0.9238 0.3183
vn 0.2125 0.9240 0.3180
vn -0.7681 0.3835 0.5127
vn -0.7687 0.3809 0.5138
vn -0.3183 0.9238 0.2127
vn -0.3180 0.9240 0.2125
vn -0.9064 0.3819 0.1807
vn -0.9057 0.3838 0.1801
vn -0.3753 0.9239 0.0746
vn -0.3748 0.9241 0.0744
vn -0.5127 0.3835 -0.7681
vn -0.5138 0.3809 -0.7687
vn -0.2127 0.9238 -0.3183
vn -0.2125 0.9240 -0.3180
vn 0.1807 0.3819 0.9064
vn 0.1801 0.3838 0.9057
vn 0.0746 0.9239 0.3753
vn 0.0744 0.9241 0.3748
vn -0.1805 0.3837 0.9056
vn -0.1803 0.3819 0.9065
vn -0.0745 0.9241 0.3748
vn -0.0745 0.9239 0.3753
vn -0.9056 0.3837 -0.1805
vn -0.9065 0.3819 -0.1803
vn -0.3748 0.9241 -0.0745
vn -0.3753 0.9239 -0.0745
vn -0.7690 0.3810 -0.5133
vn -0.7678 0.3836 -0.5132
vn -0.3180 0.9240 -0.2125
vn -0.3183 0.9238 -0.2127
vn -0.1807 0.3819 -0.9064
vn -0.1801 0.3838 -0.9057
vn -0.0746 0.9239 -0.3753
vn -0.0744 0.9241 -0.3748
vn 0.9064 0.3819 -0.1807
vn 0.9057 0.3838 -0.1801
vn 0.3753 0.9239 -0.0746
vn 0.3748 0.9241 -0.0744
vn 0.1805 0.3837 -0.9056
vn 0.1803 0.3819 -0.9065
vn 0.0745 0.9241 -0.3748
vn 0.0745 0.9239 -0.3753
vn 0.5133 0.3810 -0.7690
vn 0.5132 0.3836 -0.7678
vn 0.2125 0.9240 -0.3180
vn 0.2127 0.9238 -0.3183
vn -0.1801 0.3886 -0.9036
vn -0.1799 0.3844 -0.9055
vn -0.0747 0.9237 -0.3758
vn -0.0747 0.9235 -0.3762
vn -0.5121 0.3862 -0.7672
vn -0.5116 0.3902 -0.7655
vn -0.2140 0.9228 -0.3203
vn -0.2133 0.9235 -0.3189
vn -0.7658 0.3902 -0.5112
vn -0.7669 0.3863 -0.5126
vn -0.3189 0.9235 -0.2132
vn -0.3201 0.9229 -0.2142
vn -0.9054 0.3844 -0.1805
vn -0.9037 0.3886 -0.1796
vn -0.3762 0.9235 -0.0748
vn -0.3758 0.9237 -0.0746
vn -0.9036 0.3886 0.1801
vn -0.9055 0.3844 0.1799
vn -0.3758 0.9237 0.0747
vn -0.3762 0.9235 0.0747
vn -0.7672 0.3862 0.5121
vn -0.7655 0.3902 0.5116
vn -0.3202 0.9228 0.2140
vn -0.3189 0.9235 0.2133
vn -0.5112 0.3902 0.7658
vn -0.5125 0.3862 0.7669
vn -0.2132 0.9235 0.3189
vn -0.2142 0.9229 0.3201
vn -0.1805 0.3844 0.9054
vn -0.1796 0.3886 0.9037
vn -0.0748 0.9235 0.3762
vn -0.0746 0.9237 0.3758
vn 0.1801 0.3886 0.9036
vn 0.1799 0.3844 0.9055
vn 0.0747 0.9237 0.3758
vn 0.0747 0.9235 0.3762
vn 0.5121 0.3862 0.7672
vn 0.5116 0.3902 0.7655
vn 0.2140 0.9228 0.3203
vn 0.2133 0.9235 0.3189
vn 0.7658 0.3902 0.5112
vn 0.7669 0.3862 0.5125
vn 0.3189 0.9235 0.2132
vn 0.3201 0.9229 0.2142
vn 0.9054 0.3844 0.1805
vn 0.9037 0.3886 0.1796
vn 0.3762 0.9235 0.0748
vn 0.3758 0.9237 0.0746
vn 0.9036 0.3886 -0.1801
vn 0.9055 0.3844 -0.1799
vn 0.3758 0.9237 -0.0747
vn 0.3762 0.9235 -0.0747
vn 0.7672 0.3862 -0.5121
vn 0.7655 0.3902 -0.5116
vn 0.3202 0.9228 -0.2140
vn 0.3189 0.9235 -0.2133
vn 0.5112 0.3902 -0.7658
vn 0.5125 0.3862 -0.7669
vn 0.2132 0.9235 -0.3189
vn 0.2142 0.9229 -0.3201
vn 0.1805 0.3844 -0.9054
vn 0.1796 0.3886 -0.9037
vn 0.0748 0.9235 -0.3762
vn 0.0746 0.9237 -0.3758
vn 0.5552 -0.0000 0.8317
vn -0.5552 -0.0000 -0.8317
vn 0.1955 -0.0000 0.9807
vn 0.1955 -0.0000 -0.9807
vn -0.1955 -0.0000 -0.9807
vn -0.1955 -0.0000 0.9807
vn 0.5552 -0.0000 -0.8317
vn -0.5552 -0.0000 0.8317
vn 0.8317 -0.0000 -0.5552
vn -0.8317 -0.0000 0.5552
vn 0.9807 -0.0000 -0.1955
vn -0.9807 -0.0000 0.1955
vn 0.9807 -0.0000 0.1955
vn -0.9807 -0.0000 -0.1955
vn 0.8317 -0.0000 0.5552
vn -0.7669 0.3862 -0.5125
vn 0.7669 0.3863 0.5126
s 0
usemtl MB_199
f 20//1 27//1 24//1
f 27//1 25//1 24//1
f 29//2 22//2 26//2
f 22//2 23//2 26//2
f 21//3 30//3 18//3
f 30//3 31//3 18//3
f 17//2 19//2 32//2
f 32//2 19//2 28//2
f 6//4 7//4 5//4
f 7//4 8//4 5//4
f 4//4 3//4 33//4
f 33//4 3//4 35//4
f 1//4 4//4 37//4
f 37//4 4//4 33//4
f 37//4 39//4 1//4
f 1//4 39//4 2//4
f 3//4 2//4 35//4
f 35//4 2//4 39//4
f 36//2 43//2 40//2
f 43//2 41//2 40//2
f 11//3 38//3 42//3
f 42//3 38//3 45//3
f 12//2 34//2 46//2
f 46//2 34//2 47//2
f 9//1 10//1 48//1
f 48//1 10//1 44//1
f 13//4 16//4 14//4
f 14//4 16//4 15//4
f 56//4 99//4 58//4
f 99//4 98//4 58//4
f 85//5 89//5 116//5
f 89//5 113//5 116//5
f 104//4 83//4 103//4
f 83//4 80//4 103//4
f 100//4 103//4 71//4
f 103//4 73//4 71//4
f 88//4 86//4 92//4
f 86//4 105//4 92//4
f 95//4 102//4 50//4
f 102//4 99//4 50//4
f 103//4 80//4 73//4
f 80//4 77//4 73//4
f 62//4 97//4 65//4
f 97//4 68//4 65//4
f 92//4 105//4 95//4
f 105//4 102//4 95//4
f 105//4 86//4 104//4
f 86//4 83//4 104//4
f 50//4 99//4 52//4
f 99//4 56//4 52//4
f 58//4 98//4 62//4
f 98//4 97//4 62//4
f 97//4 100//4 68//4
f 100//4 71//4 68//4
f 53//6 54//6 55//6
f 54//7 57//7 55//7
f 54//8 52//8 57//8
f 52//9 56//9 57//9
f 59//10 60//10 61//10
f 60//11 63//11 61//11
f 60//12 58//12 63//12
f 58//13 62//13 63//13
f 74//14 75//14 76//14
f 75//15 78//15 76//15
f 75//16 73//16 78//16
f 73//17 77//17 78//17
f 61//18 63//18 64//18
f 63//19 66//19 64//19
f 63//20 62//20 66//20
f 62//21 65//21 66//21
f 64//22 66//22 67//22
f 66//23 69//23 67//23
f 66//24 65//24 69//24
f 65//25 68//25 69//25
f 76//26 78//26 79//26
f 78//27 81//27 79//27
f 78//28 77//28 81//28
f 77//29 80//29 81//29
f 79//30 81//30 82//30
f 81//31 84//31 82//31
f 81//32 80//32 84//32
f 80//33 83//33 84//33
f 89//34 90//34 91//34
f 90//35 93//35 91//35
f 90//36 88//36 93//36
f 88//37 92//37 93//37
f 67//38 69//38 70//38
f 69//39 72//39 70//39
f 69//40 68//40 72//40
f 68//41 71//41 72//41
f 70//42 72//42 74//42
f 72//43 75//43 74//43
f 72//44 71//44 75//44
f 71//45 73//45 75//45
f 82//46 84//46 85//46
f 84//47 87//47 85//47
f 84//48 83//48 87//48
f 83//49 86//49 87//49
f 85//50 87//50 89//50
f 87//51 90//51 89//51
f 87//52 86//52 90//52
f 86//53 88//53 90//53
f 91//54 93//54 94//54
f 93//55 96//55 94//55
f 93//56 92//56 96//56
f 92//57 95//57 96//57
f 55//58 57//58 59//58
f 57//59 60//59 59//59
f 57//60 56//60 60//60
f 56//61 58//61 60//61
f 94//62 96//62 49//62
f 96//63 51//63 49//63
f 96//64 95//64 51//64
f 95//65 50//65 51//65
f 49//66 51//66 53//66
f 51//67 54//67 53//67
f 51//68 50//68 54//68
f 50//69 52//69 54//69
f 98//4 101//4 97//4
f 101//4 100//4 97//4
f 101//4 104//4 100//4
f 104//4 103//4 100//4
f 99//4 102//4 98//4
f 102//4 101//4 98//4
f 102//4 105//4 101//4
f 105//4 104//4 101//4
f 110//70 106//70 111//70
f 106//71 108//71 111//71
f 111//72 108//72 109//72
f 108//73 107//73 109//73
f 113//74 110//74 114//74
f 110//75 111//75 114//75
f 114//76 111//76 112//76
f 111//77 109//77 112//77
f 116//78 113//78 117//78
f 113//79 114//79 117//79
f 117//80 114//80 115//80
f 114//81 112//81 115//81
f 119//82 116//82 120//82
f 116//83 117//83 120//83
f 120//84 117//84 118//84
f 117//85 115//85 118//85
f 122//86 119//86 123//86
f 119//87 120//87 123//87
f 123//88 120//88 121//88
f 120//89 118//89 121//89
f 125//90 122//90 126//90
f 122//91 123//91 126//91
f 126//92 123//92 124//92
f 123//93 121//93 124//93
f 128//94 125//94 129//94
f 125//95 126//95 129//95
f 129//96 126//96 127//96
f 126//97 124//97 127//97
f 131//98 128//98 132//98
f 128//99 129//99 132//99
f 132//100 129//100 130//100
f 129//101 127//101 130//101
f 134//102 131//102 135//102
f 131//103 132//103 135//103
f 135//104 132//104 133//104
f 132//105 130//105 133//105
f 137//106 134//106 138//106
f 134//107 135//107 138//107
f 138//108 135//108 136//108
f 135//109 133//109 136//109
f 140//110 137//110 141//110
f 137//111 138//111 141//111
f 141//112 138//112 139//112
f 138//113 136//113 139//113
f 143//114 140//114 144//114
f 140//115 141//115 144//115
f 144//116 141//116 142//116
f 141//117 139//117 142//117
f 146//118 143//118 147//118
f 143//119 144//119 147//119
f 147//120 144//120 145//120
f 144//121 142//121 145//121
f 149//122 146//122 150//122
f 146//123 147//123 150//123
f 150//124 147//124 148//124
f 147//125 145//125 148//125
f 152//126 149//126 153//126
f 149//127 150//127 153//127
f 153//128 150//128 151//128
f 150//129 148//129 151//129
f 106//130 152//130 108//130
f 152//131 153//131 108//131
f 108//132 153//132 107//132
f 153//133 151//133 107//133
f 64//134 67//134 137//134
f 67//134 134//134 137//134
f 89//135 91//135 113//135
f 91//135 110//135 113//135
f 67//136 70//136 134//136
f 70//136 131//136 134//136
f 106//137 94//137 152//137
f 94//137 49//137 152//137
f 91//138 94//138 110//138
f 94//138 106//138 110//138
f 70//139 74//139 131//139
f 74//139 128//139 131//139
f 152//140 49//140 149//140
f 49//140 53//140 149//140
f 74//141 76//141 128//141
f 76//141 125//141 128//141
f 53//142 55//142 149//142
f 55//142 146//142 149//142
f 76//143 79//143 125//143
f 79//143 122//143 125//143
f 55//144 59//144 146//144
f 59//144 143//144 146//144
f 79//145 82//145 122//145
f 82//145 119//145 122//145
f 59//146 61//146 143//146
f 61//146 140//146 143//146
f 82//147 85//147 119//147
f 85//147 116//147 119//147
f 61//148 64//148 140//148
f 64//148 137//148 140//148
f 161//4 204//4 163//4
f 204//4 203//4 163//4
f 190//5 194//5 221//5
f 194//5 218//5 221//5
f 209//4 188//4 208//4
f 188//4 185//4 208//4
f 205//4 208//4 176//4
f 208//4 178//4 176//4
f 193//4 191//4 197//4
f 191//4 210//4 197//4
f 200//4 207//4 155//4
f 207//4 204//4 155//4
f 208//4 185//4 178//4
f 185//4 182//4 178//4
f 167//4 202//4 170//4
f 202//4 173//4 170//4
f 197//4 210//4 200//4
f 210//4 207//4 200//4
f 210//4 191//4 209//4
f 191//4 188//4 209//4
f 155//4 204//4 157//4
f 204//4 161//4 157//4
f 163//4 203//4 167//4
f 203//4 202//4 167//4
f 202//4 205//4 173//4
f 205//4 176//4 173//4
f 158//6 159//6 160//6
f 159//7 162//7 160//7
f 159//8 157//8 162//8
f 157//9 161//9 162//9
f 164//10 165//10 166//10
f 165//11 168//11 166//11
f 165//12 163//12 168//12
f 163//13 167//13 168//13
f 179//14 180//14 181//14
f 180//15 183//15 181//15
f 180//16 178//16 183//16
f 178//17 182//17 183//17
f 166//18 168//18 169//18
f 168//19 171//19 169//19
f 168//20 167//20 171//20
f 167//21 170//21 171//21
f 169//22 171//22 172//22
f 171//23 174//23 172//23
f 171//24 170//24 174//24
f 170//25 173//25 174//25
f 181//26 183//26 184//26
f 183//27 186//27 184//27
f 183//28 182//28 186//28
f 182//29 185//29 186//29
f 184//30 186//30 187//30
f 186//31 189//31 187//31
f 186//32 185//32 189//32
f 185//33 188//33 189//33
f 194//34 195//34 196//34
f 195//35 198//35 196//35
f 195//36 193//36 198//36
f 193//37 197//37 198//37
f 172//38 174//38 175//38
f 174//39 177//39 175//39
f 174//40 173//40 177//40
f 173//41 176//41 177//41
f 175//42 177//42 179//42
f 177//43 180//43 179//43
f 177//44 176//44 180//44
f 176//45 178//45 180//45
f 187//46 189//46 190//46
f 189//47 192//47 190//47
f 189//48 188//48 192//48
f 188//49 191//49 192//49
f 190//50 192//50 194//50
f 192//51 195//51 194//51
f 192//52 191//52 195//52
f 191//53 193//53 195//53
f 196//54 198//54 199//54
f 198//55 201//55 199//55
f 198//56 197//56 201//56
f 197//57 200//57 201//57
f 160//58 162//58 164//58
f 162//59 165//59 164//59
f 162//60 161//60 165//60
f 161//61 163//61 165//61
f 199//62 201//62 154//62
f 201//63 156//63 154//63
f 201//64 200//64 156//64
f 200//65 155//65 156//65
f 154//66 156//66 158//66
f 156//67 159//67 158//67
f 156//68 155//68 159//68
f 155//69 157//69 159//69
f 203//4 206//4 202//4
f 206//4 205//4 202//4
f 206//4 209//4 205//4
f 209//4 208//4 205//4
f 204//4 207//4 203//4
f 207//4 206//4 203//4
f 207//4 210//4 206//4
f 210//4 209//4 206//4
f 215//70 211//70 216//70
f 211//71 213//71 216//71
f 216//72 213//72 214//72
f 213//73 212//73 214//73
f 218//74 215//74 219//74
f 215//75 216//75 219//75
f 219//76 216//76 217//76
f 216//77 214//77 217//77
f 221//78 218//78 222//78
f 218//149 219//149 222//149
f 222//80 219//80 220//80
f 219//81 217//81 220//81
f 224//82 221//82 225//82
f 221//83 222//83 225//83
f 225//84 222//84 223//84
f 222//85 220//85 223//85
f 227//86 224//86 228//86
f 224//87 225//87 228//87
f 228//88 225//88 226//88
f 225//89 223//89 226//89
f 230//90 227//90 231//90
f 227//91 228//91 231//91
f 231//92 228//92 229//92
f 228//93 226//93 229//93
f 233//94 230//94 234//94
f 230//95 231//95 234//95
f 234//96 231//96 232//96
f 231//97 229//97 232//97
f 236//98 233//98 237//98
f 233//99 234//99 237//99
f 237//100 234//100 235//100
f 234//101 232//101 235//101
f 239//102 236//102 240//102
f 236//103 237//103 240//103
f 240//104 237//104 238//104
f 237//105 235//105 238//105
f 242//106 239//106 243//106
f 239//107 240//107 243//107
f 243//108 240//108 241//108
f 240//109 238//109 241//109
f 245//110 242//110 246//110
f 242//150 243//150 246//150
f 246//112 243//112 244//112
f 243//113 241//113 244//113
f 248//114 245//114 249//114
f 245//115 246//115 249//115
f 249//116 246//116 247//116
f 246//117 244//117 247//117
f 251//118 248//118 252//118
f 248//119 249//119 252//119
f 252//120 249//120 250//120
f 249//121 247//121 250//121
f 254//122 251//122 255//122
f 251//123 252//123 255//123
f 255//124 252//124 253//124
f 252//125 250//125 253//125
f 257//126 254//126 258//126
f 254//127 255//127 258//127
f 258//128 255//128 256//128
f 255//129 253//129 256//129
f 211//130 257//130 213//130
f 257//131 258//131 213//131
f 213//132 258//132 212//132
f 258//133 256//133 212//133
f 169//134 172//134 242//134
f 172//134 239//134 242//134
f 194//135 196//135 218//135
f 196//135 215//135 218//135
f 172//136 175//136 239//136
f 175//136 236//136 239//136
f 211//137 199//137 257//137
f 199//137 154//137 257//137
f 196//138 199//138 215//138
f 199//138 211//138 215//138
f 175//139 179//139 236//139
f 179//139 233//139 236//139
f 257//140 154//140 254//140
f 154//140 158//140 254//140
f 179//141 181//141 233//141
f 181//141 230//141 233//141
f 158//142 160//142 254//142
f 160//142 251//142 254//142
f 181//143 184//143 230//143
f 184//143 227//143 230//143
f 160//144 164//144 251//144
f 164//144 248//144 251//144
f 184//145 187//145 227//145
f 187//145 224//145 227//145
f 164//146 166//146 248//146
f 166//146 245//146 248//146
f 187//147 190//147 224//147
f 190//147 221//147 224//147
f 166//148 169//148 245//148
f 169//148 242//148 245//148
