# Blender 4.3.2
# www.blender.org
mtllib longSlab.mtl
o Part.3
v 15.960000 22.419998 -15.960002
v 15.960000 31.979998 -15.960003
v 14.400000 22.419998 -14.400002
v 14.400000 30.899998 -14.400002
v 15.960000 31.980000 -12.000003
v 14.400000 22.420000 -12.000002
v 15.960000 22.420000 -12.000002
v 14.400000 30.900000 -12.000002
v 15.960000 22.420000 -8.000002
v 14.400000 30.900000 -8.000002
v 15.960000 31.980000 -8.000003
v 14.400000 22.420000 -4.000002
v 14.400000 30.900000 -4.000002
v 14.400000 22.420000 -8.000002
v 15.960000 22.420000 -4.000002
v 15.960000 31.980000 -4.000002
v 15.960000 22.420002 15.959998
v 15.960000 31.980001 15.959997
v 14.400000 22.420002 14.399998
v 14.400000 30.900002 14.399998
v 15.960000 31.980000 11.999997
v 14.400000 22.420000 11.999998
v 15.960000 22.420000 11.999998
v 14.400000 30.900000 11.999998
v 15.960000 22.420000 7.999998
v 14.400000 30.900000 7.999998
v 15.960000 31.980000 7.999998
v 14.400000 22.420000 3.999998
v 14.400000 30.900000 3.999998
v 14.400000 22.420000 7.999998
v 14.400000 22.420000 -0.000002
v 15.960000 31.980000 -0.000002
v 14.400000 30.900000 -0.000002
v 15.960000 22.420000 -0.000002
v 15.960000 22.420000 3.999998
v 15.960000 31.980000 3.999998
v 8.040000 22.419998 -15.960002
v 8.040000 31.979998 -15.960003
v 9.600000 22.419998 -14.400002
v 9.600000 30.899998 -14.400002
v 8.040000 31.980000 -12.000003
v 9.600000 22.420000 -12.000002
v 8.040000 22.420000 -12.000002
v 9.600000 30.900000 -12.000002
v 8.040000 22.420000 -8.000002
v 9.600000 30.900000 -8.000002
v 8.040000 31.980000 -8.000003
v 9.600000 22.420000 -4.000002
v 9.600000 30.900000 -4.000002
v 9.600000 22.420000 -8.000002
v 8.040000 22.420000 -4.000002
v 8.040000 31.980000 -4.000002
v 12.000000 22.419998 -15.960002
v 12.000000 31.979998 -15.960003
v 12.000000 22.419998 -14.400002
v 12.000000 30.899998 -14.400002
v 12.000000 31.980000 -12.000003
v 12.000000 30.900000 -4.000002
v 12.000000 30.900000 -12.000002
v 12.000000 31.980000 -4.000002
v 12.000000 31.980000 -8.000003
v 12.000000 30.900000 -8.000002
v 8.040000 22.420002 15.959998
v 8.040000 31.980001 15.959997
v 9.600000 22.420002 14.399998
v 9.600000 30.900002 14.399998
v 8.040000 31.980000 11.999997
v 9.600000 22.420000 11.999998
v 8.040000 22.420000 11.999998
v 9.600000 30.900000 11.999998
v 8.040000 22.420000 7.999998
v 9.600000 30.900000 7.999998
v 8.040000 31.980000 7.999998
v 9.600000 22.420000 3.999998
v 9.600000 30.900000 3.999998
v 9.600000 22.420000 7.999998
v 9.600000 22.420000 -0.000002
v 8.040000 31.980000 -0.000002
v 9.600000 30.900000 -0.000002
v 8.040000 22.420000 -0.000002
v 8.040000 22.420000 3.999998
v 8.040000 31.980000 3.999998
v 12.000000 30.900000 -0.000002
v 12.000000 31.980000 -0.000002
v 12.000000 22.420002 15.959998
v 12.000000 31.980001 15.959997
v 12.000000 22.420002 14.399998
v 12.000000 30.900002 14.399998
v 12.000000 31.980000 11.999997
v 12.000000 30.900000 3.999998
v 12.000000 30.900000 11.999998
v 12.000000 31.980000 3.999998
v 12.000000 31.980000 7.999998
v 12.000000 30.900000 7.999998
v 12.000000 22.419998 -15.960002
v 15.960000 22.419998 -15.960002
v 15.960000 22.419998 -15.960002
v 15.960000 31.979998 -15.960003
v 15.960000 31.979998 -15.960003
v 14.400000 22.419998 -14.400002
v 14.400000 22.419998 -14.400002
v 14.400000 30.899998 -14.400002
v 14.400000 30.899998 -14.400002
v 12.000000 30.899998 -14.400002
v 12.000000 31.979998 -15.960003
v 12.000000 22.419998 -14.400002
v 15.960000 31.980000 -8.000003
v 15.960000 31.980000 -12.000003
v 15.960000 22.420000 -12.000002
v 14.400000 30.900000 -12.000002
v 14.400000 22.420000 -8.000002
v 14.400000 22.420000 -4.000002
v 15.960000 22.420000 -4.000002
v 15.960000 22.420000 -8.000002
v 14.400000 22.420000 -0.000002
v 14.400000 30.900000 -4.000002
v 14.400000 30.900000 -0.000002
v 15.960000 31.980000 -4.000002
v 15.960000 22.420000 -0.000002
v 15.960000 31.980000 -0.000002
v 14.400000 30.900000 -8.000002
v 14.400000 22.420000 -12.000002
v 12.000000 22.420002 15.959998
v 15.960000 22.420002 15.959998
v 15.960000 22.420002 15.959998
v 15.960000 31.980001 15.959997
v 15.960000 31.980001 15.959997
v 14.400000 22.420002 14.399998
v 14.400000 22.420002 14.399998
v 14.400000 30.900002 14.399998
v 14.400000 30.900002 14.399998
v 12.000000 30.900002 14.399998
v 12.000000 31.980001 15.959997
v 12.000000 22.420002 14.399998
v 15.960000 31.980000 7.999998
v 15.960000 31.980000 11.999997
v 15.960000 22.420000 11.999998
v 14.400000 30.900000 11.999998
v 14.400000 22.420000 7.999998
v 14.400000 22.420000 3.999998
v 15.960000 22.420000 3.999998
v 15.960000 22.420000 7.999998
v 14.400000 30.900000 3.999998
v 15.960000 31.980000 3.999998
v 14.400000 30.900000 7.999998
v 14.400000 22.420000 11.999998
v 8.040000 22.419998 -15.960002
v 8.040000 22.419998 -15.960002
v 8.040000 31.979998 -15.960003
v 8.040000 31.979998 -15.960003
v 9.600000 22.419998 -14.400002
v 9.600000 22.419998 -14.400002
v 9.600000 30.899998 -14.400002
v 9.600000 30.899998 -14.400002
v 8.040000 31.980000 -8.000003
v 8.040000 31.980000 -12.000003
v 8.040000 22.420000 -12.000002
v 9.600000 30.900000 -12.000002
v 9.600000 22.420000 -8.000002
v 9.600000 22.420000 -4.000002
v 8.040000 22.420000 -4.000002
v 8.040000 22.420000 -8.000002
v 9.600000 22.420000 -0.000002
v 9.600000 30.900000 -4.000002
v 9.600000 30.900000 -0.000002
v 8.040000 31.980000 -4.000002
v 8.040000 22.420000 -0.000002
v 8.040000 31.980000 -0.000002
v 9.600000 30.900000 -8.000002
v 9.600000 22.420000 -12.000002
v 8.040000 22.420002 15.959998
v 8.040000 22.420002 15.959998
v 8.040000 31.980001 15.959997
v 8.040000 31.980001 15.959997
v 9.600000 22.420002 14.399998
v 9.600000 22.420002 14.399998
v 9.600000 30.900002 14.399998
v 9.600000 30.900002 14.399998
v 8.040000 31.980000 7.999998
v 8.040000 31.980000 11.999997
v 8.040000 22.420000 11.999998
v 9.600000 30.900000 11.999998
v 9.600000 22.420000 7.999998
v 9.600000 22.420000 3.999998
v 8.040000 22.420000 3.999998
v 8.040000 22.420000 7.999998
v 9.600000 30.900000 3.999998
v 8.040000 31.980000 3.999998
v 9.600000 30.900000 7.999998
v 9.600000 22.420000 11.999998
v 9.783000 33.549999 11.081997
v 10.018000 33.799999 11.178997
v 9.852000 33.727001 11.109997
v 10.483000 33.799999 10.482997
v 10.303000 33.549999 10.302998
v 10.356000 33.727001 10.355997
v 11.082000 33.549999 9.782997
v 11.179000 33.799999 10.017997
v 11.110000 33.727001 9.851997
v 12.000000 33.799999 9.854997
v 12.000000 33.549999 9.599998
v 12.000000 33.727001 9.674997
v 12.918000 33.549999 9.782997
v 12.821000 33.799999 10.017997
v 12.890000 33.727001 9.851997
v 13.697000 33.549999 10.302998
v 13.517000 33.799999 10.482997
v 13.644000 33.727001 10.355997
v 14.217000 33.549999 11.081997
v 13.982000 33.799999 11.178997
v 14.148000 33.727001 11.109997
v 14.400000 33.549999 11.999997
v 14.145000 33.799999 11.999997
v 14.325000 33.727001 11.999997
v 13.982000 33.799999 12.820997
v 14.217000 33.549999 12.917997
v 14.148000 33.727001 12.889997
v 13.697000 33.549999 13.696997
v 13.517000 33.799999 13.516997
v 13.644000 33.727001 13.643997
v 12.918000 33.549999 14.216997
v 12.821000 33.799999 13.981997
v 12.890000 33.727001 14.147997
v 12.000000 33.549999 14.399997
v 12.000000 33.799999 14.144998
v 12.000000 33.727001 14.324997
v 11.082000 33.549999 14.216997
v 11.179000 33.799999 13.981997
v 11.110000 33.727001 14.147997
v 10.483000 33.799999 13.516997
v 10.303000 33.549999 13.696997
v 10.356000 33.727001 13.643997
v 9.783000 33.549999 12.917997
v 10.018000 33.799999 12.820997
v 9.852000 33.727001 12.889997
v 9.600000 33.549999 11.999997
v 9.855000 33.799999 11.999997
v 9.675000 33.727001 11.999997
v 13.014000 33.799999 10.936997
v 12.000000 33.799999 10.835998
v 10.986000 33.799999 10.936997
v 13.097000 33.799999 11.999997
v 12.000000 33.799999 11.999997
v 10.903000 33.799999 11.999997
v 13.014000 33.799999 13.062997
v 12.000000 33.799999 13.163997
v 10.986000 33.799999 13.062997
v 9.600000 32.130001 11.999997
v 9.447000 31.980000 11.999997
v 9.555000 32.023998 11.999997
v 9.641000 31.980001 12.976997
v 9.783000 32.130001 12.917997
v 9.741000 32.023998 12.935997
v 10.195000 31.980001 13.804997
v 10.303000 32.130001 13.696997
v 10.271000 32.023998 13.728997
v 11.023000 31.980001 14.358997
v 11.082000 32.130001 14.216997
v 11.064000 32.023998 14.258997
v 12.000000 31.980001 14.552998
v 12.000000 32.130001 14.399997
v 12.000000 32.023998 14.444997
v 12.977000 31.980001 14.358997
v 12.918000 32.130001 14.216997
v 12.936000 32.023998 14.258997
v 13.805000 31.980001 13.804997
v 13.697000 32.130001 13.696997
v 13.729000 32.023998 13.728997
v 14.359000 31.980001 12.976997
v 14.217000 32.130001 12.917997
v 14.259000 32.023998 12.935997
v 14.553000 31.980000 11.999997
v 14.400000 32.130001 11.999997
v 14.445000 32.023998 11.999997
v 14.359000 31.980000 11.022997
v 14.217000 32.130001 11.081997
v 14.259000 32.023998 11.063997
v 13.805000 31.980000 10.194997
v 13.697000 32.130001 10.302998
v 13.729000 32.023998 10.270997
v 12.977000 31.980000 9.640997
v 12.918000 32.130001 9.782997
v 12.936000 32.023998 9.740997
v 12.000000 31.980000 9.446997
v 12.000000 32.130001 9.599998
v 12.000000 32.023998 9.554997
v 11.023000 31.980000 9.640997
v 11.082000 32.130001 9.782997
v 11.064000 32.023998 9.740997
v 10.195000 31.980000 10.194997
v 10.303000 32.130001 10.302998
v 10.271000 32.023998 10.270997
v 9.641000 31.980000 11.022997
v 9.783000 32.130001 11.081997
v 9.741000 32.023998 11.063997
v 9.783000 33.549999 3.081997
v 10.018000 33.799999 3.178997
v 9.852000 33.727001 3.109997
v 10.483000 33.799999 2.482997
v 10.303000 33.549999 2.302997
v 10.356000 33.727001 2.355997
v 11.082000 33.549999 1.782997
v 11.179000 33.799999 2.017997
v 11.110000 33.727001 1.851997
v 12.000000 33.799999 1.854998
v 12.000000 33.549999 1.599998
v 12.000000 33.727001 1.674997
v 12.918000 33.549999 1.782997
v 12.821000 33.799999 2.017997
v 12.890000 33.727001 1.851997
v 13.697000 33.549999 2.302997
v 13.517000 33.799999 2.482997
v 13.644000 33.727001 2.355997
v 14.217000 33.549999 3.081997
v 13.982000 33.799999 3.178997
v 14.148000 33.727001 3.109997
v 14.400000 33.549999 3.999997
v 14.145000 33.799999 3.999997
v 14.325000 33.727001 3.999997
v 13.982000 33.799999 4.820998
v 14.217000 33.549999 4.917998
v 14.148000 33.727001 4.889997
v 13.697000 33.549999 5.696998
v 13.517000 33.799999 5.516998
v 13.644000 33.727001 5.643998
v 12.918000 33.549999 6.216998
v 12.821000 33.799999 5.981997
v 12.890000 33.727001 6.147997
v 12.000000 33.549999 6.399998
v 12.000000 33.799999 6.144998
v 12.000000 33.727001 6.324997
v 11.082000 33.549999 6.216998
v 11.179000 33.799999 5.981997
v 11.110000 33.727001 6.147997
v 10.483000 33.799999 5.516998
v 10.303000 33.549999 5.696998
v 10.356000 33.727001 5.643998
v 9.783000 33.549999 4.917998
v 10.018000 33.799999 4.820998
v 9.852000 33.727001 4.889997
v 9.600000 33.549999 3.999997
v 9.855000 33.799999 3.999997
v 9.675000 33.727001 3.999997
v 13.014000 33.799999 2.936997
v 12.000000 33.799999 2.835997
v 10.986000 33.799999 2.936997
v 13.097000 33.799999 3.999997
v 12.000000 33.799999 3.999997
v 10.903000 33.799999 3.999997
v 13.014000 33.799999 5.062998
v 12.000000 33.799999 5.163998
v 10.986000 33.799999 5.062998
v 9.600000 32.130001 3.999998
v 9.447000 31.980000 3.999998
v 9.555000 32.023998 3.999998
v 9.641000 31.980000 4.976998
v 9.783000 32.130001 4.917998
v 9.741000 32.023998 4.935997
v 10.195000 31.980000 5.804997
v 10.303000 32.130001 5.696998
v 10.271000 32.023998 5.728998
v 11.023000 31.980000 6.358998
v 11.082000 32.130001 6.216998
v 11.064000 32.023998 6.258997
v 12.000000 31.980000 6.552998
v 12.000000 32.130001 6.399998
v 12.000000 32.023998 6.444998
v 12.977000 31.980000 6.358998
v 12.918000 32.130001 6.216998
v 12.936000 32.023998 6.258997
v 13.805000 31.980000 5.804997
v 13.697000 32.130001 5.696998
v 13.729000 32.023998 5.728998
v 14.359000 31.980000 4.976998
v 14.217000 32.130001 4.917998
v 14.259000 32.023998 4.935997
v 14.553000 31.980000 3.999998
v 14.400000 32.130001 3.999998
v 14.445000 32.023998 3.999998
v 14.359000 31.980000 3.022998
v 14.217000 32.130001 3.081998
v 14.259000 32.023998 3.063998
v 13.805000 31.980000 2.194998
v 13.697000 32.130001 2.302998
v 13.729000 32.023998 2.270998
v 12.977000 31.980000 1.640998
v 12.918000 32.130001 1.782998
v 12.936000 32.023998 1.740998
v 12.000000 31.980000 1.446998
v 12.000000 32.130001 1.599998
v 12.000000 32.023998 1.554998
v 11.023000 31.980000 1.640998
v 11.082000 32.130001 1.782998
v 11.064000 32.023998 1.740998
v 10.195000 31.980000 2.194998
v 10.303000 32.130001 2.302998
v 10.271000 32.023998 2.270998
v 9.641000 31.980000 3.022998
v 9.783000 32.130001 3.081998
v 9.741000 32.023998 3.063998
v 9.783000 33.549999 -4.918003
v 10.018000 33.799999 -4.821002
v 9.852000 33.727001 -4.890002
v 10.483000 33.799999 -5.517003
v 10.303000 33.549999 -5.697002
v 10.356000 33.727001 -5.644002
v 11.082000 33.549999 -6.217002
v 11.179000 33.799999 -5.982002
v 11.110000 33.727001 -6.148002
v 12.000000 33.799999 -6.145002
v 12.000000 33.549999 -6.400002
v 12.000000 33.727001 -6.325002
v 12.918000 33.549999 -6.217002
v 12.821000 33.799999 -5.982002
v 12.890000 33.727001 -6.148002
v 13.697000 33.549999 -5.697002
v 13.517000 33.799999 -5.517003
v 13.644000 33.727001 -5.644002
v 14.217000 33.549999 -4.918003
v 13.982000 33.799999 -4.821002
v 14.148000 33.727001 -4.890002
v 14.400000 33.549999 -4.000002
v 14.145000 33.799999 -4.000002
v 14.325000 33.727001 -4.000002
v 13.982000 33.799999 -3.179003
v 14.217000 33.549999 -3.082003
v 14.148000 33.727001 -3.110003
v 13.697000 33.549999 -2.303003
v 13.517000 33.799999 -2.483003
v 13.644000 33.727001 -2.356003
v 12.918000 33.549999 -1.783002
v 12.821000 33.799999 -2.018003
v 12.890000 33.727001 -1.852003
v 12.000000 33.549999 -1.600003
v 12.000000 33.799999 -1.855003
v 12.000000 33.727001 -1.675002
v 11.082000 33.549999 -1.783002
v 11.179000 33.799999 -2.018003
v 11.110000 33.727001 -1.852003
v 10.483000 33.799999 -2.483003
v 10.303000 33.549999 -2.303003
v 10.356000 33.727001 -2.356003
v 9.783000 33.549999 -3.082003
v 10.018000 33.799999 -3.179003
v 9.852000 33.727001 -3.110003
v 9.600000 33.549999 -4.000002
v 9.855000 33.799999 -4.000002
v 9.675000 33.727001 -4.000002
v 13.014000 33.799999 -5.063003
v 12.000000 33.799999 -5.164002
v 10.986000 33.799999 -5.063003
v 13.097000 33.799999 -4.000002
v 12.000000 33.799999 -4.000002
v 10.903000 33.799999 -4.000002
v 13.014000 33.799999 -2.937003
v 12.000000 33.799999 -2.836003
v 10.986000 33.799999 -2.937003
v 9.600000 32.130001 -4.000002
v 9.447000 31.980000 -4.000002
v 9.555000 32.023998 -4.000002
v 9.641000 31.980000 -3.023002
v 9.783000 32.130001 -3.082002
v 9.741000 32.023998 -3.064002
v 10.195000 31.980000 -2.195002
v 10.303000 32.130001 -2.303002
v 10.271000 32.023998 -2.271002
v 11.023000 31.980000 -1.641002
v 11.082000 32.130001 -1.783002
v 11.064000 32.023998 -1.741002
v 12.000000 31.980000 -1.447002
v 12.000000 32.130001 -1.600002
v 12.000000 32.023998 -1.555002
v 12.977000 31.980000 -1.641002
v 12.918000 32.130001 -1.783002
v 12.936000 32.023998 -1.741002
v 13.805000 31.980000 -2.195002
v 13.697000 32.130001 -2.303002
v 13.729000 32.023998 -2.271002
v 14.359000 31.980000 -3.023002
v 14.217000 32.130001 -3.082002
v 14.259000 32.023998 -3.064002
v 14.553000 31.980000 -4.000002
v 14.400000 32.130001 -4.000002
v 14.445000 32.023998 -4.000002
v 14.359000 31.980000 -4.977003
v 14.217000 32.130001 -4.918003
v 14.259000 32.023998 -4.936002
v 13.805000 31.980000 -5.805002
v 13.697000 32.130001 -5.697002
v 13.729000 32.023998 -5.729002
v 12.977000 31.980000 -6.359003
v 12.918000 32.130001 -6.217002
v 12.936000 32.023998 -6.259002
v 12.000000 31.980000 -6.553002
v 12.000000 32.130001 -6.400002
v 12.000000 32.023998 -6.445003
v 11.023000 31.980000 -6.359003
v 11.082000 32.130001 -6.217002
v 11.064000 32.023998 -6.259002
v 10.195000 31.980000 -5.805002
v 10.303000 32.130001 -5.697002
v 10.271000 32.023998 -5.729002
v 9.641000 31.980000 -4.977003
v 9.783000 32.130001 -4.918003
v 9.741000 32.023998 -4.936002
v 9.783000 33.549999 -12.918003
v 10.018000 33.799999 -12.821003
v 9.852000 33.727001 -12.890003
v 10.483000 33.799999 -13.517003
v 10.303000 33.549999 -13.697002
v 10.356000 33.727001 -13.644003
v 11.082000 33.549999 -14.217003
v 11.179000 33.799999 -13.982003
v 11.110000 33.727001 -14.148003
v 12.000000 33.799999 -14.145003
v 12.000000 33.549999 -14.400002
v 12.000000 33.727001 -14.325003
v 12.918000 33.549999 -14.217003
v 12.821000 33.799999 -13.982003
v 12.890000 33.727001 -14.148003
v 13.697000 33.549999 -13.697002
v 13.517000 33.799999 -13.517003
v 13.644000 33.727001 -13.644003
v 14.217000 33.549999 -12.918003
v 13.982000 33.799999 -12.821003
v 14.148000 33.727001 -12.890003
v 14.400000 33.549999 -12.000003
v 14.145000 33.799999 -12.000003
v 14.325000 33.727001 -12.000003
v 13.982000 33.799999 -11.179003
v 14.217000 33.549999 -11.082003
v 14.148000 33.727001 -11.110003
v 13.697000 33.549999 -10.303003
v 13.517000 33.799999 -10.483003
v 13.644000 33.727001 -10.356003
v 12.918000 33.549999 -9.783003
v 12.821000 33.799999 -10.018003
v 12.890000 33.727001 -9.852003
v 12.000000 33.549999 -9.600003
v 12.000000 33.799999 -9.855002
v 12.000000 33.727001 -9.675003
v 11.082000 33.549999 -9.783003
v 11.179000 33.799999 -10.018003
v 11.110000 33.727001 -9.852003
v 10.483000 33.799999 -10.483003
v 10.303000 33.549999 -10.303003
v 10.356000 33.727001 -10.356003
v 9.783000 33.549999 -11.082003
v 10.018000 33.799999 -11.179003
v 9.852000 33.727001 -11.110003
v 9.600000 33.549999 -12.000003
v 9.855000 33.799999 -12.000003
v 9.675000 33.727001 -12.000003
v 13.014000 33.799999 -13.063003
v 12.000000 33.799999 -13.164002
v 10.986000 33.799999 -13.063003
v 13.097000 33.799999 -12.000003
v 12.000000 33.799999 -12.000003
v 10.903000 33.799999 -12.000003
v 13.014000 33.799999 -10.937003
v 12.000000 33.799999 -10.836003
v 10.986000 33.799999 -10.937003
v 9.600000 32.130001 -12.000003
v 9.447000 31.980000 -12.000003
v 9.555000 32.023998 -12.000003
v 9.641000 31.980000 -11.023003
v 9.783000 32.130001 -11.082003
v 9.741000 32.023998 -11.064003
v 10.195000 31.980000 -10.195003
v 10.303000 32.130001 -10.303003
v 10.271000 32.023998 -10.271003
v 11.023000 31.980000 -9.641003
v 11.082000 32.130001 -9.783003
v 11.064000 32.023998 -9.741003
v 12.000000 31.980000 -9.447002
v 12.000000 32.130001 -9.600003
v 12.000000 32.023998 -9.555003
v 12.977000 31.980000 -9.641003
v 12.918000 32.130001 -9.783003
v 12.936000 32.023998 -9.741003
v 13.805000 31.980000 -10.195003
v 13.697000 32.130001 -10.303003
v 13.729000 32.023998 -10.271003
v 14.359000 31.980000 -11.023003
v 14.217000 32.130001 -11.082003
v 14.259000 32.023998 -11.064003
v 14.553000 31.980000 -12.000003
v 14.400000 32.130001 -12.000003
v 14.445000 32.023998 -12.000003
v 14.359000 31.979998 -12.977003
v 14.217000 32.130001 -12.918003
v 14.259000 32.023998 -12.936003
v 13.805000 31.979998 -13.805003
v 13.697000 32.130001 -13.697002
v 13.729000 32.023998 -13.729003
v 12.977000 31.979998 -14.359003
v 12.918000 32.130001 -14.217003
v 12.936000 32.023998 -14.259003
v 12.000000 31.979998 -14.553003
v 12.000000 32.130001 -14.400002
v 12.000000 32.023998 -14.445003
v 11.023000 31.979998 -14.359003
v 11.082000 32.130001 -14.217003
v 11.064000 32.023998 -14.259003
v 10.195000 31.979998 -13.805003
v 10.303000 32.130001 -13.697002
v 10.271000 32.023998 -13.729003
v 9.641000 31.979998 -12.977003
v 9.783000 32.130001 -12.918003
v 9.741000 32.023998 -12.936003
vn -0.0000 -0.0000 -1.0000
vn -0.0000 1.0000 -0.0000
vn 1.0000 -0.0000 -0.0000
vn -0.0000 -0.0000 1.0000
vn -0.5552 -0.0000 0.8317
vn -0.5127 0.3835 -0.7681
vn -0.5138 0.3809 -0.7687
vn -0.2127 0.9238 -0.3183
vn -0.2125 0.9240 -0.3180
vn 0.1805 0.3837 -0.9056
vn 0.1803 0.3819 -0.9065
vn 0.0745 0.9241 -0.3748
vn 0.0745 0.9239 -0.3753
vn 0.7690 0.3810 0.5133
vn 0.7678 0.3836 0.5132
vn 0.3180 0.9240 0.2125
vn 0.3183 0.9238 0.2127
vn 0.5133 0.3810 -0.7690
vn 0.5132 0.3836 -0.7678
vn 0.2125 0.9240 -0.3180
vn 0.2127 0.9238 -0.3183
vn 0.7681 0.3835 -0.5127
vn 0.7687 0.3809 -0.5138
vn 0.3183 0.9238 -0.2127
vn 0.3180 0.9240 -0.2125
vn 0.5127 0.3835 0.7681
vn 0.5138 0.3809 0.7687
vn 0.2127 0.9238 0.3183
vn 0.2125 0.9240 0.3180
vn 0.1807 0.3819 0.9064
vn 0.1801 0.3838 0.9057
vn 0.0746 0.9239 0.3753
vn 0.0744 0.9241 0.3748
vn -0.7681 0.3835 0.5127
vn -0.7687 0.3809 0.5138
vn -0.3183 0.9238 0.2127
vn -0.3180 0.9240 0.2125
vn 0.9064 0.3819 -0.1807
vn 0.9057 0.3838 -0.1801
vn 0.3753 0.9239 -0.0746
vn 0.3748 0.9241 -0.0744
vn 0.9056 0.3837 0.1805
vn 0.9065 0.3819 0.1803
vn 0.3748 0.9241 0.0745
vn 0.3753 0.9239 0.0745
vn -0.1805 0.3837 0.9056
vn -0.1803 0.3819 0.9065
vn -0.0745 0.9241 0.3748
vn -0.0745 0.9239 0.3753
vn -0.5133 0.3810 0.7690
vn -0.5132 0.3836 0.7678
vn -0.2125 0.9240 0.3180
vn -0.2127 0.9238 0.3183
vn -0.9064 0.3819 0.1807
vn -0.9057 0.3838 0.1801
vn -0.3753 0.9239 0.0746
vn -0.3748 0.9241 0.0744
vn -0.1807 0.3819 -0.9064
vn -0.1801 0.3838 -0.9057
vn -0.0746 0.9239 -0.3753
vn -0.0744 0.9241 -0.3748
vn -0.9056 0.3837 -0.1805
vn -0.9065 0.3819 -0.1803
vn -0.3748 0.9241 -0.0745
vn -0.3753 0.9239 -0.0745
vn -0.7690 0.3810 -0.5133
vn -0.7678 0.3836 -0.5132
vn -0.3180 0.9240 -0.2125
vn -0.3183 0.9238 -0.2127
vn -0.9036 0.3886 0.1801
vn -0.9055 0.3844 0.1799
vn -0.3758 0.9237 0.0747
vn -0.3762 0.9235 0.0747
vn -0.7672 0.3862 0.5121
vn -0.7655 0.3902 0.5116
vn -0.3202 0.9228 0.2140
vn -0.3188 0.9235 0.2133
vn -0.5112 0.3902 0.7658
vn -0.5125 0.3862 0.7669
vn -0.2132 0.9235 0.3189
vn -0.2142 0.9229 0.3201
vn -0.1805 0.3844 0.9054
vn -0.1796 0.3886 0.9037
vn -0.0748 0.9235 0.3762
vn -0.0746 0.9237 0.3758
vn 0.1801 0.3886 0.9036
vn 0.1799 0.3844 0.9055
vn 0.0747 0.9237 0.3758
vn 0.0747 0.9235 0.3762
vn 0.5121 0.3862 0.7672
vn 0.5116 0.3902 0.7655
vn 0.2140 0.9228 0.3203
vn 0.2133 0.9235 0.3188
vn 0.7658 0.3902 0.5112
vn 0.7669 0.3862 0.5126
vn 0.3189 0.9235 0.2132
vn 0.3201 0.9229 0.2141
vn 0.9054 0.3843 0.1805
vn 0.9037 0.3886 0.1796
vn 0.3762 0.9235 0.0748
vn 0.3758 0.9237 0.0746
vn 0.9036 0.3886 -0.1801
vn 0.9055 0.3844 -0.1799
vn 0.3758 0.9237 -0.0747
vn 0.3762 0.9235 -0.0747
vn 0.7672 0.3862 -0.5121
vn 0.7655 0.3902 -0.5116
vn 0.3202 0.9228 -0.2140
vn 0.3188 0.9235 -0.2133
vn 0.5112 0.3902 -0.7658
vn 0.5125 0.3862 -0.7669
vn 0.2132 0.9235 -0.3189
vn 0.2142 0.9229 -0.3201
vn 0.1805 0.3844 -0.9054
vn 0.1796 0.3886 -0.9037
vn 0.0748 0.9235 -0.3762
vn 0.0746 0.9237 -0.3758
vn -0.1801 0.3886 -0.9036
vn -0.1799 0.3844 -0.9055
vn -0.0747 0.9237 -0.3758
vn -0.0747 0.9235 -0.3762
vn -0.5121 0.3862 -0.7672
vn -0.5116 0.3902 -0.7655
vn -0.2140 0.9228 -0.3203
vn -0.2133 0.9235 -0.3188
vn -0.7658 0.3902 -0.5112
vn -0.7669 0.3862 -0.5126
vn -0.3189 0.9235 -0.2132
vn -0.3201 0.9229 -0.2141
vn -0.9054 0.3843 -0.1805
vn -0.9037 0.3886 -0.1796
vn -0.3762 0.9235 -0.0748
vn -0.3758 0.9237 -0.0746
vn 0.8317 -0.0000 -0.5552
vn -0.8317 -0.0000 0.5552
vn 0.9807 -0.0000 -0.1955
vn -0.9807 -0.0000 -0.1955
vn -0.9807 -0.0000 0.1955
vn 0.9807 -0.0000 0.1955
vn -0.8317 -0.0000 -0.5552
vn 0.8317 -0.0000 0.5552
vn -0.5552 -0.0000 -0.8317
vn 0.5552 -0.0000 0.8317
vn -0.1955 -0.0000 -0.9807
vn 0.1955 -0.0000 0.9807
vn 0.1955 -0.0000 -0.9807
vn -0.1955 -0.0000 0.9807
vn 0.5552 -0.0000 -0.8317
vn -0.2140 0.9228 -0.3202
vn 0.2140 0.9228 0.3202
s 0
usemtl MB_192.001
f 95//1 105//1 96//1
f 105//1 98//1 96//1
f 106//2 100//2 53//2
f 53//2 100//2 97//2
f 109//2 97//2 122//2
f 122//2 97//2 100//2
f 6//3 101//3 110//3
f 110//3 101//3 102//3
f 3//1 55//1 103//1
f 103//1 55//1 104//1
f 108//2 99//2 57//2
f 99//2 54//2 57//2
f 107//2 108//2 61//2
f 108//2 57//2 61//2
f 111//3 6//3 121//3
f 121//3 6//3 110//3
f 9//2 109//2 14//2
f 14//2 109//2 122//2
f 1//3 2//3 7//3
f 2//3 5//3 7//3
f 56//2 59//2 4//2
f 4//2 59//2 8//2
f 15//3 16//3 34//3
f 16//3 32//3 34//3
f 59//2 62//2 8//2
f 8//2 62//2 10//2
f 7//3 5//3 114//3
f 5//3 11//3 114//3
f 58//2 83//2 13//2
f 13//2 83//2 117//2
f 107//2 61//2 118//2
f 61//2 60//2 118//2
f 111//3 121//3 12//3
f 12//3 121//3 116//3
f 9//2 14//2 113//2
f 113//2 14//2 112//2
f 58//2 13//2 62//2
f 62//2 13//2 10//2
f 15//3 114//3 16//3
f 114//3 11//3 16//3
f 119//2 113//2 115//2
f 115//2 113//2 112//2
f 31//3 12//3 33//3
f 33//3 12//3 116//3
f 120//2 118//2 84//2
f 118//2 60//2 84//2
f 123//4 124//4 133//4
f 124//4 126//4 133//4
f 134//2 85//2 128//2
f 128//2 85//2 125//2
f 137//2 146//2 125//2
f 125//2 146//2 128//2
f 22//3 138//3 129//3
f 129//3 138//3 130//3
f 19//4 131//4 87//4
f 87//4 131//4 132//4
f 136//2 89//2 127//2
f 89//2 86//2 127//2
f 135//2 93//2 136//2
f 93//2 89//2 136//2
f 139//3 145//3 22//3
f 22//3 145//3 138//3
f 25//2 30//2 137//2
f 137//2 30//2 146//2
f 17//3 23//3 18//3
f 23//3 21//3 18//3
f 88//2 20//2 91//2
f 91//2 20//2 24//2
f 35//3 34//3 36//3
f 34//3 32//3 36//3
f 91//2 24//2 94//2
f 94//2 24//2 26//2
f 23//3 142//3 21//3
f 142//3 27//3 21//3
f 90//2 29//2 83//2
f 83//2 29//2 117//2
f 135//2 144//2 93//2
f 144//2 92//2 93//2
f 139//3 28//3 145//3
f 145//3 28//3 143//3
f 25//2 141//2 30//2
f 30//2 141//2 140//2
f 90//2 94//2 29//2
f 29//2 94//2 26//2
f 35//3 36//3 142//3
f 36//3 27//3 142//3
f 119//2 115//2 141//2
f 141//2 115//2 140//2
f 31//3 33//3 28//3
f 28//3 33//3 143//3
f 120//2 84//2 144//2
f 84//2 92//2 144//2
f 95//1 147//1 105//1
f 147//1 149//1 105//1
f 106//2 53//2 151//2
f 151//2 53//2 148//2
f 157//2 170//2 148//2
f 148//2 170//2 151//2
f 42//3 152//3 158//3
f 152//3 153//3 158//3
f 39//1 154//1 55//1
f 55//1 154//1 104//1
f 156//2 57//2 150//2
f 57//2 54//2 150//2
f 155//2 61//2 156//2
f 61//2 57//2 156//2
f 159//3 42//3 169//3
f 42//3 158//3 169//3
f 45//2 50//2 157//2
f 157//2 50//2 170//2
f 37//3 38//3 43//3
f 43//3 38//3 41//3
f 56//2 40//2 59//2
f 59//2 40//2 44//2
f 51//3 52//3 80//3
f 80//3 52//3 78//3
f 59//2 44//2 62//2
f 62//2 44//2 46//2
f 43//3 41//3 162//3
f 162//3 41//3 47//3
f 58//2 49//2 83//2
f 83//2 49//2 165//2
f 155//2 166//2 61//2
f 166//2 60//2 61//2
f 159//3 169//3 48//3
f 169//3 164//3 48//3
f 45//2 161//2 50//2
f 50//2 161//2 160//2
f 58//2 62//2 49//2
f 49//2 62//2 46//2
f 51//3 162//3 52//3
f 52//3 162//3 47//3
f 167//2 163//2 161//2
f 161//2 163//2 160//2
f 77//3 48//3 79//3
f 48//3 164//3 79//3
f 168//2 84//2 166//2
f 84//2 60//2 166//2
f 123//4 133//4 171//4
f 133//4 173//4 171//4
f 134//2 175//2 85//2
f 85//2 175//2 172//2
f 181//2 172//2 190//2
f 190//2 172//2 175//2
f 68//3 182//3 176//3
f 182//3 177//3 176//3
f 65//4 87//4 178//4
f 178//4 87//4 132//4
f 180//2 174//2 89//2
f 174//2 86//2 89//2
f 179//2 180//2 93//2
f 180//2 89//2 93//2
f 183//3 189//3 68//3
f 189//3 182//3 68//3
f 71//2 181//2 76//2
f 76//2 181//2 190//2
f 63//3 69//3 64//3
f 64//3 69//3 67//3
f 88//2 91//2 66//2
f 66//2 91//2 70//2
f 81//3 80//3 82//3
f 82//3 80//3 78//3
f 91//2 94//2 70//2
f 70//2 94//2 72//2
f 69//3 186//3 67//3
f 67//3 186//3 73//3
f 90//2 83//2 75//2
f 75//2 83//2 165//2
f 179//2 93//2 188//2
f 93//2 92//2 188//2
f 183//3 74//3 189//3
f 74//3 187//3 189//3
f 71//2 76//2 185//2
f 185//2 76//2 184//2
f 90//2 75//2 94//2
f 94//2 75//2 72//2
f 81//3 82//3 186//3
f 186//3 82//3 73//3
f 167//2 185//2 163//2
f 163//2 185//2 184//2
f 77//3 79//3 74//3
f 79//3 187//3 74//3
f 168//2 188//2 84//2
f 188//2 92//2 84//2
f 198//2 241//2 200//2
f 241//2 240//2 200//2
f 227//5 231//5 258//5
f 231//5 255//5 258//5
f 246//2 225//2 245//2
f 225//2 222//2 245//2
f 242//2 245//2 213//2
f 245//2 215//2 213//2
f 230//2 228//2 234//2
f 228//2 247//2 234//2
f 237//2 244//2 192//2
f 244//2 241//2 192//2
f 245//2 222//2 215//2
f 222//2 219//2 215//2
f 204//2 239//2 207//2
f 239//2 210//2 207//2
f 234//2 247//2 237//2
f 247//2 244//2 237//2
f 247//2 228//2 246//2
f 228//2 225//2 246//2
f 192//2 241//2 194//2
f 241//2 198//2 194//2
f 200//2 240//2 204//2
f 240//2 239//2 204//2
f 239//2 242//2 210//2
f 242//2 213//2 210//2
f 195//6 196//6 197//6
f 196//7 199//7 197//7
f 196//8 194//8 199//8
f 194//9 198//9 199//9
f 201//10 202//10 203//10
f 202//11 205//11 203//11
f 202//12 200//12 205//12
f 200//13 204//13 205//13
f 216//14 217//14 218//14
f 217//15 220//15 218//15
f 217//16 215//16 220//16
f 215//17 219//17 220//17
f 203//18 205//18 206//18
f 205//19 208//19 206//19
f 205//20 204//20 208//20
f 204//21 207//21 208//21
f 206//22 208//22 209//22
f 208//23 211//23 209//23
f 208//24 207//24 211//24
f 207//25 210//25 211//25
f 218//26 220//26 221//26
f 220//27 223//27 221//27
f 220//28 219//28 223//28
f 219//29 222//29 223//29
f 221//30 223//30 224//30
f 223//31 226//31 224//31
f 223//32 222//32 226//32
f 222//33 225//33 226//33
f 231//34 232//34 233//34
f 232//35 235//35 233//35
f 232//36 230//36 235//36
f 230//37 234//37 235//37
f 209//38 211//38 212//38
f 211//39 214//39 212//39
f 211//40 210//40 214//40
f 210//41 213//41 214//41
f 212//42 214//42 216//42
f 214//43 217//43 216//43
f 214//44 213//44 217//44
f 213//45 215//45 217//45
f 224//46 226//46 227//46
f 226//47 229//47 227//47
f 226//48 225//48 229//48
f 225//49 228//49 229//49
f 227//50 229//50 231//50
f 229//51 232//51 231//51
f 229//52 228//52 232//52
f 228//53 230//53 232//53
f 233//54 235//54 236//54
f 235//55 238//55 236//55
f 235//56 234//56 238//56
f 234//57 237//57 238//57
f 197//58 199//58 201//58
f 199//59 202//59 201//59
f 199//60 198//60 202//60
f 198//61 200//61 202//61
f 236//62 238//62 191//62
f 238//63 193//63 191//63
f 238//64 237//64 193//64
f 237//65 192//65 193//65
f 191//66 193//66 195//66
f 193//67 196//67 195//67
f 193//68 192//68 196//68
f 192//69 194//69 196//69
f 240//2 243//2 239//2
f 243//2 242//2 239//2
f 243//2 246//2 242//2
f 246//2 245//2 242//2
f 241//2 244//2 240//2
f 244//2 243//2 240//2
f 244//2 247//2 243//2
f 247//2 246//2 243//2
f 252//70 248//70 253//70
f 248//71 250//71 253//71
f 253//72 250//72 251//72
f 250//73 249//73 251//73
f 255//74 252//74 256//74
f 252//75 253//75 256//75
f 256//76 253//76 254//76
f 253//77 251//77 254//77
f 258//78 255//78 259//78
f 255//79 256//79 259//79
f 259//80 256//80 257//80
f 256//81 254//81 257//81
f 261//82 258//82 262//82
f 258//83 259//83 262//83
f 262//84 259//84 260//84
f 259//85 257//85 260//85
f 264//86 261//86 265//86
f 261//87 262//87 265//87
f 265//88 262//88 263//88
f 262//89 260//89 263//89
f 267//90 264//90 268//90
f 264//91 265//91 268//91
f 268//92 265//92 266//92
f 265//93 263//93 266//93
f 270//94 267//94 271//94
f 267//95 268//95 271//95
f 271//96 268//96 269//96
f 268//97 266//97 269//97
f 273//98 270//98 274//98
f 270//99 271//99 274//99
f 274//100 271//100 272//100
f 271//101 269//101 272//101
f 276//102 273//102 277//102
f 273//103 274//103 277//103
f 277//104 274//104 275//104
f 274//105 272//105 275//105
f 279//106 276//106 280//106
f 276//107 277//107 280//107
f 280//108 277//108 278//108
f 277//109 275//109 278//109
f 282//110 279//110 283//110
f 279//111 280//111 283//111
f 283//112 280//112 281//112
f 280//113 278//113 281//113
f 285//114 282//114 286//114
f 282//115 283//115 286//115
f 286//116 283//116 284//116
f 283//117 281//117 284//117
f 288//118 285//118 289//118
f 285//119 286//119 289//119
f 289//120 286//120 287//120
f 286//121 284//121 287//121
f 291//122 288//122 292//122
f 288//123 289//123 292//123
f 292//124 289//124 290//124
f 289//125 287//125 290//125
f 294//126 291//126 295//126
f 291//127 292//127 295//127
f 295//128 292//128 293//128
f 292//129 290//129 293//129
f 248//130 294//130 250//130
f 294//131 295//131 250//131
f 250//132 295//132 249//132
f 295//133 293//133 249//133
f 206//134 209//134 279//134
f 209//134 276//134 279//134
f 231//135 233//135 255//135
f 233//135 252//135 255//135
f 209//136 212//136 276//136
f 212//136 273//136 276//136
f 248//137 236//137 294//137
f 236//137 191//137 294//137
f 233//138 236//138 252//138
f 236//138 248//138 252//138
f 212//139 216//139 273//139
f 216//139 270//139 273//139
f 294//140 191//140 291//140
f 191//140 195//140 291//140
f 216//141 218//141 270//141
f 218//141 267//141 270//141
f 195//142 197//142 291//142
f 197//142 288//142 291//142
f 218//143 221//143 267//143
f 221//143 264//143 267//143
f 197//144 201//144 288//144
f 201//144 285//144 288//144
f 221//145 224//145 264//145
f 224//145 261//145 264//145
f 201//146 203//146 285//146
f 203//146 282//146 285//146
f 224//147 227//147 261//147
f 227//147 258//147 261//147
f 203//148 206//148 282//148
f 206//148 279//148 282//148
f 303//2 346//2 305//2
f 346//2 345//2 305//2
f 332//5 336//5 363//5
f 336//5 360//5 363//5
f 351//2 330//2 350//2
f 330//2 327//2 350//2
f 347//2 350//2 318//2
f 350//2 320//2 318//2
f 335//2 333//2 339//2
f 333//2 352//2 339//2
f 342//2 349//2 297//2
f 349//2 346//2 297//2
f 350//2 327//2 320//2
f 327//2 324//2 320//2
f 309//2 344//2 312//2
f 344//2 315//2 312//2
f 339//2 352//2 342//2
f 352//2 349//2 342//2
f 352//2 333//2 351//2
f 333//2 330//2 351//2
f 297//2 346//2 299//2
f 346//2 303//2 299//2
f 305//2 345//2 309//2
f 345//2 344//2 309//2
f 344//2 347//2 315//2
f 347//2 318//2 315//2
f 300//6 301//6 302//6
f 301//7 304//7 302//7
f 301//8 299//8 304//8
f 299//9 303//9 304//9
f 306//10 307//10 308//10
f 307//11 310//11 308//11
f 307//12 305//12 310//12
f 305//13 309//13 310//13
f 321//14 322//14 323//14
f 322//15 325//15 323//15
f 322//16 320//16 325//16
f 320//17 324//17 325//17
f 308//18 310//18 311//18
f 310//19 313//19 311//19
f 310//20 309//20 313//20
f 309//21 312//21 313//21
f 311//22 313//22 314//22
f 313//23 316//23 314//23
f 313//24 312//24 316//24
f 312//25 315//25 316//25
f 323//26 325//26 326//26
f 325//27 328//27 326//27
f 325//28 324//28 328//28
f 324//29 327//29 328//29
f 326//30 328//30 329//30
f 328//31 331//31 329//31
f 328//32 327//32 331//32
f 327//33 330//33 331//33
f 336//34 337//34 338//34
f 337//35 340//35 338//35
f 337//36 335//36 340//36
f 335//37 339//37 340//37
f 314//38 316//38 317//38
f 316//39 319//39 317//39
f 316//40 315//40 319//40
f 315//41 318//41 319//41
f 317//42 319//42 321//42
f 319//43 322//43 321//43
f 319//44 318//44 322//44
f 318//45 320//45 322//45
f 329//46 331//46 332//46
f 331//47 334//47 332//47
f 331//48 330//48 334//48
f 330//49 333//49 334//49
f 332//50 334//50 336//50
f 334//51 337//51 336//51
f 334//52 333//52 337//52
f 333//53 335//53 337//53
f 338//54 340//54 341//54
f 340//55 343//55 341//55
f 340//56 339//56 343//56
f 339//57 342//57 343//57
f 302//58 304//58 306//58
f 304//59 307//59 306//59
f 304//60 303//60 307//60
f 303//61 305//61 307//61
f 341//62 343//62 296//62
f 343//63 298//63 296//63
f 343//64 342//64 298//64
f 342//65 297//65 298//65
f 296//66 298//66 300//66
f 298//67 301//67 300//67
f 298//68 297//68 301//68
f 297//69 299//69 301//69
f 345//2 348//2 344//2
f 348//2 347//2 344//2
f 348//2 351//2 347//2
f 351//2 350//2 347//2
f 346//2 349//2 345//2
f 349//2 348//2 345//2
f 349//2 352//2 348//2
f 352//2 351//2 348//2
f 357//70 353//70 358//70
f 353//71 355//71 358//71
f 358//72 355//72 356//72
f 355//73 354//73 356//73
f 360//74 357//74 361//74
f 357//75 358//75 361//75
f 361//76 358//76 359//76
f 358//77 356//77 359//77
f 363//78 360//78 364//78
f 360//79 361//79 364//79
f 364//80 361//80 362//80
f 361//81 359//81 362//81
f 366//82 363//82 367//82
f 363//83 364//83 367//83
f 367//84 364//84 365//84
f 364//85 362//85 365//85
f 369//86 366//86 370//86
f 366//87 367//87 370//87
f 370//88 367//88 368//88
f 367//89 365//89 368//89
f 372//90 369//90 373//90
f 369//91 370//91 373//91
f 373//92 370//92 371//92
f 370//93 368//93 371//93
f 375//94 372//94 376//94
f 372//95 373//95 376//95
f 376//96 373//96 374//96
f 373//97 371//97 374//97
f 378//98 375//98 379//98
f 375//99 376//99 379//99
f 379//100 376//100 377//100
f 376//101 374//101 377//101
f 381//102 378//102 382//102
f 378//103 379//103 382//103
f 382//104 379//104 380//104
f 379//105 377//105 380//105
f 384//106 381//106 385//106
f 381//107 382//107 385//107
f 385//108 382//108 383//108
f 382//109 380//109 383//109
f 387//110 384//110 388//110
f 384//111 385//111 388//111
f 388//112 385//112 386//112
f 385//113 383//113 386//113
f 390//114 387//114 391//114
f 387//115 388//115 391//115
f 391//116 388//116 389//116
f 388//117 386//117 389//117
f 393//118 390//118 394//118
f 390//119 391//119 394//119
f 394//120 391//120 392//120
f 391//121 389//121 392//121
f 396//122 393//122 397//122
f 393//123 394//123 397//123
f 397//149 394//149 395//149
f 394//125 392//125 395//125
f 399//126 396//126 400//126
f 396//127 397//127 400//127
f 400//128 397//128 398//128
f 397//129 395//129 398//129
f 353//130 399//130 355//130
f 399//131 400//131 355//131
f 355//132 400//132 354//132
f 400//133 398//133 354//133
f 311//134 314//134 384//134
f 314//134 381//134 384//134
f 336//135 338//135 360//135
f 338//135 357//135 360//135
f 314//136 317//136 381//136
f 317//136 378//136 381//136
f 353//137 341//137 399//137
f 341//137 296//137 399//137
f 338//138 341//138 357//138
f 341//138 353//138 357//138
f 317//139 321//139 378//139
f 321//139 375//139 378//139
f 399//140 296//140 396//140
f 296//140 300//140 396//140
f 321//141 323//141 375//141
f 323//141 372//141 375//141
f 300//142 302//142 396//142
f 302//142 393//142 396//142
f 323//143 326//143 372//143
f 326//143 369//143 372//143
f 302//144 306//144 393//144
f 306//144 390//144 393//144
f 326//145 329//145 369//145
f 329//145 366//145 369//145
f 306//146 308//146 390//146
f 308//146 387//146 390//146
f 329//147 332//147 366//147
f 332//147 363//147 366//147
f 308//148 311//148 387//148
f 311//148 384//148 387//148
f 408//2 451//2 410//2
f 451//2 450//2 410//2
f 437//5 441//5 468//5
f 441//5 465//5 468//5
f 456//2 435//2 455//2
f 435//2 432//2 455//2
f 452//2 455//2 423//2
f 455//2 425//2 423//2
f 440//2 438//2 444//2
f 438//2 457//2 444//2
f 447//2 454//2 402//2
f 454//2 451//2 402//2
f 455//2 432//2 425//2
f 432//2 429//2 425//2
f 414//2 449//2 417//2
f 449//2 420//2 417//2
f 444//2 457//2 447//2
f 457//2 454//2 447//2
f 457//2 438//2 456//2
f 438//2 435//2 456//2
f 402//2 451//2 404//2
f 451//2 408//2 404//2
f 410//2 450//2 414//2
f 450//2 449//2 414//2
f 449//2 452//2 420//2
f 452//2 423//2 420//2
f 405//6 406//6 407//6
f 406//7 409//7 407//7
f 406//8 404//8 409//8
f 404//9 408//9 409//9
f 411//10 412//10 413//10
f 412//11 415//11 413//11
f 412//12 410//12 415//12
f 410//13 414//13 415//13
f 426//14 427//14 428//14
f 427//15 430//15 428//15
f 427//16 425//16 430//16
f 425//17 429//17 430//17
f 413//18 415//18 416//18
f 415//19 418//19 416//19
f 415//20 414//20 418//20
f 414//21 417//21 418//21
f 416//22 418//22 419//22
f 418//23 421//23 419//23
f 418//24 417//24 421//24
f 417//25 420//25 421//25
f 428//26 430//26 431//26
f 430//27 433//27 431//27
f 430//28 429//28 433//28
f 429//29 432//29 433//29
f 431//30 433//30 434//30
f 433//31 436//31 434//31
f 433//32 432//32 436//32
f 432//33 435//33 436//33
f 441//34 442//34 443//34
f 442//35 445//35 443//35
f 442//36 440//36 445//36
f 440//37 444//37 445//37
f 419//38 421//38 422//38
f 421//39 424//39 422//39
f 421//40 420//40 424//40
f 420//41 423//41 424//41
f 422//42 424//42 426//42
f 424//43 427//43 426//43
f 424//44 423//44 427//44
f 423//45 425//45 427//45
f 434//46 436//46 437//46
f 436//47 439//47 437//47
f 436//48 435//48 439//48
f 435//49 438//49 439//49
f 437//50 439//50 441//50
f 439//51 442//51 441//51
f 439//52 438//52 442//52
f 438//53 440//53 442//53
f 443//54 445//54 446//54
f 445//55 448//55 446//55
f 445//56 444//56 448//56
f 444//57 447//57 448//57
f 407//58 409//58 411//58
f 409//59 412//59 411//59
f 409//60 408//60 412//60
f 408//61 410//61 412//61
f 446//62 448//62 401//62
f 448//63 403//63 401//63
f 448//64 447//64 403//64
f 447//65 402//65 403//65
f 401//66 403//66 405//66
f 403//67 406//67 405//67
f 403//68 402//68 406//68
f 402//69 404//69 406//69
f 450//2 453//2 449//2
f 453//2 452//2 449//2
f 453//2 456//2 452//2
f 456//2 455//2 452//2
f 451//2 454//2 450//2
f 454//2 453//2 450//2
f 454//2 457//2 453//2
f 457//2 456//2 453//2
f 462//70 458//70 463//70
f 458//71 460//71 463//71
f 463//72 460//72 461//72
f 460//73 459//73 461//73
f 465//74 462//74 466//74
f 462//75 463//75 466//75
f 466//76 463//76 464//76
f 463//77 461//77 464//77
f 468//78 465//78 469//78
f 465//79 466//79 469//79
f 469//80 466//80 467//80
f 466//81 464//81 467//81
f 471//82 468//82 472//82
f 468//83 469//83 472//83
f 472//84 469//84 470//84
f 469//85 467//85 470//85
f 474//86 471//86 475//86
f 471//87 472//87 475//87
f 475//88 472//88 473//88
f 472//89 470//89 473//89
f 477//90 474//90 478//90
f 474//91 475//91 478//91
f 478//150 475//150 476//150
f 475//93 473//93 476//93
f 480//94 477//94 481//94
f 477//95 478//95 481//95
f 481//96 478//96 479//96
f 478//97 476//97 479//97
f 483//98 480//98 484//98
f 480//99 481//99 484//99
f 484//100 481//100 482//100
f 481//101 479//101 482//101
f 486//102 483//102 487//102
f 483//103 484//103 487//103
f 487//104 484//104 485//104
f 484//105 482//105 485//105
f 489//106 486//106 490//106
f 486//107 487//107 490//107
f 490//108 487//108 488//108
f 487//109 485//109 488//109
f 492//110 489//110 493//110
f 489//111 490//111 493//111
f 493//112 490//112 491//112
f 490//113 488//113 491//113
f 495//114 492//114 496//114
f 492//115 493//115 496//115
f 496//116 493//116 494//116
f 493//117 491//117 494//117
f 498//118 495//118 499//118
f 495//119 496//119 499//119
f 499//120 496//120 497//120
f 496//121 494//121 497//121
f 501//122 498//122 502//122
f 498//123 499//123 502//123
f 502//124 499//124 500//124
f 499//125 497//125 500//125
f 504//126 501//126 505//126
f 501//127 502//127 505//127
f 505//128 502//128 503//128
f 502//129 500//129 503//129
f 458//130 504//130 460//130
f 504//131 505//131 460//131
f 460//132 505//132 459//132
f 505//133 503//133 459//133
f 416//134 419//134 489//134
f 419//134 486//134 489//134
f 441//135 443//135 465//135
f 443//135 462//135 465//135
f 419//136 422//136 486//136
f 422//136 483//136 486//136
f 458//137 446//137 504//137
f 446//137 401//137 504//137
f 443//138 446//138 462//138
f 446//138 458//138 462//138
f 422//139 426//139 483//139
f 426//139 480//139 483//139
f 504//140 401//140 501//140
f 401//140 405//140 501//140
f 426//141 428//141 480//141
f 428//141 477//141 480//141
f 405//142 407//142 501//142
f 407//142 498//142 501//142
f 428//143 431//143 477//143
f 431//143 474//143 477//143
f 407//144 411//144 498//144
f 411//144 495//144 498//144
f 431//145 434//145 474//145
f 434//145 471//145 474//145
f 411//146 413//146 495//146
f 413//146 492//146 495//146
f 434//147 437//147 471//147
f 437//147 468//147 471//147
f 413//148 416//148 492//148
f 416//148 489//148 492//148
f 513//2 556//2 515//2
f 556//2 555//2 515//2
f 542//5 546//5 573//5
f 546//5 570//5 573//5
f 561//2 540//2 560//2
f 540//2 537//2 560//2
f 557//2 560//2 528//2
f 560//2 530//2 528//2
f 545//2 543//2 549//2
f 543//2 562//2 549//2
f 552//2 559//2 507//2
f 559//2 556//2 507//2
f 560//2 537//2 530//2
f 537//2 534//2 530//2
f 519//2 554//2 522//2
f 554//2 525//2 522//2
f 549//2 562//2 552//2
f 562//2 559//2 552//2
f 562//2 543//2 561//2
f 543//2 540//2 561//2
f 507//2 556//2 509//2
f 556//2 513//2 509//2
f 515//2 555//2 519//2
f 555//2 554//2 519//2
f 554//2 557//2 525//2
f 557//2 528//2 525//2
f 510//6 511//6 512//6
f 511//7 514//7 512//7
f 511//8 509//8 514//8
f 509//9 513//9 514//9
f 516//10 517//10 518//10
f 517//11 520//11 518//11
f 517//12 515//12 520//12
f 515//13 519//13 520//13
f 531//14 532//14 533//14
f 532//15 535//15 533//15
f 532//16 530//16 535//16
f 530//17 534//17 535//17
f 518//18 520//18 521//18
f 520//19 523//19 521//19
f 520//20 519//20 523//20
f 519//21 522//21 523//21
f 521//22 523//22 524//22
f 523//23 526//23 524//23
f 523//24 522//24 526//24
f 522//25 525//25 526//25
f 533//26 535//26 536//26
f 535//27 538//27 536//27
f 535//28 534//28 538//28
f 534//29 537//29 538//29
f 536//30 538//30 539//30
f 538//31 541//31 539//31
f 538//32 537//32 541//32
f 537//33 540//33 541//33
f 546//34 547//34 548//34
f 547//35 550//35 548//35
f 547//36 545//36 550//36
f 545//37 549//37 550//37
f 524//38 526//38 527//38
f 526//39 529//39 527//39
f 526//40 525//40 529//40
f 525//41 528//41 529//41
f 527//42 529//42 531//42
f 529//43 532//43 531//43
f 529//44 528//44 532//44
f 528//45 530//45 532//45
f 539//46 541//46 542//46
f 541//47 544//47 542//47
f 541//48 540//48 544//48
f 540//49 543//49 544//49
f 542//50 544//50 546//50
f 544//51 547//51 546//51
f 544//52 543//52 547//52
f 543//53 545//53 547//53
f 548//54 550//54 551//54
f 550//55 553//55 551//55
f 550//56 549//56 553//56
f 549//57 552//57 553//57
f 512//58 514//58 516//58
f 514//59 517//59 516//59
f 514//60 513//60 517//60
f 513//61 515//61 517//61
f 551//62 553//62 506//62
f 553//63 508//63 506//63
f 553//64 552//64 508//64
f 552//65 507//65 508//65
f 506//66 508//66 510//66
f 508//67 511//67 510//67
f 508//68 507//68 511//68
f 507//69 509//69 511//69
f 555//2 558//2 554//2
f 558//2 557//2 554//2
f 558//2 561//2 557//2
f 561//2 560//2 557//2
f 556//2 559//2 555//2
f 559//2 558//2 555//2
f 559//2 562//2 558//2
f 562//2 561//2 558//2
f 567//70 563//70 568//70
f 563//71 565//71 568//71
f 568//72 565//72 566//72
f 565//73 564//73 566//73
f 570//74 567//74 571//74
f 567//75 568//75 571//75
f 571//76 568//76 569//76
f 568//77 566//77 569//77
f 573//78 570//78 574//78
f 570//79 571//79 574//79
f 574//80 571//80 572//80
f 571//81 569//81 572//81
f 576//82 573//82 577//82
f 573//83 574//83 577//83
f 577//84 574//84 575//84
f 574//85 572//85 575//85
f 579//86 576//86 580//86
f 576//87 577//87 580//87
f 580//88 577//88 578//88
f 577//89 575//89 578//89
f 582//90 579//90 583//90
f 579//91 580//91 583//91
f 583//92 580//92 581//92
f 580//93 578//93 581//93
f 585//94 582//94 586//94
f 582//95 583//95 586//95
f 586//96 583//96 584//96
f 583//97 581//97 584//97
f 588//98 585//98 589//98
f 585//99 586//99 589//99
f 589//100 586//100 587//100
f 586//101 584//101 587//101
f 591//102 588//102 592//102
f 588//103 589//103 592//103
f 592//104 589//104 590//104
f 589//105 587//105 590//105
f 594//106 591//106 595//106
f 591//107 592//107 595//107
f 595//108 592//108 593//108
f 592//109 590//109 593//109
f 597//110 594//110 598//110
f 594//111 595//111 598//111
f 598//112 595//112 596//112
f 595//113 593//113 596//113
f 600//114 597//114 601//114
f 597//115 598//115 601//115
f 601//116 598//116 599//116
f 598//117 596//117 599//117
f 603//118 600//118 604//118
f 600//119 601//119 604//119
f 604//120 601//120 602//120
f 601//121 599//121 602//121
f 606//122 603//122 607//122
f 603//123 604//123 607//123
f 607//124 604//124 605//124
f 604//125 602//125 605//125
f 609//126 606//126 610//126
f 606//127 607//127 610//127
f 610//128 607//128 608//128
f 607//129 605//129 608//129
f 563//130 609//130 565//130
f 609//131 610//131 565//131
f 565//132 610//132 564//132
f 610//133 608//133 564//133
f 521//134 524//134 594//134
f 524//134 591//134 594//134
f 546//135 548//135 570//135
f 548//135 567//135 570//135
f 524//136 527//136 591//136
f 527//136 588//136 591//136
f 563//137 551//137 609//137
f 551//137 506//137 609//137
f 548//138 551//138 567//138
f 551//138 563//138 567//138
f 527//139 531//139 588//139
f 531//139 585//139 588//139
f 609//140 506//140 606//140
f 506//140 510//140 606//140
f 531//141 533//141 585//141
f 533//141 582//141 585//141
f 510//142 512//142 606//142
f 512//142 603//142 606//142
f 533//143 536//143 582//143
f 536//143 579//143 582//143
f 512//144 516//144 603//144
f 516//144 600//144 603//144
f 536//145 539//145 579//145
f 539//145 576//145 579//145
f 516//146 518//146 600//146
f 518//146 597//146 600//146
f 539//147 542//147 576//147
f 542//147 573//147 576//147
f 518//148 521//148 597//148
f 521//148 594//148 597//148
