# Blender 4.3.2
# www.blender.org
mtllib rightLeg.mtl
o Part.005
v 7.960000 0.020001 8.040000
v 7.960000 0.020001 15.960000
v -7.960000 0.020001 15.960000
v -7.960000 0.020001 8.040000
v -7.960000 9.580001 8.039999
v -7.960000 9.580001 15.959999
v 7.960000 9.580001 15.959999
v 7.960000 9.580001 8.039999
v -6.400000 0.020001 9.600000
v -6.400000 0.020001 14.400000
v 6.400000 0.020001 14.400000
v 6.400000 0.020001 9.600000
v 6.400000 8.500001 9.599999
v 6.400000 8.500001 14.399999
v -6.400000 8.500001 14.399999
v -6.400000 8.500001 9.599999
v 0.000000 2.000001 9.600000
v 0.000000 2.000001 10.400000
v 0.000000 2.000001 14.400000
v 0.000000 8.500001 13.599999
v 0.000000 2.000001 13.600000
v 0.400000 8.500001 10.478999
v 0.400000 8.500001 13.520999
v -0.400000 8.500001 13.520999
v -0.400000 8.500001 10.478999
v -0.400000 2.000001 10.479000
v -0.400000 2.000001 13.521000
v 0.400000 2.000001 13.521000
v 0.400000 2.000001 10.479000
v 0.000000 0.020001 10.400000
v 0.612000 0.020001 10.522000
v 1.131000 0.020001 10.869000
v 1.478000 0.020001 11.388000
v 1.600000 0.020001 12.000000
v 1.478000 0.020001 12.612000
v 1.131000 0.020001 13.131000
v 0.612000 0.020001 13.478000
v 0.000000 0.020001 13.600000
v -0.612000 0.020001 13.478000
v -1.131000 0.020001 13.131000
v -1.478000 0.020001 12.612000
v -1.600000 0.020001 12.000000
v -1.478000 0.020001 11.388000
v -1.131000 0.020001 10.869000
v -0.612000 0.020001 10.522000
v -0.612000 8.500001 10.521999
v -1.131000 8.500001 10.868999
v -1.478000 8.500001 11.387999
v -1.600000 8.500001 11.999999
v -1.478000 8.500001 12.612000
v -1.131000 8.500001 13.130999
v -0.612000 8.500001 13.477999
v 0.612000 8.500001 13.477999
v 1.131000 8.500001 13.130999
v 1.478000 8.500001 12.612000
v 1.600000 8.500001 11.999999
v 1.478000 8.500001 11.387999
v 1.131000 8.500001 10.868999
v 0.612000 8.500001 10.521999
v 0.000000 8.500001 10.399999
v 0.000000 0.020001 12.000000
v 0.400000 2.000001 9.600000
v 0.400000 2.000001 14.400000
v -0.400000 2.000001 14.400000
v -0.400000 2.000001 9.600000
v -0.400000 8.500001 9.599999
v -0.400000 8.500001 14.399999
v 0.400000 8.500001 14.399999
v 0.400000 8.500001 9.599999
v 7.960000 0.020001 15.960000
v 7.960000 0.020001 15.960000
v -7.960000 0.020001 15.960000
v -7.960000 0.020001 15.960000
v 7.960000 0.020001 8.040000
v 7.960000 0.020001 8.040000
v -7.960000 0.020001 8.040000
v -7.960000 0.020001 8.040000
v -7.960000 9.580001 8.039999
v -7.960000 9.580001 8.039999
v -7.960000 9.580001 15.959999
v -7.960000 9.580001 15.959999
v 7.960000 9.580001 8.039999
v 7.960000 9.580001 8.039999
v 7.960000 9.580001 15.959999
v 7.960000 9.580001 15.959999
v -6.400000 0.020001 9.600000
v -6.400000 0.020001 9.600000
v -6.400000 0.020001 14.400000
v -6.400000 0.020001 14.400000
v 6.400000 0.020001 9.600000
v 6.400000 0.020001 9.600000
v 6.400000 0.020001 14.400000
v 6.400000 0.020001 14.400000
v 6.400000 8.500001 14.399999
v 6.400000 8.500001 14.399999
v -6.400000 8.500001 14.399999
v -6.400000 8.500001 14.399999
v 6.400000 8.500001 9.599999
v 6.400000 8.500001 9.599999
v -6.400000 8.500001 9.599999
v -6.400000 8.500001 9.599999
v -0.400000 2.000001 14.400000
v -0.400000 2.000001 13.521000
v 0.400000 2.000001 9.600000
v 0.400000 2.000001 10.479000
v 0.000000 0.020001 10.400000
v 0.612000 0.020001 10.522000
v 1.131000 0.020001 10.869000
v 1.478000 0.020001 11.388000
v 1.600000 0.020001 12.000000
v 1.478000 0.020001 12.612000
v 1.131000 0.020001 13.131000
v 0.612000 0.020001 13.478000
v 0.000000 0.020001 13.600000
v -0.612000 0.020001 13.478000
v -1.131000 0.020001 13.131000
v -1.478000 0.020001 12.612000
v -1.600000 0.020001 12.000000
v -1.478000 0.020001 11.388000
v -1.131000 0.020001 10.869000
v -0.612000 0.020001 10.522000
v 0.400000 2.000001 13.521000
v 0.400000 2.000001 14.400000
v -0.400000 2.000001 10.479000
v -0.400000 2.000001 9.600000
v -3.082000 11.150001 9.782999
v -3.179000 11.400001 10.017999
v -3.110000 11.327001 9.851999
v -2.483000 11.400001 10.482999
v -2.303000 11.150001 10.302999
v -2.356000 11.327001 10.355999
v -1.783000 11.150001 11.081999
v -2.018000 11.400001 11.178999
v -1.852000 11.327001 11.109999
v -1.855000 11.400001 11.999999
v -1.600000 11.150001 11.999999
v -1.675000 11.327001 11.999999
v -1.783000 11.150001 12.917999
v -2.018000 11.400001 12.820999
v -1.852000 11.327001 12.889999
v -2.303000 11.150001 13.696999
v -2.483000 11.400001 13.516999
v -2.356000 11.327001 13.643999
v -3.082000 11.150001 14.216999
v -3.179000 11.400001 13.981999
v -3.110000 11.327001 14.147999
v -4.000000 11.150001 14.399999
v -4.000000 11.400001 14.145000
v -4.000000 11.327001 14.324999
v -4.821000 11.400001 13.981999
v -4.918000 11.150001 14.216999
v -4.890000 11.327001 14.147999
v -5.697000 11.150001 13.696999
v -5.517000 11.400001 13.516999
v -5.644000 11.327001 13.643999
v -6.217000 11.150001 12.917999
v -5.982000 11.400001 12.820999
v -6.148000 11.327001 12.889999
v -6.400000 11.150001 11.999999
v -6.145000 11.400001 11.999999
v -6.325000 11.327001 11.999999
v -6.217000 11.150001 11.081999
v -5.982000 11.400001 11.178999
v -6.148000 11.327001 11.109999
v -5.517000 11.400001 10.482999
v -5.697000 11.150001 10.302999
v -5.644000 11.327001 10.355999
v -4.918000 11.150001 9.782999
v -4.821000 11.400001 10.017999
v -4.890000 11.327001 9.851999
v -4.000000 11.150001 9.599999
v -4.000000 11.400001 9.854999
v -4.000000 11.327001 9.674999
v -2.937000 11.400001 13.013999
v -2.836000 11.400001 11.999999
v -2.937000 11.400001 10.985999
v -4.000000 11.400001 13.096999
v -4.000000 11.400001 11.999999
v -4.000000 11.400001 10.902999
v -5.063000 11.400001 13.013999
v -5.164000 11.400001 11.999999
v -5.063000 11.400001 10.985999
v -4.000000 9.730000 9.599999
v -4.000000 9.580001 9.446999
v -4.000000 9.624001 9.554999
v -4.977000 9.580001 9.640999
v -4.918000 9.730000 9.782999
v -4.936000 9.624001 9.740999
v -5.805000 9.580001 10.194999
v -5.697000 9.730000 10.302999
v -5.729000 9.624001 10.270999
v -6.359000 9.580001 11.022999
v -6.217000 9.730000 11.081999
v -6.259000 9.624001 11.063999
v -6.553000 9.580001 11.999999
v -6.400000 9.730000 11.999999
v -6.445000 9.624001 11.999999
v -6.359000 9.580001 12.976999
v -6.217000 9.730000 12.917999
v -6.259000 9.624001 12.935999
v -5.805000 9.580001 13.804999
v -5.697000 9.730000 13.696999
v -5.729000 9.624001 13.728999
v -4.977000 9.580001 14.358999
v -4.918000 9.730000 14.216999
v -4.936000 9.624001 14.258999
v -4.000000 9.580001 14.552999
v -4.000000 9.730000 14.399999
v -4.000000 9.624001 14.444999
v -3.023000 9.580001 14.358999
v -3.082000 9.730000 14.216999
v -3.064000 9.624001 14.258999
v -2.195000 9.580001 13.804999
v -2.303000 9.730000 13.696999
v -2.271000 9.624001 13.728999
v -1.641000 9.580001 12.976999
v -1.783000 9.730000 12.917999
v -1.741000 9.624001 12.935999
v -1.447000 9.580001 11.999999
v -1.600000 9.730000 11.999999
v -1.555000 9.624001 11.999999
v -1.641000 9.580001 11.022999
v -1.783000 9.730000 11.081999
v -1.741000 9.624001 11.063999
v -2.195000 9.580001 10.194999
v -2.303000 9.730000 10.302999
v -2.271000 9.624001 10.270999
v -3.023000 9.580001 9.640999
v -3.082000 9.730000 9.782999
v -3.064000 9.624001 9.740999
v 4.918000 11.150001 9.782999
v 4.821000 11.400001 10.017999
v 4.890000 11.327001 9.851999
v 5.517000 11.400001 10.482999
v 5.697000 11.150001 10.302999
v 5.644000 11.327001 10.355999
v 6.217000 11.150001 11.081999
v 5.982000 11.400001 11.178999
v 6.148000 11.327001 11.109999
v 6.145000 11.400001 11.999999
v 6.400000 11.150001 11.999999
v 6.325000 11.327001 11.999999
v 6.217000 11.150001 12.917999
v 5.982000 11.400001 12.820999
v 6.148000 11.327001 12.889999
v 5.697000 11.150001 13.696999
v 5.517000 11.400001 13.516999
v 5.644000 11.327001 13.643999
v 4.918000 11.150001 14.216999
v 4.821000 11.400001 13.981999
v 4.890000 11.327001 14.147999
v 4.000000 11.150001 14.399999
v 4.000000 11.400001 14.145000
v 4.000000 11.327001 14.324999
v 3.179000 11.400001 13.981999
v 3.082000 11.150001 14.216999
v 3.110000 11.327001 14.147999
v 2.303000 11.150001 13.696999
v 2.483000 11.400001 13.516999
v 2.356000 11.327001 13.643999
v 1.783000 11.150001 12.917999
v 2.018000 11.400001 12.820999
v 1.852000 11.327001 12.889999
v 1.600000 11.150001 11.999999
v 1.855000 11.400001 11.999999
v 1.675000 11.327001 11.999999
v 1.783000 11.150001 11.081999
v 2.018000 11.400001 11.178999
v 1.852000 11.327001 11.109999
v 2.483000 11.400001 10.482999
v 2.303000 11.150001 10.302999
v 2.356000 11.327001 10.355999
v 3.082000 11.150001 9.782999
v 3.179000 11.400001 10.017999
v 3.110000 11.327001 9.851999
v 4.000000 11.150001 9.599999
v 4.000000 11.400001 9.854999
v 4.000000 11.327001 9.674999
v 5.063000 11.400001 13.013999
v 5.164000 11.400001 11.999999
v 5.063000 11.400001 10.985999
v 4.000000 11.400001 13.096999
v 4.000000 11.400001 11.999999
v 4.000000 11.400001 10.902999
v 2.937000 11.400001 13.013999
v 2.836000 11.400001 11.999999
v 2.937000 11.400001 10.985999
v 4.000000 9.730000 9.599999
v 4.000000 9.580001 9.446999
v 4.000000 9.624001 9.554999
v 3.023000 9.580001 9.640999
v 3.082000 9.730000 9.782999
v 3.064000 9.624001 9.740999
v 2.195000 9.580001 10.194999
v 2.303000 9.730000 10.302999
v 2.271000 9.624001 10.270999
v 1.641000 9.580001 11.022999
v 1.783000 9.730000 11.081999
v 1.741000 9.624001 11.063999
v 1.447000 9.580001 11.999999
v 1.600000 9.730000 11.999999
v 1.555000 9.624001 11.999999
v 1.641000 9.580001 12.976999
v 1.783000 9.730000 12.917999
v 1.741000 9.624001 12.935999
v 2.195000 9.580001 13.804999
v 2.303000 9.730000 13.696999
v 2.271000 9.624001 13.728999
v 3.023000 9.580001 14.358999
v 3.082000 9.730000 14.216999
v 3.064000 9.624001 14.258999
v 4.000000 9.580001 14.552999
v 4.000000 9.730000 14.399999
v 4.000000 9.624001 14.444999
v 4.977000 9.580001 14.358999
v 4.918000 9.730000 14.216999
v 4.936000 9.624001 14.258999
v 5.805000 9.580001 13.804999
v 5.697000 9.730000 13.696999
v 5.729000 9.624001 13.728999
v 6.359000 9.580001 12.976999
v 6.217000 9.730000 12.917999
v 6.259000 9.624001 12.935999
v 6.553000 9.580001 11.999999
v 6.400000 9.730000 11.999999
v 6.445000 9.624001 11.999999
v 6.359000 9.580001 11.022999
v 6.217000 9.730000 11.081999
v 6.259000 9.624001 11.063999
v 5.805000 9.580001 10.194999
v 5.697000 9.730000 10.302999
v 5.729000 9.624001 10.270999
v 4.977000 9.580001 9.640999
v 4.918000 9.730000 9.782999
v 4.936000 9.624001 9.740999
vn -1.0000 -0.0000 -0.0000
vn -0.0000 -0.0000 1.0000
vn 1.0000 -0.0000 -0.0000
vn -0.0000 1.0000 -0.0000
vn -0.1955 -0.0000 -0.9807
vn -0.5558 -0.0000 -0.8313
vn -0.8313 -0.0000 -0.5558
vn -0.9807 -0.0000 -0.1955
vn -0.9807 -0.0000 0.1955
vn -0.8313 -0.0000 0.5558
vn -0.5558 -0.0000 0.8313
vn -0.1955 -0.0000 0.9807
vn 0.1955 -0.0000 0.9807
vn 0.5558 -0.0000 0.8313
vn 0.8313 -0.0000 0.5558
vn 0.9807 -0.0000 0.1955
vn 0.9807 -0.0000 -0.1955
vn 0.8313 -0.0000 -0.5558
vn 0.5558 -0.0000 -0.8313
vn 0.1955 -0.0000 -0.9807
vn -0.8317 -0.0000 -0.5552
vn 0.7681 0.3835 -0.5127
vn 0.7687 0.3809 -0.5138
vn 0.3183 0.9238 -0.2127
vn 0.3180 0.9240 -0.2125
vn 0.9056 0.3837 0.1805
vn 0.9065 0.3819 0.1803
vn 0.3748 0.9241 0.0745
vn 0.3753 0.9239 0.0745
vn -0.5133 0.3810 0.7690
vn -0.5132 0.3836 0.7678
vn -0.2125 0.9240 0.3180
vn -0.2127 0.9238 0.3183
vn 0.7690 0.3810 0.5133
vn 0.7678 0.3836 0.5132
vn 0.3180 0.9240 0.2125
vn 0.3183 0.9238 0.2127
vn 0.5127 0.3835 0.7681
vn 0.5138 0.3809 0.7687
vn 0.2127 0.9238 0.3183
vn 0.2125 0.9240 0.3180
vn -0.7681 0.3835 0.5127
vn -0.7687 0.3809 0.5138
vn -0.3183 0.9238 0.2127
vn -0.3180 0.9240 0.2125
vn -0.9064 0.3819 0.1807
vn -0.9057 0.3838 0.1801
vn -0.3753 0.9239 0.0746
vn -0.3748 0.9241 0.0744
vn -0.5127 0.3835 -0.7681
vn -0.5138 0.3809 -0.7687
vn -0.2127 0.9238 -0.3183
vn -0.2125 0.9240 -0.3180
vn 0.1807 0.3819 0.9064
vn 0.1801 0.3838 0.9057
vn 0.0746 0.9239 0.3753
vn 0.0744 0.9241 0.3748
vn -0.1805 0.3837 0.9056
vn -0.1803 0.3819 0.9065
vn -0.0745 0.9241 0.3748
vn -0.0745 0.9239 0.3753
vn -0.9056 0.3837 -0.1805
vn -0.9065 0.3819 -0.1803
vn -0.3748 0.9241 -0.0745
vn -0.3753 0.9239 -0.0745
vn -0.7690 0.3810 -0.5133
vn -0.7678 0.3836 -0.5132
vn -0.3180 0.9240 -0.2125
vn -0.3183 0.9238 -0.2127
vn -0.1807 0.3819 -0.9064
vn -0.1801 0.3838 -0.9057
vn -0.0746 0.9239 -0.3753
vn -0.0744 0.9241 -0.3748
vn 0.9064 0.3819 -0.1807
vn 0.9057 0.3838 -0.1801
vn 0.3753 0.9239 -0.0746
vn 0.3748 0.9241 -0.0744
vn 0.1805 0.3837 -0.9056
vn 0.1803 0.3819 -0.9065
vn 0.0745 0.9241 -0.3748
vn 0.0745 0.9239 -0.3753
vn 0.5133 0.3810 -0.7690
vn 0.5132 0.3836 -0.7678
vn 0.2125 0.9240 -0.3180
vn 0.2127 0.9238 -0.3183
vn -0.1801 0.3886 -0.9036
vn -0.1799 0.3844 -0.9055
vn -0.0747 0.9237 -0.3758
vn -0.0747 0.9235 -0.3762
vn -0.5121 0.3862 -0.7672
vn -0.5116 0.3902 -0.7655
vn -0.2140 0.9228 -0.3203
vn -0.2133 0.9235 -0.3189
vn -0.7658 0.3902 -0.5112
vn -0.7669 0.3863 -0.5126
vn -0.3189 0.9235 -0.2132
vn -0.3201 0.9229 -0.2142
vn -0.9054 0.3844 -0.1805
vn -0.9037 0.3886 -0.1796
vn -0.3762 0.9235 -0.0748
vn -0.3758 0.9237 -0.0746
vn -0.9036 0.3886 0.1801
vn -0.9055 0.3844 0.1799
vn -0.3758 0.9237 0.0747
vn -0.3762 0.9235 0.0747
vn -0.7672 0.3862 0.5121
vn -0.7655 0.3902 0.5116
vn -0.3202 0.9228 0.2140
vn -0.3189 0.9235 0.2133
vn -0.5112 0.3902 0.7658
vn -0.5125 0.3862 0.7669
vn -0.2132 0.9235 0.3189
vn -0.2142 0.9229 0.3201
vn -0.1805 0.3844 0.9054
vn -0.1796 0.3886 0.9037
vn -0.0748 0.9235 0.3762
vn -0.0746 0.9237 0.3758
vn 0.1801 0.3886 0.9036
vn 0.1799 0.3844 0.9055
vn 0.0747 0.9237 0.3758
vn 0.0747 0.9235 0.3762
vn 0.5121 0.3862 0.7672
vn 0.5116 0.3902 0.7655
vn 0.2140 0.9228 0.3203
vn 0.2133 0.9235 0.3189
vn 0.7658 0.3902 0.5112
vn 0.7669 0.3862 0.5125
vn 0.3189 0.9235 0.2132
vn 0.3201 0.9229 0.2142
vn 0.9054 0.3844 0.1805
vn 0.9037 0.3886 0.1796
vn 0.3762 0.9235 0.0748
vn 0.3758 0.9237 0.0746
vn 0.9036 0.3886 -0.1801
vn 0.9055 0.3844 -0.1799
vn 0.3758 0.9237 -0.0747
vn 0.3762 0.9235 -0.0747
vn 0.7672 0.3862 -0.5121
vn 0.7655 0.3902 -0.5116
vn 0.3202 0.9228 -0.2140
vn 0.3189 0.9235 -0.2133
vn 0.5112 0.3902 -0.7658
vn 0.5125 0.3862 -0.7669
vn 0.2132 0.9235 -0.3189
vn 0.2142 0.9229 -0.3201
vn 0.1805 0.3844 -0.9054
vn 0.1796 0.3886 -0.9037
vn 0.0748 0.9235 -0.3762
vn 0.0746 0.9237 -0.3758
vn 0.5552 -0.0000 0.8317
vn -0.5552 -0.0000 -0.8317
vn 0.5552 -0.0000 -0.8317
vn -0.5552 -0.0000 0.8317
vn 0.8317 -0.0000 -0.5552
vn -0.8317 -0.0000 0.5552
vn 0.8317 -0.0000 0.5552
vn -0.7669 0.3862 -0.5125
vn 0.7669 0.3863 0.5126
s 0
usemtl MB_199
f 73//1 80//1 77//1
f 80//1 78//1 77//1
f 82//2 79//2 75//2
f 75//2 79//2 76//2
f 74//3 83//3 71//3
f 83//3 84//3 71//3
f 70//2 85//2 72//2
f 85//2 81//2 72//2
f 6//4 7//4 5//4
f 7//4 8//4 5//4
f 4//4 3//4 86//4
f 86//4 3//4 88//4
f 1//4 4//4 90//4
f 90//4 4//4 86//4
f 90//4 92//4 1//4
f 1//4 92//4 2//4
f 3//4 2//4 88//4
f 88//4 2//4 92//4
f 89//2 93//2 96//2
f 96//2 93//2 94//2
f 11//3 91//3 95//3
f 95//3 91//3 98//3
f 12//2 99//2 87//2
f 99//2 100//2 87//2
f 9//1 10//1 101//1
f 101//1 10//1 97//1
f 13//4 16//4 14//4
f 14//4 16//4 15//4
f 124//4 18//4 125//4
f 125//4 18//4 17//4
f 19//4 123//4 21//4
f 21//4 123//4 122//4
f 102//4 19//4 27//4
f 27//4 19//4 21//4
f 64//1 67//1 103//1
f 67//1 24//1 103//1
f 62//3 69//3 29//3
f 69//3 22//3 29//3
f 106//5 121//5 60//5
f 121//5 46//5 60//5
f 121//6 120//6 46//6
f 120//6 47//6 46//6
f 120//7 119//7 47//7
f 119//7 48//7 47//7
f 119//8 118//8 48//8
f 118//8 49//8 48//8
f 118//9 117//9 49//9
f 117//9 50//9 49//9
f 117//10 116//10 50//10
f 116//10 51//10 50//10
f 116//11 115//11 51//11
f 115//11 52//11 51//11
f 115//12 114//12 52//12
f 114//12 20//12 52//12
f 114//13 113//13 20//13
f 113//13 53//13 20//13
f 113//14 112//14 53//14
f 112//14 54//14 53//14
f 112//15 111//15 54//15
f 111//15 55//15 54//15
f 111//16 110//16 55//16
f 110//16 56//16 55//16
f 110//17 109//17 56//17
f 109//17 57//17 56//17
f 109//18 108//18 57//18
f 108//18 58//18 57//18
f 108//19 107//19 58//19
f 107//19 59//19 58//19
f 107//20 106//20 59//20
f 106//20 60//20 59//20
f 45//4 61//4 30//4
f 44//4 61//4 45//4
f 43//4 61//4 44//4
f 42//4 61//4 43//4
f 41//4 61//4 42//4
f 40//4 61//4 41//4
f 39//4 61//4 40//4
f 38//4 61//4 39//4
f 37//4 61//4 38//4
f 36//4 61//4 37//4
f 35//4 61//4 36//4
f 34//4 61//4 35//4
f 33//4 61//4 34//4
f 32//4 61//4 33//4
f 31//4 61//4 32//4
f 30//4 61//4 31//4
f 18//4 105//4 17//4
f 17//4 105//4 104//4
f 26//1 25//1 65//1
f 25//1 66//1 65//1
f 28//3 23//3 63//3
f 23//3 68//3 63//3
f 133//4 176//4 135//4
f 176//4 175//4 135//4
f 162//21 166//21 193//21
f 166//21 190//21 193//21
f 181//4 160//4 180//4
f 160//4 157//4 180//4
f 177//4 180//4 148//4
f 180//4 150//4 148//4
f 165//4 163//4 169//4
f 163//4 182//4 169//4
f 172//4 179//4 127//4
f 179//4 176//4 127//4
f 180//4 157//4 150//4
f 157//4 154//4 150//4
f 139//4 174//4 142//4
f 174//4 145//4 142//4
f 169//4 182//4 172//4
f 182//4 179//4 172//4
f 182//4 163//4 181//4
f 163//4 160//4 181//4
f 127//4 176//4 129//4
f 176//4 133//4 129//4
f 135//4 175//4 139//4
f 175//4 174//4 139//4
f 174//4 177//4 145//4
f 177//4 148//4 145//4
f 130//22 131//22 132//22
f 131//23 134//23 132//23
f 131//24 129//24 134//24
f 129//25 133//25 134//25
f 136//26 137//26 138//26
f 137//27 140//27 138//27
f 137//28 135//28 140//28
f 135//29 139//29 140//29
f 151//30 152//30 153//30
f 152//31 155//31 153//31
f 152//32 150//32 155//32
f 150//33 154//33 155//33
f 138//34 140//34 141//34
f 140//35 143//35 141//35
f 140//36 139//36 143//36
f 139//37 142//37 143//37
f 141//38 143//38 144//38
f 143//39 146//39 144//39
f 143//40 142//40 146//40
f 142//41 145//41 146//41
f 153//42 155//42 156//42
f 155//43 158//43 156//43
f 155//44 154//44 158//44
f 154//45 157//45 158//45
f 156//46 158//46 159//46
f 158//47 161//47 159//47
f 158//48 157//48 161//48
f 157//49 160//49 161//49
f 166//50 167//50 168//50
f 167//51 170//51 168//51
f 167//52 165//52 170//52
f 165//53 169//53 170//53
f 144//54 146//54 147//54
f 146//55 149//55 147//55
f 146//56 145//56 149//56
f 145//57 148//57 149//57
f 147//58 149//58 151//58
f 149//59 152//59 151//59
f 149//60 148//60 152//60
f 148//61 150//61 152//61
f 159//62 161//62 162//62
f 161//63 164//63 162//63
f 161//64 160//64 164//64
f 160//65 163//65 164//65
f 162//66 164//66 166//66
f 164//67 167//67 166//67
f 164//68 163//68 167//68
f 163//69 165//69 167//69
f 168//70 170//70 171//70
f 170//71 173//71 171//71
f 170//72 169//72 173//72
f 169//73 172//73 173//73
f 132//74 134//74 136//74
f 134//75 137//75 136//75
f 134//76 133//76 137//76
f 133//77 135//77 137//77
f 171//78 173//78 126//78
f 173//79 128//79 126//79
f 173//80 172//80 128//80
f 172//81 127//81 128//81
f 126//82 128//82 130//82
f 128//83 131//83 130//83
f 128//84 127//84 131//84
f 127//85 129//85 131//85
f 175//4 178//4 174//4
f 178//4 177//4 174//4
f 178//4 181//4 177//4
f 181//4 180//4 177//4
f 176//4 179//4 175//4
f 179//4 178//4 175//4
f 179//4 182//4 178//4
f 182//4 181//4 178//4
f 187//86 183//86 188//86
f 183//87 185//87 188//87
f 188//88 185//88 186//88
f 185//89 184//89 186//89
f 190//90 187//90 191//90
f 187//91 188//91 191//91
f 191//92 188//92 189//92
f 188//93 186//93 189//93
f 193//94 190//94 194//94
f 190//95 191//95 194//95
f 194//96 191//96 192//96
f 191//97 189//97 192//97
f 196//98 193//98 197//98
f 193//99 194//99 197//99
f 197//100 194//100 195//100
f 194//101 192//101 195//101
f 199//102 196//102 200//102
f 196//103 197//103 200//103
f 200//104 197//104 198//104
f 197//105 195//105 198//105
f 202//106 199//106 203//106
f 199//107 200//107 203//107
f 203//108 200//108 201//108
f 200//109 198//109 201//109
f 205//110 202//110 206//110
f 202//111 203//111 206//111
f 206//112 203//112 204//112
f 203//113 201//113 204//113
f 208//114 205//114 209//114
f 205//115 206//115 209//115
f 209//116 206//116 207//116
f 206//117 204//117 207//117
f 211//118 208//118 212//118
f 208//119 209//119 212//119
f 212//120 209//120 210//120
f 209//121 207//121 210//121
f 214//122 211//122 215//122
f 211//123 212//123 215//123
f 215//124 212//124 213//124
f 212//125 210//125 213//125
f 217//126 214//126 218//126
f 214//127 215//127 218//127
f 218//128 215//128 216//128
f 215//129 213//129 216//129
f 220//130 217//130 221//130
f 217//131 218//131 221//131
f 221//132 218//132 219//132
f 218//133 216//133 219//133
f 223//134 220//134 224//134
f 220//135 221//135 224//135
f 224//136 221//136 222//136
f 221//137 219//137 222//137
f 226//138 223//138 227//138
f 223//139 224//139 227//139
f 227//140 224//140 225//140
f 224//141 222//141 225//141
f 229//142 226//142 230//142
f 226//143 227//143 230//143
f 230//144 227//144 228//144
f 227//145 225//145 228//145
f 183//146 229//146 185//146
f 229//147 230//147 185//147
f 185//148 230//148 184//148
f 230//149 228//149 184//149
f 141//150 144//150 214//150
f 144//150 211//150 214//150
f 166//151 168//151 190//151
f 168//151 187//151 190//151
f 144//13 147//13 211//13
f 147//13 208//13 211//13
f 183//20 171//20 229//20
f 171//20 126//20 229//20
f 168//5 171//5 187//5
f 171//5 183//5 187//5
f 147//12 151//12 208//12
f 151//12 205//12 208//12
f 229//152 126//152 226//152
f 126//152 130//152 226//152
f 151//153 153//153 205//153
f 153//153 202//153 205//153
f 130//154 132//154 226//154
f 132//154 223//154 226//154
f 153//155 156//155 202//155
f 156//155 199//155 202//155
f 132//17 136//17 223//17
f 136//17 220//17 223//17
f 156//9 159//9 199//9
f 159//9 196//9 199//9
f 136//16 138//16 220//16
f 138//16 217//16 220//16
f 159//8 162//8 196//8
f 162//8 193//8 196//8
f 138//156 141//156 217//156
f 141//156 214//156 217//156
f 238//4 281//4 240//4
f 281//4 280//4 240//4
f 267//21 271//21 298//21
f 271//21 295//21 298//21
f 286//4 265//4 285//4
f 265//4 262//4 285//4
f 282//4 285//4 253//4
f 285//4 255//4 253//4
f 270//4 268//4 274//4
f 268//4 287//4 274//4
f 277//4 284//4 232//4
f 284//4 281//4 232//4
f 285//4 262//4 255//4
f 262//4 259//4 255//4
f 244//4 279//4 247//4
f 279//4 250//4 247//4
f 274//4 287//4 277//4
f 287//4 284//4 277//4
f 287//4 268//4 286//4
f 268//4 265//4 286//4
f 232//4 281//4 234//4
f 281//4 238//4 234//4
f 240//4 280//4 244//4
f 280//4 279//4 244//4
f 279//4 282//4 250//4
f 282//4 253//4 250//4
f 235//22 236//22 237//22
f 236//23 239//23 237//23
f 236//24 234//24 239//24
f 234//25 238//25 239//25
f 241//26 242//26 243//26
f 242//27 245//27 243//27
f 242//28 240//28 245//28
f 240//29 244//29 245//29
f 256//30 257//30 258//30
f 257//31 260//31 258//31
f 257//32 255//32 260//32
f 255//33 259//33 260//33
f 243//34 245//34 246//34
f 245//35 248//35 246//35
f 245//36 244//36 248//36
f 244//37 247//37 248//37
f 246//38 248//38 249//38
f 248//39 251//39 249//39
f 248//40 247//40 251//40
f 247//41 250//41 251//41
f 258//42 260//42 261//42
f 260//43 263//43 261//43
f 260//44 259//44 263//44
f 259//45 262//45 263//45
f 261//46 263//46 264//46
f 263//47 266//47 264//47
f 263//48 262//48 266//48
f 262//49 265//49 266//49
f 271//50 272//50 273//50
f 272//51 275//51 273//51
f 272//52 270//52 275//52
f 270//53 274//53 275//53
f 249//54 251//54 252//54
f 251//55 254//55 252//55
f 251//56 250//56 254//56
f 250//57 253//57 254//57
f 252//58 254//58 256//58
f 254//59 257//59 256//59
f 254//60 253//60 257//60
f 253//61 255//61 257//61
f 264//62 266//62 267//62
f 266//63 269//63 267//63
f 266//64 265//64 269//64
f 265//65 268//65 269//65
f 267//66 269//66 271//66
f 269//67 272//67 271//67
f 269//68 268//68 272//68
f 268//69 270//69 272//69
f 273//70 275//70 276//70
f 275//71 278//71 276//71
f 275//72 274//72 278//72
f 274//73 277//73 278//73
f 237//74 239//74 241//74
f 239//75 242//75 241//75
f 239//76 238//76 242//76
f 238//77 240//77 242//77
f 276//78 278//78 231//78
f 278//79 233//79 231//79
f 278//80 277//80 233//80
f 277//81 232//81 233//81
f 231//82 233//82 235//82
f 233//83 236//83 235//83
f 233//84 232//84 236//84
f 232//85 234//85 236//85
f 280//4 283//4 279//4
f 283//4 282//4 279//4
f 283//4 286//4 282//4
f 286//4 285//4 282//4
f 281//4 284//4 280//4
f 284//4 283//4 280//4
f 284//4 287//4 283//4
f 287//4 286//4 283//4
f 292//86 288//86 293//86
f 288//87 290//87 293//87
f 293//88 290//88 291//88
f 290//89 289//89 291//89
f 295//90 292//90 296//90
f 292//91 293//91 296//91
f 296//92 293//92 294//92
f 293//93 291//93 294//93
f 298//94 295//94 299//94
f 295//157 296//157 299//157
f 299//96 296//96 297//96
f 296//97 294//97 297//97
f 301//98 298//98 302//98
f 298//99 299//99 302//99
f 302//100 299//100 300//100
f 299//101 297//101 300//101
f 304//102 301//102 305//102
f 301//103 302//103 305//103
f 305//104 302//104 303//104
f 302//105 300//105 303//105
f 307//106 304//106 308//106
f 304//107 305//107 308//107
f 308//108 305//108 306//108
f 305//109 303//109 306//109
f 310//110 307//110 311//110
f 307//111 308//111 311//111
f 311//112 308//112 309//112
f 308//113 306//113 309//113
f 313//114 310//114 314//114
f 310//115 311//115 314//115
f 314//116 311//116 312//116
f 311//117 309//117 312//117
f 316//118 313//118 317//118
f 313//119 314//119 317//119
f 317//120 314//120 315//120
f 314//121 312//121 315//121
f 319//122 316//122 320//122
f 316//123 317//123 320//123
f 320//124 317//124 318//124
f 317//125 315//125 318//125
f 322//126 319//126 323//126
f 319//158 320//158 323//158
f 323//128 320//128 321//128
f 320//129 318//129 321//129
f 325//130 322//130 326//130
f 322//131 323//131 326//131
f 326//132 323//132 324//132
f 323//133 321//133 324//133
f 328//134 325//134 329//134
f 325//135 326//135 329//135
f 329//136 326//136 327//136
f 326//137 324//137 327//137
f 331//138 328//138 332//138
f 328//139 329//139 332//139
f 332//140 329//140 330//140
f 329//141 327//141 330//141
f 334//142 331//142 335//142
f 331//143 332//143 335//143
f 335//144 332//144 333//144
f 332//145 330//145 333//145
f 288//146 334//146 290//146
f 334//147 335//147 290//147
f 290//148 335//148 289//148
f 335//149 333//149 289//149
f 246//150 249//150 319//150
f 249//150 316//150 319//150
f 271//151 273//151 295//151
f 273//151 292//151 295//151
f 249//13 252//13 316//13
f 252//13 313//13 316//13
f 288//20 276//20 334//20
f 276//20 231//20 334//20
f 273//5 276//5 292//5
f 276//5 288//5 292//5
f 252//12 256//12 313//12
f 256//12 310//12 313//12
f 334//152 231//152 331//152
f 231//152 235//152 331//152
f 256//153 258//153 310//153
f 258//153 307//153 310//153
f 235//154 237//154 331//154
f 237//154 328//154 331//154
f 258//155 261//155 307//155
f 261//155 304//155 307//155
f 237//17 241//17 328//17
f 241//17 325//17 328//17
f 261//9 264//9 304//9
f 264//9 301//9 304//9
f 241//16 243//16 325//16
f 243//16 322//16 325//16
f 264//8 267//8 301//8
f 267//8 298//8 301//8
f 243//156 246//156 322//156
f 246//156 319//156 322//156
