# Blender 4.3.2
# www.blender.org
mtllib seat.mtl
o Part.007
v 8.040000 9.579999 -7.960001
v 10.956000 11.700000 -1.225001
v 10.217000 11.700000 -0.918001
v 9.697000 11.700000 -1.697001
v 8.000000 6.420000 -2.400001
v 7.082000 6.420000 -2.217000
v 6.303000 6.420000 -1.697001
v 5.783000 6.420000 -0.918000
v 10.217000 6.420000 -0.918000
v 9.697000 6.420000 -1.697001
v 8.918000 6.420000 -2.217000
v 8.000000 8.500000 -3.200001
v 9.225000 6.420000 -2.956001
v 10.263000 6.420000 -2.263000
v 10.956000 6.420000 -1.225001
v 5.044000 8.500000 -1.225001
v 5.044000 6.420000 -1.225001
v 5.737000 8.500000 -2.263001
v 5.737000 6.420000 -2.263000
v 6.775000 8.500000 -2.956001
v 6.775000 6.420000 -2.956001
v 0.040000 9.579999 -7.960001
v 14.400000 6.420000 -6.400001
v 15.960000 6.420000 -7.960001
v 0.040000 6.420000 -7.960001
v 15.960000 12.779999 -7.960001
v 14.400000 11.699999 -6.400001
v 9.500000 11.699999 -6.400001
v 8.040000 12.779999 -7.960001
v 1.600000 6.420000 -6.400001
v 1.600000 8.499999 -6.400001
v 11.200000 11.700000 -0.000001
v 10.400000 11.700000 -0.000001
v 5.600000 6.420000 -0.000000
v 10.400000 6.420000 -0.000000
v 11.200000 6.420000 -0.000000
v 4.800000 8.500000 -0.000001
v 4.800000 6.420000 -0.000000
v 0.040000 6.420000 -0.000000
v 14.400000 11.700000 -0.000001
v 15.960000 12.780000 -0.000001
v 8.040000 12.780000 -0.000001
v 14.400000 6.420000 -0.000000
v 8.040000 9.580000 -0.000001
v 0.040000 9.580000 -0.000001
v 15.960000 6.420000 -0.000000
v 1.600000 6.420000 -0.000000
v 1.600000 8.500000 -0.000001
v 17.549999 12.617000 -4.918001
v 17.799999 12.382000 -4.821001
v 17.726999 12.548000 -4.890001
v 17.799999 11.917000 -5.517001
v 17.549999 12.097000 -5.697001
v 17.726999 12.044000 -5.644001
v 17.549999 11.318000 -6.217001
v 17.799999 11.221000 -5.982001
v 17.726999 11.290000 -6.148001
v 17.799999 10.400000 -6.145001
v 17.549999 10.399999 -6.400001
v 17.726999 10.399999 -6.325001
v 17.549999 9.482000 -6.217001
v 17.799999 9.579000 -5.982001
v 17.726999 9.510000 -6.148001
v 17.549999 8.703000 -5.697001
v 17.799999 8.883000 -5.517001
v 17.726999 8.756000 -5.644001
v 17.549999 8.183000 -4.918001
v 17.799999 8.418000 -4.821001
v 17.726999 8.252000 -4.890000
v 17.549999 8.000000 -4.000000
v 17.799999 8.255000 -4.000000
v 17.726999 8.075000 -4.000000
v 17.799999 8.418000 -3.179001
v 17.549999 8.183000 -3.082001
v 17.726999 8.252000 -3.110001
v 17.549999 8.703000 -2.303001
v 17.799999 8.883000 -2.483001
v 17.726999 8.756000 -2.356001
v 17.549999 9.482000 -1.783001
v 17.799999 9.579000 -2.018001
v 17.726999 9.510000 -1.852001
v 17.549999 10.400000 -1.600001
v 17.799999 10.400000 -1.855001
v 17.726999 10.400000 -1.675001
v 17.549999 11.318000 -1.783001
v 17.799999 11.221000 -2.018001
v 17.726999 11.290000 -1.852001
v 17.799999 11.917000 -2.483001
v 17.549999 12.097000 -2.303001
v 17.726999 12.044000 -2.356001
v 17.549999 12.617000 -3.082001
v 17.799999 12.382000 -3.179001
v 17.726999 12.548000 -3.110001
v 17.549999 12.780000 -4.000001
v 17.799999 12.545000 -4.000001
v 17.726999 12.725000 -4.000001
v 15.960000 12.780000 -4.000001
v 15.960000 12.617000 -3.082001
v 15.960000 12.097000 -2.303001
v 15.960000 11.318000 -1.783001
v 15.960000 10.400000 -1.600001
v 15.960000 9.482000 -1.783001
v 15.960000 8.703000 -2.303001
v 15.960000 8.183000 -3.082001
v 15.960000 8.000000 -4.000000
v 15.960000 8.183000 -4.918001
v 15.960000 8.703000 -5.697001
v 15.960000 9.482000 -6.217001
v 15.960000 10.399999 -6.400001
v 15.960000 11.318000 -6.217001
v 15.960000 12.097000 -5.697001
v 15.960000 12.617000 -4.918001
v 15.960000 12.000000 -4.000001
v 15.960000 11.878000 -3.388001
v 15.960000 11.531000 -2.869001
v 15.960000 11.012000 -2.522001
v 15.960000 10.400000 -2.400001
v 15.960000 9.788000 -2.522001
v 15.960000 9.269000 -2.869001
v 15.960000 8.922000 -3.388001
v 15.960000 8.800000 -4.000000
v 15.960000 8.922000 -4.612000
v 15.960000 9.269000 -5.131001
v 15.960000 9.788000 -5.478001
v 15.960000 10.400000 -5.600001
v 15.960000 11.012000 -5.478001
v 15.960000 11.531000 -5.131001
v 15.960000 11.878000 -4.612001
v 17.600000 12.000000 -4.000001
v 17.799999 12.204000 -4.000001
v 17.740999 12.060000 -4.000001
v 17.799999 12.067000 -3.310001
v 17.600000 11.878000 -3.388001
v 17.740999 11.933000 -3.365001
v 17.799999 11.676000 -2.724001
v 17.600000 11.531000 -2.869001
v 17.740999 11.574000 -2.826001
v 17.799999 11.090000 -2.333001
v 17.600000 11.012000 -2.522001
v 17.740999 11.035000 -2.467001
v 17.799999 10.400000 -2.196001
v 17.600000 10.400000 -2.400001
v 17.740999 10.400000 -2.340001
v 17.799999 9.710000 -2.333001
v 17.600000 9.788000 -2.522001
v 17.740999 9.765000 -2.467001
v 17.799999 9.124000 -2.724001
v 17.600000 9.269000 -2.869001
v 17.740999 9.226000 -2.826001
v 17.799999 8.733000 -3.310001
v 17.600000 8.922000 -3.388001
v 17.740999 8.867000 -3.365001
v 17.799999 8.596000 -4.000000
v 17.600000 8.800000 -4.000000
v 17.740999 8.740000 -4.000000
v 17.799999 8.733000 -4.690001
v 17.600000 8.922000 -4.612000
v 17.740999 8.867000 -4.635001
v 17.799999 9.124000 -5.276000
v 17.600000 9.269000 -5.131001
v 17.740999 9.226000 -5.174000
v 17.799999 9.710000 -5.667001
v 17.600000 9.788000 -5.478001
v 17.740999 9.765000 -5.533001
v 17.799999 10.400000 -5.804001
v 17.600000 10.400000 -5.600001
v 17.740999 10.400000 -5.660001
v 17.799999 11.090000 -5.667001
v 17.600000 11.012000 -5.478001
v 17.740999 11.035000 -5.533001
v 17.799999 11.676000 -5.276001
v 17.600000 11.531000 -5.131001
v 17.740999 11.574000 -5.174001
v 17.799999 12.067000 -4.690001
v 17.600000 11.878000 -4.612001
v 17.740999 11.933000 -4.635001
v 9.500000 9.099999 -6.400001
v 8.900000 8.499999 -6.400001
v 9.420000 8.799999 -6.400001
v 9.200000 8.579999 -6.400001
v 10.263000 11.700000 -2.263001
v 9.500000 11.700000 -2.772001
v 9.500000 9.100000 -2.772001
v 9.420000 8.800000 -2.826001
v 9.200000 8.580000 -2.961001
v 8.900000 8.500000 -3.021001
v 8.000000 6.420000 -3.200001
v 9.200000 11.700000 -0.000001
v 9.200000 11.700000 -2.029001
v 9.200000 9.600000 -0.000001
v 8.000000 8.500000 -0.000001
v 9.053000 9.050000 -0.000001
v 8.650000 8.647000 -0.000001
v 5.783000 8.500000 -0.918001
v 7.082000 8.500000 -2.217001
v 8.000000 8.500000 -2.400001
v 8.650000 8.647000 -2.271001
v 6.303000 8.500000 -1.697001
v 9.053000 9.050000 -2.128001
v 9.200000 9.600000 -2.029001
v 5.600000 8.500000 -0.000001
v 7.082000 8.500000 -0.000001
v 6.303000 8.500000 -0.000001
v 9.697000 11.700000 -0.000001
v 8.040000 9.580001 7.959999
v 10.956000 11.700000 1.224999
v 10.217000 11.700000 0.917999
v 9.697000 11.700000 1.696999
v 8.000000 6.420000 2.400000
v 7.082000 6.420000 2.217000
v 6.303000 6.420000 1.697000
v 5.783000 6.420000 0.918000
v 10.217000 6.420000 0.918000
v 9.697000 6.420000 1.697000
v 8.918000 6.420000 2.217000
v 8.000000 8.500000 3.199999
v 9.225000 6.420000 2.956000
v 10.263000 6.420000 2.263000
v 10.956000 6.420000 1.225000
v 5.044000 8.500000 1.224999
v 5.044000 6.420000 1.225000
v 5.737000 8.500000 2.262999
v 5.737000 6.420000 2.263000
v 6.775000 8.500000 2.955999
v 6.775000 6.420000 2.956000
v 0.040000 9.580001 7.959999
v 14.400000 6.420001 6.400000
v 15.960000 6.420001 7.960000
v 0.040000 6.420001 7.960000
v 15.960000 12.780001 7.959999
v 14.400000 11.700001 6.399999
v 9.500000 11.700001 6.399999
v 8.040000 12.780001 7.959999
v 1.600000 6.420001 6.400000
v 1.600000 8.500001 6.400000
v 17.549999 12.617000 4.917999
v 17.799999 12.382000 4.820999
v 17.726999 12.548000 4.889999
v 17.799999 11.917000 5.516999
v 17.549999 12.097000 5.696999
v 17.726999 12.044000 5.643999
v 17.549999 11.318000 6.216999
v 17.799999 11.221000 5.981999
v 17.726999 11.290000 6.147999
v 17.799999 10.400000 6.144999
v 17.549999 10.400001 6.399999
v 17.726999 10.400001 6.324999
v 17.549999 9.482000 6.216999
v 17.799999 9.579000 5.981999
v 17.726999 9.510000 6.147999
v 17.549999 8.703000 5.697000
v 17.799999 8.883000 5.517000
v 17.726999 8.756000 5.644000
v 17.549999 8.183000 4.918000
v 17.799999 8.418000 4.821000
v 17.726999 8.252000 4.889999
v 17.549999 8.000000 3.999999
v 17.799999 8.255000 3.999999
v 17.726999 8.075000 3.999999
v 17.799999 8.418000 3.178999
v 17.549999 8.183000 3.081999
v 17.726999 8.252000 3.109999
v 17.549999 8.703000 2.302999
v 17.799999 8.883000 2.482999
v 17.726999 8.756000 2.355999
v 17.549999 9.482000 1.782999
v 17.799999 9.579000 2.017999
v 17.726999 9.510000 1.851999
v 17.549999 10.400000 1.599999
v 17.799999 10.400000 1.854999
v 17.726999 10.400000 1.674999
v 17.549999 11.318000 1.782999
v 17.799999 11.221000 2.017999
v 17.726999 11.290000 1.851999
v 17.799999 11.917000 2.482999
v 17.549999 12.097000 2.302999
v 17.726999 12.044000 2.355999
v 17.549999 12.617000 3.081999
v 17.799999 12.382000 3.178999
v 17.726999 12.548000 3.109999
v 17.549999 12.780000 3.999999
v 17.799999 12.545000 3.999999
v 17.726999 12.725000 3.999999
v 15.960000 12.780000 3.999999
v 15.960000 12.617000 3.081999
v 15.960000 12.097000 2.302999
v 15.960000 11.318000 1.782999
v 15.960000 10.400000 1.599999
v 15.960000 9.482000 1.782999
v 15.960000 8.703000 2.302999
v 15.960000 8.183000 3.081999
v 15.960000 8.000000 3.999999
v 15.960000 8.183000 4.918000
v 15.960000 8.703000 5.697000
v 15.960000 9.482000 6.216999
v 15.960000 10.400001 6.399999
v 15.960000 11.318000 6.216999
v 15.960000 12.097000 5.696999
v 15.960000 12.617000 4.917999
v 15.960000 12.000000 3.999999
v 15.960000 11.878000 3.387999
v 15.960000 11.531000 2.868999
v 15.960000 11.012000 2.521999
v 15.960000 10.400000 2.399999
v 15.960000 9.788000 2.521999
v 15.960000 9.269000 2.868999
v 15.960000 8.922000 3.387999
v 15.960000 8.800000 3.999999
v 15.960000 8.922000 4.612000
v 15.960000 9.269000 5.131000
v 15.960000 9.788000 5.477999
v 15.960000 10.400000 5.599999
v 15.960000 11.012000 5.477999
v 15.960000 11.531000 5.130999
v 15.960000 11.878000 4.611999
v 17.600000 12.000000 3.999999
v 17.799999 12.204000 3.999999
v 17.740999 12.060000 3.999999
v 17.799999 12.067000 3.309999
v 17.600000 11.878000 3.387999
v 17.740999 11.933000 3.364999
v 17.799999 11.676000 2.723999
v 17.600000 11.531000 2.868999
v 17.740999 11.574000 2.825999
v 17.799999 11.090000 2.332999
v 17.600000 11.012000 2.521999
v 17.740999 11.035000 2.466999
v 17.799999 10.400000 2.195999
v 17.600000 10.400000 2.399999
v 17.740999 10.400000 2.339999
v 17.799999 9.710000 2.332999
v 17.600000 9.788000 2.521999
v 17.740999 9.765000 2.466999
v 17.799999 9.124000 2.723999
v 17.600000 9.269000 2.868999
v 17.740999 9.226000 2.825999
v 17.799999 8.733000 3.309999
v 17.600000 8.922000 3.387999
v 17.740999 8.867000 3.364999
v 17.799999 8.596000 3.999999
v 17.600000 8.800000 3.999999
v 17.740999 8.740000 3.999999
v 17.799999 8.733000 4.690000
v 17.600000 8.922000 4.612000
v 17.740999 8.867000 4.635000
v 17.799999 9.124000 5.276000
v 17.600000 9.269000 5.131000
v 17.740999 9.226000 5.173999
v 17.799999 9.710000 5.666999
v 17.600000 9.788000 5.477999
v 17.740999 9.765000 5.532999
v 17.799999 10.400000 5.803999
v 17.600000 10.400000 5.599999
v 17.740999 10.400000 5.659999
v 17.799999 11.090000 5.666999
v 17.600000 11.012000 5.477999
v 17.740999 11.035000 5.532999
v 17.799999 11.676000 5.275999
v 17.600000 11.531000 5.130999
v 17.740999 11.574000 5.173999
v 17.799999 12.067000 4.689999
v 17.600000 11.878000 4.611999
v 17.740999 11.933000 4.634999
v 9.500000 9.100001 6.400000
v 8.900000 8.500001 6.400000
v 9.420000 8.800001 6.400000
v 9.200000 8.580001 6.400000
v 10.263000 11.700000 2.262999
v 9.500000 11.700000 2.771999
v 9.500000 9.100000 2.771999
v 9.420000 8.800000 2.825999
v 9.200000 8.580000 2.960999
v 8.900000 8.500000 3.020999
v 8.000000 6.420001 3.200000
v 9.200000 11.700000 2.028999
v 5.783000 8.500000 0.917999
v 7.082000 8.500000 2.216999
v 8.000000 8.500000 2.399999
v 8.650000 8.647000 2.270999
v 6.303000 8.500000 1.696999
v 9.053000 9.050000 2.127999
v 9.200000 9.600000 2.028999
v 8.040000 12.779999 -7.960001
v 8.040000 12.779999 -7.960001
v 8.040000 9.579999 -7.960001
v 8.040000 9.579999 -7.960001
v 15.960000 12.779999 -7.960001
v 15.960000 12.779999 -7.960001
v 10.956000 11.700000 -1.225001
v 11.200000 11.700000 -0.000001
v 15.960000 6.420000 -7.960001
v 15.960000 6.420000 -7.960001
v 0.040000 6.420000 -7.960001
v 0.040000 6.420000 -7.960001
v 0.040000 6.420000 -0.000000
v 10.217000 11.700000 -0.918001
v 9.697000 11.700000 -1.697001
v 5.044000 6.420000 -1.225001
v 5.737000 6.420000 -2.263000
v 10.400000 11.700000 -0.000001
v 5.044000 8.500000 -1.225001
v 5.737000 8.500000 -2.263001
v 14.400000 6.420000 -6.400001
v 14.400000 6.420000 -6.400001
v 14.400000 11.699999 -6.400001
v 14.400000 11.699999 -6.400001
v 4.800000 6.420000 -0.000000
v 4.800000 8.500000 -0.000001
v 9.225000 6.420000 -2.956001
v 10.263000 6.420000 -2.263000
v 10.217000 6.420000 -0.918000
v 9.697000 6.420000 -1.697001
v 10.400000 6.420000 -0.000000
v 10.956000 6.420000 -1.225001
v 11.200000 6.420000 -0.000000
v 8.000000 6.420000 -2.400001
v 8.918000 6.420000 -2.217000
v 14.400000 6.420000 -0.000000
v 5.783000 8.500000 -0.918001
v 5.600000 8.500000 -0.000001
v 5.783000 6.420000 -0.918000
v 5.600000 6.420000 -0.000000
v 8.000000 8.500000 -3.200001
v 6.775000 8.500000 -2.956001
v 0.040000 9.579999 -7.960001
v 0.040000 9.579999 -7.960001
v 0.040000 9.580000 -0.000001
v 7.082000 8.500000 -2.217001
v 6.303000 8.500000 -1.697001
v 7.082000 6.420000 -2.217000
v 6.775000 6.420000 -2.956001
v 6.303000 6.420000 -1.697001
v 1.600000 6.420000 -6.400001
v 1.600000 6.420000 -6.400001
v 9.500000 11.699999 -6.400001
v 9.500000 11.699999 -6.400001
v 1.600000 6.420000 -0.000000
v 1.600000 8.500000 -0.000001
v 1.600000 8.499999 -6.400001
v 1.600000 8.499999 -6.400001
v 14.400000 11.700000 -0.000001
v 15.960000 12.780000 -0.000001
v 8.040000 12.780000 -0.000001
v 8.040000 9.580000 -0.000001
v 15.960000 6.420000 -0.000000
v 9.500000 9.099999 -6.400001
v 9.420000 8.799999 -6.400001
v 9.200000 8.579999 -6.400001
v 8.900000 8.499999 -6.400001
v 9.500000 11.700000 -2.772001
v 9.500000 11.700000 -2.772001
v 10.263000 11.700000 -2.263001
v 9.500000 9.100000 -2.772001
v 9.420000 8.800000 -2.826001
v 9.200000 8.580000 -2.961001
v 8.900000 8.500000 -3.021001
v 8.000000 6.420000 -3.200001
v 9.200000 11.700000 -0.000001
v 9.200000 11.700000 -2.029001
v 9.200000 11.700000 -2.029001
v 8.000000 8.500000 -2.400001
v 8.650000 8.647000 -2.271001
v 9.200000 9.600000 -2.029001
v 9.053000 9.050000 -2.128001
v 8.040000 12.780001 7.959999
v 8.040000 12.780001 7.959999
v 8.040000 9.580001 7.959999
v 8.040000 9.580001 7.959999
v 15.960000 12.780001 7.959999
v 15.960000 12.780001 7.959999
v 10.956000 11.700000 1.224999
v 15.960000 6.420001 7.960000
v 15.960000 6.420001 7.960000
v 0.040000 6.420001 7.960000
v 0.040000 6.420001 7.960000
v 10.217000 11.700000 0.917999
v 9.697000 11.700000 1.696999
v 5.044000 6.420000 1.225000
v 5.737000 6.420000 2.263000
v 5.044000 8.500000 1.224999
v 5.737000 8.500000 2.262999
v 14.400000 6.420001 6.400000
v 14.400000 6.420001 6.400000
v 14.400000 11.700001 6.399999
v 14.400000 11.700001 6.399999
v 9.225000 6.420000 2.956000
v 10.263000 6.420000 2.263000
v 10.217000 6.420000 0.918000
v 9.697000 6.420000 1.697000
v 10.956000 6.420000 1.225000
v 8.000000 6.420000 2.400000
v 8.918000 6.420000 2.217000
v 5.783000 8.500000 0.917999
v 5.783000 6.420000 0.918000
v 8.000000 8.500000 3.199999
v 6.775000 8.500000 2.955999
v 0.040000 9.580001 7.959999
v 0.040000 9.580001 7.959999
v 7.082000 8.500000 2.216999
v 6.303000 8.500000 1.696999
v 7.082000 6.420000 2.217000
v 6.775000 6.420000 2.956000
v 6.303000 6.420000 1.697000
v 1.600000 6.420001 6.400000
v 1.600000 6.420001 6.400000
v 9.500000 11.700001 6.399999
v 9.500000 11.700001 6.399999
v 1.600000 8.500001 6.400000
v 1.600000 8.500001 6.400000
v 9.500000 9.100001 6.400000
v 9.420000 8.800001 6.400000
v 9.200000 8.580001 6.400000
v 8.900000 8.500001 6.400000
v 9.500000 11.700000 2.771999
v 9.500000 11.700000 2.771999
v 10.263000 11.700000 2.262999
v 9.500000 9.100000 2.771999
v 9.420000 8.800000 2.825999
v 9.200000 8.580000 2.960999
v 8.900000 8.500000 3.020999
v 8.000000 6.420001 3.200000
v 9.200000 11.700000 2.028999
v 9.200000 11.700000 2.028999
v 8.000000 8.500000 2.399999
v 8.650000 8.647000 2.270999
v 9.200000 9.600000 2.028999
v 9.053000 9.050000 2.127999
v 1.783000 11.150000 3.081999
v 2.018000 11.400000 3.178999
v 1.852000 11.327000 3.109999
v 2.483000 11.400000 2.482999
v 2.303000 11.150000 2.302999
v 2.356000 11.327000 2.355999
v 3.082000 11.150000 1.782999
v 3.179000 11.400000 2.017999
v 3.110000 11.327000 1.851999
v 4.000000 11.400000 1.854999
v 4.000000 11.150000 1.599999
v 4.000000 11.327000 1.674999
v 4.918000 11.150000 1.782999
v 4.821000 11.400000 2.017999
v 4.890000 11.327000 1.851999
v 5.697000 11.150000 2.302999
v 5.517000 11.400000 2.482999
v 5.644000 11.327000 2.355999
v 6.217000 11.150000 3.081999
v 5.982000 11.400000 3.178999
v 6.148000 11.327000 3.109999
v 6.400000 11.150000 3.999999
v 6.145000 11.400000 3.999999
v 6.325000 11.327000 3.999999
v 5.982000 11.400000 4.820999
v 6.217000 11.150000 4.917999
v 6.148000 11.327000 4.889999
v 5.697000 11.150000 5.696999
v 5.517000 11.400000 5.516999
v 5.644000 11.327000 5.643999
v 4.918000 11.150000 6.216999
v 4.821000 11.400000 5.981999
v 4.890000 11.327000 6.147999
v 4.000000 11.150001 6.399999
v 4.000000 11.400000 6.144999
v 4.000000 11.327001 6.324999
v 3.082000 11.150000 6.216999
v 3.179000 11.400000 5.981999
v 3.110000 11.327000 6.147999
v 2.483000 11.400000 5.516999
v 2.303000 11.150000 5.696999
v 2.356000 11.327000 5.643999
v 1.783000 11.150000 4.917999
v 2.018000 11.400000 4.820999
v 1.852000 11.327000 4.889999
v 1.600000 11.150000 3.999999
v 1.855000 11.400000 3.999999
v 1.675000 11.327000 3.999999
v 5.014000 11.400000 2.936999
v 4.000000 11.400000 2.835999
v 2.986000 11.400000 2.936999
v 5.097000 11.400000 3.999999
v 4.000000 11.400000 3.999999
v 2.903000 11.400000 3.999999
v 5.014000 11.400000 5.062999
v 4.000000 11.400000 5.163999
v 2.986000 11.400000 5.062999
v 1.600000 9.730000 3.999999
v 1.447000 9.580000 3.999999
v 1.555000 9.624000 3.999999
v 1.641000 9.580000 4.976999
v 1.783000 9.730000 4.917999
v 1.741000 9.624000 4.935999
v 2.195000 9.580000 5.804999
v 2.303000 9.730000 5.696999
v 2.271000 9.624000 5.728999
v 3.023000 9.580001 6.358999
v 3.082000 9.730000 6.216999
v 3.064000 9.624000 6.258999
v 4.000000 9.580001 6.552999
v 4.000000 9.730000 6.399999
v 4.000000 9.624001 6.444999
v 4.977000 9.580001 6.358999
v 4.918000 9.730000 6.216999
v 4.936000 9.624000 6.258999
v 5.805000 9.580000 5.804999
v 5.697000 9.730000 5.696999
v 5.729000 9.624000 5.728999
v 6.359000 9.580000 4.976999
v 6.217000 9.730000 4.917999
v 6.259000 9.624000 4.935999
v 6.553000 9.580000 3.999999
v 6.400000 9.730000 3.999999
v 6.445000 9.624000 3.999999
v 6.359000 9.580000 3.022999
v 6.217000 9.730000 3.081999
v 6.259000 9.624000 3.063999
v 5.805000 9.580000 2.194999
v 5.697000 9.730000 2.302999
v 5.729000 9.624000 2.270999
v 4.977000 9.580000 1.640999
v 4.918000 9.730000 1.782999
v 4.936000 9.624000 1.740999
v 4.000000 9.580000 1.446999
v 4.000000 9.730000 1.599999
v 4.000000 9.624000 1.554999
v 3.023000 9.580000 1.640999
v 3.082000 9.730000 1.782999
v 3.064000 9.624000 1.740999
v 2.195000 9.580000 2.194999
v 2.303000 9.730000 2.302999
v 2.271000 9.624000 2.270999
v 1.641000 9.580000 3.022999
v 1.783000 9.730000 3.081999
v 1.741000 9.624000 3.063999
v 1.783000 11.150000 -4.918001
v 2.018000 11.400000 -4.821001
v 1.852000 11.327000 -4.890001
v 2.483000 11.400000 -5.517001
v 2.303000 11.150000 -5.697001
v 2.356000 11.327000 -5.644001
v 3.082000 11.150000 -6.217001
v 3.179000 11.400000 -5.982001
v 3.110000 11.327000 -6.148001
v 4.000000 11.400000 -6.145001
v 4.000000 11.149999 -6.400001
v 4.000000 11.326999 -6.325001
v 4.918000 11.150000 -6.217001
v 4.821000 11.400000 -5.982001
v 4.890000 11.327000 -6.148001
v 5.697000 11.150000 -5.697001
v 5.517000 11.400000 -5.517001
v 5.644000 11.327000 -5.644001
v 6.217000 11.150000 -4.918001
v 5.982000 11.400000 -4.821001
v 6.148000 11.327000 -4.890001
v 6.400000 11.150000 -4.000001
v 6.145000 11.400000 -4.000001
v 6.325000 11.327000 -4.000001
v 5.982000 11.400000 -3.179001
v 6.217000 11.150000 -3.082001
v 6.148000 11.327000 -3.110001
v 5.697000 11.150000 -2.303001
v 5.517000 11.400000 -2.483001
v 5.644000 11.327000 -2.356001
v 4.918000 11.150000 -1.783001
v 4.821000 11.400000 -2.018001
v 4.890000 11.327000 -1.852001
v 4.000000 11.150000 -1.600001
v 4.000000 11.400000 -1.855001
v 4.000000 11.327000 -1.675001
v 3.082000 11.150000 -1.783001
v 3.179000 11.400000 -2.018001
v 3.110000 11.327000 -1.852001
v 2.483000 11.400000 -2.483001
v 2.303000 11.150000 -2.303001
v 2.356000 11.327000 -2.356001
v 1.783000 11.150000 -3.082001
v 2.018000 11.400000 -3.179001
v 1.852000 11.327000 -3.110001
v 1.600000 11.150000 -4.000001
v 1.855000 11.400000 -4.000001
v 1.675000 11.327000 -4.000001
v 5.014000 11.400000 -5.063001
v 4.000000 11.400000 -5.164001
v 2.986000 11.400000 -5.063001
v 5.097000 11.400000 -4.000001
v 4.000000 11.400000 -4.000001
v 2.903000 11.400000 -4.000001
v 5.014000 11.400000 -2.937001
v 4.000000 11.400000 -2.836001
v 2.986000 11.400000 -2.937001
v 1.600000 9.730000 -4.000001
v 1.447000 9.580000 -4.000001
v 1.555000 9.624000 -4.000001
v 1.641000 9.580000 -3.023001
v 1.783000 9.730000 -3.082001
v 1.741000 9.624000 -3.064001
v 2.195000 9.580000 -2.195001
v 2.303000 9.730000 -2.303001
v 2.271000 9.624000 -2.271001
v 3.023000 9.580000 -1.641001
v 3.082000 9.730000 -1.783001
v 3.064000 9.624000 -1.741001
v 4.000000 9.580000 -1.447001
v 4.000000 9.730000 -1.600001
v 4.000000 9.624000 -1.555001
v 4.977000 9.580000 -1.641001
v 4.918000 9.730000 -1.783001
v 4.936000 9.624000 -1.741001
v 5.805000 9.580000 -2.195001
v 5.697000 9.730000 -2.303001
v 5.729000 9.624000 -2.271001
v 6.359000 9.580000 -3.023001
v 6.217000 9.730000 -3.082001
v 6.259000 9.624000 -3.064001
v 6.553000 9.580000 -4.000001
v 6.400000 9.730000 -4.000001
v 6.445000 9.624000 -4.000001
v 6.359000 9.580000 -4.977001
v 6.217000 9.730000 -4.918001
v 6.259000 9.624000 -4.936001
v 5.805000 9.580000 -5.805001
v 5.697000 9.730000 -5.697001
v 5.729000 9.624000 -5.729001
v 4.977000 9.579999 -6.359001
v 4.918000 9.730000 -6.217001
v 4.936000 9.624000 -6.259001
v 4.000000 9.579999 -6.553001
v 4.000000 9.729999 -6.400001
v 4.000000 9.623999 -6.445001
v 3.023000 9.579999 -6.359001
v 3.082000 9.730000 -6.217001
v 3.064000 9.624000 -6.259001
v 2.195000 9.580000 -5.805001
v 2.303000 9.730000 -5.697001
v 2.271000 9.624000 -5.729001
v 1.641000 9.580000 -4.977001
v 1.783000 9.730000 -4.918001
v 1.741000 9.624000 -4.936001
v 9.783000 14.350000 3.081999
v 10.018000 14.600000 3.178999
v 9.852000 14.527000 3.109999
v 10.483000 14.600000 2.482999
v 10.303000 14.350000 2.302999
v 10.356000 14.527000 2.355999
v 11.082000 14.350000 1.782999
v 11.179000 14.600000 2.017999
v 11.110000 14.527000 1.851999
v 12.000000 14.600000 1.854999
v 12.000000 14.350000 1.599999
v 12.000000 14.527000 1.674999
v 12.918000 14.350000 1.782999
v 12.821000 14.600000 2.017999
v 12.890000 14.527000 1.851999
v 13.697000 14.350000 2.302999
v 13.517000 14.600000 2.482999
v 13.644000 14.527000 2.355999
v 14.217000 14.350000 3.081999
v 13.982000 14.600000 3.178999
v 14.148000 14.527000 3.109999
v 14.400000 14.350000 3.999999
v 14.145000 14.600000 3.999999
v 14.325000 14.527000 3.999999
v 13.982000 14.600000 4.820999
v 14.217000 14.350000 4.917999
v 14.148000 14.527000 4.889999
v 13.697000 14.350000 5.696999
v 13.517000 14.600000 5.516999
v 13.644000 14.527000 5.643999
v 12.918000 14.350000 6.216999
v 12.821000 14.600000 5.981999
v 12.890000 14.527000 6.147999
v 12.000000 14.350001 6.399999
v 12.000000 14.600000 6.144999
v 12.000000 14.527001 6.324999
v 11.082000 14.350000 6.216999
v 11.179000 14.600000 5.981999
v 11.110000 14.527000 6.147999
v 10.483000 14.600000 5.516999
v 10.303000 14.350000 5.696999
v 10.356000 14.527000 5.643999
v 9.783000 14.350000 4.917999
v 10.018000 14.600000 4.820999
v 9.852000 14.527000 4.889999
v 9.600000 14.350000 3.999999
v 9.855000 14.600000 3.999999
v 9.675000 14.527000 3.999999
v 13.014000 14.600000 2.936999
v 12.000000 14.600000 2.835999
v 10.986000 14.600000 2.936999
v 13.097000 14.600000 3.999999
v 12.000000 14.600000 3.999999
v 10.903000 14.600000 3.999999
v 13.014000 14.600000 5.062999
v 12.000000 14.600000 5.163999
v 10.986000 14.600000 5.062999
v 9.600000 12.930000 3.999999
v 9.447000 12.780000 3.999999
v 9.555000 12.824000 3.999999
v 9.641000 12.780000 4.976999
v 9.783000 12.930000 4.917999
v 9.741000 12.824000 4.935999
v 10.195000 12.780000 5.804999
v 10.303000 12.930000 5.696999
v 10.271000 12.824000 5.728999
v 11.023000 12.780001 6.358999
v 11.082000 12.930000 6.216999
v 11.064000 12.824000 6.258999
v 12.000000 12.780001 6.552999
v 12.000000 12.930001 6.399999
v 12.000000 12.824001 6.444999
v 12.977000 12.780001 6.358999
v 12.918000 12.930000 6.216999
v 12.936000 12.824000 6.258999
v 13.805000 12.780000 5.804999
v 13.697000 12.930000 5.696999
v 13.729000 12.824000 5.728999
v 14.359000 12.780000 4.976999
v 14.217000 12.930000 4.917999
v 14.259000 12.824000 4.935999
v 14.553000 12.780000 3.999999
v 14.400000 12.930000 3.999999
v 14.445000 12.824000 3.999999
v 14.359000 12.780000 3.022999
v 14.217000 12.930000 3.081999
v 14.259000 12.824000 3.063999
v 13.805000 12.780000 2.194999
v 13.697000 12.930000 2.302999
v 13.729000 12.824000 2.270999
v 12.977000 12.780000 1.640999
v 12.918000 12.930000 1.782999
v 12.936000 12.824000 1.740999
v 12.000000 12.780000 1.446999
v 12.000000 12.930000 1.599999
v 12.000000 12.824000 1.554999
v 11.023000 12.780000 1.640999
v 11.082000 12.930000 1.782999
v 11.064000 12.824000 1.740999
v 10.195000 12.780000 2.194999
v 10.303000 12.930000 2.302999
v 10.271000 12.824000 2.270999
v 9.641000 12.780000 3.022999
v 9.783000 12.930000 3.081999
v 9.741000 12.824000 3.063999
v 9.783000 14.350000 -4.918001
v 10.018000 14.600000 -4.821001
v 9.852000 14.527000 -4.890001
v 10.483000 14.600000 -5.517001
v 10.303000 14.350000 -5.697001
v 10.356000 14.527000 -5.644001
v 11.082000 14.350000 -6.217001
v 11.179000 14.600000 -5.982001
v 11.110000 14.527000 -6.148001
v 12.000000 14.600000 -6.145001
v 12.000000 14.349999 -6.400001
v 12.000000 14.526999 -6.325001
v 12.918000 14.350000 -6.217001
v 12.821000 14.600000 -5.982001
v 12.890000 14.527000 -6.148001
v 13.697000 14.350000 -5.697001
v 13.517000 14.600000 -5.517001
v 13.644000 14.527000 -5.644001
v 14.217000 14.350000 -4.918001
v 13.982000 14.600000 -4.821001
v 14.148000 14.527000 -4.890001
v 14.400000 14.350000 -4.000001
v 14.145000 14.600000 -4.000001
v 14.325000 14.527000 -4.000001
v 13.982000 14.600000 -3.179001
v 14.217000 14.350000 -3.082001
v 14.148000 14.527000 -3.110001
v 13.697000 14.350000 -2.303001
v 13.517000 14.600000 -2.483001
v 13.644000 14.527000 -2.356001
v 12.918000 14.350000 -1.783001
v 12.821000 14.600000 -2.018001
v 12.890000 14.527000 -1.852001
v 12.000000 14.350000 -1.600001
v 12.000000 14.600000 -1.855001
v 12.000000 14.527000 -1.675001
v 11.082000 14.350000 -1.783001
v 11.179000 14.600000 -2.018001
v 11.110000 14.527000 -1.852001
v 10.483000 14.600000 -2.483001
v 10.303000 14.350000 -2.303001
v 10.356000 14.527000 -2.356001
v 9.783000 14.350000 -3.082001
v 10.018000 14.600000 -3.179001
v 9.852000 14.527000 -3.110001
v 9.600000 14.350000 -4.000001
v 9.855000 14.600000 -4.000001
v 9.675000 14.527000 -4.000001
v 13.014000 14.600000 -5.063001
v 12.000000 14.600000 -5.164001
v 10.986000 14.600000 -5.063001
v 13.097000 14.600000 -4.000001
v 12.000000 14.600000 -4.000001
v 10.903000 14.600000 -4.000001
v 13.014000 14.600000 -2.937001
v 12.000000 14.600000 -2.836001
v 10.986000 14.600000 -2.937001
v 9.600000 12.930000 -4.000001
v 9.447000 12.780000 -4.000001
v 9.555000 12.824000 -4.000001
v 9.641000 12.780000 -3.023001
v 9.783000 12.930000 -3.082001
v 9.741000 12.824000 -3.064001
v 10.195000 12.780000 -2.195001
v 10.303000 12.930000 -2.303001
v 10.271000 12.824000 -2.271001
v 11.023000 12.780000 -1.641001
v 11.082000 12.930000 -1.783001
v 11.064000 12.824000 -1.741001
v 12.000000 12.780000 -1.447001
v 12.000000 12.930000 -1.600001
v 12.000000 12.824000 -1.555001
v 12.977000 12.780000 -1.641001
v 12.918000 12.930000 -1.783001
v 12.936000 12.824000 -1.741001
v 13.805000 12.780000 -2.195001
v 13.697000 12.930000 -2.303001
v 13.729000 12.824000 -2.271001
v 14.359000 12.780000 -3.023001
v 14.217000 12.930000 -3.082001
v 14.259000 12.824000 -3.064001
v 14.553000 12.780000 -4.000001
v 14.400000 12.930000 -4.000001
v 14.445000 12.824000 -4.000001
v 14.359000 12.780000 -4.977001
v 14.217000 12.930000 -4.918001
v 14.259000 12.824000 -4.936001
v 13.805000 12.780000 -5.805001
v 13.697000 12.930000 -5.697001
v 13.729000 12.824000 -5.729001
v 12.977000 12.779999 -6.359001
v 12.918000 12.930000 -6.217001
v 12.936000 12.824000 -6.259001
v 12.000000 12.779999 -6.553001
v 12.000000 12.929999 -6.400001
v 12.000000 12.823999 -6.445001
v 11.023000 12.779999 -6.359001
v 11.082000 12.930000 -6.217001
v 11.064000 12.824000 -6.259001
v 10.195000 12.780000 -5.805001
v 10.303000 12.930000 -5.697001
v 10.271000 12.824000 -5.729001
v 9.641000 12.780000 -4.977001
v 9.783000 12.930000 -4.918001
v 9.741000 12.824000 -4.936001
vn -0.0000 1.0000 -0.0000
vn 1.0000 -0.0000 -0.0000
vn 0.5555 -0.0000 -0.8315
vn 0.1951 -0.0000 -0.9808
vn 0.1953 -0.0001 -0.9807
vn -0.8317 -0.0000 -0.5553
vn 0.1955 -0.0003 -0.9807
vn 0.1947 -0.0000 -0.9809
vn 0.9807 -0.0000 -0.1953
vn 0.5575 0.0004 -0.8302
vn -0.1953 -0.0000 -0.9807
vn 0.1961 -0.0000 -0.9806
vn 0.5546 0.0466 -0.8308
vn 0.3840 -0.0570 -0.9216
vn -0.5553 -0.0000 -0.8317
vn -0.9807 -0.0000 -0.1953
vn 0.7071 -0.7071 -0.0000
vn -0.0000 -0.0000 -1.0000
vn 0.9807 -0.0000 -0.1955
vn 0.8317 -0.0000 -0.5552
vn -0.1955 -0.0000 -0.9807
vn -0.8317 -0.0000 -0.5552
vn 0.8317 -0.0000 -0.5553
vn -0.0000 0.5552 0.8317
vn 0.3835 0.5127 -0.7681
vn 0.3809 0.5138 -0.7687
vn 0.9238 0.2127 -0.3183
vn 0.9240 0.2125 -0.3180
vn 0.3837 -0.1805 -0.9056
vn 0.3819 -0.1803 -0.9065
vn 0.9241 -0.0745 -0.3748
vn 0.9239 -0.0745 -0.3753
vn 0.3810 -0.7690 0.5133
vn 0.3836 -0.7678 0.5132
vn 0.9240 -0.3180 0.2125
vn 0.9238 -0.3183 0.2127
vn 0.3810 -0.5133 -0.7690
vn 0.3836 -0.5132 -0.7678
vn 0.9240 -0.2125 -0.3180
vn 0.9238 -0.2127 -0.3183
vn 0.3835 -0.7681 -0.5127
vn 0.3809 -0.7687 -0.5138
vn 0.9238 -0.3183 -0.2127
vn 0.9240 -0.3180 -0.2125
vn 0.3835 -0.5127 0.7681
vn 0.3809 -0.5138 0.7687
vn 0.9238 -0.2128 0.3183
vn 0.9240 -0.2125 0.3180
vn 0.3819 -0.1807 0.9064
vn 0.3838 -0.1801 0.9057
vn 0.9239 -0.0746 0.3753
vn 0.9241 -0.0744 0.3748
vn 0.3835 0.7681 0.5127
vn 0.3809 0.7687 0.5138
vn 0.9238 0.3183 0.2127
vn 0.9240 0.3180 0.2125
vn 0.3819 -0.9064 -0.1807
vn 0.3838 -0.9057 -0.1801
vn 0.9239 -0.3753 -0.0746
vn 0.9241 -0.3748 -0.0744
vn 0.3837 -0.9056 0.1805
vn 0.3819 -0.9065 0.1803
vn 0.9241 -0.3748 0.0745
vn 0.9239 -0.3753 0.0745
vn 0.3837 0.1805 0.9056
vn 0.3819 0.1803 0.9065
vn 0.9241 0.0745 0.3748
vn 0.9239 0.0745 0.3753
vn 0.3810 0.5133 0.7690
vn 0.3836 0.5132 0.7678
vn 0.9240 0.2126 0.3180
vn 0.9238 0.2127 0.3183
vn 0.3805 0.9105 0.1617
vn 0.2915 0.9382 0.1866
vn 0.9239 0.3753 0.0746
vn 0.9241 0.3748 0.0744
vn 0.3819 0.1807 -0.9064
vn 0.3838 0.1801 -0.9057
vn 0.9239 0.0746 -0.3753
vn 0.9241 0.0744 -0.3748
vn 0.2926 0.9415 -0.1672
vn 0.3819 0.9065 -0.1803
vn 0.9241 0.3748 -0.0745
vn 0.9239 0.3753 -0.0745
vn 0.3810 0.7690 -0.5133
vn 0.3836 0.7678 -0.5132
vn 0.9240 0.3180 -0.2125
vn 0.9238 0.3183 -0.2127
vn -0.0000 -0.8317 -0.5552
vn -0.0000 0.8317 0.5552
vn -0.0000 -0.9807 -0.1955
vn -0.0000 0.9846 -0.1748
vn -0.0000 0.9846 0.1748
vn -0.0000 -0.9807 0.1955
vn -0.0000 0.8317 -0.5552
vn -0.0000 -0.8317 0.5552
vn -0.0000 0.5552 -0.8317
vn -0.0000 -0.5552 0.8317
vn -0.0000 0.1955 -0.9807
vn -0.0000 -0.1955 0.9807
vn -0.0000 -0.1955 -0.9807
vn -0.0000 0.1955 0.9807
vn -0.0000 -0.5552 -0.8317
vn -0.0000 0.9807 -0.1955
vn -0.0000 -0.5558 0.8313
vn -0.0000 -0.8313 0.5558
vn -0.0000 0.5558 0.8313
vn -0.0000 0.5558 -0.8313
vn -0.0000 0.9807 0.1955
vn -0.0000 -0.5558 -0.8313
vn -0.0000 0.8313 0.5558
vn -0.0000 0.8313 -0.5558
vn -0.0000 -0.8313 -0.5558
vn 0.3829 -0.9060 -0.1806
vn 0.3851 -0.9050 -0.1810
vn 0.9236 -0.3758 -0.0752
vn 0.9227 -0.3781 -0.0751
vn 0.3896 -0.7656 -0.5119
vn 0.3834 -0.7687 -0.5120
vn 0.9229 -0.3204 -0.2134
vn 0.9235 -0.3192 -0.2130
vn 0.3833 -0.5134 -0.7678
vn 0.3895 -0.5106 -0.7666
vn 0.9235 -0.2127 -0.3193
vn 0.9229 -0.2136 -0.3202
vn 0.3851 -0.1804 -0.9051
vn 0.3829 -0.1812 -0.9058
vn 0.9227 -0.0756 -0.3780
vn 0.9236 -0.0747 -0.3760
vn 0.3829 0.1806 -0.9060
vn 0.3851 0.1810 -0.9050
vn 0.9236 0.0752 -0.3758
vn 0.9227 0.0751 -0.3781
vn 0.3896 0.5119 -0.7656
vn 0.3834 0.5120 -0.7687
vn 0.9229 0.2134 -0.3204
vn 0.9235 0.2130 -0.3192
vn 0.3833 0.7678 -0.5134
vn 0.3895 0.7666 -0.5106
vn 0.9235 0.3193 -0.2127
vn 0.9229 0.3202 -0.2137
vn 0.3851 0.9051 -0.1804
vn 0.3829 0.9058 -0.1812
vn 0.9227 0.3781 -0.0756
vn 0.9236 0.3760 -0.0747
vn 0.3829 0.9060 0.1806
vn 0.3851 0.9050 0.1810
vn 0.9236 0.3759 0.0752
vn 0.9227 0.3781 0.0751
vn 0.3896 0.7656 0.5119
vn 0.3834 0.7687 0.5120
vn 0.9229 0.3204 0.2134
vn 0.9235 0.3192 0.2130
vn 0.3833 0.5134 0.7678
vn 0.3895 0.5106 0.7666
vn 0.9235 0.2127 0.3193
vn 0.9229 0.2136 0.3202
vn 0.3851 0.1804 0.9051
vn 0.3829 0.1812 0.9059
vn 0.9227 0.0756 0.3780
vn 0.9236 0.0747 0.3760
vn 0.3829 -0.1806 0.9060
vn 0.3851 -0.1810 0.9050
vn 0.9236 -0.0752 0.3758
vn 0.9227 -0.0751 0.3781
vn 0.3896 -0.5119 0.7656
vn 0.3834 -0.5120 0.7687
vn 0.9229 -0.2134 0.3204
vn 0.9235 -0.2130 0.3192
vn 0.3833 -0.7678 0.5134
vn 0.3895 -0.7666 0.5106
vn 0.9235 -0.3193 0.2127
vn 0.9229 -0.3202 0.2137
vn 0.3851 -0.9051 0.1804
vn 0.3829 -0.9059 0.1812
vn 0.9227 -0.3781 0.0756
vn 0.9236 -0.3760 0.0747
vn -0.0000 -1.0000 -0.0000
vn 0.2577 -0.9662 -0.0000
vn 0.9662 -0.2577 -0.0000
vn 0.5552 0.0045 -0.8317
vn 0.5317 -0.0120 -0.8469
vn 0.5554 -0.0000 -0.8316
vn 0.5071 0.0199 -0.8617
vn 0.5550 -0.0000 -0.8319
vn -0.9807 -0.0000 -0.1955
vn 0.9661 -0.2582 -0.0000
vn 0.2206 -0.9754 -0.0000
vn -0.5552 -0.0000 -0.8317
vn 0.5555 -0.0000 0.8315
vn 0.1951 -0.0000 0.9808
vn 0.1953 -0.0001 0.9807
vn -0.8317 -0.0000 0.5553
vn 0.1955 -0.0003 0.9807
vn 0.1947 -0.0000 0.9809
vn 0.9807 -0.0000 0.1953
vn 0.5575 0.0004 0.8302
vn -0.1953 -0.0000 0.9807
vn 0.1961 -0.0000 0.9806
vn 0.5546 0.0466 0.8308
vn 0.3840 -0.0570 0.9216
vn -0.5553 -0.0000 0.8317
vn -0.9807 -0.0000 0.1953
vn -0.0000 -0.0000 1.0000
vn 0.9807 -0.0000 0.1955
vn 0.8317 -0.0000 0.5552
vn -0.1955 -0.0000 0.9807
vn -0.8317 -0.0000 0.5552
vn 0.8317 -0.0000 0.5553
vn 0.3835 0.5127 0.7681
vn 0.3809 0.5138 0.7687
vn 0.9240 0.2125 0.3180
vn 0.3837 -0.1805 0.9056
vn 0.3819 -0.1803 0.9065
vn 0.9241 -0.0745 0.3748
vn 0.9239 -0.0745 0.3753
vn 0.3810 -0.7690 -0.5133
vn 0.3836 -0.7678 -0.5132
vn 0.3810 -0.5133 0.7690
vn 0.3836 -0.5132 0.7678
vn 0.9238 -0.2127 0.3183
vn 0.3835 -0.7681 0.5127
vn 0.3809 -0.7687 0.5138
vn 0.3835 -0.5127 -0.7681
vn 0.3809 -0.5138 -0.7687
vn 0.9238 -0.2128 -0.3183
vn 0.3819 -0.1807 -0.9064
vn 0.3838 -0.1801 -0.9057
vn 0.9239 -0.0746 -0.3753
vn 0.9241 -0.0744 -0.3748
vn 0.3835 0.7681 -0.5127
vn 0.3809 0.7687 -0.5138
vn 0.3819 -0.9064 0.1807
vn 0.3838 -0.9057 0.1801
vn 0.9239 -0.3753 0.0746
vn 0.9241 -0.3748 0.0744
vn 0.3837 -0.9056 -0.1805
vn 0.3819 -0.9065 -0.1803
vn 0.9241 -0.3748 -0.0745
vn 0.9239 -0.3753 -0.0745
vn 0.3837 0.1805 -0.9056
vn 0.3819 0.1803 -0.9065
vn 0.9241 0.0745 -0.3748
vn 0.9239 0.0745 -0.3753
vn 0.3810 0.5133 -0.7690
vn 0.3836 0.5132 -0.7678
vn 0.9240 0.2126 -0.3180
vn 0.3805 0.9105 -0.1617
vn 0.2915 0.9382 -0.1866
vn 0.9239 0.3753 -0.0746
vn 0.9241 0.3748 -0.0744
vn 0.3819 0.1807 0.9064
vn 0.3838 0.1801 0.9057
vn 0.9239 0.0746 0.3753
vn 0.9241 0.0744 0.3748
vn 0.2926 0.9415 0.1672
vn 0.3819 0.9065 0.1803
vn 0.9241 0.3748 0.0745
vn 0.9239 0.3753 0.0745
vn 0.3810 0.7690 0.5133
vn 0.3836 0.7678 0.5132
vn 0.3829 -0.9060 0.1806
vn 0.3851 -0.9050 0.1810
vn 0.9236 -0.3758 0.0752
vn 0.9227 -0.3781 0.0751
vn 0.3896 -0.7656 0.5119
vn 0.3834 -0.7687 0.5120
vn 0.9229 -0.3204 0.2134
vn 0.9235 -0.3192 0.2130
vn 0.3833 -0.5134 0.7678
vn 0.3895 -0.5106 0.7666
vn 0.9235 -0.2127 0.3193
vn 0.9229 -0.2136 0.3202
vn 0.3851 -0.1804 0.9051
vn 0.3829 -0.1812 0.9059
vn 0.9227 -0.0756 0.3780
vn 0.9236 -0.0747 0.3760
vn 0.3829 0.1806 0.9060
vn 0.3851 0.1810 0.9050
vn 0.9236 0.0752 0.3758
vn 0.9227 0.0751 0.3781
vn 0.3896 0.5119 0.7656
vn 0.3834 0.5120 0.7687
vn 0.9229 0.2134 0.3204
vn 0.9235 0.2130 0.3192
vn 0.3833 0.7678 0.5134
vn 0.3895 0.7666 0.5106
vn 0.9235 0.3193 0.2127
vn 0.9229 0.3202 0.2137
vn 0.3851 0.9051 0.1804
vn 0.3829 0.9059 0.1812
vn 0.9227 0.3781 0.0756
vn 0.9236 0.3760 0.0747
vn 0.3829 0.9060 -0.1806
vn 0.3851 0.9050 -0.1810
vn 0.9236 0.3759 -0.0752
vn 0.9227 0.3781 -0.0751
vn 0.3896 0.7656 -0.5119
vn 0.3834 0.7687 -0.5120
vn 0.9229 0.3204 -0.2134
vn 0.9235 0.3192 -0.2130
vn 0.3833 0.5134 -0.7678
vn 0.3895 0.5106 -0.7666
vn 0.9235 0.2127 -0.3193
vn 0.9229 0.2136 -0.3202
vn 0.3851 0.1804 -0.9051
vn 0.3829 0.1812 -0.9059
vn 0.9227 0.0756 -0.3780
vn 0.9236 0.0747 -0.3760
vn 0.3829 -0.1806 -0.9060
vn 0.3851 -0.1810 -0.9050
vn 0.9236 -0.0752 -0.3758
vn 0.9227 -0.0751 -0.3781
vn 0.3896 -0.5119 -0.7656
vn 0.3834 -0.5120 -0.7687
vn 0.9229 -0.2134 -0.3204
vn 0.9235 -0.2130 -0.3192
vn 0.3833 -0.7678 -0.5134
vn 0.3895 -0.7666 -0.5106
vn 0.9235 -0.3193 -0.2127
vn 0.9229 -0.3202 -0.2137
vn 0.3851 -0.9051 -0.1804
vn 0.3829 -0.9059 -0.1812
vn 0.9227 -0.3781 -0.0756
vn 0.9236 -0.3760 -0.0747
vn 0.5552 0.0045 0.8317
vn 0.5317 -0.0120 0.8469
vn 0.5554 -0.0000 0.8316
vn 0.5071 0.0199 0.8617
vn 0.5550 -0.0000 0.8319
vn -0.9807 -0.0000 0.1955
vn -0.5552 -0.0000 0.8317
vn -0.5127 0.3835 -0.7681
vn -0.5138 0.3809 -0.7687
vn -0.2127 0.9238 -0.3183
vn -0.2125 0.9240 -0.3180
vn 0.1805 0.3837 -0.9056
vn 0.1803 0.3819 -0.9065
vn 0.0745 0.9241 -0.3748
vn 0.0745 0.9239 -0.3753
vn 0.7690 0.3810 0.5133
vn 0.7678 0.3836 0.5132
vn 0.3180 0.9240 0.2125
vn 0.3183 0.9238 0.2127
vn 0.5133 0.3810 -0.7690
vn 0.5132 0.3836 -0.7678
vn 0.2125 0.9240 -0.3180
vn 0.2127 0.9238 -0.3183
vn 0.7681 0.3835 -0.5127
vn 0.7687 0.3809 -0.5138
vn 0.3183 0.9238 -0.2127
vn 0.3180 0.9240 -0.2125
vn 0.5127 0.3835 0.7681
vn 0.5138 0.3809 0.7687
vn 0.2127 0.9238 0.3183
vn 0.2125 0.9240 0.3180
vn 0.1807 0.3819 0.9064
vn 0.1801 0.3838 0.9057
vn 0.0746 0.9239 0.3753
vn 0.0744 0.9241 0.3748
vn -0.7681 0.3835 0.5127
vn -0.7687 0.3809 0.5138
vn -0.3183 0.9238 0.2127
vn -0.3180 0.9240 0.2125
vn 0.9064 0.3819 -0.1807
vn 0.9057 0.3838 -0.1801
vn 0.3753 0.9239 -0.0746
vn 0.3748 0.9241 -0.0744
vn 0.9056 0.3837 0.1805
vn 0.9065 0.3819 0.1803
vn 0.3748 0.9241 0.0745
vn 0.3753 0.9239 0.0745
vn -0.1805 0.3837 0.9056
vn -0.1803 0.3819 0.9065
vn -0.0745 0.9241 0.3748
vn -0.0745 0.9239 0.3753
vn -0.5133 0.3810 0.7690
vn -0.5132 0.3836 0.7678
vn -0.2125 0.9240 0.3180
vn -0.2127 0.9238 0.3183
vn -0.9064 0.3819 0.1807
vn -0.9057 0.3838 0.1801
vn -0.3753 0.9239 0.0746
vn -0.3748 0.9241 0.0744
vn -0.1807 0.3819 -0.9064
vn -0.1801 0.3838 -0.9057
vn -0.0746 0.9239 -0.3753
vn -0.0744 0.9241 -0.3748
vn -0.9056 0.3837 -0.1805
vn -0.9065 0.3819 -0.1803
vn -0.3748 0.9241 -0.0745
vn -0.3753 0.9239 -0.0745
vn -0.7690 0.3810 -0.5133
vn -0.7678 0.3836 -0.5132
vn -0.3180 0.9240 -0.2125
vn -0.3183 0.9238 -0.2127
vn -0.9036 0.3886 0.1801
vn -0.9055 0.3844 0.1799
vn -0.3758 0.9237 0.0747
vn -0.3762 0.9235 0.0747
vn -0.7672 0.3862 0.5121
vn -0.7655 0.3902 0.5116
vn -0.3202 0.9228 0.2140
vn -0.3189 0.9235 0.2133
vn -0.5112 0.3902 0.7658
vn -0.5125 0.3862 0.7669
vn -0.2132 0.9235 0.3189
vn -0.2142 0.9229 0.3201
vn -0.1805 0.3844 0.9054
vn -0.1796 0.3886 0.9037
vn -0.0748 0.9235 0.3762
vn -0.0746 0.9237 0.3758
vn 0.1801 0.3886 0.9036
vn 0.1799 0.3844 0.9055
vn 0.0747 0.9237 0.3758
vn 0.0747 0.9235 0.3762
vn 0.5121 0.3862 0.7672
vn 0.5116 0.3902 0.7655
vn 0.2140 0.9228 0.3203
vn 0.2133 0.9235 0.3189
vn 0.7658 0.3902 0.5112
vn 0.7669 0.3862 0.5126
vn 0.3189 0.9235 0.2132
vn 0.3201 0.9229 0.2142
vn 0.9054 0.3844 0.1805
vn 0.9037 0.3886 0.1796
vn 0.3762 0.9235 0.0748
vn 0.3758 0.9237 0.0746
vn 0.9036 0.3886 -0.1801
vn 0.9055 0.3844 -0.1799
vn 0.3758 0.9237 -0.0747
vn 0.3762 0.9235 -0.0747
vn 0.7672 0.3862 -0.5121
vn 0.7655 0.3902 -0.5116
vn 0.3202 0.9228 -0.2140
vn 0.3189 0.9235 -0.2133
vn 0.5112 0.3902 -0.7658
vn 0.5125 0.3862 -0.7669
vn 0.2132 0.9235 -0.3189
vn 0.2142 0.9229 -0.3201
vn 0.1805 0.3844 -0.9054
vn 0.1796 0.3886 -0.9037
vn 0.0748 0.9235 -0.3763
vn 0.0746 0.9237 -0.3758
vn -0.1801 0.3886 -0.9036
vn -0.1799 0.3844 -0.9055
vn -0.0747 0.9237 -0.3758
vn -0.0747 0.9235 -0.3762
vn -0.5121 0.3862 -0.7672
vn -0.5116 0.3902 -0.7655
vn -0.2140 0.9228 -0.3203
vn -0.2133 0.9235 -0.3189
vn -0.7658 0.3902 -0.5112
vn -0.7669 0.3862 -0.5125
vn -0.3189 0.9235 -0.2132
vn -0.3201 0.9229 -0.2142
vn -0.9054 0.3844 -0.1805
vn -0.9037 0.3886 -0.1796
vn -0.3762 0.9235 -0.0748
vn -0.3758 0.9237 -0.0746
vn 0.5552 -0.0000 0.8317
vn 0.1955 -0.0000 0.9807
vn 0.1955 -0.0000 -0.9807
vn 0.5552 -0.0000 -0.8317
vn -0.5125 0.3863 0.7669
vn 0.0748 0.9235 -0.3762
vn -0.2140 0.9228 -0.3202
vn -0.7669 0.3862 -0.5126
vn -0.9054 0.3843 -0.1805
vn 0.2140 0.9228 0.3202
vn 0.9054 0.3843 0.1805
vn 0.5125 0.3863 -0.7669
s 0
usemtl MB_199
f 398//1 407//1 421//1
f 421//1 407//1 422//1
f 418//2 403//2 40//2
f 40//2 403//2 405//2
f 457//1 431//1 416//1
f 416//1 431//1 430//1
f 412//3 463//3 397//3
f 397//3 463//3 460//3
f 423//4 186//4 187//4
f 186//5 13//5 187//5
f 390//1 441//1 389//1
f 389//1 441//1 27//1
f 15//1 410//1 411//1
f 411//1 410//1 10//1
f 409//1 457//1 417//1
f 417//1 457//1 416//1
f 402//6 399//6 401//6
f 399//6 17//6 401//6
f 11//7 5//7 462//7
f 462//8 5//8 461//8
f 32//9 36//9 2//9
f 36//9 414//9 2//9
f 463//10 412//10 464//10
f 415//1 15//1 413//1
f 413//1 15//1 411//1
f 423//11 187//11 424//11
f 187//11 21//11 424//11
f 427//2 395//2 425//2
f 425//2 395//2 394//2
f 19//1 398//1 432//1
f 432//1 398//1 421//1
f 391//1 393//1 404//1
f 404//1 393//1 433//1
f 442//2 445//2 388//2
f 445//2 392//2 388//2
f 13//12 186//12 455//12
f 11//13 462//13 412//13
f 412//14 462//14 464//14
f 424//15 21//15 402//15
f 21//15 399//15 402//15
f 450//2 453//2 436//2
f 453//2 177//2 436//2
f 410//1 409//1 10//1
f 10//1 409//1 417//1
f 401//16 17//16 408//16
f 17//16 38//16 408//16
f 431//1 19//1 430//1
f 430//1 19//1 432//1
f 180//17 179//17 185//17
f 179//17 184//17 185//17
f 434//18 440//18 23//18
f 23//18 440//18 449//18
f 383//18 387//18 385//18
f 387//18 24//18 385//18
f 385//18 24//18 426//18
f 24//18 25//18 426//18
f 39//1 437//1 393//1
f 393//1 437//1 433//1
f 47//2 30//2 438//2
f 30//2 439//2 438//2
f 396//19 400//19 9//19
f 9//19 400//19 35//19
f 397//20 396//20 412//20
f 412//20 396//20 9//20
f 6//21 428//21 5//21
f 5//21 428//21 461//21
f 8//22 419//22 7//22
f 7//22 419//22 429//22
f 2//23 414//23 452//23
f 414//23 14//23 452//23
f 391//1 404//1 46//1
f 46//1 404//1 43//1
f 386//1 22//1 444//1
f 22//1 45//1 444//1
f 384//1 443//1 26//1
f 443//1 41//1 26//1
f 1//2 29//2 44//2
f 44//2 29//2 42//2
f 85//24 89//24 100//24
f 89//24 99//24 100//24
f 53//25 54//25 55//25
f 54//26 57//26 55//26
f 54//27 52//27 57//27
f 52//28 56//28 57//28
f 59//29 60//29 61//29
f 60//30 63//30 61//30
f 60//31 58//31 63//31
f 58//32 62//32 63//32
f 74//33 75//33 76//33
f 75//34 78//34 76//34
f 75//35 73//35 78//35
f 73//36 77//36 78//36
f 61//37 63//37 64//37
f 63//38 66//38 64//38
f 63//39 62//39 66//39
f 62//40 65//40 66//40
f 64//41 66//41 67//41
f 66//42 69//42 67//42
f 66//43 65//43 69//43
f 65//44 68//44 69//44
f 76//45 78//45 79//45
f 78//46 81//46 79//46
f 78//47 77//47 81//47
f 77//48 80//48 81//48
f 79//49 81//49 82//49
f 81//50 84//50 82//50
f 81//51 80//51 84//51
f 80//52 83//52 84//52
f 89//53 90//53 91//53
f 90//54 93//54 91//54
f 90//55 88//55 93//55
f 88//56 92//56 93//56
f 67//57 69//57 70//57
f 69//58 72//58 70//58
f 69//59 68//59 72//59
f 68//60 71//60 72//60
f 70//61 72//61 74//61
f 72//62 75//62 74//62
f 72//63 71//63 75//63
f 71//64 73//64 75//64
f 82//65 84//65 85//65
f 84//66 87//66 85//66
f 84//67 83//67 87//67
f 83//68 86//68 87//68
f 85//69 87//69 89//69
f 87//70 90//70 89//70
f 87//71 86//71 90//71
f 86//72 88//72 90//72
f 91//73 93//73 94//73
f 93//74 96//74 94//74
f 93//75 92//75 96//75
f 92//76 95//76 96//76
f 55//77 57//77 59//77
f 57//78 60//78 59//78
f 57//79 56//79 60//79
f 56//80 58//80 60//80
f 94//81 96//81 49//81
f 96//82 51//82 49//82
f 96//83 95//83 51//83
f 95//84 50//84 51//84
f 49//85 51//85 53//85
f 51//86 54//86 53//86
f 51//87 50//87 54//87
f 50//88 52//88 54//88
f 64//89 67//89 107//89
f 67//89 106//89 107//89
f 89//90 91//90 99//90
f 91//90 98//90 99//90
f 67//91 70//91 106//91
f 70//91 105//91 106//91
f 97//92 94//92 112//92
f 94//92 49//92 112//92
f 91//93 94//93 98//93
f 94//93 97//93 98//93
f 70//94 74//94 105//94
f 74//94 104//94 105//94
f 112//95 49//95 111//95
f 49//95 53//95 111//95
f 74//96 76//96 104//96
f 76//96 103//96 104//96
f 53//97 55//97 111//97
f 55//97 110//97 111//97
f 76//98 79//98 103//98
f 79//98 102//98 103//98
f 55//99 59//99 110//99
f 59//99 109//99 110//99
f 79//100 82//100 102//100
f 82//100 101//100 102//100
f 59//101 61//101 109//101
f 61//101 108//101 109//101
f 82//102 85//102 101//102
f 85//102 100//102 101//102
f 61//103 64//103 108//103
f 64//103 107//103 108//103
f 151//104 154//104 120//104
f 154//104 121//104 120//104
f 83//2 80//2 141//2
f 80//2 144//2 141//2
f 166//100 169//100 125//100
f 169//100 126//100 125//100
f 139//101 142//101 116//101
f 142//101 117//101 116//101
f 169//105 172//105 126//105
f 172//105 127//105 126//105
f 156//2 68//2 159//2
f 68//2 65//2 159//2
f 77//2 73//2 147//2
f 73//2 150//2 147//2
f 129//91 133//91 113//91
f 133//91 114//91 113//91
f 68//2 156//2 71//2
f 156//2 153//2 71//2
f 130//2 174//2 95//2
f 174//2 50//2 95//2
f 172//106 175//106 127//106
f 175//106 128//106 127//106
f 160//107 163//107 123//107
f 163//107 124//107 123//107
f 52//2 50//2 171//2
f 50//2 174//2 171//2
f 135//2 88//2 138//2
f 88//2 86//2 138//2
f 135//2 132//2 88//2
f 132//2 92//2 88//2
f 145//108 148//108 118//108
f 148//108 119//108 118//108
f 154//109 157//109 121//109
f 157//109 122//109 121//109
f 141//2 138//2 83//2
f 138//2 86//2 83//2
f 163//102 166//102 124//102
f 166//102 125//102 124//102
f 136//110 139//110 115//110
f 139//110 116//110 115//110
f 168//2 165//2 56//2
f 165//2 58//2 56//2
f 157//111 160//111 122//111
f 160//111 123//111 122//111
f 148//112 151//112 119//112
f 151//112 120//112 119//112
f 153//2 150//2 71//2
f 150//2 73//2 71//2
f 80//2 77//2 144//2
f 77//2 147//2 144//2
f 175//94 129//94 128//94
f 129//94 113//94 128//94
f 56//2 52//2 168//2
f 52//2 171//2 168//2
f 133//113 136//113 114//113
f 136//113 115//113 114//113
f 62//2 58//2 162//2
f 58//2 165//2 162//2
f 142//99 145//99 117//99
f 145//99 118//99 117//99
f 159//2 65//2 162//2
f 65//2 62//2 162//2
f 133//114 129//114 134//114
f 129//115 131//115 134//115
f 134//116 131//116 132//116
f 131//117 130//117 132//117
f 136//118 133//118 137//118
f 133//119 134//119 137//119
f 137//120 134//120 135//120
f 134//121 132//121 135//121
f 139//122 136//122 140//122
f 136//123 137//123 140//123
f 140//124 137//124 138//124
f 137//125 135//125 138//125
f 142//126 139//126 143//126
f 139//127 140//127 143//127
f 143//128 140//128 141//128
f 140//129 138//129 141//129
f 145//130 142//130 146//130
f 142//131 143//131 146//131
f 146//132 143//132 144//132
f 143//133 141//133 144//133
f 148//134 145//134 149//134
f 145//135 146//135 149//135
f 149//136 146//136 147//136
f 146//137 144//137 147//137
f 151//138 148//138 152//138
f 148//139 149//139 152//139
f 152//140 149//140 150//140
f 149//141 147//141 150//141
f 154//142 151//142 155//142
f 151//143 152//143 155//143
f 155//144 152//144 153//144
f 152//145 150//145 153//145
f 157//146 154//146 158//146
f 154//147 155//147 158//147
f 158//148 155//148 156//148
f 155//149 153//149 156//149
f 160//150 157//150 161//150
f 157//151 158//151 161//151
f 161//152 158//152 159//152
f 158//153 156//153 159//153
f 163//154 160//154 164//154
f 160//155 161//155 164//155
f 164//156 161//156 162//156
f 161//157 159//157 162//157
f 166//158 163//158 167//158
f 163//159 164//159 167//159
f 167//160 164//160 165//160
f 164//161 162//161 165//161
f 169//162 166//162 170//162
f 166//163 167//163 170//163
f 170//164 167//164 168//164
f 167//165 165//165 168//165
f 172//166 169//166 173//166
f 169//167 170//167 173//167
f 173//168 170//168 171//168
f 170//169 168//169 171//169
f 175//170 172//170 176//170
f 172//171 173//171 176//171
f 176//172 173//172 174//172
f 173//173 171//173 174//173
f 129//174 175//174 131//174
f 175//175 176//175 131//175
f 131//176 176//176 130//176
f 176//177 174//177 130//177
f 132//2 130//2 92//2
f 130//2 95//2 92//2
f 446//18 23//18 447//18
f 447//18 23//18 448//18
f 448//18 23//18 449//18
f 456//178 12//178 178//178
f 178//179 180//179 456//179
f 180//179 185//179 456//179
f 179//180 177//180 184//180
f 177//180 453//180 184//180
f 446//18 435//18 23//18
f 23//18 435//18 406//18
f 13//181 455//181 14//181
f 455//182 454//182 14//182
f 14//183 454//183 452//183
f 454//184 183//184 452//184
f 452//185 183//185 451//185
f 16//178 37//178 31//178
f 37//178 48//178 31//178
f 18//178 16//178 31//178
f 20//178 18//178 31//178
f 20//178 31//178 12//178
f 31//178 178//178 12//178
f 389//1 27//1 181//1
f 28//1 182//1 27//1
f 27//1 182//1 181//1
f 34//186 420//186 8//186
f 8//186 420//186 419//186
f 193//17 197//17 192//17
f 197//17 199//17 192//17
f 190//187 192//187 200//187
f 192//187 199//187 200//187
f 191//188 196//188 193//188
f 196//188 197//188 193//188
f 200//2 459//2 190//2
f 459//2 458//2 190//2
f 428//189 6//189 429//189
f 429//189 6//189 7//189
f 198//178 195//178 203//178
f 195//178 202//178 203//178
f 194//178 198//178 201//178
f 198//178 203//178 201//178
f 191//178 202//178 196//178
f 202//178 195//178 196//178
f 204//1 4//1 188//1
f 188//1 4//1 189//1
f 4//1 204//1 3//1
f 3//1 204//1 33//1
f 478//1 494//1 407//1
f 407//1 494//1 422//1
f 418//2 40//2 482//2
f 482//2 40//2 484//2
f 521//1 491//1 502//1
f 502//1 491//1 501//1
f 489//190 477//190 526//190
f 526//190 477//190 523//190
f 495//191 374//191 373//191
f 374//192 217//192 373//192
f 390//1 471//1 441//1
f 441//1 471//1 231//1
f 219//1 488//1 487//1
f 487//1 488//1 214//1
f 486//1 492//1 521//1
f 521//1 492//1 491//1
f 481//193 480//193 479//193
f 480//193 221//193 479//193
f 215//194 525//194 209//194
f 209//195 525//195 524//195
f 32//196 206//196 36//196
f 206//196 490//196 36//196
f 526//197 527//197 489//197
f 415//1 413//1 219//1
f 219//1 413//1 488//1
f 495//198 496//198 374//198
f 496//198 225//198 374//198
f 427//2 497//2 395//2
f 395//2 497//2 475//2
f 223//1 503//1 478//1
f 478//1 503//1 494//1
f 472//1 483//1 474//1
f 474//1 483//1 504//1
f 442//2 470//2 445//2
f 470//2 473//2 445//2
f 217//199 519//199 373//199
f 215//200 489//200 525//200
f 525//201 489//201 527//201
f 496//202 481//202 225//202
f 481//202 479//202 225//202
f 514//2 507//2 517//2
f 507//2 364//2 517//2
f 487//1 214//1 486//1
f 486//1 214//1 492//1
f 480//203 408//203 221//203
f 408//203 38//203 221//203
f 502//1 501//1 223//1
f 223//1 501//1 503//1
f 367//17 372//17 366//17
f 372//17 371//17 366//17
f 505//204 227//204 509//204
f 509//204 227//204 513//204
f 465//204 467//204 469//204
f 467//204 228//204 469//204
f 467//204 498//204 228//204
f 498//204 229//204 228//204
f 39//1 474//1 437//1
f 437//1 474//1 504//1
f 47//2 438//2 234//2
f 438//2 508//2 234//2
f 476//205 213//205 400//205
f 400//205 213//205 35//205
f 477//206 489//206 476//206
f 476//206 489//206 213//206
f 210//207 209//207 499//207
f 499//207 209//207 524//207
f 212//208 211//208 493//208
f 493//208 211//208 500//208
f 206//209 516//209 490//209
f 516//209 218//209 490//209
f 472//1 46//1 483//1
f 483//1 46//1 43//1
f 468//1 444//1 226//1
f 444//1 45//1 226//1
f 466//1 230//1 443//1
f 230//1 41//1 443//1
f 205//2 44//2 233//2
f 233//2 44//2 42//2
f 272//97 287//97 276//97
f 287//97 286//97 276//97
f 240//210 242//210 241//210
f 242//211 244//211 241//211
f 241//72 244//72 239//72
f 244//212 243//212 239//212
f 246//213 248//213 247//213
f 248//214 250//214 247//214
f 247//215 250//215 245//215
f 250//216 249//216 245//216
f 261//217 263//217 262//217
f 263//218 265//218 262//218
f 262//44 265//44 260//44
f 265//43 264//43 260//43
f 248//219 251//219 250//219
f 251//220 253//220 250//220
f 250//48 253//48 249//48
f 253//221 252//221 249//221
f 251//222 254//222 253//222
f 254//223 256//223 253//223
f 253//36 256//36 252//36
f 256//35 255//35 252//35
f 263//224 266//224 265//224
f 266//225 268//225 265//225
f 265//226 268//226 264//226
f 268//39 267//39 264//39
f 266//227 269//227 268//227
f 269//228 271//228 268//228
f 268//229 271//229 267//229
f 271//230 270//230 267//230
f 276//231 278//231 277//231
f 278//232 280//232 277//232
f 277//88 280//88 275//88
f 280//87 279//87 275//87
f 254//233 257//233 256//233
f 257//234 259//234 256//234
f 256//235 259//235 255//235
f 259//236 258//236 255//236
f 257//237 261//237 259//237
f 261//238 262//238 259//238
f 259//239 262//239 258//239
f 262//240 260//240 258//240
f 269//241 272//241 271//241
f 272//242 274//242 271//242
f 271//243 274//243 270//243
f 274//244 273//244 270//244
f 272//245 276//245 274//245
f 276//246 277//246 274//246
f 274//247 277//247 273//247
f 277//27 275//27 273//27
f 278//248 281//248 280//248
f 281//249 283//249 280//249
f 280//250 283//250 279//250
f 283//251 282//251 279//251
f 242//252 246//252 244//252
f 246//253 247//253 244//253
f 244//254 247//254 243//254
f 247//255 245//255 243//255
f 281//256 236//256 283//256
f 236//257 238//257 283//257
f 283//258 238//258 282//258
f 238//259 237//259 282//259
f 236//260 240//260 238//260
f 240//261 241//261 238//261
f 238//56 241//56 237//56
f 241//55 239//55 237//55
f 251//96 294//96 254//96
f 294//96 293//96 254//96
f 276//95 286//95 278//95
f 286//95 285//95 278//95
f 254//94 293//94 257//94
f 293//94 292//94 257//94
f 284//93 299//93 281//93
f 299//93 236//93 281//93
f 278//92 285//92 281//92
f 285//92 284//92 281//92
f 257//91 292//91 261//91
f 292//91 291//91 261//91
f 299//90 298//90 236//90
f 298//90 240//90 236//90
f 261//89 291//89 263//89
f 291//89 290//89 263//89
f 240//24 298//24 242//24
f 298//24 297//24 242//24
f 263//103 290//103 266//103
f 290//103 289//103 266//103
f 242//102 297//102 246//102
f 297//102 296//102 246//102
f 266//101 289//101 269//101
f 289//101 288//101 269//101
f 246//100 296//100 248//100
f 296//100 295//100 248//100
f 269//99 288//99 272//99
f 288//99 287//99 272//99
f 248//98 295//98 251//98
f 295//98 294//98 251//98
f 338//109 307//109 341//109
f 307//109 308//109 341//109
f 270//2 328//2 267//2
f 328//2 331//2 267//2
f 353//101 312//101 356//101
f 312//101 313//101 356//101
f 326//100 303//100 329//100
f 303//100 304//100 329//100
f 356//110 313//110 359//110
f 313//110 314//110 359//110
f 343//2 346//2 255//2
f 346//2 252//2 255//2
f 264//2 334//2 260//2
f 334//2 337//2 260//2
f 316//94 300//94 320//94
f 300//94 301//94 320//94
f 255//2 258//2 343//2
f 258//2 340//2 343//2
f 317//2 282//2 361//2
f 282//2 237//2 361//2
f 359//113 314//113 362//113
f 314//113 315//113 362//113
f 347//108 310//108 350//108
f 310//108 311//108 350//108
f 239//2 358//2 237//2
f 358//2 361//2 237//2
f 322//2 325//2 275//2
f 325//2 273//2 275//2
f 322//2 275//2 319//2
f 275//2 279//2 319//2
f 332//107 305//107 335//107
f 305//107 306//107 335//107
f 341//104 308//104 344//104
f 308//104 309//104 344//104
f 328//2 270//2 325//2
f 270//2 273//2 325//2
f 350//99 311//99 353//99
f 311//99 312//99 353//99
f 323//105 302//105 326//105
f 302//105 303//105 326//105
f 355//2 243//2 352//2
f 243//2 245//2 352//2
f 344//112 309//112 347//112
f 309//112 310//112 347//112
f 335//111 306//111 338//111
f 306//111 307//111 338//111
f 340//2 258//2 337//2
f 258//2 260//2 337//2
f 267//2 331//2 264//2
f 331//2 334//2 264//2
f 362//91 315//91 316//91
f 315//91 300//91 316//91
f 243//2 355//2 239//2
f 355//2 358//2 239//2
f 320//106 301//106 323//106
f 301//106 302//106 323//106
f 249//2 349//2 245//2
f 349//2 352//2 245//2
f 329//102 304//102 332//102
f 304//102 305//102 332//102
f 346//2 349//2 252//2
f 349//2 249//2 252//2
f 320//262 321//262 316//262
f 321//263 318//263 316//263
f 321//264 319//264 318//264
f 319//265 317//265 318//265
f 323//266 324//266 320//266
f 324//267 321//267 320//267
f 324//268 322//268 321//268
f 322//269 319//269 321//269
f 326//270 327//270 323//270
f 327//271 324//271 323//271
f 327//272 325//272 324//272
f 325//273 322//273 324//273
f 329//274 330//274 326//274
f 330//275 327//275 326//275
f 330//276 328//276 327//276
f 328//277 325//277 327//277
f 332//278 333//278 329//278
f 333//279 330//279 329//279
f 333//280 331//280 330//280
f 331//281 328//281 330//281
f 335//282 336//282 332//282
f 336//283 333//283 332//283
f 336//284 334//284 333//284
f 334//285 331//285 333//285
f 338//286 339//286 335//286
f 339//287 336//287 335//287
f 339//288 337//288 336//288
f 337//289 334//289 336//289
f 341//290 342//290 338//290
f 342//291 339//291 338//291
f 342//292 340//292 339//292
f 340//293 337//293 339//293
f 344//294 345//294 341//294
f 345//295 342//295 341//295
f 345//296 343//296 342//296
f 343//297 340//297 342//297
f 347//298 348//298 344//298
f 348//299 345//299 344//299
f 348//300 346//300 345//300
f 346//301 343//301 345//301
f 350//302 351//302 347//302
f 351//303 348//303 347//303
f 351//304 349//304 348//304
f 349//305 346//305 348//305
f 353//306 354//306 350//306
f 354//307 351//307 350//307
f 354//308 352//308 351//308
f 352//309 349//309 351//309
f 356//310 357//310 353//310
f 357//311 354//311 353//311
f 357//312 355//312 354//312
f 355//313 352//313 354//313
f 359//314 360//314 356//314
f 360//315 357//315 356//315
f 360//316 358//316 357//316
f 358//317 355//317 357//317
f 362//318 363//318 359//318
f 363//319 360//319 359//319
f 363//320 361//320 360//320
f 361//321 358//321 360//321
f 316//322 318//322 362//322
f 318//323 363//323 362//323
f 318//324 317//324 363//324
f 317//325 361//325 363//325
f 319//2 279//2 317//2
f 279//2 282//2 317//2
f 510//204 511//204 227//204
f 511//204 512//204 227//204
f 512//204 513//204 227//204
f 520//178 365//178 216//178
f 365//179 520//179 367//179
f 520//179 372//179 367//179
f 366//180 371//180 364//180
f 371//180 517//180 364//180
f 510//204 227//204 506//204
f 506//204 227//204 485//204
f 217//326 218//326 519//326
f 218//327 518//327 519//327
f 218//328 516//328 518//328
f 516//329 370//329 518//329
f 516//330 515//330 370//330
f 220//178 235//178 37//178
f 235//178 48//178 37//178
f 222//178 235//178 220//178
f 224//178 235//178 222//178
f 224//178 216//178 235//178
f 216//178 365//178 235//178
f 471//1 368//1 231//1
f 232//1 231//1 369//1
f 369//1 231//1 368//1
f 34//331 212//331 420//331
f 420//331 212//331 493//331
f 193//17 192//17 379//17
f 192//17 381//17 379//17
f 190//187 382//187 192//187
f 382//187 381//187 192//187
f 191//188 193//188 378//188
f 193//188 379//188 378//188
f 382//2 190//2 522//2
f 190//2 458//2 522//2
f 499//332 500//332 210//332
f 210//332 500//332 211//332
f 380//178 203//178 377//178
f 203//178 202//178 377//178
f 376//178 201//178 380//178
f 201//178 203//178 380//178
f 191//178 378//178 202//178
f 378//178 377//178 202//178
f 204//1 188//1 208//1
f 208//1 188//1 375//1
f 208//1 207//1 204//1
f 204//1 207//1 33//1
f 535//1 578//1 537//1
f 578//1 577//1 537//1
f 564//332 568//332 595//332
f 568//332 592//332 595//332
f 583//1 562//1 582//1
f 562//1 559//1 582//1
f 579//1 582//1 550//1
f 582//1 552//1 550//1
f 567//1 565//1 571//1
f 565//1 584//1 571//1
f 574//1 581//1 529//1
f 581//1 578//1 529//1
f 582//1 559//1 552//1
f 559//1 556//1 552//1
f 541//1 576//1 544//1
f 576//1 547//1 544//1
f 571//1 584//1 574//1
f 584//1 581//1 574//1
f 584//1 565//1 583//1
f 565//1 562//1 583//1
f 529//1 578//1 531//1
f 578//1 535//1 531//1
f 537//1 577//1 541//1
f 577//1 576//1 541//1
f 576//1 579//1 547//1
f 579//1 550//1 547//1
f 532//333 533//333 534//333
f 533//334 536//334 534//334
f 533//335 531//335 536//335
f 531//336 535//336 536//336
f 538//337 539//337 540//337
f 539//338 542//338 540//338
f 539//339 537//339 542//339
f 537//340 541//340 542//340
f 553//341 554//341 555//341
f 554//342 557//342 555//342
f 554//343 552//343 557//343
f 552//344 556//344 557//344
f 540//345 542//345 543//345
f 542//346 545//346 543//346
f 542//347 541//347 545//347
f 541//348 544//348 545//348
f 543//349 545//349 546//349
f 545//350 548//350 546//350
f 545//351 544//351 548//351
f 544//352 547//352 548//352
f 555//353 557//353 558//353
f 557//354 560//354 558//354
f 557//355 556//355 560//355
f 556//356 559//356 560//356
f 558//357 560//357 561//357
f 560//358 563//358 561//358
f 560//359 559//359 563//359
f 559//360 562//360 563//360
f 568//361 569//361 570//361
f 569//362 572//362 570//362
f 569//363 567//363 572//363
f 567//364 571//364 572//364
f 546//365 548//365 549//365
f 548//366 551//366 549//366
f 548//367 547//367 551//367
f 547//368 550//368 551//368
f 549//369 551//369 553//369
f 551//370 554//370 553//370
f 551//371 550//371 554//371
f 550//372 552//372 554//372
f 561//373 563//373 564//373
f 563//374 566//374 564//374
f 563//375 562//375 566//375
f 562//376 565//376 566//376
f 564//377 566//377 568//377
f 566//378 569//378 568//378
f 566//379 565//379 569//379
f 565//380 567//380 569//380
f 570//381 572//381 573//381
f 572//382 575//382 573//382
f 572//383 571//383 575//383
f 571//384 574//384 575//384
f 534//385 536//385 538//385
f 536//386 539//386 538//386
f 536//387 535//387 539//387
f 535//388 537//388 539//388
f 573//389 575//389 528//389
f 575//390 530//390 528//390
f 575//391 574//391 530//391
f 574//392 529//392 530//392
f 528//393 530//393 532//393
f 530//394 533//394 532//394
f 530//395 529//395 533//395
f 529//396 531//396 533//396
f 577//1 580//1 576//1
f 580//1 579//1 576//1
f 580//1 583//1 579//1
f 583//1 582//1 579//1
f 578//1 581//1 577//1
f 581//1 580//1 577//1
f 581//1 584//1 580//1
f 584//1 583//1 580//1
f 589//397 585//397 590//397
f 585//398 587//398 590//398
f 590//399 587//399 588//399
f 587//400 586//400 588//400
f 592//401 589//401 593//401
f 589//402 590//402 593//402
f 593//403 590//403 591//403
f 590//404 588//404 591//404
f 595//405 592//405 596//405
f 592//406 593//406 596//406
f 596//407 593//407 594//407
f 593//408 591//408 594//408
f 598//409 595//409 599//409
f 595//410 596//410 599//410
f 599//411 596//411 597//411
f 596//412 594//412 597//412
f 601//413 598//413 602//413
f 598//414 599//414 602//414
f 602//415 599//415 600//415
f 599//416 597//416 600//416
f 604//417 601//417 605//417
f 601//418 602//418 605//418
f 605//419 602//419 603//419
f 602//420 600//420 603//420
f 607//421 604//421 608//421
f 604//422 605//422 608//422
f 608//423 605//423 606//423
f 605//424 603//424 606//424
f 610//425 607//425 611//425
f 607//426 608//426 611//426
f 611//427 608//427 609//427
f 608//428 606//428 609//428
f 613//429 610//429 614//429
f 610//430 611//430 614//430
f 614//431 611//431 612//431
f 611//432 609//432 612//432
f 616//433 613//433 617//433
f 613//434 614//434 617//434
f 617//435 614//435 615//435
f 614//436 612//436 615//436
f 619//437 616//437 620//437
f 616//438 617//438 620//438
f 620//439 617//439 618//439
f 617//440 615//440 618//440
f 622//441 619//441 623//441
f 619//442 620//442 623//442
f 623//443 620//443 621//443
f 620//444 618//444 621//444
f 625//445 622//445 626//445
f 622//446 623//446 626//446
f 626//447 623//447 624//447
f 623//448 621//448 624//448
f 628//449 625//449 629//449
f 625//450 626//450 629//450
f 629//451 626//451 627//451
f 626//452 624//452 627//452
f 631//453 628//453 632//453
f 628//454 629//454 632//454
f 632//455 629//455 630//455
f 629//456 627//456 630//456
f 585//457 631//457 587//457
f 631//458 632//458 587//458
f 587//459 632//459 586//459
f 632//460 630//460 586//460
f 543//20 546//20 616//20
f 546//20 613//20 616//20
f 568//208 570//208 592//208
f 570//208 589//208 592//208
f 546//19 549//19 613//19
f 549//19 610//19 613//19
f 585//186 573//186 631//186
f 573//186 528//186 631//186
f 570//331 573//331 589//331
f 573//331 585//331 589//331
f 549//205 553//205 610//205
f 553//205 607//205 610//205
f 631//22 528//22 628//22
f 528//22 532//22 628//22
f 553//206 555//206 607//206
f 555//206 604//206 607//206
f 532//189 534//189 628//189
f 534//189 625//189 628//189
f 555//461 558//461 604//461
f 558//461 601//461 604//461
f 534//21 538//21 625//21
f 538//21 622//21 625//21
f 558//462 561//462 601//462
f 561//462 598//462 601//462
f 538//463 540//463 622//463
f 540//463 619//463 622//463
f 561//207 564//207 598//207
f 564//207 595//207 598//207
f 540//464 543//464 619//464
f 543//464 616//464 619//464
f 640//1 683//1 642//1
f 683//1 682//1 642//1
f 669//332 673//332 700//332
f 673//332 697//332 700//332
f 688//1 667//1 687//1
f 667//1 664//1 687//1
f 684//1 687//1 655//1
f 687//1 657//1 655//1
f 672//1 670//1 676//1
f 670//1 689//1 676//1
f 679//1 686//1 634//1
f 686//1 683//1 634//1
f 687//1 664//1 657//1
f 664//1 661//1 657//1
f 646//1 681//1 649//1
f 681//1 652//1 649//1
f 676//1 689//1 679//1
f 689//1 686//1 679//1
f 689//1 670//1 688//1
f 670//1 667//1 688//1
f 634//1 683//1 636//1
f 683//1 640//1 636//1
f 642//1 682//1 646//1
f 682//1 681//1 646//1
f 681//1 684//1 652//1
f 684//1 655//1 652//1
f 637//333 638//333 639//333
f 638//334 641//334 639//334
f 638//335 636//335 641//335
f 636//336 640//336 641//336
f 643//337 644//337 645//337
f 644//338 647//338 645//338
f 644//339 642//339 647//339
f 642//340 646//340 647//340
f 658//341 659//341 660//341
f 659//342 662//342 660//342
f 659//343 657//343 662//343
f 657//344 661//344 662//344
f 645//345 647//345 648//345
f 647//346 650//346 648//346
f 647//347 646//347 650//347
f 646//348 649//348 650//348
f 648//349 650//349 651//349
f 650//350 653//350 651//350
f 650//351 649//351 653//351
f 649//352 652//352 653//352
f 660//353 662//353 663//353
f 662//354 665//354 663//354
f 662//355 661//355 665//355
f 661//356 664//356 665//356
f 663//357 665//357 666//357
f 665//358 668//358 666//358
f 665//359 664//359 668//359
f 664//360 667//360 668//360
f 673//361 674//361 675//361
f 674//362 677//362 675//362
f 674//363 672//363 677//363
f 672//364 676//364 677//364
f 651//365 653//365 654//365
f 653//366 656//366 654//366
f 653//367 652//367 656//367
f 652//368 655//368 656//368
f 654//369 656//369 658//369
f 656//370 659//370 658//370
f 656//371 655//371 659//371
f 655//372 657//372 659//372
f 666//373 668//373 669//373
f 668//374 671//374 669//374
f 668//375 667//375 671//375
f 667//376 670//376 671//376
f 669//377 671//377 673//377
f 671//378 674//378 673//378
f 671//379 670//379 674//379
f 670//380 672//380 674//380
f 675//381 677//381 678//381
f 677//382 680//382 678//382
f 677//383 676//383 680//383
f 676//384 679//384 680//384
f 639//385 641//385 643//385
f 641//386 644//386 643//386
f 641//387 640//387 644//387
f 640//388 642//388 644//388
f 678//389 680//389 633//389
f 680//390 635//390 633//390
f 680//391 679//391 635//391
f 679//392 634//392 635//392
f 633//393 635//393 637//393
f 635//394 638//394 637//394
f 635//395 634//395 638//395
f 634//396 636//396 638//396
f 682//1 685//1 681//1
f 685//1 684//1 681//1
f 685//1 688//1 684//1
f 688//1 687//1 684//1
f 683//1 686//1 682//1
f 686//1 685//1 682//1
f 686//1 689//1 685//1
f 689//1 688//1 685//1
f 694//397 690//397 695//397
f 690//398 692//398 695//398
f 695//399 692//399 693//399
f 692//400 691//400 693//400
f 697//401 694//401 698//401
f 694//402 695//402 698//402
f 698//403 695//403 696//403
f 695//404 693//404 696//404
f 700//405 697//405 701//405
f 697//406 698//406 701//406
f 701//407 698//407 699//407
f 698//408 696//408 699//408
f 703//409 700//409 704//409
f 700//410 701//410 704//410
f 704//411 701//411 702//411
f 701//412 699//412 702//412
f 706//413 703//413 707//413
f 703//414 704//414 707//414
f 707//415 704//415 705//415
f 704//416 702//416 705//416
f 709//417 706//417 710//417
f 706//418 707//418 710//418
f 710//419 707//419 708//419
f 707//420 705//420 708//420
f 712//421 709//421 713//421
f 709//422 710//422 713//422
f 713//423 710//423 711//423
f 710//424 708//424 711//424
f 715//425 712//425 716//425
f 712//426 713//426 716//426
f 716//427 713//427 714//427
f 713//428 711//428 714//428
f 718//429 715//429 719//429
f 715//430 716//430 719//430
f 719//431 716//431 717//431
f 716//432 714//432 717//432
f 721//433 718//433 722//433
f 718//434 719//434 722//434
f 722//435 719//435 720//435
f 719//436 717//436 720//436
f 724//437 721//437 725//437
f 721//438 722//438 725//438
f 725//439 722//439 723//439
f 722//440 720//440 723//440
f 727//441 724//441 728//441
f 724//442 725//442 728//442
f 728//443 725//443 726//443
f 725//444 723//444 726//444
f 730//445 727//445 731//445
f 727//446 728//446 731//446
f 731//447 728//447 729//447
f 728//448 726//448 729//448
f 733//449 730//449 734//449
f 730//450 731//450 734//450
f 734//451 731//451 732//451
f 731//452 729//452 732//452
f 736//453 733//453 737//453
f 733//454 734//454 737//454
f 737//455 734//455 735//455
f 734//456 732//456 735//456
f 690//457 736//457 692//457
f 736//458 737//458 692//458
f 692//459 737//459 691//459
f 737//460 735//460 691//460
f 648//20 651//20 721//20
f 651//20 718//20 721//20
f 673//208 675//208 697//208
f 675//208 694//208 697//208
f 651//19 654//19 718//19
f 654//19 715//19 718//19
f 690//186 678//186 736//186
f 678//186 633//186 736//186
f 675//331 678//331 694//331
f 678//331 690//331 694//331
f 654//205 658//205 715//205
f 658//205 712//205 715//205
f 736//22 633//22 733//22
f 633//22 637//22 733//22
f 658//206 660//206 712//206
f 660//206 709//206 712//206
f 637//189 639//189 733//189
f 639//189 730//189 733//189
f 660//461 663//461 709//461
f 663//461 706//461 709//461
f 639//21 643//21 730//21
f 643//21 727//21 730//21
f 663//462 666//462 706//462
f 666//462 703//462 706//462
f 643//463 645//463 727//463
f 645//463 724//463 727//463
f 666//207 669//207 703//207
f 669//207 700//207 703//207
f 645//464 648//464 724//464
f 648//464 721//464 724//464
f 745//1 788//1 747//1
f 788//1 787//1 747//1
f 774//332 778//332 805//332
f 778//332 802//332 805//332
f 793//1 772//1 792//1
f 772//1 769//1 792//1
f 789//1 792//1 760//1
f 792//1 762//1 760//1
f 777//1 775//1 781//1
f 775//1 794//1 781//1
f 784//1 791//1 739//1
f 791//1 788//1 739//1
f 792//1 769//1 762//1
f 769//1 766//1 762//1
f 751//1 786//1 754//1
f 786//1 757//1 754//1
f 781//1 794//1 784//1
f 794//1 791//1 784//1
f 794//1 775//1 793//1
f 775//1 772//1 793//1
f 739//1 788//1 741//1
f 788//1 745//1 741//1
f 747//1 787//1 751//1
f 787//1 786//1 751//1
f 786//1 789//1 757//1
f 789//1 760//1 757//1
f 742//333 743//333 744//333
f 743//334 746//334 744//334
f 743//335 741//335 746//335
f 741//336 745//336 746//336
f 748//337 749//337 750//337
f 749//338 752//338 750//338
f 749//339 747//339 752//339
f 747//340 751//340 752//340
f 763//341 764//341 765//341
f 764//342 767//342 765//342
f 764//343 762//343 767//343
f 762//344 766//344 767//344
f 750//345 752//345 753//345
f 752//346 755//346 753//346
f 752//347 751//347 755//347
f 751//348 754//348 755//348
f 753//349 755//349 756//349
f 755//350 758//350 756//350
f 755//351 754//351 758//351
f 754//352 757//352 758//352
f 765//353 767//353 768//353
f 767//354 770//354 768//354
f 767//355 766//355 770//355
f 766//356 769//356 770//356
f 768//357 770//357 771//357
f 770//358 773//358 771//358
f 770//359 769//359 773//359
f 769//360 772//360 773//360
f 778//361 779//361 780//361
f 779//362 782//362 780//362
f 779//363 777//363 782//363
f 777//364 781//364 782//364
f 756//365 758//365 759//365
f 758//366 761//366 759//366
f 758//367 757//367 761//367
f 757//368 760//368 761//368
f 759//369 761//369 763//369
f 761//370 764//370 763//370
f 761//371 760//371 764//371
f 760//372 762//372 764//372
f 771//373 773//373 774//373
f 773//374 776//374 774//374
f 773//375 772//375 776//375
f 772//376 775//376 776//376
f 774//377 776//377 778//377
f 776//378 779//378 778//378
f 776//379 775//379 779//379
f 775//380 777//380 779//380
f 780//381 782//381 783//381
f 782//382 785//382 783//382
f 782//383 781//383 785//383
f 781//384 784//384 785//384
f 744//385 746//385 748//385
f 746//386 749//386 748//386
f 746//387 745//387 749//387
f 745//388 747//388 749//388
f 783//389 785//389 738//389
f 785//390 740//390 738//390
f 785//391 784//391 740//391
f 784//392 739//392 740//392
f 738//393 740//393 742//393
f 740//394 743//394 742//394
f 740//395 739//395 743//395
f 739//396 741//396 743//396
f 787//1 790//1 786//1
f 790//1 789//1 786//1
f 790//1 793//1 789//1
f 793//1 792//1 789//1
f 788//1 791//1 787//1
f 791//1 790//1 787//1
f 791//1 794//1 790//1
f 794//1 793//1 790//1
f 799//397 795//397 800//397
f 795//398 797//398 800//398
f 800//399 797//399 798//399
f 797//400 796//400 798//400
f 802//401 799//401 803//401
f 799//402 800//402 803//402
f 803//403 800//403 801//403
f 800//404 798//404 801//404
f 805//405 802//405 806//405
f 802//465 803//465 806//465
f 806//407 803//407 804//407
f 803//408 801//408 804//408
f 808//409 805//409 809//409
f 805//410 806//410 809//410
f 809//411 806//411 807//411
f 806//412 804//412 807//412
f 811//413 808//413 812//413
f 808//414 809//414 812//414
f 812//415 809//415 810//415
f 809//416 807//416 810//416
f 814//417 811//417 815//417
f 811//418 812//418 815//418
f 815//419 812//419 813//419
f 812//420 810//420 813//420
f 817//421 814//421 818//421
f 814//422 815//422 818//422
f 818//423 815//423 816//423
f 815//424 813//424 816//424
f 820//425 817//425 821//425
f 817//426 818//426 821//426
f 821//427 818//427 819//427
f 818//428 816//428 819//428
f 823//429 820//429 824//429
f 820//430 821//430 824//430
f 824//431 821//431 822//431
f 821//432 819//432 822//432
f 826//433 823//433 827//433
f 823//434 824//434 827//434
f 827//435 824//435 825//435
f 824//436 822//436 825//436
f 829//437 826//437 830//437
f 826//438 827//438 830//438
f 830//439 827//439 828//439
f 827//440 825//440 828//440
f 832//441 829//441 833//441
f 829//442 830//442 833//442
f 833//466 830//466 831//466
f 830//444 828//444 831//444
f 835//445 832//445 836//445
f 832//446 833//446 836//446
f 836//447 833//447 834//447
f 833//448 831//448 834//448
f 838//449 835//449 839//449
f 835//450 836//450 839//450
f 839//467 836//467 837//467
f 836//452 834//452 837//452
f 841//453 838//453 842//453
f 838//468 839//468 842//468
f 842//455 839//455 840//455
f 839//456 837//456 840//456
f 795//469 841//469 797//469
f 841//458 842//458 797//458
f 797//459 842//459 796//459
f 842//460 840//460 796//460
f 753//20 756//20 826//20
f 756//20 823//20 826//20
f 778//208 780//208 802//208
f 780//208 799//208 802//208
f 756//19 759//19 823//19
f 759//19 820//19 823//19
f 795//186 783//186 841//186
f 783//186 738//186 841//186
f 780//331 783//331 799//331
f 783//331 795//331 799//331
f 759//205 763//205 820//205
f 763//205 817//205 820//205
f 841//22 738//22 838//22
f 738//22 742//22 838//22
f 763//206 765//206 817//206
f 765//206 814//206 817//206
f 742//189 744//189 838//189
f 744//189 835//189 838//189
f 765//461 768//461 814//461
f 768//461 811//461 814//461
f 744//21 748//21 835//21
f 748//21 832//21 835//21
f 768//462 771//462 811//462
f 771//462 808//462 811//462
f 748//463 750//463 832//463
f 750//463 829//463 832//463
f 771//207 774//207 808//207
f 774//207 805//207 808//207
f 750//464 753//464 829//464
f 753//464 826//464 829//464
f 850//1 893//1 852//1
f 893//1 892//1 852//1
f 879//332 883//332 910//332
f 883//332 907//332 910//332
f 898//1 877//1 897//1
f 877//1 874//1 897//1
f 894//1 897//1 865//1
f 897//1 867//1 865//1
f 882//1 880//1 886//1
f 880//1 899//1 886//1
f 889//1 896//1 844//1
f 896//1 893//1 844//1
f 897//1 874//1 867//1
f 874//1 871//1 867//1
f 856//1 891//1 859//1
f 891//1 862//1 859//1
f 886//1 899//1 889//1
f 899//1 896//1 889//1
f 899//1 880//1 898//1
f 880//1 877//1 898//1
f 844//1 893//1 846//1
f 893//1 850//1 846//1
f 852//1 892//1 856//1
f 892//1 891//1 856//1
f 891//1 894//1 862//1
f 894//1 865//1 862//1
f 847//333 848//333 849//333
f 848//334 851//334 849//334
f 848//335 846//335 851//335
f 846//336 850//336 851//336
f 853//337 854//337 855//337
f 854//338 857//338 855//338
f 854//339 852//339 857//339
f 852//340 856//340 857//340
f 868//341 869//341 870//341
f 869//342 872//342 870//342
f 869//343 867//343 872//343
f 867//344 871//344 872//344
f 855//345 857//345 858//345
f 857//346 860//346 858//346
f 857//347 856//347 860//347
f 856//348 859//348 860//348
f 858//349 860//349 861//349
f 860//350 863//350 861//350
f 860//351 859//351 863//351
f 859//352 862//352 863//352
f 870//353 872//353 873//353
f 872//354 875//354 873//354
f 872//355 871//355 875//355
f 871//356 874//356 875//356
f 873//357 875//357 876//357
f 875//358 878//358 876//358
f 875//359 874//359 878//359
f 874//360 877//360 878//360
f 883//361 884//361 885//361
f 884//362 887//362 885//362
f 884//363 882//363 887//363
f 882//364 886//364 887//364
f 861//365 863//365 864//365
f 863//366 866//366 864//366
f 863//367 862//367 866//367
f 862//368 865//368 866//368
f 864//369 866//369 868//369
f 866//370 869//370 868//370
f 866//371 865//371 869//371
f 865//372 867//372 869//372
f 876//373 878//373 879//373
f 878//374 881//374 879//374
f 878//375 877//375 881//375
f 877//376 880//376 881//376
f 879//377 881//377 883//377
f 881//378 884//378 883//378
f 881//379 880//379 884//379
f 880//380 882//380 884//380
f 885//381 887//381 888//381
f 887//382 890//382 888//382
f 887//383 886//383 890//383
f 886//384 889//384 890//384
f 849//385 851//385 853//385
f 851//386 854//386 853//386
f 851//387 850//387 854//387
f 850//388 852//388 854//388
f 888//389 890//389 843//389
f 890//390 845//390 843//390
f 890//391 889//391 845//391
f 889//392 844//392 845//392
f 843//393 845//393 847//393
f 845//394 848//394 847//394
f 845//395 844//395 848//395
f 844//396 846//396 848//396
f 892//1 895//1 891//1
f 895//1 894//1 891//1
f 895//1 898//1 894//1
f 898//1 897//1 894//1
f 893//1 896//1 892//1
f 896//1 895//1 892//1
f 896//1 899//1 895//1
f 899//1 898//1 895//1
f 904//397 900//397 905//397
f 900//398 902//398 905//398
f 905//399 902//399 903//399
f 902//400 901//400 903//400
f 907//401 904//401 908//401
f 904//402 905//402 908//402
f 908//403 905//403 906//403
f 905//404 903//404 906//404
f 910//405 907//405 911//405
f 907//406 908//406 911//406
f 911//407 908//407 909//407
f 908//408 906//408 909//408
f 913//409 910//409 914//409
f 910//410 911//410 914//410
f 914//411 911//411 912//411
f 911//412 909//412 912//412
f 916//413 913//413 917//413
f 913//414 914//414 917//414
f 917//415 914//415 915//415
f 914//416 912//416 915//416
f 919//417 916//417 920//417
f 916//418 917//418 920//418
f 920//470 917//470 918//470
f 917//420 915//420 918//420
f 922//421 919//421 923//421
f 919//422 920//422 923//422
f 923//423 920//423 921//423
f 920//424 918//424 921//424
f 925//471 922//471 926//471
f 922//426 923//426 926//426
f 926//427 923//427 924//427
f 923//428 921//428 924//428
f 928//429 925//429 929//429
f 925//430 926//430 929//430
f 929//431 926//431 927//431
f 926//432 924//432 927//432
f 931//433 928//433 932//433
f 928//434 929//434 932//434
f 932//435 929//435 930//435
f 929//436 927//436 930//436
f 934//437 931//437 935//437
f 931//472 932//472 935//472
f 935//439 932//439 933//439
f 932//440 930//440 933//440
f 937//441 934//441 938//441
f 934//442 935//442 938//442
f 938//466 935//466 936//466
f 935//444 933//444 936//444
f 940//445 937//445 941//445
f 937//446 938//446 941//446
f 941//447 938//447 939//447
f 938//448 936//448 939//448
f 943//449 940//449 944//449
f 940//450 941//450 944//450
f 944//451 941//451 942//451
f 941//452 939//452 942//452
f 946//453 943//453 947//453
f 943//468 944//468 947//468
f 947//455 944//455 945//455
f 944//456 942//456 945//456
f 900//457 946//457 902//457
f 946//458 947//458 902//458
f 902//459 947//459 901//459
f 947//460 945//460 901//460
f 858//20 861//20 931//20
f 861//20 928//20 931//20
f 883//208 885//208 907//208
f 885//208 904//208 907//208
f 861//19 864//19 928//19
f 864//19 925//19 928//19
f 900//186 888//186 946//186
f 888//186 843//186 946//186
f 885//331 888//331 904//331
f 888//331 900//331 904//331
f 864//205 868//205 925//205
f 868//205 922//205 925//205
f 946//22 843//22 943//22
f 843//22 847//22 943//22
f 868//206 870//206 922//206
f 870//206 919//206 922//206
f 847//189 849//189 943//189
f 849//189 940//189 943//189
f 870//461 873//461 919//461
f 873//461 916//461 919//461
f 849//21 853//21 940//21
f 853//21 937//21 940//21
f 873//462 876//462 916//462
f 876//462 913//462 916//462
f 853//463 855//463 937//463
f 855//463 934//463 937//463
f 876//207 879//207 913//207
f 879//207 910//207 913//207
f 855//464 858//464 934//464
f 858//464 931//464 934//464
