# Blender 4.3.2
# www.blender.org
mtllib slab.mtl
o Part.4
v 16.500000 14.359999 -7.960001
v 16.500000 6.440000 -7.960001
v 16.500000 6.440001 7.960000
v 16.500000 14.360001 7.959999
v 16.500000 14.000001 7.599999
v 16.500000 6.800001 7.599999
v 16.500000 6.800000 -7.600000
v 16.500000 13.999999 -7.600001
v 16.020000 13.999999 -7.600001
v 16.020000 6.800000 -7.600000
v 16.020000 6.800001 7.599999
v 16.020000 14.000001 7.599999
v 16.020000 12.800001 6.399999
v 16.020000 8.000001 6.400000
v 16.020000 8.000000 -6.400001
v 16.020000 12.799999 -6.400001
v 18.200001 12.799999 -6.400001
v 18.200001 8.000000 -6.400001
v 18.200001 8.000001 6.400000
v 18.200001 12.800001 6.399999
v 19.180000 14.060001 7.659999
v 18.879999 14.360001 7.959999
v 19.180000 6.740000 7.659999
v 18.879999 6.440001 7.960000
v 19.180000 6.739999 -7.660000
v 18.879999 6.440000 -7.960001
v 19.180000 14.059999 -7.660001
v 18.879999 14.359999 -7.960001
v 16.500000 6.440000 -7.960001
v 16.500000 6.440000 -7.960001
v 16.500000 6.440001 7.960000
v 16.500000 6.440001 7.960000
v 16.500000 14.359999 -7.960001
v 16.500000 14.359999 -7.960001
v 16.500000 14.360001 7.959999
v 16.500000 14.360001 7.959999
v 16.500000 14.000001 7.599999
v 16.500000 14.000001 7.599999
v 16.500000 6.800001 7.599999
v 16.500000 6.800001 7.599999
v 16.500000 13.999999 -7.600001
v 16.500000 13.999999 -7.600001
v 16.500000 6.800000 -7.600000
v 16.500000 6.800000 -7.600000
v 16.020000 6.800000 -7.600000
v 16.020000 6.800000 -7.600000
v 16.020000 6.800001 7.599999
v 16.020000 6.800001 7.599999
v 16.020000 13.999999 -7.600001
v 16.020000 13.999999 -7.600001
v 16.020000 14.000001 7.599999
v 16.020000 14.000001 7.599999
v 16.020000 12.800001 6.399999
v 16.020000 12.800001 6.399999
v 16.020000 8.000001 6.400000
v 16.020000 8.000001 6.400000
v 16.020000 12.799999 -6.400001
v 16.020000 12.799999 -6.400001
v 16.020000 8.000000 -6.400001
v 16.020000 8.000000 -6.400001
v 18.200001 8.000000 -6.400001
v 18.200001 8.000000 -6.400001
v 18.200001 8.000001 6.400000
v 18.200001 8.000001 6.400000
v 18.200001 12.799999 -6.400001
v 18.200001 12.799999 -6.400001
v 18.200001 12.800001 6.399999
v 18.200001 12.800001 6.399999
v 19.180000 14.060001 7.659999
v 19.180000 14.060001 7.659999
v 18.879999 14.360001 7.959999
v 18.879999 14.360001 7.959999
v 18.879999 14.360001 7.959999
v 18.879999 6.440001 7.960000
v 18.879999 6.440001 7.960000
v 18.879999 6.440001 7.960000
v 19.180000 6.740000 7.659999
v 19.180000 6.740000 7.659999
v 19.180000 14.059999 -7.660001
v 19.180000 14.059999 -7.660001
v 18.879999 14.359999 -7.960001
v 18.879999 14.359999 -7.960001
v 18.879999 14.359999 -7.960001
v 19.180000 6.739999 -7.660000
v 19.180000 6.739999 -7.660000
v 18.879999 6.440000 -7.960001
v 18.879999 6.440000 -7.960001
v 18.879999 6.440000 -7.960001
vn 1.0000 -0.0000 -0.0000
vn -0.0000 -0.0000 1.0000
vn -0.0000 -0.0000 -1.0000
vn -0.0000 1.0000 -0.0000
vn 0.7071 -0.0000 0.7071
vn 0.7071 0.7071 -0.0000
vn 0.7071 -0.0000 -0.7071
vn 0.7071 -0.7071 -0.0000
s 0
usemtl MB_192.001
f 78//1 85//1 70//1
f 85//1 79//1 70//1
f 32//2 74//2 36//2
f 74//2 72//2 36//2
f 33//3 82//3 30//3
f 82//3 87//3 30//3
f 29//4 31//4 88//4
f 88//4 31//4 76//4
f 35//1 3//1 37//1
f 37//1 3//1 39//1
f 34//1 35//1 41//1
f 41//1 35//1 37//1
f 41//1 43//1 34//1
f 34//1 43//1 2//1
f 3//1 2//1 39//1
f 39//1 2//1 43//1
f 40//4 44//4 47//4
f 47//4 44//4 45//4
f 7//3 46//3 42//3
f 46//3 49//3 42//3
f 8//4 50//4 38//4
f 50//4 51//4 38//4
f 5//2 52//2 6//2
f 52//2 48//2 6//2
f 12//1 11//1 53//1
f 53//1 11//1 55//1
f 9//1 12//1 57//1
f 57//1 12//1 53//1
f 10//1 9//1 59//1
f 59//1 9//1 57//1
f 11//1 10//1 55//1
f 55//1 10//1 59//1
f 56//4 63//4 60//4
f 63//4 61//4 60//4
f 15//3 58//3 62//3
f 62//3 58//3 65//3
f 16//4 54//4 66//4
f 66//4 54//4 67//4
f 13//2 14//2 68//2
f 68//2 14//2 64//2
f 17//1 20//1 18//1
f 18//1 20//1 19//1
f 71//5 75//5 69//5
f 75//5 77//5 69//5
f 21//6 80//6 73//6
f 80//6 81//6 73//6
f 86//7 28//7 84//7
f 28//7 27//7 84//7
f 24//8 26//8 23//8
f 26//8 25//8 23//8
f 83//4 1//4 22//4
f 1//4 4//4 22//4
