# Blender 4.3.2
# www.blender.org
mtllib flatPlate.mtl
o Part.1
v 15.960000 0.500001 7.960000
v 15.600000 0.500001 7.600000
v 15.600000 0.020001 7.600000
v 14.400000 0.020000 6.400000
v 14.400000 2.100000 6.400000
v 15.960000 2.880001 5.400000
v 14.400000 0.020000 5.400000
v 15.660000 3.180001 7.659999
v 15.960000 2.880001 7.960000
v 15.600000 0.500000 5.400000
v 13.400000 3.180001 5.400000
v 13.400000 2.100000 5.400000
v 15.660000 3.180001 5.400000
v 14.400000 2.100000 5.400000
v 15.600000 0.020000 5.400000
v 15.960000 0.500000 5.400000
v 13.400000 3.180001 7.659999
v 13.400000 2.100000 6.400000
v 13.400000 0.020001 7.600000
v 13.400000 0.500001 7.960000
v 13.400000 2.880001 7.960000
v 13.400000 0.020000 6.400000
v 13.400000 0.500001 7.600000
v -15.960000 0.500001 7.960000
v -15.600000 0.500001 7.600000
v -15.600000 0.020001 7.600000
v -14.400000 0.020000 6.400000
v -14.400000 2.100000 6.400000
v 0.000000 3.180001 5.400000
v 0.000000 2.100000 5.400000
v -15.960000 2.880001 5.400000
v -14.400000 0.020000 5.400000
v -15.660000 3.180001 7.659999
v -15.960000 2.880001 7.960000
v -15.600000 0.500000 5.400000
v -13.400000 3.180001 5.400000
v 0.000000 0.500001 7.960000
v -13.400000 2.100000 5.400000
v -15.660000 3.180001 5.400000
v 0.000000 0.500001 7.600000
v 0.000000 0.020001 7.600000
v -14.400000 2.100000 5.400000
v -15.600000 0.020000 5.400000
v 0.000000 0.020000 6.400000
v 0.000000 2.100000 6.400000
v -15.960000 0.500000 5.400000
v 0.000000 2.880001 7.960000
v 0.000000 3.180001 7.659999
v -13.400000 3.180001 7.659999
v -13.400000 2.100000 6.400000
v -13.400000 0.020001 7.600000
v -13.400000 0.500001 7.960000
v -13.400000 2.880001 7.960000
v -13.400000 0.020000 6.400000
v -13.400000 0.500001 7.600000
v 15.960000 0.499999 -7.960000
v 15.600000 0.499999 -7.600000
v 15.600000 0.019999 -7.600000
v 14.400000 0.020000 -6.400000
v 14.400000 2.099999 -6.400000
v 15.960000 2.880000 -5.400000
v 14.400000 0.020000 -5.400000
v 15.660000 3.180000 -7.660000
v 15.960000 2.879999 -7.960000
v 15.600000 0.500000 -5.400000
v 13.400000 3.180000 -5.400001
v 13.400000 2.099999 -5.400000
v 15.660000 3.180000 -5.400001
v 14.400000 2.099999 -5.400000
v 15.600000 0.020000 -5.400000
v 15.960000 0.500000 -5.400000
v 13.400000 3.180000 -0.000000
v 13.400000 2.100000 -0.000000
v 15.960000 0.500000 -0.000000
v 13.400000 3.180000 -7.660000
v 13.400000 2.099999 -6.400000
v 15.600000 0.500000 -0.000000
v 15.600000 0.020000 -0.000000
v 13.400000 0.019999 -7.600000
v 13.400000 0.499999 -7.960000
v 14.400000 0.020000 -0.000000
v 14.400000 2.100000 -0.000000
v 13.400000 2.879999 -7.960000
v 13.400000 0.020000 -6.400000
v 13.400000 0.499999 -7.600000
v 15.960000 2.880000 -0.000000
v 15.660000 3.180000 -0.000000
v -15.960000 0.499999 -7.960000
v -15.600000 0.499999 -7.600000
v -15.600000 0.019999 -7.600000
v -14.400000 0.020000 -6.400000
v -14.400000 2.099999 -6.400000
v 0.000000 3.180000 -5.400001
v 0.000000 2.099999 -5.400000
v -15.960000 2.880000 -5.400000
v -14.400000 0.020000 -5.400000
v -15.660000 3.180000 -7.660000
v -15.960000 2.879999 -7.960000
v -15.600000 0.500000 -5.400000
v -13.400000 3.180000 -5.400001
v 0.000000 0.499999 -7.960000
v -13.400000 2.099999 -5.400000
v -15.660000 3.180000 -5.400001
v 0.000000 0.499999 -7.600000
v 0.000000 0.019999 -7.600000
v -14.400000 2.099999 -5.400000
v -15.600000 0.020000 -5.400000
v 0.000000 0.020000 -6.400000
v 0.000000 2.099999 -6.400000
v -15.960000 0.500000 -5.400000
v -13.400000 3.180000 -0.000000
v -13.400000 2.100000 -0.000000
v 0.000000 2.879999 -7.960000
v 0.000000 3.180000 -7.660000
v -15.960000 0.500000 -0.000000
v -13.400000 3.180000 -7.660000
v -13.400000 2.099999 -6.400000
v -15.600000 0.500000 -0.000000
v -15.600000 0.020000 -0.000000
v -13.400000 0.019999 -7.600000
v -13.400000 0.499999 -7.960000
v -14.400000 0.020000 -0.000000
v -14.400000 2.100000 -0.000000
v -13.400000 2.879999 -7.960000
v -13.400000 0.020000 -6.400000
v -13.400000 0.499999 -7.600000
v -15.960000 2.880000 -0.000000
v -15.660000 3.180000 -0.000000
v 0.000000 2.100000 -0.000000
v 0.000000 3.180000 -0.000000
v 15.960000 0.500000 5.400000
v 15.960000 0.500001 7.960000
v 15.960000 0.500001 7.960000
v 13.400000 0.500001 7.600000
v 15.600000 0.500001 7.600000
v 15.600000 0.500001 7.600000
v 15.600000 0.020001 7.600000
v 15.600000 0.020001 7.600000
v 15.600000 0.020000 5.400000
v 13.400000 0.020000 6.400000
v 14.400000 0.020000 6.400000
v 14.400000 0.020000 6.400000
v 14.400000 2.100000 6.400000
v 14.400000 2.100000 6.400000
v 14.400000 2.100000 5.400000
v 15.960000 2.880001 7.960000
v 15.960000 2.880001 7.960000
v 15.960000 2.880001 7.960000
v 15.960000 2.880001 5.400000
v 15.660000 3.180000 -0.000000
v 15.660000 3.180001 5.400000
v 14.400000 2.100000 -0.000000
v 15.660000 3.180001 7.659999
v 15.660000 3.180001 7.659999
v 15.960000 0.500000 -0.000000
v 13.400000 2.880001 7.960000
v 14.400000 0.020000 5.400000
v 13.400000 0.500001 7.960000
v 0.000000 0.500001 7.960000
v 13.400000 0.020001 7.600000
v 0.000000 0.020001 7.600000
v 13.400000 2.100000 6.400000
v 0.000000 2.100000 6.400000
v 13.400000 3.180001 7.659999
v 0.000000 3.180001 7.659999
v 15.600000 0.500000 5.400000
v 15.600000 0.500000 -0.000000
v 14.400000 0.020000 -0.000000
v 15.960000 2.880000 -0.000000
v 15.600000 0.020000 -0.000000
v 0.000000 0.500001 7.600000
v 0.000000 0.020000 6.400000
v 0.000000 2.880001 7.960000
v -15.960000 0.500000 5.400000
v -15.960000 0.500001 7.960000
v -15.960000 0.500001 7.960000
v -13.400000 0.500001 7.600000
v -15.600000 0.500001 7.600000
v -15.600000 0.500001 7.600000
v -15.600000 0.020001 7.600000
v -15.600000 0.020001 7.600000
v -15.600000 0.020000 5.400000
v -13.400000 0.020000 6.400000
v -14.400000 0.020000 6.400000
v -14.400000 0.020000 6.400000
v -14.400000 2.100000 6.400000
v -14.400000 2.100000 6.400000
v -14.400000 2.100000 5.400000
v -15.960000 2.880001 7.960000
v -15.960000 2.880001 7.960000
v -15.960000 2.880001 7.960000
v -15.960000 2.880001 5.400000
v -15.660000 3.180000 -0.000000
v -15.660000 3.180001 5.400000
v -14.400000 2.100000 -0.000000
v -15.660000 3.180001 7.659999
v -15.660000 3.180001 7.659999
v -15.960000 0.500000 -0.000000
v -13.400000 2.880001 7.960000
v -14.400000 0.020000 5.400000
v -13.400000 0.500001 7.960000
v -13.400000 0.020001 7.600000
v -13.400000 2.100000 6.400000
v -13.400000 3.180001 7.659999
v -15.600000 0.500000 5.400000
v -15.600000 0.500000 -0.000000
v -14.400000 0.020000 -0.000000
v -15.960000 2.880000 -0.000000
v -15.600000 0.020000 -0.000000
v 15.960000 0.500000 -5.400000
v 15.960000 0.499999 -7.960000
v 15.960000 0.499999 -7.960000
v 13.400000 0.499999 -7.600000
v 15.600000 0.499999 -7.600000
v 15.600000 0.499999 -7.600000
v 15.600000 0.019999 -7.600000
v 15.600000 0.019999 -7.600000
v 15.600000 0.020000 -5.400000
v 13.400000 0.020000 -6.400000
v 14.400000 0.020000 -6.400000
v 14.400000 0.020000 -6.400000
v 14.400000 2.099999 -6.400000
v 14.400000 2.099999 -6.400000
v 14.400000 2.099999 -5.400000
v 15.960000 2.879999 -7.960000
v 15.960000 2.879999 -7.960000
v 15.960000 2.879999 -7.960000
v 15.960000 2.880000 -5.400000
v 15.660000 3.180000 -5.400001
v 15.660000 3.180000 -7.660000
v 15.660000 3.180000 -7.660000
v 13.400000 2.879999 -7.960000
v 14.400000 0.020000 -5.400000
v 13.400000 0.499999 -7.960000
v 0.000000 0.499999 -7.960000
v 13.400000 0.019999 -7.600000
v 0.000000 0.019999 -7.600000
v 13.400000 2.099999 -6.400000
v 0.000000 2.099999 -6.400000
v 13.400000 3.180000 -7.660000
v 0.000000 3.180000 -7.660000
v 15.600000 0.500000 -5.400000
v 0.000000 0.499999 -7.600000
v 0.000000 0.020000 -6.400000
v 0.000000 2.879999 -7.960000
v -15.960000 0.500000 -5.400000
v -15.960000 0.499999 -7.960000
v -15.960000 0.499999 -7.960000
v -13.400000 0.499999 -7.600000
v -15.600000 0.499999 -7.600000
v -15.600000 0.499999 -7.600000
v -15.600000 0.019999 -7.600000
v -15.600000 0.019999 -7.600000
v -15.600000 0.020000 -5.400000
v -13.400000 0.020000 -6.400000
v -14.400000 0.020000 -6.400000
v -14.400000 0.020000 -6.400000
v -14.400000 2.099999 -6.400000
v -14.400000 2.099999 -6.400000
v -14.400000 2.099999 -5.400000
v -15.960000 2.879999 -7.960000
v -15.960000 2.879999 -7.960000
v -15.960000 2.879999 -7.960000
v -15.960000 2.880000 -5.400000
v -15.660000 3.180000 -5.400001
v -15.660000 3.180000 -7.660000
v -15.660000 3.180000 -7.660000
v -13.400000 2.879999 -7.960000
v -14.400000 0.020000 -5.400000
v -13.400000 0.499999 -7.960000
v -13.400000 0.019999 -7.600000
v -13.400000 2.099999 -6.400000
v -13.400000 3.180000 -7.660000
v -15.600000 0.500000 -5.400000
v -8.000000 2.100000 -3.250000
v -9.244000 2.100000 -3.003000
v -10.298000 2.100000 -2.298000
v -11.003000 2.100000 -1.244000
v -11.250000 2.100000 -0.000000
v -11.003000 2.100000 1.244000
v -10.298000 2.100000 2.298000
v -9.244000 2.100000 3.003000
v -8.000000 2.100000 3.250000
v -6.756000 2.100000 3.003000
v -5.702000 2.100000 2.298000
v -4.997000 2.100000 1.244000
v -4.750000 2.100000 -0.000000
v -4.997000 2.100000 -1.244000
v -5.702000 2.100000 -2.298000
v -6.756000 2.100000 -3.003000
v -8.000000 2.100000 -2.400000
v -8.918000 2.100000 -2.217000
v -9.697000 2.100000 -1.697000
v -10.217000 2.100000 -0.918000
v -10.400000 2.100000 -0.000000
v -10.217000 2.100000 0.918000
v -9.697000 2.100000 1.697000
v -8.918000 2.100000 2.217000
v -8.000000 2.100000 2.400000
v -7.082000 2.100000 2.217000
v -6.303000 2.100000 1.697000
v -5.783000 2.100000 0.918000
v -5.600000 2.100000 -0.000000
v -5.783000 2.100000 -0.918000
v -6.303000 2.100000 -1.697000
v -7.082000 2.100000 -2.217000
v -8.000000 0.170000 -3.250000
v -8.000000 0.020000 -3.097000
v -8.000000 0.064000 -3.205000
v -9.185000 0.020000 -2.861000
v -9.244000 0.170000 -3.003000
v -9.227000 0.064000 -2.961000
v -10.190000 0.020000 -2.190000
v -10.298000 0.170000 -2.298000
v -10.266000 0.064000 -2.266000
v -10.861000 0.020000 -1.185000
v -11.003000 0.170000 -1.244000
v -10.961000 0.064000 -1.227000
v -11.097000 0.020000 -0.000000
v -11.250000 0.170000 -0.000000
v -11.205000 0.064000 -0.000000
v -10.861000 0.020000 1.185000
v -11.003000 0.170000 1.244000
v -10.961000 0.064000 1.227000
v -10.190000 0.020000 2.190000
v -10.298000 0.170000 2.298000
v -10.266000 0.064000 2.266000
v -9.185000 0.020000 2.861000
v -9.244000 0.170000 3.003000
v -9.227000 0.064000 2.961000
v -8.000000 0.020000 3.097000
v -8.000000 0.170000 3.250000
v -8.000000 0.064000 3.205000
v -6.815000 0.020000 2.861000
v -6.756000 0.170000 3.003000
v -6.773000 0.064000 2.961000
v -5.810000 0.020000 2.190000
v -5.702000 0.170000 2.298000
v -5.734000 0.064000 2.266000
v -5.139000 0.020000 1.185000
v -4.997000 0.170000 1.244000
v -5.039000 0.064000 1.227000
v -4.903000 0.020000 -0.000000
v -4.750000 0.170000 -0.000000
v -4.795000 0.064000 -0.000000
v -5.139000 0.020000 -1.185000
v -4.997000 0.170000 -1.244000
v -5.039000 0.064000 -1.227000
v -5.810000 0.020000 -2.190000
v -5.702000 0.170000 -2.298000
v -5.734000 0.064000 -2.266000
v -6.815000 0.020000 -2.861000
v -6.756000 0.170000 -3.003000
v -6.773000 0.064000 -2.961000
v -8.000000 0.020000 -2.553000
v -8.000000 0.170000 -2.400000
v -8.000000 0.064000 -2.445000
v -8.918000 0.170000 -2.217000
v -8.977000 0.020000 -2.359000
v -8.936000 0.064000 -2.259000
v -9.697000 0.170000 -1.697000
v -9.805000 0.020000 -1.805000
v -9.729000 0.064000 -1.729000
v -10.217000 0.170000 -0.918000
v -10.359000 0.020000 -0.977000
v -10.259000 0.064000 -0.936000
v -10.400000 0.170000 -0.000000
v -10.553000 0.020000 -0.000000
v -10.445000 0.064000 -0.000000
v -10.217000 0.170000 0.918000
v -10.359000 0.020000 0.977000
v -10.259000 0.064000 0.936000
v -9.697000 0.170000 1.697000
v -9.805000 0.020000 1.805000
v -9.729000 0.064000 1.729000
v -8.918000 0.170000 2.217000
v -8.977000 0.020000 2.359000
v -8.936000 0.064000 2.259000
v -8.000000 0.170000 2.400000
v -8.000000 0.020000 2.553000
v -8.000000 0.064000 2.445000
v -7.082000 0.170000 2.217000
v -7.023000 0.020000 2.359000
v -7.064000 0.064000 2.259000
v -6.303000 0.170000 1.697000
v -6.195000 0.020000 1.805000
v -6.271000 0.064000 1.729000
v -5.783000 0.170000 0.918000
v -5.641000 0.020000 0.977000
v -5.741000 0.064000 0.936000
v -5.600000 0.170000 -0.000000
v -5.447000 0.020000 -0.000000
v -5.555000 0.064000 -0.000000
v -5.783000 0.170000 -0.918000
v -5.641000 0.020000 -0.977000
v -5.741000 0.064000 -0.936000
v -6.303000 0.170000 -1.697000
v -6.195000 0.020000 -1.805000
v -6.271000 0.064000 -1.729000
v -7.082000 0.170000 -2.217000
v -7.023000 0.020000 -2.359000
v -7.064000 0.064000 -2.259000
v 0.000000 2.100000 -3.250000
v -1.244000 2.100000 -3.003000
v -2.298000 2.100000 -2.298000
v -3.003000 2.100000 -1.244000
v -3.250000 2.100000 -0.000000
v -3.003000 2.100000 1.244000
v -2.298000 2.100000 2.298000
v -1.244000 2.100000 3.003000
v 0.000000 2.100000 3.250000
v 1.244000 2.100000 3.003000
v 2.298000 2.100000 2.298000
v 3.003000 2.100000 1.244000
v 3.250000 2.100000 -0.000000
v 3.003000 2.100000 -1.244000
v 2.298000 2.100000 -2.298000
v 1.244000 2.100000 -3.003000
v 0.000000 2.100000 -2.400000
v -0.918000 2.100000 -2.217000
v -1.697000 2.100000 -1.697000
v -2.217000 2.100000 -0.918000
v -2.400000 2.100000 -0.000000
v -2.217000 2.100000 0.918000
v -1.697000 2.100000 1.697000
v -0.918000 2.100000 2.217000
v 0.000000 2.100000 2.400000
v 0.918000 2.100000 2.217000
v 1.697000 2.100000 1.697000
v 2.217000 2.100000 0.918000
v 2.400000 2.100000 -0.000000
v 2.217000 2.100000 -0.918000
v 1.697000 2.100000 -1.697000
v 0.918000 2.100000 -2.217000
v 0.000000 0.170000 -3.250000
v 0.000000 0.020000 -3.097000
v 0.000000 0.064000 -3.205000
v -1.185000 0.020000 -2.861000
v -1.244000 0.170000 -3.003000
v -1.227000 0.064000 -2.961000
v -2.190000 0.020000 -2.190000
v -2.298000 0.170000 -2.298000
v -2.266000 0.064000 -2.266000
v -2.861000 0.020000 -1.185000
v -3.003000 0.170000 -1.244000
v -2.961000 0.064000 -1.227000
v -3.097000 0.020000 -0.000000
v -3.250000 0.170000 -0.000000
v -3.205000 0.064000 -0.000000
v -2.861000 0.020000 1.185000
v -3.003000 0.170000 1.244000
v -2.961000 0.064000 1.227000
v -2.190000 0.020000 2.190000
v -2.298000 0.170000 2.298000
v -2.266000 0.064000 2.266000
v -1.185000 0.020000 2.861000
v -1.244000 0.170000 3.003000
v -1.227000 0.064000 2.961000
v 0.000000 0.020000 3.097000
v 0.000000 0.170000 3.250000
v 0.000000 0.064000 3.205000
v 1.185000 0.020000 2.861000
v 1.244000 0.170000 3.003000
v 1.227000 0.064000 2.961000
v 2.190000 0.020000 2.190000
v 2.298000 0.170000 2.298000
v 2.266000 0.064000 2.266000
v 2.861000 0.020000 1.185000
v 3.003000 0.170000 1.244000
v 2.961000 0.064000 1.227000
v 3.097000 0.020000 -0.000000
v 3.250000 0.170000 -0.000000
v 3.205000 0.064000 -0.000000
v 2.861000 0.020000 -1.185000
v 3.003000 0.170000 -1.244000
v 2.961000 0.064000 -1.227000
v 2.190000 0.020000 -2.190000
v 2.298000 0.170000 -2.298000
v 2.266000 0.064000 -2.266000
v 1.185000 0.020000 -2.861000
v 1.244000 0.170000 -3.003000
v 1.227000 0.064000 -2.961000
v 0.000000 0.020000 -2.553000
v 0.000000 0.170000 -2.400000
v 0.000000 0.064000 -2.445000
v -0.918000 0.170000 -2.217000
v -0.977000 0.020000 -2.359000
v -0.936000 0.064000 -2.259000
v -1.697000 0.170000 -1.697000
v -1.805000 0.020000 -1.805000
v -1.729000 0.064000 -1.729000
v -2.217000 0.170000 -0.918000
v -2.359000 0.020000 -0.977000
v -2.259000 0.064000 -0.936000
v -2.400000 0.170000 -0.000000
v -2.553000 0.020000 -0.000000
v -2.445000 0.064000 -0.000000
v -2.217000 0.170000 0.918000
v -2.359000 0.020000 0.977000
v -2.259000 0.064000 0.936000
v -1.697000 0.170000 1.697000
v -1.805000 0.020000 1.805000
v -1.729000 0.064000 1.729000
v -0.918000 0.170000 2.217000
v -0.977000 0.020000 2.359000
v -0.936000 0.064000 2.259000
v 0.000000 0.170000 2.400000
v 0.000000 0.020000 2.553000
v 0.000000 0.064000 2.445000
v 0.918000 0.170000 2.217000
v 0.977000 0.020000 2.359000
v 0.936000 0.064000 2.259000
v 1.697000 0.170000 1.697000
v 1.805000 0.020000 1.805000
v 1.729000 0.064000 1.729000
v 2.217000 0.170000 0.918000
v 2.359000 0.020000 0.977000
v 2.259000 0.064000 0.936000
v 2.400000 0.170000 -0.000000
v 2.553000 0.020000 -0.000000
v 2.445000 0.064000 -0.000000
v 2.217000 0.170000 -0.918000
v 2.359000 0.020000 -0.977000
v 2.259000 0.064000 -0.936000
v 1.697000 0.170000 -1.697000
v 1.805000 0.020000 -1.805000
v 1.729000 0.064000 -1.729000
v 0.918000 0.170000 -2.217000
v 0.977000 0.020000 -2.359000
v 0.936000 0.064000 -2.259000
v 8.000000 2.100000 -3.250000
v 6.756000 2.100000 -3.003000
v 5.702000 2.100000 -2.298000
v 4.997000 2.100000 -1.244000
v 4.750000 2.100000 -0.000000
v 4.997000 2.100000 1.244000
v 5.702000 2.100000 2.298000
v 6.756000 2.100000 3.003000
v 8.000000 2.100000 3.250000
v 9.244000 2.100000 3.003000
v 10.298000 2.100000 2.298000
v 11.003000 2.100000 1.244000
v 11.250000 2.100000 -0.000000
v 11.003000 2.100000 -1.244000
v 10.298000 2.100000 -2.298000
v 9.244000 2.100000 -3.003000
v 8.000000 2.100000 -2.400000
v 7.082000 2.100000 -2.217000
v 6.303000 2.100000 -1.697000
v 5.783000 2.100000 -0.918000
v 5.600000 2.100000 -0.000000
v 5.783000 2.100000 0.918000
v 6.303000 2.100000 1.697000
v 7.082000 2.100000 2.217000
v 8.000000 2.100000 2.400000
v 8.918000 2.100000 2.217000
v 9.697000 2.100000 1.697000
v 10.217000 2.100000 0.918000
v 10.400000 2.100000 -0.000000
v 10.217000 2.100000 -0.918000
v 9.697000 2.100000 -1.697000
v 8.918000 2.100000 -2.217000
v 8.000000 0.170000 -3.250000
v 8.000000 0.020000 -3.097000
v 8.000000 0.064000 -3.205000
v 6.815000 0.020000 -2.861000
v 6.756000 0.170000 -3.003000
v 6.773000 0.064000 -2.961000
v 5.810000 0.020000 -2.190000
v 5.702000 0.170000 -2.298000
v 5.734000 0.064000 -2.266000
v 5.139000 0.020000 -1.185000
v 4.997000 0.170000 -1.244000
v 5.039000 0.064000 -1.227000
v 4.903000 0.020000 -0.000000
v 4.750000 0.170000 -0.000000
v 4.795000 0.064000 -0.000000
v 5.139000 0.020000 1.185000
v 4.997000 0.170000 1.244000
v 5.039000 0.064000 1.227000
v 5.810000 0.020000 2.190000
v 5.702000 0.170000 2.298000
v 5.734000 0.064000 2.266000
v 6.815000 0.020000 2.861000
v 6.756000 0.170000 3.003000
v 6.773000 0.064000 2.961000
v 8.000000 0.020000 3.097000
v 8.000000 0.170000 3.250000
v 8.000000 0.064000 3.205000
v 9.185000 0.020000 2.861000
v 9.244000 0.170000 3.003000
v 9.227000 0.064000 2.961000
v 10.190000 0.020000 2.190000
v 10.298000 0.170000 2.298000
v 10.266000 0.064000 2.266000
v 10.861000 0.020000 1.185000
v 11.003000 0.170000 1.244000
v 10.961000 0.064000 1.227000
v 11.097000 0.020000 -0.000000
v 11.250000 0.170000 -0.000000
v 11.205000 0.064000 -0.000000
v 10.861000 0.020000 -1.185000
v 11.003000 0.170000 -1.244000
v 10.961000 0.064000 -1.227000
v 10.190000 0.020000 -2.190000
v 10.298000 0.170000 -2.298000
v 10.266000 0.064000 -2.266000
v 9.185000 0.020000 -2.861000
v 9.244000 0.170000 -3.003000
v 9.227000 0.064000 -2.961000
v 8.000000 0.020000 -2.553000
v 8.000000 0.170000 -2.400000
v 8.000000 0.064000 -2.445000
v 7.082000 0.170000 -2.217000
v 7.023000 0.020000 -2.359000
v 7.064000 0.064000 -2.259000
v 6.303000 0.170000 -1.697000
v 6.195000 0.020000 -1.805000
v 6.271000 0.064000 -1.729000
v 5.783000 0.170000 -0.918000
v 5.641000 0.020000 -0.977000
v 5.741000 0.064000 -0.936000
v 5.600000 0.170000 -0.000000
v 5.447000 0.020000 -0.000000
v 5.555000 0.064000 -0.000000
v 5.783000 0.170000 0.918000
v 5.641000 0.020000 0.977000
v 5.741000 0.064000 0.936000
v 6.303000 0.170000 1.697000
v 6.195000 0.020000 1.805000
v 6.271000 0.064000 1.729000
v 7.082000 0.170000 2.217000
v 7.023000 0.020000 2.359000
v 7.064000 0.064000 2.259000
v 8.000000 0.170000 2.400000
v 8.000000 0.020000 2.553000
v 8.000000 0.064000 2.445000
v 8.918000 0.170000 2.217000
v 8.977000 0.020000 2.359000
v 8.936000 0.064000 2.259000
v 9.697000 0.170000 1.697000
v 9.805000 0.020000 1.805000
v 9.729000 0.064000 1.729000
v 10.217000 0.170000 0.918000
v 10.359000 0.020000 0.977000
v 10.259000 0.064000 0.936000
v 10.400000 0.170000 -0.000000
v 10.553000 0.020000 -0.000000
v 10.445000 0.064000 -0.000000
v 10.217000 0.170000 -0.918000
v 10.359000 0.020000 -0.977000
v 10.259000 0.064000 -0.936000
v 9.697000 0.170000 -1.697000
v 9.805000 0.020000 -1.805000
v 9.729000 0.064000 -1.729000
v 8.918000 0.170000 -2.217000
v 8.977000 0.020000 -2.359000
v 8.936000 0.064000 -2.259000
vn -0.0000 1.0000 -0.0000
vn 1.0000 -0.0000 -0.0000
vn -0.0000 -0.0000 1.0000
vn 0.7071 0.7071 -0.0000
vn -0.0000 0.7071 0.7071
vn -1.0000 -0.0000 -0.0000
vn -0.7071 0.7071 -0.0000
vn -0.0000 -0.0000 -1.0000
vn -0.0000 0.7071 -0.7071
vn 0.5552 -0.0000 0.8317
vn -0.9809 -0.0000 -0.1948
vn -0.1948 -0.0000 0.9809
vn -0.8312 -0.0000 0.5560
vn -0.8312 -0.0000 -0.5560
vn 0.9809 -0.0000 0.1948
vn 0.1948 -0.0000 -0.9809
vn 0.8312 -0.0000 0.5560
vn -0.9809 -0.0000 0.1948
vn -0.5560 -0.0000 -0.8312
vn 0.5560 -0.0000 -0.8312
vn 0.9809 -0.0000 -0.1948
vn 0.5560 -0.0000 0.8312
vn -0.5560 -0.0000 0.8312
vn 0.1948 -0.0000 0.9809
vn 0.8312 -0.0000 -0.5560
vn -0.1955 -0.0000 -0.9807
vn -0.1948 -0.0000 -0.9809
vn -0.5552 -0.0000 -0.8317
vn 0.8317 -0.0000 0.5552
vn -0.8317 -0.0000 -0.5552
vn 0.9807 -0.0000 0.1955
vn -0.9807 -0.0000 -0.1955
vn 0.9807 -0.0000 -0.1955
vn -0.9807 -0.0000 0.1955
vn 0.8317 -0.0000 -0.5552
vn -0.8317 -0.0000 0.5552
vn 0.5552 -0.0000 -0.8317
vn -0.5552 -0.0000 0.8317
vn 0.1955 -0.0000 -0.9807
vn -0.0000 -1.0000 -0.0000
vn 0.1955 -0.0000 0.9807
vn -0.1796 -0.3871 -0.9044
vn -0.1801 -0.3844 -0.9054
vn -0.0746 -0.9239 -0.3752
vn -0.0749 -0.9235 -0.3762
vn -0.5128 -0.3863 -0.7667
vn -0.5129 -0.3861 -0.7667
vn -0.2141 -0.9229 -0.3201
vn -0.2120 -0.9242 -0.3176
vn -0.7668 -0.3861 -0.5129
vn -0.7667 -0.3863 -0.5128
vn -0.3175 -0.9242 -0.2123
vn -0.3204 -0.9228 -0.2139
vn -0.9055 -0.3844 -0.1798
vn -0.9043 -0.3871 -0.1798
vn -0.3762 -0.9235 -0.0748
vn -0.3752 -0.9239 -0.0747
vn -0.9044 -0.3871 0.1796
vn -0.9054 -0.3844 0.1801
vn -0.3752 -0.9239 0.0746
vn -0.3762 -0.9235 0.0749
vn -0.7667 -0.3863 0.5128
vn -0.7667 -0.3861 0.5129
vn -0.3201 -0.9229 0.2141
vn -0.3176 -0.9242 0.2120
vn -0.5129 -0.3861 0.7668
vn -0.5128 -0.3863 0.7667
vn -0.2124 -0.9242 0.3175
vn -0.2139 -0.9228 0.3204
vn -0.1798 -0.3844 0.9055
vn -0.1798 -0.3871 0.9043
vn -0.0748 -0.9235 0.3762
vn -0.0747 -0.9239 0.3752
vn 0.1796 -0.3871 0.9044
vn 0.1801 -0.3844 0.9054
vn 0.0746 -0.9239 0.3752
vn 0.0749 -0.9235 0.3762
vn 0.5128 -0.3863 0.7667
vn 0.5129 -0.3861 0.7667
vn 0.2141 -0.9229 0.3201
vn 0.2120 -0.9242 0.3176
vn 0.7668 -0.3861 0.5129
vn 0.7667 -0.3863 0.5128
vn 0.3175 -0.9242 0.2124
vn 0.3204 -0.9228 0.2139
vn 0.9055 -0.3844 0.1798
vn 0.9043 -0.3871 0.1798
vn 0.3762 -0.9235 0.0748
vn 0.3752 -0.9239 0.0747
vn 0.9044 -0.3871 -0.1796
vn 0.9054 -0.3844 -0.1801
vn 0.3752 -0.9239 -0.0746
vn 0.3762 -0.9235 -0.0749
vn 0.7667 -0.3863 -0.5128
vn 0.7667 -0.3861 -0.5129
vn 0.3201 -0.9229 -0.2141
vn 0.3176 -0.9242 -0.2120
vn 0.5129 -0.3861 -0.7668
vn 0.5128 -0.3863 -0.7667
vn 0.2124 -0.9242 -0.3175
vn 0.2139 -0.9228 -0.3204
vn 0.1798 -0.3844 -0.9055
vn 0.1798 -0.3872 -0.9043
vn 0.0748 -0.9235 -0.3762
vn 0.0747 -0.9239 -0.3752
vn -0.1955 -0.0000 0.9807
vn 0.1805 -0.3844 0.9054
vn 0.1796 -0.3886 0.9037
vn 0.0748 -0.9235 0.3762
vn 0.0746 -0.9237 0.3758
vn 0.5112 -0.3902 0.7658
vn 0.5125 -0.3862 0.7669
vn 0.2132 -0.9235 0.3189
vn 0.2142 -0.9229 0.3201
vn 0.7672 -0.3862 0.5121
vn 0.7655 -0.3902 0.5116
vn 0.3202 -0.9228 0.2140
vn 0.3189 -0.9235 0.2133
vn 0.9036 -0.3886 0.1801
vn 0.9055 -0.3844 0.1799
vn 0.3758 -0.9237 0.0747
vn 0.3762 -0.9235 0.0747
vn 0.9054 -0.3843 -0.1805
vn 0.9037 -0.3886 -0.1796
vn 0.3762 -0.9235 -0.0748
vn 0.3758 -0.9237 -0.0746
vn 0.7658 -0.3902 -0.5112
vn 0.7669 -0.3862 -0.5125
vn 0.3189 -0.9235 -0.2132
vn 0.3201 -0.9229 -0.2142
vn 0.5121 -0.3862 -0.7672
vn 0.5116 -0.3902 -0.7655
vn 0.2140 -0.9228 -0.3202
vn 0.2133 -0.9235 -0.3189
vn 0.1801 -0.3886 -0.9036
vn 0.1799 -0.3844 -0.9055
vn 0.0747 -0.9237 -0.3758
vn 0.0747 -0.9235 -0.3762
vn -0.1805 -0.3844 -0.9054
vn -0.1796 -0.3886 -0.9037
vn -0.0748 -0.9235 -0.3762
vn -0.0746 -0.9237 -0.3758
vn -0.5112 -0.3902 -0.7658
vn -0.5125 -0.3862 -0.7669
vn -0.2132 -0.9235 -0.3189
vn -0.2142 -0.9229 -0.3201
vn -0.7672 -0.3862 -0.5121
vn -0.7655 -0.3902 -0.5116
vn -0.3202 -0.9228 -0.2140
vn -0.3189 -0.9235 -0.2133
vn -0.9036 -0.3886 -0.1801
vn -0.9055 -0.3844 -0.1799
vn -0.3758 -0.9237 -0.0747
vn -0.3762 -0.9235 -0.0747
vn -0.9054 -0.3844 0.1805
vn -0.9037 -0.3886 0.1796
vn -0.3762 -0.9235 0.0748
vn -0.3758 -0.9237 0.0746
vn -0.7658 -0.3902 0.5112
vn -0.7669 -0.3863 0.5125
vn -0.3189 -0.9235 0.2132
vn -0.3201 -0.9229 0.2142
vn -0.5121 -0.3862 0.7672
vn -0.5116 -0.3902 0.7655
vn -0.2140 -0.9228 0.3202
vn -0.2133 -0.9235 0.3189
vn -0.1801 -0.3886 0.9036
vn -0.1799 -0.3844 0.9055
vn -0.0747 -0.9237 0.3758
vn -0.0747 -0.9235 0.3762
vn -0.9043 -0.3872 -0.1798
vn -0.1798 -0.3872 0.9043
vn 0.9043 -0.3872 0.1798
vn 0.9054 -0.3844 -0.1805
vn -0.7669 -0.3862 0.5125
vn -0.3175 -0.9242 -0.2124
vn 0.3175 -0.9242 0.2123
vn 0.7669 -0.3863 -0.5125
vn -0.9054 -0.3843 0.1805
s 0
usemtl MB_5.009
f 145//1 12//1 144//1
f 144//1 12//1 18//1
f 131//2 6//2 132//2
f 6//2 146//2 132//2
f 10//1 135//1 16//1
f 16//1 135//1 133//1
f 20//1 133//1 134//1
f 134//1 133//1 135//1
f 23//3 19//3 136//3
f 19//3 137//3 136//3
f 160//1 138//1 140//1
f 140//1 138//1 141//1
f 22//3 142//3 162//3
f 162//3 142//3 143//3
f 147//4 149//4 153//4
f 149//4 151//4 153//4
f 155//2 169//2 131//2
f 169//2 6//2 131//2
f 167//1 10//1 74//1
f 74//1 10//1 16//1
f 138//1 139//1 141//1
f 141//1 139//1 7//1
f 172//3 22//3 163//3
f 163//3 22//3 162//3
f 1//3 148//3 158//3
f 148//3 156//3 158//3
f 29//1 11//1 130//1
f 11//1 72//1 130//1
f 21//5 9//5 17//5
f 9//5 154//5 17//5
f 161//1 160//1 44//1
f 44//1 160//1 140//1
f 164//1 8//1 11//1
f 8//1 13//1 11//1
f 12//1 30//1 18//1
f 18//1 30//1 45//1
f 73//1 129//1 12//1
f 12//1 129//1 30//1
f 165//1 164//1 29//1
f 164//1 11//1 29//1
f 158//3 156//3 159//3
f 156//3 47//3 159//3
f 171//3 41//3 23//3
f 41//3 19//3 23//3
f 173//5 21//5 48//5
f 21//5 17//5 48//5
f 4//2 157//2 5//2
f 5//2 157//2 14//2
f 149//4 86//4 151//4
f 86//4 150//4 151//4
f 37//1 20//1 40//1
f 40//1 20//1 134//1
f 2//2 3//2 166//2
f 3//2 15//2 166//2
f 152//1 73//1 145//1
f 145//1 73//1 12//1
f 157//2 168//2 14//2
f 14//2 168//2 82//2
f 139//1 170//1 7//1
f 7//1 170//1 81//1
f 166//2 15//2 77//2
f 15//2 78//2 77//2
f 11//1 13//1 72//1
f 13//1 87//1 72//1
f 188//1 187//1 38//1
f 38//1 187//1 50//1
f 174//6 175//6 31//6
f 175//6 189//6 31//6
f 35//1 46//1 178//1
f 178//1 46//1 176//1
f 52//1 177//1 176//1
f 176//1 177//1 178//1
f 55//3 179//3 51//3
f 179//3 180//3 51//3
f 202//1 183//1 181//1
f 181//1 183//1 184//1
f 54//3 203//3 185//3
f 185//3 203//3 186//3
f 190//7 196//7 192//7
f 196//7 194//7 192//7
f 198//6 174//6 208//6
f 174//6 31//6 208//6
f 206//1 115//1 35//1
f 35//1 115//1 46//1
f 181//1 184//1 182//1
f 182//1 184//1 32//1
f 172//3 163//3 54//3
f 54//3 163//3 203//3
f 24//3 201//3 191//3
f 201//3 199//3 191//3
f 29//1 130//1 36//1
f 130//1 111//1 36//1
f 53//5 49//5 34//5
f 49//5 197//5 34//5
f 161//1 44//1 202//1
f 202//1 44//1 183//1
f 204//1 36//1 33//1
f 36//1 39//1 33//1
f 38//1 50//1 30//1
f 30//1 50//1 45//1
f 112//1 38//1 129//1
f 129//1 38//1 30//1
f 165//1 29//1 204//1
f 29//1 36//1 204//1
f 201//3 159//3 199//3
f 159//3 47//3 199//3
f 171//3 55//3 41//3
f 55//3 51//3 41//3
f 173//5 48//5 53//5
f 48//5 49//5 53//5
f 27//6 28//6 200//6
f 200//6 28//6 42//6
f 192//7 194//7 127//7
f 194//7 193//7 127//7
f 37//1 40//1 52//1
f 52//1 40//1 177//1
f 25//6 205//6 26//6
f 205//6 43//6 26//6
f 195//1 188//1 112//1
f 112//1 188//1 38//1
f 200//6 42//6 207//6
f 207//6 42//6 123//6
f 182//1 32//1 209//1
f 209//1 32//1 122//1
f 205//6 118//6 43//6
f 118//6 119//6 43//6
f 36//1 111//1 39//1
f 111//1 128//1 39//1
f 224//1 223//1 67//1
f 67//1 223//1 76//1
f 210//2 211//2 61//2
f 211//2 225//2 61//2
f 65//1 71//1 214//1
f 214//1 71//1 212//1
f 80//1 213//1 212//1
f 212//1 213//1 214//1
f 85//8 215//8 79//8
f 215//8 216//8 79//8
f 236//1 219//1 217//1
f 217//1 219//1 220//1
f 84//8 238//8 221//8
f 221//8 238//8 222//8
f 226//4 230//4 228//4
f 230//4 229//4 228//4
f 155//2 210//2 169//2
f 210//2 61//2 169//2
f 167//1 74//1 65//1
f 65//1 74//1 71//1
f 217//1 220//1 218//1
f 218//1 220//1 62//1
f 244//8 239//8 84//8
f 84//8 239//8 238//8
f 56//8 234//8 227//8
f 234//8 232//8 227//8
f 93//1 130//1 66//1
f 130//1 72//1 66//1
f 83//9 75//9 64//9
f 75//9 231//9 64//9
f 237//1 108//1 236//1
f 236//1 108//1 219//1
f 240//1 66//1 63//1
f 66//1 68//1 63//1
f 67//1 76//1 94//1
f 94//1 76//1 109//1
f 73//1 67//1 129//1
f 129//1 67//1 94//1
f 241//1 93//1 240//1
f 93//1 66//1 240//1
f 234//8 235//8 232//8
f 235//8 113//8 232//8
f 243//8 85//8 105//8
f 85//8 79//8 105//8
f 245//9 114//9 83//9
f 114//9 75//9 83//9
f 59//2 60//2 233//2
f 233//2 60//2 69//2
f 228//4 229//4 86//4
f 229//4 150//4 86//4
f 101//1 104//1 80//1
f 80//1 104//1 213//1
f 57//2 242//2 58//2
f 242//2 70//2 58//2
f 152//1 224//1 73//1
f 73//1 224//1 67//1
f 233//2 69//2 168//2
f 168//2 69//2 82//2
f 218//1 62//1 170//1
f 170//1 62//1 81//1
f 242//2 77//2 70//2
f 77//2 78//2 70//2
f 66//1 72//1 68//1
f 72//1 87//1 68//1
f 260//1 102//1 259//1
f 259//1 102//1 117//1
f 246//6 95//6 247//6
f 95//6 261//6 247//6
f 99//1 250//1 110//1
f 110//1 250//1 248//1
f 121//1 248//1 249//1
f 249//1 248//1 250//1
f 126//8 120//8 251//8
f 120//8 252//8 251//8
f 271//1 253//1 255//1
f 255//1 253//1 256//1
f 125//8 257//8 272//8
f 272//8 257//8 258//8
f 262//7 264//7 266//7
f 264//7 265//7 266//7
f 198//6 208//6 246//6
f 208//6 95//6 246//6
f 206//1 99//1 115//1
f 115//1 99//1 110//1
f 253//1 254//1 256//1
f 256//1 254//1 96//1
f 244//8 125//8 239//8
f 239//8 125//8 272//8
f 88//8 263//8 270//8
f 263//8 268//8 270//8
f 93//1 100//1 130//1
f 100//1 111//1 130//1
f 124//9 98//9 116//9
f 98//9 267//9 116//9
f 237//1 271//1 108//1
f 108//1 271//1 255//1
f 273//1 97//1 100//1
f 97//1 103//1 100//1
f 102//1 94//1 117//1
f 117//1 94//1 109//1
f 112//1 129//1 102//1
f 102//1 129//1 94//1
f 241//1 273//1 93//1
f 273//1 100//1 93//1
f 270//8 268//8 235//8
f 268//8 113//8 235//8
f 243//8 105//8 126//8
f 105//8 120//8 126//8
f 245//9 124//9 114//9
f 124//9 116//9 114//9
f 91//6 269//6 92//6
f 92//6 269//6 106//6
f 264//7 127//7 265//7
f 127//7 193//7 265//7
f 101//1 121//1 104//1
f 104//1 121//1 249//1
f 89//6 90//6 274//6
f 90//6 107//6 274//6
f 195//1 112//1 260//1
f 260//1 112//1 102//1
f 269//6 207//6 106//6
f 106//6 207//6 123//6
f 254//1 209//1 96//1
f 96//1 209//1 122//1
f 274//6 107//6 118//6
f 107//6 119//6 118//6
f 100//1 103//1 111//1
f 103//1 128//1 111//1
f 361//10 358//10 293//10
f 358//10 292//10 293//10
f 320//11 279//11 317//11
f 279//11 278//11 317//11
f 332//12 283//12 329//12
f 283//12 282//12 329//12
f 326//13 281//13 323//13
f 281//13 280//13 323//13
f 317//14 278//14 314//14
f 278//14 277//14 314//14
f 344//15 287//15 341//15
f 287//15 286//15 341//15
f 307//16 275//16 353//16
f 275//16 290//16 353//16
f 341//17 286//17 338//17
f 286//17 285//17 338//17
f 323//18 280//18 320//18
f 280//18 279//18 320//18
f 314//19 277//19 311//19
f 277//19 276//19 311//19
f 353//20 290//20 350//20
f 290//20 289//20 350//20
f 347//21 288//21 344//21
f 288//21 287//21 344//21
f 338//22 285//22 335//22
f 285//22 284//22 335//22
f 329//23 282//23 326//23
f 282//23 281//23 326//23
f 335//24 284//24 332//24
f 284//24 283//24 332//24
f 350//25 289//25 347//25
f 289//25 288//25 347//25
f 382//26 379//26 300//26
f 379//26 299//26 300//26
f 311//27 276//27 307//27
f 276//27 275//27 307//27
f 385//28 382//28 301//28
f 382//28 300//28 301//28
f 364//29 361//29 294//29
f 361//29 293//29 294//29
f 388//30 385//30 302//30
f 385//30 301//30 302//30
f 367//31 364//31 295//31
f 364//31 294//31 295//31
f 391//32 388//32 303//32
f 388//32 302//32 303//32
f 370//33 367//33 296//33
f 367//33 295//33 296//33
f 394//34 391//34 304//34
f 391//34 303//34 304//34
f 373//35 370//35 297//35
f 370//35 296//35 297//35
f 397//36 394//36 305//36
f 394//36 304//36 305//36
f 376//37 373//37 298//37
f 373//37 297//37 298//37
f 400//38 397//38 306//38
f 397//38 305//38 306//38
f 379//39 376//39 299//39
f 376//39 298//39 299//39
f 337//40 334//40 386//40
f 334//40 383//40 386//40
f 316//40 313//40 365//40
f 313//40 362//40 365//40
f 340//40 337//40 389//40
f 337//40 386//40 389//40
f 365//40 368//40 316//40
f 368//40 319//40 316//40
f 340//40 389//40 343//40
f 389//40 392//40 343//40
f 322//40 319//40 371//40
f 319//40 368//40 371//40
f 392//40 395//40 343//40
f 395//40 346//40 343//40
f 325//40 322//40 374//40
f 322//40 371//40 374//40
f 398//40 349//40 395//40
f 349//40 346//40 395//40
f 328//40 325//40 377//40
f 325//40 374//40 377//40
f 352//40 349//40 401//40
f 349//40 398//40 401//40
f 328//40 377//40 331//40
f 377//40 380//40 331//40
f 352//40 401//40 308//40
f 401//40 355//40 308//40
f 358//41 356//41 292//41
f 356//41 291//41 292//41
f 380//40 383//40 331//40
f 383//40 334//40 331//40
f 359//40 362//40 310//40
f 362//40 313//40 310//40
f 311//42 307//42 312//42
f 307//43 309//43 312//43
f 312//44 309//44 310//44
f 309//45 308//45 310//45
f 314//46 311//46 315//46
f 311//47 312//47 315//47
f 315//48 312//48 313//48
f 312//49 310//49 313//49
f 317//50 314//50 318//50
f 314//51 315//51 318//51
f 318//52 315//52 316//52
f 315//53 313//53 316//53
f 320//54 317//54 321//54
f 317//55 318//55 321//55
f 321//56 318//56 319//56
f 318//57 316//57 319//57
f 323//58 320//58 324//58
f 320//59 321//59 324//59
f 324//60 321//60 322//60
f 321//61 319//61 322//61
f 326//62 323//62 327//62
f 323//63 324//63 327//63
f 327//64 324//64 325//64
f 324//65 322//65 325//65
f 329//66 326//66 330//66
f 326//67 327//67 330//67
f 330//68 327//68 328//68
f 327//69 325//69 328//69
f 332//70 329//70 333//70
f 329//71 330//71 333//71
f 333//72 330//72 331//72
f 330//73 328//73 331//73
f 335//74 332//74 336//74
f 332//75 333//75 336//75
f 336//76 333//76 334//76
f 333//77 331//77 334//77
f 338//78 335//78 339//78
f 335//79 336//79 339//79
f 339//80 336//80 337//80
f 336//81 334//81 337//81
f 341//82 338//82 342//82
f 338//83 339//83 342//83
f 342//84 339//84 340//84
f 339//85 337//85 340//85
f 344//86 341//86 345//86
f 341//87 342//87 345//87
f 345//88 342//88 343//88
f 342//89 340//89 343//89
f 347//90 344//90 348//90
f 344//91 345//91 348//91
f 348//92 345//92 346//92
f 345//93 343//93 346//93
f 350//94 347//94 351//94
f 347//95 348//95 351//95
f 351//96 348//96 349//96
f 348//97 346//97 349//97
f 353//98 350//98 354//98
f 350//99 351//99 354//99
f 354//100 351//100 352//100
f 351//101 349//101 352//101
f 307//102 353//102 309//102
f 353//103 354//103 309//103
f 309//104 354//104 308//104
f 354//105 352//105 308//105
f 356//106 400//106 291//106
f 400//106 306//106 291//106
f 356//107 358//107 357//107
f 358//108 360//108 357//108
f 357//109 360//109 355//109
f 360//110 359//110 355//110
f 358//111 361//111 360//111
f 361//112 363//112 360//112
f 360//113 363//113 359//113
f 363//114 362//114 359//114
f 361//115 364//115 363//115
f 364//116 366//116 363//116
f 363//117 366//117 362//117
f 366//118 365//118 362//118
f 364//119 367//119 366//119
f 367//120 369//120 366//120
f 366//121 369//121 365//121
f 369//122 368//122 365//122
f 367//123 370//123 369//123
f 370//124 372//124 369//124
f 369//125 372//125 368//125
f 372//126 371//126 368//126
f 370//127 373//127 372//127
f 373//128 375//128 372//128
f 372//129 375//129 371//129
f 375//130 374//130 371//130
f 373//131 376//131 375//131
f 376//132 378//132 375//132
f 375//133 378//133 374//133
f 378//134 377//134 374//134
f 376//135 379//135 378//135
f 379//136 381//136 378//136
f 378//137 381//137 377//137
f 381//138 380//138 377//138
f 379//139 382//139 381//139
f 382//140 384//140 381//140
f 381//141 384//141 380//141
f 384//142 383//142 380//142
f 382//143 385//143 384//143
f 385//144 387//144 384//144
f 384//145 387//145 383//145
f 387//146 386//146 383//146
f 385//147 388//147 387//147
f 388//148 390//148 387//148
f 387//149 390//149 386//149
f 390//150 389//150 386//150
f 388//151 391//151 390//151
f 391//152 393//152 390//152
f 390//153 393//153 389//153
f 393//154 392//154 389//154
f 391//155 394//155 393//155
f 394//156 396//156 393//156
f 393//157 396//157 392//157
f 396//158 395//158 392//158
f 394//159 397//159 396//159
f 397//160 399//160 396//160
f 396//161 399//161 395//161
f 399//162 398//162 395//162
f 397//163 400//163 399//163
f 400//164 402//164 399//164
f 399//165 402//165 398//165
f 402//166 401//166 398//166
f 400//167 356//167 402//167
f 356//168 357//168 402//168
f 402//169 357//169 401//169
f 357//170 355//170 401//170
f 355//40 359//40 308//40
f 359//40 310//40 308//40
f 489//10 486//10 421//10
f 486//10 420//10 421//10
f 448//11 407//11 445//11
f 407//11 406//11 445//11
f 460//12 411//12 457//12
f 411//12 410//12 457//12
f 454//13 409//13 451//13
f 409//13 408//13 451//13
f 445//14 406//14 442//14
f 406//14 405//14 442//14
f 472//15 415//15 469//15
f 415//15 414//15 469//15
f 435//16 403//16 481//16
f 403//16 418//16 481//16
f 469//17 414//17 466//17
f 414//17 413//17 466//17
f 451//18 408//18 448//18
f 408//18 407//18 448//18
f 442//19 405//19 439//19
f 405//19 404//19 439//19
f 481//20 418//20 478//20
f 418//20 417//20 478//20
f 475//21 416//21 472//21
f 416//21 415//21 472//21
f 466//22 413//22 463//22
f 413//22 412//22 463//22
f 457//23 410//23 454//23
f 410//23 409//23 454//23
f 463//24 412//24 460//24
f 412//24 411//24 460//24
f 478//25 417//25 475//25
f 417//25 416//25 475//25
f 510//26 507//26 428//26
f 507//26 427//26 428//26
f 439//27 404//27 435//27
f 404//27 403//27 435//27
f 513//28 510//28 429//28
f 510//28 428//28 429//28
f 492//29 489//29 422//29
f 489//29 421//29 422//29
f 516//30 513//30 430//30
f 513//30 429//30 430//30
f 495//31 492//31 423//31
f 492//31 422//31 423//31
f 519//32 516//32 431//32
f 516//32 430//32 431//32
f 498//33 495//33 424//33
f 495//33 423//33 424//33
f 522//34 519//34 432//34
f 519//34 431//34 432//34
f 501//35 498//35 425//35
f 498//35 424//35 425//35
f 525//36 522//36 433//36
f 522//36 432//36 433//36
f 504//37 501//37 426//37
f 501//37 425//37 426//37
f 528//38 525//38 434//38
f 525//38 433//38 434//38
f 507//39 504//39 427//39
f 504//39 426//39 427//39
f 465//40 462//40 514//40
f 462//40 511//40 514//40
f 444//40 441//40 493//40
f 441//40 490//40 493//40
f 468//40 465//40 517//40
f 465//40 514//40 517//40
f 493//40 496//40 444//40
f 496//40 447//40 444//40
f 468//40 517//40 471//40
f 517//40 520//40 471//40
f 450//40 447//40 499//40
f 447//40 496//40 499//40
f 520//40 523//40 471//40
f 523//40 474//40 471//40
f 453//40 450//40 502//40
f 450//40 499//40 502//40
f 526//40 477//40 523//40
f 477//40 474//40 523//40
f 456//40 453//40 505//40
f 453//40 502//40 505//40
f 480//40 477//40 529//40
f 477//40 526//40 529//40
f 456//40 505//40 459//40
f 505//40 508//40 459//40
f 480//40 529//40 436//40
f 529//40 483//40 436//40
f 486//41 484//41 420//41
f 484//41 419//41 420//41
f 508//40 511//40 459//40
f 511//40 462//40 459//40
f 487//40 490//40 438//40
f 490//40 441//40 438//40
f 439//42 435//42 440//42
f 435//43 437//43 440//43
f 440//44 437//44 438//44
f 437//45 436//45 438//45
f 442//46 439//46 443//46
f 439//47 440//47 443//47
f 443//48 440//48 441//48
f 440//49 438//49 441//49
f 445//50 442//50 446//50
f 442//51 443//51 446//51
f 446//52 443//52 444//52
f 443//53 441//53 444//53
f 448//54 445//54 449//54
f 445//171 446//171 449//171
f 449//56 446//56 447//56
f 446//57 444//57 447//57
f 451//58 448//58 452//58
f 448//59 449//59 452//59
f 452//60 449//60 450//60
f 449//61 447//61 450//61
f 454//62 451//62 455//62
f 451//63 452//63 455//63
f 455//64 452//64 453//64
f 452//65 450//65 453//65
f 457//66 454//66 458//66
f 454//67 455//67 458//67
f 458//68 455//68 456//68
f 455//69 453//69 456//69
f 460//70 457//70 461//70
f 457//172 458//172 461//172
f 461//72 458//72 459//72
f 458//73 456//73 459//73
f 463//74 460//74 464//74
f 460//75 461//75 464//75
f 464//76 461//76 462//76
f 461//77 459//77 462//77
f 466//78 463//78 467//78
f 463//79 464//79 467//79
f 467//80 464//80 465//80
f 464//81 462//81 465//81
f 469//82 466//82 470//82
f 466//83 467//83 470//83
f 470//84 467//84 468//84
f 467//85 465//85 468//85
f 472//86 469//86 473//86
f 469//173 470//173 473//173
f 473//88 470//88 471//88
f 470//89 468//89 471//89
f 475//90 472//90 476//90
f 472//91 473//91 476//91
f 476//92 473//92 474//92
f 473//93 471//93 474//93
f 478//94 475//94 479//94
f 475//95 476//95 479//95
f 479//96 476//96 477//96
f 476//97 474//97 477//97
f 481//98 478//98 482//98
f 478//99 479//99 482//99
f 482//100 479//100 480//100
f 479//101 477//101 480//101
f 435//102 481//102 437//102
f 481//103 482//103 437//103
f 437//104 482//104 436//104
f 482//105 480//105 436//105
f 484//106 528//106 419//106
f 528//106 434//106 419//106
f 484//107 486//107 485//107
f 486//108 488//108 485//108
f 485//109 488//109 483//109
f 488//110 487//110 483//110
f 486//111 489//111 488//111
f 489//112 491//112 488//112
f 488//113 491//113 487//113
f 491//114 490//114 487//114
f 489//115 492//115 491//115
f 492//116 494//116 491//116
f 491//117 494//117 490//117
f 494//118 493//118 490//118
f 492//119 495//119 494//119
f 495//120 497//120 494//120
f 494//121 497//121 493//121
f 497//122 496//122 493//122
f 495//174 498//174 497//174
f 498//124 500//124 497//124
f 497//125 500//125 496//125
f 500//126 499//126 496//126
f 498//127 501//127 500//127
f 501//128 503//128 500//128
f 500//129 503//129 499//129
f 503//130 502//130 499//130
f 501//131 504//131 503//131
f 504//132 506//132 503//132
f 503//133 506//133 502//133
f 506//134 505//134 502//134
f 504//135 507//135 506//135
f 507//136 509//136 506//136
f 506//137 509//137 505//137
f 509//138 508//138 505//138
f 507//139 510//139 509//139
f 510//140 512//140 509//140
f 509//141 512//141 508//141
f 512//142 511//142 508//142
f 510//143 513//143 512//143
f 513//144 515//144 512//144
f 512//145 515//145 511//145
f 515//146 514//146 511//146
f 513//147 516//147 515//147
f 516//148 518//148 515//148
f 515//149 518//149 514//149
f 518//150 517//150 514//150
f 516//151 519//151 518//151
f 519//152 521//152 518//152
f 518//153 521//153 517//153
f 521//154 520//154 517//154
f 519//155 522//155 521//155
f 522//156 524//156 521//156
f 521//157 524//157 520//157
f 524//158 523//158 520//158
f 522//159 525//159 524//159
f 525//175 527//175 524//175
f 524//161 527//161 523//161
f 527//162 526//162 523//162
f 525//163 528//163 527//163
f 528//164 530//164 527//164
f 527//165 530//165 526//165
f 530//166 529//166 526//166
f 528//167 484//167 530//167
f 484//168 485//168 530//168
f 530//169 485//169 529//169
f 485//170 483//170 529//170
f 483//40 487//40 436//40
f 487//40 438//40 436//40
f 617//10 614//10 549//10
f 614//10 548//10 549//10
f 576//11 535//11 573//11
f 535//11 534//11 573//11
f 588//12 539//12 585//12
f 539//12 538//12 585//12
f 582//13 537//13 579//13
f 537//13 536//13 579//13
f 573//14 534//14 570//14
f 534//14 533//14 570//14
f 600//15 543//15 597//15
f 543//15 542//15 597//15
f 563//16 531//16 609//16
f 531//16 546//16 609//16
f 597//17 542//17 594//17
f 542//17 541//17 594//17
f 579//18 536//18 576//18
f 536//18 535//18 576//18
f 570//19 533//19 567//19
f 533//19 532//19 567//19
f 609//20 546//20 606//20
f 546//20 545//20 606//20
f 603//21 544//21 600//21
f 544//21 543//21 600//21
f 594//22 541//22 591//22
f 541//22 540//22 591//22
f 585//23 538//23 582//23
f 538//23 537//23 582//23
f 591//24 540//24 588//24
f 540//24 539//24 588//24
f 606//25 545//25 603//25
f 545//25 544//25 603//25
f 638//26 635//26 556//26
f 635//26 555//26 556//26
f 567//27 532//27 563//27
f 532//27 531//27 563//27
f 641//28 638//28 557//28
f 638//28 556//28 557//28
f 620//29 617//29 550//29
f 617//29 549//29 550//29
f 644//30 641//30 558//30
f 641//30 557//30 558//30
f 623//31 620//31 551//31
f 620//31 550//31 551//31
f 647//32 644//32 559//32
f 644//32 558//32 559//32
f 626//33 623//33 552//33
f 623//33 551//33 552//33
f 650//34 647//34 560//34
f 647//34 559//34 560//34
f 629//35 626//35 553//35
f 626//35 552//35 553//35
f 653//36 650//36 561//36
f 650//36 560//36 561//36
f 632//37 629//37 554//37
f 629//37 553//37 554//37
f 656//38 653//38 562//38
f 653//38 561//38 562//38
f 635//39 632//39 555//39
f 632//39 554//39 555//39
f 593//40 590//40 642//40
f 590//40 639//40 642//40
f 572//40 569//40 621//40
f 569//40 618//40 621//40
f 596//40 593//40 645//40
f 593//40 642//40 645//40
f 621//40 624//40 572//40
f 624//40 575//40 572//40
f 596//40 645//40 599//40
f 645//40 648//40 599//40
f 578//40 575//40 627//40
f 575//40 624//40 627//40
f 648//40 651//40 599//40
f 651//40 602//40 599//40
f 581//40 578//40 630//40
f 578//40 627//40 630//40
f 654//40 605//40 651//40
f 605//40 602//40 651//40
f 584//40 581//40 633//40
f 581//40 630//40 633//40
f 608//40 605//40 657//40
f 605//40 654//40 657//40
f 584//40 633//40 587//40
f 633//40 636//40 587//40
f 608//40 657//40 564//40
f 657//40 611//40 564//40
f 614//41 612//41 548//41
f 612//41 547//41 548//41
f 636//40 639//40 587//40
f 639//40 590//40 587//40
f 615//40 618//40 566//40
f 618//40 569//40 566//40
f 567//42 563//42 568//42
f 563//43 565//43 568//43
f 568//44 565//44 566//44
f 565//45 564//45 566//45
f 570//46 567//46 571//46
f 567//47 568//47 571//47
f 571//48 568//48 569//48
f 568//49 566//49 569//49
f 573//50 570//50 574//50
f 570//51 571//51 574//51
f 574//176 571//176 572//176
f 571//53 569//53 572//53
f 576//54 573//54 577//54
f 573//55 574//55 577//55
f 577//56 574//56 575//56
f 574//57 572//57 575//57
f 579//58 576//58 580//58
f 576//59 577//59 580//59
f 580//60 577//60 578//60
f 577//61 575//61 578//61
f 582//62 579//62 583//62
f 579//63 580//63 583//63
f 583//64 580//64 581//64
f 580//65 578//65 581//65
f 585//66 582//66 586//66
f 582//67 583//67 586//67
f 586//68 583//68 584//68
f 583//69 581//69 584//69
f 588//70 585//70 589//70
f 585//172 586//172 589//172
f 589//72 586//72 587//72
f 586//73 584//73 587//73
f 591//74 588//74 592//74
f 588//75 589//75 592//75
f 592//76 589//76 590//76
f 589//77 587//77 590//77
f 594//78 591//78 595//78
f 591//79 592//79 595//79
f 595//80 592//80 593//80
f 592//81 590//81 593//81
f 597//82 594//82 598//82
f 594//83 595//83 598//83
f 598//177 595//177 596//177
f 595//85 593//85 596//85
f 600//86 597//86 601//86
f 597//87 598//87 601//87
f 601//88 598//88 599//88
f 598//89 596//89 599//89
f 603//90 600//90 604//90
f 600//91 601//91 604//91
f 604//92 601//92 602//92
f 601//93 599//93 602//93
f 606//94 603//94 607//94
f 603//95 604//95 607//95
f 607//96 604//96 605//96
f 604//97 602//97 605//97
f 609//98 606//98 610//98
f 606//99 607//99 610//99
f 610//100 607//100 608//100
f 607//101 605//101 608//101
f 563//102 609//102 565//102
f 609//103 610//103 565//103
f 565//104 610//104 564//104
f 610//105 608//105 564//105
f 612//106 656//106 547//106
f 656//106 562//106 547//106
f 612//107 614//107 613//107
f 614//108 616//108 613//108
f 613//109 616//109 611//109
f 616//110 615//110 611//110
f 614//111 617//111 616//111
f 617//112 619//112 616//112
f 616//113 619//113 615//113
f 619//114 618//114 615//114
f 617//115 620//115 619//115
f 620//116 622//116 619//116
f 619//117 622//117 618//117
f 622//118 621//118 618//118
f 620//119 623//119 622//119
f 623//120 625//120 622//120
f 622//121 625//121 621//121
f 625//122 624//122 621//122
f 623//174 626//174 625//174
f 626//124 628//124 625//124
f 625//125 628//125 624//125
f 628//126 627//126 624//126
f 626//127 629//127 628//127
f 629//178 631//178 628//178
f 628//129 631//129 627//129
f 631//130 630//130 627//130
f 629//131 632//131 631//131
f 632//132 634//132 631//132
f 631//133 634//133 630//133
f 634//134 633//134 630//134
f 632//135 635//135 634//135
f 635//136 637//136 634//136
f 634//137 637//137 633//137
f 637//138 636//138 633//138
f 635//139 638//139 637//139
f 638//140 640//140 637//140
f 637//141 640//141 636//141
f 640//142 639//142 636//142
f 638//143 641//143 640//143
f 641//144 643//144 640//144
f 640//145 643//145 639//145
f 643//146 642//146 639//146
f 641//147 644//147 643//147
f 644//148 646//148 643//148
f 643//149 646//149 642//149
f 646//150 645//150 642//150
f 644//151 647//151 646//151
f 647//152 649//152 646//152
f 646//153 649//153 645//153
f 649//154 648//154 645//154
f 647//179 650//179 649//179
f 650//156 652//156 649//156
f 649//157 652//157 648//157
f 652//158 651//158 648//158
f 650//159 653//159 652//159
f 653//175 655//175 652//175
f 652//161 655//161 651//161
f 655//162 654//162 651//162
f 653//163 656//163 655//163
f 656//164 658//164 655//164
f 655//165 658//165 654//165
f 658//166 657//166 654//166
f 656//167 612//167 658//167
f 612//168 613//168 658//168
f 658//169 613//169 657//169
f 613//170 611//170 657//170
f 611//40 615//40 564//40
f 615//40 566//40 564//40
