# Blender 4.3.2
# www.blender.org
mtllib windshield.mtl
o Part.1
v 15.960000 0.019999 -7.960000
v 15.960000 0.020001 7.960000
v 15.960000 2.000001 7.960000
v 15.960000 9.579999 -7.960001
v 14.400000 0.020000 -6.400000
v 14.400000 0.020000 6.400000
v 14.400000 8.399999 -6.400001
v 14.400000 2.100000 5.400000
v 15.960000 0.020000 -0.000000
v 15.960000 9.580000 -0.000001
v 14.400000 0.020000 -0.000000
v 14.400000 8.400000 -0.000001
v 8.000000 0.020000 -2.400000
v 7.081000 0.020000 2.218000
v 6.303000 0.020000 1.697000
v 5.782000 0.020000 0.919000
v 5.600000 0.020000 -0.000000
v 5.782000 0.020000 -0.919000
v 6.303000 0.020000 -1.697000
v 7.081000 0.020000 -2.218000
v 8.000000 4.597001 3.250000
v 6.756000 0.020000 -3.003000
v 5.702000 0.020000 -2.298000
v 4.997000 0.020000 -1.244000
v 4.750000 0.020000 -0.000000
v 4.997000 0.020000 1.244000
v 5.702000 0.020000 2.298000
v 6.756000 0.020000 3.003000
v 8.000000 0.020000 3.250000
v 14.400000 2.100000 6.400000
v 8.000000 8.400000 -0.000001
v 8.000000 0.020001 7.960000
v 8.000000 2.100000 6.400000
v 8.000000 2.100000 5.400000
v 12.000000 0.020000 6.400000
v 12.000000 9.579999 -7.960001
v 8.000000 8.399999 -6.400001
v 12.000000 0.019999 -7.960000
v 7.081000 8.400000 -2.218001
v 6.303000 8.400000 -1.697001
v 5.782000 8.400000 -0.919001
v 5.600000 8.400000 -0.000001
v 5.782000 7.311000 0.918999
v 6.303000 6.408000 1.697000
v 7.081000 5.805000 2.217999
v 8.000000 5.589000 2.400000
v 6.756000 4.885000 3.003000
v 5.702000 5.725000 2.298000
v 4.997000 6.940000 1.243999
v 4.750000 8.400000 -0.000001
v 4.997000 8.400000 -1.244001
v 5.702000 8.400000 -2.298001
v 6.756000 8.400000 -3.003001
v 0.919000 0.020000 2.218000
v 1.697000 0.020000 1.697000
v 2.218000 0.020000 0.919000
v 2.400000 0.020000 -0.000000
v 2.218000 0.020000 -0.919000
v 1.697000 0.020000 -1.697000
v 0.919000 0.020000 -2.218000
v 1.244000 0.020000 -3.003000
v 2.298000 0.020000 -2.298000
v 3.003000 0.020000 -1.244000
v 3.250000 0.020000 -0.000000
v 3.003000 0.020000 1.244000
v 2.298000 0.020000 2.298000
v 1.244000 0.020000 3.003000
v 0.400000 2.100000 5.400000
v 0.400000 2.100000 3.174000
v 0.400000 4.692000 3.174000
v 0.400000 2.100000 -3.175000
v 0.400000 2.099999 -6.400000
v 0.400000 8.400000 -3.175001
v 0.400000 8.399999 -6.400001
v 4.000000 0.019999 -7.960000
v 4.000000 0.020001 7.960000
v 4.000000 2.000001 7.960000
v 4.000000 9.579999 -7.960001
v 4.000000 0.020000 6.400000
v 4.000000 0.020000 -6.400000
v 4.000000 8.399999 -6.400001
v 4.000000 2.100000 6.400000
v 4.000000 2.100000 5.400000
v 4.000000 9.580000 -0.000001
v 4.000000 8.400000 -0.000001
v 0.919000 8.400000 -2.218001
v 1.697000 8.400000 -1.697001
v 2.218000 8.400000 -0.919001
v 2.400000 8.400000 -0.000001
v 2.218000 7.311000 0.918999
v 1.697000 6.408000 1.697000
v 0.919000 5.805000 2.217999
v 1.244000 4.885000 3.003000
v 2.298000 5.725000 2.298000
v 3.003000 6.940000 1.243999
v 3.250000 8.400000 -0.000001
v 3.003000 8.400000 -1.244001
v 2.298000 8.400000 -2.298001
v 1.244000 8.400000 -3.003001
v 8.000000 0.019999 -7.960000
v 8.000000 2.000001 7.960000
v 8.000000 9.579999 -7.960001
v 8.000000 0.020000 6.400000
v 8.000000 0.020000 -6.400000
v 8.000000 9.580000 -0.000001
v 8.000000 0.020000 2.400000
v 8.919000 0.020000 2.218000
v 9.697000 0.020000 1.697000
v 10.218000 0.020000 0.919000
v 10.400000 0.020000 -0.000000
v 10.218000 0.020000 -0.919000
v 9.697000 0.020000 -1.697000
v 8.919000 0.020000 -2.218000
v 9.244000 0.020000 -3.003000
v 10.298000 0.020000 -2.298000
v 11.003000 0.020000 -1.244000
v 11.250000 0.020000 -0.000000
v 11.003000 0.020000 1.244000
v 10.298000 0.020000 2.298000
v 9.244000 0.020000 3.003000
v 8.000000 0.020000 -3.250000
v 8.000000 8.400000 -2.400001
v 8.919000 8.400000 -2.218001
v 9.697000 8.400000 -1.697001
v 10.218000 8.400000 -0.919001
v 10.400000 8.400000 -0.000001
v 10.218000 7.311000 0.918999
v 9.697000 6.408000 1.697000
v 8.919000 5.805000 2.217999
v 9.244000 4.885000 3.003000
v 10.298000 5.725000 2.298000
v 11.003000 6.940000 1.243999
v 11.250000 8.400000 -0.000001
v 11.003000 8.400000 -1.244001
v 10.298000 8.400000 -2.298001
v 9.244000 8.400000 -3.003001
v 8.000000 8.400000 -3.250001
v 12.000000 2.100000 5.400000
v 12.000000 0.020001 7.960000
v 12.000000 2.000001 7.960000
v 12.000000 0.020000 -6.400000
v 12.000000 8.399999 -6.400001
v 12.000000 2.100000 6.400000
v 12.000000 9.580000 -0.000001
v 12.000000 8.400000 -0.000001
v -15.960000 0.019999 -7.960000
v -15.960000 0.020001 7.960000
v -15.960000 2.000001 7.960000
v -15.960000 9.579999 -7.960001
v -14.400000 0.020000 -6.400000
v -14.400000 0.020000 6.400000
v -14.400000 8.399999 -6.400001
v -14.400000 2.100000 5.400000
v -15.960000 0.020000 -0.000000
v -15.960000 9.580000 -0.000001
v -14.400000 0.020000 -0.000000
v -14.400000 8.400000 -0.000001
v -8.000000 0.020000 -2.400000
v -7.081000 0.020000 2.218000
v -6.303000 0.020000 1.697000
v -5.782000 0.020000 0.919000
v -5.600000 0.020000 -0.000000
v -5.782000 0.020000 -0.919000
v -6.303000 0.020000 -1.697000
v -7.081000 0.020000 -2.218000
v -8.000000 4.597001 3.250000
v -6.756000 0.020000 -3.003000
v -5.702000 0.020000 -2.298000
v -4.997000 0.020000 -1.244000
v -4.750000 0.020000 -0.000000
v -4.997000 0.020000 1.244000
v -5.702000 0.020000 2.298000
v -6.756000 0.020000 3.003000
v -8.000000 0.020000 3.250000
v -14.400000 2.100000 6.400000
v -8.000000 8.400000 -0.000001
v -8.000000 0.020001 7.960000
v -8.000000 2.100000 6.400000
v -8.000000 2.100000 5.400000
v -12.000000 0.020000 6.400000
v -12.000000 9.579999 -7.960001
v -8.000000 8.399999 -6.400001
v -12.000000 0.019999 -7.960000
v -7.081000 8.400000 -2.218001
v -6.303000 8.400000 -1.697001
v -5.782000 8.400000 -0.919001
v -5.600000 8.400000 -0.000001
v -5.782000 7.311000 0.918999
v -6.303000 6.408000 1.697000
v -7.081000 5.805000 2.217999
v -8.000000 5.589000 2.400000
v -6.756000 4.885000 3.003000
v -5.702000 5.725000 2.298000
v -4.997000 6.940000 1.243999
v -4.750000 8.400000 -0.000001
v -4.997000 8.400000 -1.244001
v -5.702000 8.400000 -2.298001
v -6.756000 8.400000 -3.003001
v -0.919000 0.020000 2.218000
v -1.697000 0.020000 1.697000
v -2.218000 0.020000 0.919000
v -2.400000 0.020000 -0.000000
v -2.218000 0.020000 -0.919000
v -1.697000 0.020000 -1.697000
v -0.919000 0.020000 -2.218000
v -1.244000 0.020000 -3.003000
v -2.298000 0.020000 -2.298000
v -3.003000 0.020000 -1.244000
v -3.250000 0.020000 -0.000000
v -3.003000 0.020000 1.244000
v -2.298000 0.020000 2.298000
v -1.244000 0.020000 3.003000
v -0.400000 2.100000 5.400000
v -0.400000 2.100000 3.174000
v -0.400000 4.692000 3.174000
v -0.400000 2.100000 -3.175000
v -0.400000 2.099999 -6.400000
v -0.400000 8.400000 -3.175001
v -0.400000 8.399999 -6.400001
v -4.000000 0.019999 -7.960000
v -4.000000 0.020001 7.960000
v -4.000000 2.000001 7.960000
v -4.000000 9.579999 -7.960001
v -4.000000 0.020000 6.400000
v -4.000000 0.020000 -6.400000
v -4.000000 8.399999 -6.400001
v -4.000000 2.100000 6.400000
v -4.000000 2.100000 5.400000
v -4.000000 9.580000 -0.000001
v -4.000000 8.400000 -0.000001
v -0.919000 8.400000 -2.218001
v -1.697000 8.400000 -1.697001
v -2.218000 8.400000 -0.919001
v -2.400000 8.400000 -0.000001
v -2.218000 7.311000 0.918999
v -1.697000 6.408000 1.697000
v -0.919000 5.805000 2.217999
v -1.244000 4.885000 3.003000
v -2.298000 5.725000 2.298000
v -3.003000 6.940000 1.243999
v -3.250000 8.400000 -0.000001
v -3.003000 8.400000 -1.244001
v -2.298000 8.400000 -2.298001
v -1.244000 8.400000 -3.003001
v -8.000000 0.019999 -7.960000
v -8.000000 2.000001 7.960000
v -8.000000 9.579999 -7.960001
v -8.000000 0.020000 6.400000
v -8.000000 0.020000 -6.400000
v -8.000000 9.580000 -0.000001
v -8.000000 0.020000 2.400000
v -8.919000 0.020000 2.218000
v -9.697000 0.020000 1.697000
v -10.218000 0.020000 0.919000
v -10.400000 0.020000 -0.000000
v -10.218000 0.020000 -0.919000
v -9.697000 0.020000 -1.697000
v -8.919000 0.020000 -2.218000
v -9.244000 0.020000 -3.003000
v -10.298000 0.020000 -2.298000
v -11.003000 0.020000 -1.244000
v -11.250000 0.020000 -0.000000
v -11.003000 0.020000 1.244000
v -10.298000 0.020000 2.298000
v -9.244000 0.020000 3.003000
v -8.000000 0.020000 -3.250000
v -8.000000 8.400000 -2.400001
v -8.919000 8.400000 -2.218001
v -9.697000 8.400000 -1.697001
v -10.218000 8.400000 -0.919001
v -10.400000 8.400000 -0.000001
v -10.218000 7.311000 0.918999
v -9.697000 6.408000 1.697000
v -8.919000 5.805000 2.217999
v -9.244000 4.885000 3.003000
v -10.298000 5.725000 2.298000
v -11.003000 6.940000 1.243999
v -11.250000 8.400000 -0.000001
v -11.003000 8.400000 -1.244001
v -10.298000 8.400000 -2.298001
v -9.244000 8.400000 -3.003001
v -8.000000 8.400000 -3.250001
v -12.000000 2.100000 5.400000
v -12.000000 0.020001 7.960000
v -12.000000 2.000001 7.960000
v -12.000000 0.020000 -6.400000
v -12.000000 8.399999 -6.400001
v -12.000000 2.100000 6.400000
v -12.000000 9.580000 -0.000001
v -12.000000 8.400000 -0.000001
v 0.000000 2.099999 -6.400000
v 0.000000 0.020000 -2.400000
v 0.000000 0.020000 2.400000
v 0.000000 4.597001 3.250000
v 0.000000 0.020000 3.250000
v 0.000000 0.020000 -3.250000
v 0.000000 2.100000 3.250000
v 0.000000 2.100000 -3.250000
v 0.000000 8.400000 -2.400001
v 0.000000 5.589000 2.400000
v 0.000000 8.400000 -3.250001
v 0.000000 2.100000 6.400000
v 0.000000 0.019999 -7.960000
v 0.000000 0.020001 7.960000
v 0.000000 8.399999 -6.400001
v 0.000000 8.400000 -0.000001
v 0.000000 4.692000 3.174000
v 0.000000 2.000001 7.960000
v 0.000000 9.579999 -7.960001
v 0.000000 0.020000 6.400000
v 0.000000 0.020000 -6.400000
v 0.000000 9.580000 -0.000001
v 12.000000 0.019999 -7.960000
v 15.960000 0.019999 -7.960000
v 15.960000 0.019999 -7.960000
v 15.960000 0.020001 7.960000
v 15.960000 0.020001 7.960000
v 15.960000 2.000001 7.960000
v 15.960000 2.000001 7.960000
v 15.960000 9.579999 -7.960001
v 15.960000 9.579999 -7.960001
v 14.400000 0.020000 -6.400000
v 14.400000 0.020000 -6.400000
v 14.400000 8.399999 -6.400001
v 14.400000 8.399999 -6.400001
v 14.400000 2.100000 5.400000
v 14.400000 2.100000 5.400000
v 14.400000 2.100000 6.400000
v 14.400000 2.100000 6.400000
v 15.960000 0.020000 -0.000000
v 15.960000 9.580000 -0.000001
v 15.960000 9.580000 -0.000001
v 14.400000 0.020000 6.400000
v 14.400000 0.020000 6.400000
v 14.400000 0.020000 -0.000000
v 14.400000 8.400000 -0.000001
v 14.400000 8.400000 -0.000001
v 4.000000 2.100000 6.400000
v 8.000000 2.100000 6.400000
v 7.081000 0.020000 2.218000
v 6.303000 0.020000 1.697000
v 5.782000 0.020000 0.919000
v 5.600000 0.020000 -0.000000
v 5.782000 0.020000 -0.919000
v 6.303000 0.020000 -1.697000
v 7.081000 0.020000 -2.218000
v 8.000000 0.020000 -2.400000
v 5.702000 0.020000 -2.298000
v 6.756000 0.020000 -3.003000
v 4.997000 0.020000 -1.244000
v 4.750000 0.020000 -0.000000
v 4.997000 0.020000 1.244000
v 5.702000 0.020000 2.298000
v 6.756000 0.020000 3.003000
v 8.000000 0.020000 3.250000
v 12.000000 9.579999 -7.960001
v 4.000000 8.399999 -6.400001
v 8.000000 8.399999 -6.400001
v 12.000000 0.020000 6.400000
v 4.000000 0.019999 -7.960000
v 8.000000 0.019999 -7.960000
v 4.000000 0.020001 7.960000
v 8.000000 0.020001 7.960000
v 4.000000 2.100000 5.400000
v 8.000000 2.100000 5.400000
v 8.000000 2.000001 7.960000
v 4.000000 2.000001 7.960000
v 8.000000 9.579999 -7.960001
v 4.000000 9.579999 -7.960001
v 8.000000 0.020000 6.400000
v 4.000000 0.020000 6.400000
v 8.000000 0.020000 -6.400000
v 4.000000 0.020000 -6.400000
v 8.000000 9.580000 -0.000001
v 4.000000 9.580000 -0.000001
v 4.000000 8.400000 -0.000001
v 8.000000 8.400000 -0.000001
v 0.000000 0.020000 2.400000
v 0.919000 0.020000 2.218000
v 1.697000 0.020000 1.697000
v 2.218000 0.020000 0.919000
v 2.400000 0.020000 -0.000000
v 2.218000 0.020000 -0.919000
v 1.697000 0.020000 -1.697000
v 0.919000 0.020000 -2.218000
v 0.000000 0.020000 -2.400000
v 0.000000 0.020000 -3.250000
v 1.244000 0.020000 -3.003000
v 2.298000 0.020000 -2.298000
v 3.003000 0.020000 -1.244000
v 3.250000 0.020000 -0.000000
v 3.003000 0.020000 1.244000
v 2.298000 0.020000 2.298000
v 1.244000 0.020000 3.003000
v 0.000000 0.020000 3.250000
v 0.400000 2.100000 3.174000
v 0.400000 2.100000 5.400000
v 0.400000 2.100000 5.400000
v 0.400000 4.692000 3.174000
v 0.400000 2.099999 -6.400000
v 0.400000 2.100000 -3.175000
v 0.000000 2.100000 6.400000
v 0.000000 2.000001 7.960000
v 0.000000 9.579999 -7.960001
v 0.000000 0.020000 6.400000
v 0.000000 0.020000 -6.400000
v 0.000000 9.580000 -0.000001
v 0.000000 0.019999 -7.960000
v 0.000000 0.020001 7.960000
v 0.000000 8.399999 -6.400001
v 0.000000 8.400000 -0.000001
v 8.000000 0.020000 2.400000
v 8.919000 0.020000 2.218000
v 9.697000 0.020000 1.697000
v 10.218000 0.020000 0.919000
v 10.400000 0.020000 -0.000000
v 10.218000 0.020000 -0.919000
v 9.697000 0.020000 -1.697000
v 8.919000 0.020000 -2.218000
v 8.000000 0.020000 -3.250000
v 9.244000 0.020000 -3.003000
v 10.298000 0.020000 -2.298000
v 11.003000 0.020000 -1.244000
v 11.250000 0.020000 -0.000000
v 11.003000 0.020000 1.244000
v 10.298000 0.020000 2.298000
v 9.244000 0.020000 3.003000
v 12.000000 2.100000 5.400000
v 12.000000 2.100000 6.400000
v 12.000000 8.399999 -6.400001
v 12.000000 0.020001 7.960000
v 12.000000 2.000001 7.960000
v 12.000000 0.020000 -6.400000
v 12.000000 8.400000 -0.000001
v 12.000000 9.580000 -0.000001
v -12.000000 0.019999 -7.960000
v -15.960000 0.019999 -7.960000
v -15.960000 0.019999 -7.960000
v -15.960000 0.020001 7.960000
v -15.960000 0.020001 7.960000
v -15.960000 2.000001 7.960000
v -15.960000 2.000001 7.960000
v -15.960000 9.579999 -7.960001
v -15.960000 9.579999 -7.960001
v -14.400000 0.020000 -6.400000
v -14.400000 0.020000 -6.400000
v -14.400000 8.399999 -6.400001
v -14.400000 8.399999 -6.400001
v -14.400000 2.100000 5.400000
v -14.400000 2.100000 5.400000
v -14.400000 2.100000 6.400000
v -14.400000 2.100000 6.400000
v -15.960000 0.020000 -0.000000
v -15.960000 9.580000 -0.000001
v -15.960000 9.580000 -0.000001
v -14.400000 0.020000 6.400000
v -14.400000 0.020000 6.400000
v -14.400000 0.020000 -0.000000
v -14.400000 8.400000 -0.000001
v -14.400000 8.400000 -0.000001
v -4.000000 2.100000 6.400000
v -8.000000 2.100000 6.400000
v -7.081000 0.020000 2.218000
v -6.303000 0.020000 1.697000
v -5.782000 0.020000 0.919000
v -5.600000 0.020000 -0.000000
v -5.782000 0.020000 -0.919000
v -6.303000 0.020000 -1.697000
v -7.081000 0.020000 -2.218000
v -8.000000 0.020000 -2.400000
v -5.702000 0.020000 -2.298000
v -6.756000 0.020000 -3.003000
v -4.997000 0.020000 -1.244000
v -4.750000 0.020000 -0.000000
v -4.997000 0.020000 1.244000
v -5.702000 0.020000 2.298000
v -6.756000 0.020000 3.003000
v -8.000000 0.020000 3.250000
v -12.000000 9.579999 -7.960001
v -4.000000 8.399999 -6.400001
v -8.000000 8.399999 -6.400001
v -12.000000 0.020000 6.400000
v -4.000000 0.019999 -7.960000
v -8.000000 0.019999 -7.960000
v -4.000000 0.020001 7.960000
v -8.000000 0.020001 7.960000
v -4.000000 2.100000 5.400000
v -8.000000 2.100000 5.400000
v -8.000000 2.000001 7.960000
v -4.000000 2.000001 7.960000
v -8.000000 9.579999 -7.960001
v -4.000000 9.579999 -7.960001
v -8.000000 0.020000 6.400000
v -4.000000 0.020000 6.400000
v -8.000000 0.020000 -6.400000
v -4.000000 0.020000 -6.400000
v -8.000000 9.580000 -0.000001
v -4.000000 9.580000 -0.000001
v -4.000000 8.400000 -0.000001
v -8.000000 8.400000 -0.000001
v -0.919000 0.020000 2.218000
v -1.697000 0.020000 1.697000
v -2.218000 0.020000 0.919000
v -2.400000 0.020000 -0.000000
v -2.218000 0.020000 -0.919000
v -1.697000 0.020000 -1.697000
v -0.919000 0.020000 -2.218000
v -1.244000 0.020000 -3.003000
v -2.298000 0.020000 -2.298000
v -3.003000 0.020000 -1.244000
v -3.250000 0.020000 -0.000000
v -3.003000 0.020000 1.244000
v -2.298000 0.020000 2.298000
v -1.244000 0.020000 3.003000
v -0.400000 2.100000 3.174000
v -0.400000 2.100000 5.400000
v -0.400000 2.100000 5.400000
v -0.400000 4.692000 3.174000
v -0.400000 2.099999 -6.400000
v -0.400000 2.100000 -3.175000
v -8.000000 0.020000 2.400000
v -8.919000 0.020000 2.218000
v -9.697000 0.020000 1.697000
v -10.218000 0.020000 0.919000
v -10.400000 0.020000 -0.000000
v -10.218000 0.020000 -0.919000
v -9.697000 0.020000 -1.697000
v -8.919000 0.020000 -2.218000
v -8.000000 0.020000 -3.250000
v -9.244000 0.020000 -3.003000
v -10.298000 0.020000 -2.298000
v -11.003000 0.020000 -1.244000
v -11.250000 0.020000 -0.000000
v -11.003000 0.020000 1.244000
v -10.298000 0.020000 2.298000
v -9.244000 0.020000 3.003000
v -12.000000 2.100000 5.400000
v -12.000000 2.100000 6.400000
v -12.000000 8.399999 -6.400001
v -12.000000 0.020001 7.960000
v -12.000000 2.000001 7.960000
v -12.000000 0.020000 -6.400000
v -12.000000 8.400000 -0.000001
v -12.000000 9.580000 -0.000001
v -11.082000 11.150000 -6.217001
v -11.179000 11.400000 -5.982001
v -11.110000 11.327000 -6.148001
v -10.483000 11.400000 -5.517001
v -10.303000 11.150000 -5.697001
v -10.356000 11.327000 -5.644001
v -9.783000 11.150000 -4.918001
v -10.018000 11.400000 -4.821001
v -9.852000 11.327000 -4.890001
v -9.855000 11.400000 -4.000001
v -9.600000 11.150000 -4.000001
v -9.675000 11.327000 -4.000001
v -9.783000 11.150000 -3.082001
v -10.018000 11.400000 -3.179001
v -9.852000 11.327000 -3.110001
v -10.303000 11.150000 -2.303001
v -10.483000 11.400000 -2.483001
v -10.356000 11.327000 -2.356001
v -11.082000 11.150000 -1.783001
v -11.179000 11.400000 -2.018001
v -11.110000 11.327000 -1.852001
v -12.000000 11.150000 -1.600001
v -12.000000 11.400000 -1.855001
v -12.000000 11.327000 -1.675001
v -12.821000 11.400000 -2.018001
v -12.918000 11.150000 -1.783001
v -12.890000 11.327000 -1.852001
v -13.697000 11.150000 -2.303001
v -13.517000 11.400000 -2.483001
v -13.644000 11.327000 -2.356001
v -14.217000 11.150000 -3.082001
v -13.982000 11.400000 -3.179001
v -14.148000 11.327000 -3.110001
v -14.400000 11.150000 -4.000001
v -14.145000 11.400000 -4.000001
v -14.325000 11.327000 -4.000001
v -14.217000 11.150000 -4.918001
v -13.982000 11.400000 -4.821001
v -14.148000 11.327000 -4.890001
v -13.517000 11.400000 -5.517001
v -13.697000 11.150000 -5.697001
v -13.644000 11.327000 -5.644001
v -12.918000 11.150000 -6.217001
v -12.821000 11.400000 -5.982001
v -12.890000 11.327000 -6.148001
v -12.000000 11.149999 -6.400001
v -12.000000 11.400000 -6.145001
v -12.000000 11.326999 -6.325001
v -10.937000 11.400000 -2.986001
v -10.836000 11.400000 -4.000001
v -10.937000 11.400000 -5.014001
v -12.000000 11.400000 -2.903001
v -12.000000 11.400000 -4.000001
v -12.000000 11.400000 -5.097001
v -13.063000 11.400000 -2.986001
v -13.164000 11.400000 -4.000001
v -13.063000 11.400000 -5.014001
v -12.000000 9.729999 -6.400001
v -12.000000 9.579999 -6.553001
v -12.000000 9.623999 -6.445001
v -12.977000 9.579999 -6.359001
v -12.918000 9.730000 -6.217001
v -12.936000 9.624000 -6.259001
v -13.805000 9.580000 -5.805001
v -13.697000 9.730000 -5.697001
v -13.729000 9.624000 -5.729001
v -14.359000 9.580000 -4.977001
v -14.217000 9.730000 -4.918001
v -14.259000 9.624000 -4.936001
v -14.553000 9.580000 -4.000001
v -14.400000 9.730000 -4.000001
v -14.445000 9.624000 -4.000001
v -14.359000 9.580000 -3.023001
v -14.217000 9.730000 -3.082001
v -14.259000 9.624000 -3.064001
v -13.805000 9.580000 -2.195001
v -13.697000 9.730000 -2.303001
v -13.729000 9.624000 -2.271001
v -12.977000 9.580000 -1.641001
v -12.918000 9.730000 -1.783001
v -12.936000 9.624000 -1.741001
v -12.000000 9.580000 -1.447001
v -12.000000 9.730000 -1.600001
v -12.000000 9.624000 -1.555001
v -11.023000 9.580000 -1.641001
v -11.082000 9.730000 -1.783001
v -11.064000 9.624000 -1.741001
v -10.195000 9.580000 -2.195001
v -10.303000 9.730000 -2.303001
v -10.271000 9.624000 -2.271001
v -9.641000 9.580000 -3.023001
v -9.783000 9.730000 -3.082001
v -9.741000 9.624000 -3.064001
v -9.447000 9.580000 -4.000001
v -9.600000 9.730000 -4.000001
v -9.555000 9.624000 -4.000001
v -9.641000 9.580000 -4.977001
v -9.783000 9.730000 -4.918001
v -9.741000 9.624000 -4.936001
v -10.195000 9.580000 -5.805001
v -10.303000 9.730000 -5.697001
v -10.271000 9.624000 -5.729001
v -11.023000 9.579999 -6.359001
v -11.082000 9.730000 -6.217001
v -11.064000 9.624000 -6.259001
v -3.082000 11.150000 -6.217001
v -3.179000 11.400000 -5.982001
v -3.110000 11.327000 -6.148001
v -2.483000 11.400000 -5.517001
v -2.303000 11.150000 -5.697001
v -2.356000 11.327000 -5.644001
v -1.783000 11.150000 -4.918001
v -2.018000 11.400000 -4.821001
v -1.852000 11.327000 -4.890001
v -1.855000 11.400000 -4.000001
v -1.600000 11.150000 -4.000001
v -1.675000 11.327000 -4.000001
v -1.783000 11.150000 -3.082001
v -2.018000 11.400000 -3.179001
v -1.852000 11.327000 -3.110001
v -2.303000 11.150000 -2.303001
v -2.483000 11.400000 -2.483001
v -2.356000 11.327000 -2.356001
v -3.082000 11.150000 -1.783001
v -3.179000 11.400000 -2.018001
v -3.110000 11.327000 -1.852001
v -4.000000 11.150000 -1.600001
v -4.000000 11.400000 -1.855001
v -4.000000 11.327000 -1.675001
v -4.821000 11.400000 -2.018001
v -4.918000 11.150000 -1.783001
v -4.890000 11.327000 -1.852001
v -5.697000 11.150000 -2.303001
v -5.517000 11.400000 -2.483001
v -5.644000 11.327000 -2.356001
v -6.217000 11.150000 -3.082001
v -5.982000 11.400000 -3.179001
v -6.148000 11.327000 -3.110001
v -6.400000 11.150000 -4.000001
v -6.145000 11.400000 -4.000001
v -6.325000 11.327000 -4.000001
v -6.217000 11.150000 -4.918001
v -5.982000 11.400000 -4.821001
v -6.148000 11.327000 -4.890001
v -5.517000 11.400000 -5.517001
v -5.697000 11.150000 -5.697001
v -5.644000 11.327000 -5.644001
v -4.918000 11.150000 -6.217001
v -4.821000 11.400000 -5.982001
v -4.890000 11.327000 -6.148001
v -4.000000 11.149999 -6.400001
v -4.000000 11.400000 -6.145001
v -4.000000 11.326999 -6.325001
v -2.937000 11.400000 -2.986001
v -2.836000 11.400000 -4.000001
v -2.937000 11.400000 -5.014001
v -4.000000 11.400000 -2.903001
v -4.000000 11.400000 -4.000001
v -4.000000 11.400000 -5.097001
v -5.063000 11.400000 -2.986001
v -5.164000 11.400000 -4.000001
v -5.063000 11.400000 -5.014001
v -4.000000 9.729999 -6.400001
v -4.000000 9.579999 -6.553001
v -4.000000 9.623999 -6.445001
v -4.977000 9.579999 -6.359001
v -4.918000 9.730000 -6.217001
v -4.936000 9.624000 -6.259001
v -5.805000 9.580000 -5.805001
v -5.697000 9.730000 -5.697001
v -5.729000 9.624000 -5.729001
v -6.359000 9.580000 -4.977001
v -6.217000 9.730000 -4.918001
v -6.259000 9.624000 -4.936001
v -6.553000 9.580000 -4.000001
v -6.400000 9.730000 -4.000001
v -6.445000 9.624000 -4.000001
v -6.359000 9.580000 -3.023001
v -6.217000 9.730000 -3.082001
v -6.259000 9.624000 -3.064001
v -5.805000 9.580000 -2.195001
v -5.697000 9.730000 -2.303001
v -5.729000 9.624000 -2.271001
v -4.977000 9.580000 -1.641001
v -4.918000 9.730000 -1.783001
v -4.936000 9.624000 -1.741001
v -4.000000 9.580000 -1.447001
v -4.000000 9.730000 -1.600001
v -4.000000 9.624000 -1.555001
v -3.023000 9.580000 -1.641001
v -3.082000 9.730000 -1.783001
v -3.064000 9.624000 -1.741001
v -2.195000 9.580000 -2.195001
v -2.303000 9.730000 -2.303001
v -2.271000 9.624000 -2.271001
v -1.641000 9.580000 -3.023001
v -1.783000 9.730000 -3.082001
v -1.741000 9.624000 -3.064001
v -1.447000 9.580000 -4.000001
v -1.600000 9.730000 -4.000001
v -1.555000 9.624000 -4.000001
v -1.641000 9.580000 -4.977001
v -1.783000 9.730000 -4.918001
v -1.741000 9.624000 -4.936001
v -2.195000 9.580000 -5.805001
v -2.303000 9.730000 -5.697001
v -2.271000 9.624000 -5.729001
v -3.023000 9.579999 -6.359001
v -3.082000 9.730000 -6.217001
v -3.064000 9.624000 -6.259001
v 4.918000 11.150000 -6.217001
v 4.821000 11.400000 -5.982001
v 4.890000 11.327000 -6.148001
v 5.517000 11.400000 -5.517001
v 5.697000 11.150000 -5.697001
v 5.644000 11.327000 -5.644001
v 6.217000 11.150000 -4.918001
v 5.982000 11.400000 -4.821001
v 6.148000 11.327000 -4.890001
v 6.145000 11.400000 -4.000001
v 6.400000 11.150000 -4.000001
v 6.325000 11.327000 -4.000001
v 6.217000 11.150000 -3.082001
v 5.982000 11.400000 -3.179001
v 6.148000 11.327000 -3.110001
v 5.697000 11.150000 -2.303001
v 5.517000 11.400000 -2.483001
v 5.644000 11.327000 -2.356001
v 4.918000 11.150000 -1.783001
v 4.821000 11.400000 -2.018001
v 4.890000 11.327000 -1.852001
v 4.000000 11.150000 -1.600001
v 4.000000 11.400000 -1.855001
v 4.000000 11.327000 -1.675001
v 3.179000 11.400000 -2.018001
v 3.082000 11.150000 -1.783001
v 3.110000 11.327000 -1.852001
v 2.303000 11.150000 -2.303001
v 2.483000 11.400000 -2.483001
v 2.356000 11.327000 -2.356001
v 1.783000 11.150000 -3.082001
v 2.018000 11.400000 -3.179001
v 1.852000 11.327000 -3.110001
v 1.600000 11.150000 -4.000001
v 1.855000 11.400000 -4.000001
v 1.675000 11.327000 -4.000001
v 1.783000 11.150000 -4.918001
v 2.018000 11.400000 -4.821001
v 1.852000 11.327000 -4.890001
v 2.483000 11.400000 -5.517001
v 2.303000 11.150000 -5.697001
v 2.356000 11.327000 -5.644001
v 3.082000 11.150000 -6.217001
v 3.179000 11.400000 -5.982001
v 3.110000 11.327000 -6.148001
v 4.000000 11.149999 -6.400001
v 4.000000 11.400000 -6.145001
v 4.000000 11.326999 -6.325001
v 5.063000 11.400000 -2.986001
v 5.164000 11.400000 -4.000001
v 5.063000 11.400000 -5.014001
v 4.000000 11.400000 -2.903001
v 4.000000 11.400000 -4.000001
v 4.000000 11.400000 -5.097001
v 2.937000 11.400000 -2.986001
v 2.836000 11.400000 -4.000001
v 2.937000 11.400000 -5.014001
v 4.000000 9.729999 -6.400001
v 4.000000 9.579999 -6.553001
v 4.000000 9.623999 -6.445001
v 3.023000 9.579999 -6.359001
v 3.082000 9.730000 -6.217001
v 3.064000 9.624000 -6.259001
v 2.195000 9.580000 -5.805001
v 2.303000 9.730000 -5.697001
v 2.271000 9.624000 -5.729001
v 1.641000 9.580000 -4.977001
v 1.783000 9.730000 -4.918001
v 1.741000 9.624000 -4.936001
v 1.447000 9.580000 -4.000001
v 1.600000 9.730000 -4.000001
v 1.555000 9.624000 -4.000001
v 1.641000 9.580000 -3.023001
v 1.783000 9.730000 -3.082001
v 1.741000 9.624000 -3.064001
v 2.195000 9.580000 -2.195001
v 2.303000 9.730000 -2.303001
v 2.271000 9.624000 -2.271001
v 3.023000 9.580000 -1.641001
v 3.082000 9.730000 -1.783001
v 3.064000 9.624000 -1.741001
v 4.000000 9.580000 -1.447001
v 4.000000 9.730000 -1.600001
v 4.000000 9.624000 -1.555001
v 4.977000 9.580000 -1.641001
v 4.918000 9.730000 -1.783001
v 4.936000 9.624000 -1.741001
v 5.805000 9.580000 -2.195001
v 5.697000 9.730000 -2.303001
v 5.729000 9.624000 -2.271001
v 6.359000 9.580000 -3.023001
v 6.217000 9.730000 -3.082001
v 6.259000 9.624000 -3.064001
v 6.553000 9.580000 -4.000001
v 6.400000 9.730000 -4.000001
v 6.445000 9.624000 -4.000001
v 6.359000 9.580000 -4.977001
v 6.217000 9.730000 -4.918001
v 6.259000 9.624000 -4.936001
v 5.805000 9.580000 -5.805001
v 5.697000 9.730000 -5.697001
v 5.729000 9.624000 -5.729001
v 4.977000 9.579999 -6.359001
v 4.918000 9.730000 -6.217001
v 4.936000 9.624000 -6.259001
v 12.918000 11.150000 -6.217001
v 12.821000 11.400000 -5.982001
v 12.890000 11.327000 -6.148001
v 13.517000 11.400000 -5.517001
v 13.697000 11.150000 -5.697001
v 13.644000 11.327000 -5.644001
v 14.217000 11.150000 -4.918001
v 13.982000 11.400000 -4.821001
v 14.148000 11.327000 -4.890001
v 14.145000 11.400000 -4.000001
v 14.400000 11.150000 -4.000001
v 14.325000 11.327000 -4.000001
v 14.217000 11.150000 -3.082001
v 13.982000 11.400000 -3.179001
v 14.148000 11.327000 -3.110001
v 13.697000 11.150000 -2.303001
v 13.517000 11.400000 -2.483001
v 13.644000 11.327000 -2.356001
v 12.918000 11.150000 -1.783001
v 12.821000 11.400000 -2.018001
v 12.890000 11.327000 -1.852001
v 12.000000 11.150000 -1.600001
v 12.000000 11.400000 -1.855001
v 12.000000 11.327000 -1.675001
v 11.179000 11.400000 -2.018001
v 11.082000 11.150000 -1.783001
v 11.110000 11.327000 -1.852001
v 10.303000 11.150000 -2.303001
v 10.483000 11.400000 -2.483001
v 10.356000 11.327000 -2.356001
v 9.783000 11.150000 -3.082001
v 10.018000 11.400000 -3.179001
v 9.852000 11.327000 -3.110001
v 9.600000 11.150000 -4.000001
v 9.855000 11.400000 -4.000001
v 9.675000 11.327000 -4.000001
v 9.783000 11.150000 -4.918001
v 10.018000 11.400000 -4.821001
v 9.852000 11.327000 -4.890001
v 10.483000 11.400000 -5.517001
v 10.303000 11.150000 -5.697001
v 10.356000 11.327000 -5.644001
v 11.082000 11.150000 -6.217001
v 11.179000 11.400000 -5.982001
v 11.110000 11.327000 -6.148001
v 12.000000 11.149999 -6.400001
v 12.000000 11.400000 -6.145001
v 12.000000 11.326999 -6.325001
v 13.063000 11.400000 -2.986001
v 13.164000 11.400000 -4.000001
v 13.063000 11.400000 -5.014001
v 12.000000 11.400000 -2.903001
v 12.000000 11.400000 -4.000001
v 12.000000 11.400000 -5.097001
v 10.937000 11.400000 -2.986001
v 10.836000 11.400000 -4.000001
v 10.937000 11.400000 -5.014001
v 12.000000 9.729999 -6.400001
v 12.000000 9.579999 -6.553001
v 12.000000 9.623999 -6.445001
v 11.023000 9.579999 -6.359001
v 11.082000 9.730000 -6.217001
v 11.064000 9.624000 -6.259001
v 10.195000 9.580000 -5.805001
v 10.303000 9.730000 -5.697001
v 10.271000 9.624000 -5.729001
v 9.641000 9.580000 -4.977001
v 9.783000 9.730000 -4.918001
v 9.741000 9.624000 -4.936001
v 9.447000 9.580000 -4.000001
v 9.600000 9.730000 -4.000001
v 9.555000 9.624000 -4.000001
v 9.641000 9.580000 -3.023001
v 9.783000 9.730000 -3.082001
v 9.741000 9.624000 -3.064001
v 10.195000 9.580000 -2.195001
v 10.303000 9.730000 -2.303001
v 10.271000 9.624000 -2.271001
v 11.023000 9.580000 -1.641001
v 11.082000 9.730000 -1.783001
v 11.064000 9.624000 -1.741001
v 12.000000 9.580000 -1.447001
v 12.000000 9.730000 -1.600001
v 12.000000 9.624000 -1.555001
v 12.977000 9.580000 -1.641001
v 12.918000 9.730000 -1.783001
v 12.936000 9.624000 -1.741001
v 13.805000 9.580000 -2.195001
v 13.697000 9.730000 -2.303001
v 13.729000 9.624000 -2.271001
v 14.359000 9.580000 -3.023001
v 14.217000 9.730000 -3.082001
v 14.259000 9.624000 -3.064001
v 14.553000 9.580000 -4.000001
v 14.400000 9.730000 -4.000001
v 14.445000 9.624000 -4.000001
v 14.359000 9.580000 -4.977001
v 14.217000 9.730000 -4.918001
v 14.259000 9.624000 -4.936001
v 13.805000 9.580000 -5.805001
v 13.697000 9.730000 -5.697001
v 13.729000 9.624000 -5.729001
v 12.977000 9.579999 -6.359001
v 12.918000 9.730000 -6.217001
v 12.936000 9.624000 -6.259001
vn -0.0000 -0.0000 1.0000
vn -0.0000 -0.0000 -1.0000
vn -0.0000 1.0000 -0.0000
vn 1.0000 -0.0000 -0.0000
vn -0.1948 -0.0000 0.9809
vn -0.5560 -0.0000 0.8312
vn -0.8312 -0.0000 0.5560
vn -0.9809 -0.0000 0.1948
vn -0.9809 -0.0000 -0.1948
vn -0.8312 -0.0000 -0.5560
vn -0.5560 -0.0000 -0.8312
vn -0.1948 -0.0000 -0.9809
vn -0.5564 -0.0000 0.8309
vn -0.1943 -0.0000 0.9809
vn -0.1943 -0.0000 -0.9809
vn -0.5564 -0.0000 -0.8309
vn -0.8309 -0.0000 -0.5564
vn -0.9809 -0.0000 -0.1943
vn -0.9809 -0.0000 0.1943
vn -0.8309 -0.0000 0.5564
vn -0.0000 0.7242 0.6896
vn -0.0000 0.6508 0.7593
vn 0.1948 -0.0000 0.9809
vn 0.5560 -0.0000 0.8312
vn 0.8312 -0.0000 0.5560
vn 0.9809 -0.0000 0.1948
vn 0.9809 -0.0000 -0.1948
vn 0.8312 -0.0000 -0.5560
vn 0.5560 -0.0000 -0.8312
vn 0.1948 -0.0000 -0.9809
vn 0.5564 -0.0000 0.8309
vn 0.1943 -0.0000 0.9809
vn 0.1943 -0.0000 -0.9809
vn 0.5564 -0.0000 -0.8309
vn 0.8309 -0.0000 -0.5564
vn 0.9809 -0.0000 -0.1943
vn 0.9809 -0.0000 0.1943
vn 0.8309 -0.0000 0.5564
vn -0.0000 0.6503 0.7597
vn -1.0000 -0.0000 -0.0000
vn -0.0022 0.6515 0.7586
vn 0.0022 0.6515 0.7586
vn -0.8317 -0.0000 -0.5552
vn 0.7681 0.3835 -0.5127
vn 0.7687 0.3809 -0.5138
vn 0.3183 0.9238 -0.2127
vn 0.3180 0.9240 -0.2125
vn 0.9056 0.3837 0.1805
vn 0.9065 0.3819 0.1803
vn 0.3748 0.9241 0.0745
vn 0.3753 0.9239 0.0745
vn -0.5133 0.3810 0.7690
vn -0.5132 0.3836 0.7678
vn -0.2125 0.9240 0.3180
vn -0.2127 0.9238 0.3183
vn 0.7690 0.3810 0.5133
vn 0.7678 0.3836 0.5132
vn 0.3180 0.9240 0.2125
vn 0.3183 0.9238 0.2127
vn 0.5127 0.3835 0.7681
vn 0.5138 0.3809 0.7687
vn 0.2127 0.9238 0.3183
vn 0.2125 0.9240 0.3180
vn -0.7681 0.3835 0.5127
vn -0.7687 0.3809 0.5138
vn -0.3183 0.9238 0.2127
vn -0.3180 0.9240 0.2125
vn -0.9064 0.3819 0.1807
vn -0.9057 0.3838 0.1801
vn -0.3753 0.9239 0.0746
vn -0.3748 0.9241 0.0744
vn -0.5127 0.3835 -0.7681
vn -0.5138 0.3809 -0.7687
vn -0.2127 0.9238 -0.3183
vn -0.2125 0.9240 -0.3180
vn 0.1807 0.3819 0.9064
vn 0.1801 0.3838 0.9057
vn 0.0746 0.9239 0.3753
vn 0.0744 0.9241 0.3748
vn -0.1805 0.3837 0.9056
vn -0.1803 0.3819 0.9065
vn -0.0745 0.9241 0.3748
vn -0.0745 0.9239 0.3753
vn -0.9056 0.3837 -0.1805
vn -0.9065 0.3819 -0.1803
vn -0.3748 0.9241 -0.0745
vn -0.3753 0.9239 -0.0745
vn -0.7690 0.3810 -0.5133
vn -0.7678 0.3836 -0.5132
vn -0.3180 0.9240 -0.2125
vn -0.3183 0.9238 -0.2127
vn -0.1807 0.3819 -0.9064
vn -0.1801 0.3838 -0.9057
vn -0.0746 0.9239 -0.3753
vn -0.0744 0.9241 -0.3748
vn 0.9064 0.3819 -0.1807
vn 0.9057 0.3838 -0.1801
vn 0.3753 0.9239 -0.0746
vn 0.3748 0.9241 -0.0744
vn 0.1805 0.3837 -0.9056
vn 0.1803 0.3819 -0.9065
vn 0.0745 0.9241 -0.3748
vn 0.0745 0.9239 -0.3753
vn 0.5133 0.3810 -0.7690
vn 0.5132 0.3836 -0.7678
vn 0.2125 0.9240 -0.3180
vn 0.2127 0.9238 -0.3183
vn -0.1801 0.3886 -0.9036
vn -0.1799 0.3844 -0.9055
vn -0.0747 0.9237 -0.3758
vn -0.0747 0.9235 -0.3762
vn -0.5121 0.3862 -0.7672
vn -0.5116 0.3902 -0.7655
vn -0.2140 0.9228 -0.3202
vn -0.2133 0.9235 -0.3189
vn -0.7658 0.3902 -0.5112
vn -0.7669 0.3862 -0.5125
vn -0.3189 0.9235 -0.2132
vn -0.3201 0.9229 -0.2142
vn -0.9054 0.3844 -0.1805
vn -0.9037 0.3886 -0.1796
vn -0.3762 0.9235 -0.0748
vn -0.3758 0.9237 -0.0746
vn -0.9036 0.3886 0.1801
vn -0.9055 0.3844 0.1799
vn -0.3758 0.9237 0.0747
vn -0.3762 0.9235 0.0747
vn -0.7672 0.3862 0.5121
vn -0.7655 0.3902 0.5116
vn -0.3202 0.9228 0.2140
vn -0.3189 0.9235 0.2133
vn -0.5112 0.3902 0.7658
vn -0.5125 0.3862 0.7669
vn -0.2132 0.9235 0.3189
vn -0.2142 0.9229 0.3201
vn -0.1805 0.3844 0.9054
vn -0.1796 0.3886 0.9037
vn -0.0748 0.9235 0.3763
vn -0.0746 0.9237 0.3758
vn 0.1801 0.3886 0.9036
vn 0.1799 0.3844 0.9055
vn 0.0747 0.9237 0.3758
vn 0.0747 0.9235 0.3762
vn 0.5121 0.3862 0.7672
vn 0.5116 0.3902 0.7655
vn 0.2140 0.9228 0.3202
vn 0.2133 0.9235 0.3189
vn 0.7658 0.3902 0.5112
vn 0.7669 0.3862 0.5125
vn 0.3189 0.9235 0.2132
vn 0.3201 0.9229 0.2142
vn 0.9054 0.3843 0.1805
vn 0.9037 0.3886 0.1796
vn 0.3762 0.9235 0.0748
vn 0.3758 0.9237 0.0746
vn 0.9036 0.3886 -0.1801
vn 0.9055 0.3844 -0.1799
vn 0.3758 0.9237 -0.0747
vn 0.3762 0.9235 -0.0747
vn 0.7672 0.3862 -0.5121
vn 0.7655 0.3902 -0.5116
vn 0.3202 0.9228 -0.2140
vn 0.3188 0.9235 -0.2133
vn 0.5112 0.3902 -0.7658
vn 0.5125 0.3863 -0.7669
vn 0.2132 0.9235 -0.3189
vn 0.2142 0.9229 -0.3201
vn 0.1805 0.3844 -0.9054
vn 0.1796 0.3886 -0.9037
vn 0.0748 0.9235 -0.3763
vn 0.0746 0.9237 -0.3758
vn 0.5552 -0.0000 0.8317
vn -0.5552 -0.0000 -0.8317
vn 0.1955 -0.0000 0.9807
vn 0.1955 -0.0000 -0.9807
vn -0.1955 -0.0000 -0.9807
vn -0.1955 -0.0000 0.9807
vn 0.5552 -0.0000 -0.8317
vn -0.5552 -0.0000 0.8317
vn 0.8317 -0.0000 -0.5552
vn -0.8317 -0.0000 0.5552
vn 0.9807 -0.0000 -0.1955
vn -0.9807 -0.0000 0.1955
vn 0.9807 -0.0000 0.1955
vn -0.9807 -0.0000 -0.1955
vn 0.8317 -0.0000 0.5552
vn -0.2140 0.9228 -0.3203
vn -0.7669 0.3862 -0.5126
vn 0.2140 0.9228 0.3203
vn 0.9054 0.3844 0.1805
vn 0.3189 0.9235 -0.2133
vn 0.5125 0.3862 -0.7669
vn 0.0748 0.9235 -0.3762
vn -0.0748 0.9235 0.3762
vn 0.7669 0.3862 0.5126
s 0
usemtl MB_5.007
f 432//1 431//1 318//1
f 431//1 316//1 318//1
f 313//2 356//2 314//2
f 356//2 320//2 314//2
f 139//3 317//3 359//3
f 359//3 317//3 333//3
f 1//4 321//4 330//4
f 321//4 331//4 330//4
f 330//4 331//4 2//4
f 331//4 319//4 2//4
f 317//3 9//3 333//3
f 333//3 9//3 335//3
f 9//3 315//3 335//3
f 335//3 315//3 322//3
f 11//4 323//4 336//4
f 336//4 323//4 324//4
f 21//5 47//5 355//5
f 47//5 28//5 355//5
f 27//6 28//6 48//6
f 28//6 47//6 48//6
f 26//7 27//7 49//7
f 27//7 48//7 49//7
f 25//8 26//8 50//8
f 26//8 49//8 50//8
f 24//9 25//9 51//9
f 25//9 50//9 51//9
f 23//10 24//10 52//10
f 24//10 51//10 52//10
f 22//11 23//11 53//11
f 23//11 52//11 53//11
f 420//12 22//12 137//12
f 22//12 53//12 137//12
f 354//3 29//3 340//3
f 340//3 29//3 412//3
f 354//3 340//3 353//3
f 353//3 340//3 341//3
f 352//3 353//3 342//3
f 342//3 353//3 341//3
f 351//3 352//3 343//3
f 343//3 352//3 342//3
f 351//3 343//3 350//3
f 350//3 343//3 344//3
f 348//3 350//3 345//3
f 345//3 350//3 344//3
f 348//3 345//3 349//3
f 349//3 345//3 346//3
f 121//3 349//3 347//3
f 347//3 349//3 346//3
f 14//13 45//13 15//13
f 15//13 45//13 44//13
f 106//14 46//14 14//14
f 14//14 46//14 45//14
f 20//15 39//15 13//15
f 13//15 39//15 122//15
f 19//16 40//16 20//16
f 20//16 40//16 39//16
f 18//17 41//17 19//17
f 19//17 41//17 40//17
f 17//18 42//18 18//18
f 18//18 42//18 41//18
f 16//19 43//19 17//19
f 17//19 43//19 42//19
f 15//20 44//20 16//20
f 16//20 44//20 43//20
f 326//4 328//4 334//4
f 334//4 11//4 326//4
f 326//4 11//4 336//4
f 329//1 143//1 6//1
f 6//1 143//1 35//1
f 337//3 325//3 434//3
f 434//3 325//3 142//3
f 332//21 435//21 3//21
f 435//21 140//21 3//21
f 138//3 429//3 327//3
f 327//3 429//3 30//3
f 4//3 36//3 10//3
f 36//3 144//3 10//3
f 5//2 433//2 7//2
f 7//2 433//2 430//2
f 360//2 369//2 361//2
f 369//2 368//2 361//2
f 367//1 362//1 366//1
f 362//1 363//1 366//1
f 315//3 38//3 322//3
f 322//3 38//3 141//3
f 8//22 12//22 428//22
f 428//22 12//22 145//22
f 377//3 358//3 376//3
f 376//3 358//3 357//3
f 31//22 85//22 365//22
f 365//22 85//22 83//22
f 339//1 82//1 370//1
f 370//1 82//1 371//1
f 374//21 375//21 101//21
f 375//21 77//21 101//21
f 102//3 78//3 105//3
f 78//3 84//3 105//3
f 372//2 373//2 37//2
f 37//2 373//2 81//2
f 100//3 75//3 104//3
f 104//3 75//3 80//3
f 291//3 298//3 400//3
f 400//3 298//3 401//3
f 397//3 396//3 302//3
f 302//3 396//3 297//3
f 294//23 295//23 93//23
f 295//23 67//23 93//23
f 66//24 94//24 67//24
f 94//24 93//24 67//24
f 65//25 95//25 66//25
f 95//25 94//25 66//25
f 64//26 96//26 65//26
f 96//26 95//26 65//26
f 63//27 97//27 64//27
f 97//27 96//27 64//27
f 62//28 98//28 63//28
f 98//28 97//28 63//28
f 61//29 99//29 62//29
f 99//29 98//29 62//29
f 296//30 301//30 61//30
f 301//30 99//30 61//30
f 394//3 379//3 395//3
f 395//3 379//3 378//3
f 394//3 393//3 379//3
f 379//3 393//3 380//3
f 392//3 381//3 393//3
f 393//3 381//3 380//3
f 391//3 382//3 392//3
f 392//3 382//3 381//3
f 391//3 390//3 382//3
f 382//3 390//3 383//3
f 389//3 384//3 390//3
f 390//3 384//3 383//3
f 389//3 388//3 384//3
f 384//3 388//3 385//3
f 387//3 386//3 388//3
f 388//3 386//3 385//3
f 54//31 55//31 92//31
f 92//31 55//31 91//31
f 293//32 54//32 300//32
f 300//32 54//32 92//32
f 60//33 292//33 86//33
f 86//33 292//33 299//33
f 59//34 60//34 87//34
f 87//34 60//34 86//34
f 58//35 59//35 88//35
f 88//35 59//35 87//35
f 57//36 58//36 89//36
f 89//36 58//36 88//36
f 56//37 57//37 90//37
f 90//37 57//37 89//37
f 55//38 56//38 91//38
f 91//38 56//38 90//38
f 307//39 399//39 411//39
f 411//39 399//39 85//39
f 69//40 398//40 70//40
f 72//4 74//4 71//4
f 74//4 73//4 71//4
f 338//3 364//3 302//3
f 302//3 364//3 397//3
f 399//41 68//41 85//41
f 85//22 68//22 83//22
f 306//3 376//3 410//3
f 410//3 376//3 357//3
f 402//1 405//1 82//1
f 82//1 405//1 371//1
f 407//21 403//21 375//21
f 403//21 77//21 375//21
f 404//3 312//3 78//3
f 312//3 84//3 78//3
f 406//2 305//2 373//2
f 373//2 305//2 81//2
f 408//3 311//3 75//3
f 75//3 311//3 80//3
f 76//3 79//3 409//3
f 409//3 79//3 310//3
f 360//2 303//2 369//2
f 303//2 309//2 369//2
f 367//1 308//1 362//1
f 308//1 304//1 362//1
f 76//3 32//3 79//3
f 79//3 32//3 103//3
f 364//3 338//3 34//3
f 34//3 338//3 33//3
f 21//23 355//23 130//23
f 355//23 120//23 130//23
f 119//24 131//24 120//24
f 131//24 130//24 120//24
f 118//25 132//25 119//25
f 132//25 131//25 119//25
f 117//26 133//26 118//26
f 133//26 132//26 118//26
f 116//27 134//27 117//27
f 134//27 133//27 117//27
f 115//28 135//28 116//28
f 135//28 134//28 116//28
f 114//29 136//29 115//29
f 136//29 135//29 115//29
f 420//30 137//30 114//30
f 137//30 136//30 114//30
f 427//3 413//3 29//3
f 29//3 413//3 412//3
f 427//3 426//3 413//3
f 413//3 426//3 414//3
f 425//3 415//3 426//3
f 426//3 415//3 414//3
f 424//3 416//3 425//3
f 425//3 416//3 415//3
f 424//3 423//3 416//3
f 416//3 423//3 417//3
f 422//3 418//3 423//3
f 423//3 418//3 417//3
f 422//3 421//3 418//3
f 418//3 421//3 419//3
f 121//3 347//3 421//3
f 421//3 347//3 419//3
f 107//31 108//31 129//31
f 129//31 108//31 128//31
f 106//32 107//32 46//32
f 46//32 107//32 129//32
f 113//33 13//33 123//33
f 123//33 13//33 122//33
f 112//34 113//34 124//34
f 124//34 113//34 123//34
f 111//35 112//35 125//35
f 125//35 112//35 124//35
f 110//36 111//36 126//36
f 126//36 111//36 125//36
f 109//37 110//37 127//37
f 127//37 110//37 126//37
f 108//38 109//38 128//38
f 128//38 109//38 127//38
f 313//2 361//2 356//2
f 361//2 368//2 356//2
f 432//1 366//1 431//1
f 366//1 363//1 431//1
f 377//3 434//3 358//3
f 358//3 434//3 142//3
f 31//22 365//22 145//22
f 145//22 365//22 428//22
f 339//1 370//1 143//1
f 143//1 370//1 35//1
f 374//21 101//21 435//21
f 101//21 140//21 435//21
f 102//3 105//3 36//3
f 105//3 144//3 36//3
f 372//2 37//2 433//2
f 433//2 37//2 430//2
f 100//3 104//3 38//3
f 38//3 104//3 141//3
f 139//3 359//3 32//3
f 32//3 359//3 103//3
f 138//3 34//3 429//3
f 429//3 34//3 33//3
f 541//1 441//1 540//1
f 441//1 439//1 540//1
f 436//2 437//2 479//2
f 437//2 443//2 479//2
f 284//3 482//3 440//3
f 440//3 482//3 456//3
f 146//40 453//40 444//40
f 453//40 454//40 444//40
f 453//40 147//40 454//40
f 147//40 442//40 454//40
f 440//3 456//3 154//3
f 154//3 456//3 458//3
f 154//3 458//3 438//3
f 438//3 458//3 445//3
f 156//40 459//40 446//40
f 446//40 459//40 447//40
f 166//23 478//23 192//23
f 478//23 173//23 192//23
f 172//24 193//24 173//24
f 193//24 192//24 173//24
f 171//25 194//25 172//25
f 194//25 193//25 172//25
f 170//26 195//26 171//26
f 195//26 194//26 171//26
f 169//27 196//27 170//27
f 196//27 195//27 170//27
f 168//28 197//28 169//28
f 197//28 196//28 169//28
f 167//29 198//29 168//29
f 198//29 197//29 168//29
f 529//30 282//30 167//30
f 282//30 198//30 167//30
f 477//3 463//3 174//3
f 174//3 463//3 521//3
f 477//3 476//3 463//3
f 463//3 476//3 464//3
f 475//3 465//3 476//3
f 476//3 465//3 464//3
f 474//3 466//3 475//3
f 475//3 466//3 465//3
f 474//3 473//3 466//3
f 466//3 473//3 467//3
f 471//3 468//3 473//3
f 473//3 468//3 467//3
f 471//3 472//3 468//3
f 468//3 472//3 469//3
f 266//3 470//3 472//3
f 472//3 470//3 469//3
f 159//31 160//31 190//31
f 190//31 160//31 189//31
f 251//32 159//32 191//32
f 191//32 159//32 190//32
f 165//33 158//33 184//33
f 184//33 158//33 267//33
f 164//34 165//34 185//34
f 185//34 165//34 184//34
f 163//35 164//35 186//35
f 186//35 164//35 185//35
f 162//36 163//36 187//36
f 187//36 163//36 186//36
f 161//37 162//37 188//37
f 188//37 162//37 187//37
f 160//38 161//38 189//38
f 189//38 161//38 188//38
f 449//40 457//40 451//40
f 457//40 449//40 156//40
f 156//40 449//40 459//40
f 452//1 151//1 288//1
f 288//1 151//1 180//1
f 460//3 543//3 448//3
f 448//3 543//3 287//3
f 455//21 148//21 544//21
f 148//21 285//21 544//21
f 283//3 450//3 538//3
f 538//3 450//3 175//3
f 149//3 155//3 181//3
f 155//3 289//3 181//3
f 150//2 152//2 542//2
f 542//2 152//2 539//2
f 483//2 484//2 492//2
f 484//2 491//2 492//2
f 490//1 489//1 485//1
f 489//1 486//1 485//1
f 438//3 445//3 183//3
f 183//3 445//3 286//3
f 153//22 537//22 157//22
f 157//22 537//22 290//22
f 500//3 499//3 481//3
f 481//3 499//3 480//3
f 176//22 488//22 230//22
f 230//22 488//22 228//22
f 462//1 493//1 227//1
f 227//1 493//1 494//1
f 497//21 246//21 498//21
f 246//21 222//21 498//21
f 247//3 250//3 223//3
f 250//3 229//3 223//3
f 495//2 182//2 496//2
f 496//2 182//2 226//2
f 245//3 249//3 220//3
f 220//3 249//3 225//3
f 291//3 519//3 298//3
f 298//3 519//3 520//3
f 516//3 302//3 515//3
f 515//3 302//3 297//3
f 294//5 238//5 295//5
f 238//5 212//5 295//5
f 211//6 212//6 239//6
f 212//6 238//6 239//6
f 210//7 211//7 240//7
f 211//7 239//7 240//7
f 209//8 210//8 241//8
f 210//8 240//8 241//8
f 208//9 209//9 242//9
f 209//9 241//9 242//9
f 207//10 208//10 243//10
f 208//10 242//10 243//10
f 206//11 207//11 244//11
f 207//11 243//11 244//11
f 296//12 206//12 301//12
f 206//12 244//12 301//12
f 514//3 395//3 501//3
f 501//3 395//3 378//3
f 514//3 501//3 513//3
f 513//3 501//3 502//3
f 512//3 513//3 503//3
f 503//3 513//3 502//3
f 511//3 512//3 504//3
f 504//3 512//3 503//3
f 511//3 504//3 510//3
f 510//3 504//3 505//3
f 509//3 510//3 506//3
f 506//3 510//3 505//3
f 509//3 506//3 508//3
f 508//3 506//3 507//3
f 387//3 508//3 386//3
f 386//3 508//3 507//3
f 199//13 237//13 200//13
f 200//13 237//13 236//13
f 293//14 300//14 199//14
f 199//14 300//14 237//14
f 205//15 231//15 292//15
f 292//15 231//15 299//15
f 204//16 232//16 205//16
f 205//16 232//16 231//16
f 203//17 233//17 204//17
f 204//17 233//17 232//17
f 202//18 234//18 203//18
f 203//18 234//18 233//18
f 201//19 235//19 202//19
f 202//19 235//19 234//19
f 200//20 236//20 201//20
f 201//20 236//20 235//20
f 307//39 411//39 518//39
f 518//39 411//39 230//39
f 214//4 215//4 517//4
f 217//40 216//40 219//40
f 216//40 218//40 219//40
f 461//3 302//3 487//3
f 487//3 302//3 516//3
f 518//42 230//42 213//42
f 213//22 230//22 228//22
f 306//3 410//3 499//3
f 499//3 410//3 480//3
f 402//1 227//1 405//1
f 405//1 227//1 494//1
f 407//21 498//21 403//21
f 498//21 222//21 403//21
f 404//3 223//3 312//3
f 223//3 229//3 312//3
f 406//2 496//2 305//2
f 305//2 496//2 226//2
f 408//3 220//3 311//3
f 311//3 220//3 225//3
f 221//3 409//3 224//3
f 224//3 409//3 310//3
f 483//2 492//2 303//2
f 492//2 309//2 303//2
f 490//1 485//1 308//1
f 485//1 304//1 308//1
f 221//3 224//3 177//3
f 177//3 224//3 248//3
f 487//3 179//3 461//3
f 461//3 179//3 178//3
f 166//5 275//5 478//5
f 275//5 265//5 478//5
f 264//6 265//6 276//6
f 265//6 275//6 276//6
f 263//7 264//7 277//7
f 264//7 276//7 277//7
f 262//8 263//8 278//8
f 263//8 277//8 278//8
f 261//9 262//9 279//9
f 262//9 278//9 279//9
f 260//10 261//10 280//10
f 261//10 279//10 280//10
f 259//11 260//11 281//11
f 260//11 280//11 281//11
f 529//12 259//12 282//12
f 259//12 281//12 282//12
f 536//3 174//3 522//3
f 522//3 174//3 521//3
f 536//3 522//3 535//3
f 535//3 522//3 523//3
f 534//3 535//3 524//3
f 524//3 535//3 523//3
f 533//3 534//3 525//3
f 525//3 534//3 524//3
f 533//3 525//3 532//3
f 532//3 525//3 526//3
f 531//3 532//3 527//3
f 527//3 532//3 526//3
f 531//3 527//3 530//3
f 530//3 527//3 528//3
f 266//3 530//3 470//3
f 470//3 530//3 528//3
f 252//13 274//13 253//13
f 253//13 274//13 273//13
f 251//14 191//14 252//14
f 252//14 191//14 274//14
f 258//15 268//15 158//15
f 158//15 268//15 267//15
f 257//16 269//16 258//16
f 258//16 269//16 268//16
f 256//17 270//17 257//17
f 257//17 270//17 269//17
f 255//18 271//18 256//18
f 256//18 271//18 270//18
f 254//19 272//19 255//19
f 255//19 272//19 271//19
f 253//20 273//20 254//20
f 254//20 273//20 272//20
f 436//2 479//2 484//2
f 479//2 491//2 484//2
f 541//1 540//1 489//1
f 540//1 486//1 489//1
f 500//3 481//3 543//3
f 543//3 481//3 287//3
f 176//22 290//22 488//22
f 488//22 290//22 537//22
f 462//1 288//1 493//1
f 493//1 288//1 180//1
f 497//21 544//21 246//21
f 544//21 285//21 246//21
f 247//3 181//3 250//3
f 181//3 289//3 250//3
f 495//2 542//2 182//2
f 182//2 542//2 539//2
f 245//3 183//3 249//3
f 249//3 183//3 286//3
f 284//3 177//3 482//3
f 482//3 177//3 248//3
f 283//3 538//3 179//3
f 179//3 538//3 178//3
f 552//3 595//3 554//3
f 595//3 594//3 554//3
f 581//43 585//43 612//43
f 585//43 609//43 612//43
f 600//3 579//3 599//3
f 579//3 576//3 599//3
f 596//3 599//3 567//3
f 599//3 569//3 567//3
f 584//3 582//3 588//3
f 582//3 601//3 588//3
f 591//3 598//3 546//3
f 598//3 595//3 546//3
f 599//3 576//3 569//3
f 576//3 573//3 569//3
f 558//3 593//3 561//3
f 593//3 564//3 561//3
f 588//3 601//3 591//3
f 601//3 598//3 591//3
f 601//3 582//3 600//3
f 582//3 579//3 600//3
f 546//3 595//3 548//3
f 595//3 552//3 548//3
f 554//3 594//3 558//3
f 594//3 593//3 558//3
f 593//3 596//3 564//3
f 596//3 567//3 564//3
f 549//44 550//44 551//44
f 550//45 553//45 551//45
f 550//46 548//46 553//46
f 548//47 552//47 553//47
f 555//48 556//48 557//48
f 556//49 559//49 557//49
f 556//50 554//50 559//50
f 554//51 558//51 559//51
f 570//52 571//52 572//52
f 571//53 574//53 572//53
f 571//54 569//54 574//54
f 569//55 573//55 574//55
f 557//56 559//56 560//56
f 559//57 562//57 560//57
f 559//58 558//58 562//58
f 558//59 561//59 562//59
f 560//60 562//60 563//60
f 562//61 565//61 563//61
f 562//62 561//62 565//62
f 561//63 564//63 565//63
f 572//64 574//64 575//64
f 574//65 577//65 575//65
f 574//66 573//66 577//66
f 573//67 576//67 577//67
f 575//68 577//68 578//68
f 577//69 580//69 578//69
f 577//70 576//70 580//70
f 576//71 579//71 580//71
f 585//72 586//72 587//72
f 586//73 589//73 587//73
f 586//74 584//74 589//74
f 584//75 588//75 589//75
f 563//76 565//76 566//76
f 565//77 568//77 566//77
f 565//78 564//78 568//78
f 564//79 567//79 568//79
f 566//80 568//80 570//80
f 568//81 571//81 570//81
f 568//82 567//82 571//82
f 567//83 569//83 571//83
f 578//84 580//84 581//84
f 580//85 583//85 581//85
f 580//86 579//86 583//86
f 579//87 582//87 583//87
f 581//88 583//88 585//88
f 583//89 586//89 585//89
f 583//90 582//90 586//90
f 582//91 584//91 586//91
f 587//92 589//92 590//92
f 589//93 592//93 590//93
f 589//94 588//94 592//94
f 588//95 591//95 592//95
f 551//96 553//96 555//96
f 553//97 556//97 555//97
f 553//98 552//98 556//98
f 552//99 554//99 556//99
f 590//100 592//100 545//100
f 592//101 547//101 545//101
f 592//102 591//102 547//102
f 591//103 546//103 547//103
f 545//104 547//104 549//104
f 547//105 550//105 549//105
f 547//106 546//106 550//106
f 546//107 548//107 550//107
f 594//3 597//3 593//3
f 597//3 596//3 593//3
f 597//3 600//3 596//3
f 600//3 599//3 596//3
f 595//3 598//3 594//3
f 598//3 597//3 594//3
f 598//3 601//3 597//3
f 601//3 600//3 597//3
f 606//108 602//108 607//108
f 602//109 604//109 607//109
f 607//110 604//110 605//110
f 604//111 603//111 605//111
f 609//112 606//112 610//112
f 606//113 607//113 610//113
f 610//114 607//114 608//114
f 607//115 605//115 608//115
f 612//116 609//116 613//116
f 609//117 610//117 613//117
f 613//118 610//118 611//118
f 610//119 608//119 611//119
f 615//120 612//120 616//120
f 612//121 613//121 616//121
f 616//122 613//122 614//122
f 613//123 611//123 614//123
f 618//124 615//124 619//124
f 615//125 616//125 619//125
f 619//126 616//126 617//126
f 616//127 614//127 617//127
f 621//128 618//128 622//128
f 618//129 619//129 622//129
f 622//130 619//130 620//130
f 619//131 617//131 620//131
f 624//132 621//132 625//132
f 621//133 622//133 625//133
f 625//134 622//134 623//134
f 622//135 620//135 623//135
f 627//136 624//136 628//136
f 624//137 625//137 628//137
f 628//138 625//138 626//138
f 625//139 623//139 626//139
f 630//140 627//140 631//140
f 627//141 628//141 631//141
f 631//142 628//142 629//142
f 628//143 626//143 629//143
f 633//144 630//144 634//144
f 630//145 631//145 634//145
f 634//146 631//146 632//146
f 631//147 629//147 632//147
f 636//148 633//148 637//148
f 633//149 634//149 637//149
f 637//150 634//150 635//150
f 634//151 632//151 635//151
f 639//152 636//152 640//152
f 636//153 637//153 640//153
f 640//154 637//154 638//154
f 637//155 635//155 638//155
f 642//156 639//156 643//156
f 639//157 640//157 643//157
f 643//158 640//158 641//158
f 640//159 638//159 641//159
f 645//160 642//160 646//160
f 642//161 643//161 646//161
f 646//162 643//162 644//162
f 643//163 641//163 644//163
f 648//164 645//164 649//164
f 645//165 646//165 649//165
f 649//166 646//166 647//166
f 646//167 644//167 647//167
f 602//168 648//168 604//168
f 648//169 649//169 604//169
f 604//170 649//170 603//170
f 649//171 647//171 603//171
f 560//172 563//172 633//172
f 563//172 630//172 633//172
f 585//173 587//173 609//173
f 587//173 606//173 609//173
f 563//174 566//174 630//174
f 566//174 627//174 630//174
f 602//175 590//175 648//175
f 590//175 545//175 648//175
f 587//176 590//176 606//176
f 590//176 602//176 606//176
f 566//177 570//177 627//177
f 570//177 624//177 627//177
f 648//178 545//178 645//178
f 545//178 549//178 645//178
f 570//179 572//179 624//179
f 572//179 621//179 624//179
f 549//180 551//180 645//180
f 551//180 642//180 645//180
f 572//181 575//181 621//181
f 575//181 618//181 621//181
f 551//182 555//182 642//182
f 555//182 639//182 642//182
f 575//183 578//183 618//183
f 578//183 615//183 618//183
f 555//184 557//184 639//184
f 557//184 636//184 639//184
f 578//185 581//185 615//185
f 581//185 612//185 615//185
f 557//186 560//186 636//186
f 560//186 633//186 636//186
f 657//3 700//3 659//3
f 700//3 699//3 659//3
f 686//43 690//43 717//43
f 690//43 714//43 717//43
f 705//3 684//3 704//3
f 684//3 681//3 704//3
f 701//3 704//3 672//3
f 704//3 674//3 672//3
f 689//3 687//3 693//3
f 687//3 706//3 693//3
f 696//3 703//3 651//3
f 703//3 700//3 651//3
f 704//3 681//3 674//3
f 681//3 678//3 674//3
f 663//3 698//3 666//3
f 698//3 669//3 666//3
f 693//3 706//3 696//3
f 706//3 703//3 696//3
f 706//3 687//3 705//3
f 687//3 684//3 705//3
f 651//3 700//3 653//3
f 700//3 657//3 653//3
f 659//3 699//3 663//3
f 699//3 698//3 663//3
f 698//3 701//3 669//3
f 701//3 672//3 669//3
f 654//44 655//44 656//44
f 655//45 658//45 656//45
f 655//46 653//46 658//46
f 653//47 657//47 658//47
f 660//48 661//48 662//48
f 661//49 664//49 662//49
f 661//50 659//50 664//50
f 659//51 663//51 664//51
f 675//52 676//52 677//52
f 676//53 679//53 677//53
f 676//54 674//54 679//54
f 674//55 678//55 679//55
f 662//56 664//56 665//56
f 664//57 667//57 665//57
f 664//58 663//58 667//58
f 663//59 666//59 667//59
f 665//60 667//60 668//60
f 667//61 670//61 668//61
f 667//62 666//62 670//62
f 666//63 669//63 670//63
f 677//64 679//64 680//64
f 679//65 682//65 680//65
f 679//66 678//66 682//66
f 678//67 681//67 682//67
f 680//68 682//68 683//68
f 682//69 685//69 683//69
f 682//70 681//70 685//70
f 681//71 684//71 685//71
f 690//72 691//72 692//72
f 691//73 694//73 692//73
f 691//74 689//74 694//74
f 689//75 693//75 694//75
f 668//76 670//76 671//76
f 670//77 673//77 671//77
f 670//78 669//78 673//78
f 669//79 672//79 673//79
f 671//80 673//80 675//80
f 673//81 676//81 675//81
f 673//82 672//82 676//82
f 672//83 674//83 676//83
f 683//84 685//84 686//84
f 685//85 688//85 686//85
f 685//86 684//86 688//86
f 684//87 687//87 688//87
f 686//88 688//88 690//88
f 688//89 691//89 690//89
f 688//90 687//90 691//90
f 687//91 689//91 691//91
f 692//92 694//92 695//92
f 694//93 697//93 695//93
f 694//94 693//94 697//94
f 693//95 696//95 697//95
f 656//96 658//96 660//96
f 658//97 661//97 660//97
f 658//98 657//98 661//98
f 657//99 659//99 661//99
f 695//100 697//100 650//100
f 697//101 652//101 650//101
f 697//102 696//102 652//102
f 696//103 651//103 652//103
f 650//104 652//104 654//104
f 652//105 655//105 654//105
f 652//106 651//106 655//106
f 651//107 653//107 655//107
f 699//3 702//3 698//3
f 702//3 701//3 698//3
f 702//3 705//3 701//3
f 705//3 704//3 701//3
f 700//3 703//3 699//3
f 703//3 702//3 699//3
f 703//3 706//3 702//3
f 706//3 705//3 702//3
f 711//108 707//108 712//108
f 707//109 709//109 712//109
f 712//110 709//110 710//110
f 709//111 708//111 710//111
f 714//112 711//112 715//112
f 711//113 712//113 715//113
f 715//187 712//187 713//187
f 712//115 710//115 713//115
f 717//116 714//116 718//116
f 714//188 715//188 718//188
f 718//118 715//118 716//118
f 715//119 713//119 716//119
f 720//120 717//120 721//120
f 717//121 718//121 721//121
f 721//122 718//122 719//122
f 718//123 716//123 719//123
f 723//124 720//124 724//124
f 720//125 721//125 724//125
f 724//126 721//126 722//126
f 721//127 719//127 722//127
f 726//128 723//128 727//128
f 723//129 724//129 727//129
f 727//130 724//130 725//130
f 724//131 722//131 725//131
f 729//132 726//132 730//132
f 726//133 727//133 730//133
f 730//134 727//134 728//134
f 727//135 725//135 728//135
f 732//136 729//136 733//136
f 729//137 730//137 733//137
f 733//138 730//138 731//138
f 730//139 728//139 731//139
f 735//140 732//140 736//140
f 732//141 733//141 736//141
f 736//142 733//142 734//142
f 733//143 731//143 734//143
f 738//144 735//144 739//144
f 735//145 736//145 739//145
f 739//189 736//189 737//189
f 736//147 734//147 737//147
f 741//148 738//148 742//148
f 738//149 739//149 742//149
f 742//150 739//150 740//150
f 739//151 737//151 740//151
f 744//190 741//190 745//190
f 741//153 742//153 745//153
f 745//154 742//154 743//154
f 742//155 740//155 743//155
f 747//156 744//156 748//156
f 744//157 745//157 748//157
f 748//158 745//158 746//158
f 745//159 743//159 746//159
f 750//160 747//160 751//160
f 747//161 748//161 751//161
f 751//162 748//162 749//162
f 748//191 746//191 749//191
f 753//164 750//164 754//164
f 750//192 751//192 754//192
f 754//166 751//166 752//166
f 751//167 749//167 752//167
f 707//168 753//168 709//168
f 753//169 754//169 709//169
f 709//193 754//193 708//193
f 754//171 752//171 708//171
f 665//172 668//172 738//172
f 668//172 735//172 738//172
f 690//173 692//173 714//173
f 692//173 711//173 714//173
f 668//174 671//174 735//174
f 671//174 732//174 735//174
f 707//175 695//175 753//175
f 695//175 650//175 753//175
f 692//176 695//176 711//176
f 695//176 707//176 711//176
f 671//177 675//177 732//177
f 675//177 729//177 732//177
f 753//178 650//178 750//178
f 650//178 654//178 750//178
f 675//179 677//179 729//179
f 677//179 726//179 729//179
f 654//180 656//180 750//180
f 656//180 747//180 750//180
f 677//181 680//181 726//181
f 680//181 723//181 726//181
f 656//182 660//182 747//182
f 660//182 744//182 747//182
f 680//183 683//183 723//183
f 683//183 720//183 723//183
f 660//184 662//184 744//184
f 662//184 741//184 744//184
f 683//185 686//185 720//185
f 686//185 717//185 720//185
f 662//186 665//186 741//186
f 665//186 738//186 741//186
f 762//3 805//3 764//3
f 805//3 804//3 764//3
f 791//43 795//43 822//43
f 795//43 819//43 822//43
f 810//3 789//3 809//3
f 789//3 786//3 809//3
f 806//3 809//3 777//3
f 809//3 779//3 777//3
f 794//3 792//3 798//3
f 792//3 811//3 798//3
f 801//3 808//3 756//3
f 808//3 805//3 756//3
f 809//3 786//3 779//3
f 786//3 783//3 779//3
f 768//3 803//3 771//3
f 803//3 774//3 771//3
f 798//3 811//3 801//3
f 811//3 808//3 801//3
f 811//3 792//3 810//3
f 792//3 789//3 810//3
f 756//3 805//3 758//3
f 805//3 762//3 758//3
f 764//3 804//3 768//3
f 804//3 803//3 768//3
f 803//3 806//3 774//3
f 806//3 777//3 774//3
f 759//44 760//44 761//44
f 760//45 763//45 761//45
f 760//46 758//46 763//46
f 758//47 762//47 763//47
f 765//48 766//48 767//48
f 766//49 769//49 767//49
f 766//50 764//50 769//50
f 764//51 768//51 769//51
f 780//52 781//52 782//52
f 781//53 784//53 782//53
f 781//54 779//54 784//54
f 779//55 783//55 784//55
f 767//56 769//56 770//56
f 769//57 772//57 770//57
f 769//58 768//58 772//58
f 768//59 771//59 772//59
f 770//60 772//60 773//60
f 772//61 775//61 773//61
f 772//62 771//62 775//62
f 771//63 774//63 775//63
f 782//64 784//64 785//64
f 784//65 787//65 785//65
f 784//66 783//66 787//66
f 783//67 786//67 787//67
f 785//68 787//68 788//68
f 787//69 790//69 788//69
f 787//70 786//70 790//70
f 786//71 789//71 790//71
f 795//72 796//72 797//72
f 796//73 799//73 797//73
f 796//74 794//74 799//74
f 794//75 798//75 799//75
f 773//76 775//76 776//76
f 775//77 778//77 776//77
f 775//78 774//78 778//78
f 774//79 777//79 778//79
f 776//80 778//80 780//80
f 778//81 781//81 780//81
f 778//82 777//82 781//82
f 777//83 779//83 781//83
f 788//84 790//84 791//84
f 790//85 793//85 791//85
f 790//86 789//86 793//86
f 789//87 792//87 793//87
f 791//88 793//88 795//88
f 793//89 796//89 795//89
f 793//90 792//90 796//90
f 792//91 794//91 796//91
f 797//92 799//92 800//92
f 799//93 802//93 800//93
f 799//94 798//94 802//94
f 798//95 801//95 802//95
f 761//96 763//96 765//96
f 763//97 766//97 765//97
f 763//98 762//98 766//98
f 762//99 764//99 766//99
f 800//100 802//100 755//100
f 802//101 757//101 755//101
f 802//102 801//102 757//102
f 801//103 756//103 757//103
f 755//104 757//104 759//104
f 757//105 760//105 759//105
f 757//106 756//106 760//106
f 756//107 758//107 760//107
f 804//3 807//3 803//3
f 807//3 806//3 803//3
f 807//3 810//3 806//3
f 810//3 809//3 806//3
f 805//3 808//3 804//3
f 808//3 807//3 804//3
f 808//3 811//3 807//3
f 811//3 810//3 807//3
f 816//108 812//108 817//108
f 812//109 814//109 817//109
f 817//110 814//110 815//110
f 814//111 813//111 815//111
f 819//112 816//112 820//112
f 816//113 817//113 820//113
f 820//187 817//187 818//187
f 817//115 815//115 818//115
f 822//116 819//116 823//116
f 819//117 820//117 823//117
f 823//118 820//118 821//118
f 820//119 818//119 821//119
f 825//120 822//120 826//120
f 822//121 823//121 826//121
f 826//122 823//122 824//122
f 823//123 821//123 824//123
f 828//124 825//124 829//124
f 825//125 826//125 829//125
f 829//126 826//126 827//126
f 826//127 824//127 827//127
f 831//128 828//128 832//128
f 828//129 829//129 832//129
f 832//130 829//130 830//130
f 829//131 827//131 830//131
f 834//132 831//132 835//132
f 831//133 832//133 835//133
f 835//134 832//134 833//134
f 832//135 830//135 833//135
f 837//136 834//136 838//136
f 834//137 835//137 838//137
f 838//194 835//194 836//194
f 835//139 833//139 836//139
f 840//140 837//140 841//140
f 837//141 838//141 841//141
f 841//142 838//142 839//142
f 838//143 836//143 839//143
f 843//144 840//144 844//144
f 840//145 841//145 844//145
f 844//189 841//189 842//189
f 841//147 839//147 842//147
f 846//148 843//148 847//148
f 843//195 844//195 847//195
f 847//150 844//150 845//150
f 844//151 842//151 845//151
f 849//190 846//190 850//190
f 846//153 847//153 850//153
f 850//154 847//154 848//154
f 847//155 845//155 848//155
f 852//156 849//156 853//156
f 849//157 850//157 853//157
f 853//158 850//158 851//158
f 850//159 848//159 851//159
f 855//160 852//160 856//160
f 852//161 853//161 856//161
f 856//162 853//162 854//162
f 853//191 851//191 854//191
f 858//164 855//164 859//164
f 855//192 856//192 859//192
f 859//166 856//166 857//166
f 856//167 854//167 857//167
f 812//168 858//168 814//168
f 858//169 859//169 814//169
f 814//170 859//170 813//170
f 859//171 857//171 813//171
f 770//172 773//172 843//172
f 773//172 840//172 843//172
f 795//173 797//173 819//173
f 797//173 816//173 819//173
f 773//174 776//174 840//174
f 776//174 837//174 840//174
f 812//175 800//175 858//175
f 800//175 755//175 858//175
f 797//176 800//176 816//176
f 800//176 812//176 816//176
f 776//177 780//177 837//177
f 780//177 834//177 837//177
f 858//178 755//178 855//178
f 755//178 759//178 855//178
f 780//179 782//179 834//179
f 782//179 831//179 834//179
f 759//180 761//180 855//180
f 761//180 852//180 855//180
f 782//181 785//181 831//181
f 785//181 828//181 831//181
f 761//182 765//182 852//182
f 765//182 849//182 852//182
f 785//183 788//183 828//183
f 788//183 825//183 828//183
f 765//184 767//184 849//184
f 767//184 846//184 849//184
f 788//185 791//185 825//185
f 791//185 822//185 825//185
f 767//186 770//186 846//186
f 770//186 843//186 846//186
f 867//3 910//3 869//3
f 910//3 909//3 869//3
f 896//43 900//43 927//43
f 900//43 924//43 927//43
f 915//3 894//3 914//3
f 894//3 891//3 914//3
f 911//3 914//3 882//3
f 914//3 884//3 882//3
f 899//3 897//3 903//3
f 897//3 916//3 903//3
f 906//3 913//3 861//3
f 913//3 910//3 861//3
f 914//3 891//3 884//3
f 891//3 888//3 884//3
f 873//3 908//3 876//3
f 908//3 879//3 876//3
f 903//3 916//3 906//3
f 916//3 913//3 906//3
f 916//3 897//3 915//3
f 897//3 894//3 915//3
f 861//3 910//3 863//3
f 910//3 867//3 863//3
f 869//3 909//3 873//3
f 909//3 908//3 873//3
f 908//3 911//3 879//3
f 911//3 882//3 879//3
f 864//44 865//44 866//44
f 865//45 868//45 866//45
f 865//46 863//46 868//46
f 863//47 867//47 868//47
f 870//48 871//48 872//48
f 871//49 874//49 872//49
f 871//50 869//50 874//50
f 869//51 873//51 874//51
f 885//52 886//52 887//52
f 886//53 889//53 887//53
f 886//54 884//54 889//54
f 884//55 888//55 889//55
f 872//56 874//56 875//56
f 874//57 877//57 875//57
f 874//58 873//58 877//58
f 873//59 876//59 877//59
f 875//60 877//60 878//60
f 877//61 880//61 878//61
f 877//62 876//62 880//62
f 876//63 879//63 880//63
f 887//64 889//64 890//64
f 889//65 892//65 890//65
f 889//66 888//66 892//66
f 888//67 891//67 892//67
f 890//68 892//68 893//68
f 892//69 895//69 893//69
f 892//70 891//70 895//70
f 891//71 894//71 895//71
f 900//72 901//72 902//72
f 901//73 904//73 902//73
f 901//74 899//74 904//74
f 899//75 903//75 904//75
f 878//76 880//76 881//76
f 880//77 883//77 881//77
f 880//78 879//78 883//78
f 879//79 882//79 883//79
f 881//80 883//80 885//80
f 883//81 886//81 885//81
f 883//82 882//82 886//82
f 882//83 884//83 886//83
f 893//84 895//84 896//84
f 895//85 898//85 896//85
f 895//86 894//86 898//86
f 894//87 897//87 898//87
f 896//88 898//88 900//88
f 898//89 901//89 900//89
f 898//90 897//90 901//90
f 897//91 899//91 901//91
f 902//92 904//92 905//92
f 904//93 907//93 905//93
f 904//94 903//94 907//94
f 903//95 906//95 907//95
f 866//96 868//96 870//96
f 868//97 871//97 870//97
f 868//98 867//98 871//98
f 867//99 869//99 871//99
f 905//100 907//100 860//100
f 907//101 862//101 860//101
f 907//102 906//102 862//102
f 906//103 861//103 862//103
f 860//104 862//104 864//104
f 862//105 865//105 864//105
f 862//106 861//106 865//106
f 861//107 863//107 865//107
f 909//3 912//3 908//3
f 912//3 911//3 908//3
f 912//3 915//3 911//3
f 915//3 914//3 911//3
f 910//3 913//3 909//3
f 913//3 912//3 909//3
f 913//3 916//3 912//3
f 916//3 915//3 912//3
f 921//108 917//108 922//108
f 917//109 919//109 922//109
f 922//110 919//110 920//110
f 919//111 918//111 920//111
f 924//112 921//112 925//112
f 921//113 922//113 925//113
f 925//114 922//114 923//114
f 922//115 920//115 923//115
f 927//116 924//116 928//116
f 924//117 925//117 928//117
f 928//118 925//118 926//118
f 925//119 923//119 926//119
f 930//120 927//120 931//120
f 927//121 928//121 931//121
f 931//122 928//122 929//122
f 928//123 926//123 929//123
f 933//124 930//124 934//124
f 930//125 931//125 934//125
f 934//126 931//126 932//126
f 931//127 929//127 932//127
f 936//128 933//128 937//128
f 933//129 934//129 937//129
f 937//130 934//130 935//130
f 934//131 932//131 935//131
f 939//132 936//132 940//132
f 936//133 937//133 940//133
f 940//134 937//134 938//134
f 937//135 935//135 938//135
f 942//136 939//136 943//136
f 939//137 940//137 943//137
f 943//138 940//138 941//138
f 940//139 938//139 941//139
f 945//140 942//140 946//140
f 942//141 943//141 946//141
f 946//142 943//142 944//142
f 943//143 941//143 944//143
f 948//144 945//144 949//144
f 945//145 946//145 949//145
f 949//146 946//146 947//146
f 946//147 944//147 947//147
f 951//148 948//148 952//148
f 948//149 949//149 952//149
f 952//150 949//150 950//150
f 949//151 947//151 950//151
f 954//152 951//152 955//152
f 951//153 952//153 955//153
f 955//154 952//154 953//154
f 952//155 950//155 953//155
f 957//156 954//156 958//156
f 954//157 955//157 958//157
f 958//158 955//158 956//158
f 955//159 953//159 956//159
f 960//160 957//160 961//160
f 957//161 958//161 961//161
f 961//162 958//162 959//162
f 958//163 956//163 959//163
f 963//164 960//164 964//164
f 960//165 961//165 964//165
f 964//166 961//166 962//166
f 961//167 959//167 962//167
f 917//168 963//168 919//168
f 963//169 964//169 919//169
f 919//170 964//170 918//170
f 964//171 962//171 918//171
f 875//172 878//172 948//172
f 878//172 945//172 948//172
f 900//173 902//173 924//173
f 902//173 921//173 924//173
f 878//174 881//174 945//174
f 881//174 942//174 945//174
f 917//175 905//175 963//175
f 905//175 860//175 963//175
f 902//176 905//176 921//176
f 905//176 917//176 921//176
f 881//177 885//177 942//177
f 885//177 939//177 942//177
f 963//178 860//178 960//178
f 860//178 864//178 960//178
f 885//179 887//179 939//179
f 887//179 936//179 939//179
f 864//180 866//180 960//180
f 866//180 957//180 960//180
f 887//181 890//181 936//181
f 890//181 933//181 936//181
f 866//182 870//182 957//182
f 870//182 954//182 957//182
f 890//183 893//183 933//183
f 893//183 930//183 933//183
f 870//184 872//184 954//184
f 872//184 951//184 954//184
f 893//185 896//185 930//185
f 896//185 927//185 930//185
f 872//186 875//186 951//186
f 875//186 948//186 951//186
