# Blender 4.3.2
# www.blender.org
mtllib stud.mtl
o Part.1
v 0.000000 0.020000 2.400000
v 0.000000 2.100000 2.400000
v 0.000000 2.200000 3.960000
v 0.000000 3.180000 3.960000
v 0.000000 3.180000 2.400000
v 1.697000 0.020000 1.697000
v 1.697000 2.100000 1.697000
v 1.697000 3.180000 1.697000
v 1.625000 0.020000 2.815000
v 1.625000 2.200000 2.815000
v 1.200000 0.020000 2.079000
v 1.980000 2.200000 3.429000
v 1.200000 3.180000 2.078000
v 0.650000 2.100000 1.126000
v 0.841000 0.020000 3.139000
v 0.841000 2.200000 3.139000
v 0.621000 0.020000 2.318000
v 1.025000 2.200000 3.825000
v 1.025000 3.180000 3.825000
v 0.336000 2.100000 1.256000
v 2.298000 2.200000 2.298000
v 2.800000 3.180000 2.800000
v 0.919000 2.100000 0.919000
v 3.250000 0.020000 -0.000000
v 3.250000 2.200000 -0.000000
v 2.400000 0.020000 -0.000000
v 2.400000 2.100000 -0.000000
v 2.400000 3.180000 -0.000000
v 1.300000 2.100000 -0.000000
v 1.300000 4.250000 -0.000000
v 3.139000 0.020000 0.841000
v 3.139000 2.200000 0.841000
v 2.318000 0.020000 0.621000
v 2.318000 2.100000 0.621000
v 3.825000 2.200000 1.025000
v 3.825000 3.180000 1.025000
v 2.318000 3.180000 0.621000
v 1.256000 2.100000 0.336000
v 1.256000 4.250000 0.336000
v 2.815000 0.020000 1.625000
v 2.815000 2.200000 1.625000
v 2.079000 0.020000 1.200000
v 2.079000 2.100000 1.200000
v 3.429000 2.200000 1.980000
v 3.429000 3.180000 1.980000
v 2.078000 3.180000 1.200000
v 1.126000 2.100000 0.650000
v 1.126000 4.250000 0.650000
v 3.960000 2.200000 -0.000000
v 3.960000 3.180000 -0.000000
v 1.697000 0.020000 -1.697000
v 1.697000 2.100000 -1.697000
v 2.800000 2.200000 -2.800000
v 2.800000 3.180000 -2.800000
v 0.919000 2.100000 -0.919000
v 0.919000 4.250000 -0.919000
v 2.815000 0.020000 -1.625000
v 2.815000 2.200000 -1.625000
v 2.079000 0.020000 -1.200000
v 2.079000 2.100000 -1.200000
v 3.429000 2.200000 -1.980000
v 3.429000 3.180000 -1.980000
v 2.078000 3.180000 -1.200000
v 1.126000 2.100000 -0.650000
v 1.126000 4.250000 -0.650000
v 3.139000 0.020000 -0.841000
v 3.139000 2.200000 -0.841000
v 2.318000 0.020000 -0.621000
v 2.318000 2.100000 -0.621000
v 3.825000 2.200000 -1.025000
v 3.825000 3.180000 -1.025000
v 2.318000 3.180000 -0.621000
v 1.256000 2.100000 -0.336000
v 1.256000 4.250000 -0.336000
v 2.298000 0.020000 -2.298000
v 2.298000 2.200000 -2.298000
v 1.697000 3.180000 -1.697000
v 0.000000 0.020000 -2.400000
v 0.000000 2.100000 -2.400000
v 0.000000 2.200000 -3.960000
v 0.000000 3.180000 -3.960000
v 0.000000 2.100000 -1.300000
v 0.000000 4.250000 -1.300000
v 0.841000 0.020000 -3.139000
v 0.841000 2.200000 -3.139000
v 0.621000 0.020000 -2.318000
v 0.621000 2.100000 -2.318000
v 1.025000 2.200000 -3.825000
v 1.025000 3.180000 -3.825000
v 0.621000 3.180000 -2.318000
v 0.336000 2.100000 -1.256000
v 0.336000 4.250000 -1.256000
v 1.625000 0.020000 -2.815000
v 1.625000 2.200000 -2.815000
v 1.200000 0.020000 -2.079000
v 1.200000 2.100000 -2.079000
v 1.980000 2.200000 -3.429000
v 1.980000 3.180000 -3.429000
v 1.200000 3.180000 -2.078000
v 0.650000 2.100000 -1.126000
v 0.650000 4.250000 -1.126000
v 0.000000 0.020000 -3.250000
v 0.000000 2.200000 -3.250000
v 0.000000 3.180000 -2.400000
v -1.697000 0.020000 -1.697000
v -1.697000 2.100000 -1.697000
v -2.800000 2.200000 -2.800000
v -2.800000 3.180000 -2.800000
v -0.919000 2.100000 -0.919000
v -1.625000 0.020000 -2.815000
v -1.625000 2.200000 -2.815000
v -1.200000 0.020000 -2.079000
v -1.200000 2.100000 -2.079000
v -1.980000 2.200000 -3.429000
v -1.980000 3.180000 -3.429000
v -1.200000 3.180000 -2.078000
v -0.650000 2.100000 -1.126000
v -0.650000 4.250000 -1.126000
v -0.841000 0.020000 -3.139000
v -0.841000 2.200000 -3.139000
v -0.621000 0.020000 -2.318000
v -0.621000 2.100000 -2.318000
v -1.025000 2.200000 -3.825000
v -1.025000 3.180000 -3.825000
v -0.621000 3.180000 -2.318000
v -0.336000 2.100000 -1.256000
v -0.336000 4.250000 -1.256000
v -2.298000 0.020000 -2.298000
v -2.298000 2.200000 -2.298000
v -1.697000 3.180000 -1.697000
v -0.919000 4.250000 -0.919000
v -3.250000 2.200000 -0.000000
v -3.960000 2.200000 -0.000000
v -3.139000 0.020000 -0.841000
v -3.139000 2.200000 -0.841000
v -2.318000 0.020000 -0.621000
v -2.318000 2.100000 -0.621000
v -3.825000 2.200000 -1.025000
v -3.825000 3.180000 -1.025000
v -2.318000 3.180000 -0.621000
v -1.256000 2.100000 -0.336000
v -1.256000 4.250000 -0.336000
v -2.815000 0.020000 -1.625000
v -2.815000 2.200000 -1.625000
v -2.079000 0.020000 -1.200000
v -2.079000 2.100000 -1.200000
v -3.429000 2.200000 -1.980000
v -3.429000 3.180000 -1.980000
v -2.078000 3.180000 -1.200000
v -1.126000 2.100000 -0.650000
v -1.126000 4.250000 -0.650000
v -3.250000 0.020000 -0.000000
v -2.400000 0.020000 -0.000000
v -2.400000 2.100000 -0.000000
v -3.960000 3.180000 -0.000000
v -2.400000 3.180000 -0.000000
v -1.300000 2.100000 -0.000000
v -1.300000 4.250000 -0.000000
v -2.298000 0.020000 2.298000
v -2.298000 2.200000 2.298000
v -2.800000 3.180000 2.800000
v -1.697000 3.180000 1.697000
v -0.919000 2.100000 0.919000
v -2.815000 0.020000 1.625000
v -2.815000 2.200000 1.625000
v -2.079000 0.020000 1.200000
v -2.079000 2.100000 1.200000
v -3.429000 2.200000 1.980000
v -3.429000 3.180000 1.980000
v -2.078000 3.180000 1.200000
v -1.126000 2.100000 0.650000
v -1.126000 4.250000 0.650000
v -3.139000 0.020000 0.841000
v -3.139000 2.200000 0.841000
v -2.318000 0.020000 0.621000
v -2.318000 2.100000 0.621000
v -3.825000 2.200000 1.025000
v -3.825000 3.180000 1.025000
v -2.318000 3.180000 0.621000
v -1.256000 2.100000 0.336000
v -1.256000 4.250000 0.336000
v -1.697000 0.020000 1.697000
v -1.697000 2.100000 1.697000
v -2.800000 2.200000 2.800000
v -0.919000 4.250000 0.919000
v 0.000000 2.100000 1.300000
v 0.000000 4.250000 1.300000
v -0.841000 0.020000 3.139000
v -0.841000 2.200000 3.139000
v -0.621000 0.020000 2.318000
v -0.621000 2.100000 2.318000
v -1.025000 2.200000 3.825000
v -1.025000 3.180000 3.825000
v -0.621000 3.180000 2.318000
v -0.336000 2.100000 1.256000
v -0.336000 4.250000 1.256000
v -1.625000 0.020000 2.815000
v -1.625000 2.200000 2.815000
v -1.200000 0.020000 2.079000
v -1.200000 2.100000 2.079000
v -1.980000 2.200000 3.429000
v -1.980000 3.180000 3.429000
v -1.200000 3.180000 2.078000
v -0.650000 2.100000 1.126000
v -0.650000 4.250000 1.126000
v 0.000000 4.250000 -0.000000
v 0.000000 0.020000 3.250000
v 0.000000 2.200000 3.250000
v 2.298000 0.020000 2.298000
v 2.800000 2.200000 2.800000
v 0.919000 4.250000 0.919000
v 1.200000 2.100000 2.079000
v 1.980000 3.180000 3.429000
v 0.650000 4.250000 1.126000
v 0.621000 2.100000 2.318000
v 0.621000 3.180000 2.318000
v 0.336000 4.250000 1.256000
v 1.697000 0.020000 1.697000
v 1.200000 0.020000 2.079000
v 1.980000 2.200000 3.429000
v 1.025000 2.200000 3.825000
v 0.841000 2.200000 3.139000
v 1.625000 2.200000 2.815000
v 0.621000 0.020000 2.318000
v 0.841000 0.020000 3.139000
v 1.625000 0.020000 2.815000
v 0.336000 2.100000 1.256000
v 0.650000 2.100000 1.126000
v 0.000000 0.020000 2.400000
v 0.000000 2.200000 3.960000
v 0.000000 3.180000 3.960000
v 1.025000 3.180000 3.825000
v 3.250000 2.200000 -0.000000
v 3.139000 2.200000 0.841000
v 3.139000 0.020000 0.841000
v 3.250000 0.020000 -0.000000
v 1.300000 2.100000 -0.000000
v 1.256000 2.100000 0.336000
v 1.256000 4.250000 0.336000
v 1.300000 4.250000 -0.000000
v 2.400000 0.020000 -0.000000
v 2.318000 0.020000 0.621000
v 2.400000 2.100000 -0.000000
v 2.318000 2.100000 0.621000
v 3.825000 2.200000 1.025000
v 3.429000 2.200000 1.980000
v 2.815000 2.200000 1.625000
v 2.079000 0.020000 1.200000
v 2.815000 0.020000 1.625000
v 2.079000 2.100000 1.200000
v 1.126000 2.100000 0.650000
v 1.126000 4.250000 0.650000
v 3.429000 3.180000 1.980000
v 3.825000 3.180000 1.025000
v 2.298000 2.200000 2.298000
v 0.919000 2.100000 0.919000
v 2.800000 3.180000 2.800000
v 0.919000 2.100000 -0.919000
v 1.126000 2.100000 -0.650000
v 1.126000 4.250000 -0.650000
v 0.919000 4.250000 -0.919000
v 2.800000 2.200000 -2.800000
v 3.429000 2.200000 -1.980000
v 3.429000 3.180000 -1.980000
v 2.800000 3.180000 -2.800000
v 1.697000 0.020000 -1.697000
v 2.079000 0.020000 -1.200000
v 1.697000 2.100000 -1.697000
v 2.079000 2.100000 -1.200000
v 3.825000 2.200000 -1.025000
v 3.139000 2.200000 -0.841000
v 2.815000 2.200000 -1.625000
v 2.318000 0.020000 -0.621000
v 3.139000 0.020000 -0.841000
v 2.815000 0.020000 -1.625000
v 2.318000 2.100000 -0.621000
v 1.256000 2.100000 -0.336000
v 1.256000 4.250000 -0.336000
v 3.825000 3.180000 -1.025000
v 3.960000 2.200000 -0.000000
v 3.960000 3.180000 -0.000000
v 0.000000 2.100000 -1.300000
v 0.336000 2.100000 -1.256000
v 0.336000 4.250000 -1.256000
v 0.000000 4.250000 -1.300000
v 0.000000 2.200000 -3.960000
v 1.025000 2.200000 -3.825000
v 1.025000 3.180000 -3.825000
v 0.000000 3.180000 -3.960000
v 0.000000 0.020000 -2.400000
v 0.621000 0.020000 -2.318000
v 0.000000 2.100000 -2.400000
v 0.621000 2.100000 -2.318000
v 1.980000 2.200000 -3.429000
v 1.625000 2.200000 -2.815000
v 0.841000 2.200000 -3.139000
v 1.200000 0.020000 -2.079000
v 1.625000 0.020000 -2.815000
v 0.841000 0.020000 -3.139000
v 1.200000 2.100000 -2.079000
v 0.650000 2.100000 -1.126000
v 0.650000 4.250000 -1.126000
v 1.980000 3.180000 -3.429000
v 2.298000 2.200000 -2.298000
v 2.298000 0.020000 -2.298000
v -0.919000 2.100000 -0.919000
v -0.650000 2.100000 -1.126000
v -2.800000 2.200000 -2.800000
v -1.980000 2.200000 -3.429000
v -1.980000 3.180000 -3.429000
v -2.800000 3.180000 -2.800000
v -1.697000 0.020000 -1.697000
v -1.200000 0.020000 -2.079000
v -1.697000 2.100000 -1.697000
v -1.200000 2.100000 -2.079000
v -1.025000 2.200000 -3.825000
v -0.841000 2.200000 -3.139000
v -1.625000 2.200000 -2.815000
v -0.621000 0.020000 -2.318000
v -0.841000 0.020000 -3.139000
v -1.625000 0.020000 -2.815000
v -0.621000 2.100000 -2.318000
v -0.336000 2.100000 -1.256000
v -0.336000 4.250000 -1.256000
v -0.650000 4.250000 -1.126000
v -1.025000 3.180000 -3.825000
v 0.000000 2.200000 -3.250000
v 0.000000 0.020000 -3.250000
v -3.250000 2.200000 -0.000000
v -3.139000 2.200000 -0.841000
v -3.960000 2.200000 -0.000000
v -3.825000 2.200000 -1.025000
v -3.429000 2.200000 -1.980000
v -2.815000 2.200000 -1.625000
v -2.318000 0.020000 -0.621000
v -2.079000 0.020000 -1.200000
v -2.815000 0.020000 -1.625000
v -3.139000 0.020000 -0.841000
v -2.318000 2.100000 -0.621000
v -2.079000 2.100000 -1.200000
v -1.126000 2.100000 -0.650000
v -1.256000 2.100000 -0.336000
v -1.126000 4.250000 -0.650000
v -1.256000 4.250000 -0.336000
v -3.429000 3.180000 -1.980000
v -3.825000 3.180000 -1.025000
v -2.298000 2.200000 -2.298000
v -2.298000 0.020000 -2.298000
v -0.919000 4.250000 -0.919000
v -2.298000 2.200000 2.298000
v -2.815000 2.200000 1.625000
v -2.815000 0.020000 1.625000
v -2.298000 0.020000 2.298000
v -0.919000 2.100000 0.919000
v -1.126000 2.100000 0.650000
v -3.429000 3.180000 1.980000
v -2.800000 3.180000 2.800000
v -3.429000 2.200000 1.980000
v -3.825000 2.200000 1.025000
v -3.139000 2.200000 0.841000
v -2.079000 0.020000 1.200000
v -2.318000 0.020000 0.621000
v -3.139000 0.020000 0.841000
v -2.079000 2.100000 1.200000
v -2.318000 2.100000 0.621000
v -1.256000 2.100000 0.336000
v -1.256000 4.250000 0.336000
v -1.126000 4.250000 0.650000
v -3.825000 3.180000 1.025000
v -2.400000 2.100000 -0.000000
v -2.400000 0.020000 -0.000000
v -3.250000 0.020000 -0.000000
v -1.300000 2.100000 -0.000000
v -1.300000 4.250000 -0.000000
v -3.960000 3.180000 -0.000000
v 0.000000 2.100000 1.300000
v -0.336000 2.100000 1.256000
v -0.336000 4.250000 1.256000
v 0.000000 4.250000 1.300000
v -1.025000 2.200000 3.825000
v -1.980000 2.200000 3.429000
v -1.625000 2.200000 2.815000
v -0.841000 2.200000 3.139000
v -0.621000 0.020000 2.318000
v -1.200000 0.020000 2.079000
v -1.625000 0.020000 2.815000
v -0.841000 0.020000 3.139000
v -0.621000 2.100000 2.318000
v -1.200000 2.100000 2.079000
v -0.650000 2.100000 1.126000
v -0.650000 4.250000 1.126000
v -1.980000 3.180000 3.429000
v -1.025000 3.180000 3.825000
v -1.697000 2.100000 1.697000
v -1.697000 0.020000 1.697000
v -0.919000 4.250000 0.919000
v -2.800000 2.200000 2.800000
v 0.650000 4.250000 1.126000
v 0.919000 4.250000 0.919000
v 1.200000 2.100000 2.079000
v 0.621000 2.100000 2.318000
v 0.336000 4.250000 1.256000
v 2.298000 0.020000 2.298000
v 2.800000 2.200000 2.800000
v 1.980000 3.180000 3.429000
v 1.697000 2.100000 1.697000
v 0.000000 2.100000 2.400000
v 0.000000 2.200000 3.250000
v 0.000000 0.020000 3.250000
v 0.918000 4.750000 -2.217000
v 0.821000 5.000000 -1.982000
v 0.890000 4.927000 -2.148000
v 1.517000 5.000000 -1.517000
v 1.697000 4.750000 -1.697000
v 1.644000 4.927000 -1.644000
v 2.217000 4.750000 -0.918000
v 1.982000 5.000000 -0.821000
v 2.148000 4.927000 -0.890000
v 2.145000 5.000000 -0.000000
v 2.400000 4.750000 -0.000000
v 2.325000 4.927000 -0.000000
v 2.217000 4.750000 0.918000
v 1.982000 5.000000 0.821000
v 2.148000 4.927000 0.890000
v 1.697000 4.750000 1.697000
v 1.517000 5.000000 1.517000
v 1.644000 4.927000 1.644000
v 0.918000 4.750000 2.217000
v 0.821000 5.000000 1.982000
v 0.890000 4.927000 2.148000
v 0.000000 4.750000 2.400000
v 0.000000 5.000000 2.145000
v 0.000000 4.927000 2.325000
v -0.821000 5.000000 1.982000
v -0.918000 4.750000 2.217000
v -0.890000 4.927000 2.148000
v -1.697000 4.750000 1.697000
v -1.517000 5.000000 1.517000
v -1.644000 4.927000 1.644000
v -2.217000 4.750000 0.918000
v -1.982000 5.000000 0.821000
v -2.148000 4.927000 0.890000
v -2.400000 4.750000 -0.000000
v -2.145000 5.000000 -0.000000
v -2.325000 4.927000 -0.000000
v -2.217000 4.750000 -0.918000
v -1.982000 5.000000 -0.821000
v -2.148000 4.927000 -0.890000
v -1.517000 5.000000 -1.517000
v -1.697000 4.750000 -1.697000
v -1.644000 4.927000 -1.644000
v -0.918000 4.750000 -2.217000
v -0.821000 5.000000 -1.982000
v -0.890000 4.927000 -2.148000
v 0.000000 4.750000 -2.400001
v 0.000000 5.000000 -2.145000
v 0.000000 4.927000 -2.325001
v 1.063000 5.000000 1.014000
v 1.164000 5.000000 -0.000000
v 1.063000 5.000000 -1.014000
v 0.000000 5.000000 1.097000
v 0.000000 5.000000 -0.000000
v 0.000000 5.000000 -1.097000
v -1.063000 5.000000 1.014000
v -1.164000 5.000000 -0.000000
v -1.063000 5.000000 -1.014000
v 0.000000 3.330000 -2.400000
v 0.000000 3.180000 -2.553000
v 0.000000 3.224000 -2.445000
v -0.977000 3.180000 -2.359000
v -0.918000 3.330000 -2.217000
v -0.936000 3.224000 -2.259000
v -1.805000 3.180000 -1.805000
v -1.697000 3.330000 -1.697000
v -1.729000 3.224000 -1.729000
v -2.359000 3.180000 -0.977000
v -2.217000 3.330000 -0.918000
v -2.259000 3.224000 -0.936000
v -2.553000 3.180000 -0.000000
v -2.400000 3.330000 -0.000000
v -2.445000 3.224000 -0.000000
v -2.359000 3.180000 0.977000
v -2.217000 3.330000 0.918000
v -2.259000 3.224000 0.936000
v -1.805000 3.180000 1.805000
v -1.697000 3.330000 1.697000
v -1.729000 3.224000 1.729000
v -0.977000 3.180000 2.359000
v -0.918000 3.330000 2.217000
v -0.936000 3.224000 2.259000
v 0.000000 3.180000 2.553000
v 0.000000 3.330000 2.400000
v 0.000000 3.224000 2.445000
v 0.977000 3.180000 2.359000
v 0.918000 3.330000 2.217000
v 0.936000 3.224000 2.259000
v 1.805000 3.180000 1.805000
v 1.697000 3.330000 1.697000
v 1.729000 3.224000 1.729000
v 2.359000 3.180000 0.977000
v 2.217000 3.330000 0.918000
v 2.259000 3.224000 0.936000
v 2.553000 3.180000 -0.000000
v 2.400000 3.330000 -0.000000
v 2.445000 3.224000 -0.000000
v 2.359000 3.180000 -0.977000
v 2.217000 3.330000 -0.918000
v 2.259000 3.224000 -0.936000
v 1.805000 3.180000 -1.805000
v 1.697000 3.330000 -1.697000
v 1.729000 3.224000 -1.729000
v 0.977000 3.180000 -2.359000
v 0.918000 3.330000 -2.217000
v 0.936000 3.224000 -2.259000
vn 0.6092 -0.0000 0.7930
vn 0.6099 -0.0000 0.7925
vn 0.6086 -0.0000 0.7935
vn -0.0000 1.0000 -0.0000
vn 0.6094 -0.0000 0.7929
vn 0.3816 -0.0000 0.9243
vn 0.3819 -0.0000 0.9242
vn 0.3825 -0.0000 0.9239
vn 0.3830 -0.0000 0.9237
vn 0.1309 -0.0000 0.9914
vn 0.1298 -0.0000 0.9915
vn 0.1306 -0.0000 0.9914
vn 0.9914 -0.0000 0.1309
vn 0.9915 -0.0000 0.1298
vn 0.9914 -0.0000 0.1306
vn 0.9243 -0.0000 0.3816
vn 0.9242 -0.0000 0.3819
vn 0.9239 -0.0000 0.3825
vn 0.9237 -0.0000 0.3830
vn 0.7929 -0.0000 0.6094
vn 0.7930 -0.0000 0.6092
vn 0.7925 -0.0000 0.6099
vn 0.7935 -0.0000 0.6086
vn 0.7930 -0.0000 -0.6092
vn 0.7925 -0.0000 -0.6099
vn 0.7935 -0.0000 -0.6086
vn 0.7929 -0.0000 -0.6094
vn 0.9243 -0.0000 -0.3816
vn 0.9242 -0.0000 -0.3819
vn 0.9239 -0.0000 -0.3825
vn 0.9237 -0.0000 -0.3830
vn 0.9914 -0.0000 -0.1309
vn 0.9915 -0.0000 -0.1298
vn 0.9914 -0.0000 -0.1306
vn 0.1309 -0.0000 -0.9914
vn 0.1298 -0.0000 -0.9915
vn 0.1306 -0.0000 -0.9914
vn 0.3816 -0.0000 -0.9243
vn 0.3819 -0.0000 -0.9242
vn 0.3825 -0.0000 -0.9239
vn 0.3830 -0.0000 -0.9237
vn 0.6094 -0.0000 -0.7929
vn 0.6092 -0.0000 -0.7930
vn 0.6099 -0.0000 -0.7925
vn 0.6086 -0.0000 -0.7935
vn -0.6092 -0.0000 -0.7930
vn -0.6099 -0.0000 -0.7925
vn -0.6086 -0.0000 -0.7935
vn -0.6094 -0.0000 -0.7929
vn -0.3816 -0.0000 -0.9243
vn -0.3819 -0.0000 -0.9242
vn -0.3825 -0.0000 -0.9239
vn -0.3830 -0.0000 -0.9237
vn -0.1309 -0.0000 -0.9914
vn -0.1298 -0.0000 -0.9915
vn -0.1306 -0.0000 -0.9914
vn -0.9914 -0.0000 -0.1309
vn -0.9915 -0.0000 -0.1298
vn -0.9914 -0.0000 -0.1306
vn -0.9243 -0.0000 -0.3816
vn -0.9242 -0.0000 -0.3819
vn -0.9239 -0.0000 -0.3825
vn -0.9237 -0.0000 -0.3830
vn -0.7929 -0.0000 -0.6094
vn -0.7930 -0.0000 -0.6092
vn -0.7925 -0.0000 -0.6099
vn -0.7935 -0.0000 -0.6086
vn -0.7930 -0.0000 0.6092
vn -0.7925 -0.0000 0.6099
vn -0.7935 -0.0000 0.6086
vn -0.7929 -0.0000 0.6094
vn -0.9243 -0.0000 0.3816
vn -0.9242 -0.0000 0.3819
vn -0.9239 -0.0000 0.3825
vn -0.9237 -0.0000 0.3830
vn -0.9914 -0.0000 0.1309
vn -0.9915 -0.0000 0.1298
vn -0.9914 -0.0000 0.1306
vn -0.1309 -0.0000 0.9914
vn -0.1298 -0.0000 0.9915
vn -0.1306 -0.0000 0.9914
vn -0.3816 -0.0000 0.9243
vn -0.3819 -0.0000 0.9242
vn -0.3825 -0.0000 0.9239
vn -0.3830 -0.0000 0.9237
vn -0.6094 -0.0000 0.7929
vn -0.6092 -0.0000 0.7930
vn -0.6099 -0.0000 0.7925
vn -0.6086 -0.0000 0.7935
vn -0.8317 -0.0000 -0.5552
vn 0.7681 0.3835 -0.5127
vn 0.7687 0.3809 -0.5138
vn 0.3183 0.9238 -0.2127
vn 0.3180 0.9240 -0.2125
vn 0.9056 0.3837 0.1805
vn 0.9065 0.3819 0.1803
vn 0.3748 0.9241 0.0745
vn 0.3753 0.9239 0.0745
vn -0.5133 0.3810 0.7690
vn -0.5132 0.3836 0.7678
vn -0.2125 0.9240 0.3180
vn -0.2127 0.9238 0.3183
vn 0.7690 0.3810 0.5133
vn 0.7678 0.3836 0.5132
vn 0.3180 0.9240 0.2125
vn 0.3183 0.9238 0.2127
vn 0.5127 0.3835 0.7681
vn 0.5138 0.3809 0.7687
vn 0.2127 0.9238 0.3183
vn 0.2125 0.9240 0.3180
vn -0.7681 0.3835 0.5127
vn -0.7687 0.3809 0.5138
vn -0.3183 0.9238 0.2127
vn -0.3180 0.9240 0.2125
vn -0.9064 0.3819 0.1807
vn -0.9057 0.3838 0.1801
vn -0.3753 0.9239 0.0746
vn -0.3748 0.9241 0.0744
vn -0.5127 0.3835 -0.7681
vn -0.5138 0.3809 -0.7687
vn -0.2127 0.9238 -0.3183
vn -0.2125 0.9240 -0.3180
vn 0.1807 0.3819 0.9064
vn 0.1801 0.3838 0.9057
vn 0.0746 0.9239 0.3753
vn 0.0744 0.9241 0.3748
vn -0.1805 0.3837 0.9056
vn -0.1803 0.3819 0.9065
vn -0.0745 0.9241 0.3748
vn -0.0745 0.9239 0.3753
vn -0.9056 0.3837 -0.1805
vn -0.9065 0.3819 -0.1803
vn -0.3748 0.9241 -0.0745
vn -0.3753 0.9239 -0.0745
vn -0.7690 0.3810 -0.5133
vn -0.7678 0.3836 -0.5132
vn -0.3180 0.9240 -0.2125
vn -0.3183 0.9238 -0.2127
vn -0.1807 0.3819 -0.9064
vn -0.1801 0.3838 -0.9057
vn -0.0746 0.9239 -0.3753
vn -0.0744 0.9241 -0.3748
vn 0.9064 0.3819 -0.1807
vn 0.9057 0.3838 -0.1801
vn 0.3753 0.9239 -0.0746
vn 0.3748 0.9241 -0.0744
vn 0.1805 0.3837 -0.9056
vn 0.1803 0.3819 -0.9065
vn 0.0745 0.9241 -0.3748
vn 0.0745 0.9239 -0.3753
vn 0.5133 0.3810 -0.7690
vn 0.5132 0.3836 -0.7678
vn 0.2125 0.9240 -0.3180
vn 0.2127 0.9238 -0.3183
vn -0.1801 0.3886 -0.9036
vn -0.1799 0.3844 -0.9055
vn -0.0747 0.9237 -0.3758
vn -0.0747 0.9235 -0.3762
vn -0.5121 0.3862 -0.7672
vn -0.5116 0.3902 -0.7655
vn -0.2140 0.9228 -0.3202
vn -0.2133 0.9235 -0.3189
vn -0.7658 0.3902 -0.5112
vn -0.7669 0.3862 -0.5125
vn -0.3189 0.9235 -0.2132
vn -0.3201 0.9229 -0.2142
vn -0.9054 0.3844 -0.1805
vn -0.9037 0.3886 -0.1796
vn -0.3762 0.9235 -0.0748
vn -0.3758 0.9237 -0.0746
vn -0.9036 0.3886 0.1801
vn -0.9055 0.3844 0.1799
vn -0.3758 0.9237 0.0747
vn -0.3762 0.9235 0.0747
vn -0.7672 0.3862 0.5121
vn -0.7655 0.3902 0.5116
vn -0.3202 0.9228 0.2140
vn -0.3189 0.9235 0.2133
vn -0.5112 0.3902 0.7658
vn -0.5125 0.3862 0.7669
vn -0.2132 0.9235 0.3189
vn -0.2142 0.9229 0.3201
vn -0.1805 0.3844 0.9054
vn -0.1796 0.3886 0.9037
vn -0.0748 0.9235 0.3762
vn -0.0746 0.9237 0.3758
vn 0.1801 0.3886 0.9036
vn 0.1799 0.3844 0.9055
vn 0.0747 0.9237 0.3758
vn 0.0747 0.9235 0.3762
vn 0.5121 0.3862 0.7672
vn 0.5116 0.3902 0.7655
vn 0.2140 0.9228 0.3202
vn 0.2133 0.9235 0.3189
vn 0.7658 0.3902 0.5112
vn 0.7669 0.3862 0.5125
vn 0.3189 0.9235 0.2132
vn 0.3201 0.9229 0.2142
vn 0.9054 0.3844 0.1805
vn 0.9037 0.3886 0.1796
vn 0.3762 0.9235 0.0748
vn 0.3758 0.9237 0.0746
vn 0.9036 0.3886 -0.1801
vn 0.9055 0.3844 -0.1799
vn 0.3758 0.9237 -0.0747
vn 0.3762 0.9235 -0.0747
vn 0.7672 0.3862 -0.5121
vn 0.7655 0.3902 -0.5116
vn 0.3202 0.9228 -0.2140
vn 0.3189 0.9235 -0.2133
vn 0.5112 0.3902 -0.7658
vn 0.5125 0.3862 -0.7669
vn 0.2132 0.9235 -0.3189
vn 0.2142 0.9229 -0.3201
vn 0.1805 0.3844 -0.9054
vn 0.1796 0.3886 -0.9037
vn 0.0748 0.9235 -0.3762
vn 0.0746 0.9237 -0.3758
vn 0.5552 -0.0000 0.8317
vn -0.5552 -0.0000 -0.8317
vn 0.1955 -0.0000 0.9807
vn 0.1955 -0.0000 -0.9807
vn -0.1955 -0.0000 -0.9807
vn -0.1955 -0.0000 0.9807
vn 0.5552 -0.0000 -0.8317
vn -0.5552 -0.0000 0.8317
vn 0.8317 -0.0000 -0.5552
vn -0.8317 -0.0000 0.5552
vn 0.9807 -0.0000 -0.1955
vn -0.9807 -0.0000 0.1955
vn 0.9807 -0.0000 0.1955
vn -0.9807 -0.0000 -0.1955
vn 0.8317 -0.0000 0.5552
s 0
usemtl MB_5.002
f 403//1 255//1 226//1
f 255//1 223//1 226//1
f 399//2 398//2 256//2
f 256//2 398//2 14//2
f 257//3 213//3 404//3
f 213//3 12//3 404//3
f 8//4 13//4 22//4
f 13//4 405//4 22//4
f 211//4 206//4 214//4
f 21//4 10//4 210//4
f 210//4 10//4 220//4
f 209//4 6//4 9//4
f 9//4 6//4 219//4
f 23//4 228//4 7//4
f 7//4 228//4 400//4
f 218//5 406//5 11//5
f 11//5 406//5 212//5
f 10//4 16//4 220//4
f 220//4 16//4 18//4
f 9//4 219//4 15//4
f 15//4 219//4 224//4
f 228//4 227//4 400//4
f 400//4 227//4 401//4
f 11//6 212//6 17//6
f 17//6 212//6 215//6
f 226//7 223//7 225//7
f 223//7 222//7 225//7
f 398//8 402//8 14//8
f 14//8 402//8 20//8
f 213//9 232//9 12//9
f 232//9 221//9 12//9
f 13//4 216//4 405//4
f 216//4 19//4 405//4
f 214//4 206//4 217//4
f 17//10 215//10 229//10
f 229//10 215//10 407//10
f 225//10 222//10 409//10
f 222//10 408//10 409//10
f 402//11 379//11 20//11
f 20//11 379//11 376//11
f 232//12 4//12 221//12
f 4//12 230//12 221//12
f 216//4 5//4 19//4
f 5//4 231//4 19//4
f 217//4 206//4 187//4
f 16//4 208//4 18//4
f 18//4 208//4 3//4
f 15//4 224//4 207//4
f 207//4 224//4 1//4
f 227//4 186//4 401//4
f 401//4 186//4 2//4
f 236//13 233//13 235//13
f 233//13 234//13 235//13
f 240//14 239//14 29//14
f 29//14 239//14 38//14
f 281//15 36//15 280//15
f 36//15 245//15 280//15
f 28//4 37//4 50//4
f 37//4 254//4 50//4
f 30//4 206//4 39//4
f 25//4 32//4 49//4
f 49//4 32//4 35//4
f 24//4 241//4 31//4
f 31//4 241//4 242//4
f 237//4 238//4 27//4
f 27//4 238//4 34//4
f 26//13 243//13 33//13
f 33//13 243//13 244//13
f 32//4 41//4 35//4
f 35//4 41//4 44//4
f 31//4 242//4 40//4
f 40//4 242//4 248//4
f 238//4 251//4 34//4
f 34//4 251//4 43//4
f 33//16 244//16 42//16
f 42//16 244//16 250//16
f 235//17 234//17 249//17
f 234//17 247//17 249//17
f 239//18 252//18 38//18
f 38//18 252//18 47//18
f 36//19 45//19 245//19
f 45//19 246//19 245//19
f 37//4 46//4 254//4
f 46//4 253//4 254//4
f 39//4 206//4 48//4
f 42//20 250//20 218//20
f 218//20 250//20 406//20
f 249//21 247//21 403//21
f 247//21 255//21 403//21
f 252//22 399//22 47//22
f 47//22 399//22 256//22
f 45//23 257//23 246//23
f 257//23 404//23 246//23
f 46//4 8//4 253//4
f 8//4 22//4 253//4
f 48//4 206//4 211//4
f 41//4 21//4 44//4
f 44//4 21//4 210//4
f 40//4 248//4 209//4
f 209//4 248//4 6//4
f 251//4 23//4 43//4
f 43//4 23//4 7//4
f 305//24 304//24 275//24
f 304//24 272//24 275//24
f 261//25 260//25 55//25
f 55//25 260//25 64//25
f 265//26 62//26 262//26
f 62//26 263//26 262//26
f 77//4 63//4 54//4
f 63//4 264//4 54//4
f 56//4 206//4 65//4
f 76//4 58//4 53//4
f 53//4 58//4 61//4
f 75//4 51//4 57//4
f 57//4 51//4 267//4
f 258//4 259//4 52//4
f 52//4 259//4 60//4
f 266//27 268//27 59//27
f 59//27 268//27 269//27
f 58//4 67//4 61//4
f 61//4 67//4 70//4
f 57//4 267//4 66//4
f 66//4 267//4 273//4
f 259//4 277//4 60//4
f 60//4 277//4 69//4
f 59//28 269//28 68//28
f 68//28 269//28 276//28
f 275//29 272//29 274//29
f 272//29 271//29 274//29
f 260//30 278//30 64//30
f 64//30 278//30 73//30
f 62//31 71//31 263//31
f 71//31 270//31 263//31
f 63//4 72//4 264//4
f 72//4 279//4 264//4
f 65//4 206//4 74//4
f 68//32 276//32 26//32
f 26//32 276//32 243//32
f 274//32 271//32 236//32
f 271//32 233//32 236//32
f 278//33 240//33 73//33
f 73//33 240//33 29//33
f 71//34 281//34 270//34
f 281//34 280//34 270//34
f 72//4 28//4 279//4
f 28//4 50//4 279//4
f 74//4 206//4 30//4
f 67//4 25//4 70//4
f 70//4 25//4 49//4
f 66//4 273//4 24//4
f 24//4 273//4 241//4
f 277//4 237//4 69//4
f 69//4 237//4 27//4
f 328//35 327//35 299//35
f 327//35 296//35 299//35
f 285//36 284//36 82//36
f 82//36 284//36 91//36
f 289//37 89//37 286//37
f 89//37 287//37 286//37
f 104//4 90//4 81//4
f 90//4 288//4 81//4
f 83//4 206//4 92//4
f 103//4 85//4 80//4
f 80//4 85//4 88//4
f 102//4 78//4 84//4
f 84//4 78//4 291//4
f 282//4 283//4 79//4
f 79//4 283//4 87//4
f 290//35 292//35 86//35
f 86//35 292//35 293//35
f 85//4 94//4 88//4
f 88//4 94//4 97//4
f 84//4 291//4 93//4
f 93//4 291//4 297//4
f 283//4 301//4 87//4
f 87//4 301//4 96//4
f 86//38 293//38 95//38
f 95//38 293//38 300//38
f 299//39 296//39 298//39
f 296//39 295//39 298//39
f 284//40 302//40 91//40
f 91//40 302//40 100//40
f 89//41 98//41 287//41
f 98//41 294//41 287//41
f 90//4 99//4 288//4
f 99//4 303//4 288//4
f 92//4 206//4 101//4
f 95//42 300//42 266//42
f 266//42 300//42 268//42
f 298//43 295//43 305//43
f 295//43 304//43 305//43
f 302//44 261//44 100//44
f 100//44 261//44 55//44
f 98//45 265//45 294//45
f 265//45 262//45 294//45
f 99//4 77//4 303//4
f 77//4 54//4 303//4
f 101//4 206//4 56//4
f 94//4 76//4 97//4
f 97//4 76//4 53//4
f 93//4 297//4 75//4
f 75//4 297//4 51//4
f 301//4 258//4 96//4
f 96//4 258//4 52//4
f 348//46 347//46 321//46
f 347//46 318//46 321//46
f 349//47 325//47 109//47
f 109//47 325//47 117//47
f 311//48 115//48 308//48
f 115//48 309//48 308//48
f 130//4 116//4 108//4
f 116//4 310//4 108//4
f 131//4 206//4 118//4
f 129//4 111//4 107//4
f 107//4 111//4 114//4
f 128//4 105//4 110//4
f 110//4 105//4 313//4
f 306//4 307//4 106//4
f 106//4 307//4 113//4
f 312//49 314//49 112//49
f 112//49 314//49 315//49
f 111//4 120//4 114//4
f 114//4 120//4 123//4
f 110//4 313//4 119//4
f 119//4 313//4 319//4
f 307//4 323//4 113//4
f 113//4 323//4 122//4
f 112//50 315//50 121//50
f 121//50 315//50 322//50
f 321//51 318//51 320//51
f 318//51 317//51 320//51
f 325//52 324//52 117//52
f 117//52 324//52 126//52
f 115//53 124//53 309//53
f 124//53 316//53 309//53
f 116//4 125//4 310//4
f 125//4 326//4 310//4
f 118//4 206//4 127//4
f 121//54 322//54 290//54
f 290//54 322//54 292//54
f 320//54 317//54 328//54
f 317//54 327//54 328//54
f 324//55 285//55 126//55
f 126//55 285//55 82//55
f 124//56 289//56 316//56
f 289//56 286//56 316//56
f 125//4 104//4 326//4
f 104//4 81//4 326//4
f 127//4 206//4 83//4
f 120//4 103//4 123//4
f 123//4 103//4 80//4
f 119//4 319//4 102//4
f 102//4 319//4 78//4
f 323//4 282//4 122//4
f 122//4 282//4 79//4
f 152//57 132//57 338//57
f 132//57 330//57 338//57
f 374//58 344//58 157//58
f 157//58 344//58 141//58
f 155//59 139//59 133//59
f 139//59 332//59 133//59
f 156//4 140//4 375//4
f 140//4 346//4 375//4
f 158//4 206//4 142//4
f 329//4 135//4 331//4
f 331//4 135//4 138//4
f 372//4 371//4 134//4
f 134//4 371//4 335//4
f 373//4 342//4 154//4
f 154//4 342//4 137//4
f 153//57 370//57 136//57
f 136//57 370//57 339//57
f 135//4 144//4 138//4
f 138//4 144//4 147//4
f 134//4 335//4 143//4
f 143//4 335//4 336//4
f 342//4 341//4 137//4
f 137//4 341//4 146//4
f 136//60 339//60 145//60
f 145//60 339//60 340//60
f 338//61 330//61 337//61
f 330//61 334//61 337//61
f 344//62 343//62 141//62
f 141//62 343//62 150//62
f 139//63 148//63 332//63
f 148//63 333//63 332//63
f 140//4 149//4 346//4
f 149//4 345//4 346//4
f 142//4 206//4 151//4
f 145//64 340//64 312//64
f 312//64 340//64 314//64
f 337//65 334//65 348//65
f 334//65 347//65 348//65
f 343//66 349//66 150//66
f 150//66 349//66 109//66
f 148//67 311//67 333//67
f 311//67 308//67 333//67
f 149//4 130//4 345//4
f 130//4 108//4 345//4
f 151//4 206//4 131//4
f 144//4 129//4 147//4
f 147//4 129//4 107//4
f 143//4 336//4 128//4
f 128//4 336//4 105//4
f 341//4 306//4 146//4
f 146//4 306//4 106//4
f 353//68 350//68 352//68
f 350//68 351//68 352//68
f 396//69 368//69 354//69
f 354//69 368//69 171//69
f 161//70 169//70 397//70
f 169//70 358//70 397//70
f 162//4 170//4 357//4
f 170//4 356//4 357//4
f 185//4 206//4 172//4
f 160//4 165//4 184//4
f 184//4 165//4 168//4
f 159//4 182//4 164//4
f 164//4 182//4 361//4
f 163//4 355//4 183//4
f 183//4 355//4 167//4
f 395//71 394//71 166//71
f 166//71 394//71 364//71
f 165//4 174//4 168//4
f 168//4 174//4 177//4
f 164//4 361//4 173//4
f 173//4 361//4 362//4
f 355//4 366//4 167//4
f 167//4 366//4 176//4
f 166//72 364//72 175//72
f 175//72 364//72 365//72
f 352//73 351//73 363//73
f 351//73 360//73 363//73
f 368//74 367//74 171//74
f 171//74 367//74 180//74
f 169//75 178//75 358//75
f 178//75 359//75 358//75
f 170//4 179//4 356//4
f 179//4 369//4 356//4
f 172//4 206//4 181//4
f 175//76 365//76 153//76
f 153//76 365//76 370//76
f 363//76 360//76 152//76
f 360//76 132//76 152//76
f 367//77 374//77 180//77
f 180//77 374//77 157//77
f 178//78 155//78 359//78
f 155//78 133//78 359//78
f 179//4 156//4 369//4
f 156//4 375//4 369//4
f 181//4 206//4 158//4
f 174//4 329//4 177//4
f 177//4 329//4 331//4
f 173//4 362//4 372//4
f 372//4 362//4 371//4
f 366//4 373//4 176//4
f 176//4 373//4 154//4
f 409//79 408//79 387//79
f 408//79 383//79 387//79
f 379//80 378//80 376//80
f 376//80 378//80 195//80
f 4//81 193//81 230//81
f 193//81 380//81 230//81
f 5//4 194//4 231//4
f 194//4 393//4 231//4
f 187//4 206//4 196//4
f 208//4 189//4 3//4
f 3//4 189//4 192//4
f 207//4 1//4 188//4
f 188//4 1//4 384//4
f 186//4 377//4 2//4
f 2//4 377//4 191//4
f 229//79 407//79 190//79
f 190//79 407//79 388//79
f 189//4 198//4 192//4
f 192//4 198//4 201//4
f 188//4 384//4 197//4
f 197//4 384//4 385//4
f 377//4 390//4 191//4
f 191//4 390//4 200//4
f 190//82 388//82 199//82
f 199//82 388//82 389//82
f 387//83 383//83 386//83
f 383//83 382//83 386//83
f 378//84 391//84 195//84
f 195//84 391//84 204//84
f 193//85 202//85 380//85
f 202//85 381//85 380//85
f 194//4 203//4 393//4
f 203//4 392//4 393//4
f 196//4 206//4 205//4
f 199//86 389//86 395//86
f 395//86 389//86 394//86
f 386//87 382//87 353//87
f 382//87 350//87 353//87
f 391//88 396//88 204//88
f 204//88 396//88 354//88
f 202//89 161//89 381//89
f 161//89 397//89 381//89
f 203//4 162//4 392//4
f 162//4 357//4 392//4
f 205//4 206//4 185//4
f 198//4 160//4 201//4
f 201//4 160//4 184//4
f 197//4 385//4 159//4
f 159//4 385//4 182//4
f 390//4 163//4 200//4
f 200//4 163//4 183//4
f 417//4 460//4 419//4
f 460//4 459//4 419//4
f 446//90 450//90 477//90
f 450//90 474//90 477//90
f 465//4 444//4 464//4
f 444//4 441//4 464//4
f 461//4 464//4 432//4
f 464//4 434//4 432//4
f 449//4 447//4 453//4
f 447//4 466//4 453//4
f 456//4 463//4 411//4
f 463//4 460//4 411//4
f 464//4 441//4 434//4
f 441//4 438//4 434//4
f 423//4 458//4 426//4
f 458//4 429//4 426//4
f 453//4 466//4 456//4
f 466//4 463//4 456//4
f 466//4 447//4 465//4
f 447//4 444//4 465//4
f 411//4 460//4 413//4
f 460//4 417//4 413//4
f 419//4 459//4 423//4
f 459//4 458//4 423//4
f 458//4 461//4 429//4
f 461//4 432//4 429//4
f 414//91 415//91 416//91
f 415//92 418//92 416//92
f 415//93 413//93 418//93
f 413//94 417//94 418//94
f 420//95 421//95 422//95
f 421//96 424//96 422//96
f 421//97 419//97 424//97
f 419//98 423//98 424//98
f 435//99 436//99 437//99
f 436//100 439//100 437//100
f 436//101 434//101 439//101
f 434//102 438//102 439//102
f 422//103 424//103 425//103
f 424//104 427//104 425//104
f 424//105 423//105 427//105
f 423//106 426//106 427//106
f 425//107 427//107 428//107
f 427//108 430//108 428//108
f 427//109 426//109 430//109
f 426//110 429//110 430//110
f 437//111 439//111 440//111
f 439//112 442//112 440//112
f 439//113 438//113 442//113
f 438//114 441//114 442//114
f 440//115 442//115 443//115
f 442//116 445//116 443//116
f 442//117 441//117 445//117
f 441//118 444//118 445//118
f 450//119 451//119 452//119
f 451//120 454//120 452//120
f 451//121 449//121 454//121
f 449//122 453//122 454//122
f 428//123 430//123 431//123
f 430//124 433//124 431//124
f 430//125 429//125 433//125
f 429//126 432//126 433//126
f 431//127 433//127 435//127
f 433//128 436//128 435//128
f 433//129 432//129 436//129
f 432//130 434//130 436//130
f 443//131 445//131 446//131
f 445//132 448//132 446//132
f 445//133 444//133 448//133
f 444//134 447//134 448//134
f 446//135 448//135 450//135
f 448//136 451//136 450//136
f 448//137 447//137 451//137
f 447//138 449//138 451//138
f 452//139 454//139 455//139
f 454//140 457//140 455//140
f 454//141 453//141 457//141
f 453//142 456//142 457//142
f 416//143 418//143 420//143
f 418//144 421//144 420//144
f 418//145 417//145 421//145
f 417//146 419//146 421//146
f 455//147 457//147 410//147
f 457//148 412//148 410//148
f 457//149 456//149 412//149
f 456//150 411//150 412//150
f 410//151 412//151 414//151
f 412//152 415//152 414//152
f 412//153 411//153 415//153
f 411//154 413//154 415//154
f 459//4 462//4 458//4
f 462//4 461//4 458//4
f 462//4 465//4 461//4
f 465//4 464//4 461//4
f 460//4 463//4 459//4
f 463//4 462//4 459//4
f 463//4 466//4 462//4
f 466//4 465//4 462//4
f 471//155 467//155 472//155
f 467//156 469//156 472//156
f 472//157 469//157 470//157
f 469//158 468//158 470//158
f 474//159 471//159 475//159
f 471//160 472//160 475//160
f 475//161 472//161 473//161
f 472//162 470//162 473//162
f 477//163 474//163 478//163
f 474//164 475//164 478//164
f 478//165 475//165 476//165
f 475//166 473//166 476//166
f 480//167 477//167 481//167
f 477//168 478//168 481//168
f 481//169 478//169 479//169
f 478//170 476//170 479//170
f 483//171 480//171 484//171
f 480//172 481//172 484//172
f 484//173 481//173 482//173
f 481//174 479//174 482//174
f 486//175 483//175 487//175
f 483//176 484//176 487//176
f 487//177 484//177 485//177
f 484//178 482//178 485//178
f 489//179 486//179 490//179
f 486//180 487//180 490//180
f 490//181 487//181 488//181
f 487//182 485//182 488//182
f 492//183 489//183 493//183
f 489//184 490//184 493//184
f 493//185 490//185 491//185
f 490//186 488//186 491//186
f 495//187 492//187 496//187
f 492//188 493//188 496//188
f 496//189 493//189 494//189
f 493//190 491//190 494//190
f 498//191 495//191 499//191
f 495//192 496//192 499//192
f 499//193 496//193 497//193
f 496//194 494//194 497//194
f 501//195 498//195 502//195
f 498//196 499//196 502//196
f 502//197 499//197 500//197
f 499//198 497//198 500//198
f 504//199 501//199 505//199
f 501//200 502//200 505//200
f 505//201 502//201 503//201
f 502//202 500//202 503//202
f 507//203 504//203 508//203
f 504//204 505//204 508//204
f 508//205 505//205 506//205
f 505//206 503//206 506//206
f 510//207 507//207 511//207
f 507//208 508//208 511//208
f 511//209 508//209 509//209
f 508//210 506//210 509//210
f 513//211 510//211 514//211
f 510//212 511//212 514//212
f 514//213 511//213 512//213
f 511//214 509//214 512//214
f 467//215 513//215 469//215
f 513//216 514//216 469//216
f 469//217 514//217 468//217
f 514//218 512//218 468//218
f 425//219 428//219 498//219
f 428//219 495//219 498//219
f 450//220 452//220 474//220
f 452//220 471//220 474//220
f 428//221 431//221 495//221
f 431//221 492//221 495//221
f 467//222 455//222 513//222
f 455//222 410//222 513//222
f 452//223 455//223 471//223
f 455//223 467//223 471//223
f 431//224 435//224 492//224
f 435//224 489//224 492//224
f 513//225 410//225 510//225
f 410//225 414//225 510//225
f 435//226 437//226 489//226
f 437//226 486//226 489//226
f 414//227 416//227 510//227
f 416//227 507//227 510//227
f 437//228 440//228 486//228
f 440//228 483//228 486//228
f 416//229 420//229 507//229
f 420//229 504//229 507//229
f 440//230 443//230 483//230
f 443//230 480//230 483//230
f 420//231 422//231 504//231
f 422//231 501//231 504//231
f 443//232 446//232 480//232
f 446//232 477//232 480//232
f 422//233 425//233 501//233
f 425//233 498//233 501//233
