# Blender 4.3.2
# www.blender.org
mtllib lampost.mtl
o Part.1
v 3.960000 67.220001 -3.960005
v 3.960000 67.220001 3.959995
v -3.960000 67.220001 3.959995
v -3.960000 67.220001 -3.960005
v -3.960000 76.779999 -3.960006
v -3.960000 76.779999 3.959994
v 3.960000 76.779999 3.959994
v 3.960000 76.779999 -3.960006
v -2.400000 67.220001 -2.400005
v -2.400000 67.220001 2.399995
v 2.400000 67.220001 2.399995
v 2.400000 67.220001 -2.400005
v 2.400000 75.800003 -2.400006
v 2.400000 75.800003 2.399994
v -2.400000 75.800003 2.399994
v -2.400000 75.800003 -2.400006
v 3.960000 67.220001 3.959995
v 3.960000 67.220001 3.959995
v -3.960000 67.220001 3.959995
v -3.960000 67.220001 3.959995
v 3.960000 67.220001 -3.960005
v 3.960000 67.220001 -3.960005
v -3.960000 67.220001 -3.960005
v -3.960000 67.220001 -3.960005
v -3.960000 76.779999 -3.960006
v -3.960000 76.779999 -3.960006
v -3.960000 76.779999 3.959994
v -3.960000 76.779999 3.959994
v 3.960000 76.779999 -3.960006
v 3.960000 76.779999 -3.960006
v 3.960000 76.779999 3.959994
v 3.960000 76.779999 3.959994
v -2.400000 67.220001 -2.400005
v -2.400000 67.220001 -2.400005
v -2.400000 67.220001 2.399995
v -2.400000 67.220001 2.399995
v 2.400000 67.220001 -2.400005
v 2.400000 67.220001 -2.400005
v 2.400000 67.220001 2.399995
v 2.400000 67.220001 2.399995
v 2.400000 75.800003 2.399994
v 2.400000 75.800003 2.399994
v -2.400000 75.800003 2.399994
v -2.400000 75.800003 2.399994
v 2.400000 75.800003 -2.400006
v 2.400000 75.800003 -2.400006
v -2.400000 75.800003 -2.400006
v -2.400000 75.800003 -2.400006
v 0.918000 78.349998 -2.217006
v 0.821000 78.599998 -1.982006
v 0.890000 78.527000 -2.148006
v 1.517000 78.599998 -1.517006
v 1.697000 78.349998 -1.697006
v 1.644000 78.527000 -1.644006
v 2.217000 78.349998 -0.918006
v 1.982000 78.599998 -0.821006
v 2.148000 78.527000 -0.890006
v 2.145000 78.599998 -0.000006
v 2.400000 78.349998 -0.000006
v 2.325000 78.527000 -0.000006
v 2.217000 78.349998 0.917994
v 1.982000 78.599998 0.820994
v 2.148000 78.527000 0.889994
v 1.697000 78.349998 1.696994
v 1.517000 78.599998 1.516994
v 1.644000 78.527000 1.643994
v 0.918000 78.349998 2.216994
v 0.821000 78.599998 1.981994
v 0.890000 78.527000 2.147994
v 0.000000 78.349998 2.399994
v 0.000000 78.599998 2.144994
v 0.000000 78.527000 2.324994
v -0.821000 78.599998 1.981994
v -0.918000 78.349998 2.216994
v -0.890000 78.527000 2.147994
v -1.697000 78.349998 1.696994
v -1.517000 78.599998 1.516994
v -1.644000 78.527000 1.643994
v -2.217000 78.349998 0.917994
v -1.982000 78.599998 0.820994
v -2.148000 78.527000 0.889994
v -2.400000 78.349998 -0.000006
v -2.145000 78.599998 -0.000006
v -2.325000 78.527000 -0.000006
v -2.217000 78.349998 -0.918006
v -1.982000 78.599998 -0.821006
v -2.148000 78.527000 -0.890006
v -1.517000 78.599998 -1.517006
v -1.697000 78.349998 -1.697006
v -1.644000 78.527000 -1.644006
v -0.918000 78.349998 -2.217006
v -0.821000 78.599998 -1.982006
v -0.890000 78.527000 -2.148006
v 0.000000 78.349998 -2.400006
v 0.000000 78.599998 -2.145006
v 0.000000 78.527000 -2.325006
v 1.063000 78.599998 1.013994
v 1.164000 78.599998 -0.000006
v 1.063000 78.599998 -1.014006
v 0.000000 78.599998 1.096994
v 0.000000 78.599998 -0.000006
v 0.000000 78.599998 -1.097006
v -1.063000 78.599998 1.013994
v -1.164000 78.599998 -0.000006
v -1.063000 78.599998 -1.014006
v 0.000000 76.930000 -2.400006
v 0.000000 76.779999 -2.553006
v 0.000000 76.823997 -2.445006
v -0.977000 76.779999 -2.359006
v -0.918000 76.930000 -2.217006
v -0.936000 76.823997 -2.259006
v -1.805000 76.779999 -1.805006
v -1.697000 76.930000 -1.697006
v -1.729000 76.823997 -1.729006
v -2.359000 76.779999 -0.977006
v -2.217000 76.930000 -0.918006
v -2.259000 76.823997 -0.936006
v -2.553000 76.779999 -0.000006
v -2.400000 76.930000 -0.000006
v -2.445000 76.823997 -0.000006
v -2.359000 76.779999 0.976994
v -2.217000 76.930000 0.917994
v -2.259000 76.823997 0.935994
v -1.805000 76.779999 1.804994
v -1.697000 76.930000 1.696994
v -1.729000 76.823997 1.728994
v -0.977000 76.779999 2.358994
v -0.918000 76.930000 2.216994
v -0.936000 76.823997 2.258994
v 0.000000 76.779999 2.552994
v 0.000000 76.930000 2.399994
v 0.000000 76.823997 2.444994
v 0.977000 76.779999 2.358994
v 0.918000 76.930000 2.216994
v 0.936000 76.823997 2.258994
v 1.805000 76.779999 1.804994
v 1.697000 76.930000 1.696994
v 1.729000 76.823997 1.728994
v 2.359000 76.779999 0.976994
v 2.217000 76.930000 0.917994
v 2.259000 76.823997 0.935994
v 2.553000 76.779999 -0.000006
v 2.400000 76.930000 -0.000006
v 2.445000 76.823997 -0.000006
v 2.359000 76.779999 -0.977006
v 2.217000 76.930000 -0.918006
v 2.259000 76.823997 -0.936006
v 1.805000 76.779999 -1.805006
v 1.697000 76.930000 -1.697006
v 1.729000 76.823997 -1.729006
v 0.977000 76.779999 -2.359006
v 0.918000 76.930000 -2.217006
v 0.936000 76.823997 -2.259006
vn -1.0000 -0.0000 -0.0000
vn -0.0000 -0.0000 -1.0000
vn 1.0000 -0.0000 -0.0000
vn -0.0000 -0.0000 1.0000
vn -0.0000 1.0000 -0.0000
vn -0.8317 -0.0000 -0.5552
vn 0.7681 0.3835 -0.5127
vn 0.7687 0.3809 -0.5138
vn 0.3183 0.9238 -0.2127
vn 0.3180 0.9240 -0.2125
vn 0.9056 0.3837 0.1805
vn 0.9065 0.3819 0.1803
vn 0.3748 0.9241 0.0745
vn 0.3753 0.9239 0.0745
vn -0.5133 0.3810 0.7690
vn -0.5132 0.3836 0.7678
vn -0.2125 0.9239 0.3180
vn -0.2127 0.9238 0.3183
vn 0.7690 0.3810 0.5134
vn 0.7678 0.3836 0.5132
vn 0.3180 0.9240 0.2126
vn 0.3183 0.9238 0.2127
vn 0.5127 0.3835 0.7681
vn 0.5138 0.3809 0.7687
vn 0.2127 0.9238 0.3183
vn 0.2125 0.9240 0.3180
vn -0.7681 0.3835 0.5127
vn -0.7687 0.3809 0.5138
vn -0.3183 0.9238 0.2127
vn -0.3180 0.9240 0.2125
vn -0.9064 0.3819 0.1807
vn -0.9057 0.3838 0.1801
vn -0.3753 0.9239 0.0746
vn -0.3748 0.9241 0.0744
vn -0.5127 0.3835 -0.7681
vn -0.5138 0.3809 -0.7687
vn -0.2127 0.9238 -0.3183
vn -0.2125 0.9240 -0.3180
vn 0.1807 0.3819 0.9064
vn 0.1801 0.3838 0.9057
vn 0.0746 0.9239 0.3753
vn 0.0744 0.9241 0.3747
vn -0.1805 0.3838 0.9056
vn -0.1803 0.3819 0.9065
vn -0.0745 0.9241 0.3748
vn -0.0745 0.9239 0.3752
vn -0.9056 0.3837 -0.1805
vn -0.9065 0.3819 -0.1803
vn -0.3748 0.9241 -0.0745
vn -0.3753 0.9239 -0.0745
vn -0.7690 0.3810 -0.5134
vn -0.7678 0.3836 -0.5132
vn -0.3180 0.9240 -0.2126
vn -0.3183 0.9238 -0.2127
vn -0.1807 0.3819 -0.9064
vn -0.1801 0.3838 -0.9057
vn -0.0746 0.9239 -0.3753
vn -0.0744 0.9241 -0.3747
vn 0.9064 0.3819 -0.1807
vn 0.9057 0.3838 -0.1801
vn 0.3753 0.9239 -0.0746
vn 0.3748 0.9241 -0.0744
vn 0.1805 0.3838 -0.9056
vn 0.1803 0.3819 -0.9065
vn 0.0745 0.9241 -0.3748
vn 0.0745 0.9239 -0.3752
vn 0.5133 0.3810 -0.7690
vn 0.5132 0.3836 -0.7678
vn 0.2125 0.9239 -0.3180
vn 0.2127 0.9238 -0.3183
vn -0.1801 0.3886 -0.9036
vn -0.1799 0.3844 -0.9055
vn -0.0747 0.9237 -0.3757
vn -0.0747 0.9235 -0.3762
vn -0.5121 0.3862 -0.7672
vn -0.5116 0.3902 -0.7655
vn -0.2140 0.9229 -0.3202
vn -0.2133 0.9235 -0.3189
vn -0.7658 0.3902 -0.5112
vn -0.7669 0.3862 -0.5126
vn -0.3189 0.9235 -0.2131
vn -0.3201 0.9229 -0.2142
vn -0.9054 0.3843 -0.1805
vn -0.9037 0.3886 -0.1796
vn -0.3762 0.9235 -0.0748
vn -0.3758 0.9237 -0.0747
vn -0.9036 0.3886 0.1801
vn -0.9055 0.3844 0.1799
vn -0.3758 0.9237 0.0747
vn -0.3762 0.9235 0.0747
vn -0.7672 0.3862 0.5121
vn -0.7655 0.3902 0.5117
vn -0.3202 0.9229 0.2140
vn -0.3189 0.9235 0.2133
vn -0.5112 0.3902 0.7658
vn -0.5125 0.3862 0.7669
vn -0.2132 0.9235 0.3189
vn -0.2142 0.9228 0.3202
vn -0.1805 0.3843 0.9054
vn -0.1796 0.3885 0.9038
vn -0.0748 0.9236 0.3761
vn -0.0746 0.9237 0.3758
vn 0.1801 0.3886 0.9036
vn 0.1799 0.3844 0.9055
vn 0.0747 0.9237 0.3757
vn 0.0747 0.9235 0.3762
vn 0.5121 0.3862 0.7672
vn 0.5116 0.3902 0.7655
vn 0.2140 0.9229 0.3202
vn 0.2133 0.9235 0.3189
vn 0.7658 0.3902 0.5112
vn 0.7669 0.3862 0.5126
vn 0.3189 0.9235 0.2131
vn 0.3201 0.9229 0.2142
vn 0.9054 0.3843 0.1805
vn 0.9037 0.3886 0.1796
vn 0.3762 0.9235 0.0748
vn 0.3758 0.9237 0.0747
vn 0.9036 0.3886 -0.1801
vn 0.9055 0.3844 -0.1799
vn 0.3758 0.9237 -0.0747
vn 0.3762 0.9235 -0.0747
vn 0.7672 0.3862 -0.5121
vn 0.7655 0.3902 -0.5117
vn 0.3202 0.9229 -0.2140
vn 0.3189 0.9235 -0.2133
vn 0.5112 0.3902 -0.7658
vn 0.5125 0.3862 -0.7669
vn 0.2132 0.9235 -0.3189
vn 0.2142 0.9228 -0.3202
vn 0.1805 0.3843 -0.9054
vn 0.1796 0.3885 -0.9038
vn 0.0748 0.9236 -0.3761
vn 0.0746 0.9237 -0.3758
vn 0.5552 -0.0000 0.8317
vn -0.5552 -0.0000 -0.8317
vn 0.1955 -0.0000 0.9807
vn 0.1955 -0.0000 -0.9807
vn -0.1955 -0.0000 -0.9807
vn -0.1955 -0.0000 0.9807
vn 0.5552 -0.0000 -0.8317
vn -0.5552 -0.0000 0.8317
vn 0.8317 -0.0000 -0.5552
vn -0.8317 -0.0000 0.5552
vn 0.9807 -0.0000 -0.1955
vn -0.9807 -0.0000 0.1955
vn 0.9807 -0.0000 0.1955
vn -0.9807 -0.0000 -0.1955
vn 0.8317 -0.0000 0.5552
s 0
usemtl MB_106
f 20//1 27//1 24//1
f 27//1 25//1 24//1
f 29//2 22//2 26//2
f 22//2 23//2 26//2
f 21//3 30//3 18//3
f 30//3 31//3 18//3
f 17//4 32//4 19//4
f 32//4 28//4 19//4
f 6//5 7//5 5//5
f 7//5 8//5 5//5
f 4//5 3//5 33//5
f 33//5 3//5 35//5
f 1//5 4//5 37//5
f 37//5 4//5 33//5
f 37//5 39//5 1//5
f 1//5 39//5 2//5
f 3//5 2//5 35//5
f 35//5 2//5 39//5
f 36//4 40//4 43//4
f 43//4 40//4 41//4
f 11//3 38//3 42//3
f 42//3 38//3 45//3
f 12//2 34//2 46//2
f 46//2 34//2 47//2
f 9//1 10//1 48//1
f 48//1 10//1 44//1
f 13//5 16//5 14//5
f 14//5 16//5 15//5
f 56//5 99//5 58//5
f 99//5 98//5 58//5
f 85//6 89//6 116//6
f 89//6 113//6 116//6
f 104//5 83//5 103//5
f 83//5 80//5 103//5
f 100//5 103//5 71//5
f 103//5 73//5 71//5
f 88//5 86//5 92//5
f 86//5 105//5 92//5
f 95//5 102//5 50//5
f 102//5 99//5 50//5
f 103//5 80//5 73//5
f 80//5 77//5 73//5
f 62//5 97//5 65//5
f 97//5 68//5 65//5
f 92//5 105//5 95//5
f 105//5 102//5 95//5
f 105//5 86//5 104//5
f 86//5 83//5 104//5
f 50//5 99//5 52//5
f 99//5 56//5 52//5
f 58//5 98//5 62//5
f 98//5 97//5 62//5
f 97//5 100//5 68//5
f 100//5 71//5 68//5
f 53//7 54//7 55//7
f 54//8 57//8 55//8
f 54//9 52//9 57//9
f 52//10 56//10 57//10
f 59//11 60//11 61//11
f 60//12 63//12 61//12
f 60//13 58//13 63//13
f 58//14 62//14 63//14
f 74//15 75//15 76//15
f 75//16 78//16 76//16
f 75//17 73//17 78//17
f 73//18 77//18 78//18
f 61//19 63//19 64//19
f 63//20 66//20 64//20
f 63//21 62//21 66//21
f 62//22 65//22 66//22
f 64//23 66//23 67//23
f 66//24 69//24 67//24
f 66//25 65//25 69//25
f 65//26 68//26 69//26
f 76//27 78//27 79//27
f 78//28 81//28 79//28
f 78//29 77//29 81//29
f 77//30 80//30 81//30
f 79//31 81//31 82//31
f 81//32 84//32 82//32
f 81//33 80//33 84//33
f 80//34 83//34 84//34
f 89//35 90//35 91//35
f 90//36 93//36 91//36
f 90//37 88//37 93//37
f 88//38 92//38 93//38
f 67//39 69//39 70//39
f 69//40 72//40 70//40
f 69//41 68//41 72//41
f 68//42 71//42 72//42
f 70//43 72//43 74//43
f 72//44 75//44 74//44
f 72//45 71//45 75//45
f 71//46 73//46 75//46
f 82//47 84//47 85//47
f 84//48 87//48 85//48
f 84//49 83//49 87//49
f 83//50 86//50 87//50
f 85//51 87//51 89//51
f 87//52 90//52 89//52
f 87//53 86//53 90//53
f 86//54 88//54 90//54
f 91//55 93//55 94//55
f 93//56 96//56 94//56
f 93//57 92//57 96//57
f 92//58 95//58 96//58
f 55//59 57//59 59//59
f 57//60 60//60 59//60
f 57//61 56//61 60//61
f 56//62 58//62 60//62
f 94//63 96//63 49//63
f 96//64 51//64 49//64
f 96//65 95//65 51//65
f 95//66 50//66 51//66
f 49//67 51//67 53//67
f 51//68 54//68 53//68
f 51//69 50//69 54//69
f 50//70 52//70 54//70
f 98//5 101//5 97//5
f 101//5 100//5 97//5
f 101//5 104//5 100//5
f 104//5 103//5 100//5
f 99//5 102//5 98//5
f 102//5 101//5 98//5
f 102//5 105//5 101//5
f 105//5 104//5 101//5
f 110//71 106//71 111//71
f 106//72 108//72 111//72
f 111//73 108//73 109//73
f 108//74 107//74 109//74
f 113//75 110//75 114//75
f 110//76 111//76 114//76
f 114//77 111//77 112//77
f 111//78 109//78 112//78
f 116//79 113//79 117//79
f 113//80 114//80 117//80
f 117//81 114//81 115//81
f 114//82 112//82 115//82
f 119//83 116//83 120//83
f 116//84 117//84 120//84
f 120//85 117//85 118//85
f 117//86 115//86 118//86
f 122//87 119//87 123//87
f 119//88 120//88 123//88
f 123//89 120//89 121//89
f 120//90 118//90 121//90
f 125//91 122//91 126//91
f 122//92 123//92 126//92
f 126//93 123//93 124//93
f 123//94 121//94 124//94
f 128//95 125//95 129//95
f 125//96 126//96 129//96
f 129//97 126//97 127//97
f 126//98 124//98 127//98
f 131//99 128//99 132//99
f 128//100 129//100 132//100
f 132//101 129//101 130//101
f 129//102 127//102 130//102
f 134//103 131//103 135//103
f 131//104 132//104 135//104
f 135//105 132//105 133//105
f 132//106 130//106 133//106
f 137//107 134//107 138//107
f 134//108 135//108 138//108
f 138//109 135//109 136//109
f 135//110 133//110 136//110
f 140//111 137//111 141//111
f 137//112 138//112 141//112
f 141//113 138//113 139//113
f 138//114 136//114 139//114
f 143//115 140//115 144//115
f 140//116 141//116 144//116
f 144//117 141//117 142//117
f 141//118 139//118 142//118
f 146//119 143//119 147//119
f 143//120 144//120 147//120
f 147//121 144//121 145//121
f 144//122 142//122 145//122
f 149//123 146//123 150//123
f 146//124 147//124 150//124
f 150//125 147//125 148//125
f 147//126 145//126 148//126
f 152//127 149//127 153//127
f 149//128 150//128 153//128
f 153//129 150//129 151//129
f 150//130 148//130 151//130
f 106//131 152//131 108//131
f 152//132 153//132 108//132
f 108//133 153//133 107//133
f 153//134 151//134 107//134
f 64//135 67//135 137//135
f 67//135 134//135 137//135
f 89//136 91//136 113//136
f 91//136 110//136 113//136
f 67//137 70//137 134//137
f 70//137 131//137 134//137
f 106//138 94//138 152//138
f 94//138 49//138 152//138
f 91//139 94//139 110//139
f 94//139 106//139 110//139
f 70//140 74//140 131//140
f 74//140 128//140 131//140
f 152//141 49//141 149//141
f 49//141 53//141 149//141
f 74//142 76//142 128//142
f 76//142 125//142 128//142
f 53//143 55//143 149//143
f 55//143 146//143 149//143
f 76//144 79//144 125//144
f 79//144 122//144 125//144
f 55//145 59//145 146//145
f 59//145 143//145 146//145
f 79//146 82//146 122//146
f 82//146 119//146 122//146
f 59//147 61//147 143//147
f 61//147 140//147 143//147
f 82//148 85//148 119//148
f 85//148 116//148 119//148
f 61//149 64//149 140//149
f 64//149 137//149 140//149
