# Blender 4.3.2
# www.blender.org
mtllib sidewalk7.mtl
o Part.7
v 64.040001 0.499999 -7.960000
v 64.400002 0.499999 -7.600000
v 64.400002 0.019999 -7.600000
v 65.599998 0.020000 -6.400000
v 65.599998 2.099999 -6.400000
v 64.040001 0.500000 -5.400000
v 64.400002 0.500000 -5.400000
v 64.400002 0.020000 -5.400000
v 65.599998 0.020000 -5.400000
v 65.599998 2.099999 -5.400000
v 64.339996 3.180000 -7.660000
v 64.040001 2.879999 -7.960000
v 64.339996 3.180000 -5.400001
v 64.040001 2.880000 -5.400000
v 64.040001 0.500001 15.960000
v 64.400002 0.500001 15.600000
v 64.400002 0.020001 15.600000
v 65.599998 0.020001 14.400000
v 65.599998 2.100001 14.400000
v 64.040001 0.500001 13.400000
v 64.400002 0.500001 13.400000
v 64.400002 0.020001 13.400000
v 65.599998 0.020001 13.400000
v 65.599998 2.100001 13.400000
v 64.040001 0.500000 4.000000
v 64.400002 0.020000 4.000000
v 65.599998 2.100000 4.000000
v 64.400002 0.500000 4.000000
v 65.599998 0.020000 4.000000
v 64.339996 3.180001 15.660000
v 64.040001 2.880001 15.960000
v 64.339996 3.180001 13.400000
v 64.040001 2.880001 13.400000
v 64.040001 2.880000 4.000000
v 64.339996 3.180000 4.000000
v 71.959999 0.499999 -7.960000
v 71.599998 0.499999 -7.600000
v 71.599998 0.019999 -7.600000
v 70.400002 0.020000 -6.400000
v 70.400002 2.099999 -6.400000
v 71.959999 0.500000 -5.400000
v 71.599998 0.500000 -5.400000
v 71.599998 0.020000 -5.400000
v 70.400002 0.020000 -5.400000
v 70.400002 2.099999 -5.400000
v 71.660004 3.180000 -7.660000
v 71.959999 2.879999 -7.960000
v 71.660004 3.180000 -5.400001
v 71.959999 2.880000 -5.400000
v 68.000000 0.499999 -7.960000
v 68.000000 0.499999 -7.600000
v 68.000000 0.019999 -7.600000
v 68.000000 0.020000 -6.400000
v 68.000000 2.099999 -6.400000
v 68.000000 2.099999 -5.400000
v 68.000000 3.180000 -5.400001
v 68.000000 3.180000 -7.660000
v 68.000000 2.879999 -7.960000
v 71.959999 0.500001 15.960000
v 71.599998 0.500001 15.600000
v 71.599998 0.020001 15.600000
v 70.400002 0.020001 14.400000
v 70.400002 2.100001 14.400000
v 71.959999 0.500001 13.400000
v 71.599998 0.500001 13.400000
v 71.599998 0.020001 13.400000
v 70.400002 0.020001 13.400000
v 70.400002 2.100001 13.400000
v 71.959999 0.500000 4.000000
v 71.599998 0.020000 4.000000
v 70.400002 2.100000 4.000000
v 71.599998 0.500000 4.000000
v 70.400002 0.020000 4.000000
v 71.660004 3.180001 15.660000
v 71.959999 2.880001 15.960000
v 71.660004 3.180001 13.400000
v 71.959999 2.880001 13.400000
v 71.959999 2.880000 4.000000
v 71.660004 3.180000 4.000000
v 68.000000 0.500001 15.960000
v 68.000000 0.500001 15.600000
v 68.000000 0.020001 15.600000
v 68.000000 0.020001 14.400000
v 68.000000 2.100001 14.400000
v 68.000000 2.100001 13.400000
v 68.000000 3.180001 13.400000
v 68.000000 3.180000 4.000000
v 68.000000 2.100000 4.000000
v 68.000000 3.180001 15.660000
v 68.000000 2.880001 15.960000
v 68.000000 0.499999 -7.960000
v 64.040001 0.499999 -7.960000
v 64.040001 0.499999 -7.960000
v 64.400002 0.500000 -5.400000
v 64.400002 0.499999 -7.600000
v 64.400002 0.499999 -7.600000
v 64.400002 0.019999 -7.600000
v 64.400002 0.019999 -7.600000
v 68.000000 0.019999 -7.600000
v 65.599998 0.020000 -5.400000
v 65.599998 0.020000 -6.400000
v 65.599998 0.020000 -6.400000
v 65.599998 2.099999 -6.400000
v 65.599998 2.099999 -6.400000
v 68.000000 2.099999 -6.400000
v 64.040001 0.500000 -5.400000
v 64.400002 0.500000 4.000000
v 64.400002 0.020000 -5.400000
v 65.599998 0.020000 4.000000
v 65.599998 2.099999 -5.400000
v 68.000000 0.499999 -7.600000
v 68.000000 0.020000 -6.400000
v 64.040001 0.500000 4.000000
v 64.400002 0.020000 4.000000
v 65.599998 2.100000 4.000000
v 64.040001 2.880000 -5.400000
v 64.040001 2.879999 -7.960000
v 64.040001 2.879999 -7.960000
v 64.040001 2.879999 -7.960000
v 64.339996 3.180000 -7.660000
v 64.339996 3.180000 -7.660000
v 64.339996 3.180000 -5.400001
v 64.040001 2.880000 4.000000
v 64.339996 3.180000 4.000000
v 68.000000 2.879999 -7.960000
v 68.000000 3.180000 -7.660000
v 68.000000 0.500001 15.960000
v 64.040001 0.500001 15.960000
v 64.040001 0.500001 15.960000
v 64.400002 0.500001 13.400000
v 64.400002 0.500001 15.600000
v 64.400002 0.500001 15.600000
v 64.400002 0.020001 15.600000
v 64.400002 0.020001 15.600000
v 68.000000 0.020001 15.600000
v 65.599998 0.020001 13.400000
v 65.599998 0.020001 14.400000
v 65.599998 0.020001 14.400000
v 65.599998 2.100001 14.400000
v 65.599998 2.100001 14.400000
v 68.000000 2.100001 14.400000
v 64.040001 0.500001 13.400000
v 64.400002 0.020001 13.400000
v 65.599998 2.100001 13.400000
v 68.000000 0.500001 15.600000
v 68.000000 0.020001 14.400000
v 64.040001 2.880001 13.400000
v 64.040001 2.880001 15.960000
v 64.040001 2.880001 15.960000
v 64.040001 2.880001 15.960000
v 64.339996 3.180001 15.660000
v 64.339996 3.180001 15.660000
v 64.339996 3.180001 13.400000
v 68.000000 2.880001 15.960000
v 68.000000 3.180001 15.660000
v 71.959999 0.499999 -7.960000
v 71.959999 0.499999 -7.960000
v 71.599998 0.500000 -5.400000
v 71.599998 0.499999 -7.600000
v 71.599998 0.499999 -7.600000
v 71.599998 0.019999 -7.600000
v 71.599998 0.019999 -7.600000
v 70.400002 0.020000 -5.400000
v 70.400002 0.020000 -6.400000
v 70.400002 0.020000 -6.400000
v 70.400002 2.099999 -6.400000
v 70.400002 2.099999 -6.400000
v 71.959999 0.500000 -5.400000
v 71.599998 0.500000 4.000000
v 71.599998 0.020000 -5.400000
v 70.400002 0.020000 4.000000
v 70.400002 2.099999 -5.400000
v 71.959999 0.500000 4.000000
v 71.599998 0.020000 4.000000
v 70.400002 2.100000 4.000000
v 71.959999 2.880000 -5.400000
v 71.959999 2.879999 -7.960000
v 71.959999 2.879999 -7.960000
v 71.959999 2.879999 -7.960000
v 71.660004 3.180000 -7.660000
v 71.660004 3.180000 -7.660000
v 71.660004 3.180000 -5.400001
v 71.959999 2.880000 4.000000
v 71.660004 3.180000 4.000000
v 71.959999 0.500001 15.960000
v 71.959999 0.500001 15.960000
v 71.599998 0.500001 13.400000
v 71.599998 0.500001 15.600000
v 71.599998 0.500001 15.600000
v 71.599998 0.020001 15.600000
v 71.599998 0.020001 15.600000
v 70.400002 0.020001 13.400000
v 70.400002 0.020001 14.400000
v 70.400002 0.020001 14.400000
v 70.400002 2.100001 14.400000
v 70.400002 2.100001 14.400000
v 71.959999 0.500001 13.400000
v 71.599998 0.020001 13.400000
v 70.400002 2.100001 13.400000
v 71.959999 2.880001 13.400000
v 71.959999 2.880001 15.960000
v 71.959999 2.880001 15.960000
v 71.959999 2.880001 15.960000
v 71.660004 3.180001 15.660000
v 71.660004 3.180001 15.660000
v 71.660004 3.180001 13.400000
v 69.599998 2.100000 -0.000000
v 69.477997 2.100000 -0.612000
v 69.130997 2.100000 -1.131000
v 68.612000 2.100000 -1.478000
v 68.000000 2.100000 -1.600000
v 67.388000 2.100000 -1.478000
v 66.869003 2.100000 -1.131000
v 66.522003 2.100000 -0.612000
v 66.400002 2.100000 -0.000000
v 66.522003 2.100000 0.612000
v 66.869003 2.100000 1.131000
v 67.388000 2.100000 1.478000
v 68.000000 2.100000 1.600000
v 68.612000 2.100000 1.478000
v 69.130997 2.100000 1.131000
v 69.477997 2.100000 0.612000
v 68.800003 2.100000 -0.000000
v 68.738998 2.100000 -0.306000
v 68.566002 2.100000 -0.566000
v 68.306000 2.100000 -0.739000
v 68.000000 2.100000 -0.800000
v 67.694000 2.100000 -0.739000
v 67.433998 2.100000 -0.566000
v 67.261002 2.100000 -0.306000
v 67.199997 2.100000 -0.000000
v 67.261002 2.100000 0.306000
v 67.433998 2.100000 0.566000
v 67.694000 2.100000 0.739000
v 68.000000 2.100000 0.800000
v 68.306000 2.100000 0.739000
v 68.566002 2.100000 0.566000
v 68.738998 2.100000 0.306000
v 69.599998 0.170000 -0.000000
v 69.446999 0.020000 -0.000000
v 69.555000 0.064000 -0.000000
v 69.336998 0.020000 -0.554000
v 69.477997 0.170000 -0.612000
v 69.436996 0.064000 -0.595000
v 69.023003 0.020000 -1.023000
v 69.130997 0.170000 -1.131000
v 69.099998 0.064000 -1.100000
v 68.554001 0.020000 -1.337000
v 68.612000 0.170000 -1.478000
v 68.595001 0.064000 -1.437000
v 68.000000 0.020000 -1.447000
v 68.000000 0.170000 -1.600000
v 68.000000 0.064000 -1.555000
v 67.445999 0.020000 -1.337000
v 67.388000 0.170000 -1.478000
v 67.404999 0.064000 -1.437000
v 66.976997 0.020000 -1.023000
v 66.869003 0.170000 -1.131000
v 66.900002 0.064000 -1.100000
v 66.663002 0.020000 -0.554000
v 66.522003 0.170000 -0.612000
v 66.563004 0.064000 -0.595000
v 66.553001 0.020000 -0.000000
v 66.400002 0.170000 -0.000000
v 66.445000 0.064000 -0.000000
v 66.663002 0.020000 0.554000
v 66.522003 0.170000 0.612000
v 66.563004 0.064000 0.595000
v 66.976997 0.020000 1.023000
v 66.869003 0.170000 1.131000
v 66.900002 0.064000 1.100000
v 67.445999 0.020000 1.337000
v 67.388000 0.170000 1.478000
v 67.404999 0.064000 1.437000
v 68.000000 0.020000 1.447000
v 68.000000 0.170000 1.600000
v 68.000000 0.064000 1.555000
v 68.554001 0.020000 1.337000
v 68.612000 0.170000 1.478000
v 68.595001 0.064000 1.437000
v 69.023003 0.020000 1.023000
v 69.130997 0.170000 1.131000
v 69.099998 0.064000 1.100000
v 69.336998 0.020000 0.554000
v 69.477997 0.170000 0.612000
v 69.436996 0.064000 0.595000
v 68.953003 0.020000 -0.000000
v 68.800003 0.170000 -0.000000
v 68.845001 0.064000 -0.000000
v 68.738998 0.170000 -0.306000
v 68.879997 0.020000 -0.365000
v 68.779999 0.064000 -0.323000
v 68.566002 0.170000 -0.566000
v 68.674004 0.020000 -0.674000
v 68.597000 0.064000 -0.597000
v 68.306000 0.170000 -0.739000
v 68.364998 0.020000 -0.880000
v 68.322998 0.064000 -0.780000
v 68.000000 0.170000 -0.800000
v 68.000000 0.020000 -0.953000
v 68.000000 0.064000 -0.845000
v 67.694000 0.170000 -0.739000
v 67.635002 0.020000 -0.880000
v 67.677002 0.064000 -0.780000
v 67.433998 0.170000 -0.566000
v 67.325996 0.020000 -0.674000
v 67.403000 0.064000 -0.597000
v 67.261002 0.170000 -0.306000
v 67.120003 0.020000 -0.365000
v 67.220001 0.064000 -0.323000
v 67.199997 0.170000 -0.000000
v 67.046997 0.020000 -0.000000
v 67.154999 0.064000 -0.000000
v 67.261002 0.170000 0.306000
v 67.120003 0.020000 0.365000
v 67.220001 0.064000 0.323000
v 67.433998 0.170000 0.566000
v 67.325996 0.020000 0.674000
v 67.403000 0.064000 0.597000
v 67.694000 0.170000 0.739000
v 67.635002 0.020000 0.880000
v 67.677002 0.064000 0.780000
v 68.000000 0.170000 0.800000
v 68.000000 0.020000 0.953000
v 68.000000 0.064000 0.845000
v 68.306000 0.170000 0.739000
v 68.364998 0.020000 0.880000
v 68.322998 0.064000 0.780000
v 68.566002 0.170000 0.566000
v 68.674004 0.020000 0.674000
v 68.597000 0.064000 0.597000
v 68.738998 0.170000 0.306000
v 68.879997 0.020000 0.365000
v 68.779999 0.064000 0.323000
v 69.599998 2.100001 8.000000
v 69.477997 2.100000 7.388000
v 69.130997 2.100000 6.869000
v 68.612000 2.100000 6.522000
v 68.000000 2.100000 6.400000
v 67.388000 2.100000 6.522000
v 66.869003 2.100000 6.869000
v 66.522003 2.100000 7.388000
v 66.400002 2.100001 8.000000
v 66.522003 2.100001 8.612000
v 66.869003 2.100001 9.131000
v 67.388000 2.100001 9.478000
v 68.000000 2.100001 9.600000
v 68.612000 2.100001 9.478000
v 69.130997 2.100001 9.131000
v 69.477997 2.100001 8.612000
v 68.800003 2.100001 8.000000
v 68.738998 2.100000 7.694000
v 68.566002 2.100000 7.434000
v 68.306000 2.100000 7.261000
v 68.000000 2.100000 7.200000
v 67.694000 2.100000 7.261000
v 67.433998 2.100000 7.434000
v 67.261002 2.100000 7.694000
v 67.199997 2.100001 8.000000
v 67.261002 2.100001 8.306000
v 67.433998 2.100001 8.566000
v 67.694000 2.100001 8.739000
v 68.000000 2.100001 8.800000
v 68.306000 2.100001 8.739000
v 68.566002 2.100001 8.566000
v 68.738998 2.100001 8.306000
v 69.599998 0.170001 8.000000
v 69.446999 0.020001 8.000000
v 69.555000 0.064001 8.000000
v 69.336998 0.020001 7.446000
v 69.477997 0.170001 7.388000
v 69.436996 0.064001 7.405000
v 69.023003 0.020001 6.977000
v 69.130997 0.170001 6.869000
v 69.099998 0.064001 6.900000
v 68.554001 0.020001 6.663000
v 68.612000 0.170000 6.522000
v 68.595001 0.064001 6.563000
v 68.000000 0.020000 6.553000
v 68.000000 0.170000 6.400000
v 68.000000 0.064000 6.445000
v 67.445999 0.020001 6.663000
v 67.388000 0.170000 6.522000
v 67.404999 0.064001 6.563000
v 66.976997 0.020001 6.977000
v 66.869003 0.170001 6.869000
v 66.900002 0.064001 6.900000
v 66.663002 0.020001 7.446000
v 66.522003 0.170001 7.388000
v 66.563004 0.064001 7.405000
v 66.553001 0.020001 8.000000
v 66.400002 0.170001 8.000000
v 66.445000 0.064001 8.000000
v 66.663002 0.020001 8.554000
v 66.522003 0.170001 8.612000
v 66.563004 0.064001 8.595000
v 66.976997 0.020001 9.023000
v 66.869003 0.170001 9.131000
v 66.900002 0.064001 9.100000
v 67.445999 0.020001 9.337000
v 67.388000 0.170001 9.478000
v 67.404999 0.064001 9.437000
v 68.000000 0.020001 9.447000
v 68.000000 0.170001 9.600000
v 68.000000 0.064001 9.555000
v 68.554001 0.020001 9.337000
v 68.612000 0.170001 9.478000
v 68.595001 0.064001 9.437000
v 69.023003 0.020001 9.023000
v 69.130997 0.170001 9.131000
v 69.099998 0.064001 9.100000
v 69.336998 0.020001 8.554000
v 69.477997 0.170001 8.612000
v 69.436996 0.064001 8.595000
v 68.953003 0.020001 8.000000
v 68.800003 0.170001 8.000000
v 68.845001 0.064001 8.000000
v 68.738998 0.170001 7.694000
v 68.879997 0.020001 7.635000
v 68.779999 0.064001 7.677000
v 68.566002 0.170001 7.434000
v 68.674004 0.020001 7.326000
v 68.597000 0.064001 7.403000
v 68.306000 0.170001 7.261000
v 68.364998 0.020001 7.120000
v 68.322998 0.064001 7.220000
v 68.000000 0.170001 7.200000
v 68.000000 0.020001 7.047000
v 68.000000 0.064001 7.155000
v 67.694000 0.170001 7.261000
v 67.635002 0.020001 7.120000
v 67.677002 0.064001 7.220000
v 67.433998 0.170001 7.434000
v 67.325996 0.020001 7.326000
v 67.403000 0.064001 7.403000
v 67.261002 0.170001 7.694000
v 67.120003 0.020001 7.635000
v 67.220001 0.064001 7.677000
v 67.199997 0.170001 8.000000
v 67.046997 0.020001 8.000000
v 67.154999 0.064001 8.000000
v 67.261002 0.170001 8.306000
v 67.120003 0.020001 8.365000
v 67.220001 0.064001 8.323000
v 67.433998 0.170001 8.566000
v 67.325996 0.020001 8.674000
v 67.403000 0.064001 8.597000
v 67.694000 0.170001 8.739000
v 67.635002 0.020001 8.880000
v 67.677002 0.064001 8.780000
v 68.000000 0.170001 8.800000
v 68.000000 0.020001 8.953000
v 68.000000 0.064001 8.845000
v 68.306000 0.170001 8.739000
v 68.364998 0.020001 8.880000
v 68.322998 0.064001 8.780000
v 68.566002 0.170001 8.566000
v 68.674004 0.020001 8.674000
v 68.597000 0.064001 8.597000
v 68.738998 0.170001 8.306000
v 68.879997 0.020001 8.365000
v 68.779999 0.064001 8.323000
vn 1.0000 -0.0000 -0.0000
vn -0.0000 1.0000 -0.0000
vn -0.0000 -0.0000 -1.0000
vn 0.7071 -0.7071 -0.0000
vn -0.0000 0.7071 -0.7071
vn -0.0000 -0.0000 1.0000
vn -0.0000 0.7071 0.7071
vn 0.7071 0.7071 -0.0000
vn 0.1955 -0.0000 0.9807
vn -0.0000 -1.0000 -0.0000
vn 0.5540 -0.0000 0.8325
vn 0.8325 -0.0000 0.5540
vn -0.9807 -0.0000 0.1955
vn -0.1955 -0.0000 0.9807
vn 0.9807 -0.0000 0.1955
vn 0.9807 -0.0000 -0.1955
vn 0.8325 -0.0000 -0.5540
vn 0.5540 -0.0000 -0.8325
vn 0.1955 -0.0000 -0.9807
vn -0.1955 -0.0000 -0.9807
vn -0.5540 -0.0000 -0.8325
vn -0.8325 -0.0000 -0.5540
vn -0.5540 -0.0000 0.8325
vn -0.8325 -0.0000 0.5540
vn -0.8313 -0.0000 -0.5558
vn -0.5558 -0.0000 0.8313
vn -0.8313 -0.0000 0.5558
vn -0.9807 -0.0000 -0.1955
vn 0.5558 -0.0000 0.8313
vn 0.5558 -0.0000 -0.8313
vn -0.5558 -0.0000 -0.8313
vn 0.8313 -0.0000 0.5558
vn 0.8313 -0.0000 -0.5558
vn 0.9071 -0.3800 -0.1808
vn 0.9056 -0.3843 -0.1796
vn 0.3758 -0.9237 -0.0745
vn 0.3763 -0.9235 -0.0747
vn 0.7704 -0.3758 -0.5151
vn 0.7694 -0.3800 -0.5134
vn 0.3169 -0.9246 -0.2115
vn 0.3188 -0.9235 -0.2135
vn 0.5141 -0.3799 -0.7690
vn 0.5144 -0.3758 -0.7708
vn 0.2129 -0.9235 -0.3190
vn 0.2119 -0.9246 -0.3165
vn 0.1805 -0.3843 -0.9054
vn 0.1800 -0.3798 -0.9074
vn 0.0746 -0.9235 -0.3762
vn 0.0746 -0.9237 -0.3758
vn -0.1808 -0.3799 -0.9072
vn -0.1796 -0.3844 -0.9055
vn -0.0745 -0.9237 -0.3758
vn -0.0747 -0.9235 -0.3762
vn -0.5151 -0.3758 -0.7704
vn -0.5135 -0.3799 -0.7694
vn -0.2115 -0.9246 -0.3169
vn -0.2134 -0.9235 -0.3188
vn -0.7690 -0.3798 -0.5142
vn -0.7708 -0.3759 -0.5144
vn -0.3191 -0.9235 -0.2129
vn -0.3165 -0.9246 -0.2119
vn -0.9053 -0.3845 -0.1805
vn -0.9074 -0.3797 -0.1800
vn -0.3762 -0.9235 -0.0746
vn -0.3758 -0.9237 -0.0746
vn -0.9071 -0.3801 0.1808
vn -0.9056 -0.3843 0.1796
vn -0.3759 -0.9237 0.0745
vn -0.3763 -0.9235 0.0747
vn -0.7704 -0.3758 0.5151
vn -0.7694 -0.3801 0.5134
vn -0.3169 -0.9246 0.2115
vn -0.3188 -0.9235 0.2135
vn -0.5141 -0.3799 0.7690
vn -0.5144 -0.3758 0.7708
vn -0.2129 -0.9235 0.3190
vn -0.2119 -0.9246 0.3165
vn -0.1805 -0.3843 0.9054
vn -0.1800 -0.3798 0.9074
vn -0.0746 -0.9235 0.3762
vn -0.0746 -0.9237 0.3758
vn 0.1808 -0.3799 0.9072
vn 0.1796 -0.3844 0.9055
vn 0.0745 -0.9237 0.3758
vn 0.0747 -0.9235 0.3762
vn 0.5151 -0.3759 0.7703
vn 0.5134 -0.3800 0.7694
vn 0.2115 -0.9246 0.3169
vn 0.2134 -0.9235 0.3188
vn 0.7690 -0.3799 0.5141
vn 0.7708 -0.3758 0.5144
vn 0.3191 -0.9235 0.2129
vn 0.3165 -0.9246 0.2119
vn 0.9053 -0.3845 0.1805
vn 0.9074 -0.3797 0.1800
vn 0.3762 -0.9235 0.0746
vn 0.3758 -0.9237 0.0746
vn -0.3750 -0.9240 0.0750
vn -0.3762 -0.9234 0.0757
vn -0.9068 -0.3800 0.1825
vn -0.9054 -0.3844 0.1805
vn -0.3170 -0.9246 0.2113
vn -0.3176 -0.9242 0.2121
vn -0.7706 -0.3758 0.5147
vn -0.7700 -0.3802 0.5124
vn -0.2118 -0.9242 0.3177
vn -0.2116 -0.9246 0.3168
vn -0.5138 -0.3799 0.7692
vn -0.5134 -0.3757 0.7716
vn -0.0752 -0.9235 0.3762
vn -0.0754 -0.9240 0.3749
vn -0.1821 -0.3842 0.9051
vn -0.1808 -0.3799 0.9072
vn 0.0750 -0.9240 0.3751
vn 0.0757 -0.9234 0.3762
vn 0.1825 -0.3800 0.9068
vn 0.1805 -0.3843 0.9054
vn 0.2113 -0.9246 0.3170
vn 0.2121 -0.9242 0.3175
vn 0.5147 -0.3758 0.7706
vn 0.5124 -0.3801 0.7701
vn 0.3177 -0.9242 0.2118
vn 0.3168 -0.9246 0.2116
vn 0.7692 -0.3800 0.5137
vn 0.7715 -0.3759 0.5133
vn 0.3762 -0.9235 0.0753
vn 0.3748 -0.9240 0.0754
vn 0.9051 -0.3842 0.1821
vn 0.9072 -0.3799 0.1809
vn 0.3750 -0.9240 -0.0750
vn 0.3762 -0.9234 -0.0757
vn 0.9068 -0.3800 -0.1825
vn 0.9054 -0.3844 -0.1805
vn 0.3170 -0.9246 -0.2113
vn 0.3176 -0.9242 -0.2121
vn 0.7706 -0.3759 -0.5147
vn 0.7700 -0.3802 -0.5124
vn 0.2118 -0.9242 -0.3177
vn 0.2116 -0.9246 -0.3168
vn 0.5138 -0.3799 -0.7692
vn 0.5134 -0.3757 -0.7716
vn 0.0752 -0.9235 -0.3762
vn 0.0754 -0.9240 -0.3749
vn 0.1821 -0.3842 -0.9051
vn 0.1808 -0.3799 -0.9072
vn -0.0750 -0.9240 -0.3751
vn -0.0757 -0.9234 -0.3762
vn -0.1825 -0.3800 -0.9068
vn -0.1805 -0.3843 -0.9054
vn -0.2113 -0.9246 -0.3170
vn -0.2121 -0.9242 -0.3175
vn -0.5147 -0.3758 -0.7706
vn -0.5124 -0.3800 -0.7701
vn -0.3177 -0.9242 -0.2118
vn -0.3167 -0.9246 -0.2115
vn -0.7692 -0.3800 -0.5137
vn -0.7715 -0.3758 -0.5134
vn -0.3762 -0.9235 -0.0753
vn -0.3748 -0.9240 -0.0754
vn -0.9051 -0.3842 -0.1821
vn -0.9072 -0.3799 -0.1809
vn 0.9071 -0.3801 -0.1808
vn 0.3759 -0.9237 -0.0745
vn -0.0745 -0.9237 -0.3759
vn -0.5151 -0.3759 -0.7703
vn -0.7690 -0.3799 -0.5141
vn -0.7708 -0.3758 -0.5144
vn -0.9074 -0.3798 -0.1800
vn -0.3763 -0.9235 -0.0746
vn -0.9071 -0.3800 0.1808
vn -0.3758 -0.9237 0.0745
vn -0.7694 -0.3800 0.5134
vn -0.1805 -0.3844 0.9054
vn 0.0745 -0.9237 0.3759
vn 0.5135 -0.3799 0.7694
vn 0.9054 -0.3844 0.1805
vn 0.9074 -0.3798 0.1800
vn -0.9068 -0.3801 0.1825
vn -0.9054 -0.3843 0.1805
vn -0.7701 -0.3801 0.5124
vn 0.0750 -0.9240 0.3750
vn 0.1805 -0.3844 0.9054
vn 0.5124 -0.3800 0.7701
vn 0.3167 -0.9246 0.2115
vn 0.7692 -0.3799 0.5138
vn 0.7715 -0.3758 0.5134
vn 0.3762 -0.9235 0.0752
vn 0.3749 -0.9240 0.0754
vn 0.9068 -0.3801 -0.1825
vn 0.9054 -0.3843 -0.1805
vn 0.7706 -0.3758 -0.5147
vn 0.7701 -0.3801 -0.5124
vn -0.1805 -0.3844 -0.9054
vn -0.5147 -0.3759 -0.7706
vn -0.7692 -0.3799 -0.5138
vn -0.3762 -0.9235 -0.0752
vn -0.3749 -0.9240 -0.0754
s 0
usemtl MB_199
f 6//1 14//1 25//1
f 25//1 14//1 34//1
f 111//2 91//2 95//2
f 95//2 91//2 92//2
f 106//2 94//2 92//2
f 92//2 94//2 95//2
f 7//1 108//1 96//1
f 96//1 108//1 97//1
f 8//2 100//2 98//2
f 98//2 100//2 101//2
f 9//1 102//1 110//1
f 102//1 103//1 110//1
f 105//2 104//2 55//2
f 55//2 104//2 10//2
f 29//1 9//1 115//1
f 9//1 110//1 115//1
f 26//2 109//2 8//2
f 8//2 109//2 100//2
f 28//1 114//1 7//1
f 7//1 114//1 108//1
f 113//2 107//2 106//2
f 106//2 107//2 94//2
f 13//2 56//2 121//2
f 56//2 57//2 121//2
f 4//3 5//3 112//3
f 112//3 5//3 54//3
f 98//2 101//2 99//2
f 99//2 101//2 53//2
f 2//3 51//3 3//3
f 51//3 52//3 3//3
f 50//3 93//3 125//3
f 93//3 118//3 125//3
f 55//2 10//2 88//2
f 88//2 10//2 27//2
f 35//2 87//2 13//2
f 87//2 56//2 13//2
f 116//4 117//4 122//4
f 122//4 117//4 120//4
f 123//4 116//4 124//4
f 124//4 116//4 122//4
f 12//5 11//5 58//5
f 11//5 126//5 58//5
f 1//1 119//1 6//1
f 6//1 119//1 14//1
f 20//1 25//1 33//1
f 33//1 25//1 34//1
f 145//2 131//2 127//2
f 127//2 131//2 128//2
f 142//2 128//2 130//2
f 130//2 128//2 131//2
f 21//1 132//1 143//1
f 143//1 132//1 133//1
f 22//2 134//2 136//2
f 136//2 134//2 137//2
f 23//1 144//1 138//1
f 144//1 139//1 138//1
f 141//2 85//2 140//2
f 140//2 85//2 24//2
f 29//1 115//1 23//1
f 115//1 144//1 23//1
f 26//2 22//2 109//2
f 109//2 22//2 136//2
f 28//1 21//1 114//1
f 114//1 21//1 143//1
f 113//2 142//2 107//2
f 107//2 142//2 130//2
f 32//2 152//2 86//2
f 152//2 89//2 86//2
f 18//6 146//6 19//6
f 19//6 146//6 84//6
f 134//2 135//2 137//2
f 137//2 135//2 83//2
f 16//6 17//6 81//6
f 17//6 82//6 81//6
f 80//6 154//6 129//6
f 154//6 149//6 129//6
f 85//2 88//2 24//2
f 24//2 88//2 27//2
f 35//2 32//2 87//2
f 32//2 86//2 87//2
f 147//4 153//4 148//4
f 148//4 153//4 151//4
f 123//4 124//4 147//4
f 147//4 124//4 153//4
f 31//7 90//7 30//7
f 90//7 155//7 30//7
f 15//1 20//1 150//1
f 150//1 20//1 33//1
f 41//1 49//1 69//1
f 49//1 78//1 69//1
f 111//2 159//2 91//2
f 91//2 159//2 156//2
f 168//2 156//2 158//2
f 158//2 156//2 159//2
f 42//1 170//1 160//1
f 170//1 161//1 160//1
f 43//2 162//2 163//2
f 163//2 162//2 164//2
f 44//1 165//1 172//1
f 172//1 165//1 166//1
f 105//2 55//2 167//2
f 167//2 55//2 45//2
f 73//1 44//1 175//1
f 175//1 44//1 172//1
f 70//2 43//2 171//2
f 171//2 43//2 163//2
f 72//1 174//1 42//1
f 174//1 170//1 42//1
f 173//2 168//2 169//2
f 169//2 168//2 158//2
f 48//2 181//2 56//2
f 181//2 57//2 56//2
f 39//3 112//3 40//3
f 40//3 112//3 54//3
f 162//2 99//2 164//2
f 164//2 99//2 53//2
f 37//3 38//3 51//3
f 38//3 52//3 51//3
f 50//3 125//3 157//3
f 125//3 178//3 157//3
f 55//2 88//2 45//2
f 45//2 88//2 71//2
f 79//2 48//2 87//2
f 48//2 56//2 87//2
f 176//8 177//8 182//8
f 177//8 180//8 182//8
f 183//8 176//8 184//8
f 176//8 182//8 184//8
f 179//5 58//5 46//5
f 58//5 126//5 46//5
f 36//1 47//1 41//1
f 47//1 49//1 41//1
f 64//1 69//1 77//1
f 69//1 78//1 77//1
f 145//2 127//2 188//2
f 188//2 127//2 185//2
f 197//2 187//2 185//2
f 185//2 187//2 188//2
f 65//1 189//1 198//1
f 189//1 190//1 198//1
f 66//2 192//2 191//2
f 191//2 192//2 193//2
f 67//1 199//1 194//1
f 194//1 199//1 195//1
f 141//2 196//2 85//2
f 85//2 196//2 68//2
f 73//1 175//1 67//1
f 67//1 175//1 199//1
f 70//2 171//2 66//2
f 66//2 171//2 192//2
f 72//1 65//1 174//1
f 65//1 198//1 174//1
f 173//2 169//2 197//2
f 197//2 169//2 187//2
f 76//2 86//2 205//2
f 86//2 89//2 205//2
f 62//6 63//6 146//6
f 146//6 63//6 84//6
f 191//2 193//2 135//2
f 135//2 193//2 83//2
f 60//6 81//6 61//6
f 81//6 82//6 61//6
f 80//6 186//6 154//6
f 186//6 202//6 154//6
f 85//2 68//2 88//2
f 88//2 68//2 71//2
f 79//2 87//2 76//2
f 87//2 86//2 76//2
f 200//8 206//8 201//8
f 206//8 204//8 201//8
f 183//8 184//8 200//8
f 184//8 206//8 200//8
f 203//7 74//7 90//7
f 74//7 155//7 90//7
f 59//1 64//1 75//1
f 64//1 77//1 75//1
f 302//9 299//9 228//9
f 299//9 227//9 228//9
f 333//10 284//10 330//10
f 284//10 281//10 330//10
f 333//10 287//10 284//10
f 287//10 240//10 284//10
f 305//11 302//11 229//11
f 302//11 228//11 229//11
f 294//10 297//10 245//10
f 297//10 248//10 245//10
f 308//12 305//12 230//12
f 305//12 229//12 230//12
f 290//13 288//13 224//13
f 288//13 223//13 224//13
f 299//14 296//14 227//14
f 296//14 226//14 227//14
f 311//15 308//15 231//15
f 308//15 230//15 231//15
f 251//10 248//10 300//10
f 248//10 297//10 300//10
f 314//16 311//16 232//16
f 311//16 231//16 232//16
f 254//10 251//10 303//10
f 251//10 300//10 303//10
f 317//17 314//17 233//17
f 314//17 232//17 233//17
f 257//10 254//10 306//10
f 254//10 303//10 306//10
f 320//18 317//18 234//18
f 317//18 233//18 234//18
f 257//10 306//10 260//10
f 306//10 309//10 260//10
f 323//19 320//19 235//19
f 320//19 234//19 235//19
f 260//10 309//10 263//10
f 309//10 312//10 263//10
f 326//20 323//20 236//20
f 323//20 235//20 236//20
f 312//10 315//10 263//10
f 315//10 266//10 263//10
f 327//10 330//10 278//10
f 330//10 281//10 278//10
f 269//10 266//10 318//10
f 266//10 315//10 318//10
f 329//21 326//21 237//21
f 326//21 236//21 237//21
f 272//10 269//10 321//10
f 269//10 318//10 321//10
f 332//22 329//22 238//22
f 329//22 237//22 238//22
f 245//10 242//10 294//10
f 242//10 291//10 294//10
f 321//10 324//10 272//10
f 324//10 275//10 272//10
f 296//23 293//23 226//23
f 293//23 225//23 226//23
f 327//10 278//10 324//10
f 278//10 275//10 324//10
f 293//24 290//24 225//24
f 290//24 224//24 225//24
f 261//25 214//25 258//25
f 214//25 213//25 258//25
f 273//26 218//26 270//26
f 218//26 217//26 270//26
f 270//27 217//27 267//27
f 217//27 216//27 267//27
f 243//16 208//16 239//16
f 208//16 207//16 239//16
f 252//19 211//19 249//19
f 211//19 210//19 249//19
f 264//28 215//28 261//28
f 215//28 214//28 261//28
f 255//20 212//20 252//20
f 212//20 211//20 252//20
f 279//9 220//9 276//9
f 220//9 219//9 276//9
f 282//29 221//29 279//29
f 221//29 220//29 279//29
f 249//30 210//30 246//30
f 210//30 209//30 246//30
f 276//14 219//14 273//14
f 219//14 218//14 273//14
f 258//31 213//31 255//31
f 213//31 212//31 255//31
f 267//13 216//13 264//13
f 216//13 215//13 264//13
f 285//32 222//32 282//32
f 222//32 221//32 282//32
f 246//33 209//33 243//33
f 209//33 208//33 243//33
f 243//34 239//34 244//34
f 239//35 241//35 244//35
f 244//36 241//36 242//36
f 241//37 240//37 242//37
f 246//38 243//38 247//38
f 243//39 244//39 247//39
f 247//40 244//40 245//40
f 244//41 242//41 245//41
f 249//42 246//42 250//42
f 246//43 247//43 250//43
f 250//44 247//44 248//44
f 247//45 245//45 248//45
f 252//46 249//46 253//46
f 249//47 250//47 253//47
f 253//48 250//48 251//48
f 250//49 248//49 251//49
f 255//50 252//50 256//50
f 252//51 253//51 256//51
f 256//52 253//52 254//52
f 253//53 251//53 254//53
f 258//54 255//54 259//54
f 255//55 256//55 259//55
f 259//56 256//56 257//56
f 256//57 254//57 257//57
f 261//58 258//58 262//58
f 258//59 259//59 262//59
f 262//60 259//60 260//60
f 259//61 257//61 260//61
f 264//62 261//62 265//62
f 261//63 262//63 265//63
f 265//64 262//64 263//64
f 262//65 260//65 263//65
f 267//66 264//66 268//66
f 264//67 265//67 268//67
f 268//68 265//68 266//68
f 265//69 263//69 266//69
f 270//70 267//70 271//70
f 267//71 268//71 271//71
f 271//72 268//72 269//72
f 268//73 266//73 269//73
f 273//74 270//74 274//74
f 270//75 271//75 274//75
f 274//76 271//76 272//76
f 271//77 269//77 272//77
f 276//78 273//78 277//78
f 273//79 274//79 277//79
f 277//80 274//80 275//80
f 274//81 272//81 275//81
f 279//82 276//82 280//82
f 276//83 277//83 280//83
f 280//84 277//84 278//84
f 277//85 275//85 278//85
f 282//86 279//86 283//86
f 279//87 280//87 283//87
f 283//88 280//88 281//88
f 280//89 278//89 281//89
f 285//90 282//90 286//90
f 282//91 283//91 286//91
f 286//92 283//92 284//92
f 283//93 281//93 284//93
f 239//94 285//94 241//94
f 285//95 286//95 241//95
f 241//96 286//96 240//96
f 286//97 284//97 240//97
f 288//28 332//28 223//28
f 332//28 238//28 223//28
f 291//98 287//98 292//98
f 287//99 289//99 292//99
f 292//100 289//100 290//100
f 289//101 288//101 290//101
f 294//102 291//102 295//102
f 291//103 292//103 295//103
f 295//104 292//104 293//104
f 292//105 290//105 293//105
f 297//106 294//106 298//106
f 294//107 295//107 298//107
f 298//108 295//108 296//108
f 295//109 293//109 296//109
f 300//110 297//110 301//110
f 297//111 298//111 301//111
f 301//112 298//112 299//112
f 298//113 296//113 299//113
f 303//114 300//114 304//114
f 300//115 301//115 304//115
f 304//116 301//116 302//116
f 301//117 299//117 302//117
f 306//118 303//118 307//118
f 303//119 304//119 307//119
f 307//120 304//120 305//120
f 304//121 302//121 305//121
f 309//122 306//122 310//122
f 306//123 307//123 310//123
f 310//124 307//124 308//124
f 307//125 305//125 308//125
f 312//126 309//126 313//126
f 309//127 310//127 313//127
f 313//128 310//128 311//128
f 310//129 308//129 311//129
f 315//130 312//130 316//130
f 312//131 313//131 316//131
f 316//132 313//132 314//132
f 313//133 311//133 314//133
f 318//134 315//134 319//134
f 315//135 316//135 319//135
f 319//136 316//136 317//136
f 316//137 314//137 317//137
f 321//138 318//138 322//138
f 318//139 319//139 322//139
f 322//140 319//140 320//140
f 319//141 317//141 320//141
f 324//142 321//142 325//142
f 321//143 322//143 325//143
f 325//144 322//144 323//144
f 322//145 320//145 323//145
f 327//146 324//146 328//146
f 324//147 325//147 328//147
f 328//148 325//148 326//148
f 325//149 323//149 326//149
f 330//150 327//150 331//150
f 327//151 328//151 331//151
f 331//152 328//152 329//152
f 328//153 326//153 329//153
f 333//154 330//154 334//154
f 330//155 331//155 334//155
f 334//156 331//156 332//156
f 331//157 329//157 332//157
f 287//158 333//158 289//158
f 333//159 334//159 289//159
f 289//160 334//160 288//160
f 334//161 332//161 288//161
f 287//10 291//10 240//10
f 291//10 242//10 240//10
f 239//15 207//15 285//15
f 207//15 222//15 285//15
f 430//9 427//9 356//9
f 427//9 355//9 356//9
f 461//10 412//10 458//10
f 412//10 409//10 458//10
f 461//10 415//10 412//10
f 415//10 368//10 412//10
f 433//11 430//11 357//11
f 430//11 356//11 357//11
f 422//10 425//10 373//10
f 425//10 376//10 373//10
f 436//12 433//12 358//12
f 433//12 357//12 358//12
f 418//13 416//13 352//13
f 416//13 351//13 352//13
f 427//14 424//14 355//14
f 424//14 354//14 355//14
f 439//15 436//15 359//15
f 436//15 358//15 359//15
f 379//10 376//10 428//10
f 376//10 425//10 428//10
f 442//16 439//16 360//16
f 439//16 359//16 360//16
f 382//10 379//10 431//10
f 379//10 428//10 431//10
f 445//17 442//17 361//17
f 442//17 360//17 361//17
f 385//10 382//10 434//10
f 382//10 431//10 434//10
f 448//18 445//18 362//18
f 445//18 361//18 362//18
f 385//10 434//10 388//10
f 434//10 437//10 388//10
f 451//19 448//19 363//19
f 448//19 362//19 363//19
f 388//10 437//10 391//10
f 437//10 440//10 391//10
f 454//20 451//20 364//20
f 451//20 363//20 364//20
f 440//10 443//10 391//10
f 443//10 394//10 391//10
f 455//10 458//10 406//10
f 458//10 409//10 406//10
f 397//10 394//10 446//10
f 394//10 443//10 446//10
f 457//21 454//21 365//21
f 454//21 364//21 365//21
f 400//10 397//10 449//10
f 397//10 446//10 449//10
f 460//22 457//22 366//22
f 457//22 365//22 366//22
f 373//10 370//10 422//10
f 370//10 419//10 422//10
f 449//10 452//10 400//10
f 452//10 403//10 400//10
f 424//23 421//23 354//23
f 421//23 353//23 354//23
f 455//10 406//10 452//10
f 406//10 403//10 452//10
f 421//24 418//24 353//24
f 418//24 352//24 353//24
f 389//25 342//25 386//25
f 342//25 341//25 386//25
f 401//26 346//26 398//26
f 346//26 345//26 398//26
f 398//27 345//27 395//27
f 345//27 344//27 395//27
f 371//16 336//16 367//16
f 336//16 335//16 367//16
f 380//19 339//19 377//19
f 339//19 338//19 377//19
f 392//28 343//28 389//28
f 343//28 342//28 389//28
f 383//20 340//20 380//20
f 340//20 339//20 380//20
f 407//9 348//9 404//9
f 348//9 347//9 404//9
f 410//29 349//29 407//29
f 349//29 348//29 407//29
f 377//30 338//30 374//30
f 338//30 337//30 374//30
f 404//14 347//14 401//14
f 347//14 346//14 401//14
f 386//31 341//31 383//31
f 341//31 340//31 383//31
f 395//13 344//13 392//13
f 344//13 343//13 392//13
f 413//32 350//32 410//32
f 350//32 349//32 410//32
f 374//33 337//33 371//33
f 337//33 336//33 371//33
f 371//162 367//162 372//162
f 367//35 369//35 372//35
f 372//163 369//163 370//163
f 369//37 368//37 370//37
f 374//38 371//38 375//38
f 371//39 372//39 375//39
f 375//40 372//40 373//40
f 372//41 370//41 373//41
f 377//42 374//42 378//42
f 374//43 375//43 378//43
f 378//44 375//44 376//44
f 375//45 373//45 376//45
f 380//46 377//46 381//46
f 377//47 378//47 381//47
f 381//48 378//48 379//48
f 378//49 376//49 379//49
f 383//50 380//50 384//50
f 380//51 381//51 384//51
f 384//164 381//164 382//164
f 381//53 379//53 382//53
f 386//165 383//165 387//165
f 383//55 384//55 387//55
f 387//56 384//56 385//56
f 384//57 382//57 385//57
f 389//166 386//166 390//166
f 386//167 387//167 390//167
f 390//60 387//60 388//60
f 387//61 385//61 388//61
f 392//62 389//62 393//62
f 389//168 390//168 393//168
f 393//169 390//169 391//169
f 390//65 388//65 391//65
f 395//170 392//170 396//170
f 392//67 393//67 396//67
f 396//171 393//171 394//171
f 393//69 391//69 394//69
f 398//70 395//70 399//70
f 395//172 396//172 399//172
f 399//72 396//72 397//72
f 396//73 394//73 397//73
f 401//74 398//74 402//74
f 398//75 399//75 402//75
f 402//76 399//76 400//76
f 399//77 397//77 400//77
f 404//173 401//173 405//173
f 401//79 402//79 405//79
f 405//80 402//80 403//80
f 402//81 400//81 403//81
f 407//82 404//82 408//82
f 404//83 405//83 408//83
f 408//174 405//174 406//174
f 405//85 403//85 406//85
f 410//86 407//86 411//86
f 407//175 408//175 411//175
f 411//88 408//88 409//88
f 408//89 406//89 409//89
f 413//90 410//90 414//90
f 410//91 411//91 414//91
f 414//92 411//92 412//92
f 411//93 409//93 412//93
f 367//176 413//176 369//176
f 413//177 414//177 369//177
f 369//96 414//96 368//96
f 414//97 412//97 368//97
f 416//28 460//28 351//28
f 460//28 366//28 351//28
f 419//98 415//98 420//98
f 415//99 417//99 420//99
f 420//178 417//178 418//178
f 417//179 416//179 418//179
f 422//102 419//102 423//102
f 419//103 420//103 423//103
f 423//104 420//104 421//104
f 420//180 418//180 421//180
f 425//106 422//106 426//106
f 422//107 423//107 426//107
f 426//108 423//108 424//108
f 423//109 421//109 424//109
f 428//110 425//110 429//110
f 425//111 426//111 429//111
f 429//112 426//112 427//112
f 426//113 424//113 427//113
f 431//181 428//181 432//181
f 428//115 429//115 432//115
f 432//116 429//116 430//116
f 429//182 427//182 430//182
f 434//118 431//118 435//118
f 431//119 432//119 435//119
f 435//120 432//120 433//120
f 432//183 430//183 433//183
f 437//122 434//122 438//122
f 434//184 435//184 438//184
f 438//185 435//185 436//185
f 435//186 433//186 436//186
f 440//187 437//187 441//187
f 437//188 438//188 441//188
f 441//128 438//128 439//128
f 438//129 436//129 439//129
f 443//130 440//130 444//130
f 440//131 441//131 444//131
f 444//189 441//189 442//189
f 441//190 439//190 442//190
f 446//134 443//134 447//134
f 443//135 444//135 447//135
f 447//191 444//191 445//191
f 444//192 442//192 445//192
f 449//138 446//138 450//138
f 446//139 447//139 450//139
f 450//140 447//140 448//140
f 447//141 445//141 448//141
f 452//142 449//142 453//142
f 449//143 450//143 453//143
f 453//144 450//144 451//144
f 450//145 448//145 451//145
f 455//146 452//146 456//146
f 452//147 453//147 456//147
f 456//148 453//148 454//148
f 453//193 451//193 454//193
f 458//150 455//150 459//150
f 455//151 456//151 459//151
f 459//194 456//194 457//194
f 456//153 454//153 457//153
f 461//154 458//154 462//154
f 458//155 459//155 462//155
f 462//195 459//195 460//195
f 459//157 457//157 460//157
f 415//196 461//196 417//196
f 461//197 462//197 417//197
f 417//160 462//160 416//160
f 462//161 460//161 416//161
f 415//10 419//10 368//10
f 419//10 370//10 368//10
f 367//15 335//15 413//15
f 335//15 350//15 413//15
