# Blender 4.3.2
# www.blender.org
mtllib sidewalk12.mtl
o Part.12
v 39.959999 0.499999 -8.040000
v 39.599998 0.499999 -8.400000
v 39.599998 0.019999 -8.400000
v 38.400002 0.019999 -9.600000
v 38.400002 2.199999 -9.600000
v 39.660000 3.179999 -8.340000
v 39.959999 2.879999 -8.040000
v 24.040001 0.499999 -8.040000
v 24.400000 0.499999 -8.400000
v 24.400000 0.019999 -8.400000
v 25.600000 0.019999 -9.600000
v 25.600000 2.199999 -9.600000
v 24.340000 3.179999 -8.340000
v 24.040001 2.879999 -8.040000
v 32.000000 0.499999 -8.040000
v 32.000000 0.499999 -8.400000
v 32.000000 0.019999 -8.400000
v 32.000000 0.019999 -9.600000
v 32.000000 2.199999 -9.600000
v 32.000000 2.879999 -8.040000
v 32.000000 3.179999 -8.340000
v 39.959999 0.499999 -15.960000
v 39.599998 0.499999 -15.600000
v 39.599998 0.019999 -15.600000
v 38.400002 0.019999 -14.400000
v 38.400002 2.199999 -14.400000
v 39.660000 3.179999 -15.660000
v 39.959999 2.879999 -15.960000
v 39.959999 0.499999 -12.000000
v 39.599998 0.499999 -12.000000
v 39.599998 0.019999 -12.000000
v 38.400002 0.019999 -12.000000
v 38.400002 2.199999 -12.000000
v 39.959999 2.879999 -12.000000
v 39.660000 3.179999 -12.000000
v 24.040001 0.499999 -15.960000
v 24.400000 0.499999 -15.600000
v 24.400000 0.019999 -15.600000
v 25.600000 0.019999 -14.400000
v 25.600000 2.199999 -14.400000
v 24.340000 3.179999 -15.660000
v 24.040001 2.879999 -15.960000
v 32.000000 0.499999 -15.960000
v 32.000000 0.499999 -15.600000
v 32.000000 0.019999 -15.600000
v 32.000000 0.019999 -14.400000
v 32.000000 2.199999 -14.400000
v 32.000000 2.879999 -15.960000
v 32.000000 3.179999 -15.660000
v 24.040001 0.499999 -12.000000
v 24.400000 0.499999 -12.000000
v 24.400000 0.019999 -12.000000
v 25.600000 0.019999 -12.000000
v 25.600000 2.199999 -12.000000
v 24.040001 2.879999 -12.000000
v 24.340000 3.179999 -12.000000
v 32.000000 2.199999 -12.000000
v 32.000000 3.179999 -12.000000
v 39.959999 0.499999 -12.000000
v 39.959999 0.499999 -8.040000
v 39.959999 0.499999 -8.040000
v 32.000000 0.499999 -8.400000
v 39.599998 0.499999 -8.400000
v 39.599998 0.499999 -8.400000
v 39.599998 0.019999 -8.400000
v 39.599998 0.019999 -8.400000
v 39.599998 0.019999 -12.000000
v 32.000000 0.019999 -9.600000
v 38.400002 0.019999 -9.600000
v 38.400002 0.019999 -9.600000
v 38.400002 2.199999 -9.600000
v 38.400002 2.199999 -9.600000
v 38.400002 2.199999 -12.000000
v 39.660000 3.179999 -8.340000
v 39.660000 3.179999 -8.340000
v 39.959999 2.879999 -8.040000
v 39.959999 2.879999 -8.040000
v 39.959999 2.879999 -8.040000
v 39.660000 3.179999 -12.000000
v 32.000000 2.879999 -8.040000
v 32.000000 0.499999 -8.040000
v 32.000000 0.019999 -8.400000
v 32.000000 2.199999 -9.600000
v 32.000000 3.179999 -8.340000
v 39.599998 0.499999 -12.000000
v 38.400002 0.019999 -12.000000
v 39.959999 2.879999 -12.000000
v 24.040001 0.499999 -12.000000
v 24.040001 0.499999 -8.040000
v 24.040001 0.499999 -8.040000
v 24.400000 0.499999 -8.400000
v 24.400000 0.499999 -8.400000
v 24.400000 0.019999 -8.400000
v 24.400000 0.019999 -8.400000
v 24.400000 0.019999 -12.000000
v 25.600000 0.019999 -9.600000
v 25.600000 0.019999 -9.600000
v 25.600000 2.199999 -9.600000
v 25.600000 2.199999 -9.600000
v 25.600000 2.199999 -12.000000
v 24.340000 3.179999 -8.340000
v 24.340000 3.179999 -8.340000
v 24.040001 2.879999 -8.040000
v 24.040001 2.879999 -8.040000
v 24.040001 2.879999 -8.040000
v 24.340000 3.179999 -12.000000
v 24.400000 0.499999 -12.000000
v 25.600000 0.019999 -12.000000
v 24.040001 2.879999 -12.000000
v 39.959999 0.499999 -15.960000
v 39.959999 0.499999 -15.960000
v 32.000000 0.499999 -15.600000
v 39.599998 0.499999 -15.600000
v 39.599998 0.499999 -15.600000
v 39.599998 0.019999 -15.600000
v 39.599998 0.019999 -15.600000
v 32.000000 0.019999 -14.400000
v 38.400002 0.019999 -14.400000
v 38.400002 0.019999 -14.400000
v 38.400002 2.199999 -14.400000
v 38.400002 2.199999 -14.400000
v 39.660000 3.179999 -15.660000
v 39.660000 3.179999 -15.660000
v 39.959999 2.879999 -15.960000
v 39.959999 2.879999 -15.960000
v 39.959999 2.879999 -15.960000
v 32.000000 2.879999 -15.960000
v 32.000000 0.499999 -15.960000
v 32.000000 0.019999 -15.600000
v 32.000000 2.199999 -14.400000
v 32.000000 3.179999 -15.660000
v 24.040001 0.499999 -15.960000
v 24.040001 0.499999 -15.960000
v 24.400000 0.499999 -15.600000
v 24.400000 0.499999 -15.600000
v 24.400000 0.019999 -15.600000
v 24.400000 0.019999 -15.600000
v 25.600000 0.019999 -14.400000
v 25.600000 0.019999 -14.400000
v 25.600000 2.199999 -14.400000
v 25.600000 2.199999 -14.400000
v 24.340000 3.179999 -15.660000
v 24.340000 3.179999 -15.660000
v 24.040001 2.879999 -15.960000
v 24.040001 2.879999 -15.960000
v 24.040001 2.879999 -15.960000
vn 1.0000 -0.0000 -0.0000
vn -0.0000 1.0000 -0.0000
vn -0.0000 -0.0000 -1.0000
vn -0.0000 -0.7071 -0.7071
vn 0.7071 0.7071 -0.0000
vn 0.7071 -0.7071 -0.0000
vn -0.0000 0.7071 -0.7071
s 0
usemtl MB_199
f 59//1 87//1 60//1
f 87//1 77//1 60//1
f 85//2 63//2 29//2
f 29//2 63//2 61//2
f 81//2 61//2 62//2
f 62//2 61//2 63//2
f 16//3 64//3 82//3
f 82//3 64//3 65//3
f 17//2 66//2 68//2
f 68//2 66//2 69//2
f 18//3 83//3 70//3
f 83//3 71//3 70//3
f 80//4 84//4 76//4
f 76//4 84//4 74//4
f 73//2 57//2 72//2
f 72//2 57//2 19//2
f 1//3 15//3 78//3
f 78//3 15//3 20//3
f 7//5 34//5 75//5
f 34//5 79//5 75//5
f 4//1 86//1 5//1
f 5//1 86//1 33//1
f 66//2 67//2 69//2
f 69//2 67//2 32//2
f 2//1 3//1 30//1
f 3//1 31//1 30//1
f 21//2 6//2 58//2
f 6//2 35//2 58//2
f 88//1 109//1 89//1
f 89//1 109//1 104//1
f 107//2 50//2 91//2
f 91//2 50//2 90//2
f 81//2 62//2 90//2
f 90//2 62//2 91//2
f 16//3 82//3 92//3
f 92//3 82//3 93//3
f 17//2 68//2 94//2
f 94//2 68//2 96//2
f 18//3 97//3 83//3
f 97//3 98//3 83//3
f 80//4 103//4 84//4
f 84//4 103//4 101//4
f 100//2 99//2 57//2
f 57//2 99//2 19//2
f 8//3 105//3 15//3
f 15//3 105//3 20//3
f 14//6 55//6 102//6
f 102//6 55//6 106//6
f 11//1 108//1 12//1
f 108//1 54//1 12//1
f 94//2 96//2 95//2
f 95//2 96//2 53//2
f 9//1 10//1 51//1
f 51//1 10//1 52//1
f 21//2 58//2 13//2
f 58//2 56//2 13//2
f 59//1 110//1 87//1
f 110//1 125//1 87//1
f 85//2 29//2 113//2
f 113//2 29//2 111//2
f 128//2 112//2 111//2
f 111//2 112//2 113//2
f 44//3 114//3 129//3
f 114//3 115//3 129//3
f 45//2 117//2 116//2
f 116//2 117//2 118//2
f 46//3 130//3 119//3
f 119//3 130//3 120//3
f 127//7 131//7 124//7
f 131//7 122//7 124//7
f 73//2 121//2 57//2
f 57//2 121//2 47//2
f 22//3 43//3 28//3
f 43//3 48//3 28//3
f 126//5 123//5 34//5
f 123//5 79//5 34//5
f 25//1 26//1 86//1
f 86//1 26//1 33//1
f 116//2 118//2 67//2
f 67//2 118//2 32//2
f 23//1 30//1 24//1
f 30//1 31//1 24//1
f 49//2 58//2 27//2
f 58//2 35//2 27//2
f 88//1 132//1 109//1
f 109//1 132//1 145//1
f 107//2 134//2 50//2
f 50//2 134//2 133//2
f 128//2 133//2 112//2
f 112//2 133//2 134//2
f 44//3 129//3 135//3
f 129//3 136//3 135//3
f 45//2 137//2 117//2
f 117//2 137//2 138//2
f 46//3 139//3 130//3
f 130//3 139//3 140//3
f 127//7 144//7 131//7
f 144//7 142//7 131//7
f 100//2 57//2 141//2
f 141//2 57//2 47//2
f 36//3 42//3 43//3
f 42//3 48//3 43//3
f 146//6 143//6 55//6
f 55//6 143//6 106//6
f 39//1 40//1 108//1
f 40//1 54//1 108//1
f 137//2 95//2 138//2
f 138//2 95//2 53//2
f 37//1 51//1 38//1
f 38//1 51//1 52//1
f 49//2 41//2 58//2
f 41//2 56//2 58//2
