# Blender 4.3.2
# www.blender.org
mtllib sidewalk8.mtl
o Part.8
v 63.959999 0.499999 -7.960000
v 63.599998 0.499999 -7.600000
v 63.599998 0.019999 -7.600000
v 62.400002 0.020000 -6.400000
v 62.400002 2.099999 -6.400000
v 61.400002 0.499999 -7.960000
v 61.400002 0.499999 -7.600000
v 61.400002 0.019999 -7.600000
v 61.400002 0.020000 -6.400000
v 61.400002 2.099999 -6.400000
v 63.660000 3.180000 -7.660000
v 63.959999 2.879999 -7.960000
v 61.400002 3.180000 -7.660000
v 61.400002 2.879999 -7.960000
v 0.040000 0.499999 -7.960000
v 0.400000 0.499999 -7.600000
v 0.400000 0.019999 -7.600000
v 1.600000 0.020000 -6.400000
v 1.600000 2.099999 -6.400000
v 2.600000 0.499999 -7.960000
v 2.600000 0.499999 -7.600000
v 2.600000 0.019999 -7.600000
v 2.600000 0.020000 -6.400000
v 2.600000 2.099999 -6.400000
v 32.000000 0.499999 -7.960000
v 32.000000 0.019999 -7.600000
v 32.000000 0.499999 -7.600000
v 32.000000 0.020000 -6.400000
v 0.340000 3.180000 -7.660000
v 0.040000 2.879999 -7.960000
v 2.600000 3.180000 -7.660000
v 2.600000 2.879999 -7.960000
v 32.000000 2.879999 -7.960000
v 32.000000 3.180000 -7.660000
v 63.959999 0.500000 -0.040000
v 63.599998 0.500000 -0.400000
v 63.599998 0.020000 -0.400000
v 62.400002 0.020000 -1.600000
v 62.400002 2.100000 -1.600000
v 61.400002 0.500000 -0.040000
v 61.400002 0.500000 -0.400000
v 61.400002 0.020000 -0.400000
v 61.400002 0.020000 -1.600000
v 61.400002 2.100000 -1.600000
v 63.660000 3.180000 -0.340000
v 63.959999 2.880000 -0.040000
v 61.400002 3.180000 -0.340000
v 61.400002 2.880000 -0.040000
v 63.959999 0.500000 -4.000000
v 63.599998 0.500000 -4.000000
v 63.599998 0.020000 -4.000000
v 62.400002 0.020000 -4.000000
v 62.400002 2.100000 -4.000000
v 61.400002 2.100000 -4.000000
v 61.400002 3.180000 -4.000000
v 63.660000 3.180000 -4.000000
v 63.959999 2.880000 -4.000000
v 0.040000 0.500000 -0.040000
v 0.400000 0.500000 -0.400000
v 0.400000 0.020000 -0.400000
v 1.600000 0.020000 -1.600000
v 1.600000 2.100000 -1.600000
v 2.600000 0.500000 -0.040000
v 2.600000 0.500000 -0.400000
v 2.600000 0.020000 -0.400000
v 2.600000 0.020000 -1.600000
v 2.600000 2.100000 -1.600000
v 32.000000 0.500000 -0.040000
v 32.000000 0.020000 -0.400000
v 32.000000 2.100000 -1.600000
v 32.000000 0.500000 -0.400000
v 32.000000 0.020000 -1.600000
v 0.340000 3.180000 -0.340000
v 0.040000 2.880000 -0.040000
v 2.600000 3.180000 -0.340000
v 2.600000 2.880000 -0.040000
v 32.000000 2.880000 -0.040000
v 32.000000 3.180000 -0.340000
v 0.040000 0.500000 -4.000000
v 0.400000 0.500000 -4.000000
v 0.400000 0.020000 -4.000000
v 1.600000 0.020000 -4.000000
v 1.600000 2.100000 -4.000000
v 2.600000 2.100000 -4.000000
v 2.600000 3.180000 -4.000000
v 32.000000 3.180000 -4.000000
v 32.000000 2.100000 -4.000000
v 0.340000 3.180000 -4.000000
v 0.040000 2.880000 -4.000000
v 32.000000 2.099999 -6.400000
v 63.959999 0.500000 -4.000000
v 63.959999 0.499999 -7.960000
v 63.959999 0.499999 -7.960000
v 61.400002 0.499999 -7.600000
v 63.599998 0.499999 -7.600000
v 63.599998 0.499999 -7.600000
v 63.599998 0.019999 -7.600000
v 63.599998 0.019999 -7.600000
v 63.599998 0.020000 -4.000000
v 61.400002 0.020000 -6.400000
v 62.400002 0.020000 -6.400000
v 62.400002 0.020000 -6.400000
v 62.400002 2.099999 -6.400000
v 62.400002 2.099999 -6.400000
v 62.400002 2.100000 -4.000000
v 61.400002 0.499999 -7.960000
v 32.000000 0.499999 -7.600000
v 61.400002 0.019999 -7.600000
v 32.000000 0.020000 -6.400000
v 61.400002 2.099999 -6.400000
v 63.599998 0.500000 -4.000000
v 62.400002 0.020000 -4.000000
v 32.000000 0.499999 -7.960000
v 32.000000 0.019999 -7.600000
v 61.400002 2.879999 -7.960000
v 63.959999 2.879999 -7.960000
v 63.959999 2.879999 -7.960000
v 63.959999 2.879999 -7.960000
v 63.660000 3.180000 -7.660000
v 63.660000 3.180000 -7.660000
v 61.400002 3.180000 -7.660000
v 32.000000 2.879999 -7.960000
v 32.000000 3.180000 -7.660000
v 63.959999 2.880000 -4.000000
v 63.660000 3.180000 -4.000000
v 0.040000 0.500000 -4.000000
v 0.040000 0.499999 -7.960000
v 0.040000 0.499999 -7.960000
v 2.600000 0.499999 -7.600000
v 0.400000 0.499999 -7.600000
v 0.400000 0.499999 -7.600000
v 0.400000 0.019999 -7.600000
v 0.400000 0.019999 -7.600000
v 0.400000 0.020000 -4.000000
v 2.600000 0.020000 -6.400000
v 1.600000 0.020000 -6.400000
v 1.600000 0.020000 -6.400000
v 1.600000 2.099999 -6.400000
v 1.600000 2.099999 -6.400000
v 1.600000 2.100000 -4.000000
v 2.600000 0.499999 -7.960000
v 2.600000 0.019999 -7.600000
v 2.600000 2.099999 -6.400000
v 0.400000 0.500000 -4.000000
v 1.600000 0.020000 -4.000000
v 2.600000 2.879999 -7.960000
v 0.040000 2.879999 -7.960000
v 0.040000 2.879999 -7.960000
v 0.040000 2.879999 -7.960000
v 0.340000 3.180000 -7.660000
v 0.340000 3.180000 -7.660000
v 2.600000 3.180000 -7.660000
v 0.040000 2.880000 -4.000000
v 0.340000 3.180000 -4.000000
v 63.959999 0.500000 -0.040000
v 63.959999 0.500000 -0.040000
v 61.400002 0.500000 -0.400000
v 63.599998 0.500000 -0.400000
v 63.599998 0.500000 -0.400000
v 63.599998 0.020000 -0.400000
v 63.599998 0.020000 -0.400000
v 61.400002 0.020000 -1.600000
v 62.400002 0.020000 -1.600000
v 62.400002 0.020000 -1.600000
v 62.400002 2.100000 -1.600000
v 62.400002 2.100000 -1.600000
v 61.400002 0.500000 -0.040000
v 32.000000 0.500000 -0.400000
v 61.400002 0.020000 -0.400000
v 32.000000 0.020000 -1.600000
v 61.400002 2.100000 -1.600000
v 32.000000 0.500000 -0.040000
v 32.000000 0.020000 -0.400000
v 32.000000 2.100000 -1.600000
v 61.400002 2.880000 -0.040000
v 63.959999 2.880000 -0.040000
v 63.959999 2.880000 -0.040000
v 63.959999 2.880000 -0.040000
v 63.660000 3.180000 -0.340000
v 63.660000 3.180000 -0.340000
v 61.400002 3.180000 -0.340000
v 32.000000 2.880000 -0.040000
v 32.000000 3.180000 -0.340000
v 0.040000 0.500000 -0.040000
v 0.040000 0.500000 -0.040000
v 2.600000 0.500000 -0.400000
v 0.400000 0.500000 -0.400000
v 0.400000 0.500000 -0.400000
v 0.400000 0.020000 -0.400000
v 0.400000 0.020000 -0.400000
v 2.600000 0.020000 -1.600000
v 1.600000 0.020000 -1.600000
v 1.600000 0.020000 -1.600000
v 1.600000 2.100000 -1.600000
v 1.600000 2.100000 -1.600000
v 2.600000 0.500000 -0.040000
v 2.600000 0.020000 -0.400000
v 2.600000 2.100000 -1.600000
v 2.600000 2.880000 -0.040000
v 0.040000 2.880000 -0.040000
v 0.040000 2.880000 -0.040000
v 0.040000 2.880000 -0.040000
v 0.340000 3.180000 -0.340000
v 0.340000 3.180000 -0.340000
v 2.600000 3.180000 -0.340000
v 32.000000 2.099999 -6.400000
v 56.000000 2.100000 -2.400000
v 56.612000 2.100000 -2.522000
v 57.131001 2.100000 -2.869000
v 57.478001 2.100000 -3.388000
v 57.599998 2.100000 -4.000000
v 57.478001 2.100000 -4.612000
v 57.131001 2.099999 -5.131000
v 56.612000 2.099999 -5.478000
v 56.000000 2.099999 -5.600000
v 55.388000 2.099999 -5.478000
v 54.868999 2.099999 -5.131000
v 54.521999 2.100000 -4.612000
v 54.400002 2.100000 -4.000000
v 54.521999 2.100000 -3.388000
v 54.868999 2.100000 -2.869000
v 55.388000 2.100000 -2.522000
v 56.000000 2.100000 -3.200000
v 56.306000 2.100000 -3.261000
v 56.566002 2.100000 -3.434000
v 56.738998 2.100000 -3.694000
v 56.799999 2.100000 -4.000000
v 56.738998 2.100000 -4.306000
v 56.566002 2.100000 -4.566000
v 56.306000 2.099999 -4.739000
v 56.000000 2.099999 -4.800000
v 55.694000 2.099999 -4.739000
v 55.433998 2.100000 -4.566000
v 55.261002 2.100000 -4.306000
v 55.200001 2.100000 -4.000000
v 55.261002 2.100000 -3.694000
v 55.433998 2.100000 -3.434000
v 55.694000 2.100000 -3.261000
v 56.000000 0.170000 -2.400000
v 56.000000 0.020000 -2.553000
v 56.000000 0.064000 -2.445000
v 56.554001 0.020000 -2.663000
v 56.612000 0.170000 -2.522000
v 56.595001 0.064000 -2.563000
v 57.022999 0.020000 -2.977000
v 57.131001 0.170000 -2.869000
v 57.099998 0.064000 -2.900000
v 57.337002 0.020000 -3.446000
v 57.478001 0.170000 -3.388000
v 57.437000 0.064000 -3.405000
v 57.446999 0.020000 -4.000000
v 57.599998 0.170000 -4.000000
v 57.555000 0.064000 -4.000000
v 57.337002 0.020000 -4.554000
v 57.478001 0.170000 -4.612000
v 57.437000 0.064000 -4.595000
v 57.022999 0.020000 -5.023000
v 57.131001 0.170000 -5.131000
v 57.099998 0.064000 -5.100000
v 56.554001 0.020000 -5.337000
v 56.612000 0.170000 -5.478000
v 56.595001 0.064000 -5.437000
v 56.000000 0.020000 -5.447000
v 56.000000 0.170000 -5.600000
v 56.000000 0.064000 -5.555000
v 55.445999 0.020000 -5.337000
v 55.388000 0.170000 -5.478000
v 55.404999 0.064000 -5.437000
v 54.977001 0.020000 -5.023000
v 54.868999 0.170000 -5.131000
v 54.900002 0.064000 -5.100000
v 54.662998 0.020000 -4.554000
v 54.521999 0.170000 -4.612000
v 54.563000 0.064000 -4.595000
v 54.553001 0.020000 -4.000000
v 54.400002 0.170000 -4.000000
v 54.445000 0.064000 -4.000000
v 54.662998 0.020000 -3.446000
v 54.521999 0.170000 -3.388000
v 54.563000 0.064000 -3.405000
v 54.977001 0.020000 -2.977000
v 54.868999 0.170000 -2.869000
v 54.900002 0.064000 -2.900000
v 55.445999 0.020000 -2.663000
v 55.388000 0.170000 -2.522000
v 55.404999 0.064000 -2.563000
v 56.000000 0.020000 -3.047000
v 56.000000 0.170000 -3.200000
v 56.000000 0.064000 -3.155000
v 56.306000 0.170000 -3.261000
v 56.365002 0.020000 -3.120000
v 56.323002 0.064000 -3.220000
v 56.566002 0.170000 -3.434000
v 56.674000 0.020000 -3.326000
v 56.597000 0.064000 -3.403000
v 56.738998 0.170000 -3.694000
v 56.880001 0.020000 -3.635000
v 56.779999 0.064000 -3.677000
v 56.799999 0.170000 -4.000000
v 56.952999 0.020000 -4.000000
v 56.845001 0.064000 -4.000000
v 56.738998 0.170000 -4.306000
v 56.880001 0.020000 -4.365000
v 56.779999 0.064000 -4.323000
v 56.566002 0.170000 -4.566000
v 56.674000 0.020000 -4.674000
v 56.597000 0.064000 -4.597000
v 56.306000 0.170000 -4.739000
v 56.365002 0.020000 -4.880000
v 56.323002 0.064000 -4.780000
v 56.000000 0.170000 -4.800000
v 56.000000 0.020000 -4.953000
v 56.000000 0.064000 -4.845000
v 55.694000 0.170000 -4.739000
v 55.634998 0.020000 -4.880000
v 55.676998 0.064000 -4.780000
v 55.433998 0.170000 -4.566000
v 55.326000 0.020000 -4.674000
v 55.403000 0.064000 -4.597000
v 55.261002 0.170000 -4.306000
v 55.119999 0.020000 -4.365000
v 55.220001 0.064000 -4.323000
v 55.200001 0.170000 -4.000000
v 55.047001 0.020000 -4.000000
v 55.154999 0.064000 -4.000000
v 55.261002 0.170000 -3.694000
v 55.119999 0.020000 -3.635000
v 55.220001 0.064000 -3.677000
v 55.433998 0.170000 -3.434000
v 55.326000 0.020000 -3.326000
v 55.403000 0.064000 -3.403000
v 55.694000 0.170000 -3.261000
v 55.634998 0.020000 -3.120000
v 55.676998 0.064000 -3.220000
v 48.000000 2.100000 -2.400000
v 48.612000 2.100000 -2.522000
v 49.131001 2.100000 -2.869000
v 49.478001 2.100000 -3.388000
v 49.599998 2.100000 -4.000000
v 49.478001 2.100000 -4.612000
v 49.131001 2.099999 -5.131000
v 48.612000 2.099999 -5.478000
v 48.000000 2.099999 -5.600000
v 47.388000 2.099999 -5.478000
v 46.868999 2.099999 -5.131000
v 46.521999 2.100000 -4.612000
v 46.400002 2.100000 -4.000000
v 46.521999 2.100000 -3.388000
v 46.868999 2.100000 -2.869000
v 47.388000 2.100000 -2.522000
v 48.000000 2.100000 -3.200000
v 48.306000 2.100000 -3.261000
v 48.566002 2.100000 -3.434000
v 48.738998 2.100000 -3.694000
v 48.799999 2.100000 -4.000000
v 48.738998 2.100000 -4.306000
v 48.566002 2.100000 -4.566000
v 48.306000 2.099999 -4.739000
v 48.000000 2.099999 -4.800000
v 47.694000 2.099999 -4.739000
v 47.433998 2.100000 -4.566000
v 47.261002 2.100000 -4.306000
v 47.200001 2.100000 -4.000000
v 47.261002 2.100000 -3.694000
v 47.433998 2.100000 -3.434000
v 47.694000 2.100000 -3.261000
v 48.000000 0.170000 -2.400000
v 48.000000 0.020000 -2.553000
v 48.000000 0.064000 -2.445000
v 48.554001 0.020000 -2.663000
v 48.612000 0.170000 -2.522000
v 48.595001 0.064000 -2.563000
v 49.022999 0.020000 -2.977000
v 49.131001 0.170000 -2.869000
v 49.099998 0.064000 -2.900000
v 49.337002 0.020000 -3.446000
v 49.478001 0.170000 -3.388000
v 49.437000 0.064000 -3.405000
v 49.446999 0.020000 -4.000000
v 49.599998 0.170000 -4.000000
v 49.555000 0.064000 -4.000000
v 49.337002 0.020000 -4.554000
v 49.478001 0.170000 -4.612000
v 49.437000 0.064000 -4.595000
v 49.022999 0.020000 -5.023000
v 49.131001 0.170000 -5.131000
v 49.099998 0.064000 -5.100000
v 48.554001 0.020000 -5.337000
v 48.612000 0.170000 -5.478000
v 48.595001 0.064000 -5.437000
v 48.000000 0.020000 -5.447000
v 48.000000 0.170000 -5.600000
v 48.000000 0.064000 -5.555000
v 47.445999 0.020000 -5.337000
v 47.388000 0.170000 -5.478000
v 47.404999 0.064000 -5.437000
v 46.977001 0.020000 -5.023000
v 46.868999 0.170000 -5.131000
v 46.900002 0.064000 -5.100000
v 46.662998 0.020000 -4.554000
v 46.521999 0.170000 -4.612000
v 46.563000 0.064000 -4.595000
v 46.553001 0.020000 -4.000000
v 46.400002 0.170000 -4.000000
v 46.445000 0.064000 -4.000000
v 46.662998 0.020000 -3.446000
v 46.521999 0.170000 -3.388000
v 46.563000 0.064000 -3.405000
v 46.977001 0.020000 -2.977000
v 46.868999 0.170000 -2.869000
v 46.900002 0.064000 -2.900000
v 47.445999 0.020000 -2.663000
v 47.388000 0.170000 -2.522000
v 47.404999 0.064000 -2.563000
v 48.000000 0.020000 -3.047000
v 48.000000 0.170000 -3.200000
v 48.000000 0.064000 -3.155000
v 48.306000 0.170000 -3.261000
v 48.365002 0.020000 -3.120000
v 48.323002 0.064000 -3.220000
v 48.566002 0.170000 -3.434000
v 48.674000 0.020000 -3.326000
v 48.597000 0.064000 -3.403000
v 48.738998 0.170000 -3.694000
v 48.880001 0.020000 -3.635000
v 48.779999 0.064000 -3.677000
v 48.799999 0.170000 -4.000000
v 48.952999 0.020000 -4.000000
v 48.845001 0.064000 -4.000000
v 48.738998 0.170000 -4.306000
v 48.880001 0.020000 -4.365000
v 48.779999 0.064000 -4.323000
v 48.566002 0.170000 -4.566000
v 48.674000 0.020000 -4.674000
v 48.597000 0.064000 -4.597000
v 48.306000 0.170000 -4.739000
v 48.365002 0.020000 -4.880000
v 48.323002 0.064000 -4.780000
v 48.000000 0.170000 -4.800000
v 48.000000 0.020000 -4.953000
v 48.000000 0.064000 -4.845000
v 47.694000 0.170000 -4.739000
v 47.634998 0.020000 -4.880000
v 47.676998 0.064000 -4.780000
v 47.433998 0.170000 -4.566000
v 47.326000 0.020000 -4.674000
v 47.403000 0.064000 -4.597000
v 47.261002 0.170000 -4.306000
v 47.119999 0.020000 -4.365000
v 47.220001 0.064000 -4.323000
v 47.200001 0.170000 -4.000000
v 47.047001 0.020000 -4.000000
v 47.154999 0.064000 -4.000000
v 47.261002 0.170000 -3.694000
v 47.119999 0.020000 -3.635000
v 47.220001 0.064000 -3.677000
v 47.433998 0.170000 -3.434000
v 47.326000 0.020000 -3.326000
v 47.403000 0.064000 -3.403000
v 47.694000 0.170000 -3.261000
v 47.634998 0.020000 -3.120000
v 47.676998 0.064000 -3.220000
v 40.000000 2.100000 -2.400000
v 40.612000 2.100000 -2.522000
v 41.131001 2.100000 -2.869000
v 41.478001 2.100000 -3.388000
v 41.599998 2.100000 -4.000000
v 41.478001 2.100000 -4.612000
v 41.131001 2.099999 -5.131000
v 40.612000 2.099999 -5.478000
v 40.000000 2.099999 -5.600000
v 39.388000 2.099999 -5.478000
v 38.868999 2.099999 -5.131000
v 38.521999 2.100000 -4.612000
v 38.400002 2.100000 -4.000000
v 38.521999 2.100000 -3.388000
v 38.868999 2.100000 -2.869000
v 39.388000 2.100000 -2.522000
v 40.000000 2.100000 -3.200000
v 40.306000 2.100000 -3.261000
v 40.566002 2.100000 -3.434000
v 40.738998 2.100000 -3.694000
v 40.799999 2.100000 -4.000000
v 40.738998 2.100000 -4.306000
v 40.566002 2.100000 -4.566000
v 40.306000 2.099999 -4.739000
v 40.000000 2.099999 -4.800000
v 39.694000 2.099999 -4.739000
v 39.433998 2.100000 -4.566000
v 39.261002 2.100000 -4.306000
v 39.200001 2.100000 -4.000000
v 39.261002 2.100000 -3.694000
v 39.433998 2.100000 -3.434000
v 39.694000 2.100000 -3.261000
v 40.000000 0.170000 -2.400000
v 40.000000 0.020000 -2.553000
v 40.000000 0.064000 -2.445000
v 40.554001 0.020000 -2.663000
v 40.612000 0.170000 -2.522000
v 40.595001 0.064000 -2.563000
v 41.022999 0.020000 -2.977000
v 41.131001 0.170000 -2.869000
v 41.099998 0.064000 -2.900000
v 41.337002 0.020000 -3.446000
v 41.478001 0.170000 -3.388000
v 41.437000 0.064000 -3.405000
v 41.446999 0.020000 -4.000000
v 41.599998 0.170000 -4.000000
v 41.555000 0.064000 -4.000000
v 41.337002 0.020000 -4.554000
v 41.478001 0.170000 -4.612000
v 41.437000 0.064000 -4.595000
v 41.022999 0.020000 -5.023000
v 41.131001 0.170000 -5.131000
v 41.099998 0.064000 -5.100000
v 40.554001 0.020000 -5.337000
v 40.612000 0.170000 -5.478000
v 40.595001 0.064000 -5.437000
v 40.000000 0.020000 -5.447000
v 40.000000 0.170000 -5.600000
v 40.000000 0.064000 -5.555000
v 39.445999 0.020000 -5.337000
v 39.388000 0.170000 -5.478000
v 39.404999 0.064000 -5.437000
v 38.977001 0.020000 -5.023000
v 38.868999 0.170000 -5.131000
v 38.900002 0.064000 -5.100000
v 38.662998 0.020000 -4.554000
v 38.521999 0.170000 -4.612000
v 38.563000 0.064000 -4.595000
v 38.553001 0.020000 -4.000000
v 38.400002 0.170000 -4.000000
v 38.445000 0.064000 -4.000000
v 38.662998 0.020000 -3.446000
v 38.521999 0.170000 -3.388000
v 38.563000 0.064000 -3.405000
v 38.977001 0.020000 -2.977000
v 38.868999 0.170000 -2.869000
v 38.900002 0.064000 -2.900000
v 39.445999 0.020000 -2.663000
v 39.388000 0.170000 -2.522000
v 39.404999 0.064000 -2.563000
v 40.000000 0.020000 -3.047000
v 40.000000 0.170000 -3.200000
v 40.000000 0.064000 -3.155000
v 40.306000 0.170000 -3.261000
v 40.365002 0.020000 -3.120000
v 40.323002 0.064000 -3.220000
v 40.566002 0.170000 -3.434000
v 40.674000 0.020000 -3.326000
v 40.597000 0.064000 -3.403000
v 40.738998 0.170000 -3.694000
v 40.880001 0.020000 -3.635000
v 40.779999 0.064000 -3.677000
v 40.799999 0.170000 -4.000000
v 40.952999 0.020000 -4.000000
v 40.845001 0.064000 -4.000000
v 40.738998 0.170000 -4.306000
v 40.880001 0.020000 -4.365000
v 40.779999 0.064000 -4.323000
v 40.566002 0.170000 -4.566000
v 40.674000 0.020000 -4.674000
v 40.597000 0.064000 -4.597000
v 40.306000 0.170000 -4.739000
v 40.365002 0.020000 -4.880000
v 40.323002 0.064000 -4.780000
v 40.000000 0.170000 -4.800000
v 40.000000 0.020000 -4.953000
v 40.000000 0.064000 -4.845000
v 39.694000 0.170000 -4.739000
v 39.634998 0.020000 -4.880000
v 39.676998 0.064000 -4.780000
v 39.433998 0.170000 -4.566000
v 39.326000 0.020000 -4.674000
v 39.403000 0.064000 -4.597000
v 39.261002 0.170000 -4.306000
v 39.119999 0.020000 -4.365000
v 39.220001 0.064000 -4.323000
v 39.200001 0.170000 -4.000000
v 39.047001 0.020000 -4.000000
v 39.154999 0.064000 -4.000000
v 39.261002 0.170000 -3.694000
v 39.119999 0.020000 -3.635000
v 39.220001 0.064000 -3.677000
v 39.433998 0.170000 -3.434000
v 39.326000 0.020000 -3.326000
v 39.403000 0.064000 -3.403000
v 39.694000 0.170000 -3.261000
v 39.634998 0.020000 -3.120000
v 39.676998 0.064000 -3.220000
v 24.000000 2.100000 -2.400000
v 24.612000 2.100000 -2.522000
v 25.131001 2.100000 -2.869000
v 25.478001 2.100000 -3.388000
v 25.600000 2.100000 -4.000000
v 25.478001 2.100000 -4.612000
v 25.131001 2.099999 -5.131000
v 24.612000 2.099999 -5.478000
v 24.000000 2.099999 -5.600000
v 23.388000 2.099999 -5.478000
v 22.868999 2.099999 -5.131000
v 22.521999 2.100000 -4.612000
v 22.400000 2.100000 -4.000000
v 22.521999 2.100000 -3.388000
v 22.868999 2.100000 -2.869000
v 23.388000 2.100000 -2.522000
v 24.000000 2.100000 -3.200000
v 24.306000 2.100000 -3.261000
v 24.566000 2.100000 -3.434000
v 24.739000 2.100000 -3.694000
v 24.799999 2.100000 -4.000000
v 24.739000 2.100000 -4.306000
v 24.566000 2.100000 -4.566000
v 24.306000 2.099999 -4.739000
v 24.000000 2.099999 -4.800000
v 23.694000 2.099999 -4.739000
v 23.434000 2.100000 -4.566000
v 23.261000 2.100000 -4.306000
v 23.200001 2.100000 -4.000000
v 23.261000 2.100000 -3.694000
v 23.434000 2.100000 -3.434000
v 23.694000 2.100000 -3.261000
v 24.000000 0.170000 -2.400000
v 24.000000 0.020000 -2.553000
v 24.000000 0.064000 -2.445000
v 24.554001 0.020000 -2.663000
v 24.612000 0.170000 -2.522000
v 24.594999 0.064000 -2.563000
v 25.023001 0.020000 -2.977000
v 25.131001 0.170000 -2.869000
v 25.100000 0.064000 -2.900000
v 25.337000 0.020000 -3.446000
v 25.478001 0.170000 -3.388000
v 25.437000 0.064000 -3.405000
v 25.447001 0.020000 -4.000000
v 25.600000 0.170000 -4.000000
v 25.555000 0.064000 -4.000000
v 25.337000 0.020000 -4.554000
v 25.478001 0.170000 -4.612000
v 25.437000 0.064000 -4.595000
v 25.023001 0.020000 -5.023000
v 25.131001 0.170000 -5.131000
v 25.100000 0.064000 -5.100000
v 24.554001 0.020000 -5.337000
v 24.612000 0.170000 -5.478000
v 24.594999 0.064000 -5.437000
v 24.000000 0.020000 -5.447000
v 24.000000 0.170000 -5.600000
v 24.000000 0.064000 -5.555000
v 23.445999 0.020000 -5.337000
v 23.388000 0.170000 -5.478000
v 23.405001 0.064000 -5.437000
v 22.976999 0.020000 -5.023000
v 22.868999 0.170000 -5.131000
v 22.900000 0.064000 -5.100000
v 22.663000 0.020000 -4.554000
v 22.521999 0.170000 -4.612000
v 22.563000 0.064000 -4.595000
v 22.552999 0.020000 -4.000000
v 22.400000 0.170000 -4.000000
v 22.445000 0.064000 -4.000000
v 22.663000 0.020000 -3.446000
v 22.521999 0.170000 -3.388000
v 22.563000 0.064000 -3.405000
v 22.976999 0.020000 -2.977000
v 22.868999 0.170000 -2.869000
v 22.900000 0.064000 -2.900000
v 23.445999 0.020000 -2.663000
v 23.388000 0.170000 -2.522000
v 23.405001 0.064000 -2.563000
v 24.000000 0.020000 -3.047000
v 24.000000 0.170000 -3.200000
v 24.000000 0.064000 -3.155000
v 24.306000 0.170000 -3.261000
v 24.365000 0.020000 -3.120000
v 24.323000 0.064000 -3.220000
v 24.566000 0.170000 -3.434000
v 24.674000 0.020000 -3.326000
v 24.597000 0.064000 -3.403000
v 24.739000 0.170000 -3.694000
v 24.879999 0.020000 -3.635000
v 24.780001 0.064000 -3.677000
v 24.799999 0.170000 -4.000000
v 24.952999 0.020000 -4.000000
v 24.844999 0.064000 -4.000000
v 24.739000 0.170000 -4.306000
v 24.879999 0.020000 -4.365000
v 24.780001 0.064000 -4.323000
v 24.566000 0.170000 -4.566000
v 24.674000 0.020000 -4.674000
v 24.597000 0.064000 -4.597000
v 24.306000 0.170000 -4.739000
v 24.365000 0.020000 -4.880000
v 24.323000 0.064000 -4.780000
v 24.000000 0.170000 -4.800000
v 24.000000 0.020000 -4.953000
v 24.000000 0.064000 -4.845000
v 23.694000 0.170000 -4.739000
v 23.635000 0.020000 -4.880000
v 23.677000 0.064000 -4.780000
v 23.434000 0.170000 -4.566000
v 23.326000 0.020000 -4.674000
v 23.403000 0.064000 -4.597000
v 23.261000 0.170000 -4.306000
v 23.120001 0.020000 -4.365000
v 23.219999 0.064000 -4.323000
v 23.200001 0.170000 -4.000000
v 23.047001 0.020000 -4.000000
v 23.155001 0.064000 -4.000000
v 23.261000 0.170000 -3.694000
v 23.120001 0.020000 -3.635000
v 23.219999 0.064000 -3.677000
v 23.434000 0.170000 -3.434000
v 23.326000 0.020000 -3.326000
v 23.403000 0.064000 -3.403000
v 23.694000 0.170000 -3.261000
v 23.635000 0.020000 -3.120000
v 23.677000 0.064000 -3.220000
v 16.000000 2.100000 -2.400000
v 16.612000 2.100000 -2.522000
v 17.131001 2.100000 -2.869000
v 17.478001 2.100000 -3.388000
v 17.600000 2.100000 -4.000000
v 17.478001 2.100000 -4.612000
v 17.131001 2.099999 -5.131000
v 16.612000 2.099999 -5.478000
v 16.000000 2.099999 -5.600000
v 15.388000 2.099999 -5.478000
v 14.869000 2.099999 -5.131000
v 14.522000 2.100000 -4.612000
v 14.400000 2.100000 -4.000000
v 14.522000 2.100000 -3.388000
v 14.869000 2.100000 -2.869000
v 15.388000 2.100000 -2.522000
v 16.000000 2.100000 -3.200000
v 16.306000 2.100000 -3.261000
v 16.566000 2.100000 -3.434000
v 16.739000 2.100000 -3.694000
v 16.799999 2.100000 -4.000000
v 16.739000 2.100000 -4.306000
v 16.566000 2.100000 -4.566000
v 16.306000 2.099999 -4.739000
v 16.000000 2.099999 -4.800000
v 15.694000 2.099999 -4.739000
v 15.434000 2.100000 -4.566000
v 15.261000 2.100000 -4.306000
v 15.200000 2.100000 -4.000000
v 15.261000 2.100000 -3.694000
v 15.434000 2.100000 -3.434000
v 15.694000 2.100000 -3.261000
v 16.000000 0.170000 -2.400000
v 16.000000 0.020000 -2.553000
v 16.000000 0.064000 -2.445000
v 16.554001 0.020000 -2.663000
v 16.612000 0.170000 -2.522000
v 16.594999 0.064000 -2.563000
v 17.023001 0.020000 -2.977000
v 17.131001 0.170000 -2.869000
v 17.100000 0.064000 -2.900000
v 17.337000 0.020000 -3.446000
v 17.478001 0.170000 -3.388000
v 17.437000 0.064000 -3.405000
v 17.447001 0.020000 -4.000000
v 17.600000 0.170000 -4.000000
v 17.555000 0.064000 -4.000000
v 17.337000 0.020000 -4.554000
v 17.478001 0.170000 -4.612000
v 17.437000 0.064000 -4.595000
v 17.023001 0.020000 -5.023000
v 17.131001 0.170000 -5.131000
v 17.100000 0.064000 -5.100000
v 16.554001 0.020000 -5.337000
v 16.612000 0.170000 -5.478000
v 16.594999 0.064000 -5.437000
v 16.000000 0.020000 -5.447000
v 16.000000 0.170000 -5.600000
v 16.000000 0.064000 -5.555000
v 15.446000 0.020000 -5.337000
v 15.388000 0.170000 -5.478000
v 15.405000 0.064000 -5.437000
v 14.977000 0.020000 -5.023000
v 14.869000 0.170000 -5.131000
v 14.900000 0.064000 -5.100000
v 14.663000 0.020000 -4.554000
v 14.522000 0.170000 -4.612000
v 14.563000 0.064000 -4.595000
v 14.553000 0.020000 -4.000000
v 14.400000 0.170000 -4.000000
v 14.445000 0.064000 -4.000000
v 14.663000 0.020000 -3.446000
v 14.522000 0.170000 -3.388000
v 14.563000 0.064000 -3.405000
v 14.977000 0.020000 -2.977000
v 14.869000 0.170000 -2.869000
v 14.900000 0.064000 -2.900000
v 15.446000 0.020000 -2.663000
v 15.388000 0.170000 -2.522000
v 15.405000 0.064000 -2.563000
v 16.000000 0.020000 -3.047000
v 16.000000 0.170000 -3.200000
v 16.000000 0.064000 -3.155000
v 16.306000 0.170000 -3.261000
v 16.365000 0.020000 -3.120000
v 16.323000 0.064000 -3.220000
v 16.566000 0.170000 -3.434000
v 16.674000 0.020000 -3.326000
v 16.597000 0.064000 -3.403000
v 16.739000 0.170000 -3.694000
v 16.879999 0.020000 -3.635000
v 16.780001 0.064000 -3.677000
v 16.799999 0.170000 -4.000000
v 16.952999 0.020000 -4.000000
v 16.844999 0.064000 -4.000000
v 16.739000 0.170000 -4.306000
v 16.879999 0.020000 -4.365000
v 16.780001 0.064000 -4.323000
v 16.566000 0.170000 -4.566000
v 16.674000 0.020000 -4.674000
v 16.597000 0.064000 -4.597000
v 16.306000 0.170000 -4.739000
v 16.365000 0.020000 -4.880000
v 16.323000 0.064000 -4.780000
v 16.000000 0.170000 -4.800000
v 16.000000 0.020000 -4.953000
v 16.000000 0.064000 -4.845000
v 15.694000 0.170000 -4.739000
v 15.635000 0.020000 -4.880000
v 15.677000 0.064000 -4.780000
v 15.434000 0.170000 -4.566000
v 15.326000 0.020000 -4.674000
v 15.403000 0.064000 -4.597000
v 15.261000 0.170000 -4.306000
v 15.120000 0.020000 -4.365000
v 15.220000 0.064000 -4.323000
v 15.200000 0.170000 -4.000000
v 15.047000 0.020000 -4.000000
v 15.155000 0.064000 -4.000000
v 15.261000 0.170000 -3.694000
v 15.120000 0.020000 -3.635000
v 15.220000 0.064000 -3.677000
v 15.434000 0.170000 -3.434000
v 15.326000 0.020000 -3.326000
v 15.403000 0.064000 -3.403000
v 15.694000 0.170000 -3.261000
v 15.635000 0.020000 -3.120000
v 15.677000 0.064000 -3.220000
v 8.000000 2.100000 -2.400000
v 8.612000 2.100000 -2.522000
v 9.131000 2.100000 -2.869000
v 9.478000 2.100000 -3.388000
v 9.600000 2.100000 -4.000000
v 9.478000 2.100000 -4.612000
v 9.131000 2.099999 -5.131000
v 8.612000 2.099999 -5.478000
v 8.000000 2.099999 -5.600000
v 7.388000 2.099999 -5.478000
v 6.869000 2.099999 -5.131000
v 6.522000 2.100000 -4.612000
v 6.400000 2.100000 -4.000000
v 6.522000 2.100000 -3.388000
v 6.869000 2.100000 -2.869000
v 7.388000 2.100000 -2.522000
v 8.000000 2.100000 -3.200000
v 8.306000 2.100000 -3.261000
v 8.566000 2.100000 -3.434000
v 8.739000 2.100000 -3.694000
v 8.800000 2.100000 -4.000000
v 8.739000 2.100000 -4.306000
v 8.566000 2.100000 -4.566000
v 8.306000 2.099999 -4.739000
v 8.000000 2.099999 -4.800000
v 7.694000 2.099999 -4.739000
v 7.434000 2.100000 -4.566000
v 7.261000 2.100000 -4.306000
v 7.200000 2.100000 -4.000000
v 7.261000 2.100000 -3.694000
v 7.434000 2.100000 -3.434000
v 7.694000 2.100000 -3.261000
v 8.000000 0.170000 -2.400000
v 8.000000 0.020000 -2.553000
v 8.000000 0.064000 -2.445000
v 8.554000 0.020000 -2.663000
v 8.612000 0.170000 -2.522000
v 8.595000 0.064000 -2.563000
v 9.023000 0.020000 -2.977000
v 9.131000 0.170000 -2.869000
v 9.100000 0.064000 -2.900000
v 9.337000 0.020000 -3.446000
v 9.478000 0.170000 -3.388000
v 9.437000 0.064000 -3.405000
v 9.447000 0.020000 -4.000000
v 9.600000 0.170000 -4.000000
v 9.555000 0.064000 -4.000000
v 9.337000 0.020000 -4.554000
v 9.478000 0.170000 -4.612000
v 9.437000 0.064000 -4.595000
v 9.023000 0.020000 -5.023000
v 9.131000 0.170000 -5.131000
v 9.100000 0.064000 -5.100000
v 8.554000 0.020000 -5.337000
v 8.612000 0.170000 -5.478000
v 8.595000 0.064000 -5.437000
v 8.000000 0.020000 -5.447000
v 8.000000 0.170000 -5.600000
v 8.000000 0.064000 -5.555000
v 7.446000 0.020000 -5.337000
v 7.388000 0.170000 -5.478000
v 7.405000 0.064000 -5.437000
v 6.977000 0.020000 -5.023000
v 6.869000 0.170000 -5.131000
v 6.900000 0.064000 -5.100000
v 6.663000 0.020000 -4.554000
v 6.522000 0.170000 -4.612000
v 6.563000 0.064000 -4.595000
v 6.553000 0.020000 -4.000000
v 6.400000 0.170000 -4.000000
v 6.445000 0.064000 -4.000000
v 6.663000 0.020000 -3.446000
v 6.522000 0.170000 -3.388000
v 6.563000 0.064000 -3.405000
v 6.977000 0.020000 -2.977000
v 6.869000 0.170000 -2.869000
v 6.900000 0.064000 -2.900000
v 7.446000 0.020000 -2.663000
v 7.388000 0.170000 -2.522000
v 7.405000 0.064000 -2.563000
v 8.000000 0.020000 -3.047000
v 8.000000 0.170000 -3.200000
v 8.000000 0.064000 -3.155000
v 8.306000 0.170000 -3.261000
v 8.365000 0.020000 -3.120000
v 8.323000 0.064000 -3.220000
v 8.566000 0.170000 -3.434000
v 8.674000 0.020000 -3.326000
v 8.597000 0.064000 -3.403000
v 8.739000 0.170000 -3.694000
v 8.880000 0.020000 -3.635000
v 8.780000 0.064000 -3.677000
v 8.800000 0.170000 -4.000000
v 8.953000 0.020000 -4.000000
v 8.845000 0.064000 -4.000000
v 8.739000 0.170000 -4.306000
v 8.880000 0.020000 -4.365000
v 8.780000 0.064000 -4.323000
v 8.566000 0.170000 -4.566000
v 8.674000 0.020000 -4.674000
v 8.597000 0.064000 -4.597000
v 8.306000 0.170000 -4.739000
v 8.365000 0.020000 -4.880000
v 8.323000 0.064000 -4.780000
v 8.000000 0.170000 -4.800000
v 8.000000 0.020000 -4.953000
v 8.000000 0.064000 -4.845000
v 7.694000 0.170000 -4.739000
v 7.635000 0.020000 -4.880000
v 7.677000 0.064000 -4.780000
v 7.434000 0.170000 -4.566000
v 7.326000 0.020000 -4.674000
v 7.403000 0.064000 -4.597000
v 7.261000 0.170000 -4.306000
v 7.120000 0.020000 -4.365000
v 7.220000 0.064000 -4.323000
v 7.200000 0.170000 -4.000000
v 7.047000 0.020000 -4.000000
v 7.155000 0.064000 -4.000000
v 7.261000 0.170000 -3.694000
v 7.120000 0.020000 -3.635000
v 7.220000 0.064000 -3.677000
v 7.434000 0.170000 -3.434000
v 7.326000 0.020000 -3.326000
v 7.403000 0.064000 -3.403000
v 7.694000 0.170000 -3.261000
v 7.635000 0.020000 -3.120000
v 7.677000 0.064000 -3.220000
v 32.000000 2.100000 -2.400000
v 32.612000 2.100000 -2.522000
v 33.131001 2.100000 -2.869000
v 33.478001 2.100000 -3.388000
v 33.599998 2.100000 -4.000000
v 33.478001 2.100000 -4.612000
v 33.131001 2.099999 -5.131000
v 32.612000 2.099999 -5.478000
v 32.000000 2.099999 -5.600000
v 31.388000 2.099999 -5.478000
v 30.868999 2.099999 -5.131000
v 30.521999 2.100000 -4.612000
v 30.400000 2.100000 -4.000000
v 30.521999 2.100000 -3.388000
v 30.868999 2.100000 -2.869000
v 31.388000 2.100000 -2.522000
v 32.000000 0.170000 -2.400000
v 32.000000 0.020000 -2.553000
v 32.000000 0.064000 -2.445000
v 32.554001 0.020000 -2.663000
v 32.612000 0.170000 -2.522000
v 32.595001 0.064000 -2.563000
v 33.022999 0.020000 -2.977000
v 33.131001 0.170000 -2.869000
v 33.099998 0.064000 -2.900000
v 33.337002 0.020000 -3.446000
v 33.478001 0.170000 -3.388000
v 33.437000 0.064000 -3.405000
v 33.446999 0.020000 -4.000000
v 33.599998 0.170000 -4.000000
v 33.555000 0.064000 -4.000000
v 33.337002 0.020000 -4.554000
v 33.478001 0.170000 -4.612000
v 33.437000 0.064000 -4.595000
v 33.022999 0.020000 -5.023000
v 33.131001 0.170000 -5.131000
v 33.099998 0.064000 -5.100000
v 32.554001 0.020000 -5.337000
v 32.612000 0.170000 -5.478000
v 32.595001 0.064000 -5.437000
v 32.000000 0.020000 -5.447000
v 32.000000 0.170000 -5.600000
v 32.000000 0.064000 -5.555000
v 31.445999 0.020000 -5.337000
v 31.388000 0.170000 -5.478000
v 31.405001 0.064000 -5.437000
v 30.976999 0.020000 -5.023000
v 30.868999 0.170000 -5.131000
v 30.900000 0.064000 -5.100000
v 30.663000 0.020000 -4.554000
v 30.521999 0.170000 -4.612000
v 30.563000 0.064000 -4.595000
v 30.552999 0.020000 -4.000000
v 30.400000 0.170000 -4.000000
v 30.445000 0.064000 -4.000000
v 30.663000 0.020000 -3.446000
v 30.521999 0.170000 -3.388000
v 30.563000 0.064000 -3.405000
v 30.976999 0.020000 -2.977000
v 30.868999 0.170000 -2.869000
v 30.900000 0.064000 -2.900000
v 31.445999 0.020000 -2.663000
v 31.388000 0.170000 -2.522000
v 31.405001 0.064000 -2.563000
v 32.758999 0.020000 -4.724000
v 32.831001 0.020000 -4.000000
v 32.758999 0.020000 -3.276000
v 32.000000 0.020000 -4.783000
v 32.000000 0.020000 -4.000000
v 32.000000 0.020000 -3.217000
v 31.240999 0.020000 -4.724000
v 31.169001 0.020000 -4.000000
v 31.240999 0.020000 -3.276000
vn -0.0000 -0.0000 -1.0000
vn -0.0000 1.0000 -0.0000
vn 1.0000 -0.0000 -0.0000
vn -0.0000 0.7071 -0.7071
vn 0.7071 0.7071 -0.0000
vn -0.7071 0.7071 -0.0000
vn -0.0000 0.7071 0.7071
vn -0.9807 -0.0000 0.1955
vn -0.0000 -1.0000 -0.0000
vn -0.8325 -0.0000 0.5540
vn -0.5540 -0.0000 0.8325
vn -0.1955 -0.0000 -0.9807
vn -0.9807 -0.0000 -0.1955
vn -0.1955 -0.0000 0.9807
vn 0.1955 -0.0000 0.9807
vn 0.5540 -0.0000 0.8325
vn 0.8325 -0.0000 0.5540
vn 0.9807 -0.0000 0.1955
vn 0.9807 -0.0000 -0.1955
vn 0.8325 -0.0000 -0.5540
vn 0.5540 -0.0000 -0.8325
vn -0.8325 -0.0000 -0.5540
vn -0.5540 -0.0000 -0.8325
vn 0.5558 -0.0000 -0.8313
vn -0.8313 -0.0000 -0.5558
vn -0.5558 -0.0000 -0.8313
vn 0.1955 -0.0000 -0.9807
vn -0.8313 -0.0000 0.5558
vn 0.8313 -0.0000 0.5558
vn 0.8313 -0.0000 -0.5558
vn -0.5558 -0.0000 0.8313
vn 0.5558 -0.0000 0.8313
vn 0.1808 -0.3799 0.9072
vn 0.1796 -0.3844 0.9055
vn 0.0745 -0.9237 0.3758
vn 0.0747 -0.9235 0.3762
vn 0.5150 -0.3759 0.7703
vn 0.5135 -0.3799 0.7694
vn 0.2114 -0.9246 0.3169
vn 0.2135 -0.9235 0.3188
vn 0.7690 -0.3799 0.5141
vn 0.7708 -0.3759 0.5144
vn 0.3190 -0.9235 0.2129
vn 0.3165 -0.9246 0.2119
vn 0.9054 -0.3843 0.1805
vn 0.9074 -0.3799 0.1799
vn 0.3763 -0.9235 0.0746
vn 0.3758 -0.9237 0.0746
vn 0.9072 -0.3799 -0.1808
vn 0.9055 -0.3844 -0.1796
vn 0.3758 -0.9237 -0.0745
vn 0.3763 -0.9235 -0.0747
vn 0.7703 -0.3759 -0.5150
vn 0.7694 -0.3800 -0.5134
vn 0.3169 -0.9246 -0.2115
vn 0.3188 -0.9235 -0.2134
vn 0.5141 -0.3799 -0.7690
vn 0.5144 -0.3758 -0.7708
vn 0.2129 -0.9235 -0.3190
vn 0.2119 -0.9246 -0.3165
vn 0.1805 -0.3844 -0.9054
vn 0.1800 -0.3798 -0.9074
vn 0.0746 -0.9235 -0.3762
vn 0.0746 -0.9237 -0.3758
vn -0.1808 -0.3799 -0.9072
vn -0.1796 -0.3844 -0.9055
vn -0.0745 -0.9237 -0.3759
vn -0.0747 -0.9235 -0.3762
vn -0.5150 -0.3759 -0.7703
vn -0.5135 -0.3799 -0.7694
vn -0.2114 -0.9246 -0.3169
vn -0.2135 -0.9235 -0.3188
vn -0.7690 -0.3799 -0.5141
vn -0.7708 -0.3759 -0.5144
vn -0.3190 -0.9235 -0.2129
vn -0.3165 -0.9246 -0.2119
vn -0.9054 -0.3843 -0.1805
vn -0.9074 -0.3799 -0.1799
vn -0.3762 -0.9235 -0.0746
vn -0.3758 -0.9237 -0.0746
vn -0.9072 -0.3798 0.1808
vn -0.9055 -0.3845 0.1796
vn -0.3759 -0.9237 0.0745
vn -0.3763 -0.9235 0.0747
vn -0.7703 -0.3759 0.5150
vn -0.7694 -0.3800 0.5134
vn -0.3169 -0.9246 0.2115
vn -0.3188 -0.9235 0.2135
vn -0.5141 -0.3799 0.7690
vn -0.5144 -0.3758 0.7708
vn -0.2129 -0.9235 0.3190
vn -0.2119 -0.9246 0.3165
vn -0.1805 -0.3844 0.9054
vn -0.1800 -0.3798 0.9074
vn -0.0746 -0.9235 0.3762
vn -0.0746 -0.9237 0.3758
vn -0.0750 -0.9240 -0.3750
vn -0.0757 -0.9234 -0.3762
vn -0.1825 -0.3800 -0.9068
vn -0.1805 -0.3844 -0.9054
vn -0.2113 -0.9246 -0.3170
vn -0.2121 -0.9242 -0.3176
vn -0.5147 -0.3758 -0.7706
vn -0.5124 -0.3801 -0.7701
vn -0.3177 -0.9242 -0.2118
vn -0.3168 -0.9246 -0.2116
vn -0.7692 -0.3800 -0.5137
vn -0.7715 -0.3757 -0.5134
vn -0.3762 -0.9235 -0.0752
vn -0.3749 -0.9240 -0.0754
vn -0.9051 -0.3842 -0.1821
vn -0.9072 -0.3799 -0.1808
vn -0.3751 -0.9240 0.0750
vn -0.3762 -0.9234 0.0757
vn -0.9068 -0.3801 0.1825
vn -0.9054 -0.3843 0.1805
vn -0.3170 -0.9246 0.2113
vn -0.3176 -0.9242 0.2121
vn -0.7706 -0.3759 0.5147
vn -0.7701 -0.3800 0.5124
vn -0.2118 -0.9242 0.3177
vn -0.2116 -0.9246 0.3168
vn -0.5138 -0.3799 0.7692
vn -0.5134 -0.3757 0.7715
vn -0.0752 -0.9235 0.3762
vn -0.0754 -0.9240 0.3749
vn -0.1821 -0.3842 0.9051
vn -0.1808 -0.3799 0.9072
vn 0.0750 -0.9240 0.3750
vn 0.0757 -0.9234 0.3762
vn 0.1825 -0.3800 0.9068
vn 0.1805 -0.3844 0.9054
vn 0.2113 -0.9246 0.3170
vn 0.2121 -0.9242 0.3176
vn 0.5147 -0.3758 0.7706
vn 0.5124 -0.3801 0.7701
vn 0.3177 -0.9242 0.2118
vn 0.3168 -0.9246 0.2116
vn 0.7692 -0.3800 0.5137
vn 0.7715 -0.3757 0.5134
vn 0.3762 -0.9235 0.0752
vn 0.3749 -0.9240 0.0754
vn 0.9051 -0.3842 0.1821
vn 0.9072 -0.3799 0.1808
vn 0.3751 -0.9240 -0.0750
vn 0.3762 -0.9234 -0.0757
vn 0.9068 -0.3801 -0.1825
vn 0.9054 -0.3843 -0.1805
vn 0.3170 -0.9246 -0.2113
vn 0.3176 -0.9242 -0.2121
vn 0.7706 -0.3759 -0.5147
vn 0.7701 -0.3800 -0.5124
vn 0.2118 -0.9242 -0.3177
vn 0.2116 -0.9246 -0.3168
vn 0.5138 -0.3799 -0.7692
vn 0.5134 -0.3758 -0.7715
vn 0.0752 -0.9235 -0.3762
vn 0.0754 -0.9240 -0.3749
vn 0.1821 -0.3842 -0.9051
vn 0.1808 -0.3799 -0.9072
vn 0.9054 -0.3844 0.1805
vn 0.9074 -0.3798 0.1800
vn 0.3762 -0.9235 0.0746
vn -0.5135 -0.3800 -0.7694
vn -0.2134 -0.9235 -0.3188
vn -0.9054 -0.3844 -0.1805
vn -0.9074 -0.3798 -0.1800
vn -0.9072 -0.3799 0.1808
vn -0.9055 -0.3844 0.1796
vn -0.3758 -0.9237 0.0745
vn -0.5144 -0.3759 0.7708
vn -0.2129 -0.9235 0.3191
vn -0.9051 -0.3843 -0.1821
vn -0.3750 -0.9240 0.0750
vn -0.9068 -0.3800 0.1825
vn -0.9054 -0.3844 0.1805
vn 0.7692 -0.3799 0.5138
vn 0.9051 -0.3843 0.1821
vn 0.9068 -0.3800 -0.1825
vn 0.5135 -0.3800 0.7694
vn 0.2115 -0.9246 0.3169
vn 0.5144 -0.3759 -0.7708
vn 0.2129 -0.9235 -0.3191
vn 0.0745 -0.9237 0.3759
vn 0.7708 -0.3758 0.5144
vn 0.3759 -0.9237 -0.0745
vn 0.3762 -0.9235 -0.0747
vn 0.7694 -0.3799 -0.5135
vn 0.3188 -0.9235 -0.2135
vn -0.5150 -0.3760 -0.7703
vn -0.2115 -0.9246 -0.3169
vn -0.3763 -0.9235 -0.0746
vn -0.3762 -0.9235 0.0747
vn -0.7694 -0.3800 0.5135
vn -0.3188 -0.9235 0.2134
vn -0.5147 -0.3759 -0.7706
vn -0.5124 -0.3800 -0.7701
vn -0.7692 -0.3799 -0.5138
vn -0.7715 -0.3758 -0.5134
vn -0.5134 -0.3758 0.7715
vn 0.5147 -0.3759 0.7706
vn 0.5124 -0.3800 0.7701
vn 0.3750 -0.9240 -0.0750
vn -0.5134 -0.3800 -0.7694
vn -0.3191 -0.9235 -0.2129
vn -0.7694 -0.3799 0.5135
vn 0.1805 -0.3843 0.9054
vn 0.7715 -0.3758 0.5134
vn 0.2134 -0.9235 0.3188
vn 0.7694 -0.3800 -0.5135
vn 0.9054 -0.3844 -0.1805
s 0
usemtl MB_199
f 6//1 25//1 14//1
f 25//1 33//1 14//1
f 111//2 91//2 95//2
f 95//2 91//2 92//2
f 106//2 94//2 92//2
f 92//2 94//2 95//2
f 7//1 96//1 108//1
f 96//1 97//1 108//1
f 8//2 100//2 98//2
f 98//2 100//2 101//2
f 9//1 110//1 102//1
f 102//1 110//1 103//1
f 105//2 104//2 54//2
f 54//2 104//2 10//2
f 28//1 206//1 9//1
f 9//1 206//1 110//1
f 26//2 109//2 8//2
f 8//2 109//2 100//2
f 27//1 7//1 114//1
f 7//1 108//1 114//1
f 113//2 107//2 106//2
f 106//2 107//2 94//2
f 13//2 55//2 120//2
f 55//2 56//2 120//2
f 4//3 5//3 112//3
f 112//3 5//3 53//3
f 98//2 101//2 99//2
f 99//2 101//2 52//2
f 2//3 50//3 3//3
f 50//3 51//3 3//3
f 49//3 93//3 124//3
f 93//3 117//3 124//3
f 54//2 10//2 87//2
f 87//2 10//2 90//2
f 34//2 86//2 13//2
f 86//2 55//2 13//2
f 115//4 121//4 116//4
f 121//4 119//4 116//4
f 122//4 123//4 115//4
f 123//4 121//4 115//4
f 12//5 11//5 57//5
f 11//5 125//5 57//5
f 1//1 6//1 118//1
f 6//1 14//1 118//1
f 20//1 32//1 25//1
f 32//1 33//1 25//1
f 144//2 130//2 126//2
f 126//2 130//2 127//2
f 141//2 127//2 129//2
f 129//2 127//2 130//2
f 21//1 142//1 131//1
f 142//1 132//1 131//1
f 22//2 133//2 135//2
f 135//2 133//2 136//2
f 23//1 137//1 143//1
f 143//1 137//1 138//1
f 140//2 84//2 139//2
f 139//2 84//2 24//2
f 28//1 23//1 206//1
f 206//1 23//1 143//1
f 26//2 22//2 109//2
f 109//2 22//2 135//2
f 27//1 114//1 21//1
f 114//1 142//1 21//1
f 113//2 141//2 107//2
f 107//2 141//2 129//2
f 31//2 151//2 85//2
f 151//2 88//2 85//2
f 18//3 19//3 145//3
f 19//3 83//3 145//3
f 133//2 134//2 136//2
f 136//2 134//2 82//2
f 16//3 80//3 17//3
f 17//3 80//3 81//3
f 79//3 128//3 153//3
f 153//3 128//3 148//3
f 84//2 87//2 24//2
f 24//2 87//2 90//2
f 34//2 31//2 86//2
f 31//2 85//2 86//2
f 146//4 147//4 152//4
f 147//4 150//4 152//4
f 122//4 146//4 123//4
f 146//4 152//4 123//4
f 30//6 89//6 29//6
f 89//6 154//6 29//6
f 15//1 149//1 20//1
f 149//1 32//1 20//1
f 40//1 68//1 48//1
f 48//1 68//1 77//1
f 111//2 158//2 91//2
f 91//2 158//2 155//2
f 167//2 155//2 157//2
f 157//2 155//2 158//2
f 41//1 159//1 169//1
f 169//1 159//1 160//1
f 42//2 161//2 162//2
f 162//2 161//2 163//2
f 43//1 171//1 164//1
f 171//1 165//1 164//1
f 105//2 54//2 166//2
f 166//2 54//2 44//2
f 72//1 174//1 43//1
f 174//1 171//1 43//1
f 69//2 42//2 170//2
f 170//2 42//2 162//2
f 71//1 41//1 173//1
f 173//1 41//1 169//1
f 172//2 167//2 168//2
f 168//2 167//2 157//2
f 47//2 180//2 55//2
f 180//2 56//2 55//2
f 38//3 112//3 39//3
f 39//3 112//3 53//3
f 161//2 99//2 163//2
f 163//2 99//2 52//2
f 36//3 37//3 50//3
f 37//3 51//3 50//3
f 49//3 124//3 156//3
f 124//3 177//3 156//3
f 54//2 87//2 44//2
f 44//2 87//2 70//2
f 78//2 47//2 86//2
f 47//2 55//2 86//2
f 175//7 176//7 181//7
f 176//7 179//7 181//7
f 182//7 175//7 183//7
f 175//7 181//7 183//7
f 178//5 57//5 45//5
f 57//5 125//5 45//5
f 35//1 40//1 46//1
f 46//1 40//1 48//1
f 63//1 76//1 68//1
f 68//1 76//1 77//1
f 144//2 126//2 187//2
f 187//2 126//2 184//2
f 196//2 186//2 184//2
f 184//2 186//2 187//2
f 64//1 197//1 188//1
f 188//1 197//1 189//1
f 65//2 191//2 190//2
f 190//2 191//2 192//2
f 66//1 193//1 198//1
f 193//1 194//1 198//1
f 140//2 195//2 84//2
f 84//2 195//2 67//2
f 72//1 66//1 174//1
f 66//1 198//1 174//1
f 69//2 170//2 65//2
f 65//2 170//2 191//2
f 71//1 173//1 64//1
f 64//1 173//1 197//1
f 172//2 168//2 196//2
f 196//2 168//2 186//2
f 75//2 85//2 204//2
f 85//2 88//2 204//2
f 61//3 145//3 62//3
f 145//3 83//3 62//3
f 190//2 192//2 134//2
f 134//2 192//2 82//2
f 59//3 60//3 80//3
f 80//3 60//3 81//3
f 79//3 153//3 185//3
f 185//3 153//3 201//3
f 84//2 67//2 87//2
f 87//2 67//2 70//2
f 78//2 86//2 75//2
f 86//2 85//2 75//2
f 199//7 205//7 200//7
f 205//7 203//7 200//7
f 182//7 183//7 199//7
f 183//7 205//7 199//7
f 202//6 73//6 89//6
f 73//6 154//6 89//6
f 58//1 74//1 63//1
f 63//1 74//1 76//1
f 302//8 299//8 228//8
f 299//8 227//8 228//8
f 333//9 284//9 330//9
f 284//9 281//9 330//9
f 333//9 287//9 284//9
f 287//9 240//9 284//9
f 305//10 302//10 229//10
f 302//10 228//10 229//10
f 294//9 297//9 245//9
f 297//9 248//9 245//9
f 308//11 305//11 230//11
f 305//11 229//11 230//11
f 290//12 288//12 224//12
f 288//12 223//12 224//12
f 299//13 296//13 227//13
f 296//13 226//13 227//13
f 311//14 308//14 231//14
f 308//14 230//14 231//14
f 251//9 248//9 300//9
f 248//9 297//9 300//9
f 314//15 311//15 232//15
f 311//15 231//15 232//15
f 254//9 251//9 303//9
f 251//9 300//9 303//9
f 317//16 314//16 233//16
f 314//16 232//16 233//16
f 257//9 254//9 306//9
f 254//9 303//9 306//9
f 320//17 317//17 234//17
f 317//17 233//17 234//17
f 257//9 306//9 260//9
f 306//9 309//9 260//9
f 323//18 320//18 235//18
f 320//18 234//18 235//18
f 260//9 309//9 263//9
f 309//9 312//9 263//9
f 326//19 323//19 236//19
f 323//19 235//19 236//19
f 312//9 315//9 263//9
f 315//9 266//9 263//9
f 327//9 330//9 278//9
f 330//9 281//9 278//9
f 269//9 266//9 318//9
f 266//9 315//9 318//9
f 329//20 326//20 237//20
f 326//20 236//20 237//20
f 272//9 269//9 321//9
f 269//9 318//9 321//9
f 332//21 329//21 238//21
f 329//21 237//21 238//21
f 245//9 242//9 294//9
f 242//9 291//9 294//9
f 321//9 324//9 272//9
f 324//9 275//9 272//9
f 296//22 293//22 226//22
f 293//22 225//22 226//22
f 327//9 278//9 324//9
f 278//9 275//9 324//9
f 293//23 290//23 225//23
f 290//23 224//23 225//23
f 261//24 214//24 258//24
f 214//24 213//24 258//24
f 273//25 218//25 270//25
f 218//25 217//25 270//25
f 270//26 217//26 267//26
f 217//26 216//26 267//26
f 243//15 208//15 239//15
f 208//15 207//15 239//15
f 252//18 211//18 249//18
f 211//18 210//18 249//18
f 264//27 215//27 261//27
f 215//27 214//27 261//27
f 255//19 212//19 252//19
f 212//19 211//19 252//19
f 279//8 220//8 276//8
f 220//8 219//8 276//8
f 282//28 221//28 279//28
f 221//28 220//28 279//28
f 249//29 210//29 246//29
f 210//29 209//29 246//29
f 276//13 219//13 273//13
f 219//13 218//13 273//13
f 258//30 213//30 255//30
f 213//30 212//30 255//30
f 267//12 216//12 264//12
f 216//12 215//12 264//12
f 285//31 222//31 282//31
f 222//31 221//31 282//31
f 246//32 209//32 243//32
f 209//32 208//32 243//32
f 243//33 239//33 244//33
f 239//34 241//34 244//34
f 244//35 241//35 242//35
f 241//36 240//36 242//36
f 246//37 243//37 247//37
f 243//38 244//38 247//38
f 247//39 244//39 245//39
f 244//40 242//40 245//40
f 249//41 246//41 250//41
f 246//42 247//42 250//42
f 250//43 247//43 248//43
f 247//44 245//44 248//44
f 252//45 249//45 253//45
f 249//46 250//46 253//46
f 253//47 250//47 251//47
f 250//48 248//48 251//48
f 255//49 252//49 256//49
f 252//50 253//50 256//50
f 256//51 253//51 254//51
f 253//52 251//52 254//52
f 258//53 255//53 259//53
f 255//54 256//54 259//54
f 259//55 256//55 257//55
f 256//56 254//56 257//56
f 261//57 258//57 262//57
f 258//58 259//58 262//58
f 262//59 259//59 260//59
f 259//60 257//60 260//60
f 264//61 261//61 265//61
f 261//62 262//62 265//62
f 265//63 262//63 263//63
f 262//64 260//64 263//64
f 267//65 264//65 268//65
f 264//66 265//66 268//66
f 268//67 265//67 266//67
f 265//68 263//68 266//68
f 270//69 267//69 271//69
f 267//70 268//70 271//70
f 271//71 268//71 269//71
f 268//72 266//72 269//72
f 273//73 270//73 274//73
f 270//74 271//74 274//74
f 274//75 271//75 272//75
f 271//76 269//76 272//76
f 276//77 273//77 277//77
f 273//78 274//78 277//78
f 277//79 274//79 275//79
f 274//80 272//80 275//80
f 279//81 276//81 280//81
f 276//82 277//82 280//82
f 280//83 277//83 278//83
f 277//84 275//84 278//84
f 282//85 279//85 283//85
f 279//86 280//86 283//86
f 283//87 280//87 281//87
f 280//88 278//88 281//88
f 285//89 282//89 286//89
f 282//90 283//90 286//90
f 286//91 283//91 284//91
f 283//92 281//92 284//92
f 239//93 285//93 241//93
f 285//94 286//94 241//94
f 241//95 286//95 240//95
f 286//96 284//96 240//96
f 288//27 332//27 223//27
f 332//27 238//27 223//27
f 291//97 287//97 292//97
f 287//98 289//98 292//98
f 292//99 289//99 290//99
f 289//100 288//100 290//100
f 294//101 291//101 295//101
f 291//102 292//102 295//102
f 295//103 292//103 293//103
f 292//104 290//104 293//104
f 297//105 294//105 298//105
f 294//106 295//106 298//106
f 298//107 295//107 296//107
f 295//108 293//108 296//108
f 300//109 297//109 301//109
f 297//110 298//110 301//110
f 301//111 298//111 299//111
f 298//112 296//112 299//112
f 303//113 300//113 304//113
f 300//114 301//114 304//114
f 304//115 301//115 302//115
f 301//116 299//116 302//116
f 306//117 303//117 307//117
f 303//118 304//118 307//118
f 307//119 304//119 305//119
f 304//120 302//120 305//120
f 309//121 306//121 310//121
f 306//122 307//122 310//122
f 310//123 307//123 308//123
f 307//124 305//124 308//124
f 312//125 309//125 313//125
f 309//126 310//126 313//126
f 313//127 310//127 311//127
f 310//128 308//128 311//128
f 315//129 312//129 316//129
f 312//130 313//130 316//130
f 316//131 313//131 314//131
f 313//132 311//132 314//132
f 318//133 315//133 319//133
f 315//134 316//134 319//134
f 319//135 316//135 317//135
f 316//136 314//136 317//136
f 321//137 318//137 322//137
f 318//138 319//138 322//138
f 322//139 319//139 320//139
f 319//140 317//140 320//140
f 324//141 321//141 325//141
f 321//142 322//142 325//142
f 325//143 322//143 323//143
f 322//144 320//144 323//144
f 327//145 324//145 328//145
f 324//146 325//146 328//146
f 328//147 325//147 326//147
f 325//148 323//148 326//148
f 330//149 327//149 331//149
f 327//150 328//150 331//150
f 331//151 328//151 329//151
f 328//152 326//152 329//152
f 333//153 330//153 334//153
f 330//154 331//154 334//154
f 334//155 331//155 332//155
f 331//156 329//156 332//156
f 287//157 333//157 289//157
f 333//158 334//158 289//158
f 289//159 334//159 288//159
f 334//160 332//160 288//160
f 287//9 291//9 240//9
f 291//9 242//9 240//9
f 239//14 207//14 285//14
f 207//14 222//14 285//14
f 430//8 427//8 356//8
f 427//8 355//8 356//8
f 461//9 412//9 458//9
f 412//9 409//9 458//9
f 461//9 415//9 412//9
f 415//9 368//9 412//9
f 433//10 430//10 357//10
f 430//10 356//10 357//10
f 422//9 425//9 373//9
f 425//9 376//9 373//9
f 436//11 433//11 358//11
f 433//11 357//11 358//11
f 418//12 416//12 352//12
f 416//12 351//12 352//12
f 427//13 424//13 355//13
f 424//13 354//13 355//13
f 439//14 436//14 359//14
f 436//14 358//14 359//14
f 379//9 376//9 428//9
f 376//9 425//9 428//9
f 442//15 439//15 360//15
f 439//15 359//15 360//15
f 382//9 379//9 431//9
f 379//9 428//9 431//9
f 445//16 442//16 361//16
f 442//16 360//16 361//16
f 385//9 382//9 434//9
f 382//9 431//9 434//9
f 448//17 445//17 362//17
f 445//17 361//17 362//17
f 385//9 434//9 388//9
f 434//9 437//9 388//9
f 451//18 448//18 363//18
f 448//18 362//18 363//18
f 388//9 437//9 391//9
f 437//9 440//9 391//9
f 454//19 451//19 364//19
f 451//19 363//19 364//19
f 440//9 443//9 391//9
f 443//9 394//9 391//9
f 455//9 458//9 406//9
f 458//9 409//9 406//9
f 397//9 394//9 446//9
f 394//9 443//9 446//9
f 457//20 454//20 365//20
f 454//20 364//20 365//20
f 400//9 397//9 449//9
f 397//9 446//9 449//9
f 460//21 457//21 366//21
f 457//21 365//21 366//21
f 373//9 370//9 422//9
f 370//9 419//9 422//9
f 449//9 452//9 400//9
f 452//9 403//9 400//9
f 424//22 421//22 354//22
f 421//22 353//22 354//22
f 455//9 406//9 452//9
f 406//9 403//9 452//9
f 421//23 418//23 353//23
f 418//23 352//23 353//23
f 389//24 342//24 386//24
f 342//24 341//24 386//24
f 401//25 346//25 398//25
f 346//25 345//25 398//25
f 398//26 345//26 395//26
f 345//26 344//26 395//26
f 371//15 336//15 367//15
f 336//15 335//15 367//15
f 380//18 339//18 377//18
f 339//18 338//18 377//18
f 392//27 343//27 389//27
f 343//27 342//27 389//27
f 383//19 340//19 380//19
f 340//19 339//19 380//19
f 407//8 348//8 404//8
f 348//8 347//8 404//8
f 410//28 349//28 407//28
f 349//28 348//28 407//28
f 377//29 338//29 374//29
f 338//29 337//29 374//29
f 404//13 347//13 401//13
f 347//13 346//13 401//13
f 386//30 341//30 383//30
f 341//30 340//30 383//30
f 395//12 344//12 392//12
f 344//12 343//12 392//12
f 413//31 350//31 410//31
f 350//31 349//31 410//31
f 374//32 337//32 371//32
f 337//32 336//32 371//32
f 371//33 367//33 372//33
f 367//34 369//34 372//34
f 372//35 369//35 370//35
f 369//36 368//36 370//36
f 374//37 371//37 375//37
f 371//38 372//38 375//38
f 375//39 372//39 373//39
f 372//40 370//40 373//40
f 377//41 374//41 378//41
f 374//42 375//42 378//42
f 378//43 375//43 376//43
f 375//44 373//44 376//44
f 380//161 377//161 381//161
f 377//162 378//162 381//162
f 381//163 378//163 379//163
f 378//48 376//48 379//48
f 383//49 380//49 384//49
f 380//50 381//50 384//50
f 384//51 381//51 382//51
f 381//52 379//52 382//52
f 386//53 383//53 387//53
f 383//54 384//54 387//54
f 387//55 384//55 385//55
f 384//56 382//56 385//56
f 389//57 386//57 390//57
f 386//58 387//58 390//58
f 390//59 387//59 388//59
f 387//60 385//60 388//60
f 392//61 389//61 393//61
f 389//62 390//62 393//62
f 393//63 390//63 391//63
f 390//64 388//64 391//64
f 395//65 392//65 396//65
f 392//66 393//66 396//66
f 396//67 393//67 394//67
f 393//68 391//68 394//68
f 398//69 395//69 399//69
f 395//164 396//164 399//164
f 399//71 396//71 397//71
f 396//165 394//165 397//165
f 401//73 398//73 402//73
f 398//74 399//74 402//74
f 402//75 399//75 400//75
f 399//76 397//76 400//76
f 404//166 401//166 405//166
f 401//167 402//167 405//167
f 405//79 402//79 403//79
f 402//80 400//80 403//80
f 407//168 404//168 408//168
f 404//169 405//169 408//169
f 408//170 405//170 406//170
f 405//84 403//84 406//84
f 410//85 407//85 411//85
f 407//86 408//86 411//86
f 411//87 408//87 409//87
f 408//88 406//88 409//88
f 413//89 410//89 414//89
f 410//171 411//171 414//171
f 414//172 411//172 412//172
f 411//92 409//92 412//92
f 367//93 413//93 369//93
f 413//94 414//94 369//94
f 369//95 414//95 368//95
f 414//96 412//96 368//96
f 416//27 460//27 351//27
f 460//27 366//27 351//27
f 419//97 415//97 420//97
f 415//98 417//98 420//98
f 420//99 417//99 418//99
f 417//100 416//100 418//100
f 422//101 419//101 423//101
f 419//102 420//102 423//102
f 423//103 420//103 421//103
f 420//104 418//104 421//104
f 425//105 422//105 426//105
f 422//106 423//106 426//106
f 426//107 423//107 424//107
f 423//108 421//108 424//108
f 428//109 425//109 429//109
f 425//110 426//110 429//110
f 429//173 426//173 427//173
f 426//112 424//112 427//112
f 431//174 428//174 432//174
f 428//114 429//114 432//114
f 432//175 429//175 430//175
f 429//176 427//176 430//176
f 434//117 431//117 435//117
f 431//118 432//118 435//118
f 435//119 432//119 433//119
f 432//120 430//120 433//120
f 437//121 434//121 438//121
f 434//122 435//122 438//122
f 438//123 435//123 436//123
f 435//124 433//124 436//124
f 440//125 437//125 441//125
f 437//126 438//126 441//126
f 441//127 438//127 439//127
f 438//128 436//128 439//128
f 443//129 440//129 444//129
f 440//130 441//130 444//130
f 444//131 441//131 442//131
f 441//132 439//132 442//132
f 446//133 443//133 447//133
f 443//134 444//134 447//134
f 447//135 444//135 445//135
f 444//136 442//136 445//136
f 449//137 446//137 450//137
f 446//138 447//138 450//138
f 450//177 447//177 448//177
f 447//140 445//140 448//140
f 452//141 449//141 453//141
f 449//142 450//142 453//142
f 453//178 450//178 451//178
f 450//144 448//144 451//144
f 455//145 452//145 456//145
f 452//146 453//146 456//146
f 456//179 453//179 454//179
f 453//148 451//148 454//148
f 458//149 455//149 459//149
f 455//150 456//150 459//150
f 459//151 456//151 457//151
f 456//152 454//152 457//152
f 461//153 458//153 462//153
f 458//154 459//154 462//154
f 462//155 459//155 460//155
f 459//156 457//156 460//156
f 415//157 461//157 417//157
f 461//158 462//158 417//158
f 417//159 462//159 416//159
f 462//160 460//160 416//160
f 415//9 419//9 368//9
f 419//9 370//9 368//9
f 367//14 335//14 413//14
f 335//14 350//14 413//14
f 558//8 555//8 484//8
f 555//8 483//8 484//8
f 589//9 540//9 586//9
f 540//9 537//9 586//9
f 589//9 543//9 540//9
f 543//9 496//9 540//9
f 561//10 558//10 485//10
f 558//10 484//10 485//10
f 550//9 553//9 501//9
f 553//9 504//9 501//9
f 564//11 561//11 486//11
f 561//11 485//11 486//11
f 546//12 544//12 480//12
f 544//12 479//12 480//12
f 555//13 552//13 483//13
f 552//13 482//13 483//13
f 567//14 564//14 487//14
f 564//14 486//14 487//14
f 507//9 504//9 556//9
f 504//9 553//9 556//9
f 570//15 567//15 488//15
f 567//15 487//15 488//15
f 510//9 507//9 559//9
f 507//9 556//9 559//9
f 573//16 570//16 489//16
f 570//16 488//16 489//16
f 513//9 510//9 562//9
f 510//9 559//9 562//9
f 576//17 573//17 490//17
f 573//17 489//17 490//17
f 513//9 562//9 516//9
f 562//9 565//9 516//9
f 579//18 576//18 491//18
f 576//18 490//18 491//18
f 516//9 565//9 519//9
f 565//9 568//9 519//9
f 582//19 579//19 492//19
f 579//19 491//19 492//19
f 568//9 571//9 519//9
f 571//9 522//9 519//9
f 583//9 586//9 534//9
f 586//9 537//9 534//9
f 525//9 522//9 574//9
f 522//9 571//9 574//9
f 585//20 582//20 493//20
f 582//20 492//20 493//20
f 528//9 525//9 577//9
f 525//9 574//9 577//9
f 588//21 585//21 494//21
f 585//21 493//21 494//21
f 501//9 498//9 550//9
f 498//9 547//9 550//9
f 577//9 580//9 528//9
f 580//9 531//9 528//9
f 552//22 549//22 482//22
f 549//22 481//22 482//22
f 583//9 534//9 580//9
f 534//9 531//9 580//9
f 549//23 546//23 481//23
f 546//23 480//23 481//23
f 517//24 470//24 514//24
f 470//24 469//24 514//24
f 529//25 474//25 526//25
f 474//25 473//25 526//25
f 526//26 473//26 523//26
f 473//26 472//26 523//26
f 499//15 464//15 495//15
f 464//15 463//15 495//15
f 508//18 467//18 505//18
f 467//18 466//18 505//18
f 520//27 471//27 517//27
f 471//27 470//27 517//27
f 511//19 468//19 508//19
f 468//19 467//19 508//19
f 535//8 476//8 532//8
f 476//8 475//8 532//8
f 538//28 477//28 535//28
f 477//28 476//28 535//28
f 505//29 466//29 502//29
f 466//29 465//29 502//29
f 532//13 475//13 529//13
f 475//13 474//13 529//13
f 514//30 469//30 511//30
f 469//30 468//30 511//30
f 523//12 472//12 520//12
f 472//12 471//12 520//12
f 541//31 478//31 538//31
f 478//31 477//31 538//31
f 502//32 465//32 499//32
f 465//32 464//32 499//32
f 499//33 495//33 500//33
f 495//34 497//34 500//34
f 500//35 497//35 498//35
f 497//36 496//36 498//36
f 502//37 499//37 503//37
f 499//180 500//180 503//180
f 503//181 500//181 501//181
f 500//40 498//40 501//40
f 505//41 502//41 506//41
f 502//42 503//42 506//42
f 506//43 503//43 504//43
f 503//44 501//44 504//44
f 508//161 505//161 509//161
f 505//162 506//162 509//162
f 509//163 506//163 507//163
f 506//48 504//48 507//48
f 511//49 508//49 512//49
f 508//50 509//50 512//50
f 512//51 509//51 510//51
f 509//52 507//52 510//52
f 514//53 511//53 515//53
f 511//54 512//54 515//54
f 515//55 512//55 513//55
f 512//56 510//56 513//56
f 517//57 514//57 518//57
f 514//182 515//182 518//182
f 518//183 515//183 516//183
f 515//60 513//60 516//60
f 520//61 517//61 521//61
f 517//62 518//62 521//62
f 521//63 518//63 519//63
f 518//64 516//64 519//64
f 523//65 520//65 524//65
f 520//66 521//66 524//66
f 524//67 521//67 522//67
f 521//68 519//68 522//68
f 526//69 523//69 527//69
f 523//70 524//70 527//70
f 527//71 524//71 525//71
f 524//72 522//72 525//72
f 529//73 526//73 530//73
f 526//74 527//74 530//74
f 530//75 527//75 528//75
f 527//76 525//76 528//76
f 532//166 529//166 533//166
f 529//167 530//167 533//167
f 533//79 530//79 531//79
f 530//80 528//80 531//80
f 535//168 532//168 536//168
f 532//169 533//169 536//169
f 536//170 533//170 534//170
f 533//84 531//84 534//84
f 538//85 535//85 539//85
f 535//86 536//86 539//86
f 539//87 536//87 537//87
f 536//88 534//88 537//88
f 541//89 538//89 542//89
f 538//171 539//171 542//171
f 542//172 539//172 540//172
f 539//92 537//92 540//92
f 495//93 541//93 497//93
f 541//94 542//94 497//94
f 497//95 542//95 496//95
f 542//96 540//96 496//96
f 544//27 588//27 479//27
f 588//27 494//27 479//27
f 547//97 543//97 548//97
f 543//98 545//98 548//98
f 548//99 545//99 546//99
f 545//100 544//100 546//100
f 550//101 547//101 551//101
f 547//102 548//102 551//102
f 551//103 548//103 549//103
f 548//104 546//104 549//104
f 553//105 550//105 554//105
f 550//106 551//106 554//106
f 554//107 551//107 552//107
f 551//108 549//108 552//108
f 556//109 553//109 557//109
f 553//110 554//110 557//110
f 557//173 554//173 555//173
f 554//112 552//112 555//112
f 559//174 556//174 560//174
f 556//114 557//114 560//114
f 560//175 557//175 558//175
f 557//176 555//176 558//176
f 562//117 559//117 563//117
f 559//118 560//118 563//118
f 563//119 560//119 561//119
f 560//120 558//120 561//120
f 565//121 562//121 566//121
f 562//122 563//122 566//122
f 566//123 563//123 564//123
f 563//124 561//124 564//124
f 568//125 565//125 569//125
f 565//126 566//126 569//126
f 569//127 566//127 567//127
f 566//128 564//128 567//128
f 571//129 568//129 572//129
f 568//130 569//130 572//130
f 572//131 569//131 570//131
f 569//132 567//132 570//132
f 574//133 571//133 575//133
f 571//134 572//134 575//134
f 575//135 572//135 573//135
f 572//136 570//136 573//136
f 577//137 574//137 578//137
f 574//138 575//138 578//138
f 578//177 575//177 576//177
f 575//140 573//140 576//140
f 580//141 577//141 581//141
f 577//142 578//142 581//142
f 581//178 578//178 579//178
f 578//144 576//144 579//144
f 583//145 580//145 584//145
f 580//146 581//146 584//146
f 584//179 581//179 582//179
f 581//148 579//148 582//148
f 586//149 583//149 587//149
f 583//150 584//150 587//150
f 587//151 584//151 585//151
f 584//152 582//152 585//152
f 589//153 586//153 590//153
f 586//154 587//154 590//154
f 590//155 587//155 588//155
f 587//156 585//156 588//156
f 543//157 589//157 545//157
f 589//158 590//158 545//158
f 545//159 590//159 544//159
f 590//160 588//160 544//160
f 543//9 547//9 496//9
f 547//9 498//9 496//9
f 495//14 463//14 541//14
f 463//14 478//14 541//14
f 686//8 683//8 612//8
f 683//8 611//8 612//8
f 717//9 668//9 714//9
f 668//9 665//9 714//9
f 717//9 671//9 668//9
f 671//9 624//9 668//9
f 689//10 686//10 613//10
f 686//10 612//10 613//10
f 678//9 681//9 629//9
f 681//9 632//9 629//9
f 692//11 689//11 614//11
f 689//11 613//11 614//11
f 674//12 672//12 608//12
f 672//12 607//12 608//12
f 683//13 680//13 611//13
f 680//13 610//13 611//13
f 695//14 692//14 615//14
f 692//14 614//14 615//14
f 635//9 632//9 684//9
f 632//9 681//9 684//9
f 698//15 695//15 616//15
f 695//15 615//15 616//15
f 638//9 635//9 687//9
f 635//9 684//9 687//9
f 701//16 698//16 617//16
f 698//16 616//16 617//16
f 641//9 638//9 690//9
f 638//9 687//9 690//9
f 704//17 701//17 618//17
f 701//17 617//17 618//17
f 641//9 690//9 644//9
f 690//9 693//9 644//9
f 707//18 704//18 619//18
f 704//18 618//18 619//18
f 644//9 693//9 647//9
f 693//9 696//9 647//9
f 710//19 707//19 620//19
f 707//19 619//19 620//19
f 696//9 699//9 647//9
f 699//9 650//9 647//9
f 711//9 714//9 662//9
f 714//9 665//9 662//9
f 653//9 650//9 702//9
f 650//9 699//9 702//9
f 713//20 710//20 621//20
f 710//20 620//20 621//20
f 656//9 653//9 705//9
f 653//9 702//9 705//9
f 716//21 713//21 622//21
f 713//21 621//21 622//21
f 629//9 626//9 678//9
f 626//9 675//9 678//9
f 705//9 708//9 656//9
f 708//9 659//9 656//9
f 680//22 677//22 610//22
f 677//22 609//22 610//22
f 711//9 662//9 708//9
f 662//9 659//9 708//9
f 677//23 674//23 609//23
f 674//23 608//23 609//23
f 645//24 598//24 642//24
f 598//24 597//24 642//24
f 657//25 602//25 654//25
f 602//25 601//25 654//25
f 654//26 601//26 651//26
f 601//26 600//26 651//26
f 627//15 592//15 623//15
f 592//15 591//15 623//15
f 636//18 595//18 633//18
f 595//18 594//18 633//18
f 648//27 599//27 645//27
f 599//27 598//27 645//27
f 639//19 596//19 636//19
f 596//19 595//19 636//19
f 663//8 604//8 660//8
f 604//8 603//8 660//8
f 666//28 605//28 663//28
f 605//28 604//28 663//28
f 633//29 594//29 630//29
f 594//29 593//29 630//29
f 660//13 603//13 657//13
f 603//13 602//13 657//13
f 642//30 597//30 639//30
f 597//30 596//30 639//30
f 651//12 600//12 648//12
f 600//12 599//12 648//12
f 669//31 606//31 666//31
f 606//31 605//31 666//31
f 630//32 593//32 627//32
f 593//32 592//32 627//32
f 627//33 623//33 628//33
f 623//34 625//34 628//34
f 628//184 625//184 626//184
f 625//36 624//36 626//36
f 630//37 627//37 631//37
f 627//38 628//38 631//38
f 631//181 628//181 629//181
f 628//40 626//40 629//40
f 633//41 630//41 634//41
f 630//185 631//185 634//185
f 634//43 631//43 632//43
f 631//44 629//44 632//44
f 636//161 633//161 637//161
f 633//162 634//162 637//162
f 637//47 634//47 635//47
f 634//48 632//48 635//48
f 639//49 636//49 640//49
f 636//50 637//50 640//50
f 640//186 637//186 638//186
f 637//187 635//187 638//187
f 642//53 639//53 643//53
f 639//188 640//188 643//188
f 643//55 640//55 641//55
f 640//189 638//189 641//189
f 645//57 642//57 646//57
f 642//182 643//182 646//182
f 646//183 643//183 644//183
f 643//60 641//60 644//60
f 648//61 645//61 649//61
f 645//62 646//62 649//62
f 649//63 646//63 647//63
f 646//64 644//64 647//64
f 651//65 648//65 652//65
f 648//66 649//66 652//66
f 652//67 649//67 650//67
f 649//68 647//68 650//68
f 654//190 651//190 655//190
f 651//70 652//70 655//70
f 655//191 652//191 653//191
f 652//72 650//72 653//72
f 657//73 654//73 658//73
f 654//74 655//74 658//74
f 658//75 655//75 656//75
f 655//76 653//76 656//76
f 660//166 657//166 661//166
f 657//78 658//78 661//78
f 661//192 658//192 659//192
f 658//80 656//80 659//80
f 663//168 660//168 664//168
f 660//169 661//169 664//169
f 664//83 661//83 662//83
f 661//193 659//193 662//193
f 666//85 663//85 667//85
f 663//194 664//194 667//194
f 667//87 664//87 665//87
f 664//195 662//195 665//195
f 669//89 666//89 670//89
f 666//171 667//171 670//171
f 670//172 667//172 668//172
f 667//92 665//92 668//92
f 623//93 669//93 625//93
f 669//94 670//94 625//94
f 625//95 670//95 624//95
f 670//96 668//96 624//96
f 672//27 716//27 607//27
f 716//27 622//27 607//27
f 675//97 671//97 676//97
f 671//98 673//98 676//98
f 676//99 673//99 674//99
f 673//100 672//100 674//100
f 678//101 675//101 679//101
f 675//102 676//102 679//102
f 679//196 676//196 677//196
f 676//197 674//197 677//197
f 681//105 678//105 682//105
f 678//106 679//106 682//106
f 682//198 679//198 680//198
f 679//199 677//199 680//199
f 684//109 681//109 685//109
f 681//110 682//110 685//110
f 685//173 682//173 683//173
f 682//112 680//112 683//112
f 687//174 684//174 688//174
f 684//114 685//114 688//114
f 688//175 685//175 686//175
f 685//116 683//116 686//116
f 690//117 687//117 691//117
f 687//118 688//118 691//118
f 691//119 688//119 689//119
f 688//120 686//120 689//120
f 693//121 690//121 694//121
f 690//122 691//122 694//122
f 694//123 691//123 692//123
f 691//200 689//200 692//200
f 696//125 693//125 697//125
f 693//126 694//126 697//126
f 697//127 694//127 695//127
f 694//128 692//128 695//128
f 699//129 696//129 700//129
f 696//130 697//130 700//130
f 700//131 697//131 698//131
f 697//132 695//132 698//132
f 702//133 699//133 703//133
f 699//134 700//134 703//134
f 703//201 700//201 701//201
f 700//202 698//202 701//202
f 705//137 702//137 706//137
f 702//138 703//138 706//138
f 706//177 703//177 704//177
f 703//140 701//140 704//140
f 708//141 705//141 709//141
f 705//142 706//142 709//142
f 709//143 706//143 707//143
f 706//144 704//144 707//144
f 711//203 708//203 712//203
f 708//146 709//146 712//146
f 712//179 709//179 710//179
f 709//148 707//148 710//148
f 714//149 711//149 715//149
f 711//150 712//150 715//150
f 715//151 712//151 713//151
f 712//152 710//152 713//152
f 717//153 714//153 718//153
f 714//154 715//154 718//154
f 718//155 715//155 716//155
f 715//156 713//156 716//156
f 671//157 717//157 673//157
f 717//158 718//158 673//158
f 673//159 718//159 672//159
f 718//160 716//160 672//160
f 671//9 675//9 624//9
f 675//9 626//9 624//9
f 623//14 591//14 669//14
f 591//14 606//14 669//14
f 814//8 811//8 740//8
f 811//8 739//8 740//8
f 845//9 796//9 842//9
f 796//9 793//9 842//9
f 845//9 799//9 796//9
f 799//9 752//9 796//9
f 817//10 814//10 741//10
f 814//10 740//10 741//10
f 806//9 809//9 757//9
f 809//9 760//9 757//9
f 820//11 817//11 742//11
f 817//11 741//11 742//11
f 802//12 800//12 736//12
f 800//12 735//12 736//12
f 811//13 808//13 739//13
f 808//13 738//13 739//13
f 823//14 820//14 743//14
f 820//14 742//14 743//14
f 763//9 760//9 812//9
f 760//9 809//9 812//9
f 826//15 823//15 744//15
f 823//15 743//15 744//15
f 766//9 763//9 815//9
f 763//9 812//9 815//9
f 829//16 826//16 745//16
f 826//16 744//16 745//16
f 769//9 766//9 818//9
f 766//9 815//9 818//9
f 832//17 829//17 746//17
f 829//17 745//17 746//17
f 769//9 818//9 772//9
f 818//9 821//9 772//9
f 835//18 832//18 747//18
f 832//18 746//18 747//18
f 772//9 821//9 775//9
f 821//9 824//9 775//9
f 838//19 835//19 748//19
f 835//19 747//19 748//19
f 824//9 827//9 775//9
f 827//9 778//9 775//9
f 839//9 842//9 790//9
f 842//9 793//9 790//9
f 781//9 778//9 830//9
f 778//9 827//9 830//9
f 841//20 838//20 749//20
f 838//20 748//20 749//20
f 784//9 781//9 833//9
f 781//9 830//9 833//9
f 844//21 841//21 750//21
f 841//21 749//21 750//21
f 757//9 754//9 806//9
f 754//9 803//9 806//9
f 833//9 836//9 784//9
f 836//9 787//9 784//9
f 808//22 805//22 738//22
f 805//22 737//22 738//22
f 839//9 790//9 836//9
f 790//9 787//9 836//9
f 805//23 802//23 737//23
f 802//23 736//23 737//23
f 773//24 726//24 770//24
f 726//24 725//24 770//24
f 785//25 730//25 782//25
f 730//25 729//25 782//25
f 782//26 729//26 779//26
f 729//26 728//26 779//26
f 755//15 720//15 751//15
f 720//15 719//15 751//15
f 764//18 723//18 761//18
f 723//18 722//18 761//18
f 776//27 727//27 773//27
f 727//27 726//27 773//27
f 767//19 724//19 764//19
f 724//19 723//19 764//19
f 791//8 732//8 788//8
f 732//8 731//8 788//8
f 794//28 733//28 791//28
f 733//28 732//28 791//28
f 761//29 722//29 758//29
f 722//29 721//29 758//29
f 788//13 731//13 785//13
f 731//13 730//13 785//13
f 770//30 725//30 767//30
f 725//30 724//30 767//30
f 779//12 728//12 776//12
f 728//12 727//12 776//12
f 797//31 734//31 794//31
f 734//31 733//31 794//31
f 758//32 721//32 755//32
f 721//32 720//32 755//32
f 755//33 751//33 756//33
f 751//34 753//34 756//34
f 756//184 753//184 754//184
f 753//36 752//36 754//36
f 758//37 755//37 759//37
f 755//38 756//38 759//38
f 759//181 756//181 757//181
f 756//40 754//40 757//40
f 761//41 758//41 762//41
f 758//185 759//185 762//185
f 762//43 759//43 760//43
f 759//44 757//44 760//44
f 764//161 761//161 765//161
f 761//162 762//162 765//162
f 765//47 762//47 763//47
f 762//48 760//48 763//48
f 767//49 764//49 768//49
f 764//50 765//50 768//50
f 768//186 765//186 766//186
f 765//187 763//187 766//187
f 770//53 767//53 771//53
f 767//188 768//188 771//188
f 771//55 768//55 769//55
f 768//189 766//189 769//189
f 773//57 770//57 774//57
f 770//182 771//182 774//182
f 774//183 771//183 772//183
f 771//60 769//60 772//60
f 776//61 773//61 777//61
f 773//62 774//62 777//62
f 777//63 774//63 775//63
f 774//64 772//64 775//64
f 779//65 776//65 780//65
f 776//66 777//66 780//66
f 780//67 777//67 778//67
f 777//68 775//68 778//68
f 782//69 779//69 783//69
f 779//204 780//204 783//204
f 783//191 780//191 781//191
f 780//165 778//165 781//165
f 785//73 782//73 786//73
f 782//74 783//74 786//74
f 786//205 783//205 784//205
f 783//76 781//76 784//76
f 788//77 785//77 789//77
f 785//78 786//78 789//78
f 789//79 786//79 787//79
f 786//80 784//80 787//80
f 791//168 788//168 792//168
f 788//169 789//169 792//169
f 792//83 789//83 790//83
f 789//193 787//193 790//193
f 794//85 791//85 795//85
f 791//206 792//206 795//206
f 795//87 792//87 793//87
f 792//88 790//88 793//88
f 797//89 794//89 798//89
f 794//171 795//171 798//171
f 798//172 795//172 796//172
f 795//92 793//92 796//92
f 751//93 797//93 753//93
f 797//94 798//94 753//94
f 753//95 798//95 752//95
f 798//96 796//96 752//96
f 800//27 844//27 735//27
f 844//27 750//27 735//27
f 803//97 799//97 804//97
f 799//98 801//98 804//98
f 804//99 801//99 802//99
f 801//100 800//100 802//100
f 806//101 803//101 807//101
f 803//102 804//102 807//102
f 807//196 804//196 805//196
f 804//197 802//197 805//197
f 809//105 806//105 810//105
f 806//106 807//106 810//106
f 810//198 807//198 808//198
f 807//199 805//199 808//199
f 812//109 809//109 813//109
f 809//110 810//110 813//110
f 813//111 810//111 811//111
f 810//112 808//112 811//112
f 815//174 812//174 816//174
f 812//114 813//114 816//114
f 816//175 813//175 814//175
f 813//116 811//116 814//116
f 818//117 815//117 819//117
f 815//118 816//118 819//118
f 819//119 816//119 817//119
f 816//120 814//120 817//120
f 821//121 818//121 822//121
f 818//122 819//122 822//122
f 822//123 819//123 820//123
f 819//200 817//200 820//200
f 824//125 821//125 825//125
f 821//126 822//126 825//126
f 825//127 822//127 823//127
f 822//128 820//128 823//128
f 827//129 824//129 828//129
f 824//130 825//130 828//130
f 828//131 825//131 826//131
f 825//207 823//207 826//207
f 830//133 827//133 831//133
f 827//134 828//134 831//134
f 831//201 828//201 829//201
f 828//202 826//202 829//202
f 833//137 830//137 834//137
f 830//138 831//138 834//138
f 834//177 831//177 832//177
f 831//208 829//208 832//208
f 836//141 833//141 837//141
f 833//142 834//142 837//142
f 837//143 834//143 835//143
f 834//144 832//144 835//144
f 839//203 836//203 840//203
f 836//146 837//146 840//146
f 840//179 837//179 838//179
f 837//148 835//148 838//148
f 842//149 839//149 843//149
f 839//150 840//150 843//150
f 843//151 840//151 841//151
f 840//152 838//152 841//152
f 845//153 842//153 846//153
f 842//154 843//154 846//154
f 846//155 843//155 844//155
f 843//156 841//156 844//156
f 799//157 845//157 801//157
f 845//158 846//158 801//158
f 801//159 846//159 800//159
f 846//160 844//160 800//160
f 799//9 803//9 752//9
f 803//9 754//9 752//9
f 751//14 719//14 797//14
f 719//14 734//14 797//14
f 942//8 939//8 868//8
f 939//8 867//8 868//8
f 973//9 924//9 970//9
f 924//9 921//9 970//9
f 973//9 927//9 924//9
f 927//9 880//9 924//9
f 945//10 942//10 869//10
f 942//10 868//10 869//10
f 934//9 937//9 885//9
f 937//9 888//9 885//9
f 948//11 945//11 870//11
f 945//11 869//11 870//11
f 930//12 928//12 864//12
f 928//12 863//12 864//12
f 939//13 936//13 867//13
f 936//13 866//13 867//13
f 951//14 948//14 871//14
f 948//14 870//14 871//14
f 891//9 888//9 940//9
f 888//9 937//9 940//9
f 954//15 951//15 872//15
f 951//15 871//15 872//15
f 894//9 891//9 943//9
f 891//9 940//9 943//9
f 957//16 954//16 873//16
f 954//16 872//16 873//16
f 897//9 894//9 946//9
f 894//9 943//9 946//9
f 960//17 957//17 874//17
f 957//17 873//17 874//17
f 897//9 946//9 900//9
f 946//9 949//9 900//9
f 963//18 960//18 875//18
f 960//18 874//18 875//18
f 900//9 949//9 903//9
f 949//9 952//9 903//9
f 966//19 963//19 876//19
f 963//19 875//19 876//19
f 952//9 955//9 903//9
f 955//9 906//9 903//9
f 967//9 970//9 918//9
f 970//9 921//9 918//9
f 909//9 906//9 958//9
f 906//9 955//9 958//9
f 969//20 966//20 877//20
f 966//20 876//20 877//20
f 912//9 909//9 961//9
f 909//9 958//9 961//9
f 972//21 969//21 878//21
f 969//21 877//21 878//21
f 885//9 882//9 934//9
f 882//9 931//9 934//9
f 961//9 964//9 912//9
f 964//9 915//9 912//9
f 936//22 933//22 866//22
f 933//22 865//22 866//22
f 967//9 918//9 964//9
f 918//9 915//9 964//9
f 933//23 930//23 865//23
f 930//23 864//23 865//23
f 901//24 854//24 898//24
f 854//24 853//24 898//24
f 913//25 858//25 910//25
f 858//25 857//25 910//25
f 910//26 857//26 907//26
f 857//26 856//26 907//26
f 883//15 848//15 879//15
f 848//15 847//15 879//15
f 892//18 851//18 889//18
f 851//18 850//18 889//18
f 904//27 855//27 901//27
f 855//27 854//27 901//27
f 895//19 852//19 892//19
f 852//19 851//19 892//19
f 919//8 860//8 916//8
f 860//8 859//8 916//8
f 922//28 861//28 919//28
f 861//28 860//28 919//28
f 889//29 850//29 886//29
f 850//29 849//29 886//29
f 916//13 859//13 913//13
f 859//13 858//13 913//13
f 898//30 853//30 895//30
f 853//30 852//30 895//30
f 907//12 856//12 904//12
f 856//12 855//12 904//12
f 925//31 862//31 922//31
f 862//31 861//31 922//31
f 886//32 849//32 883//32
f 849//32 848//32 883//32
f 883//33 879//33 884//33
f 879//34 881//34 884//34
f 884//184 881//184 882//184
f 881//36 880//36 882//36
f 886//37 883//37 887//37
f 883//180 884//180 887//180
f 887//181 884//181 885//181
f 884//209 882//209 885//209
f 889//41 886//41 890//41
f 886//42 887//42 890//42
f 890//43 887//43 888//43
f 887//44 885//44 888//44
f 892//45 889//45 893//45
f 889//162 890//162 893//162
f 893//163 890//163 891//163
f 890//48 888//48 891//48
f 895//49 892//49 896//49
f 892//50 893//50 896//50
f 896//186 893//186 894//186
f 893//187 891//187 894//187
f 898//53 895//53 899//53
f 895//210 896//210 899//210
f 899//55 896//55 897//55
f 896//189 894//189 897//189
f 901//57 898//57 902//57
f 898//182 899//182 902//182
f 902//183 899//183 900//183
f 899//60 897//60 900//60
f 904//61 901//61 905//61
f 901//62 902//62 905//62
f 905//63 902//63 903//63
f 902//64 900//64 903//64
f 907//65 904//65 908//65
f 904//66 905//66 908//66
f 908//67 905//67 906//67
f 905//68 903//68 906//68
f 910//69 907//69 911//69
f 907//164 908//164 911//164
f 911//191 908//191 909//191
f 908//165 906//165 909//165
f 913//73 910//73 914//73
f 910//74 911//74 914//74
f 914//205 911//205 912//205
f 911//76 909//76 912//76
f 916//166 913//166 917//166
f 913//167 914//167 917//167
f 917//79 914//79 915//79
f 914//80 912//80 915//80
f 919//168 916//168 920//168
f 916//169 917//169 920//169
f 920//83 917//83 918//83
f 917//193 915//193 918//193
f 922//85 919//85 923//85
f 919//194 920//194 923//194
f 923//87 920//87 921//87
f 920//88 918//88 921//88
f 925//89 922//89 926//89
f 922//171 923//171 926//171
f 926//172 923//172 924//172
f 923//92 921//92 924//92
f 879//93 925//93 881//93
f 925//94 926//94 881//94
f 881//95 926//95 880//95
f 926//96 924//96 880//96
f 928//27 972//27 863//27
f 972//27 878//27 863//27
f 931//97 927//97 932//97
f 927//98 929//98 932//98
f 932//99 929//99 930//99
f 929//100 928//100 930//100
f 934//101 931//101 935//101
f 931//102 932//102 935//102
f 935//196 932//196 933//196
f 932//197 930//197 933//197
f 937//105 934//105 938//105
f 934//106 935//106 938//106
f 938//198 935//198 936//198
f 935//199 933//199 936//199
f 940//109 937//109 941//109
f 937//110 938//110 941//110
f 941//111 938//111 939//111
f 938//112 936//112 939//112
f 943//174 940//174 944//174
f 940//114 941//114 944//114
f 944//175 941//175 942//175
f 941//116 939//116 942//116
f 946//117 943//117 947//117
f 943//118 944//118 947//118
f 947//119 944//119 945//119
f 944//120 942//120 945//120
f 949//121 946//121 950//121
f 946//122 947//122 950//122
f 950//123 947//123 948//123
f 947//200 945//200 948//200
f 952//125 949//125 953//125
f 949//126 950//126 953//126
f 953//127 950//127 951//127
f 950//128 948//128 951//128
f 955//129 952//129 956//129
f 952//130 953//130 956//130
f 956//131 953//131 954//131
f 953//132 951//132 954//132
f 958//133 955//133 959//133
f 955//134 956//134 959//134
f 959//201 956//201 957//201
f 956//202 954//202 957//202
f 961//137 958//137 962//137
f 958//138 959//138 962//138
f 962//177 959//177 960//177
f 959//208 957//208 960//208
f 964//141 961//141 965//141
f 961//142 962//142 965//142
f 965//143 962//143 963//143
f 962//144 960//144 963//144
f 967//203 964//203 968//203
f 964//146 965//146 968//146
f 968//179 965//179 966//179
f 965//211 963//211 966//211
f 970//149 967//149 971//149
f 967//150 968//150 971//150
f 971//151 968//151 969//151
f 968//152 966//152 969//152
f 973//153 970//153 974//153
f 970//154 971//154 974//154
f 974//155 971//155 972//155
f 971//156 969//156 972//156
f 927//157 973//157 929//157
f 973//158 974//158 929//158
f 929//159 974//159 928//159
f 974//160 972//160 928//160
f 927//9 931//9 880//9
f 931//9 882//9 880//9
f 879//14 847//14 925//14
f 847//14 862//14 925//14
f 1013//24 982//24 1010//24
f 982//24 981//24 1010//24
f 1025//25 986//25 1022//25
f 986//25 985//25 1022//25
f 1022//26 985//26 1019//26
f 985//26 984//26 1019//26
f 995//15 976//15 991//15
f 976//15 975//15 991//15
f 1004//18 979//18 1001//18
f 979//18 978//18 1001//18
f 1016//27 983//27 1013//27
f 983//27 982//27 1013//27
f 1007//19 980//19 1004//19
f 980//19 979//19 1004//19
f 1031//8 988//8 1028//8
f 988//8 987//8 1028//8
f 1034//28 989//28 1031//28
f 989//28 988//28 1031//28
f 1001//29 978//29 998//29
f 978//29 977//29 998//29
f 1028//13 987//13 1025//13
f 987//13 986//13 1025//13
f 1010//30 981//30 1007//30
f 981//30 980//30 1007//30
f 1019//12 984//12 1016//12
f 984//12 983//12 1016//12
f 1037//31 990//31 1034//31
f 990//31 989//31 1034//31
f 998//32 977//32 995//32
f 977//32 976//32 995//32
f 995//33 991//33 996//33
f 991//34 993//34 996//34
f 996//184 993//184 994//184
f 993//36 992//36 994//36
f 998//37 995//37 999//37
f 995//180 996//180 999//180
f 999//181 996//181 997//181
f 996//209 994//209 997//209
f 1001//41 998//41 1002//41
f 998//42 999//42 1002//42
f 1002//43 999//43 1000//43
f 999//44 997//44 1000//44
f 1004//161 1001//161 1005//161
f 1001//162 1002//162 1005//162
f 1005//163 1002//163 1003//163
f 1002//48 1000//48 1003//48
f 1007//49 1004//49 1008//49
f 1004//50 1005//50 1008//50
f 1008//51 1005//51 1006//51
f 1005//52 1003//52 1006//52
f 1010//53 1007//53 1011//53
f 1007//54 1008//54 1011//54
f 1011//55 1008//55 1009//55
f 1008//189 1006//189 1009//189
f 1013//57 1010//57 1014//57
f 1010//182 1011//182 1014//182
f 1014//183 1011//183 1012//183
f 1011//60 1009//60 1012//60
f 1016//61 1013//61 1017//61
f 1013//62 1014//62 1017//62
f 1017//63 1014//63 1015//63
f 1014//64 1012//64 1015//64
f 1019//65 1016//65 1020//65
f 1016//66 1017//66 1020//66
f 1020//67 1017//67 1018//67
f 1017//68 1015//68 1018//68
f 1022//190 1019//190 1023//190
f 1019//70 1020//70 1023//70
f 1023//191 1020//191 1021//191
f 1020//72 1018//72 1021//72
f 1025//73 1022//73 1026//73
f 1022//74 1023//74 1026//74
f 1026//75 1023//75 1024//75
f 1023//76 1021//76 1024//76
f 1028//166 1025//166 1029//166
f 1025//167 1026//167 1029//167
f 1029//192 1026//192 1027//192
f 1026//80 1024//80 1027//80
f 1031//168 1028//168 1032//168
f 1028//82 1029//82 1032//82
f 1032//83 1029//83 1030//83
f 1029//84 1027//84 1030//84
f 1034//85 1031//85 1035//85
f 1031//194 1032//194 1035//194
f 1035//87 1032//87 1033//87
f 1032//195 1030//195 1033//195
f 1037//89 1034//89 1038//89
f 1034//171 1035//171 1038//171
f 1038//172 1035//172 1036//172
f 1035//92 1033//92 1036//92
f 991//93 1037//93 993//93
f 1037//94 1038//94 993//94
f 993//95 1038//95 992//95
f 1038//96 1036//96 992//96
f 991//14 975//14 1037//14
f 975//14 990//14 1037//14
f 1006//9 1039//9 1009//9
f 1039//9 1012//9 1009//9
f 1039//9 1042//9 1012//9
f 1042//9 1015//9 1012//9
f 1042//9 1045//9 1015//9
f 1045//9 1018//9 1015//9
f 1045//9 1024//9 1018//9
f 1024//9 1021//9 1018//9
f 1003//9 1040//9 1006//9
f 1040//9 1039//9 1006//9
f 1040//9 1043//9 1039//9
f 1043//9 1042//9 1039//9
f 1043//9 1046//9 1042//9
f 1046//9 1045//9 1042//9
f 1046//9 1027//9 1045//9
f 1027//9 1024//9 1045//9
f 1000//9 1041//9 1003//9
f 1041//9 1040//9 1003//9
f 1041//9 1044//9 1040//9
f 1044//9 1043//9 1040//9
f 1044//9 1047//9 1043//9
f 1047//9 1046//9 1043//9
f 1047//9 1030//9 1046//9
f 1030//9 1027//9 1046//9
f 997//9 994//9 1000//9
f 994//9 1041//9 1000//9
f 994//9 992//9 1041//9
f 992//9 1044//9 1041//9
f 992//9 1036//9 1044//9
f 1036//9 1047//9 1044//9
f 1036//9 1033//9 1047//9
f 1033//9 1030//9 1047//9
