# Blender 4.3.2
# www.blender.org
mtllib sidewalk6.mtl
o Part.6
v -39.959999 0.500001 7.960000
v -39.599998 0.500001 7.600000
v -39.599998 0.020001 7.600000
v -38.400002 0.020000 6.400000
v -38.400002 2.200001 6.400000
v -39.660000 3.180001 7.659999
v -39.959999 2.880001 7.960000
v -39.959999 0.499999 -7.960000
v -39.599998 0.499999 -7.600000
v -39.599998 0.019999 -7.600000
v -38.400002 0.020000 -6.400000
v -38.400002 2.200000 -6.400000
v -39.660000 3.180000 -7.660000
v -39.959999 2.879999 -7.960000
v -39.959999 0.500000 -0.000000
v -39.599998 0.500000 -0.000000
v -39.599998 0.020000 -0.000000
v -38.400002 0.020000 -0.000000
v -38.400002 2.200000 -0.000000
v -39.959999 2.880000 -0.000000
v -39.660000 3.180000 -0.000000
v -32.040001 0.500001 7.960000
v -32.400002 0.500001 7.600000
v -32.400002 0.020001 7.600000
v -33.599998 0.020000 6.400000
v -33.599998 2.200001 6.400000
v -32.340000 3.180001 7.659999
v -32.040001 2.880001 7.960000
v -36.000000 0.500001 7.960000
v -36.000000 0.500001 7.600000
v -36.000000 0.020001 7.600000
v -36.000000 0.020000 6.400000
v -36.000000 2.200001 6.400000
v -36.000000 2.880001 7.960000
v -36.000000 3.180001 7.659999
v -32.040001 0.499999 -7.960000
v -32.400002 0.499999 -7.600000
v -32.400002 0.019999 -7.600000
v -33.599998 0.020000 -6.400000
v -33.599998 2.200000 -6.400000
v -32.340000 3.180000 -7.660000
v -32.040001 2.879999 -7.960000
v -32.040001 0.500000 -0.000000
v -32.400002 0.500000 -0.000000
v -32.400002 0.020000 -0.000000
v -33.599998 0.020000 -0.000000
v -33.599998 2.200000 -0.000000
v -32.040001 2.880000 -0.000000
v -32.340000 3.180000 -0.000000
v -36.000000 0.499999 -7.960000
v -36.000000 0.499999 -7.600000
v -36.000000 0.019999 -7.600000
v -36.000000 0.020000 -6.400000
v -36.000000 2.200000 -6.400000
v -36.000000 2.879999 -7.960000
v -36.000000 3.180000 -7.660000
v -36.000000 2.200000 -0.000000
v -36.000000 3.180000 -0.000000
v -36.000000 0.500001 7.960000
v -39.959999 0.500001 7.960000
v -39.959999 0.500001 7.960000
v -39.599998 0.500000 -0.000000
v -39.599998 0.500001 7.600000
v -39.599998 0.500001 7.600000
v -39.599998 0.020001 7.600000
v -39.599998 0.020001 7.600000
v -36.000000 0.020001 7.600000
v -38.400002 0.020000 -0.000000
v -38.400002 0.020000 6.400000
v -38.400002 0.020000 6.400000
v -38.400002 2.200001 6.400000
v -38.400002 2.200001 6.400000
v -36.000000 2.200001 6.400000
v -39.660000 3.180001 7.659999
v -39.660000 3.180001 7.659999
v -39.959999 2.880001 7.960000
v -39.959999 2.880001 7.960000
v -39.959999 2.880001 7.960000
v -36.000000 3.180001 7.659999
v -39.959999 2.880000 -0.000000
v -39.959999 0.500000 -0.000000
v -39.599998 0.020000 -0.000000
v -38.400002 2.200000 -0.000000
v -39.660000 3.180000 -0.000000
v -36.000000 0.500001 7.600000
v -36.000000 0.020000 6.400000
v -36.000000 2.880001 7.960000
v -36.000000 0.499999 -7.960000
v -39.959999 0.499999 -7.960000
v -39.959999 0.499999 -7.960000
v -39.599998 0.499999 -7.600000
v -39.599998 0.499999 -7.600000
v -39.599998 0.019999 -7.600000
v -39.599998 0.019999 -7.600000
v -36.000000 0.019999 -7.600000
v -38.400002 0.020000 -6.400000
v -38.400002 0.020000 -6.400000
v -38.400002 2.200000 -6.400000
v -38.400002 2.200000 -6.400000
v -36.000000 2.200000 -6.400000
v -39.660000 3.180000 -7.660000
v -39.660000 3.180000 -7.660000
v -39.959999 2.879999 -7.960000
v -39.959999 2.879999 -7.960000
v -39.959999 2.879999 -7.960000
v -36.000000 3.180000 -7.660000
v -36.000000 0.499999 -7.600000
v -36.000000 0.020000 -6.400000
v -36.000000 2.879999 -7.960000
v -32.040001 0.500001 7.960000
v -32.040001 0.500001 7.960000
v -32.400002 0.500000 -0.000000
v -32.400002 0.500001 7.600000
v -32.400002 0.500001 7.600000
v -32.400002 0.020001 7.600000
v -32.400002 0.020001 7.600000
v -33.599998 0.020000 -0.000000
v -33.599998 0.020000 6.400000
v -33.599998 0.020000 6.400000
v -33.599998 2.200001 6.400000
v -33.599998 2.200001 6.400000
v -32.340000 3.180001 7.659999
v -32.340000 3.180001 7.659999
v -32.040001 2.880001 7.960000
v -32.040001 2.880001 7.960000
v -32.040001 2.880001 7.960000
v -32.040001 2.880000 -0.000000
v -32.040001 0.500000 -0.000000
v -32.400002 0.020000 -0.000000
v -33.599998 2.200000 -0.000000
v -32.340000 3.180000 -0.000000
v -32.040001 0.499999 -7.960000
v -32.040001 0.499999 -7.960000
v -32.400002 0.499999 -7.600000
v -32.400002 0.499999 -7.600000
v -32.400002 0.019999 -7.600000
v -32.400002 0.019999 -7.600000
v -33.599998 0.020000 -6.400000
v -33.599998 0.020000 -6.400000
v -33.599998 2.200000 -6.400000
v -33.599998 2.200000 -6.400000
v -32.340000 3.180000 -7.660000
v -32.340000 3.180000 -7.660000
v -32.040001 2.879999 -7.960000
v -32.040001 2.879999 -7.960000
v -32.040001 2.879999 -7.960000
vn -0.0000 -0.0000 1.0000
vn -0.0000 1.0000 -0.0000
vn -1.0000 -0.0000 -0.0000
vn -0.7071 0.7071 -0.0000
vn -0.0000 0.7071 0.7071
vn -0.0000 -0.0000 -1.0000
vn -0.0000 0.7071 -0.7071
vn -0.7071 -0.7071 -0.0000
s 0
usemtl MB_199
f 59//1 87//1 60//1
f 87//1 77//1 60//1
f 85//2 63//2 29//2
f 29//2 63//2 61//2
f 81//2 61//2 62//2
f 62//2 61//2 63//2
f 16//3 82//3 64//3
f 82//3 65//3 64//3
f 17//2 66//2 68//2
f 68//2 66//2 69//2
f 18//3 70//3 83//3
f 83//3 70//3 71//3
f 80//4 76//4 84//4
f 76//4 74//4 84//4
f 73//2 57//2 72//2
f 72//2 57//2 19//2
f 1//3 78//3 15//3
f 78//3 20//3 15//3
f 7//5 34//5 75//5
f 34//5 79//5 75//5
f 4//1 86//1 5//1
f 5//1 86//1 33//1
f 66//2 67//2 69//2
f 69//2 67//2 32//2
f 2//1 3//1 30//1
f 3//1 31//1 30//1
f 21//2 6//2 58//2
f 6//2 35//2 58//2
f 88//6 89//6 109//6
f 89//6 104//6 109//6
f 107//2 50//2 91//2
f 91//2 50//2 90//2
f 81//2 62//2 90//2
f 90//2 62//2 91//2
f 16//3 92//3 82//3
f 92//3 93//3 82//3
f 17//2 68//2 94//2
f 94//2 68//2 96//2
f 18//3 83//3 97//3
f 97//3 83//3 98//3
f 80//4 84//4 103//4
f 84//4 101//4 103//4
f 100//2 99//2 57//2
f 57//2 99//2 19//2
f 8//3 15//3 105//3
f 15//3 20//3 105//3
f 14//7 102//7 55//7
f 102//7 106//7 55//7
f 11//6 12//6 108//6
f 108//6 12//6 54//6
f 94//2 96//2 95//2
f 95//2 96//2 53//2
f 9//6 51//6 10//6
f 51//6 52//6 10//6
f 21//2 58//2 13//2
f 58//2 56//2 13//2
f 59//1 110//1 87//1
f 110//1 125//1 87//1
f 85//2 29//2 113//2
f 113//2 29//2 111//2
f 128//2 112//2 111//2
f 111//2 112//2 113//2
f 44//3 129//3 114//3
f 114//3 129//3 115//3
f 45//2 117//2 116//2
f 116//2 117//2 118//2
f 46//3 119//3 130//3
f 119//3 120//3 130//3
f 127//8 124//8 131//8
f 131//8 124//8 122//8
f 73//2 121//2 57//2
f 57//2 121//2 47//2
f 22//3 28//3 43//3
f 43//3 28//3 48//3
f 126//5 123//5 34//5
f 123//5 79//5 34//5
f 25//1 26//1 86//1
f 86//1 26//1 33//1
f 116//2 118//2 67//2
f 67//2 118//2 32//2
f 23//1 30//1 24//1
f 30//1 31//1 24//1
f 49//2 58//2 27//2
f 58//2 35//2 27//2
f 88//6 109//6 132//6
f 109//6 145//6 132//6
f 107//2 134//2 50//2
f 50//2 134//2 133//2
f 128//2 133//2 112//2
f 112//2 133//2 134//2
f 44//3 135//3 129//3
f 129//3 135//3 136//3
f 45//2 137//2 117//2
f 117//2 137//2 138//2
f 46//3 130//3 139//3
f 130//3 140//3 139//3
f 127//8 131//8 144//8
f 144//8 131//8 142//8
f 100//2 57//2 141//2
f 141//2 57//2 47//2
f 36//3 43//3 42//3
f 42//3 43//3 48//3
f 146//7 55//7 143//7
f 55//7 106//7 143//7
f 39//6 108//6 40//6
f 40//6 108//6 54//6
f 137//2 95//2 138//2
f 138//2 95//2 53//2
f 37//6 38//6 51//6
f 38//6 52//6 51//6
f 49//2 41//2 58//2
f 41//2 56//2 58//2
