# Blender 4.3.2
# www.blender.org
mtllib sidewalk3.mtl
o Part.3
v 8.040000 0.500001 15.960000
v 8.400000 0.500001 15.600000
v 8.400000 0.020001 15.600000
v 9.600000 0.020001 14.400000
v 9.600000 2.100001 14.400000
v 10.600000 0.500001 15.960000
v 10.600000 0.500001 15.600000
v 10.600000 0.020001 15.600000
v 10.600000 0.020001 14.400000
v 10.600000 2.100001 14.400000
v 8.340000 3.180001 15.660000
v 8.040000 2.880001 15.960000
v 10.600000 3.180001 15.660000
v 10.600000 2.880001 15.960000
v 39.959999 0.500001 15.960000
v 39.599998 0.500001 15.600000
v 39.599998 0.020001 15.600000
v 38.400002 0.020001 14.400000
v 38.400002 2.100001 14.400000
v 37.400002 0.500001 15.960000
v 37.400002 0.500001 15.600000
v 37.400002 0.020001 15.600000
v 37.400002 0.020001 14.400000
v 37.400002 2.100001 14.400000
v 24.000000 0.500001 15.960000
v 24.000000 0.020001 15.600000
v 24.000000 0.500001 15.600000
v 24.000000 0.020001 14.400000
v 39.660000 3.180001 15.660000
v 39.959999 2.880001 15.960000
v 37.400002 3.180001 15.660000
v 37.400002 2.880001 15.960000
v 24.000000 2.880001 15.960000
v 24.000000 3.180001 15.660000
v 8.040000 0.500001 8.040000
v 8.400000 0.500001 8.400000
v 8.400000 0.020001 8.400000
v 9.600000 0.020001 9.600000
v 9.600000 2.100001 9.600000
v 10.600000 0.500001 8.040000
v 10.600000 0.500001 8.400000
v 10.600000 0.020001 8.400000
v 10.600000 0.020001 9.600000
v 10.600000 2.100001 9.600000
v 8.340000 3.180001 8.340000
v 8.040000 2.880001 8.040000
v 10.600000 3.180001 8.340000
v 10.600000 2.880001 8.040000
v 8.040000 0.500001 12.000000
v 8.400000 0.500001 12.000000
v 8.400000 0.020001 12.000000
v 9.600000 0.020001 12.000000
v 9.600000 2.100001 12.000000
v 10.600000 2.100001 12.000000
v 10.600000 3.180001 12.000000
v 8.340000 3.180001 12.000000
v 8.040000 2.880001 12.000000
v 39.959999 0.500001 8.040000
v 39.599998 0.500001 8.400000
v 39.599998 0.020001 8.400000
v 38.400002 0.020001 9.600000
v 38.400002 2.100001 9.600000
v 37.400002 0.500001 8.040000
v 37.400002 0.500001 8.400000
v 37.400002 0.020001 8.400000
v 37.400002 0.020001 9.600000
v 37.400002 2.100001 9.600000
v 24.000000 0.500001 8.040000
v 24.000000 0.020001 8.400000
v 24.000000 2.100001 9.600000
v 24.000000 0.500001 8.400000
v 24.000000 0.020001 9.600000
v 39.660000 3.180001 8.340000
v 39.959999 2.880001 8.040000
v 37.400002 3.180001 8.340000
v 37.400002 2.880001 8.040000
v 24.000000 2.880001 8.040000
v 24.000000 3.180001 8.340000
v 39.959999 0.500001 12.000000
v 39.599998 0.500001 12.000000
v 39.599998 0.020001 12.000000
v 38.400002 0.020001 12.000000
v 38.400002 2.100001 12.000000
v 37.400002 2.100001 12.000000
v 37.400002 3.180001 12.000000
v 24.000000 3.180001 12.000000
v 24.000000 2.100001 12.000000
v 39.660000 3.180001 12.000000
v 39.959999 2.880001 12.000000
v 24.000000 2.100001 14.400000
v 8.040000 0.500001 12.000000
v 8.040000 0.500001 15.960000
v 8.040000 0.500001 15.960000
v 10.600000 0.500001 15.600000
v 8.400000 0.500001 15.600000
v 8.400000 0.500001 15.600000
v 8.400000 0.020001 15.600000
v 8.400000 0.020001 15.600000
v 8.400000 0.020001 12.000000
v 10.600000 0.020001 14.400000
v 9.600000 0.020001 14.400000
v 9.600000 0.020001 14.400000
v 9.600000 2.100001 14.400000
v 9.600000 2.100001 14.400000
v 9.600000 2.100001 12.000000
v 10.600000 0.500001 15.960000
v 24.000000 0.500001 15.600000
v 10.600000 0.020001 15.600000
v 24.000000 0.020001 14.400000
v 10.600000 2.100001 14.400000
v 8.400000 0.500001 12.000000
v 9.600000 0.020001 12.000000
v 24.000000 0.500001 15.960000
v 24.000000 0.020001 15.600000
v 10.600000 2.880001 15.960000
v 8.040000 2.880001 15.960000
v 8.040000 2.880001 15.960000
v 8.040000 2.880001 15.960000
v 8.340000 3.180001 15.660000
v 8.340000 3.180001 15.660000
v 10.600000 3.180001 15.660000
v 24.000000 2.880001 15.960000
v 24.000000 3.180001 15.660000
v 8.040000 2.880001 12.000000
v 8.340000 3.180001 12.000000
v 39.959999 0.500001 12.000000
v 39.959999 0.500001 15.960000
v 39.959999 0.500001 15.960000
v 37.400002 0.500001 15.600000
v 39.599998 0.500001 15.600000
v 39.599998 0.500001 15.600000
v 39.599998 0.020001 15.600000
v 39.599998 0.020001 15.600000
v 39.599998 0.020001 12.000000
v 37.400002 0.020001 14.400000
v 38.400002 0.020001 14.400000
v 38.400002 0.020001 14.400000
v 38.400002 2.100001 14.400000
v 38.400002 2.100001 14.400000
v 38.400002 2.100001 12.000000
v 37.400002 0.500001 15.960000
v 37.400002 0.020001 15.600000
v 37.400002 2.100001 14.400000
v 39.599998 0.500001 12.000000
v 38.400002 0.020001 12.000000
v 37.400002 2.880001 15.960000
v 39.959999 2.880001 15.960000
v 39.959999 2.880001 15.960000
v 39.959999 2.880001 15.960000
v 39.660000 3.180001 15.660000
v 39.660000 3.180001 15.660000
v 37.400002 3.180001 15.660000
v 39.959999 2.880001 12.000000
v 39.660000 3.180001 12.000000
v 8.040000 0.500001 8.040000
v 8.040000 0.500001 8.040000
v 10.600000 0.500001 8.400000
v 8.400000 0.500001 8.400000
v 8.400000 0.500001 8.400000
v 8.400000 0.020001 8.400000
v 8.400000 0.020001 8.400000
v 10.600000 0.020001 9.600000
v 9.600000 0.020001 9.600000
v 9.600000 0.020001 9.600000
v 9.600000 2.100001 9.600000
v 9.600000 2.100001 9.600000
v 10.600000 0.500001 8.040000
v 24.000000 0.500001 8.400000
v 10.600000 0.020001 8.400000
v 24.000000 0.020001 9.600000
v 10.600000 2.100001 9.600000
v 24.000000 0.500001 8.040000
v 24.000000 0.020001 8.400000
v 24.000000 2.100001 9.600000
v 10.600000 2.880001 8.040000
v 8.040000 2.880001 8.040000
v 8.040000 2.880001 8.040000
v 8.040000 2.880001 8.040000
v 8.340000 3.180001 8.340000
v 8.340000 3.180001 8.340000
v 10.600000 3.180001 8.340000
v 24.000000 2.880001 8.040000
v 24.000000 3.180001 8.340000
v 39.959999 0.500001 8.040000
v 39.959999 0.500001 8.040000
v 37.400002 0.500001 8.400000
v 39.599998 0.500001 8.400000
v 39.599998 0.500001 8.400000
v 39.599998 0.020001 8.400000
v 39.599998 0.020001 8.400000
v 37.400002 0.020001 9.600000
v 38.400002 0.020001 9.600000
v 38.400002 0.020001 9.600000
v 38.400002 2.100001 9.600000
v 38.400002 2.100001 9.600000
v 37.400002 0.500001 8.040000
v 37.400002 0.020001 8.400000
v 37.400002 2.100001 9.600000
v 37.400002 2.880001 8.040000
v 39.959999 2.880001 8.040000
v 39.959999 2.880001 8.040000
v 39.959999 2.880001 8.040000
v 39.660000 3.180001 8.340000
v 39.660000 3.180001 8.340000
v 37.400002 3.180001 8.340000
v 24.000000 2.100001 14.400000
v 16.000000 2.100001 10.400000
v 15.388000 2.100001 10.522000
v 14.869000 2.100001 10.869000
v 14.522000 2.100001 11.388000
v 14.400000 2.100001 12.000000
v 14.522000 2.100001 12.612000
v 14.869000 2.100001 13.131000
v 15.388000 2.100001 13.478000
v 16.000000 2.100001 13.600000
v 16.612000 2.100001 13.478000
v 17.131001 2.100001 13.131000
v 17.478001 2.100001 12.612000
v 17.600000 2.100001 12.000000
v 17.478001 2.100001 11.388000
v 17.131001 2.100001 10.869000
v 16.612000 2.100001 10.522000
v 16.000000 2.100001 11.200000
v 15.694000 2.100001 11.261000
v 15.434000 2.100001 11.434000
v 15.261000 2.100001 11.694000
v 15.200000 2.100001 12.000000
v 15.261000 2.100001 12.306000
v 15.434000 2.100001 12.566000
v 15.694000 2.100001 12.739000
v 16.000000 2.100001 12.800000
v 16.306000 2.100001 12.739000
v 16.566000 2.100001 12.566000
v 16.739000 2.100001 12.306000
v 16.799999 2.100001 12.000000
v 16.739000 2.100001 11.694000
v 16.566000 2.100001 11.434000
v 16.306000 2.100001 11.261000
v 16.000000 0.170001 10.400000
v 16.000000 0.020001 10.553000
v 16.000000 0.064001 10.445000
v 15.446000 0.020001 10.663000
v 15.388000 0.170001 10.522000
v 15.405000 0.064001 10.563000
v 14.977000 0.020001 10.977000
v 14.869000 0.170001 10.869000
v 14.900000 0.064001 10.900000
v 14.663000 0.020001 11.446000
v 14.522000 0.170001 11.388000
v 14.563000 0.064001 11.405000
v 14.553000 0.020001 12.000000
v 14.400000 0.170001 12.000000
v 14.445000 0.064001 12.000000
v 14.663000 0.020001 12.554000
v 14.522000 0.170001 12.612000
v 14.563000 0.064001 12.595000
v 14.977000 0.020001 13.023000
v 14.869000 0.170001 13.131000
v 14.900000 0.064001 13.100000
v 15.446000 0.020001 13.337000
v 15.388000 0.170001 13.478000
v 15.405000 0.064001 13.437000
v 16.000000 0.020001 13.447000
v 16.000000 0.170001 13.600000
v 16.000000 0.064001 13.555000
v 16.554001 0.020001 13.337000
v 16.612000 0.170001 13.478000
v 16.594999 0.064001 13.437000
v 17.023001 0.020001 13.023000
v 17.131001 0.170001 13.131000
v 17.100000 0.064001 13.100000
v 17.337000 0.020001 12.554000
v 17.478001 0.170001 12.612000
v 17.437000 0.064001 12.595000
v 17.447001 0.020001 12.000000
v 17.600000 0.170001 12.000000
v 17.555000 0.064001 12.000000
v 17.337000 0.020001 11.446000
v 17.478001 0.170001 11.388000
v 17.437000 0.064001 11.405000
v 17.023001 0.020001 10.977000
v 17.131001 0.170001 10.869000
v 17.100000 0.064001 10.900000
v 16.554001 0.020001 10.663000
v 16.612000 0.170001 10.522000
v 16.594999 0.064001 10.563000
v 16.000000 0.020001 11.047000
v 16.000000 0.170001 11.200000
v 16.000000 0.064001 11.155000
v 15.694000 0.170001 11.261000
v 15.635000 0.020001 11.120000
v 15.677000 0.064001 11.220000
v 15.434000 0.170001 11.434000
v 15.326000 0.020001 11.326000
v 15.403000 0.064001 11.403000
v 15.261000 0.170001 11.694000
v 15.120000 0.020001 11.635000
v 15.220000 0.064001 11.677000
v 15.200000 0.170001 12.000000
v 15.047000 0.020001 12.000000
v 15.155000 0.064001 12.000000
v 15.261000 0.170001 12.306000
v 15.120000 0.020001 12.365000
v 15.220000 0.064001 12.323000
v 15.434000 0.170001 12.566000
v 15.326000 0.020001 12.674000
v 15.403000 0.064001 12.597000
v 15.694000 0.170001 12.739000
v 15.635000 0.020001 12.880000
v 15.677000 0.064001 12.780000
v 16.000000 0.170001 12.800000
v 16.000000 0.020001 12.953000
v 16.000000 0.064001 12.845000
v 16.306000 0.170001 12.739000
v 16.365000 0.020001 12.880000
v 16.323000 0.064001 12.780000
v 16.566000 0.170001 12.566000
v 16.674000 0.020001 12.674000
v 16.597000 0.064001 12.597000
v 16.739000 0.170001 12.306000
v 16.879999 0.020001 12.365000
v 16.780001 0.064001 12.323000
v 16.799999 0.170001 12.000000
v 16.952999 0.020001 12.000000
v 16.844999 0.064001 12.000000
v 16.739000 0.170001 11.694000
v 16.879999 0.020001 11.635000
v 16.780001 0.064001 11.677000
v 16.566000 0.170001 11.434000
v 16.674000 0.020001 11.326000
v 16.597000 0.064001 11.403000
v 16.306000 0.170001 11.261000
v 16.365000 0.020001 11.120000
v 16.323000 0.064001 11.220000
v 24.000000 2.100001 10.400000
v 23.388000 2.100001 10.522000
v 22.868999 2.100001 10.869000
v 22.521999 2.100001 11.388000
v 22.400000 2.100001 12.000000
v 22.521999 2.100001 12.612000
v 22.868999 2.100001 13.131000
v 23.388000 2.100001 13.478000
v 24.000000 2.100001 13.600000
v 24.612000 2.100001 13.478000
v 25.131001 2.100001 13.131000
v 25.478001 2.100001 12.612000
v 25.600000 2.100001 12.000000
v 25.478001 2.100001 11.388000
v 25.131001 2.100001 10.869000
v 24.612000 2.100001 10.522000
v 24.000000 2.100001 11.200000
v 23.694000 2.100001 11.261000
v 23.434000 2.100001 11.434000
v 23.261000 2.100001 11.694000
v 23.200001 2.100001 12.000000
v 23.261000 2.100001 12.306000
v 23.434000 2.100001 12.566000
v 23.694000 2.100001 12.739000
v 24.000000 2.100001 12.800000
v 24.306000 2.100001 12.739000
v 24.566000 2.100001 12.566000
v 24.739000 2.100001 12.306000
v 24.799999 2.100001 12.000000
v 24.739000 2.100001 11.694000
v 24.566000 2.100001 11.434000
v 24.306000 2.100001 11.261000
v 24.000000 0.170001 10.400000
v 24.000000 0.020001 10.553000
v 24.000000 0.064001 10.445000
v 23.445999 0.020001 10.663000
v 23.388000 0.170001 10.522000
v 23.405001 0.064001 10.563000
v 22.976999 0.020001 10.977000
v 22.868999 0.170001 10.869000
v 22.900000 0.064001 10.900000
v 22.663000 0.020001 11.446000
v 22.521999 0.170001 11.388000
v 22.563000 0.064001 11.405000
v 22.552999 0.020001 12.000000
v 22.400000 0.170001 12.000000
v 22.445000 0.064001 12.000000
v 22.663000 0.020001 12.554000
v 22.521999 0.170001 12.612000
v 22.563000 0.064001 12.595000
v 22.976999 0.020001 13.023000
v 22.868999 0.170001 13.131000
v 22.900000 0.064001 13.100000
v 23.445999 0.020001 13.337000
v 23.388000 0.170001 13.478000
v 23.405001 0.064001 13.437000
v 24.000000 0.020001 13.447000
v 24.000000 0.170001 13.600000
v 24.000000 0.064001 13.555000
v 24.554001 0.020001 13.337000
v 24.612000 0.170001 13.478000
v 24.594999 0.064001 13.437000
v 25.023001 0.020001 13.023000
v 25.131001 0.170001 13.131000
v 25.100000 0.064001 13.100000
v 25.337000 0.020001 12.554000
v 25.478001 0.170001 12.612000
v 25.437000 0.064001 12.595000
v 25.447001 0.020001 12.000000
v 25.600000 0.170001 12.000000
v 25.555000 0.064001 12.000000
v 25.337000 0.020001 11.446000
v 25.478001 0.170001 11.388000
v 25.437000 0.064001 11.405000
v 25.023001 0.020001 10.977000
v 25.131001 0.170001 10.869000
v 25.100000 0.064001 10.900000
v 24.554001 0.020001 10.663000
v 24.612000 0.170001 10.522000
v 24.594999 0.064001 10.563000
v 24.000000 0.020001 11.047000
v 24.000000 0.170001 11.200000
v 24.000000 0.064001 11.155000
v 23.694000 0.170001 11.261000
v 23.635000 0.020001 11.120000
v 23.677000 0.064001 11.220000
v 23.434000 0.170001 11.434000
v 23.326000 0.020001 11.326000
v 23.403000 0.064001 11.403000
v 23.261000 0.170001 11.694000
v 23.120001 0.020001 11.635000
v 23.219999 0.064001 11.677000
v 23.200001 0.170001 12.000000
v 23.047001 0.020001 12.000000
v 23.155001 0.064001 12.000000
v 23.261000 0.170001 12.306000
v 23.120001 0.020001 12.365000
v 23.219999 0.064001 12.323000
v 23.434000 0.170001 12.566000
v 23.326000 0.020001 12.674000
v 23.403000 0.064001 12.597000
v 23.694000 0.170001 12.739000
v 23.635000 0.020001 12.880000
v 23.677000 0.064001 12.780000
v 24.000000 0.170001 12.800000
v 24.000000 0.020001 12.953000
v 24.000000 0.064001 12.845000
v 24.306000 0.170001 12.739000
v 24.365000 0.020001 12.880000
v 24.323000 0.064001 12.780000
v 24.566000 0.170001 12.566000
v 24.674000 0.020001 12.674000
v 24.597000 0.064001 12.597000
v 24.739000 0.170001 12.306000
v 24.879999 0.020001 12.365000
v 24.780001 0.064001 12.323000
v 24.799999 0.170001 12.000000
v 24.952999 0.020001 12.000000
v 24.844999 0.064001 12.000000
v 24.739000 0.170001 11.694000
v 24.879999 0.020001 11.635000
v 24.780001 0.064001 11.677000
v 24.566000 0.170001 11.434000
v 24.674000 0.020001 11.326000
v 24.597000 0.064001 11.403000
v 24.306000 0.170001 11.261000
v 24.365000 0.020001 11.120000
v 24.323000 0.064001 11.220000
v 32.000000 2.100001 10.400000
v 31.388000 2.100001 10.522000
v 30.868999 2.100001 10.869000
v 30.521999 2.100001 11.388000
v 30.400000 2.100001 12.000000
v 30.521999 2.100001 12.612000
v 30.868999 2.100001 13.131000
v 31.388000 2.100001 13.478000
v 32.000000 2.100001 13.600000
v 32.612000 2.100001 13.478000
v 33.131001 2.100001 13.131000
v 33.478001 2.100001 12.612000
v 33.599998 2.100001 12.000000
v 33.478001 2.100001 11.388000
v 33.131001 2.100001 10.869000
v 32.612000 2.100001 10.522000
v 32.000000 2.100001 11.200000
v 31.694000 2.100001 11.261000
v 31.434000 2.100001 11.434000
v 31.261000 2.100001 11.694000
v 31.200001 2.100001 12.000000
v 31.261000 2.100001 12.306000
v 31.434000 2.100001 12.566000
v 31.694000 2.100001 12.739000
v 32.000000 2.100001 12.800000
v 32.306000 2.100001 12.739000
v 32.566002 2.100001 12.566000
v 32.738998 2.100001 12.306000
v 32.799999 2.100001 12.000000
v 32.738998 2.100001 11.694000
v 32.566002 2.100001 11.434000
v 32.306000 2.100001 11.261000
v 32.000000 0.170001 10.400000
v 32.000000 0.020001 10.553000
v 32.000000 0.064001 10.445000
v 31.445999 0.020001 10.663000
v 31.388000 0.170001 10.522000
v 31.405001 0.064001 10.563000
v 30.976999 0.020001 10.977000
v 30.868999 0.170001 10.869000
v 30.900000 0.064001 10.900000
v 30.663000 0.020001 11.446000
v 30.521999 0.170001 11.388000
v 30.563000 0.064001 11.405000
v 30.552999 0.020001 12.000000
v 30.400000 0.170001 12.000000
v 30.445000 0.064001 12.000000
v 30.663000 0.020001 12.554000
v 30.521999 0.170001 12.612000
v 30.563000 0.064001 12.595000
v 30.976999 0.020001 13.023000
v 30.868999 0.170001 13.131000
v 30.900000 0.064001 13.100000
v 31.445999 0.020001 13.337000
v 31.388000 0.170001 13.478000
v 31.405001 0.064001 13.437000
v 32.000000 0.020001 13.447000
v 32.000000 0.170001 13.600000
v 32.000000 0.064001 13.555000
v 32.554001 0.020001 13.337000
v 32.612000 0.170001 13.478000
v 32.595001 0.064001 13.437000
v 33.022999 0.020001 13.023000
v 33.131001 0.170001 13.131000
v 33.099998 0.064001 13.100000
v 33.337002 0.020001 12.554000
v 33.478001 0.170001 12.612000
v 33.437000 0.064001 12.595000
v 33.446999 0.020001 12.000000
v 33.599998 0.170001 12.000000
v 33.555000 0.064001 12.000000
v 33.337002 0.020001 11.446000
v 33.478001 0.170001 11.388000
v 33.437000 0.064001 11.405000
v 33.022999 0.020001 10.977000
v 33.131001 0.170001 10.869000
v 33.099998 0.064001 10.900000
v 32.554001 0.020001 10.663000
v 32.612000 0.170001 10.522000
v 32.595001 0.064001 10.563000
v 32.000000 0.020001 11.047000
v 32.000000 0.170001 11.200000
v 32.000000 0.064001 11.155000
v 31.694000 0.170001 11.261000
v 31.635000 0.020001 11.120000
v 31.677000 0.064001 11.220000
v 31.434000 0.170001 11.434000
v 31.326000 0.020001 11.326000
v 31.403000 0.064001 11.403000
v 31.261000 0.170001 11.694000
v 31.120001 0.020001 11.635000
v 31.219999 0.064001 11.677000
v 31.200001 0.170001 12.000000
v 31.047001 0.020001 12.000000
v 31.155001 0.064001 12.000000
v 31.261000 0.170001 12.306000
v 31.120001 0.020001 12.365000
v 31.219999 0.064001 12.323000
v 31.434000 0.170001 12.566000
v 31.326000 0.020001 12.674000
v 31.403000 0.064001 12.597000
v 31.694000 0.170001 12.739000
v 31.635000 0.020001 12.880000
v 31.677000 0.064001 12.780000
v 32.000000 0.170001 12.800000
v 32.000000 0.020001 12.953000
v 32.000000 0.064001 12.845000
v 32.306000 0.170001 12.739000
v 32.365002 0.020001 12.880000
v 32.323002 0.064001 12.780000
v 32.566002 0.170001 12.566000
v 32.674000 0.020001 12.674000
v 32.597000 0.064001 12.597000
v 32.738998 0.170001 12.306000
v 32.880001 0.020001 12.365000
v 32.779999 0.064001 12.323000
v 32.799999 0.170001 12.000000
v 32.952999 0.020001 12.000000
v 32.845001 0.064001 12.000000
v 32.738998 0.170001 11.694000
v 32.880001 0.020001 11.635000
v 32.779999 0.064001 11.677000
v 32.566002 0.170001 11.434000
v 32.674000 0.020001 11.326000
v 32.597000 0.064001 11.403000
v 32.306000 0.170001 11.261000
v 32.365002 0.020001 11.120000
v 32.323002 0.064001 11.220000
vn -0.0000 -0.0000 1.0000
vn -0.0000 1.0000 -0.0000
vn 1.0000 -0.0000 -0.0000
vn -0.0000 0.7071 0.7071
vn 0.7071 -0.7071 -0.0000
vn 0.7071 0.7071 -0.0000
vn -0.0000 -0.7071 0.7071
vn 0.9807 -0.0000 -0.1955
vn -0.0000 -1.0000 -0.0000
vn 0.8325 -0.0000 -0.5540
vn 0.5540 -0.0000 -0.8325
vn 0.1955 -0.0000 0.9807
vn 0.9807 -0.0000 0.1955
vn 0.1955 -0.0000 -0.9807
vn -0.1955 -0.0000 -0.9807
vn -0.5540 -0.0000 -0.8325
vn -0.8325 -0.0000 -0.5540
vn -0.9807 -0.0000 -0.1955
vn -0.9807 -0.0000 0.1955
vn -0.8325 -0.0000 0.5540
vn -0.5540 -0.0000 0.8325
vn 0.8325 -0.0000 0.5540
vn 0.5540 -0.0000 0.8325
vn -0.5558 -0.0000 0.8313
vn 0.8313 -0.0000 0.5558
vn 0.5558 -0.0000 0.8313
vn -0.1955 -0.0000 0.9807
vn 0.8313 -0.0000 -0.5558
vn -0.8313 -0.0000 -0.5558
vn -0.8313 -0.0000 0.5558
vn 0.5558 -0.0000 -0.8313
vn -0.5558 -0.0000 -0.8313
vn -0.1808 -0.3799 -0.9072
vn -0.1796 -0.3844 -0.9055
vn -0.0745 -0.9237 -0.3759
vn -0.0747 -0.9235 -0.3762
vn -0.5150 -0.3759 -0.7703
vn -0.5135 -0.3800 -0.7694
vn -0.2115 -0.9246 -0.3169
vn -0.2134 -0.9235 -0.3188
vn -0.7690 -0.3799 -0.5141
vn -0.7708 -0.3759 -0.5144
vn -0.3190 -0.9235 -0.2129
vn -0.3165 -0.9246 -0.2119
vn -0.9054 -0.3844 -0.1805
vn -0.9074 -0.3798 -0.1800
vn -0.3762 -0.9235 -0.0746
vn -0.3758 -0.9237 -0.0746
vn -0.9072 -0.3799 0.1808
vn -0.9055 -0.3844 0.1796
vn -0.3759 -0.9237 0.0745
vn -0.3762 -0.9235 0.0747
vn -0.7703 -0.3759 0.5150
vn -0.7694 -0.3799 0.5135
vn -0.3169 -0.9246 0.2115
vn -0.3188 -0.9235 0.2135
vn -0.5141 -0.3799 0.7690
vn -0.5144 -0.3759 0.7708
vn -0.2129 -0.9235 0.3191
vn -0.2119 -0.9246 0.3165
vn -0.1805 -0.3844 0.9054
vn -0.1800 -0.3798 0.9074
vn -0.0746 -0.9235 0.3762
vn -0.0746 -0.9237 0.3758
vn 0.1808 -0.3799 0.9072
vn 0.1796 -0.3844 0.9055
vn 0.0745 -0.9237 0.3759
vn 0.0747 -0.9235 0.3762
vn 0.5150 -0.3759 0.7703
vn 0.5135 -0.3799 0.7694
vn 0.2115 -0.9246 0.3169
vn 0.2135 -0.9235 0.3188
vn 0.7690 -0.3799 0.5141
vn 0.7708 -0.3758 0.5144
vn 0.3190 -0.9235 0.2129
vn 0.3165 -0.9246 0.2119
vn 0.9054 -0.3844 0.1805
vn 0.9074 -0.3798 0.1800
vn 0.3763 -0.9235 0.0746
vn 0.3758 -0.9237 0.0746
vn 0.9072 -0.3799 -0.1808
vn 0.9055 -0.3844 -0.1796
vn 0.3759 -0.9237 -0.0745
vn 0.3762 -0.9235 -0.0747
vn 0.7703 -0.3759 -0.5150
vn 0.7694 -0.3799 -0.5135
vn 0.3169 -0.9246 -0.2115
vn 0.3188 -0.9235 -0.2135
vn 0.5141 -0.3799 -0.7690
vn 0.5144 -0.3758 -0.7708
vn 0.2129 -0.9235 -0.3191
vn 0.2119 -0.9246 -0.3165
vn 0.1805 -0.3844 -0.9054
vn 0.1800 -0.3798 -0.9074
vn 0.0746 -0.9235 -0.3762
vn 0.0746 -0.9237 -0.3758
vn 0.0750 -0.9240 0.3750
vn 0.0757 -0.9234 0.3762
vn 0.1825 -0.3800 0.9068
vn 0.1805 -0.3844 0.9054
vn 0.2113 -0.9246 0.3170
vn 0.2121 -0.9242 0.3176
vn 0.5147 -0.3759 0.7706
vn 0.5124 -0.3800 0.7701
vn 0.3177 -0.9242 0.2118
vn 0.3168 -0.9246 0.2116
vn 0.7692 -0.3799 0.5138
vn 0.7715 -0.3758 0.5134
vn 0.3762 -0.9235 0.0752
vn 0.3749 -0.9240 0.0754
vn 0.9051 -0.3842 0.1821
vn 0.9072 -0.3799 0.1808
vn 0.3750 -0.9240 -0.0750
vn 0.3762 -0.9234 -0.0757
vn 0.9068 -0.3800 -0.1825
vn 0.9054 -0.3843 -0.1805
vn 0.3170 -0.9246 -0.2113
vn 0.3176 -0.9242 -0.2121
vn 0.7706 -0.3759 -0.5147
vn 0.7701 -0.3800 -0.5124
vn 0.2118 -0.9242 -0.3177
vn 0.2116 -0.9246 -0.3168
vn 0.5138 -0.3799 -0.7692
vn 0.5134 -0.3758 -0.7715
vn 0.0752 -0.9235 -0.3762
vn 0.0754 -0.9240 -0.3749
vn 0.1821 -0.3842 -0.9051
vn 0.1808 -0.3799 -0.9072
vn -0.0750 -0.9240 -0.3750
vn -0.0757 -0.9234 -0.3762
vn -0.1825 -0.3800 -0.9068
vn -0.1805 -0.3844 -0.9054
vn -0.2113 -0.9246 -0.3170
vn -0.2121 -0.9242 -0.3176
vn -0.5147 -0.3759 -0.7706
vn -0.5124 -0.3800 -0.7701
vn -0.3177 -0.9242 -0.2118
vn -0.3168 -0.9246 -0.2116
vn -0.7692 -0.3800 -0.5137
vn -0.7715 -0.3757 -0.5134
vn -0.3762 -0.9235 -0.0752
vn -0.3749 -0.9240 -0.0754
vn -0.9051 -0.3842 -0.1821
vn -0.9072 -0.3799 -0.1808
vn -0.3750 -0.9240 0.0750
vn -0.3762 -0.9234 0.0757
vn -0.9068 -0.3800 0.1825
vn -0.9054 -0.3843 0.1805
vn -0.3170 -0.9246 0.2113
vn -0.3176 -0.9242 0.2121
vn -0.7706 -0.3759 0.5147
vn -0.7701 -0.3800 0.5124
vn -0.2118 -0.9242 0.3177
vn -0.2116 -0.9246 0.3168
vn -0.5138 -0.3799 0.7692
vn -0.5134 -0.3758 0.7715
vn -0.0752 -0.9235 0.3762
vn -0.0754 -0.9240 0.3749
vn -0.1821 -0.3842 0.9051
vn -0.1808 -0.3799 0.9072
vn -0.5135 -0.3799 -0.7694
vn -0.2135 -0.9235 -0.3188
vn -0.7708 -0.3758 -0.5144
vn -0.3763 -0.9235 -0.0746
vn -0.5144 -0.3758 0.7708
vn 0.7692 -0.3800 0.5138
vn 0.7715 -0.3757 0.5134
vn -0.9051 -0.3843 -0.1821
vn -0.3191 -0.9235 -0.2129
vn -0.3758 -0.9237 0.0745
vn -0.3763 -0.9235 0.0747
vn 0.5135 -0.3800 0.7694
vn 0.2134 -0.9235 0.3188
vn 0.9054 -0.3843 0.1805
vn 0.3762 -0.9235 0.0746
vn 0.3758 -0.9237 -0.0745
vn 0.3763 -0.9235 -0.0747
vn 0.7703 -0.3759 -0.5151
vn 0.7694 -0.3800 -0.5134
vn 0.9051 -0.3843 0.1821
vn -0.5147 -0.3758 -0.7706
vn -0.5124 -0.3801 -0.7701
vn -0.7692 -0.3799 -0.5137
vn -0.7715 -0.3758 -0.5134
s 0
usemtl MB_199
f 6//1 25//1 14//1
f 25//1 33//1 14//1
f 111//2 91//2 95//2
f 95//2 91//2 92//2
f 106//2 94//2 92//2
f 92//2 94//2 95//2
f 7//1 96//1 108//1
f 96//1 97//1 108//1
f 8//2 100//2 98//2
f 98//2 100//2 101//2
f 9//1 110//1 102//1
f 102//1 110//1 103//1
f 105//2 104//2 54//2
f 54//2 104//2 10//2
f 28//1 206//1 9//1
f 9//1 206//1 110//1
f 26//2 109//2 8//2
f 8//2 109//2 100//2
f 27//1 7//1 114//1
f 7//1 108//1 114//1
f 113//2 107//2 106//2
f 106//2 107//2 94//2
f 13//2 55//2 120//2
f 55//2 56//2 120//2
f 4//3 112//3 5//3
f 112//3 53//3 5//3
f 98//2 101//2 99//2
f 99//2 101//2 52//2
f 2//3 3//3 50//3
f 50//3 3//3 51//3
f 49//3 124//3 93//3
f 93//3 124//3 117//3
f 54//2 10//2 87//2
f 87//2 10//2 90//2
f 34//2 86//2 13//2
f 86//2 55//2 13//2
f 115//4 121//4 116//4
f 121//4 119//4 116//4
f 122//4 123//4 115//4
f 123//4 121//4 115//4
f 12//5 57//5 11//5
f 11//5 57//5 125//5
f 1//1 6//1 118//1
f 6//1 14//1 118//1
f 20//1 32//1 25//1
f 32//1 33//1 25//1
f 144//2 130//2 126//2
f 126//2 130//2 127//2
f 141//2 127//2 129//2
f 129//2 127//2 130//2
f 21//1 142//1 131//1
f 142//1 132//1 131//1
f 22//2 133//2 135//2
f 135//2 133//2 136//2
f 23//1 137//1 143//1
f 143//1 137//1 138//1
f 140//2 84//2 139//2
f 139//2 84//2 24//2
f 28//1 23//1 206//1
f 206//1 23//1 143//1
f 26//2 22//2 109//2
f 109//2 22//2 135//2
f 27//1 114//1 21//1
f 114//1 142//1 21//1
f 113//2 141//2 107//2
f 107//2 141//2 129//2
f 31//2 151//2 85//2
f 151//2 88//2 85//2
f 18//3 145//3 19//3
f 19//3 145//3 83//3
f 133//2 134//2 136//2
f 136//2 134//2 82//2
f 16//3 17//3 80//3
f 17//3 81//3 80//3
f 79//3 153//3 128//3
f 153//3 148//3 128//3
f 84//2 87//2 24//2
f 24//2 87//2 90//2
f 34//2 31//2 86//2
f 31//2 85//2 86//2
f 146//4 147//4 152//4
f 147//4 150//4 152//4
f 122//4 146//4 123//4
f 146//4 152//4 123//4
f 30//6 89//6 29//6
f 89//6 154//6 29//6
f 15//1 149//1 20//1
f 149//1 32//1 20//1
f 40//1 68//1 48//1
f 48//1 68//1 77//1
f 111//2 158//2 91//2
f 91//2 158//2 155//2
f 167//2 155//2 157//2
f 157//2 155//2 158//2
f 41//1 159//1 169//1
f 169//1 159//1 160//1
f 42//2 161//2 162//2
f 162//2 161//2 163//2
f 43//1 171//1 164//1
f 171//1 165//1 164//1
f 105//2 54//2 166//2
f 166//2 54//2 44//2
f 72//1 174//1 43//1
f 174//1 171//1 43//1
f 69//2 42//2 170//2
f 170//2 42//2 162//2
f 71//1 41//1 173//1
f 173//1 41//1 169//1
f 172//2 167//2 168//2
f 168//2 167//2 157//2
f 47//2 180//2 55//2
f 180//2 56//2 55//2
f 38//3 39//3 112//3
f 39//3 53//3 112//3
f 161//2 99//2 163//2
f 163//2 99//2 52//2
f 36//3 50//3 37//3
f 37//3 50//3 51//3
f 49//3 156//3 124//3
f 124//3 156//3 177//3
f 54//2 87//2 44//2
f 44//2 87//2 70//2
f 78//2 47//2 86//2
f 47//2 55//2 86//2
f 175//7 181//7 176//7
f 176//7 181//7 179//7
f 182//7 183//7 175//7
f 175//7 183//7 181//7
f 178//5 45//5 57//5
f 57//5 45//5 125//5
f 35//1 40//1 46//1
f 46//1 40//1 48//1
f 63//1 76//1 68//1
f 68//1 76//1 77//1
f 144//2 126//2 187//2
f 187//2 126//2 184//2
f 196//2 186//2 184//2
f 184//2 186//2 187//2
f 64//1 197//1 188//1
f 188//1 197//1 189//1
f 65//2 191//2 190//2
f 190//2 191//2 192//2
f 66//1 193//1 198//1
f 193//1 194//1 198//1
f 140//2 195//2 84//2
f 84//2 195//2 67//2
f 72//1 66//1 174//1
f 66//1 198//1 174//1
f 69//2 170//2 65//2
f 65//2 170//2 191//2
f 71//1 173//1 64//1
f 64//1 173//1 197//1
f 172//2 168//2 196//2
f 196//2 168//2 186//2
f 75//2 85//2 204//2
f 85//2 88//2 204//2
f 61//3 62//3 145//3
f 145//3 62//3 83//3
f 190//2 192//2 134//2
f 134//2 192//2 82//2
f 59//3 80//3 60//3
f 80//3 81//3 60//3
f 79//3 185//3 153//3
f 185//3 201//3 153//3
f 84//2 67//2 87//2
f 87//2 67//2 70//2
f 78//2 86//2 75//2
f 86//2 85//2 75//2
f 199//7 200//7 205//7
f 205//7 200//7 203//7
f 182//7 199//7 183//7
f 183//7 199//7 205//7
f 202//6 73//6 89//6
f 73//6 154//6 89//6
f 58//1 74//1 63//1
f 63//1 74//1 76//1
f 302//8 299//8 228//8
f 299//8 227//8 228//8
f 333//9 284//9 330//9
f 284//9 281//9 330//9
f 333//9 287//9 284//9
f 287//9 240//9 284//9
f 305//10 302//10 229//10
f 302//10 228//10 229//10
f 294//9 297//9 245//9
f 297//9 248//9 245//9
f 308//11 305//11 230//11
f 305//11 229//11 230//11
f 290//12 288//12 224//12
f 288//12 223//12 224//12
f 299//13 296//13 227//13
f 296//13 226//13 227//13
f 311//14 308//14 231//14
f 308//14 230//14 231//14
f 251//9 248//9 300//9
f 248//9 297//9 300//9
f 314//15 311//15 232//15
f 311//15 231//15 232//15
f 254//9 251//9 303//9
f 251//9 300//9 303//9
f 317//16 314//16 233//16
f 314//16 232//16 233//16
f 257//9 254//9 306//9
f 254//9 303//9 306//9
f 320//17 317//17 234//17
f 317//17 233//17 234//17
f 257//9 306//9 260//9
f 306//9 309//9 260//9
f 323//18 320//18 235//18
f 320//18 234//18 235//18
f 260//9 309//9 263//9
f 309//9 312//9 263//9
f 326//19 323//19 236//19
f 323//19 235//19 236//19
f 312//9 315//9 263//9
f 315//9 266//9 263//9
f 327//9 330//9 278//9
f 330//9 281//9 278//9
f 269//9 266//9 318//9
f 266//9 315//9 318//9
f 329//20 326//20 237//20
f 326//20 236//20 237//20
f 272//9 269//9 321//9
f 269//9 318//9 321//9
f 332//21 329//21 238//21
f 329//21 237//21 238//21
f 245//9 242//9 294//9
f 242//9 291//9 294//9
f 321//9 324//9 272//9
f 324//9 275//9 272//9
f 296//22 293//22 226//22
f 293//22 225//22 226//22
f 327//9 278//9 324//9
f 278//9 275//9 324//9
f 293//23 290//23 225//23
f 290//23 224//23 225//23
f 261//24 214//24 258//24
f 214//24 213//24 258//24
f 273//25 218//25 270//25
f 218//25 217//25 270//25
f 270//26 217//26 267//26
f 217//26 216//26 267//26
f 243//15 208//15 239//15
f 208//15 207//15 239//15
f 252//18 211//18 249//18
f 211//18 210//18 249//18
f 264//27 215//27 261//27
f 215//27 214//27 261//27
f 255//19 212//19 252//19
f 212//19 211//19 252//19
f 279//8 220//8 276//8
f 220//8 219//8 276//8
f 282//28 221//28 279//28
f 221//28 220//28 279//28
f 249//29 210//29 246//29
f 210//29 209//29 246//29
f 276//13 219//13 273//13
f 219//13 218//13 273//13
f 258//30 213//30 255//30
f 213//30 212//30 255//30
f 267//12 216//12 264//12
f 216//12 215//12 264//12
f 285//31 222//31 282//31
f 222//31 221//31 282//31
f 246//32 209//32 243//32
f 209//32 208//32 243//32
f 243//33 239//33 244//33
f 239//34 241//34 244//34
f 244//35 241//35 242//35
f 241//36 240//36 242//36
f 246//37 243//37 247//37
f 243//38 244//38 247//38
f 247//39 244//39 245//39
f 244//40 242//40 245//40
f 249//41 246//41 250//41
f 246//42 247//42 250//42
f 250//43 247//43 248//43
f 247//44 245//44 248//44
f 252//45 249//45 253//45
f 249//46 250//46 253//46
f 253//47 250//47 251//47
f 250//48 248//48 251//48
f 255//49 252//49 256//49
f 252//50 253//50 256//50
f 256//51 253//51 254//51
f 253//52 251//52 254//52
f 258//53 255//53 259//53
f 255//54 256//54 259//54
f 259//55 256//55 257//55
f 256//56 254//56 257//56
f 261//57 258//57 262//57
f 258//58 259//58 262//58
f 262//59 259//59 260//59
f 259//60 257//60 260//60
f 264//61 261//61 265//61
f 261//62 262//62 265//62
f 265//63 262//63 263//63
f 262//64 260//64 263//64
f 267//65 264//65 268//65
f 264//66 265//66 268//66
f 268//67 265//67 266//67
f 265//68 263//68 266//68
f 270//69 267//69 271//69
f 267//70 268//70 271//70
f 271//71 268//71 269//71
f 268//72 266//72 269//72
f 273//73 270//73 274//73
f 270//74 271//74 274//74
f 274//75 271//75 272//75
f 271//76 269//76 272//76
f 276//77 273//77 277//77
f 273//78 274//78 277//78
f 277//79 274//79 275//79
f 274//80 272//80 275//80
f 279//81 276//81 280//81
f 276//82 277//82 280//82
f 280//83 277//83 278//83
f 277//84 275//84 278//84
f 282//85 279//85 283//85
f 279//86 280//86 283//86
f 283//87 280//87 281//87
f 280//88 278//88 281//88
f 285//89 282//89 286//89
f 282//90 283//90 286//90
f 286//91 283//91 284//91
f 283//92 281//92 284//92
f 239//93 285//93 241//93
f 285//94 286//94 241//94
f 241//95 286//95 240//95
f 286//96 284//96 240//96
f 288//27 332//27 223//27
f 332//27 238//27 223//27
f 291//97 287//97 292//97
f 287//98 289//98 292//98
f 292//99 289//99 290//99
f 289//100 288//100 290//100
f 294//101 291//101 295//101
f 291//102 292//102 295//102
f 295//103 292//103 293//103
f 292//104 290//104 293//104
f 297//105 294//105 298//105
f 294//106 295//106 298//106
f 298//107 295//107 296//107
f 295//108 293//108 296//108
f 300//109 297//109 301//109
f 297//110 298//110 301//110
f 301//111 298//111 299//111
f 298//112 296//112 299//112
f 303//113 300//113 304//113
f 300//114 301//114 304//114
f 304//115 301//115 302//115
f 301//116 299//116 302//116
f 306//117 303//117 307//117
f 303//118 304//118 307//118
f 307//119 304//119 305//119
f 304//120 302//120 305//120
f 309//121 306//121 310//121
f 306//122 307//122 310//122
f 310//123 307//123 308//123
f 307//124 305//124 308//124
f 312//125 309//125 313//125
f 309//126 310//126 313//126
f 313//127 310//127 311//127
f 310//128 308//128 311//128
f 315//129 312//129 316//129
f 312//130 313//130 316//130
f 316//131 313//131 314//131
f 313//132 311//132 314//132
f 318//133 315//133 319//133
f 315//134 316//134 319//134
f 319//135 316//135 317//135
f 316//136 314//136 317//136
f 321//137 318//137 322//137
f 318//138 319//138 322//138
f 322//139 319//139 320//139
f 319//140 317//140 320//140
f 324//141 321//141 325//141
f 321//142 322//142 325//142
f 325//143 322//143 323//143
f 322//144 320//144 323//144
f 327//145 324//145 328//145
f 324//146 325//146 328//146
f 328//147 325//147 326//147
f 325//148 323//148 326//148
f 330//149 327//149 331//149
f 327//150 328//150 331//150
f 331//151 328//151 329//151
f 328//152 326//152 329//152
f 333//153 330//153 334//153
f 330//154 331//154 334//154
f 334//155 331//155 332//155
f 331//156 329//156 332//156
f 287//157 333//157 289//157
f 333//158 334//158 289//158
f 289//159 334//159 288//159
f 334//160 332//160 288//160
f 287//9 291//9 240//9
f 291//9 242//9 240//9
f 239//14 207//14 285//14
f 207//14 222//14 285//14
f 430//8 427//8 356//8
f 427//8 355//8 356//8
f 461//9 412//9 458//9
f 412//9 409//9 458//9
f 461//9 415//9 412//9
f 415//9 368//9 412//9
f 433//10 430//10 357//10
f 430//10 356//10 357//10
f 422//9 425//9 373//9
f 425//9 376//9 373//9
f 436//11 433//11 358//11
f 433//11 357//11 358//11
f 418//12 416//12 352//12
f 416//12 351//12 352//12
f 427//13 424//13 355//13
f 424//13 354//13 355//13
f 439//14 436//14 359//14
f 436//14 358//14 359//14
f 379//9 376//9 428//9
f 376//9 425//9 428//9
f 442//15 439//15 360//15
f 439//15 359//15 360//15
f 382//9 379//9 431//9
f 379//9 428//9 431//9
f 445//16 442//16 361//16
f 442//16 360//16 361//16
f 385//9 382//9 434//9
f 382//9 431//9 434//9
f 448//17 445//17 362//17
f 445//17 361//17 362//17
f 385//9 434//9 388//9
f 434//9 437//9 388//9
f 451//18 448//18 363//18
f 448//18 362//18 363//18
f 388//9 437//9 391//9
f 437//9 440//9 391//9
f 454//19 451//19 364//19
f 451//19 363//19 364//19
f 440//9 443//9 391//9
f 443//9 394//9 391//9
f 455//9 458//9 406//9
f 458//9 409//9 406//9
f 397//9 394//9 446//9
f 394//9 443//9 446//9
f 457//20 454//20 365//20
f 454//20 364//20 365//20
f 400//9 397//9 449//9
f 397//9 446//9 449//9
f 460//21 457//21 366//21
f 457//21 365//21 366//21
f 373//9 370//9 422//9
f 370//9 419//9 422//9
f 449//9 452//9 400//9
f 452//9 403//9 400//9
f 424//22 421//22 354//22
f 421//22 353//22 354//22
f 455//9 406//9 452//9
f 406//9 403//9 452//9
f 421//23 418//23 353//23
f 418//23 352//23 353//23
f 389//24 342//24 386//24
f 342//24 341//24 386//24
f 401//25 346//25 398//25
f 346//25 345//25 398//25
f 398//26 345//26 395//26
f 345//26 344//26 395//26
f 371//15 336//15 367//15
f 336//15 335//15 367//15
f 380//18 339//18 377//18
f 339//18 338//18 377//18
f 392//27 343//27 389//27
f 343//27 342//27 389//27
f 383//19 340//19 380//19
f 340//19 339//19 380//19
f 407//8 348//8 404//8
f 348//8 347//8 404//8
f 410//28 349//28 407//28
f 349//28 348//28 407//28
f 377//29 338//29 374//29
f 338//29 337//29 374//29
f 404//13 347//13 401//13
f 347//13 346//13 401//13
f 386//30 341//30 383//30
f 341//30 340//30 383//30
f 395//12 344//12 392//12
f 344//12 343//12 392//12
f 413//31 350//31 410//31
f 350//31 349//31 410//31
f 374//32 337//32 371//32
f 337//32 336//32 371//32
f 371//33 367//33 372//33
f 367//34 369//34 372//34
f 372//35 369//35 370//35
f 369//36 368//36 370//36
f 374//37 371//37 375//37
f 371//161 372//161 375//161
f 375//39 372//39 373//39
f 372//162 370//162 373//162
f 377//41 374//41 378//41
f 374//163 375//163 378//163
f 378//43 375//43 376//43
f 375//44 373//44 376//44
f 380//45 377//45 381//45
f 377//46 378//46 381//46
f 381//164 378//164 379//164
f 378//48 376//48 379//48
f 383//49 380//49 384//49
f 380//50 381//50 384//50
f 384//51 381//51 382//51
f 381//52 379//52 382//52
f 386//53 383//53 387//53
f 383//54 384//54 387//54
f 387//55 384//55 385//55
f 384//56 382//56 385//56
f 389//57 386//57 390//57
f 386//165 387//165 390//165
f 390//59 387//59 388//59
f 387//60 385//60 388//60
f 392//61 389//61 393//61
f 389//62 390//62 393//62
f 393//63 390//63 391//63
f 390//64 388//64 391//64
f 395//65 392//65 396//65
f 392//66 393//66 396//66
f 396//67 393//67 394//67
f 393//68 391//68 394//68
f 398//69 395//69 399//69
f 395//70 396//70 399//70
f 399//71 396//71 397//71
f 396//72 394//72 397//72
f 401//73 398//73 402//73
f 398//74 399//74 402//74
f 402//75 399//75 400//75
f 399//76 397//76 400//76
f 404//77 401//77 405//77
f 401//78 402//78 405//78
f 405//79 402//79 403//79
f 402//80 400//80 403//80
f 407//81 404//81 408//81
f 404//82 405//82 408//82
f 408//83 405//83 406//83
f 405//84 403//84 406//84
f 410//85 407//85 411//85
f 407//86 408//86 411//86
f 411//87 408//87 409//87
f 408//88 406//88 409//88
f 413//89 410//89 414//89
f 410//90 411//90 414//90
f 414//91 411//91 412//91
f 411//92 409//92 412//92
f 367//93 413//93 369//93
f 413//94 414//94 369//94
f 369//95 414//95 368//95
f 414//96 412//96 368//96
f 416//27 460//27 351//27
f 460//27 366//27 351//27
f 419//97 415//97 420//97
f 415//98 417//98 420//98
f 420//99 417//99 418//99
f 417//100 416//100 418//100
f 422//101 419//101 423//101
f 419//102 420//102 423//102
f 423//103 420//103 421//103
f 420//104 418//104 421//104
f 425//105 422//105 426//105
f 422//106 423//106 426//106
f 426//166 423//166 424//166
f 423//167 421//167 424//167
f 428//109 425//109 429//109
f 425//110 426//110 429//110
f 429//111 426//111 427//111
f 426//112 424//112 427//112
f 431//113 428//113 432//113
f 428//114 429//114 432//114
f 432//115 429//115 430//115
f 429//116 427//116 430//116
f 434//117 431//117 435//117
f 431//118 432//118 435//118
f 435//119 432//119 433//119
f 432//120 430//120 433//120
f 437//121 434//121 438//121
f 434//122 435//122 438//122
f 438//123 435//123 436//123
f 435//124 433//124 436//124
f 440//125 437//125 441//125
f 437//126 438//126 441//126
f 441//127 438//127 439//127
f 438//128 436//128 439//128
f 443//129 440//129 444//129
f 440//130 441//130 444//130
f 444//131 441//131 442//131
f 441//132 439//132 442//132
f 446//133 443//133 447//133
f 443//134 444//134 447//134
f 447//135 444//135 445//135
f 444//136 442//136 445//136
f 449//137 446//137 450//137
f 446//138 447//138 450//138
f 450//139 447//139 448//139
f 447//140 445//140 448//140
f 452//141 449//141 453//141
f 449//142 450//142 453//142
f 453//168 450//168 451//168
f 450//144 448//144 451//144
f 455//145 452//145 456//145
f 452//146 453//146 456//146
f 456//147 453//147 454//147
f 453//148 451//148 454//148
f 458//149 455//149 459//149
f 455//150 456//150 459//150
f 459//151 456//151 457//151
f 456//152 454//152 457//152
f 461//153 458//153 462//153
f 458//154 459//154 462//154
f 462//155 459//155 460//155
f 459//156 457//156 460//156
f 415//157 461//157 417//157
f 461//158 462//158 417//158
f 417//159 462//159 416//159
f 462//160 460//160 416//160
f 415//9 419//9 368//9
f 419//9 370//9 368//9
f 367//14 335//14 413//14
f 335//14 350//14 413//14
f 558//8 555//8 484//8
f 555//8 483//8 484//8
f 589//9 540//9 586//9
f 540//9 537//9 586//9
f 589//9 543//9 540//9
f 543//9 496//9 540//9
f 561//10 558//10 485//10
f 558//10 484//10 485//10
f 550//9 553//9 501//9
f 553//9 504//9 501//9
f 564//11 561//11 486//11
f 561//11 485//11 486//11
f 546//12 544//12 480//12
f 544//12 479//12 480//12
f 555//13 552//13 483//13
f 552//13 482//13 483//13
f 567//14 564//14 487//14
f 564//14 486//14 487//14
f 507//9 504//9 556//9
f 504//9 553//9 556//9
f 570//15 567//15 488//15
f 567//15 487//15 488//15
f 510//9 507//9 559//9
f 507//9 556//9 559//9
f 573//16 570//16 489//16
f 570//16 488//16 489//16
f 513//9 510//9 562//9
f 510//9 559//9 562//9
f 576//17 573//17 490//17
f 573//17 489//17 490//17
f 513//9 562//9 516//9
f 562//9 565//9 516//9
f 579//18 576//18 491//18
f 576//18 490//18 491//18
f 516//9 565//9 519//9
f 565//9 568//9 519//9
f 582//19 579//19 492//19
f 579//19 491//19 492//19
f 568//9 571//9 519//9
f 571//9 522//9 519//9
f 583//9 586//9 534//9
f 586//9 537//9 534//9
f 525//9 522//9 574//9
f 522//9 571//9 574//9
f 585//20 582//20 493//20
f 582//20 492//20 493//20
f 528//9 525//9 577//9
f 525//9 574//9 577//9
f 588//21 585//21 494//21
f 585//21 493//21 494//21
f 501//9 498//9 550//9
f 498//9 547//9 550//9
f 577//9 580//9 528//9
f 580//9 531//9 528//9
f 552//22 549//22 482//22
f 549//22 481//22 482//22
f 583//9 534//9 580//9
f 534//9 531//9 580//9
f 549//23 546//23 481//23
f 546//23 480//23 481//23
f 517//24 470//24 514//24
f 470//24 469//24 514//24
f 529//25 474//25 526//25
f 474//25 473//25 526//25
f 526//26 473//26 523//26
f 473//26 472//26 523//26
f 499//15 464//15 495//15
f 464//15 463//15 495//15
f 508//18 467//18 505//18
f 467//18 466//18 505//18
f 520//27 471//27 517//27
f 471//27 470//27 517//27
f 511//19 468//19 508//19
f 468//19 467//19 508//19
f 535//8 476//8 532//8
f 476//8 475//8 532//8
f 538//28 477//28 535//28
f 477//28 476//28 535//28
f 505//29 466//29 502//29
f 466//29 465//29 502//29
f 532//13 475//13 529//13
f 475//13 474//13 529//13
f 514//30 469//30 511//30
f 469//30 468//30 511//30
f 523//12 472//12 520//12
f 472//12 471//12 520//12
f 541//31 478//31 538//31
f 478//31 477//31 538//31
f 502//32 465//32 499//32
f 465//32 464//32 499//32
f 499//33 495//33 500//33
f 495//34 497//34 500//34
f 500//35 497//35 498//35
f 497//36 496//36 498//36
f 502//37 499//37 503//37
f 499//161 500//161 503//161
f 503//39 500//39 501//39
f 500//162 498//162 501//162
f 505//41 502//41 506//41
f 502//163 503//163 506//163
f 506//169 503//169 504//169
f 503//44 501//44 504//44
f 508//45 505//45 509//45
f 505//46 506//46 509//46
f 509//47 506//47 507//47
f 506//48 504//48 507//48
f 511//49 508//49 512//49
f 508//50 509//50 512//50
f 512//170 509//170 510//170
f 509//171 507//171 510//171
f 514//53 511//53 515//53
f 511//54 512//54 515//54
f 515//55 512//55 513//55
f 512//56 510//56 513//56
f 517//57 514//57 518//57
f 514//165 515//165 518//165
f 518//59 515//59 516//59
f 515//60 513//60 516//60
f 520//61 517//61 521//61
f 517//62 518//62 521//62
f 521//63 518//63 519//63
f 518//64 516//64 519//64
f 523//65 520//65 524//65
f 520//66 521//66 524//66
f 524//67 521//67 522//67
f 521//68 519//68 522//68
f 526//69 523//69 527//69
f 523//172 524//172 527//172
f 527//71 524//71 525//71
f 524//173 522//173 525//173
f 529//73 526//73 530//73
f 526//74 527//74 530//74
f 530//75 527//75 528//75
f 527//76 525//76 528//76
f 532//174 529//174 533//174
f 529//78 530//78 533//78
f 533//175 530//175 531//175
f 530//80 528//80 531//80
f 535//81 532//81 536//81
f 532//82 533//82 536//82
f 536//176 533//176 534//176
f 533//177 531//177 534//177
f 538//178 535//178 539//178
f 535//179 536//179 539//179
f 539//87 536//87 537//87
f 536//88 534//88 537//88
f 541//89 538//89 542//89
f 538//90 539//90 542//90
f 542//91 539//91 540//91
f 539//92 537//92 540//92
f 495//93 541//93 497//93
f 541//94 542//94 497//94
f 497//95 542//95 496//95
f 542//96 540//96 496//96
f 544//27 588//27 479//27
f 588//27 494//27 479//27
f 547//97 543//97 548//97
f 543//98 545//98 548//98
f 548//99 545//99 546//99
f 545//100 544//100 546//100
f 550//101 547//101 551//101
f 547//102 548//102 551//102
f 551//103 548//103 549//103
f 548//104 546//104 549//104
f 553//105 550//105 554//105
f 550//106 551//106 554//106
f 554//107 551//107 552//107
f 551//108 549//108 552//108
f 556//109 553//109 557//109
f 553//110 554//110 557//110
f 557//180 554//180 555//180
f 554//112 552//112 555//112
f 559//113 556//113 560//113
f 556//114 557//114 560//114
f 560//115 557//115 558//115
f 557//116 555//116 558//116
f 562//117 559//117 563//117
f 559//118 560//118 563//118
f 563//119 560//119 561//119
f 560//120 558//120 561//120
f 565//121 562//121 566//121
f 562//122 563//122 566//122
f 566//123 563//123 564//123
f 563//124 561//124 564//124
f 568//125 565//125 569//125
f 565//126 566//126 569//126
f 569//127 566//127 567//127
f 566//128 564//128 567//128
f 571//129 568//129 572//129
f 568//130 569//130 572//130
f 572//131 569//131 570//131
f 569//132 567//132 570//132
f 574//133 571//133 575//133
f 571//134 572//134 575//134
f 575//181 572//181 573//181
f 572//182 570//182 573//182
f 577//137 574//137 578//137
f 574//138 575//138 578//138
f 578//183 575//183 576//183
f 575//184 573//184 576//184
f 580//141 577//141 581//141
f 577//142 578//142 581//142
f 581//168 578//168 579//168
f 578//144 576//144 579//144
f 583//145 580//145 584//145
f 580//146 581//146 584//146
f 584//147 581//147 582//147
f 581//148 579//148 582//148
f 586//149 583//149 587//149
f 583//150 584//150 587//150
f 587//151 584//151 585//151
f 584//152 582//152 585//152
f 589//153 586//153 590//153
f 586//154 587//154 590//154
f 590//155 587//155 588//155
f 587//156 585//156 588//156
f 543//157 589//157 545//157
f 589//158 590//158 545//158
f 545//159 590//159 544//159
f 590//160 588//160 544//160
f 543//9 547//9 496//9
f 547//9 498//9 496//9
f 495//14 463//14 541//14
f 463//14 478//14 541//14
