# Blender 4.3.2
# www.blender.org
mtllib sidewalk5.mtl
o Part.5
v 40.040001 0.500001 15.960000
v 40.400002 0.500001 15.600000
v 40.400002 0.020001 15.600000
v 41.599998 0.020001 14.400000
v 41.599998 2.100001 14.400000
v 42.599998 0.500001 15.960000
v 42.599998 0.500001 15.600000
v 42.599998 0.020001 15.600000
v 42.599998 0.020001 14.400000
v 42.599998 2.100001 14.400000
v 40.340000 3.180001 15.660000
v 40.040001 2.880001 15.960000
v 42.599998 3.180001 15.660000
v 42.599998 2.880001 15.960000
v 63.959999 0.500001 15.960000
v 63.599998 0.500001 15.600000
v 63.599998 0.020001 15.600000
v 62.400002 0.020001 14.400000
v 62.400002 2.100001 14.400000
v 61.400002 0.500001 15.960000
v 61.400002 0.500001 15.600000
v 61.400002 0.020001 15.600000
v 61.400002 0.020001 14.400000
v 61.400002 2.100001 14.400000
v 52.000000 0.500001 15.960000
v 52.000000 0.020001 15.600000
v 52.000000 2.100001 14.400000
v 52.000000 0.500001 15.600000
v 52.000000 0.020001 14.400000
v 63.660000 3.180001 15.660000
v 63.959999 2.880001 15.960000
v 61.400002 3.180001 15.660000
v 61.400002 2.880001 15.960000
v 52.000000 2.880001 15.960000
v 52.000000 3.180001 15.660000
v 40.040001 0.500001 8.040000
v 40.400002 0.500001 8.400000
v 40.400002 0.020001 8.400000
v 41.599998 0.020001 9.600000
v 41.599998 2.100001 9.600000
v 42.599998 0.500001 8.040000
v 42.599998 0.500001 8.400000
v 42.599998 0.020001 8.400000
v 42.599998 0.020001 9.600000
v 42.599998 2.100001 9.600000
v 40.340000 3.180001 8.340000
v 40.040001 2.880001 8.040000
v 42.599998 3.180001 8.340000
v 42.599998 2.880001 8.040000
v 40.040001 0.500001 12.000000
v 40.400002 0.500001 12.000000
v 40.400002 0.020001 12.000000
v 41.599998 0.020001 12.000000
v 41.599998 2.100001 12.000000
v 42.599998 2.100001 12.000000
v 42.599998 3.180001 12.000000
v 40.340000 3.180001 12.000000
v 40.040001 2.880001 12.000000
v 63.959999 0.500001 8.040000
v 63.599998 0.500001 8.400000
v 63.599998 0.020001 8.400000
v 62.400002 0.020001 9.600000
v 62.400002 2.100001 9.600000
v 61.400002 0.500001 8.040000
v 61.400002 0.500001 8.400000
v 61.400002 0.020001 8.400000
v 61.400002 0.020001 9.600000
v 61.400002 2.100001 9.600000
v 52.000000 0.500001 8.040000
v 52.000000 0.020001 8.400000
v 52.000000 2.100001 9.600000
v 52.000000 0.500001 8.400000
v 52.000000 0.020001 9.600000
v 63.660000 3.180001 8.340000
v 63.959999 2.880001 8.040000
v 61.400002 3.180001 8.340000
v 61.400002 2.880001 8.040000
v 52.000000 2.880001 8.040000
v 52.000000 3.180001 8.340000
v 63.959999 0.500001 12.000000
v 63.599998 0.500001 12.000000
v 63.599998 0.020001 12.000000
v 62.400002 0.020001 12.000000
v 62.400002 2.100001 12.000000
v 61.400002 2.100001 12.000000
v 61.400002 3.180001 12.000000
v 52.000000 3.180001 12.000000
v 52.000000 2.100001 12.000000
v 63.660000 3.180001 12.000000
v 63.959999 2.880001 12.000000
v 40.040001 0.500001 12.000000
v 40.040001 0.500001 15.960000
v 40.040001 0.500001 15.960000
v 42.599998 0.500001 15.600000
v 40.400002 0.500001 15.600000
v 40.400002 0.500001 15.600000
v 40.400002 0.020001 15.600000
v 40.400002 0.020001 15.600000
v 40.400002 0.020001 12.000000
v 42.599998 0.020001 14.400000
v 41.599998 0.020001 14.400000
v 41.599998 0.020001 14.400000
v 41.599998 2.100001 14.400000
v 41.599998 2.100001 14.400000
v 41.599998 2.100001 12.000000
v 42.599998 0.500001 15.960000
v 52.000000 0.500001 15.600000
v 42.599998 0.020001 15.600000
v 52.000000 0.020001 14.400000
v 42.599998 2.100001 14.400000
v 40.400002 0.500001 12.000000
v 41.599998 0.020001 12.000000
v 52.000000 0.500001 15.960000
v 52.000000 0.020001 15.600000
v 52.000000 2.100001 14.400000
v 42.599998 2.880001 15.960000
v 40.040001 2.880001 15.960000
v 40.040001 2.880001 15.960000
v 40.040001 2.880001 15.960000
v 40.340000 3.180001 15.660000
v 40.340000 3.180001 15.660000
v 42.599998 3.180001 15.660000
v 52.000000 2.880001 15.960000
v 52.000000 3.180001 15.660000
v 40.040001 2.880001 12.000000
v 40.340000 3.180001 12.000000
v 63.959999 0.500001 12.000000
v 63.959999 0.500001 15.960000
v 63.959999 0.500001 15.960000
v 61.400002 0.500001 15.600000
v 63.599998 0.500001 15.600000
v 63.599998 0.500001 15.600000
v 63.599998 0.020001 15.600000
v 63.599998 0.020001 15.600000
v 63.599998 0.020001 12.000000
v 61.400002 0.020001 14.400000
v 62.400002 0.020001 14.400000
v 62.400002 0.020001 14.400000
v 62.400002 2.100001 14.400000
v 62.400002 2.100001 14.400000
v 62.400002 2.100001 12.000000
v 61.400002 0.500001 15.960000
v 61.400002 0.020001 15.600000
v 61.400002 2.100001 14.400000
v 63.599998 0.500001 12.000000
v 62.400002 0.020001 12.000000
v 61.400002 2.880001 15.960000
v 63.959999 2.880001 15.960000
v 63.959999 2.880001 15.960000
v 63.959999 2.880001 15.960000
v 63.660000 3.180001 15.660000
v 63.660000 3.180001 15.660000
v 61.400002 3.180001 15.660000
v 63.959999 2.880001 12.000000
v 63.660000 3.180001 12.000000
v 40.040001 0.500001 8.040000
v 40.040001 0.500001 8.040000
v 42.599998 0.500001 8.400000
v 40.400002 0.500001 8.400000
v 40.400002 0.500001 8.400000
v 40.400002 0.020001 8.400000
v 40.400002 0.020001 8.400000
v 42.599998 0.020001 9.600000
v 41.599998 0.020001 9.600000
v 41.599998 0.020001 9.600000
v 41.599998 2.100001 9.600000
v 41.599998 2.100001 9.600000
v 42.599998 0.500001 8.040000
v 52.000000 0.500001 8.400000
v 42.599998 0.020001 8.400000
v 52.000000 0.020001 9.600000
v 42.599998 2.100001 9.600000
v 52.000000 0.500001 8.040000
v 52.000000 0.020001 8.400000
v 52.000000 2.100001 9.600000
v 42.599998 2.880001 8.040000
v 40.040001 2.880001 8.040000
v 40.040001 2.880001 8.040000
v 40.040001 2.880001 8.040000
v 40.340000 3.180001 8.340000
v 40.340000 3.180001 8.340000
v 42.599998 3.180001 8.340000
v 52.000000 2.880001 8.040000
v 52.000000 3.180001 8.340000
v 63.959999 0.500001 8.040000
v 63.959999 0.500001 8.040000
v 61.400002 0.500001 8.400000
v 63.599998 0.500001 8.400000
v 63.599998 0.500001 8.400000
v 63.599998 0.020001 8.400000
v 63.599998 0.020001 8.400000
v 61.400002 0.020001 9.600000
v 62.400002 0.020001 9.600000
v 62.400002 0.020001 9.600000
v 62.400002 2.100001 9.600000
v 62.400002 2.100001 9.600000
v 61.400002 0.500001 8.040000
v 61.400002 0.020001 8.400000
v 61.400002 2.100001 9.600000
v 61.400002 2.880001 8.040000
v 63.959999 2.880001 8.040000
v 63.959999 2.880001 8.040000
v 63.959999 2.880001 8.040000
v 63.660000 3.180001 8.340000
v 63.660000 3.180001 8.340000
v 61.400002 3.180001 8.340000
v 48.000000 2.100001 10.400000
v 47.388000 2.100001 10.522000
v 46.868999 2.100001 10.869000
v 46.521999 2.100001 11.388000
v 46.400002 2.100001 12.000000
v 46.521999 2.100001 12.612000
v 46.868999 2.100001 13.131000
v 47.388000 2.100001 13.478000
v 48.000000 2.100001 13.600000
v 48.612000 2.100001 13.478000
v 49.131001 2.100001 13.131000
v 49.478001 2.100001 12.612000
v 49.599998 2.100001 12.000000
v 49.478001 2.100001 11.388000
v 49.131001 2.100001 10.869000
v 48.612000 2.100001 10.522000
v 48.000000 2.100001 11.200000
v 47.694000 2.100001 11.261000
v 47.433998 2.100001 11.434000
v 47.261002 2.100001 11.694000
v 47.200001 2.100001 12.000000
v 47.261002 2.100001 12.306000
v 47.433998 2.100001 12.566000
v 47.694000 2.100001 12.739000
v 48.000000 2.100001 12.800000
v 48.306000 2.100001 12.739000
v 48.566002 2.100001 12.566000
v 48.738998 2.100001 12.306000
v 48.799999 2.100001 12.000000
v 48.738998 2.100001 11.694000
v 48.566002 2.100001 11.434000
v 48.306000 2.100001 11.261000
v 48.000000 0.170001 10.400000
v 48.000000 0.020001 10.553000
v 48.000000 0.064001 10.445000
v 47.445999 0.020001 10.663000
v 47.388000 0.170001 10.522000
v 47.404999 0.064001 10.563000
v 46.977001 0.020001 10.977000
v 46.868999 0.170001 10.869000
v 46.900002 0.064001 10.900000
v 46.662998 0.020001 11.446000
v 46.521999 0.170001 11.388000
v 46.563000 0.064001 11.405000
v 46.553001 0.020001 12.000000
v 46.400002 0.170001 12.000000
v 46.445000 0.064001 12.000000
v 46.662998 0.020001 12.554000
v 46.521999 0.170001 12.612000
v 46.563000 0.064001 12.595000
v 46.977001 0.020001 13.023000
v 46.868999 0.170001 13.131000
v 46.900002 0.064001 13.100000
v 47.445999 0.020001 13.337000
v 47.388000 0.170001 13.478000
v 47.404999 0.064001 13.437000
v 48.000000 0.020001 13.447000
v 48.000000 0.170001 13.600000
v 48.000000 0.064001 13.555000
v 48.554001 0.020001 13.337000
v 48.612000 0.170001 13.478000
v 48.595001 0.064001 13.437000
v 49.022999 0.020001 13.023000
v 49.131001 0.170001 13.131000
v 49.099998 0.064001 13.100000
v 49.337002 0.020001 12.554000
v 49.478001 0.170001 12.612000
v 49.437000 0.064001 12.595000
v 49.446999 0.020001 12.000000
v 49.599998 0.170001 12.000000
v 49.555000 0.064001 12.000000
v 49.337002 0.020001 11.446000
v 49.478001 0.170001 11.388000
v 49.437000 0.064001 11.405000
v 49.022999 0.020001 10.977000
v 49.131001 0.170001 10.869000
v 49.099998 0.064001 10.900000
v 48.554001 0.020001 10.663000
v 48.612000 0.170001 10.522000
v 48.595001 0.064001 10.563000
v 48.000000 0.020001 11.047000
v 48.000000 0.170001 11.200000
v 48.000000 0.064001 11.155000
v 47.694000 0.170001 11.261000
v 47.634998 0.020001 11.120000
v 47.676998 0.064001 11.220000
v 47.433998 0.170001 11.434000
v 47.326000 0.020001 11.326000
v 47.403000 0.064001 11.403000
v 47.261002 0.170001 11.694000
v 47.119999 0.020001 11.635000
v 47.220001 0.064001 11.677000
v 47.200001 0.170001 12.000000
v 47.047001 0.020001 12.000000
v 47.154999 0.064001 12.000000
v 47.261002 0.170001 12.306000
v 47.119999 0.020001 12.365000
v 47.220001 0.064001 12.323000
v 47.433998 0.170001 12.566000
v 47.326000 0.020001 12.674000
v 47.403000 0.064001 12.597000
v 47.694000 0.170001 12.739000
v 47.634998 0.020001 12.880000
v 47.676998 0.064001 12.780000
v 48.000000 0.170001 12.800000
v 48.000000 0.020001 12.953000
v 48.000000 0.064001 12.845000
v 48.306000 0.170001 12.739000
v 48.365002 0.020001 12.880000
v 48.323002 0.064001 12.780000
v 48.566002 0.170001 12.566000
v 48.674000 0.020001 12.674000
v 48.597000 0.064001 12.597000
v 48.738998 0.170001 12.306000
v 48.880001 0.020001 12.365000
v 48.779999 0.064001 12.323000
v 48.799999 0.170001 12.000000
v 48.952999 0.020001 12.000000
v 48.845001 0.064001 12.000000
v 48.738998 0.170001 11.694000
v 48.880001 0.020001 11.635000
v 48.779999 0.064001 11.677000
v 48.566002 0.170001 11.434000
v 48.674000 0.020001 11.326000
v 48.597000 0.064001 11.403000
v 48.306000 0.170001 11.261000
v 48.365002 0.020001 11.120000
v 48.323002 0.064001 11.220000
v 56.000000 2.100001 10.400000
v 55.388000 2.100001 10.522000
v 54.868999 2.100001 10.869000
v 54.521999 2.100001 11.388000
v 54.400002 2.100001 12.000000
v 54.521999 2.100001 12.612000
v 54.868999 2.100001 13.131000
v 55.388000 2.100001 13.478000
v 56.000000 2.100001 13.600000
v 56.612000 2.100001 13.478000
v 57.131001 2.100001 13.131000
v 57.478001 2.100001 12.612000
v 57.599998 2.100001 12.000000
v 57.478001 2.100001 11.388000
v 57.131001 2.100001 10.869000
v 56.612000 2.100001 10.522000
v 56.000000 2.100001 11.200000
v 55.694000 2.100001 11.261000
v 55.433998 2.100001 11.434000
v 55.261002 2.100001 11.694000
v 55.200001 2.100001 12.000000
v 55.261002 2.100001 12.306000
v 55.433998 2.100001 12.566000
v 55.694000 2.100001 12.739000
v 56.000000 2.100001 12.800000
v 56.306000 2.100001 12.739000
v 56.566002 2.100001 12.566000
v 56.738998 2.100001 12.306000
v 56.799999 2.100001 12.000000
v 56.738998 2.100001 11.694000
v 56.566002 2.100001 11.434000
v 56.306000 2.100001 11.261000
v 56.000000 0.170001 10.400000
v 56.000000 0.020001 10.553000
v 56.000000 0.064001 10.445000
v 55.445999 0.020001 10.663000
v 55.388000 0.170001 10.522000
v 55.404999 0.064001 10.563000
v 54.977001 0.020001 10.977000
v 54.868999 0.170001 10.869000
v 54.900002 0.064001 10.900000
v 54.662998 0.020001 11.446000
v 54.521999 0.170001 11.388000
v 54.563000 0.064001 11.405000
v 54.553001 0.020001 12.000000
v 54.400002 0.170001 12.000000
v 54.445000 0.064001 12.000000
v 54.662998 0.020001 12.554000
v 54.521999 0.170001 12.612000
v 54.563000 0.064001 12.595000
v 54.977001 0.020001 13.023000
v 54.868999 0.170001 13.131000
v 54.900002 0.064001 13.100000
v 55.445999 0.020001 13.337000
v 55.388000 0.170001 13.478000
v 55.404999 0.064001 13.437000
v 56.000000 0.020001 13.447000
v 56.000000 0.170001 13.600000
v 56.000000 0.064001 13.555000
v 56.554001 0.020001 13.337000
v 56.612000 0.170001 13.478000
v 56.595001 0.064001 13.437000
v 57.022999 0.020001 13.023000
v 57.131001 0.170001 13.131000
v 57.099998 0.064001 13.100000
v 57.337002 0.020001 12.554000
v 57.478001 0.170001 12.612000
v 57.437000 0.064001 12.595000
v 57.446999 0.020001 12.000000
v 57.599998 0.170001 12.000000
v 57.555000 0.064001 12.000000
v 57.337002 0.020001 11.446000
v 57.478001 0.170001 11.388000
v 57.437000 0.064001 11.405000
v 57.022999 0.020001 10.977000
v 57.131001 0.170001 10.869000
v 57.099998 0.064001 10.900000
v 56.554001 0.020001 10.663000
v 56.612000 0.170001 10.522000
v 56.595001 0.064001 10.563000
v 56.000000 0.020001 11.047000
v 56.000000 0.170001 11.200000
v 56.000000 0.064001 11.155000
v 55.694000 0.170001 11.261000
v 55.634998 0.020001 11.120000
v 55.676998 0.064001 11.220000
v 55.433998 0.170001 11.434000
v 55.326000 0.020001 11.326000
v 55.403000 0.064001 11.403000
v 55.261002 0.170001 11.694000
v 55.119999 0.020001 11.635000
v 55.220001 0.064001 11.677000
v 55.200001 0.170001 12.000000
v 55.047001 0.020001 12.000000
v 55.154999 0.064001 12.000000
v 55.261002 0.170001 12.306000
v 55.119999 0.020001 12.365000
v 55.220001 0.064001 12.323000
v 55.433998 0.170001 12.566000
v 55.326000 0.020001 12.674000
v 55.403000 0.064001 12.597000
v 55.694000 0.170001 12.739000
v 55.634998 0.020001 12.880000
v 55.676998 0.064001 12.780000
v 56.000000 0.170001 12.800000
v 56.000000 0.020001 12.953000
v 56.000000 0.064001 12.845000
v 56.306000 0.170001 12.739000
v 56.365002 0.020001 12.880000
v 56.323002 0.064001 12.780000
v 56.566002 0.170001 12.566000
v 56.674000 0.020001 12.674000
v 56.597000 0.064001 12.597000
v 56.738998 0.170001 12.306000
v 56.880001 0.020001 12.365000
v 56.779999 0.064001 12.323000
v 56.799999 0.170001 12.000000
v 56.952999 0.020001 12.000000
v 56.845001 0.064001 12.000000
v 56.738998 0.170001 11.694000
v 56.880001 0.020001 11.635000
v 56.779999 0.064001 11.677000
v 56.566002 0.170001 11.434000
v 56.674000 0.020001 11.326000
v 56.597000 0.064001 11.403000
v 56.306000 0.170001 11.261000
v 56.365002 0.020001 11.120000
v 56.323002 0.064001 11.220000
vn -0.0000 -0.0000 1.0000
vn -0.0000 1.0000 -0.0000
vn 1.0000 -0.0000 -0.0000
vn -0.0000 0.7071 0.7071
vn 0.7071 -0.7071 -0.0000
vn 0.7071 0.7071 -0.0000
vn -0.0000 -0.7071 0.7071
vn 0.9807 -0.0000 -0.1955
vn -0.0000 -1.0000 -0.0000
vn 0.8325 -0.0000 -0.5540
vn 0.5540 -0.0000 -0.8325
vn 0.1955 -0.0000 0.9807
vn 0.9807 -0.0000 0.1955
vn 0.1955 -0.0000 -0.9807
vn -0.1955 -0.0000 -0.9807
vn -0.5540 -0.0000 -0.8325
vn -0.8325 -0.0000 -0.5540
vn -0.9807 -0.0000 -0.1955
vn -0.9807 -0.0000 0.1955
vn -0.8325 -0.0000 0.5540
vn -0.5540 -0.0000 0.8325
vn 0.8325 -0.0000 0.5540
vn 0.5540 -0.0000 0.8325
vn -0.5558 -0.0000 0.8313
vn 0.8313 -0.0000 0.5558
vn 0.5558 -0.0000 0.8313
vn -0.1955 -0.0000 0.9807
vn 0.8313 -0.0000 -0.5558
vn -0.8313 -0.0000 -0.5558
vn -0.8313 -0.0000 0.5558
vn 0.5558 -0.0000 -0.8313
vn -0.5558 -0.0000 -0.8313
vn -0.1808 -0.3799 -0.9072
vn -0.1796 -0.3844 -0.9055
vn -0.0745 -0.9237 -0.3759
vn -0.0747 -0.9235 -0.3762
vn -0.5150 -0.3759 -0.7703
vn -0.5135 -0.3799 -0.7694
vn -0.2114 -0.9246 -0.3169
vn -0.2135 -0.9235 -0.3188
vn -0.7690 -0.3799 -0.5141
vn -0.7708 -0.3758 -0.5144
vn -0.3190 -0.9235 -0.2129
vn -0.3165 -0.9246 -0.2119
vn -0.9054 -0.3843 -0.1805
vn -0.9074 -0.3798 -0.1800
vn -0.3762 -0.9235 -0.0746
vn -0.3758 -0.9237 -0.0746
vn -0.9072 -0.3799 0.1808
vn -0.9055 -0.3844 0.1796
vn -0.3758 -0.9237 0.0745
vn -0.3763 -0.9235 0.0747
vn -0.7703 -0.3759 0.5151
vn -0.7694 -0.3800 0.5134
vn -0.3169 -0.9246 0.2115
vn -0.3188 -0.9235 0.2134
vn -0.5141 -0.3799 0.7690
vn -0.5144 -0.3758 0.7708
vn -0.2129 -0.9235 0.3190
vn -0.2119 -0.9246 0.3165
vn -0.1805 -0.3844 0.9054
vn -0.1800 -0.3798 0.9074
vn -0.0746 -0.9235 0.3762
vn -0.0746 -0.9237 0.3758
vn 0.1808 -0.3799 0.9072
vn 0.1796 -0.3844 0.9055
vn 0.0745 -0.9237 0.3759
vn 0.0747 -0.9235 0.3762
vn 0.5150 -0.3759 0.7703
vn 0.5135 -0.3799 0.7694
vn 0.2114 -0.9246 0.3169
vn 0.2135 -0.9235 0.3188
vn 0.7690 -0.3799 0.5141
vn 0.7708 -0.3758 0.5144
vn 0.3190 -0.9235 0.2129
vn 0.3165 -0.9246 0.2119
vn 0.9054 -0.3843 0.1805
vn 0.9074 -0.3798 0.1800
vn 0.3762 -0.9235 0.0746
vn 0.3758 -0.9237 0.0746
vn 0.9072 -0.3799 -0.1808
vn 0.9055 -0.3844 -0.1796
vn 0.3758 -0.9237 -0.0745
vn 0.3763 -0.9235 -0.0747
vn 0.7703 -0.3759 -0.5151
vn 0.7694 -0.3800 -0.5134
vn 0.3169 -0.9246 -0.2115
vn 0.3188 -0.9235 -0.2134
vn 0.5141 -0.3799 -0.7690
vn 0.5144 -0.3758 -0.7708
vn 0.2129 -0.9235 -0.3190
vn 0.2119 -0.9246 -0.3165
vn 0.1805 -0.3844 -0.9054
vn 0.1800 -0.3798 -0.9074
vn 0.0746 -0.9235 -0.3762
vn 0.0746 -0.9237 -0.3758
vn 0.0750 -0.9240 0.3750
vn 0.0757 -0.9234 0.3762
vn 0.1825 -0.3800 0.9068
vn 0.1805 -0.3844 0.9054
vn 0.2113 -0.9246 0.3170
vn 0.2121 -0.9242 0.3176
vn 0.5147 -0.3759 0.7706
vn 0.5124 -0.3800 0.7701
vn 0.3177 -0.9242 0.2118
vn 0.3168 -0.9246 0.2116
vn 0.7692 -0.3799 0.5138
vn 0.7715 -0.3758 0.5134
vn 0.3762 -0.9235 0.0752
vn 0.3749 -0.9240 0.0754
vn 0.9051 -0.3843 0.1821
vn 0.9072 -0.3799 0.1808
vn 0.3750 -0.9240 -0.0750
vn 0.3762 -0.9234 -0.0757
vn 0.9068 -0.3800 -0.1825
vn 0.9054 -0.3843 -0.1805
vn 0.3170 -0.9246 -0.2113
vn 0.3176 -0.9242 -0.2121
vn 0.7706 -0.3759 -0.5147
vn 0.7701 -0.3800 -0.5124
vn 0.2118 -0.9242 -0.3177
vn 0.2116 -0.9246 -0.3168
vn 0.5138 -0.3799 -0.7692
vn 0.5134 -0.3758 -0.7715
vn 0.0752 -0.9235 -0.3762
vn 0.0754 -0.9240 -0.3749
vn 0.1821 -0.3842 -0.9051
vn 0.1808 -0.3799 -0.9072
vn -0.0750 -0.9240 -0.3750
vn -0.0757 -0.9234 -0.3762
vn -0.1825 -0.3800 -0.9068
vn -0.1805 -0.3844 -0.9054
vn -0.2113 -0.9246 -0.3170
vn -0.2121 -0.9242 -0.3176
vn -0.5147 -0.3759 -0.7706
vn -0.5124 -0.3800 -0.7701
vn -0.3177 -0.9242 -0.2118
vn -0.3168 -0.9246 -0.2116
vn -0.7692 -0.3799 -0.5137
vn -0.7715 -0.3758 -0.5134
vn -0.3762 -0.9235 -0.0752
vn -0.3749 -0.9240 -0.0754
vn -0.9051 -0.3843 -0.1821
vn -0.9072 -0.3799 -0.1808
vn -0.3750 -0.9240 0.0750
vn -0.3762 -0.9234 0.0757
vn -0.9068 -0.3800 0.1825
vn -0.9054 -0.3843 0.1805
vn -0.3170 -0.9246 0.2113
vn -0.3176 -0.9242 0.2121
vn -0.7706 -0.3759 0.5147
vn -0.7701 -0.3800 0.5124
vn -0.2118 -0.9242 0.3177
vn -0.2116 -0.9246 0.3168
vn -0.5138 -0.3799 0.7692
vn -0.5134 -0.3758 0.7715
vn -0.0752 -0.9235 0.3762
vn -0.0754 -0.9240 0.3749
vn -0.1821 -0.3842 0.9051
vn -0.1808 -0.3799 0.9072
vn -0.9074 -0.3799 -0.1799
vn 0.9074 -0.3799 0.1799
vn 0.5124 -0.3801 0.7701
vn 0.7692 -0.3800 0.5137
vn 0.7715 -0.3757 0.5134
vn 0.9051 -0.3842 0.1821
vn 0.3751 -0.9240 -0.0750
vn 0.9068 -0.3801 -0.1825
vn -0.5124 -0.3801 -0.7701
vn -0.7692 -0.3800 -0.5137
vn -0.7715 -0.3757 -0.5134
vn -0.9051 -0.3842 -0.1821
vn -0.3751 -0.9240 0.0750
vn -0.9068 -0.3801 0.1825
vn -0.5134 -0.3757 0.7715
s 0
usemtl MB_199
f 6//1 25//1 14//1
f 25//1 34//1 14//1
f 111//2 91//2 95//2
f 95//2 91//2 92//2
f 106//2 94//2 92//2
f 92//2 94//2 95//2
f 7//1 96//1 108//1
f 96//1 97//1 108//1
f 8//2 100//2 98//2
f 98//2 100//2 101//2
f 9//1 110//1 102//1
f 102//1 110//1 103//1
f 105//2 104//2 55//2
f 55//2 104//2 10//2
f 29//1 115//1 9//1
f 9//1 115//1 110//1
f 26//2 109//2 8//2
f 8//2 109//2 100//2
f 28//1 7//1 114//1
f 7//1 108//1 114//1
f 113//2 107//2 106//2
f 106//2 107//2 94//2
f 13//2 56//2 121//2
f 56//2 57//2 121//2
f 4//3 112//3 5//3
f 112//3 54//3 5//3
f 98//2 101//2 99//2
f 99//2 101//2 53//2
f 2//3 3//3 51//3
f 51//3 3//3 52//3
f 50//3 125//3 93//3
f 93//3 125//3 118//3
f 55//2 10//2 88//2
f 88//2 10//2 27//2
f 35//2 87//2 13//2
f 87//2 56//2 13//2
f 116//4 122//4 117//4
f 122//4 120//4 117//4
f 123//4 124//4 116//4
f 124//4 122//4 116//4
f 12//5 58//5 11//5
f 11//5 58//5 126//5
f 1//1 6//1 119//1
f 6//1 14//1 119//1
f 20//1 33//1 25//1
f 33//1 34//1 25//1
f 145//2 131//2 127//2
f 127//2 131//2 128//2
f 142//2 128//2 130//2
f 130//2 128//2 131//2
f 21//1 143//1 132//1
f 143//1 133//1 132//1
f 22//2 134//2 136//2
f 136//2 134//2 137//2
f 23//1 138//1 144//1
f 144//1 138//1 139//1
f 141//2 85//2 140//2
f 140//2 85//2 24//2
f 29//1 23//1 115//1
f 115//1 23//1 144//1
f 26//2 22//2 109//2
f 109//2 22//2 136//2
f 28//1 114//1 21//1
f 114//1 143//1 21//1
f 113//2 142//2 107//2
f 107//2 142//2 130//2
f 32//2 152//2 86//2
f 152//2 89//2 86//2
f 18//3 146//3 19//3
f 19//3 146//3 84//3
f 134//2 135//2 137//2
f 137//2 135//2 83//2
f 16//3 17//3 81//3
f 17//3 82//3 81//3
f 80//3 154//3 129//3
f 154//3 149//3 129//3
f 85//2 88//2 24//2
f 24//2 88//2 27//2
f 35//2 32//2 87//2
f 32//2 86//2 87//2
f 147//4 148//4 153//4
f 148//4 151//4 153//4
f 123//4 147//4 124//4
f 147//4 153//4 124//4
f 31//6 90//6 30//6
f 90//6 155//6 30//6
f 15//1 150//1 20//1
f 150//1 33//1 20//1
f 41//1 69//1 49//1
f 49//1 69//1 78//1
f 111//2 159//2 91//2
f 91//2 159//2 156//2
f 168//2 156//2 158//2
f 158//2 156//2 159//2
f 42//1 160//1 170//1
f 170//1 160//1 161//1
f 43//2 162//2 163//2
f 163//2 162//2 164//2
f 44//1 172//1 165//1
f 172//1 166//1 165//1
f 105//2 55//2 167//2
f 167//2 55//2 45//2
f 73//1 175//1 44//1
f 175//1 172//1 44//1
f 70//2 43//2 171//2
f 171//2 43//2 163//2
f 72//1 42//1 174//1
f 174//1 42//1 170//1
f 173//2 168//2 169//2
f 169//2 168//2 158//2
f 48//2 181//2 56//2
f 181//2 57//2 56//2
f 39//3 40//3 112//3
f 40//3 54//3 112//3
f 162//2 99//2 164//2
f 164//2 99//2 53//2
f 37//3 51//3 38//3
f 38//3 51//3 52//3
f 50//3 157//3 125//3
f 125//3 157//3 178//3
f 55//2 88//2 45//2
f 45//2 88//2 71//2
f 79//2 48//2 87//2
f 48//2 56//2 87//2
f 176//7 182//7 177//7
f 177//7 182//7 180//7
f 183//7 184//7 176//7
f 176//7 184//7 182//7
f 179//5 46//5 58//5
f 58//5 46//5 126//5
f 36//1 41//1 47//1
f 47//1 41//1 49//1
f 64//1 77//1 69//1
f 69//1 77//1 78//1
f 145//2 127//2 188//2
f 188//2 127//2 185//2
f 197//2 187//2 185//2
f 185//2 187//2 188//2
f 65//1 198//1 189//1
f 189//1 198//1 190//1
f 66//2 192//2 191//2
f 191//2 192//2 193//2
f 67//1 194//1 199//1
f 194//1 195//1 199//1
f 141//2 196//2 85//2
f 85//2 196//2 68//2
f 73//1 67//1 175//1
f 67//1 199//1 175//1
f 70//2 171//2 66//2
f 66//2 171//2 192//2
f 72//1 174//1 65//1
f 65//1 174//1 198//1
f 173//2 169//2 197//2
f 197//2 169//2 187//2
f 76//2 86//2 205//2
f 86//2 89//2 205//2
f 62//3 63//3 146//3
f 146//3 63//3 84//3
f 191//2 193//2 135//2
f 135//2 193//2 83//2
f 60//3 81//3 61//3
f 81//3 82//3 61//3
f 80//3 186//3 154//3
f 186//3 202//3 154//3
f 85//2 68//2 88//2
f 88//2 68//2 71//2
f 79//2 87//2 76//2
f 87//2 86//2 76//2
f 200//7 201//7 206//7
f 206//7 201//7 204//7
f 183//7 200//7 184//7
f 184//7 200//7 206//7
f 203//6 74//6 90//6
f 74//6 155//6 90//6
f 59//1 75//1 64//1
f 64//1 75//1 77//1
f 302//8 299//8 228//8
f 299//8 227//8 228//8
f 333//9 284//9 330//9
f 284//9 281//9 330//9
f 333//9 287//9 284//9
f 287//9 240//9 284//9
f 305//10 302//10 229//10
f 302//10 228//10 229//10
f 294//9 297//9 245//9
f 297//9 248//9 245//9
f 308//11 305//11 230//11
f 305//11 229//11 230//11
f 290//12 288//12 224//12
f 288//12 223//12 224//12
f 299//13 296//13 227//13
f 296//13 226//13 227//13
f 311//14 308//14 231//14
f 308//14 230//14 231//14
f 251//9 248//9 300//9
f 248//9 297//9 300//9
f 314//15 311//15 232//15
f 311//15 231//15 232//15
f 254//9 251//9 303//9
f 251//9 300//9 303//9
f 317//16 314//16 233//16
f 314//16 232//16 233//16
f 257//9 254//9 306//9
f 254//9 303//9 306//9
f 320//17 317//17 234//17
f 317//17 233//17 234//17
f 257//9 306//9 260//9
f 306//9 309//9 260//9
f 323//18 320//18 235//18
f 320//18 234//18 235//18
f 260//9 309//9 263//9
f 309//9 312//9 263//9
f 326//19 323//19 236//19
f 323//19 235//19 236//19
f 312//9 315//9 263//9
f 315//9 266//9 263//9
f 327//9 330//9 278//9
f 330//9 281//9 278//9
f 269//9 266//9 318//9
f 266//9 315//9 318//9
f 329//20 326//20 237//20
f 326//20 236//20 237//20
f 272//9 269//9 321//9
f 269//9 318//9 321//9
f 332//21 329//21 238//21
f 329//21 237//21 238//21
f 245//9 242//9 294//9
f 242//9 291//9 294//9
f 321//9 324//9 272//9
f 324//9 275//9 272//9
f 296//22 293//22 226//22
f 293//22 225//22 226//22
f 327//9 278//9 324//9
f 278//9 275//9 324//9
f 293//23 290//23 225//23
f 290//23 224//23 225//23
f 261//24 214//24 258//24
f 214//24 213//24 258//24
f 273//25 218//25 270//25
f 218//25 217//25 270//25
f 270//26 217//26 267//26
f 217//26 216//26 267//26
f 243//15 208//15 239//15
f 208//15 207//15 239//15
f 252//18 211//18 249//18
f 211//18 210//18 249//18
f 264//27 215//27 261//27
f 215//27 214//27 261//27
f 255//19 212//19 252//19
f 212//19 211//19 252//19
f 279//8 220//8 276//8
f 220//8 219//8 276//8
f 282//28 221//28 279//28
f 221//28 220//28 279//28
f 249//29 210//29 246//29
f 210//29 209//29 246//29
f 276//13 219//13 273//13
f 219//13 218//13 273//13
f 258//30 213//30 255//30
f 213//30 212//30 255//30
f 267//12 216//12 264//12
f 216//12 215//12 264//12
f 285//31 222//31 282//31
f 222//31 221//31 282//31
f 246//32 209//32 243//32
f 209//32 208//32 243//32
f 243//33 239//33 244//33
f 239//34 241//34 244//34
f 244//35 241//35 242//35
f 241//36 240//36 242//36
f 246//37 243//37 247//37
f 243//38 244//38 247//38
f 247//39 244//39 245//39
f 244//40 242//40 245//40
f 249//41 246//41 250//41
f 246//42 247//42 250//42
f 250//43 247//43 248//43
f 247//44 245//44 248//44
f 252//45 249//45 253//45
f 249//46 250//46 253//46
f 253//47 250//47 251//47
f 250//48 248//48 251//48
f 255//49 252//49 256//49
f 252//50 253//50 256//50
f 256//51 253//51 254//51
f 253//52 251//52 254//52
f 258//53 255//53 259//53
f 255//54 256//54 259//54
f 259//55 256//55 257//55
f 256//56 254//56 257//56
f 261//57 258//57 262//57
f 258//58 259//58 262//58
f 262//59 259//59 260//59
f 259//60 257//60 260//60
f 264//61 261//61 265//61
f 261//62 262//62 265//62
f 265//63 262//63 263//63
f 262//64 260//64 263//64
f 267//65 264//65 268//65
f 264//66 265//66 268//66
f 268//67 265//67 266//67
f 265//68 263//68 266//68
f 270//69 267//69 271//69
f 267//70 268//70 271//70
f 271//71 268//71 269//71
f 268//72 266//72 269//72
f 273//73 270//73 274//73
f 270//74 271//74 274//74
f 274//75 271//75 272//75
f 271//76 269//76 272//76
f 276//77 273//77 277//77
f 273//78 274//78 277//78
f 277//79 274//79 275//79
f 274//80 272//80 275//80
f 279//81 276//81 280//81
f 276//82 277//82 280//82
f 280//83 277//83 278//83
f 277//84 275//84 278//84
f 282//85 279//85 283//85
f 279//86 280//86 283//86
f 283//87 280//87 281//87
f 280//88 278//88 281//88
f 285//89 282//89 286//89
f 282//90 283//90 286//90
f 286//91 283//91 284//91
f 283//92 281//92 284//92
f 239//93 285//93 241//93
f 285//94 286//94 241//94
f 241//95 286//95 240//95
f 286//96 284//96 240//96
f 288//27 332//27 223//27
f 332//27 238//27 223//27
f 291//97 287//97 292//97
f 287//98 289//98 292//98
f 292//99 289//99 290//99
f 289//100 288//100 290//100
f 294//101 291//101 295//101
f 291//102 292//102 295//102
f 295//103 292//103 293//103
f 292//104 290//104 293//104
f 297//105 294//105 298//105
f 294//106 295//106 298//106
f 298//107 295//107 296//107
f 295//108 293//108 296//108
f 300//109 297//109 301//109
f 297//110 298//110 301//110
f 301//111 298//111 299//111
f 298//112 296//112 299//112
f 303//113 300//113 304//113
f 300//114 301//114 304//114
f 304//115 301//115 302//115
f 301//116 299//116 302//116
f 306//117 303//117 307//117
f 303//118 304//118 307//118
f 307//119 304//119 305//119
f 304//120 302//120 305//120
f 309//121 306//121 310//121
f 306//122 307//122 310//122
f 310//123 307//123 308//123
f 307//124 305//124 308//124
f 312//125 309//125 313//125
f 309//126 310//126 313//126
f 313//127 310//127 311//127
f 310//128 308//128 311//128
f 315//129 312//129 316//129
f 312//130 313//130 316//130
f 316//131 313//131 314//131
f 313//132 311//132 314//132
f 318//133 315//133 319//133
f 315//134 316//134 319//134
f 319//135 316//135 317//135
f 316//136 314//136 317//136
f 321//137 318//137 322//137
f 318//138 319//138 322//138
f 322//139 319//139 320//139
f 319//140 317//140 320//140
f 324//141 321//141 325//141
f 321//142 322//142 325//142
f 325//143 322//143 323//143
f 322//144 320//144 323//144
f 327//145 324//145 328//145
f 324//146 325//146 328//146
f 328//147 325//147 326//147
f 325//148 323//148 326//148
f 330//149 327//149 331//149
f 327//150 328//150 331//150
f 331//151 328//151 329//151
f 328//152 326//152 329//152
f 333//153 330//153 334//153
f 330//154 331//154 334//154
f 334//155 331//155 332//155
f 331//156 329//156 332//156
f 287//157 333//157 289//157
f 333//158 334//158 289//158
f 289//159 334//159 288//159
f 334//160 332//160 288//160
f 287//9 291//9 240//9
f 291//9 242//9 240//9
f 239//14 207//14 285//14
f 207//14 222//14 285//14
f 430//8 427//8 356//8
f 427//8 355//8 356//8
f 461//9 412//9 458//9
f 412//9 409//9 458//9
f 461//9 415//9 412//9
f 415//9 368//9 412//9
f 433//10 430//10 357//10
f 430//10 356//10 357//10
f 422//9 425//9 373//9
f 425//9 376//9 373//9
f 436//11 433//11 358//11
f 433//11 357//11 358//11
f 418//12 416//12 352//12
f 416//12 351//12 352//12
f 427//13 424//13 355//13
f 424//13 354//13 355//13
f 439//14 436//14 359//14
f 436//14 358//14 359//14
f 379//9 376//9 428//9
f 376//9 425//9 428//9
f 442//15 439//15 360//15
f 439//15 359//15 360//15
f 382//9 379//9 431//9
f 379//9 428//9 431//9
f 445//16 442//16 361//16
f 442//16 360//16 361//16
f 385//9 382//9 434//9
f 382//9 431//9 434//9
f 448//17 445//17 362//17
f 445//17 361//17 362//17
f 385//9 434//9 388//9
f 434//9 437//9 388//9
f 451//18 448//18 363//18
f 448//18 362//18 363//18
f 388//9 437//9 391//9
f 437//9 440//9 391//9
f 454//19 451//19 364//19
f 451//19 363//19 364//19
f 440//9 443//9 391//9
f 443//9 394//9 391//9
f 455//9 458//9 406//9
f 458//9 409//9 406//9
f 397//9 394//9 446//9
f 394//9 443//9 446//9
f 457//20 454//20 365//20
f 454//20 364//20 365//20
f 400//9 397//9 449//9
f 397//9 446//9 449//9
f 460//21 457//21 366//21
f 457//21 365//21 366//21
f 373//9 370//9 422//9
f 370//9 419//9 422//9
f 449//9 452//9 400//9
f 452//9 403//9 400//9
f 424//22 421//22 354//22
f 421//22 353//22 354//22
f 455//9 406//9 452//9
f 406//9 403//9 452//9
f 421//23 418//23 353//23
f 418//23 352//23 353//23
f 389//24 342//24 386//24
f 342//24 341//24 386//24
f 401//25 346//25 398//25
f 346//25 345//25 398//25
f 398//26 345//26 395//26
f 345//26 344//26 395//26
f 371//15 336//15 367//15
f 336//15 335//15 367//15
f 380//18 339//18 377//18
f 339//18 338//18 377//18
f 392//27 343//27 389//27
f 343//27 342//27 389//27
f 383//19 340//19 380//19
f 340//19 339//19 380//19
f 407//8 348//8 404//8
f 348//8 347//8 404//8
f 410//28 349//28 407//28
f 349//28 348//28 407//28
f 377//29 338//29 374//29
f 338//29 337//29 374//29
f 404//13 347//13 401//13
f 347//13 346//13 401//13
f 386//30 341//30 383//30
f 341//30 340//30 383//30
f 395//12 344//12 392//12
f 344//12 343//12 392//12
f 413//31 350//31 410//31
f 350//31 349//31 410//31
f 374//32 337//32 371//32
f 337//32 336//32 371//32
f 371//33 367//33 372//33
f 367//34 369//34 372//34
f 372//35 369//35 370//35
f 369//36 368//36 370//36
f 374//37 371//37 375//37
f 371//38 372//38 375//38
f 375//39 372//39 373//39
f 372//40 370//40 373//40
f 377//41 374//41 378//41
f 374//42 375//42 378//42
f 378//43 375//43 376//43
f 375//44 373//44 376//44
f 380//45 377//45 381//45
f 377//161 378//161 381//161
f 381//47 378//47 379//47
f 378//48 376//48 379//48
f 383//49 380//49 384//49
f 380//50 381//50 384//50
f 384//51 381//51 382//51
f 381//52 379//52 382//52
f 386//53 383//53 387//53
f 383//54 384//54 387//54
f 387//55 384//55 385//55
f 384//56 382//56 385//56
f 389//57 386//57 390//57
f 386//58 387//58 390//58
f 390//59 387//59 388//59
f 387//60 385//60 388//60
f 392//61 389//61 393//61
f 389//62 390//62 393//62
f 393//63 390//63 391//63
f 390//64 388//64 391//64
f 395//65 392//65 396//65
f 392//66 393//66 396//66
f 396//67 393//67 394//67
f 393//68 391//68 394//68
f 398//69 395//69 399//69
f 395//70 396//70 399//70
f 399//71 396//71 397//71
f 396//72 394//72 397//72
f 401//73 398//73 402//73
f 398//74 399//74 402//74
f 402//75 399//75 400//75
f 399//76 397//76 400//76
f 404//77 401//77 405//77
f 401//162 402//162 405//162
f 405//79 402//79 403//79
f 402//80 400//80 403//80
f 407//81 404//81 408//81
f 404//82 405//82 408//82
f 408//83 405//83 406//83
f 405//84 403//84 406//84
f 410//85 407//85 411//85
f 407//86 408//86 411//86
f 411//87 408//87 409//87
f 408//88 406//88 409//88
f 413//89 410//89 414//89
f 410//90 411//90 414//90
f 414//91 411//91 412//91
f 411//92 409//92 412//92
f 367//93 413//93 369//93
f 413//94 414//94 369//94
f 369//95 414//95 368//95
f 414//96 412//96 368//96
f 416//27 460//27 351//27
f 460//27 366//27 351//27
f 419//97 415//97 420//97
f 415//98 417//98 420//98
f 420//99 417//99 418//99
f 417//100 416//100 418//100
f 422//101 419//101 423//101
f 419//102 420//102 423//102
f 423//103 420//103 421//103
f 420//163 418//163 421//163
f 425//105 422//105 426//105
f 422//106 423//106 426//106
f 426//164 423//164 424//164
f 423//165 421//165 424//165
f 428//109 425//109 429//109
f 425//110 426//110 429//110
f 429//166 426//166 427//166
f 426//112 424//112 427//112
f 431//167 428//167 432//167
f 428//114 429//114 432//114
f 432//168 429//168 430//168
f 429//116 427//116 430//116
f 434//117 431//117 435//117
f 431//118 432//118 435//118
f 435//119 432//119 433//119
f 432//120 430//120 433//120
f 437//121 434//121 438//121
f 434//122 435//122 438//122
f 438//123 435//123 436//123
f 435//124 433//124 436//124
f 440//125 437//125 441//125
f 437//126 438//126 441//126
f 441//127 438//127 439//127
f 438//128 436//128 439//128
f 443//129 440//129 444//129
f 440//130 441//130 444//130
f 444//131 441//131 442//131
f 441//132 439//132 442//132
f 446//133 443//133 447//133
f 443//134 444//134 447//134
f 447//135 444//135 445//135
f 444//169 442//169 445//169
f 449//137 446//137 450//137
f 446//138 447//138 450//138
f 450//170 447//170 448//170
f 447//171 445//171 448//171
f 452//141 449//141 453//141
f 449//142 450//142 453//142
f 453//172 450//172 451//172
f 450//144 448//144 451//144
f 455//173 452//173 456//173
f 452//146 453//146 456//146
f 456//174 453//174 454//174
f 453//148 451//148 454//148
f 458//149 455//149 459//149
f 455//150 456//150 459//150
f 459//151 456//151 457//151
f 456//152 454//152 457//152
f 461//153 458//153 462//153
f 458//154 459//154 462//154
f 462//155 459//155 460//155
f 459//175 457//175 460//175
f 415//157 461//157 417//157
f 461//158 462//158 417//158
f 417//159 462//159 416//159
f 462//160 460//160 416//160
f 415//9 419//9 368//9
f 419//9 370//9 368//9
f 367//14 335//14 413//14
f 335//14 350//14 413//14
