# Blender 4.3.2
# www.blender.org
mtllib sidewalk10.mtl
o Part.10
v -39.959999 0.499999 -8.040000
v -39.599998 0.499999 -8.400000
v -39.599998 0.019999 -8.400000
v -38.400002 0.019999 -9.600000
v -38.400002 2.099999 -9.600000
v -37.400002 0.499999 -8.040000
v -37.400002 0.499999 -8.400000
v -37.400002 0.019999 -8.400000
v -37.400002 0.019999 -9.600000
v -37.400002 2.099999 -9.600000
v -39.660000 3.179999 -8.340000
v -39.959999 2.879999 -8.040000
v -37.400002 3.179999 -8.340000
v -37.400002 2.879999 -8.040000
v 23.959999 0.499999 -8.040000
v 23.600000 0.499999 -8.400000
v 23.600000 0.019999 -8.400000
v 22.400000 0.019999 -9.600000
v 22.400000 2.099999 -9.600000
v 21.400000 0.499999 -8.040000
v 21.400000 0.499999 -8.400000
v 21.400000 0.019999 -8.400000
v 21.400000 0.019999 -9.600000
v 21.400000 2.099999 -9.600000
v -8.000000 0.499999 -8.040000
v -8.000000 0.019999 -8.400000
v -8.000000 0.499999 -8.400000
v -8.000000 0.019999 -9.600000
v 23.660000 3.179999 -8.340000
v 23.959999 2.879999 -8.040000
v 21.400000 3.179999 -8.340000
v 21.400000 2.879999 -8.040000
v -8.000000 2.879999 -8.040000
v -8.000000 3.179999 -8.340000
v -39.959999 0.499999 -15.960000
v -39.599998 0.499999 -15.600000
v -39.599998 0.019999 -15.600000
v -38.400002 0.019999 -14.400000
v -38.400002 2.099999 -14.400000
v -37.400002 0.499999 -15.960000
v -37.400002 0.499999 -15.600000
v -37.400002 0.019999 -15.600000
v -37.400002 0.019999 -14.400000
v -37.400002 2.099999 -14.400000
v -39.660000 3.179999 -15.660000
v -39.959999 2.879999 -15.960000
v -37.400002 3.179999 -15.660000
v -37.400002 2.879999 -15.960000
v -39.959999 0.499999 -12.000000
v -39.599998 0.499999 -12.000000
v -39.599998 0.019999 -12.000000
v -38.400002 0.019999 -12.000000
v -38.400002 2.099999 -12.000000
v -37.400002 2.099999 -12.000000
v -37.400002 3.179999 -12.000000
v -39.660000 3.179999 -12.000000
v -39.959999 2.879999 -12.000000
v 23.959999 0.499999 -15.960000
v 23.600000 0.499999 -15.600000
v 23.600000 0.019999 -15.600000
v 22.400000 0.019999 -14.400000
v 22.400000 2.099999 -14.400000
v 21.400000 0.499999 -15.960000
v 21.400000 0.499999 -15.600000
v 21.400000 0.019999 -15.600000
v 21.400000 0.019999 -14.400000
v 21.400000 2.099999 -14.400000
v -8.000000 0.499999 -15.960000
v -8.000000 0.019999 -15.600000
v -8.000000 2.099999 -14.400000
v -8.000000 0.499999 -15.600000
v -8.000000 0.019999 -14.400000
v 23.660000 3.179999 -15.660000
v 23.959999 2.879999 -15.960000
v 21.400000 3.179999 -15.660000
v 21.400000 2.879999 -15.960000
v -8.000000 2.879999 -15.960000
v -8.000000 3.179999 -15.660000
v 23.959999 0.499999 -12.000000
v 23.600000 0.499999 -12.000000
v 23.600000 0.019999 -12.000000
v 22.400000 0.019999 -12.000000
v 22.400000 2.099999 -12.000000
v 21.400000 2.099999 -12.000000
v 21.400000 3.179999 -12.000000
v -8.000000 3.179999 -12.000000
v -8.000000 2.099999 -12.000000
v 23.660000 3.179999 -12.000000
v 23.959999 2.879999 -12.000000
v -8.000000 2.099999 -9.600000
v -39.959999 0.499999 -12.000000
v -39.959999 0.499999 -8.040000
v -39.959999 0.499999 -8.040000
v -37.400002 0.499999 -8.400000
v -39.599998 0.499999 -8.400000
v -39.599998 0.499999 -8.400000
v -39.599998 0.019999 -8.400000
v -39.599998 0.019999 -8.400000
v -39.599998 0.019999 -12.000000
v -37.400002 0.019999 -9.600000
v -38.400002 0.019999 -9.600000
v -38.400002 0.019999 -9.600000
v -38.400002 2.099999 -9.600000
v -38.400002 2.099999 -9.600000
v -38.400002 2.099999 -12.000000
v -37.400002 0.499999 -8.040000
v -8.000000 0.499999 -8.400000
v -37.400002 0.019999 -8.400000
v -8.000000 0.019999 -9.600000
v -37.400002 2.099999 -9.600000
v -39.599998 0.499999 -12.000000
v -38.400002 0.019999 -12.000000
v -8.000000 0.499999 -8.040000
v -8.000000 0.019999 -8.400000
v -37.400002 2.879999 -8.040000
v -39.959999 2.879999 -8.040000
v -39.959999 2.879999 -8.040000
v -39.959999 2.879999 -8.040000
v -39.660000 3.179999 -8.340000
v -39.660000 3.179999 -8.340000
v -37.400002 3.179999 -8.340000
v -8.000000 2.879999 -8.040000
v -8.000000 3.179999 -8.340000
v -39.959999 2.879999 -12.000000
v -39.660000 3.179999 -12.000000
v 23.959999 0.499999 -12.000000
v 23.959999 0.499999 -8.040000
v 23.959999 0.499999 -8.040000
v 21.400000 0.499999 -8.400000
v 23.600000 0.499999 -8.400000
v 23.600000 0.499999 -8.400000
v 23.600000 0.019999 -8.400000
v 23.600000 0.019999 -8.400000
v 23.600000 0.019999 -12.000000
v 21.400000 0.019999 -9.600000
v 22.400000 0.019999 -9.600000
v 22.400000 0.019999 -9.600000
v 22.400000 2.099999 -9.600000
v 22.400000 2.099999 -9.600000
v 22.400000 2.099999 -12.000000
v 21.400000 0.499999 -8.040000
v 21.400000 0.019999 -8.400000
v 21.400000 2.099999 -9.600000
v 23.600000 0.499999 -12.000000
v 22.400000 0.019999 -12.000000
v 21.400000 2.879999 -8.040000
v 23.959999 2.879999 -8.040000
v 23.959999 2.879999 -8.040000
v 23.959999 2.879999 -8.040000
v 23.660000 3.179999 -8.340000
v 23.660000 3.179999 -8.340000
v 21.400000 3.179999 -8.340000
v 23.959999 2.879999 -12.000000
v 23.660000 3.179999 -12.000000
v -39.959999 0.499999 -15.960000
v -39.959999 0.499999 -15.960000
v -37.400002 0.499999 -15.600000
v -39.599998 0.499999 -15.600000
v -39.599998 0.499999 -15.600000
v -39.599998 0.019999 -15.600000
v -39.599998 0.019999 -15.600000
v -37.400002 0.019999 -14.400000
v -38.400002 0.019999 -14.400000
v -38.400002 0.019999 -14.400000
v -38.400002 2.099999 -14.400000
v -38.400002 2.099999 -14.400000
v -37.400002 0.499999 -15.960000
v -8.000000 0.499999 -15.600000
v -37.400002 0.019999 -15.600000
v -8.000000 0.019999 -14.400000
v -37.400002 2.099999 -14.400000
v -8.000000 0.499999 -15.960000
v -8.000000 0.019999 -15.600000
v -8.000000 2.099999 -14.400000
v -37.400002 2.879999 -15.960000
v -39.959999 2.879999 -15.960000
v -39.959999 2.879999 -15.960000
v -39.959999 2.879999 -15.960000
v -39.660000 3.179999 -15.660000
v -39.660000 3.179999 -15.660000
v -37.400002 3.179999 -15.660000
v -8.000000 2.879999 -15.960000
v -8.000000 3.179999 -15.660000
v 23.959999 0.499999 -15.960000
v 23.959999 0.499999 -15.960000
v 21.400000 0.499999 -15.600000
v 23.600000 0.499999 -15.600000
v 23.600000 0.499999 -15.600000
v 23.600000 0.019999 -15.600000
v 23.600000 0.019999 -15.600000
v 21.400000 0.019999 -14.400000
v 22.400000 0.019999 -14.400000
v 22.400000 0.019999 -14.400000
v 22.400000 2.099999 -14.400000
v 22.400000 2.099999 -14.400000
v 21.400000 0.499999 -15.960000
v 21.400000 0.019999 -15.600000
v 21.400000 2.099999 -14.400000
v 21.400000 2.879999 -15.960000
v 23.959999 2.879999 -15.960000
v 23.959999 2.879999 -15.960000
v 23.959999 2.879999 -15.960000
v 23.660000 3.179999 -15.660000
v 23.660000 3.179999 -15.660000
v 21.400000 3.179999 -15.660000
v -8.000000 2.099999 -9.600000
v -32.000000 2.099999 -13.600000
v -32.612000 2.099999 -13.478000
v -33.131001 2.099999 -13.131000
v -33.478001 2.099999 -12.612000
v -33.599998 2.099999 -12.000000
v -33.478001 2.099999 -11.388000
v -33.131001 2.099999 -10.869000
v -32.612000 2.099999 -10.522000
v -32.000000 2.099999 -10.400000
v -31.388000 2.099999 -10.522000
v -30.868999 2.099999 -10.869000
v -30.521999 2.099999 -11.388000
v -30.400000 2.099999 -12.000000
v -30.521999 2.099999 -12.612000
v -30.868999 2.099999 -13.131000
v -31.388000 2.099999 -13.478000
v -32.000000 2.099999 -12.800000
v -32.306000 2.099999 -12.739000
v -32.566002 2.099999 -12.566000
v -32.738998 2.099999 -12.306000
v -32.799999 2.099999 -12.000000
v -32.738998 2.099999 -11.694000
v -32.566002 2.099999 -11.434000
v -32.306000 2.099999 -11.261000
v -32.000000 2.099999 -11.200000
v -31.694000 2.099999 -11.261000
v -31.434000 2.099999 -11.434000
v -31.261000 2.099999 -11.694000
v -31.200001 2.099999 -12.000000
v -31.261000 2.099999 -12.306000
v -31.434000 2.099999 -12.566000
v -31.694000 2.099999 -12.739000
v -32.000000 0.169999 -13.600000
v -32.000000 0.019999 -13.447000
v -32.000000 0.063999 -13.555000
v -32.554001 0.019999 -13.337000
v -32.612000 0.169999 -13.478000
v -32.595001 0.063999 -13.437000
v -33.022999 0.019999 -13.023000
v -33.131001 0.169999 -13.131000
v -33.099998 0.063999 -13.100000
v -33.337002 0.019999 -12.554000
v -33.478001 0.169999 -12.612000
v -33.437000 0.063999 -12.595000
v -33.446999 0.019999 -12.000000
v -33.599998 0.169999 -12.000000
v -33.555000 0.063999 -12.000000
v -33.337002 0.019999 -11.446000
v -33.478001 0.169999 -11.388000
v -33.437000 0.063999 -11.405000
v -33.022999 0.019999 -10.977000
v -33.131001 0.169999 -10.869000
v -33.099998 0.063999 -10.900000
v -32.554001 0.019999 -10.663000
v -32.612000 0.169999 -10.522000
v -32.595001 0.063999 -10.563000
v -32.000000 0.019999 -10.553000
v -32.000000 0.169999 -10.400000
v -32.000000 0.063999 -10.445000
v -31.445999 0.019999 -10.663000
v -31.388000 0.169999 -10.522000
v -31.405001 0.063999 -10.563000
v -30.976999 0.019999 -10.977000
v -30.868999 0.169999 -10.869000
v -30.900000 0.063999 -10.900000
v -30.663000 0.019999 -11.446000
v -30.521999 0.169999 -11.388000
v -30.563000 0.063999 -11.405000
v -30.552999 0.019999 -12.000000
v -30.400000 0.169999 -12.000000
v -30.445000 0.063999 -12.000000
v -30.663000 0.019999 -12.554000
v -30.521999 0.169999 -12.612000
v -30.563000 0.063999 -12.595000
v -30.976999 0.019999 -13.023000
v -30.868999 0.169999 -13.131000
v -30.900000 0.063999 -13.100000
v -31.445999 0.019999 -13.337000
v -31.388000 0.169999 -13.478000
v -31.405001 0.063999 -13.437000
v -32.000000 0.019999 -12.953000
v -32.000000 0.169999 -12.800000
v -32.000000 0.063999 -12.845000
v -32.306000 0.169999 -12.739000
v -32.365002 0.019999 -12.880000
v -32.323002 0.063999 -12.780000
v -32.566002 0.169999 -12.566000
v -32.674000 0.019999 -12.674000
v -32.597000 0.063999 -12.597000
v -32.738998 0.169999 -12.306000
v -32.880001 0.019999 -12.365000
v -32.779999 0.063999 -12.323000
v -32.799999 0.169999 -12.000000
v -32.952999 0.019999 -12.000000
v -32.845001 0.063999 -12.000000
v -32.738998 0.169999 -11.694000
v -32.880001 0.019999 -11.635000
v -32.779999 0.063999 -11.677000
v -32.566002 0.169999 -11.434000
v -32.674000 0.019999 -11.326000
v -32.597000 0.063999 -11.403000
v -32.306000 0.169999 -11.261000
v -32.365002 0.019999 -11.120000
v -32.323002 0.063999 -11.220000
v -32.000000 0.169999 -11.200000
v -32.000000 0.019999 -11.047000
v -32.000000 0.063999 -11.155000
v -31.694000 0.169999 -11.261000
v -31.635000 0.019999 -11.120000
v -31.677000 0.063999 -11.220000
v -31.434000 0.169999 -11.434000
v -31.326000 0.019999 -11.326000
v -31.403000 0.063999 -11.403000
v -31.261000 0.169999 -11.694000
v -31.120001 0.019999 -11.635000
v -31.219999 0.063999 -11.677000
v -31.200001 0.169999 -12.000000
v -31.047001 0.019999 -12.000000
v -31.155001 0.063999 -12.000000
v -31.261000 0.169999 -12.306000
v -31.120001 0.019999 -12.365000
v -31.219999 0.063999 -12.323000
v -31.434000 0.169999 -12.566000
v -31.326000 0.019999 -12.674000
v -31.403000 0.063999 -12.597000
v -31.694000 0.169999 -12.739000
v -31.635000 0.019999 -12.880000
v -31.677000 0.063999 -12.780000
v -24.000000 2.099999 -13.600000
v -24.612000 2.099999 -13.478000
v -25.131001 2.099999 -13.131000
v -25.478001 2.099999 -12.612000
v -25.600000 2.099999 -12.000000
v -25.478001 2.099999 -11.388000
v -25.131001 2.099999 -10.869000
v -24.612000 2.099999 -10.522000
v -24.000000 2.099999 -10.400000
v -23.388000 2.099999 -10.522000
v -22.868999 2.099999 -10.869000
v -22.521999 2.099999 -11.388000
v -22.400000 2.099999 -12.000000
v -22.521999 2.099999 -12.612000
v -22.868999 2.099999 -13.131000
v -23.388000 2.099999 -13.478000
v -24.000000 2.099999 -12.800000
v -24.306000 2.099999 -12.739000
v -24.566000 2.099999 -12.566000
v -24.739000 2.099999 -12.306000
v -24.799999 2.099999 -12.000000
v -24.739000 2.099999 -11.694000
v -24.566000 2.099999 -11.434000
v -24.306000 2.099999 -11.261000
v -24.000000 2.099999 -11.200000
v -23.694000 2.099999 -11.261000
v -23.434000 2.099999 -11.434000
v -23.261000 2.099999 -11.694000
v -23.200001 2.099999 -12.000000
v -23.261000 2.099999 -12.306000
v -23.434000 2.099999 -12.566000
v -23.694000 2.099999 -12.739000
v -24.000000 0.169999 -13.600000
v -24.000000 0.019999 -13.447000
v -24.000000 0.063999 -13.555000
v -24.554001 0.019999 -13.337000
v -24.612000 0.169999 -13.478000
v -24.594999 0.063999 -13.437000
v -25.023001 0.019999 -13.023000
v -25.131001 0.169999 -13.131000
v -25.100000 0.063999 -13.100000
v -25.337000 0.019999 -12.554000
v -25.478001 0.169999 -12.612000
v -25.437000 0.063999 -12.595000
v -25.447001 0.019999 -12.000000
v -25.600000 0.169999 -12.000000
v -25.555000 0.063999 -12.000000
v -25.337000 0.019999 -11.446000
v -25.478001 0.169999 -11.388000
v -25.437000 0.063999 -11.405000
v -25.023001 0.019999 -10.977000
v -25.131001 0.169999 -10.869000
v -25.100000 0.063999 -10.900000
v -24.554001 0.019999 -10.663000
v -24.612000 0.169999 -10.522000
v -24.594999 0.063999 -10.563000
v -24.000000 0.019999 -10.553000
v -24.000000 0.169999 -10.400000
v -24.000000 0.063999 -10.445000
v -23.445999 0.019999 -10.663000
v -23.388000 0.169999 -10.522000
v -23.405001 0.063999 -10.563000
v -22.976999 0.019999 -10.977000
v -22.868999 0.169999 -10.869000
v -22.900000 0.063999 -10.900000
v -22.663000 0.019999 -11.446000
v -22.521999 0.169999 -11.388000
v -22.563000 0.063999 -11.405000
v -22.552999 0.019999 -12.000000
v -22.400000 0.169999 -12.000000
v -22.445000 0.063999 -12.000000
v -22.663000 0.019999 -12.554000
v -22.521999 0.169999 -12.612000
v -22.563000 0.063999 -12.595000
v -22.976999 0.019999 -13.023000
v -22.868999 0.169999 -13.131000
v -22.900000 0.063999 -13.100000
v -23.445999 0.019999 -13.337000
v -23.388000 0.169999 -13.478000
v -23.405001 0.063999 -13.437000
v -24.000000 0.019999 -12.953000
v -24.000000 0.169999 -12.800000
v -24.000000 0.063999 -12.845000
v -24.306000 0.169999 -12.739000
v -24.365000 0.019999 -12.880000
v -24.323000 0.063999 -12.780000
v -24.566000 0.169999 -12.566000
v -24.674000 0.019999 -12.674000
v -24.597000 0.063999 -12.597000
v -24.739000 0.169999 -12.306000
v -24.879999 0.019999 -12.365000
v -24.780001 0.063999 -12.323000
v -24.799999 0.169999 -12.000000
v -24.952999 0.019999 -12.000000
v -24.844999 0.063999 -12.000000
v -24.739000 0.169999 -11.694000
v -24.879999 0.019999 -11.635000
v -24.780001 0.063999 -11.677000
v -24.566000 0.169999 -11.434000
v -24.674000 0.019999 -11.326000
v -24.597000 0.063999 -11.403000
v -24.306000 0.169999 -11.261000
v -24.365000 0.019999 -11.120000
v -24.323000 0.063999 -11.220000
v -24.000000 0.169999 -11.200000
v -24.000000 0.019999 -11.047000
v -24.000000 0.063999 -11.155000
v -23.694000 0.169999 -11.261000
v -23.635000 0.019999 -11.120000
v -23.677000 0.063999 -11.220000
v -23.434000 0.169999 -11.434000
v -23.326000 0.019999 -11.326000
v -23.403000 0.063999 -11.403000
v -23.261000 0.169999 -11.694000
v -23.120001 0.019999 -11.635000
v -23.219999 0.063999 -11.677000
v -23.200001 0.169999 -12.000000
v -23.047001 0.019999 -12.000000
v -23.155001 0.063999 -12.000000
v -23.261000 0.169999 -12.306000
v -23.120001 0.019999 -12.365000
v -23.219999 0.063999 -12.323000
v -23.434000 0.169999 -12.566000
v -23.326000 0.019999 -12.674000
v -23.403000 0.063999 -12.597000
v -23.694000 0.169999 -12.739000
v -23.635000 0.019999 -12.880000
v -23.677000 0.063999 -12.780000
v -16.000000 2.099999 -13.600000
v -16.612000 2.099999 -13.478000
v -17.131001 2.099999 -13.131000
v -17.478001 2.099999 -12.612000
v -17.600000 2.099999 -12.000000
v -17.478001 2.099999 -11.388000
v -17.131001 2.099999 -10.869000
v -16.612000 2.099999 -10.522000
v -16.000000 2.099999 -10.400000
v -15.388000 2.099999 -10.522000
v -14.869000 2.099999 -10.869000
v -14.522000 2.099999 -11.388000
v -14.400000 2.099999 -12.000000
v -14.522000 2.099999 -12.612000
v -14.869000 2.099999 -13.131000
v -15.388000 2.099999 -13.478000
v -16.000000 2.099999 -12.800000
v -16.306000 2.099999 -12.739000
v -16.566000 2.099999 -12.566000
v -16.739000 2.099999 -12.306000
v -16.799999 2.099999 -12.000000
v -16.739000 2.099999 -11.694000
v -16.566000 2.099999 -11.434000
v -16.306000 2.099999 -11.261000
v -16.000000 2.099999 -11.200000
v -15.694000 2.099999 -11.261000
v -15.434000 2.099999 -11.434000
v -15.261000 2.099999 -11.694000
v -15.200000 2.099999 -12.000000
v -15.261000 2.099999 -12.306000
v -15.434000 2.099999 -12.566000
v -15.694000 2.099999 -12.739000
v -16.000000 0.169999 -13.600000
v -16.000000 0.019999 -13.447000
v -16.000000 0.063999 -13.555000
v -16.554001 0.019999 -13.337000
v -16.612000 0.169999 -13.478000
v -16.594999 0.063999 -13.437000
v -17.023001 0.019999 -13.023000
v -17.131001 0.169999 -13.131000
v -17.100000 0.063999 -13.100000
v -17.337000 0.019999 -12.554000
v -17.478001 0.169999 -12.612000
v -17.437000 0.063999 -12.595000
v -17.447001 0.019999 -12.000000
v -17.600000 0.169999 -12.000000
v -17.555000 0.063999 -12.000000
v -17.337000 0.019999 -11.446000
v -17.478001 0.169999 -11.388000
v -17.437000 0.063999 -11.405000
v -17.023001 0.019999 -10.977000
v -17.131001 0.169999 -10.869000
v -17.100000 0.063999 -10.900000
v -16.554001 0.019999 -10.663000
v -16.612000 0.169999 -10.522000
v -16.594999 0.063999 -10.563000
v -16.000000 0.019999 -10.553000
v -16.000000 0.169999 -10.400000
v -16.000000 0.063999 -10.445000
v -15.446000 0.019999 -10.663000
v -15.388000 0.169999 -10.522000
v -15.405000 0.063999 -10.563000
v -14.977000 0.019999 -10.977000
v -14.869000 0.169999 -10.869000
v -14.900000 0.063999 -10.900000
v -14.663000 0.019999 -11.446000
v -14.522000 0.169999 -11.388000
v -14.563000 0.063999 -11.405000
v -14.553000 0.019999 -12.000000
v -14.400000 0.169999 -12.000000
v -14.445000 0.063999 -12.000000
v -14.663000 0.019999 -12.554000
v -14.522000 0.169999 -12.612000
v -14.563000 0.063999 -12.595000
v -14.977000 0.019999 -13.023000
v -14.869000 0.169999 -13.131000
v -14.900000 0.063999 -13.100000
v -15.446000 0.019999 -13.337000
v -15.388000 0.169999 -13.478000
v -15.405000 0.063999 -13.437000
v -16.000000 0.019999 -12.953000
v -16.000000 0.169999 -12.800000
v -16.000000 0.063999 -12.845000
v -16.306000 0.169999 -12.739000
v -16.365000 0.019999 -12.880000
v -16.323000 0.063999 -12.780000
v -16.566000 0.169999 -12.566000
v -16.674000 0.019999 -12.674000
v -16.597000 0.063999 -12.597000
v -16.739000 0.169999 -12.306000
v -16.879999 0.019999 -12.365000
v -16.780001 0.063999 -12.323000
v -16.799999 0.169999 -12.000000
v -16.952999 0.019999 -12.000000
v -16.844999 0.063999 -12.000000
v -16.739000 0.169999 -11.694000
v -16.879999 0.019999 -11.635000
v -16.780001 0.063999 -11.677000
v -16.566000 0.169999 -11.434000
v -16.674000 0.019999 -11.326000
v -16.597000 0.063999 -11.403000
v -16.306000 0.169999 -11.261000
v -16.365000 0.019999 -11.120000
v -16.323000 0.063999 -11.220000
v -16.000000 0.169999 -11.200000
v -16.000000 0.019999 -11.047000
v -16.000000 0.063999 -11.155000
v -15.694000 0.169999 -11.261000
v -15.635000 0.019999 -11.120000
v -15.677000 0.063999 -11.220000
v -15.434000 0.169999 -11.434000
v -15.326000 0.019999 -11.326000
v -15.403000 0.063999 -11.403000
v -15.261000 0.169999 -11.694000
v -15.120000 0.019999 -11.635000
v -15.220000 0.063999 -11.677000
v -15.200000 0.169999 -12.000000
v -15.047000 0.019999 -12.000000
v -15.155000 0.063999 -12.000000
v -15.261000 0.169999 -12.306000
v -15.120000 0.019999 -12.365000
v -15.220000 0.063999 -12.323000
v -15.434000 0.169999 -12.566000
v -15.326000 0.019999 -12.674000
v -15.403000 0.063999 -12.597000
v -15.694000 0.169999 -12.739000
v -15.635000 0.019999 -12.880000
v -15.677000 0.063999 -12.780000
v 0.000000 2.099999 -13.600000
v -0.612000 2.099999 -13.478000
v -1.131000 2.099999 -13.131000
v -1.478000 2.099999 -12.612000
v -1.600000 2.099999 -12.000000
v -1.478000 2.099999 -11.388000
v -1.131000 2.099999 -10.869000
v -0.612000 2.099999 -10.522000
v 0.000000 2.099999 -10.400000
v 0.612000 2.099999 -10.522000
v 1.131000 2.099999 -10.869000
v 1.478000 2.099999 -11.388000
v 1.600000 2.099999 -12.000000
v 1.478000 2.099999 -12.612000
v 1.131000 2.099999 -13.131000
v 0.612000 2.099999 -13.478000
v 0.000000 2.099999 -12.800000
v -0.306000 2.099999 -12.739000
v -0.566000 2.099999 -12.566000
v -0.739000 2.099999 -12.306000
v -0.800000 2.099999 -12.000000
v -0.739000 2.099999 -11.694000
v -0.566000 2.099999 -11.434000
v -0.306000 2.099999 -11.261000
v 0.000000 2.099999 -11.200000
v 0.306000 2.099999 -11.261000
v 0.566000 2.099999 -11.434000
v 0.739000 2.099999 -11.694000
v 0.800000 2.099999 -12.000000
v 0.739000 2.099999 -12.306000
v 0.566000 2.099999 -12.566000
v 0.306000 2.099999 -12.739000
v 0.000000 0.169999 -13.600000
v 0.000000 0.019999 -13.447000
v 0.000000 0.063999 -13.555000
v -0.554000 0.019999 -13.337000
v -0.612000 0.169999 -13.478000
v -0.595000 0.063999 -13.437000
v -1.023000 0.019999 -13.023000
v -1.131000 0.169999 -13.131000
v -1.100000 0.063999 -13.100000
v -1.337000 0.019999 -12.554000
v -1.478000 0.169999 -12.612000
v -1.437000 0.063999 -12.595000
v -1.447000 0.019999 -12.000000
v -1.600000 0.169999 -12.000000
v -1.555000 0.063999 -12.000000
v -1.337000 0.019999 -11.446000
v -1.478000 0.169999 -11.388000
v -1.437000 0.063999 -11.405000
v -1.023000 0.019999 -10.977000
v -1.131000 0.169999 -10.869000
v -1.100000 0.063999 -10.900000
v -0.554000 0.019999 -10.663000
v -0.612000 0.169999 -10.522000
v -0.595000 0.063999 -10.563000
v 0.000000 0.019999 -10.553000
v 0.000000 0.169999 -10.400000
v 0.000000 0.063999 -10.445000
v 0.554000 0.019999 -10.663000
v 0.612000 0.169999 -10.522000
v 0.595000 0.063999 -10.563000
v 1.023000 0.019999 -10.977000
v 1.131000 0.169999 -10.869000
v 1.100000 0.063999 -10.900000
v 1.337000 0.019999 -11.446000
v 1.478000 0.169999 -11.388000
v 1.437000 0.063999 -11.405000
v 1.447000 0.019999 -12.000000
v 1.600000 0.169999 -12.000000
v 1.555000 0.063999 -12.000000
v 1.337000 0.019999 -12.554000
v 1.478000 0.169999 -12.612000
v 1.437000 0.063999 -12.595000
v 1.023000 0.019999 -13.023000
v 1.131000 0.169999 -13.131000
v 1.100000 0.063999 -13.100000
v 0.554000 0.019999 -13.337000
v 0.612000 0.169999 -13.478000
v 0.595000 0.063999 -13.437000
v 0.000000 0.019999 -12.953000
v 0.000000 0.169999 -12.800000
v 0.000000 0.063999 -12.845000
v -0.306000 0.169999 -12.739000
v -0.365000 0.019999 -12.880000
v -0.323000 0.063999 -12.780000
v -0.566000 0.169999 -12.566000
v -0.674000 0.019999 -12.674000
v -0.597000 0.063999 -12.597000
v -0.739000 0.169999 -12.306000
v -0.880000 0.019999 -12.365000
v -0.780000 0.063999 -12.323000
v -0.800000 0.169999 -12.000000
v -0.953000 0.019999 -12.000000
v -0.845000 0.063999 -12.000000
v -0.739000 0.169999 -11.694000
v -0.880000 0.019999 -11.635000
v -0.780000 0.063999 -11.677000
v -0.566000 0.169999 -11.434000
v -0.674000 0.019999 -11.326000
v -0.597000 0.063999 -11.403000
v -0.306000 0.169999 -11.261000
v -0.365000 0.019999 -11.120000
v -0.323000 0.063999 -11.220000
v 0.000000 0.169999 -11.200000
v 0.000000 0.019999 -11.047000
v 0.000000 0.063999 -11.155000
v 0.306000 0.169999 -11.261000
v 0.365000 0.019999 -11.120000
v 0.323000 0.063999 -11.220000
v 0.566000 0.169999 -11.434000
v 0.674000 0.019999 -11.326000
v 0.597000 0.063999 -11.403000
v 0.739000 0.169999 -11.694000
v 0.880000 0.019999 -11.635000
v 0.780000 0.063999 -11.677000
v 0.800000 0.169999 -12.000000
v 0.953000 0.019999 -12.000000
v 0.845000 0.063999 -12.000000
v 0.739000 0.169999 -12.306000
v 0.880000 0.019999 -12.365000
v 0.780000 0.063999 -12.323000
v 0.566000 0.169999 -12.566000
v 0.674000 0.019999 -12.674000
v 0.597000 0.063999 -12.597000
v 0.306000 0.169999 -12.739000
v 0.365000 0.019999 -12.880000
v 0.323000 0.063999 -12.780000
v 8.000000 2.099999 -13.600000
v 7.388000 2.099999 -13.478000
v 6.869000 2.099999 -13.131000
v 6.522000 2.099999 -12.612000
v 6.400000 2.099999 -12.000000
v 6.522000 2.099999 -11.388000
v 6.869000 2.099999 -10.869000
v 7.388000 2.099999 -10.522000
v 8.000000 2.099999 -10.400000
v 8.612000 2.099999 -10.522000
v 9.131000 2.099999 -10.869000
v 9.478000 2.099999 -11.388000
v 9.600000 2.099999 -12.000000
v 9.478000 2.099999 -12.612000
v 9.131000 2.099999 -13.131000
v 8.612000 2.099999 -13.478000
v 8.000000 2.099999 -12.800000
v 7.694000 2.099999 -12.739000
v 7.434000 2.099999 -12.566000
v 7.261000 2.099999 -12.306000
v 7.200000 2.099999 -12.000000
v 7.261000 2.099999 -11.694000
v 7.434000 2.099999 -11.434000
v 7.694000 2.099999 -11.261000
v 8.000000 2.099999 -11.200000
v 8.306000 2.099999 -11.261000
v 8.566000 2.099999 -11.434000
v 8.739000 2.099999 -11.694000
v 8.800000 2.099999 -12.000000
v 8.739000 2.099999 -12.306000
v 8.566000 2.099999 -12.566000
v 8.306000 2.099999 -12.739000
v 8.000000 0.169999 -13.600000
v 8.000000 0.019999 -13.447000
v 8.000000 0.063999 -13.555000
v 7.446000 0.019999 -13.337000
v 7.388000 0.169999 -13.478000
v 7.405000 0.063999 -13.437000
v 6.977000 0.019999 -13.023000
v 6.869000 0.169999 -13.131000
v 6.900000 0.063999 -13.100000
v 6.663000 0.019999 -12.554000
v 6.522000 0.169999 -12.612000
v 6.563000 0.063999 -12.595000
v 6.553000 0.019999 -12.000000
v 6.400000 0.169999 -12.000000
v 6.445000 0.063999 -12.000000
v 6.663000 0.019999 -11.446000
v 6.522000 0.169999 -11.388000
v 6.563000 0.063999 -11.405000
v 6.977000 0.019999 -10.977000
v 6.869000 0.169999 -10.869000
v 6.900000 0.063999 -10.900000
v 7.446000 0.019999 -10.663000
v 7.388000 0.169999 -10.522000
v 7.405000 0.063999 -10.563000
v 8.000000 0.019999 -10.553000
v 8.000000 0.169999 -10.400000
v 8.000000 0.063999 -10.445000
v 8.554000 0.019999 -10.663000
v 8.612000 0.169999 -10.522000
v 8.595000 0.063999 -10.563000
v 9.023000 0.019999 -10.977000
v 9.131000 0.169999 -10.869000
v 9.100000 0.063999 -10.900000
v 9.337000 0.019999 -11.446000
v 9.478000 0.169999 -11.388000
v 9.437000 0.063999 -11.405000
v 9.447000 0.019999 -12.000000
v 9.600000 0.169999 -12.000000
v 9.555000 0.063999 -12.000000
v 9.337000 0.019999 -12.554000
v 9.478000 0.169999 -12.612000
v 9.437000 0.063999 -12.595000
v 9.023000 0.019999 -13.023000
v 9.131000 0.169999 -13.131000
v 9.100000 0.063999 -13.100000
v 8.554000 0.019999 -13.337000
v 8.612000 0.169999 -13.478000
v 8.595000 0.063999 -13.437000
v 8.000000 0.019999 -12.953000
v 8.000000 0.169999 -12.800000
v 8.000000 0.063999 -12.845000
v 7.694000 0.169999 -12.739000
v 7.635000 0.019999 -12.880000
v 7.677000 0.063999 -12.780000
v 7.434000 0.169999 -12.566000
v 7.326000 0.019999 -12.674000
v 7.403000 0.063999 -12.597000
v 7.261000 0.169999 -12.306000
v 7.120000 0.019999 -12.365000
v 7.220000 0.063999 -12.323000
v 7.200000 0.169999 -12.000000
v 7.047000 0.019999 -12.000000
v 7.155000 0.063999 -12.000000
v 7.261000 0.169999 -11.694000
v 7.120000 0.019999 -11.635000
v 7.220000 0.063999 -11.677000
v 7.434000 0.169999 -11.434000
v 7.326000 0.019999 -11.326000
v 7.403000 0.063999 -11.403000
v 7.694000 0.169999 -11.261000
v 7.635000 0.019999 -11.120000
v 7.677000 0.063999 -11.220000
v 8.000000 0.169999 -11.200000
v 8.000000 0.019999 -11.047000
v 8.000000 0.063999 -11.155000
v 8.306000 0.169999 -11.261000
v 8.365000 0.019999 -11.120000
v 8.323000 0.063999 -11.220000
v 8.566000 0.169999 -11.434000
v 8.674000 0.019999 -11.326000
v 8.597000 0.063999 -11.403000
v 8.739000 0.169999 -11.694000
v 8.880000 0.019999 -11.635000
v 8.780000 0.063999 -11.677000
v 8.800000 0.169999 -12.000000
v 8.953000 0.019999 -12.000000
v 8.845000 0.063999 -12.000000
v 8.739000 0.169999 -12.306000
v 8.880000 0.019999 -12.365000
v 8.780000 0.063999 -12.323000
v 8.566000 0.169999 -12.566000
v 8.674000 0.019999 -12.674000
v 8.597000 0.063999 -12.597000
v 8.306000 0.169999 -12.739000
v 8.365000 0.019999 -12.880000
v 8.323000 0.063999 -12.780000
v 16.000000 2.099999 -13.600000
v 15.388000 2.099999 -13.478000
v 14.869000 2.099999 -13.131000
v 14.522000 2.099999 -12.612000
v 14.400000 2.099999 -12.000000
v 14.522000 2.099999 -11.388000
v 14.869000 2.099999 -10.869000
v 15.388000 2.099999 -10.522000
v 16.000000 2.099999 -10.400000
v 16.612000 2.099999 -10.522000
v 17.131001 2.099999 -10.869000
v 17.478001 2.099999 -11.388000
v 17.600000 2.099999 -12.000000
v 17.478001 2.099999 -12.612000
v 17.131001 2.099999 -13.131000
v 16.612000 2.099999 -13.478000
v 16.000000 2.099999 -12.800000
v 15.694000 2.099999 -12.739000
v 15.434000 2.099999 -12.566000
v 15.261000 2.099999 -12.306000
v 15.200000 2.099999 -12.000000
v 15.261000 2.099999 -11.694000
v 15.434000 2.099999 -11.434000
v 15.694000 2.099999 -11.261000
v 16.000000 2.099999 -11.200000
v 16.306000 2.099999 -11.261000
v 16.566000 2.099999 -11.434000
v 16.739000 2.099999 -11.694000
v 16.799999 2.099999 -12.000000
v 16.739000 2.099999 -12.306000
v 16.566000 2.099999 -12.566000
v 16.306000 2.099999 -12.739000
v 16.000000 0.169999 -13.600000
v 16.000000 0.019999 -13.447000
v 16.000000 0.063999 -13.555000
v 15.446000 0.019999 -13.337000
v 15.388000 0.169999 -13.478000
v 15.405000 0.063999 -13.437000
v 14.977000 0.019999 -13.023000
v 14.869000 0.169999 -13.131000
v 14.900000 0.063999 -13.100000
v 14.663000 0.019999 -12.554000
v 14.522000 0.169999 -12.612000
v 14.563000 0.063999 -12.595000
v 14.553000 0.019999 -12.000000
v 14.400000 0.169999 -12.000000
v 14.445000 0.063999 -12.000000
v 14.663000 0.019999 -11.446000
v 14.522000 0.169999 -11.388000
v 14.563000 0.063999 -11.405000
v 14.977000 0.019999 -10.977000
v 14.869000 0.169999 -10.869000
v 14.900000 0.063999 -10.900000
v 15.446000 0.019999 -10.663000
v 15.388000 0.169999 -10.522000
v 15.405000 0.063999 -10.563000
v 16.000000 0.019999 -10.553000
v 16.000000 0.169999 -10.400000
v 16.000000 0.063999 -10.445000
v 16.554001 0.019999 -10.663000
v 16.612000 0.169999 -10.522000
v 16.594999 0.063999 -10.563000
v 17.023001 0.019999 -10.977000
v 17.131001 0.169999 -10.869000
v 17.100000 0.063999 -10.900000
v 17.337000 0.019999 -11.446000
v 17.478001 0.169999 -11.388000
v 17.437000 0.063999 -11.405000
v 17.447001 0.019999 -12.000000
v 17.600000 0.169999 -12.000000
v 17.555000 0.063999 -12.000000
v 17.337000 0.019999 -12.554000
v 17.478001 0.169999 -12.612000
v 17.437000 0.063999 -12.595000
v 17.023001 0.019999 -13.023000
v 17.131001 0.169999 -13.131000
v 17.100000 0.063999 -13.100000
v 16.554001 0.019999 -13.337000
v 16.612000 0.169999 -13.478000
v 16.594999 0.063999 -13.437000
v 16.000000 0.019999 -12.953000
v 16.000000 0.169999 -12.800000
v 16.000000 0.063999 -12.845000
v 15.694000 0.169999 -12.739000
v 15.635000 0.019999 -12.880000
v 15.677000 0.063999 -12.780000
v 15.434000 0.169999 -12.566000
v 15.326000 0.019999 -12.674000
v 15.403000 0.063999 -12.597000
v 15.261000 0.169999 -12.306000
v 15.120000 0.019999 -12.365000
v 15.220000 0.063999 -12.323000
v 15.200000 0.169999 -12.000000
v 15.047000 0.019999 -12.000000
v 15.155000 0.063999 -12.000000
v 15.261000 0.169999 -11.694000
v 15.120000 0.019999 -11.635000
v 15.220000 0.063999 -11.677000
v 15.434000 0.169999 -11.434000
v 15.326000 0.019999 -11.326000
v 15.403000 0.063999 -11.403000
v 15.694000 0.169999 -11.261000
v 15.635000 0.019999 -11.120000
v 15.677000 0.063999 -11.220000
v 16.000000 0.169999 -11.200000
v 16.000000 0.019999 -11.047000
v 16.000000 0.063999 -11.155000
v 16.306000 0.169999 -11.261000
v 16.365000 0.019999 -11.120000
v 16.323000 0.063999 -11.220000
v 16.566000 0.169999 -11.434000
v 16.674000 0.019999 -11.326000
v 16.597000 0.063999 -11.403000
v 16.739000 0.169999 -11.694000
v 16.879999 0.019999 -11.635000
v 16.780001 0.063999 -11.677000
v 16.799999 0.169999 -12.000000
v 16.952999 0.019999 -12.000000
v 16.844999 0.063999 -12.000000
v 16.739000 0.169999 -12.306000
v 16.879999 0.019999 -12.365000
v 16.780001 0.063999 -12.323000
v 16.566000 0.169999 -12.566000
v 16.674000 0.019999 -12.674000
v 16.597000 0.063999 -12.597000
v 16.306000 0.169999 -12.739000
v 16.365000 0.019999 -12.880000
v 16.323000 0.063999 -12.780000
v -8.000000 2.099999 -13.600000
v -8.612000 2.099999 -13.478000
v -9.131000 2.099999 -13.131000
v -9.478000 2.099999 -12.612000
v -9.600000 2.099999 -12.000000
v -9.478000 2.099999 -11.388000
v -9.131000 2.099999 -10.869000
v -8.612000 2.099999 -10.522000
v -8.000000 2.099999 -10.400000
v -7.388000 2.099999 -10.522000
v -6.869000 2.099999 -10.869000
v -6.522000 2.099999 -11.388000
v -6.400000 2.099999 -12.000000
v -6.522000 2.099999 -12.612000
v -6.869000 2.099999 -13.131000
v -7.388000 2.099999 -13.478000
v -8.000000 0.169999 -13.600000
v -8.000000 0.019999 -13.447000
v -8.000000 0.063999 -13.555000
v -8.554000 0.019999 -13.337000
v -8.612000 0.169999 -13.478000
v -8.595000 0.063999 -13.437000
v -9.023000 0.019999 -13.023000
v -9.131000 0.169999 -13.131000
v -9.100000 0.063999 -13.100000
v -9.337000 0.019999 -12.554000
v -9.478000 0.169999 -12.612000
v -9.437000 0.063999 -12.595000
v -9.447000 0.019999 -12.000000
v -9.600000 0.169999 -12.000000
v -9.555000 0.063999 -12.000000
v -9.337000 0.019999 -11.446000
v -9.478000 0.169999 -11.388000
v -9.437000 0.063999 -11.405000
v -9.023000 0.019999 -10.977000
v -9.131000 0.169999 -10.869000
v -9.100000 0.063999 -10.900000
v -8.554000 0.019999 -10.663000
v -8.612000 0.169999 -10.522000
v -8.595000 0.063999 -10.563000
v -8.000000 0.019999 -10.553000
v -8.000000 0.169999 -10.400000
v -8.000000 0.063999 -10.445000
v -7.446000 0.019999 -10.663000
v -7.388000 0.169999 -10.522000
v -7.405000 0.063999 -10.563000
v -6.977000 0.019999 -10.977000
v -6.869000 0.169999 -10.869000
v -6.900000 0.063999 -10.900000
v -6.663000 0.019999 -11.446000
v -6.522000 0.169999 -11.388000
v -6.563000 0.063999 -11.405000
v -6.553000 0.019999 -12.000000
v -6.400000 0.169999 -12.000000
v -6.445000 0.063999 -12.000000
v -6.663000 0.019999 -12.554000
v -6.522000 0.169999 -12.612000
v -6.563000 0.063999 -12.595000
v -6.977000 0.019999 -13.023000
v -6.869000 0.169999 -13.131000
v -6.900000 0.063999 -13.100000
v -7.446000 0.019999 -13.337000
v -7.388000 0.169999 -13.478000
v -7.405000 0.063999 -13.437000
v -8.759000 0.019999 -11.276000
v -8.831000 0.019999 -12.000000
v -8.759000 0.019999 -12.724000
v -8.000000 0.019999 -11.217000
v -8.000000 0.019999 -12.000000
v -8.000000 0.019999 -12.783000
v -7.241000 0.019999 -11.276000
v -7.169000 0.019999 -12.000000
v -7.241000 0.019999 -12.724000
vn -0.0000 -0.0000 -1.0000
vn -0.0000 1.0000 -0.0000
vn -1.0000 -0.0000 -0.0000
vn -0.0000 -0.7071 -0.7071
vn -0.7071 0.7071 -0.0000
vn 1.0000 -0.0000 -0.0000
vn 0.7071 0.7071 -0.0000
vn -0.0000 0.7071 -0.7071
vn 0.9807 -0.0000 -0.1955
vn -0.0000 -1.0000 -0.0000
vn 0.8325 -0.0000 -0.5540
vn 0.5540 -0.0000 -0.8325
vn 0.1955 -0.0000 0.9807
vn 0.9807 -0.0000 0.1955
vn 0.1955 -0.0000 -0.9807
vn -0.1955 -0.0000 -0.9807
vn -0.5540 -0.0000 -0.8325
vn -0.8325 -0.0000 -0.5540
vn -0.9807 -0.0000 -0.1955
vn -0.9807 -0.0000 0.1955
vn -0.8325 -0.0000 0.5540
vn -0.5540 -0.0000 0.8325
vn 0.8325 -0.0000 0.5540
vn 0.5540 -0.0000 0.8325
vn -0.5558 -0.0000 0.8313
vn 0.8313 -0.0000 0.5558
vn 0.5558 -0.0000 0.8313
vn -0.1955 -0.0000 0.9807
vn 0.8313 -0.0000 -0.5558
vn -0.8313 -0.0000 -0.5558
vn -0.8313 -0.0000 0.5558
vn 0.5558 -0.0000 -0.8313
vn -0.5558 -0.0000 -0.8313
vn -0.1808 -0.3799 -0.9072
vn -0.1796 -0.3844 -0.9055
vn -0.0745 -0.9237 -0.3759
vn -0.0747 -0.9235 -0.3762
vn -0.5150 -0.3759 -0.7703
vn -0.5135 -0.3800 -0.7694
vn -0.2115 -0.9246 -0.3169
vn -0.2134 -0.9235 -0.3188
vn -0.7690 -0.3799 -0.5141
vn -0.7708 -0.3758 -0.5144
vn -0.3190 -0.9235 -0.2129
vn -0.3165 -0.9246 -0.2119
vn -0.9054 -0.3843 -0.1805
vn -0.9074 -0.3798 -0.1800
vn -0.3762 -0.9235 -0.0746
vn -0.3758 -0.9237 -0.0746
vn -0.9072 -0.3799 0.1808
vn -0.9055 -0.3844 0.1796
vn -0.3758 -0.9237 0.0745
vn -0.3763 -0.9235 0.0747
vn -0.7703 -0.3759 0.5151
vn -0.7694 -0.3800 0.5134
vn -0.3169 -0.9246 0.2115
vn -0.3188 -0.9235 0.2135
vn -0.5141 -0.3799 0.7690
vn -0.5144 -0.3758 0.7708
vn -0.2129 -0.9235 0.3191
vn -0.2119 -0.9246 0.3165
vn -0.1805 -0.3844 0.9054
vn -0.1800 -0.3798 0.9074
vn -0.0746 -0.9235 0.3762
vn -0.0746 -0.9237 0.3758
vn 0.1808 -0.3799 0.9072
vn 0.1796 -0.3844 0.9055
vn 0.0745 -0.9237 0.3759
vn 0.0747 -0.9235 0.3762
vn 0.5150 -0.3759 0.7703
vn 0.5135 -0.3799 0.7694
vn 0.2115 -0.9246 0.3169
vn 0.2135 -0.9235 0.3188
vn 0.7690 -0.3799 0.5141
vn 0.7708 -0.3758 0.5144
vn 0.3191 -0.9235 0.2129
vn 0.3165 -0.9246 0.2119
vn 0.9054 -0.3844 0.1805
vn 0.9074 -0.3798 0.1800
vn 0.3762 -0.9235 0.0746
vn 0.3758 -0.9237 0.0746
vn 0.9072 -0.3799 -0.1808
vn 0.9055 -0.3844 -0.1796
vn 0.3758 -0.9237 -0.0745
vn 0.3763 -0.9235 -0.0747
vn 0.7703 -0.3759 -0.5150
vn 0.7694 -0.3799 -0.5135
vn 0.3169 -0.9246 -0.2115
vn 0.3188 -0.9235 -0.2135
vn 0.5141 -0.3799 -0.7690
vn 0.5144 -0.3758 -0.7708
vn 0.2129 -0.9235 -0.3191
vn 0.2119 -0.9246 -0.3165
vn 0.1805 -0.3844 -0.9054
vn 0.1800 -0.3798 -0.9074
vn 0.0746 -0.9235 -0.3762
vn 0.0746 -0.9237 -0.3758
vn 0.0750 -0.9240 0.3750
vn 0.0757 -0.9234 0.3762
vn 0.1825 -0.3800 0.9068
vn 0.1805 -0.3844 0.9054
vn 0.2113 -0.9246 0.3170
vn 0.2121 -0.9242 0.3176
vn 0.5147 -0.3758 0.7706
vn 0.5124 -0.3801 0.7701
vn 0.3177 -0.9242 0.2118
vn 0.3168 -0.9246 0.2116
vn 0.7692 -0.3799 0.5137
vn 0.7715 -0.3758 0.5134
vn 0.3762 -0.9235 0.0752
vn 0.3749 -0.9240 0.0754
vn 0.9051 -0.3843 0.1821
vn 0.9072 -0.3799 0.1808
vn 0.3750 -0.9240 -0.0750
vn 0.3762 -0.9234 -0.0757
vn 0.9068 -0.3800 -0.1825
vn 0.9054 -0.3843 -0.1805
vn 0.3170 -0.9246 -0.2113
vn 0.3176 -0.9242 -0.2121
vn 0.7706 -0.3759 -0.5147
vn 0.7701 -0.3800 -0.5124
vn 0.2118 -0.9242 -0.3177
vn 0.2116 -0.9246 -0.3168
vn 0.5138 -0.3799 -0.7692
vn 0.5134 -0.3758 -0.7715
vn 0.0752 -0.9235 -0.3762
vn 0.0754 -0.9240 -0.3749
vn 0.1821 -0.3842 -0.9051
vn 0.1808 -0.3799 -0.9072
vn -0.0750 -0.9240 -0.3750
vn -0.0757 -0.9234 -0.3762
vn -0.1825 -0.3800 -0.9068
vn -0.1805 -0.3844 -0.9054
vn -0.2113 -0.9246 -0.3170
vn -0.2121 -0.9242 -0.3176
vn -0.5147 -0.3759 -0.7706
vn -0.5124 -0.3800 -0.7701
vn -0.3177 -0.9242 -0.2118
vn -0.3168 -0.9246 -0.2116
vn -0.7692 -0.3799 -0.5138
vn -0.7715 -0.3758 -0.5134
vn -0.3762 -0.9235 -0.0752
vn -0.3749 -0.9240 -0.0754
vn -0.9051 -0.3843 -0.1821
vn -0.9072 -0.3799 -0.1808
vn -0.3750 -0.9240 0.0750
vn -0.3762 -0.9234 0.0757
vn -0.9068 -0.3800 0.1825
vn -0.9054 -0.3843 0.1805
vn -0.3170 -0.9246 0.2113
vn -0.3176 -0.9242 0.2121
vn -0.7706 -0.3759 0.5147
vn -0.7701 -0.3800 0.5124
vn -0.2118 -0.9242 0.3177
vn -0.2116 -0.9246 0.3168
vn -0.5138 -0.3799 0.7692
vn -0.5134 -0.3758 0.7715
vn -0.0752 -0.9235 0.3762
vn -0.0754 -0.9240 0.3749
vn -0.1821 -0.3842 0.9051
vn -0.1808 -0.3799 0.9072
vn -0.5135 -0.3799 -0.7694
vn -0.2135 -0.9235 -0.3188
vn -0.9054 -0.3844 -0.1805
vn -0.3763 -0.9235 -0.0746
vn -0.3759 -0.9237 0.0745
vn -0.3762 -0.9235 0.0747
vn -0.7703 -0.3759 0.5150
vn -0.7694 -0.3799 0.5135
vn 0.3190 -0.9235 0.2129
vn 0.3763 -0.9235 0.0746
vn 0.3759 -0.9237 -0.0745
vn 0.3762 -0.9235 -0.0747
vn 0.5147 -0.3759 0.7706
vn 0.5124 -0.3800 0.7701
vn 0.7692 -0.3800 0.5137
vn 0.7715 -0.3757 0.5134
vn -0.7692 -0.3800 -0.5138
vn -0.7715 -0.3757 -0.5134
vn -0.9051 -0.3842 -0.1821
vn 0.5135 -0.3800 0.7694
vn 0.2134 -0.9235 0.3188
vn 0.7708 -0.3759 0.5144
vn 0.5144 -0.3759 -0.7708
vn 0.9051 -0.3842 0.1821
vn -0.7708 -0.3759 -0.5144
vn -0.3191 -0.9235 -0.2129
vn -0.7694 -0.3800 0.5135
vn -0.3188 -0.9235 0.2134
vn -0.5144 -0.3759 0.7708
vn 0.3188 -0.9235 -0.2134
vn 0.7692 -0.3799 0.5138
vn 0.9054 -0.3844 -0.1805
vn -0.9054 -0.3844 0.1805
vn 0.9054 -0.3843 0.1805
vn 0.7694 -0.3800 -0.5135
s 0
usemtl MB_199
f 6//1 14//1 25//1
f 25//1 14//1 33//1
f 111//2 91//2 95//2
f 95//2 91//2 92//2
f 106//2 94//2 92//2
f 92//2 94//2 95//2
f 7//1 108//1 96//1
f 96//1 108//1 97//1
f 8//2 100//2 98//2
f 98//2 100//2 101//2
f 9//1 102//1 110//1
f 102//1 103//1 110//1
f 105//2 104//2 54//2
f 54//2 104//2 10//2
f 28//1 9//1 206//1
f 9//1 110//1 206//1
f 26//2 109//2 8//2
f 8//2 109//2 100//2
f 27//1 114//1 7//1
f 7//1 114//1 108//1
f 113//2 107//2 106//2
f 106//2 107//2 94//2
f 13//2 55//2 120//2
f 55//2 56//2 120//2
f 4//3 5//3 112//3
f 112//3 5//3 53//3
f 98//2 101//2 99//2
f 99//2 101//2 52//2
f 2//3 50//3 3//3
f 50//3 51//3 3//3
f 49//3 93//3 124//3
f 93//3 117//3 124//3
f 54//2 10//2 87//2
f 87//2 10//2 90//2
f 34//2 86//2 13//2
f 86//2 55//2 13//2
f 115//4 116//4 121//4
f 121//4 116//4 119//4
f 122//4 115//4 123//4
f 123//4 115//4 121//4
f 12//5 11//5 57//5
f 11//5 125//5 57//5
f 1//1 118//1 6//1
f 6//1 118//1 14//1
f 20//1 25//1 32//1
f 32//1 25//1 33//1
f 144//2 130//2 126//2
f 126//2 130//2 127//2
f 141//2 127//2 129//2
f 129//2 127//2 130//2
f 21//1 131//1 142//1
f 142//1 131//1 132//1
f 22//2 133//2 135//2
f 135//2 133//2 136//2
f 23//1 143//1 137//1
f 143//1 138//1 137//1
f 140//2 84//2 139//2
f 139//2 84//2 24//2
f 28//1 206//1 23//1
f 206//1 143//1 23//1
f 26//2 22//2 109//2
f 109//2 22//2 135//2
f 27//1 21//1 114//1
f 114//1 21//1 142//1
f 113//2 141//2 107//2
f 107//2 141//2 129//2
f 31//2 151//2 85//2
f 151//2 88//2 85//2
f 18//6 145//6 19//6
f 19//6 145//6 83//6
f 133//2 134//2 136//2
f 136//2 134//2 82//2
f 16//6 17//6 80//6
f 17//6 81//6 80//6
f 79//6 153//6 128//6
f 153//6 148//6 128//6
f 84//2 87//2 24//2
f 24//2 87//2 90//2
f 34//2 31//2 86//2
f 31//2 85//2 86//2
f 146//4 152//4 147//4
f 147//4 152//4 150//4
f 122//4 123//4 146//4
f 146//4 123//4 152//4
f 30//7 89//7 29//7
f 89//7 154//7 29//7
f 15//1 20//1 149//1
f 149//1 20//1 32//1
f 40//1 48//1 68//1
f 48//1 77//1 68//1
f 111//2 158//2 91//2
f 91//2 158//2 155//2
f 167//2 155//2 157//2
f 157//2 155//2 158//2
f 41//1 169//1 159//1
f 169//1 160//1 159//1
f 42//2 161//2 162//2
f 162//2 161//2 163//2
f 43//1 164//1 171//1
f 171//1 164//1 165//1
f 105//2 54//2 166//2
f 166//2 54//2 44//2
f 72//1 43//1 174//1
f 174//1 43//1 171//1
f 69//2 42//2 170//2
f 170//2 42//2 162//2
f 71//1 173//1 41//1
f 173//1 169//1 41//1
f 172//2 167//2 168//2
f 168//2 167//2 157//2
f 47//2 180//2 55//2
f 180//2 56//2 55//2
f 38//3 112//3 39//3
f 39//3 112//3 53//3
f 161//2 99//2 163//2
f 163//2 99//2 52//2
f 36//3 37//3 50//3
f 37//3 51//3 50//3
f 49//3 124//3 156//3
f 124//3 177//3 156//3
f 54//2 87//2 44//2
f 44//2 87//2 70//2
f 78//2 47//2 86//2
f 47//2 55//2 86//2
f 175//8 176//8 181//8
f 176//8 179//8 181//8
f 182//8 175//8 183//8
f 175//8 181//8 183//8
f 178//5 57//5 45//5
f 57//5 125//5 45//5
f 35//1 46//1 40//1
f 46//1 48//1 40//1
f 63//1 68//1 76//1
f 68//1 77//1 76//1
f 144//2 126//2 187//2
f 187//2 126//2 184//2
f 196//2 186//2 184//2
f 184//2 186//2 187//2
f 64//1 188//1 197//1
f 188//1 189//1 197//1
f 65//2 191//2 190//2
f 190//2 191//2 192//2
f 66//1 198//1 193//1
f 193//1 198//1 194//1
f 140//2 195//2 84//2
f 84//2 195//2 67//2
f 72//1 174//1 66//1
f 66//1 174//1 198//1
f 69//2 170//2 65//2
f 65//2 170//2 191//2
f 71//1 64//1 173//1
f 64//1 197//1 173//1
f 172//2 168//2 196//2
f 196//2 168//2 186//2
f 75//2 85//2 204//2
f 85//2 88//2 204//2
f 61//6 62//6 145//6
f 145//6 62//6 83//6
f 190//2 192//2 134//2
f 134//2 192//2 82//2
f 59//6 80//6 60//6
f 80//6 81//6 60//6
f 79//6 185//6 153//6
f 185//6 201//6 153//6
f 84//2 67//2 87//2
f 87//2 67//2 70//2
f 78//2 86//2 75//2
f 86//2 85//2 75//2
f 199//8 205//8 200//8
f 205//8 203//8 200//8
f 182//8 183//8 199//8
f 183//8 205//8 199//8
f 202//7 73//7 89//7
f 73//7 154//7 89//7
f 58//1 63//1 74//1
f 63//1 76//1 74//1
f 302//9 299//9 228//9
f 299//9 227//9 228//9
f 333//10 284//10 330//10
f 284//10 281//10 330//10
f 333//10 287//10 284//10
f 287//10 240//10 284//10
f 305//11 302//11 229//11
f 302//11 228//11 229//11
f 294//10 297//10 245//10
f 297//10 248//10 245//10
f 308//12 305//12 230//12
f 305//12 229//12 230//12
f 290//13 288//13 224//13
f 288//13 223//13 224//13
f 299//14 296//14 227//14
f 296//14 226//14 227//14
f 311//15 308//15 231//15
f 308//15 230//15 231//15
f 251//10 248//10 300//10
f 248//10 297//10 300//10
f 314//16 311//16 232//16
f 311//16 231//16 232//16
f 254//10 251//10 303//10
f 251//10 300//10 303//10
f 317//17 314//17 233//17
f 314//17 232//17 233//17
f 257//10 254//10 306//10
f 254//10 303//10 306//10
f 320//18 317//18 234//18
f 317//18 233//18 234//18
f 257//10 306//10 260//10
f 306//10 309//10 260//10
f 323//19 320//19 235//19
f 320//19 234//19 235//19
f 260//10 309//10 263//10
f 309//10 312//10 263//10
f 326//20 323//20 236//20
f 323//20 235//20 236//20
f 312//10 315//10 263//10
f 315//10 266//10 263//10
f 327//10 330//10 278//10
f 330//10 281//10 278//10
f 269//10 266//10 318//10
f 266//10 315//10 318//10
f 329//21 326//21 237//21
f 326//21 236//21 237//21
f 272//10 269//10 321//10
f 269//10 318//10 321//10
f 332//22 329//22 238//22
f 329//22 237//22 238//22
f 245//10 242//10 294//10
f 242//10 291//10 294//10
f 321//10 324//10 272//10
f 324//10 275//10 272//10
f 296//23 293//23 226//23
f 293//23 225//23 226//23
f 327//10 278//10 324//10
f 278//10 275//10 324//10
f 293//24 290//24 225//24
f 290//24 224//24 225//24
f 261//25 214//25 258//25
f 214//25 213//25 258//25
f 273//26 218//26 270//26
f 218//26 217//26 270//26
f 270//27 217//27 267//27
f 217//27 216//27 267//27
f 243//16 208//16 239//16
f 208//16 207//16 239//16
f 252//19 211//19 249//19
f 211//19 210//19 249//19
f 264//28 215//28 261//28
f 215//28 214//28 261//28
f 255//20 212//20 252//20
f 212//20 211//20 252//20
f 279//9 220//9 276//9
f 220//9 219//9 276//9
f 282//29 221//29 279//29
f 221//29 220//29 279//29
f 249//30 210//30 246//30
f 210//30 209//30 246//30
f 276//14 219//14 273//14
f 219//14 218//14 273//14
f 258//31 213//31 255//31
f 213//31 212//31 255//31
f 267//13 216//13 264//13
f 216//13 215//13 264//13
f 285//32 222//32 282//32
f 222//32 221//32 282//32
f 246//33 209//33 243//33
f 209//33 208//33 243//33
f 243//34 239//34 244//34
f 239//35 241//35 244//35
f 244//36 241//36 242//36
f 241//37 240//37 242//37
f 246//38 243//38 247//38
f 243//39 244//39 247//39
f 247//40 244//40 245//40
f 244//41 242//41 245//41
f 249//42 246//42 250//42
f 246//43 247//43 250//43
f 250//44 247//44 248//44
f 247//45 245//45 248//45
f 252//46 249//46 253//46
f 249//47 250//47 253//47
f 253//48 250//48 251//48
f 250//49 248//49 251//49
f 255//50 252//50 256//50
f 252//51 253//51 256//51
f 256//52 253//52 254//52
f 253//53 251//53 254//53
f 258//54 255//54 259//54
f 255//55 256//55 259//55
f 259//56 256//56 257//56
f 256//57 254//57 257//57
f 261//58 258//58 262//58
f 258//59 259//59 262//59
f 262//60 259//60 260//60
f 259//61 257//61 260//61
f 264//62 261//62 265//62
f 261//63 262//63 265//63
f 265//64 262//64 263//64
f 262//65 260//65 263//65
f 267//66 264//66 268//66
f 264//67 265//67 268//67
f 268//68 265//68 266//68
f 265//69 263//69 266//69
f 270//70 267//70 271//70
f 267//71 268//71 271//71
f 271//72 268//72 269//72
f 268//73 266//73 269//73
f 273//74 270//74 274//74
f 270//75 271//75 274//75
f 274//76 271//76 272//76
f 271//77 269//77 272//77
f 276//78 273//78 277//78
f 273//79 274//79 277//79
f 277//80 274//80 275//80
f 274//81 272//81 275//81
f 279//82 276//82 280//82
f 276//83 277//83 280//83
f 280//84 277//84 278//84
f 277//85 275//85 278//85
f 282//86 279//86 283//86
f 279//87 280//87 283//87
f 283//88 280//88 281//88
f 280//89 278//89 281//89
f 285//90 282//90 286//90
f 282//91 283//91 286//91
f 286//92 283//92 284//92
f 283//93 281//93 284//93
f 239//94 285//94 241//94
f 285//95 286//95 241//95
f 241//96 286//96 240//96
f 286//97 284//97 240//97
f 288//28 332//28 223//28
f 332//28 238//28 223//28
f 291//98 287//98 292//98
f 287//99 289//99 292//99
f 292//100 289//100 290//100
f 289//101 288//101 290//101
f 294//102 291//102 295//102
f 291//103 292//103 295//103
f 295//104 292//104 293//104
f 292//105 290//105 293//105
f 297//106 294//106 298//106
f 294//107 295//107 298//107
f 298//108 295//108 296//108
f 295//109 293//109 296//109
f 300//110 297//110 301//110
f 297//111 298//111 301//111
f 301//112 298//112 299//112
f 298//113 296//113 299//113
f 303//114 300//114 304//114
f 300//115 301//115 304//115
f 304//116 301//116 302//116
f 301//117 299//117 302//117
f 306//118 303//118 307//118
f 303//119 304//119 307//119
f 307//120 304//120 305//120
f 304//121 302//121 305//121
f 309//122 306//122 310//122
f 306//123 307//123 310//123
f 310//124 307//124 308//124
f 307//125 305//125 308//125
f 312//126 309//126 313//126
f 309//127 310//127 313//127
f 313//128 310//128 311//128
f 310//129 308//129 311//129
f 315//130 312//130 316//130
f 312//131 313//131 316//131
f 316//132 313//132 314//132
f 313//133 311//133 314//133
f 318//134 315//134 319//134
f 315//135 316//135 319//135
f 319//136 316//136 317//136
f 316//137 314//137 317//137
f 321//138 318//138 322//138
f 318//139 319//139 322//139
f 322//140 319//140 320//140
f 319//141 317//141 320//141
f 324//142 321//142 325//142
f 321//143 322//143 325//143
f 325//144 322//144 323//144
f 322//145 320//145 323//145
f 327//146 324//146 328//146
f 324//147 325//147 328//147
f 328//148 325//148 326//148
f 325//149 323//149 326//149
f 330//150 327//150 331//150
f 327//151 328//151 331//151
f 331//152 328//152 329//152
f 328//153 326//153 329//153
f 333//154 330//154 334//154
f 330//155 331//155 334//155
f 334//156 331//156 332//156
f 331//157 329//157 332//157
f 287//158 333//158 289//158
f 333//159 334//159 289//159
f 289//160 334//160 288//160
f 334//161 332//161 288//161
f 287//10 291//10 240//10
f 291//10 242//10 240//10
f 239//15 207//15 285//15
f 207//15 222//15 285//15
f 430//9 427//9 356//9
f 427//9 355//9 356//9
f 461//10 412//10 458//10
f 412//10 409//10 458//10
f 461//10 415//10 412//10
f 415//10 368//10 412//10
f 433//11 430//11 357//11
f 430//11 356//11 357//11
f 422//10 425//10 373//10
f 425//10 376//10 373//10
f 436//12 433//12 358//12
f 433//12 357//12 358//12
f 418//13 416//13 352//13
f 416//13 351//13 352//13
f 427//14 424//14 355//14
f 424//14 354//14 355//14
f 439//15 436//15 359//15
f 436//15 358//15 359//15
f 379//10 376//10 428//10
f 376//10 425//10 428//10
f 442//16 439//16 360//16
f 439//16 359//16 360//16
f 382//10 379//10 431//10
f 379//10 428//10 431//10
f 445//17 442//17 361//17
f 442//17 360//17 361//17
f 385//10 382//10 434//10
f 382//10 431//10 434//10
f 448//18 445//18 362//18
f 445//18 361//18 362//18
f 385//10 434//10 388//10
f 434//10 437//10 388//10
f 451//19 448//19 363//19
f 448//19 362//19 363//19
f 388//10 437//10 391//10
f 437//10 440//10 391//10
f 454//20 451//20 364//20
f 451//20 363//20 364//20
f 440//10 443//10 391//10
f 443//10 394//10 391//10
f 455//10 458//10 406//10
f 458//10 409//10 406//10
f 397//10 394//10 446//10
f 394//10 443//10 446//10
f 457//21 454//21 365//21
f 454//21 364//21 365//21
f 400//10 397//10 449//10
f 397//10 446//10 449//10
f 460//22 457//22 366//22
f 457//22 365//22 366//22
f 373//10 370//10 422//10
f 370//10 419//10 422//10
f 449//10 452//10 400//10
f 452//10 403//10 400//10
f 424//23 421//23 354//23
f 421//23 353//23 354//23
f 455//10 406//10 452//10
f 406//10 403//10 452//10
f 421//24 418//24 353//24
f 418//24 352//24 353//24
f 389//25 342//25 386//25
f 342//25 341//25 386//25
f 401//26 346//26 398//26
f 346//26 345//26 398//26
f 398//27 345//27 395//27
f 345//27 344//27 395//27
f 371//16 336//16 367//16
f 336//16 335//16 367//16
f 380//19 339//19 377//19
f 339//19 338//19 377//19
f 392//28 343//28 389//28
f 343//28 342//28 389//28
f 383//20 340//20 380//20
f 340//20 339//20 380//20
f 407//9 348//9 404//9
f 348//9 347//9 404//9
f 410//29 349//29 407//29
f 349//29 348//29 407//29
f 377//30 338//30 374//30
f 338//30 337//30 374//30
f 404//14 347//14 401//14
f 347//14 346//14 401//14
f 386//31 341//31 383//31
f 341//31 340//31 383//31
f 395//13 344//13 392//13
f 344//13 343//13 392//13
f 413//32 350//32 410//32
f 350//32 349//32 410//32
f 374//33 337//33 371//33
f 337//33 336//33 371//33
f 371//34 367//34 372//34
f 367//35 369//35 372//35
f 372//36 369//36 370//36
f 369//37 368//37 370//37
f 374//38 371//38 375//38
f 371//162 372//162 375//162
f 375//40 372//40 373//40
f 372//163 370//163 373//163
f 377//42 374//42 378//42
f 374//43 375//43 378//43
f 378//44 375//44 376//44
f 375//45 373//45 376//45
f 380//164 377//164 381//164
f 377//47 378//47 381//47
f 381//165 378//165 379//165
f 378//49 376//49 379//49
f 383//50 380//50 384//50
f 380//51 381//51 384//51
f 384//166 381//166 382//166
f 381//167 379//167 382//167
f 386//168 383//168 387//168
f 383//169 384//169 387//169
f 387//56 384//56 385//56
f 384//57 382//57 385//57
f 389//58 386//58 390//58
f 386//59 387//59 390//59
f 390//60 387//60 388//60
f 387//61 385//61 388//61
f 392//62 389//62 393//62
f 389//63 390//63 393//63
f 393//64 390//64 391//64
f 390//65 388//65 391//65
f 395//66 392//66 396//66
f 392//67 393//67 396//67
f 396//68 393//68 394//68
f 393//69 391//69 394//69
f 398//70 395//70 399//70
f 395//71 396//71 399//71
f 399//72 396//72 397//72
f 396//73 394//73 397//73
f 401//74 398//74 402//74
f 398//75 399//75 402//75
f 402//170 399//170 400//170
f 399//77 397//77 400//77
f 404//78 401//78 405//78
f 401//79 402//79 405//79
f 405//171 402//171 403//171
f 402//81 400//81 403//81
f 407//82 404//82 408//82
f 404//83 405//83 408//83
f 408//172 405//172 406//172
f 405//173 403//173 406//173
f 410//86 407//86 411//86
f 407//87 408//87 411//87
f 411//88 408//88 409//88
f 408//89 406//89 409//89
f 413//90 410//90 414//90
f 410//91 411//91 414//91
f 414//92 411//92 412//92
f 411//93 409//93 412//93
f 367//94 413//94 369//94
f 413//95 414//95 369//95
f 369//96 414//96 368//96
f 414//97 412//97 368//97
f 416//28 460//28 351//28
f 460//28 366//28 351//28
f 419//98 415//98 420//98
f 415//99 417//99 420//99
f 420//100 417//100 418//100
f 417//101 416//101 418//101
f 422//102 419//102 423//102
f 419//103 420//103 423//103
f 423//174 420//174 421//174
f 420//175 418//175 421//175
f 425//106 422//106 426//106
f 422//107 423//107 426//107
f 426//176 423//176 424//176
f 423//177 421//177 424//177
f 428//110 425//110 429//110
f 425//111 426//111 429//111
f 429//112 426//112 427//112
f 426//113 424//113 427//113
f 431//114 428//114 432//114
f 428//115 429//115 432//115
f 432//116 429//116 430//116
f 429//117 427//117 430//117
f 434//118 431//118 435//118
f 431//119 432//119 435//119
f 435//120 432//120 433//120
f 432//121 430//121 433//121
f 437//122 434//122 438//122
f 434//123 435//123 438//123
f 438//124 435//124 436//124
f 435//125 433//125 436//125
f 440//126 437//126 441//126
f 437//127 438//127 441//127
f 441//128 438//128 439//128
f 438//129 436//129 439//129
f 443//130 440//130 444//130
f 440//131 441//131 444//131
f 444//132 441//132 442//132
f 441//133 439//133 442//133
f 446//134 443//134 447//134
f 443//135 444//135 447//135
f 447//136 444//136 445//136
f 444//137 442//137 445//137
f 449//138 446//138 450//138
f 446//139 447//139 450//139
f 450//178 447//178 448//178
f 447//179 445//179 448//179
f 452//142 449//142 453//142
f 449//143 450//143 453//143
f 453//180 450//180 451//180
f 450//145 448//145 451//145
f 455//146 452//146 456//146
f 452//147 453//147 456//147
f 456//148 453//148 454//148
f 453//149 451//149 454//149
f 458//150 455//150 459//150
f 455//151 456//151 459//151
f 459//152 456//152 457//152
f 456//153 454//153 457//153
f 461//154 458//154 462//154
f 458//155 459//155 462//155
f 462//156 459//156 460//156
f 459//157 457//157 460//157
f 415//158 461//158 417//158
f 461//159 462//159 417//159
f 417//160 462//160 416//160
f 462//161 460//161 416//161
f 415//10 419//10 368//10
f 419//10 370//10 368//10
f 367//15 335//15 413//15
f 335//15 350//15 413//15
f 558//9 555//9 484//9
f 555//9 483//9 484//9
f 589//10 540//10 586//10
f 540//10 537//10 586//10
f 589//10 543//10 540//10
f 543//10 496//10 540//10
f 561//11 558//11 485//11
f 558//11 484//11 485//11
f 550//10 553//10 501//10
f 553//10 504//10 501//10
f 564//12 561//12 486//12
f 561//12 485//12 486//12
f 546//13 544//13 480//13
f 544//13 479//13 480//13
f 555//14 552//14 483//14
f 552//14 482//14 483//14
f 567//15 564//15 487//15
f 564//15 486//15 487//15
f 507//10 504//10 556//10
f 504//10 553//10 556//10
f 570//16 567//16 488//16
f 567//16 487//16 488//16
f 510//10 507//10 559//10
f 507//10 556//10 559//10
f 573//17 570//17 489//17
f 570//17 488//17 489//17
f 513//10 510//10 562//10
f 510//10 559//10 562//10
f 576//18 573//18 490//18
f 573//18 489//18 490//18
f 513//10 562//10 516//10
f 562//10 565//10 516//10
f 579//19 576//19 491//19
f 576//19 490//19 491//19
f 516//10 565//10 519//10
f 565//10 568//10 519//10
f 582//20 579//20 492//20
f 579//20 491//20 492//20
f 568//10 571//10 519//10
f 571//10 522//10 519//10
f 583//10 586//10 534//10
f 586//10 537//10 534//10
f 525//10 522//10 574//10
f 522//10 571//10 574//10
f 585//21 582//21 493//21
f 582//21 492//21 493//21
f 528//10 525//10 577//10
f 525//10 574//10 577//10
f 588//22 585//22 494//22
f 585//22 493//22 494//22
f 501//10 498//10 550//10
f 498//10 547//10 550//10
f 577//10 580//10 528//10
f 580//10 531//10 528//10
f 552//23 549//23 482//23
f 549//23 481//23 482//23
f 583//10 534//10 580//10
f 534//10 531//10 580//10
f 549//24 546//24 481//24
f 546//24 480//24 481//24
f 517//25 470//25 514//25
f 470//25 469//25 514//25
f 529//26 474//26 526//26
f 474//26 473//26 526//26
f 526//27 473//27 523//27
f 473//27 472//27 523//27
f 499//16 464//16 495//16
f 464//16 463//16 495//16
f 508//19 467//19 505//19
f 467//19 466//19 505//19
f 520//28 471//28 517//28
f 471//28 470//28 517//28
f 511//20 468//20 508//20
f 468//20 467//20 508//20
f 535//9 476//9 532//9
f 476//9 475//9 532//9
f 538//29 477//29 535//29
f 477//29 476//29 535//29
f 505//30 466//30 502//30
f 466//30 465//30 502//30
f 532//14 475//14 529//14
f 475//14 474//14 529//14
f 514//31 469//31 511//31
f 469//31 468//31 511//31
f 523//13 472//13 520//13
f 472//13 471//13 520//13
f 541//32 478//32 538//32
f 478//32 477//32 538//32
f 502//33 465//33 499//33
f 465//33 464//33 499//33
f 499//34 495//34 500//34
f 495//35 497//35 500//35
f 500//36 497//36 498//36
f 497//37 496//37 498//37
f 502//38 499//38 503//38
f 499//162 500//162 503//162
f 503//40 500//40 501//40
f 500//163 498//163 501//163
f 505//42 502//42 506//42
f 502//43 503//43 506//43
f 506//44 503//44 504//44
f 503//45 501//45 504//45
f 508//164 505//164 509//164
f 505//47 506//47 509//47
f 509//165 506//165 507//165
f 506//49 504//49 507//49
f 511//50 508//50 512//50
f 508//51 509//51 512//51
f 512//166 509//166 510//166
f 509//167 507//167 510//167
f 514//168 511//168 515//168
f 511//169 512//169 515//169
f 515//56 512//56 513//56
f 512//57 510//57 513//57
f 517//58 514//58 518//58
f 514//59 515//59 518//59
f 518//60 515//60 516//60
f 515//61 513//61 516//61
f 520//62 517//62 521//62
f 517//63 518//63 521//63
f 521//64 518//64 519//64
f 518//65 516//65 519//65
f 523//66 520//66 524//66
f 520//67 521//67 524//67
f 524//68 521//68 522//68
f 521//69 519//69 522//69
f 526//70 523//70 527//70
f 523//181 524//181 527//181
f 527//72 524//72 525//72
f 524//182 522//182 525//182
f 529//74 526//74 530//74
f 526//183 527//183 530//183
f 530//170 527//170 528//170
f 527//77 525//77 528//77
f 532//78 529//78 533//78
f 529//79 530//79 533//79
f 533//80 530//80 531//80
f 530//81 528//81 531//81
f 535//82 532//82 536//82
f 532//83 533//83 536//83
f 536//172 533//172 534//172
f 533//173 531//173 534//173
f 538//86 535//86 539//86
f 535//87 536//87 539//87
f 539//88 536//88 537//88
f 536//89 534//89 537//89
f 541//90 538//90 542//90
f 538//184 539//184 542//184
f 542//92 539//92 540//92
f 539//93 537//93 540//93
f 495//94 541//94 497//94
f 541//95 542//95 497//95
f 497//96 542//96 496//96
f 542//97 540//97 496//97
f 544//28 588//28 479//28
f 588//28 494//28 479//28
f 547//98 543//98 548//98
f 543//99 545//99 548//99
f 548//100 545//100 546//100
f 545//101 544//101 546//101
f 550//102 547//102 551//102
f 547//103 548//103 551//103
f 551//174 548//174 549//174
f 548//175 546//175 549//175
f 553//106 550//106 554//106
f 550//107 551//107 554//107
f 554//176 551//176 552//176
f 551//177 549//177 552//177
f 556//110 553//110 557//110
f 553//111 554//111 557//111
f 557//185 554//185 555//185
f 554//113 552//113 555//113
f 559//114 556//114 560//114
f 556//115 557//115 560//115
f 560//116 557//116 558//116
f 557//117 555//117 558//117
f 562//118 559//118 563//118
f 559//119 560//119 563//119
f 563//120 560//120 561//120
f 560//121 558//121 561//121
f 565//122 562//122 566//122
f 562//123 563//123 566//123
f 566//124 563//124 564//124
f 563//125 561//125 564//125
f 568//126 565//126 569//126
f 565//127 566//127 569//127
f 569//128 566//128 567//128
f 566//129 564//129 567//129
f 571//130 568//130 572//130
f 568//131 569//131 572//131
f 572//132 569//132 570//132
f 569//133 567//133 570//133
f 574//134 571//134 575//134
f 571//135 572//135 575//135
f 575//136 572//136 573//136
f 572//137 570//137 573//137
f 577//138 574//138 578//138
f 574//139 575//139 578//139
f 578//140 575//140 576//140
f 575//141 573//141 576//141
f 580//142 577//142 581//142
f 577//143 578//143 581//143
f 581//180 578//180 579//180
f 578//145 576//145 579//145
f 583//146 580//146 584//146
f 580//147 581//147 584//147
f 584//148 581//148 582//148
f 581//149 579//149 582//149
f 586//150 583//150 587//150
f 583//151 584//151 587//151
f 587//152 584//152 585//152
f 584//153 582//153 585//153
f 589//154 586//154 590//154
f 586//155 587//155 590//155
f 590//156 587//156 588//156
f 587//157 585//157 588//157
f 543//158 589//158 545//158
f 589//159 590//159 545//159
f 545//160 590//160 544//160
f 590//161 588//161 544//161
f 543//10 547//10 496//10
f 547//10 498//10 496//10
f 495//15 463//15 541//15
f 463//15 478//15 541//15
f 686//9 683//9 612//9
f 683//9 611//9 612//9
f 717//10 668//10 714//10
f 668//10 665//10 714//10
f 717//10 671//10 668//10
f 671//10 624//10 668//10
f 689//11 686//11 613//11
f 686//11 612//11 613//11
f 678//10 681//10 629//10
f 681//10 632//10 629//10
f 692//12 689//12 614//12
f 689//12 613//12 614//12
f 674//13 672//13 608//13
f 672//13 607//13 608//13
f 683//14 680//14 611//14
f 680//14 610//14 611//14
f 695//15 692//15 615//15
f 692//15 614//15 615//15
f 635//10 632//10 684//10
f 632//10 681//10 684//10
f 698//16 695//16 616//16
f 695//16 615//16 616//16
f 638//10 635//10 687//10
f 635//10 684//10 687//10
f 701//17 698//17 617//17
f 698//17 616//17 617//17
f 641//10 638//10 690//10
f 638//10 687//10 690//10
f 704//18 701//18 618//18
f 701//18 617//18 618//18
f 641//10 690//10 644//10
f 690//10 693//10 644//10
f 707//19 704//19 619//19
f 704//19 618//19 619//19
f 644//10 693//10 647//10
f 693//10 696//10 647//10
f 710//20 707//20 620//20
f 707//20 619//20 620//20
f 696//10 699//10 647//10
f 699//10 650//10 647//10
f 711//10 714//10 662//10
f 714//10 665//10 662//10
f 653//10 650//10 702//10
f 650//10 699//10 702//10
f 713//21 710//21 621//21
f 710//21 620//21 621//21
f 656//10 653//10 705//10
f 653//10 702//10 705//10
f 716//22 713//22 622//22
f 713//22 621//22 622//22
f 629//10 626//10 678//10
f 626//10 675//10 678//10
f 705//10 708//10 656//10
f 708//10 659//10 656//10
f 680//23 677//23 610//23
f 677//23 609//23 610//23
f 711//10 662//10 708//10
f 662//10 659//10 708//10
f 677//24 674//24 609//24
f 674//24 608//24 609//24
f 645//25 598//25 642//25
f 598//25 597//25 642//25
f 657//26 602//26 654//26
f 602//26 601//26 654//26
f 654//27 601//27 651//27
f 601//27 600//27 651//27
f 627//16 592//16 623//16
f 592//16 591//16 623//16
f 636//19 595//19 633//19
f 595//19 594//19 633//19
f 648//28 599//28 645//28
f 599//28 598//28 645//28
f 639//20 596//20 636//20
f 596//20 595//20 636//20
f 663//9 604//9 660//9
f 604//9 603//9 660//9
f 666//29 605//29 663//29
f 605//29 604//29 663//29
f 633//30 594//30 630//30
f 594//30 593//30 630//30
f 660//14 603//14 657//14
f 603//14 602//14 657//14
f 642//31 597//31 639//31
f 597//31 596//31 639//31
f 651//13 600//13 648//13
f 600//13 599//13 648//13
f 669//32 606//32 666//32
f 606//32 605//32 666//32
f 630//33 593//33 627//33
f 593//33 592//33 627//33
f 627//34 623//34 628//34
f 623//35 625//35 628//35
f 628//36 625//36 626//36
f 625//37 624//37 626//37
f 630//38 627//38 631//38
f 627//162 628//162 631//162
f 631//40 628//40 629//40
f 628//41 626//41 629//41
f 633//42 630//42 634//42
f 630//186 631//186 634//186
f 634//187 631//187 632//187
f 631//45 629//45 632//45
f 636//164 633//164 637//164
f 633//47 634//47 637//47
f 637//48 634//48 635//48
f 634//49 632//49 635//49
f 639//50 636//50 640//50
f 636//51 637//51 640//51
f 640//166 637//166 638//166
f 637//167 635//167 638//167
f 642//168 639//168 643//168
f 639//188 640//188 643//188
f 643//56 640//56 641//56
f 640//189 638//189 641//189
f 645//58 642//58 646//58
f 642//190 643//190 646//190
f 646//60 643//60 644//60
f 643//61 641//61 644//61
f 648//62 645//62 649//62
f 645//63 646//63 649//63
f 649//64 646//64 647//64
f 646//65 644//65 647//65
f 651//66 648//66 652//66
f 648//67 649//67 652//67
f 652//68 649//68 650//68
f 649//69 647//69 650//69
f 654//70 651//70 655//70
f 651//71 652//71 655//71
f 655//72 652//72 653//72
f 652//182 650//182 653//182
f 657//74 654//74 658//74
f 654//183 655//183 658//183
f 658//76 655//76 656//76
f 655//77 653//77 656//77
f 660//78 657//78 661//78
f 657//79 658//79 661//79
f 661//80 658//80 659//80
f 658//81 656//81 659//81
f 663//82 660//82 664//82
f 660//83 661//83 664//83
f 664//172 661//172 662//172
f 661//173 659//173 662//173
f 666//86 663//86 667//86
f 663//87 664//87 667//87
f 667//88 664//88 665//88
f 664//191 662//191 665//191
f 669//90 666//90 670//90
f 666//184 667//184 670//184
f 670//92 667//92 668//92
f 667//93 665//93 668//93
f 623//94 669//94 625//94
f 669//95 670//95 625//95
f 625//96 670//96 624//96
f 670//97 668//97 624//97
f 672//28 716//28 607//28
f 716//28 622//28 607//28
f 675//98 671//98 676//98
f 671//99 673//99 676//99
f 676//100 673//100 674//100
f 673//101 672//101 674//101
f 678//102 675//102 679//102
f 675//103 676//103 679//103
f 679//174 676//174 677//174
f 676//175 674//175 677//175
f 681//106 678//106 682//106
f 678//107 679//107 682//107
f 682//192 679//192 680//192
f 679//109 677//109 680//109
f 684//110 681//110 685//110
f 681//111 682//111 685//111
f 685//185 682//185 683//185
f 682//113 680//113 683//113
f 687//114 684//114 688//114
f 684//115 685//115 688//115
f 688//116 685//116 686//116
f 685//193 683//193 686//193
f 690//118 687//118 691//118
f 687//119 688//119 691//119
f 691//120 688//120 689//120
f 688//121 686//121 689//121
f 693//122 690//122 694//122
f 690//123 691//123 694//123
f 694//124 691//124 692//124
f 691//125 689//125 692//125
f 696//126 693//126 697//126
f 693//127 694//127 697//127
f 697//128 694//128 695//128
f 694//129 692//129 695//129
f 699//130 696//130 700//130
f 696//131 697//131 700//131
f 700//132 697//132 698//132
f 697//133 695//133 698//133
f 702//134 699//134 703//134
f 699//135 700//135 703//135
f 703//136 700//136 701//136
f 700//137 698//137 701//137
f 705//138 702//138 706//138
f 702//139 703//139 706//139
f 706//140 703//140 704//140
f 703//141 701//141 704//141
f 708//142 705//142 709//142
f 705//143 706//143 709//143
f 709//180 706//180 707//180
f 706//145 704//145 707//145
f 711//146 708//146 712//146
f 708//147 709//147 712//147
f 712//148 709//148 710//148
f 709//194 707//194 710//194
f 714//150 711//150 715//150
f 711//151 712//151 715//151
f 715//152 712//152 713//152
f 712//153 710//153 713//153
f 717//154 714//154 718//154
f 714//155 715//155 718//155
f 718//156 715//156 716//156
f 715//157 713//157 716//157
f 671//158 717//158 673//158
f 717//159 718//159 673//159
f 673//160 718//160 672//160
f 718//161 716//161 672//161
f 671//10 675//10 624//10
f 675//10 626//10 624//10
f 623//15 591//15 669//15
f 591//15 606//15 669//15
f 814//9 811//9 740//9
f 811//9 739//9 740//9
f 845//10 796//10 842//10
f 796//10 793//10 842//10
f 845//10 799//10 796//10
f 799//10 752//10 796//10
f 817//11 814//11 741//11
f 814//11 740//11 741//11
f 806//10 809//10 757//10
f 809//10 760//10 757//10
f 820//12 817//12 742//12
f 817//12 741//12 742//12
f 802//13 800//13 736//13
f 800//13 735//13 736//13
f 811//14 808//14 739//14
f 808//14 738//14 739//14
f 823//15 820//15 743//15
f 820//15 742//15 743//15
f 763//10 760//10 812//10
f 760//10 809//10 812//10
f 826//16 823//16 744//16
f 823//16 743//16 744//16
f 766//10 763//10 815//10
f 763//10 812//10 815//10
f 829//17 826//17 745//17
f 826//17 744//17 745//17
f 769//10 766//10 818//10
f 766//10 815//10 818//10
f 832//18 829//18 746//18
f 829//18 745//18 746//18
f 769//10 818//10 772//10
f 818//10 821//10 772//10
f 835//19 832//19 747//19
f 832//19 746//19 747//19
f 772//10 821//10 775//10
f 821//10 824//10 775//10
f 838//20 835//20 748//20
f 835//20 747//20 748//20
f 824//10 827//10 775//10
f 827//10 778//10 775//10
f 839//10 842//10 790//10
f 842//10 793//10 790//10
f 781//10 778//10 830//10
f 778//10 827//10 830//10
f 841//21 838//21 749//21
f 838//21 748//21 749//21
f 784//10 781//10 833//10
f 781//10 830//10 833//10
f 844//22 841//22 750//22
f 841//22 749//22 750//22
f 757//10 754//10 806//10
f 754//10 803//10 806//10
f 833//10 836//10 784//10
f 836//10 787//10 784//10
f 808//23 805//23 738//23
f 805//23 737//23 738//23
f 839//10 790//10 836//10
f 790//10 787//10 836//10
f 805//24 802//24 737//24
f 802//24 736//24 737//24
f 773//25 726//25 770//25
f 726//25 725//25 770//25
f 785//26 730//26 782//26
f 730//26 729//26 782//26
f 782//27 729//27 779//27
f 729//27 728//27 779//27
f 755//16 720//16 751//16
f 720//16 719//16 751//16
f 764//19 723//19 761//19
f 723//19 722//19 761//19
f 776//28 727//28 773//28
f 727//28 726//28 773//28
f 767//20 724//20 764//20
f 724//20 723//20 764//20
f 791//9 732//9 788//9
f 732//9 731//9 788//9
f 794//29 733//29 791//29
f 733//29 732//29 791//29
f 761//30 722//30 758//30
f 722//30 721//30 758//30
f 788//14 731//14 785//14
f 731//14 730//14 785//14
f 770//31 725//31 767//31
f 725//31 724//31 767//31
f 779//13 728//13 776//13
f 728//13 727//13 776//13
f 797//32 734//32 794//32
f 734//32 733//32 794//32
f 758//33 721//33 755//33
f 721//33 720//33 755//33
f 755//34 751//34 756//34
f 751//35 753//35 756//35
f 756//36 753//36 754//36
f 753//37 752//37 754//37
f 758//38 755//38 759//38
f 755//162 756//162 759//162
f 759//40 756//40 757//40
f 756//163 754//163 757//163
f 761//42 758//42 762//42
f 758//186 759//186 762//186
f 762//187 759//187 760//187
f 759//45 757//45 760//45
f 764//164 761//164 765//164
f 761//47 762//47 765//47
f 765//48 762//48 763//48
f 762//49 760//49 763//49
f 767//50 764//50 768//50
f 764//51 765//51 768//51
f 768//166 765//166 766//166
f 765//167 763//167 766//167
f 770//168 767//168 771//168
f 767//188 768//188 771//188
f 771//56 768//56 769//56
f 768//189 766//189 769//189
f 773//58 770//58 774//58
f 770//190 771//190 774//190
f 774//60 771//60 772//60
f 771//61 769//61 772//61
f 776//62 773//62 777//62
f 773//63 774//63 777//63
f 777//64 774//64 775//64
f 774//65 772//65 775//65
f 779//66 776//66 780//66
f 776//67 777//67 780//67
f 780//68 777//68 778//68
f 777//69 775//69 778//69
f 782//70 779//70 783//70
f 779//181 780//181 783//181
f 783//72 780//72 781//72
f 780//182 778//182 781//182
f 785//74 782//74 786//74
f 782//183 783//183 786//183
f 786//76 783//76 784//76
f 783//77 781//77 784//77
f 788//195 785//195 789//195
f 785//79 786//79 789//79
f 789//80 786//80 787//80
f 786//81 784//81 787//81
f 791//82 788//82 792//82
f 788//83 789//83 792//83
f 792//172 789//172 790//172
f 789//173 787//173 790//173
f 794//86 791//86 795//86
f 791//87 792//87 795//87
f 795//88 792//88 793//88
f 792//89 790//89 793//89
f 797//90 794//90 798//90
f 794//184 795//184 798//184
f 798//92 795//92 796//92
f 795//93 793//93 796//93
f 751//94 797//94 753//94
f 797//95 798//95 753//95
f 753//96 798//96 752//96
f 798//97 796//97 752//97
f 800//28 844//28 735//28
f 844//28 750//28 735//28
f 803//98 799//98 804//98
f 799//99 801//99 804//99
f 804//100 801//100 802//100
f 801//101 800//101 802//101
f 806//102 803//102 807//102
f 803//103 804//103 807//103
f 807//174 804//174 805//174
f 804//175 802//175 805//175
f 809//106 806//106 810//106
f 806//107 807//107 810//107
f 810//192 807//192 808//192
f 807//109 805//109 808//109
f 812//110 809//110 813//110
f 809//111 810//111 813//111
f 813//185 810//185 811//185
f 810//113 808//113 811//113
f 815//114 812//114 816//114
f 812//115 813//115 816//115
f 816//116 813//116 814//116
f 813//193 811//193 814//193
f 818//118 815//118 819//118
f 815//119 816//119 819//119
f 819//120 816//120 817//120
f 816//121 814//121 817//121
f 821//122 818//122 822//122
f 818//123 819//123 822//123
f 822//124 819//124 820//124
f 819//125 817//125 820//125
f 824//126 821//126 825//126
f 821//127 822//127 825//127
f 825//128 822//128 823//128
f 822//129 820//129 823//129
f 827//130 824//130 828//130
f 824//131 825//131 828//131
f 828//132 825//132 826//132
f 825//133 823//133 826//133
f 830//134 827//134 831//134
f 827//135 828//135 831//135
f 831//136 828//136 829//136
f 828//137 826//137 829//137
f 833//138 830//138 834//138
f 830//139 831//139 834//139
f 834//140 831//140 832//140
f 831//141 829//141 832//141
f 836//142 833//142 837//142
f 833//143 834//143 837//143
f 837//180 834//180 835//180
f 834//145 832//145 835//145
f 839//146 836//146 840//146
f 836//147 837//147 840//147
f 840//148 837//148 838//148
f 837//149 835//149 838//149
f 842//150 839//150 843//150
f 839//151 840//151 843//151
f 843//152 840//152 841//152
f 840//153 838//153 841//153
f 845//154 842//154 846//154
f 842//155 843//155 846//155
f 846//156 843//156 844//156
f 843//157 841//157 844//157
f 799//158 845//158 801//158
f 845//159 846//159 801//159
f 801//160 846//160 800//160
f 846//161 844//161 800//161
f 799//10 803//10 752//10
f 803//10 754//10 752//10
f 751//15 719//15 797//15
f 719//15 734//15 797//15
f 942//9 939//9 868//9
f 939//9 867//9 868//9
f 973//10 924//10 970//10
f 924//10 921//10 970//10
f 973//10 927//10 924//10
f 927//10 880//10 924//10
f 945//11 942//11 869//11
f 942//11 868//11 869//11
f 934//10 937//10 885//10
f 937//10 888//10 885//10
f 948//12 945//12 870//12
f 945//12 869//12 870//12
f 930//13 928//13 864//13
f 928//13 863//13 864//13
f 939//14 936//14 867//14
f 936//14 866//14 867//14
f 951//15 948//15 871//15
f 948//15 870//15 871//15
f 891//10 888//10 940//10
f 888//10 937//10 940//10
f 954//16 951//16 872//16
f 951//16 871//16 872//16
f 894//10 891//10 943//10
f 891//10 940//10 943//10
f 957//17 954//17 873//17
f 954//17 872//17 873//17
f 897//10 894//10 946//10
f 894//10 943//10 946//10
f 960//18 957//18 874//18
f 957//18 873//18 874//18
f 897//10 946//10 900//10
f 946//10 949//10 900//10
f 963//19 960//19 875//19
f 960//19 874//19 875//19
f 900//10 949//10 903//10
f 949//10 952//10 903//10
f 966//20 963//20 876//20
f 963//20 875//20 876//20
f 952//10 955//10 903//10
f 955//10 906//10 903//10
f 967//10 970//10 918//10
f 970//10 921//10 918//10
f 909//10 906//10 958//10
f 906//10 955//10 958//10
f 969//21 966//21 877//21
f 966//21 876//21 877//21
f 912//10 909//10 961//10
f 909//10 958//10 961//10
f 972//22 969//22 878//22
f 969//22 877//22 878//22
f 885//10 882//10 934//10
f 882//10 931//10 934//10
f 961//10 964//10 912//10
f 964//10 915//10 912//10
f 936//23 933//23 866//23
f 933//23 865//23 866//23
f 967//10 918//10 964//10
f 918//10 915//10 964//10
f 933//24 930//24 865//24
f 930//24 864//24 865//24
f 901//25 854//25 898//25
f 854//25 853//25 898//25
f 913//26 858//26 910//26
f 858//26 857//26 910//26
f 910//27 857//27 907//27
f 857//27 856//27 907//27
f 883//16 848//16 879//16
f 848//16 847//16 879//16
f 892//19 851//19 889//19
f 851//19 850//19 889//19
f 904//28 855//28 901//28
f 855//28 854//28 901//28
f 895//20 852//20 892//20
f 852//20 851//20 892//20
f 919//9 860//9 916//9
f 860//9 859//9 916//9
f 922//29 861//29 919//29
f 861//29 860//29 919//29
f 889//30 850//30 886//30
f 850//30 849//30 886//30
f 916//14 859//14 913//14
f 859//14 858//14 913//14
f 898//31 853//31 895//31
f 853//31 852//31 895//31
f 907//13 856//13 904//13
f 856//13 855//13 904//13
f 925//32 862//32 922//32
f 862//32 861//32 922//32
f 886//33 849//33 883//33
f 849//33 848//33 883//33
f 883//34 879//34 884//34
f 879//35 881//35 884//35
f 884//36 881//36 882//36
f 881//37 880//37 882//37
f 886//38 883//38 887//38
f 883//39 884//39 887//39
f 887//40 884//40 885//40
f 884//41 882//41 885//41
f 889//42 886//42 890//42
f 886//186 887//186 890//186
f 890//44 887//44 888//44
f 887//45 885//45 888//45
f 892//164 889//164 893//164
f 889//47 890//47 893//47
f 893//48 890//48 891//48
f 890//49 888//49 891//49
f 895//50 892//50 896//50
f 892//51 893//51 896//51
f 896//166 893//166 894//166
f 893//167 891//167 894//167
f 898//168 895//168 899//168
f 895//188 896//188 899//188
f 899//56 896//56 897//56
f 896//57 894//57 897//57
f 901//58 898//58 902//58
f 898//190 899//190 902//190
f 902//60 899//60 900//60
f 899//61 897//61 900//61
f 904//62 901//62 905//62
f 901//63 902//63 905//63
f 905//64 902//64 903//64
f 902//65 900//65 903//65
f 907//66 904//66 908//66
f 904//67 905//67 908//67
f 908//68 905//68 906//68
f 905//69 903//69 906//69
f 910//70 907//70 911//70
f 907//71 908//71 911//71
f 911//72 908//72 909//72
f 908//73 906//73 909//73
f 913//74 910//74 914//74
f 910//75 911//75 914//75
f 914//170 911//170 912//170
f 911//77 909//77 912//77
f 916//78 913//78 917//78
f 913//79 914//79 917//79
f 917//171 914//171 915//171
f 914//81 912//81 915//81
f 919//82 916//82 920//82
f 916//83 917//83 920//83
f 920//172 917//172 918//172
f 917//173 915//173 918//173
f 922//86 919//86 923//86
f 919//87 920//87 923//87
f 923//88 920//88 921//88
f 920//89 918//89 921//89
f 925//90 922//90 926//90
f 922//91 923//91 926//91
f 926//92 923//92 924//92
f 923//93 921//93 924//93
f 879//94 925//94 881//94
f 925//95 926//95 881//95
f 881//96 926//96 880//96
f 926//97 924//97 880//97
f 928//28 972//28 863//28
f 972//28 878//28 863//28
f 931//98 927//98 932//98
f 927//99 929//99 932//99
f 932//100 929//100 930//100
f 929//101 928//101 930//101
f 934//102 931//102 935//102
f 931//103 932//103 935//103
f 935//174 932//174 933//174
f 932//175 930//175 933//175
f 937//106 934//106 938//106
f 934//107 935//107 938//107
f 938//192 935//192 936//192
f 935//109 933//109 936//109
f 940//110 937//110 941//110
f 937//111 938//111 941//111
f 941//185 938//185 939//185
f 938//113 936//113 939//113
f 943//114 940//114 944//114
f 940//115 941//115 944//115
f 944//116 941//116 942//116
f 941//117 939//117 942//117
f 946//118 943//118 947//118
f 943//119 944//119 947//119
f 947//120 944//120 945//120
f 944//121 942//121 945//121
f 949//122 946//122 950//122
f 946//123 947//123 950//123
f 950//124 947//124 948//124
f 947//125 945//125 948//125
f 952//126 949//126 953//126
f 949//127 950//127 953//127
f 953//128 950//128 951//128
f 950//129 948//129 951//129
f 955//130 952//130 956//130
f 952//131 953//131 956//131
f 956//132 953//132 954//132
f 953//133 951//133 954//133
f 958//134 955//134 959//134
f 955//135 956//135 959//135
f 959//136 956//136 957//136
f 956//137 954//137 957//137
f 961//138 958//138 962//138
f 958//139 959//139 962//139
f 962//178 959//178 960//178
f 959//179 957//179 960//179
f 964//142 961//142 965//142
f 961//143 962//143 965//143
f 965//180 962//180 963//180
f 962//145 960//145 963//145
f 967//146 964//146 968//146
f 964//147 965//147 968//147
f 968//148 965//148 966//148
f 965//149 963//149 966//149
f 970//150 967//150 971//150
f 967//151 968//151 971//151
f 971//152 968//152 969//152
f 968//153 966//153 969//153
f 973//154 970//154 974//154
f 970//155 971//155 974//155
f 974//156 971//156 972//156
f 971//157 969//157 972//157
f 927//158 973//158 929//158
f 973//159 974//159 929//159
f 929//160 974//160 928//160
f 974//161 972//161 928//161
f 927//10 931//10 880//10
f 931//10 882//10 880//10
f 879//15 847//15 925//15
f 847//15 862//15 925//15
f 1013//25 982//25 1010//25
f 982//25 981//25 1010//25
f 1025//26 986//26 1022//26
f 986//26 985//26 1022//26
f 1022//27 985//27 1019//27
f 985//27 984//27 1019//27
f 995//16 976//16 991//16
f 976//16 975//16 991//16
f 1004//19 979//19 1001//19
f 979//19 978//19 1001//19
f 1016//28 983//28 1013//28
f 983//28 982//28 1013//28
f 1007//20 980//20 1004//20
f 980//20 979//20 1004//20
f 1031//9 988//9 1028//9
f 988//9 987//9 1028//9
f 1034//29 989//29 1031//29
f 989//29 988//29 1031//29
f 1001//30 978//30 998//30
f 978//30 977//30 998//30
f 1028//14 987//14 1025//14
f 987//14 986//14 1025//14
f 1010//31 981//31 1007//31
f 981//31 980//31 1007//31
f 1019//13 984//13 1016//13
f 984//13 983//13 1016//13
f 1037//32 990//32 1034//32
f 990//32 989//32 1034//32
f 998//33 977//33 995//33
f 977//33 976//33 995//33
f 995//34 991//34 996//34
f 991//35 993//35 996//35
f 996//36 993//36 994//36
f 993//37 992//37 994//37
f 998//38 995//38 999//38
f 995//39 996//39 999//39
f 999//40 996//40 997//40
f 996//163 994//163 997//163
f 1001//42 998//42 1002//42
f 998//186 999//186 1002//186
f 1002//187 999//187 1000//187
f 999//45 997//45 1000//45
f 1004//46 1001//46 1005//46
f 1001//47 1002//47 1005//47
f 1005//48 1002//48 1003//48
f 1002//49 1000//49 1003//49
f 1007//50 1004//50 1008//50
f 1004//51 1005//51 1008//51
f 1008//166 1005//166 1006//166
f 1005//167 1003//167 1006//167
f 1010//168 1007//168 1011//168
f 1007//188 1008//188 1011//188
f 1011//56 1008//56 1009//56
f 1008//57 1006//57 1009//57
f 1013//58 1010//58 1014//58
f 1010//190 1011//190 1014//190
f 1014//60 1011//60 1012//60
f 1011//61 1009//61 1012//61
f 1016//62 1013//62 1017//62
f 1013//63 1014//63 1017//63
f 1017//64 1014//64 1015//64
f 1014//65 1012//65 1015//65
f 1019//66 1016//66 1020//66
f 1016//67 1017//67 1020//67
f 1020//68 1017//68 1018//68
f 1017//69 1015//69 1018//69
f 1022//70 1019//70 1023//70
f 1019//71 1020//71 1023//71
f 1023//72 1020//72 1021//72
f 1020//182 1018//182 1021//182
f 1025//74 1022//74 1026//74
f 1022//183 1023//183 1026//183
f 1026//76 1023//76 1024//76
f 1023//77 1021//77 1024//77
f 1028//78 1025//78 1029//78
f 1025//79 1026//79 1029//79
f 1029//80 1026//80 1027//80
f 1026//81 1024//81 1027//81
f 1031//82 1028//82 1032//82
f 1028//83 1029//83 1032//83
f 1032//172 1029//172 1030//172
f 1029//173 1027//173 1030//173
f 1034//86 1031//86 1035//86
f 1031//196 1032//196 1035//196
f 1035//88 1032//88 1033//88
f 1032//191 1030//191 1033//191
f 1037//90 1034//90 1038//90
f 1034//184 1035//184 1038//184
f 1038//92 1035//92 1036//92
f 1035//93 1033//93 1036//93
f 991//94 1037//94 993//94
f 1037//95 1038//95 993//95
f 993//96 1038//96 992//96
f 1038//97 1036//97 992//97
f 991//15 975//15 1037//15
f 975//15 990//15 1037//15
f 1006//10 1039//10 1009//10
f 1039//10 1012//10 1009//10
f 1039//10 1042//10 1012//10
f 1042//10 1015//10 1012//10
f 1042//10 1045//10 1015//10
f 1045//10 1018//10 1015//10
f 1045//10 1024//10 1018//10
f 1024//10 1021//10 1018//10
f 1003//10 1040//10 1006//10
f 1040//10 1039//10 1006//10
f 1040//10 1043//10 1039//10
f 1043//10 1042//10 1039//10
f 1043//10 1046//10 1042//10
f 1046//10 1045//10 1042//10
f 1046//10 1027//10 1045//10
f 1027//10 1024//10 1045//10
f 1000//10 1041//10 1003//10
f 1041//10 1040//10 1003//10
f 1041//10 1044//10 1040//10
f 1044//10 1043//10 1040//10
f 1044//10 1047//10 1043//10
f 1047//10 1046//10 1043//10
f 1047//10 1030//10 1046//10
f 1030//10 1027//10 1046//10
f 997//10 994//10 1000//10
f 994//10 1041//10 1000//10
f 994//10 992//10 1041//10
f 992//10 1044//10 1041//10
f 992//10 1036//10 1044//10
f 1036//10 1047//10 1044//10
f 1036//10 1033//10 1047//10
f 1033//10 1030//10 1047//10
